<?xml version="1.0" encoding="UTF-8"?>
<svg id="Ebene_1" data-name="Ebene 1" xmlns="http://www.w3.org/2000/svg" viewBox="0 0 364 356">
  <rect width="364" height="356" fill="#fbf2d8"/>
  <circle cx="38.67" cy="35.11" r="21.67" fill="#c03b2d"/>
  <circle cx="108.99" cy="35.11" r="21.67" fill="#c03b2d"/>
  <circle cx="179.31" cy="35.11" r="21.67" fill="#c03b2d"/>
  <circle cx="249.63" cy="35.11" r="21.67" fill="#48a346"/>
  <circle cx="38.67" cy="108.09" r="21.67" fill="#48a346"/>
  <circle cx="108.99" cy="108.09" r="21.67" fill="#c03b2d"/>
  <circle cx="179.31" cy="108.09" r="21.67" fill="#48a346"/>
  <circle cx="249.63" cy="108.09" r="21.67" fill="#48a346"/>
  <circle cx="38.67" cy="181.08" r="21.67" fill="#c03b2d"/>
  <circle cx="108.99" cy="181.08" r="21.67" fill="#48a346"/>
  <circle cx="179.85" cy="181.08" r="21.67" fill="#c03b2d"/>
  <circle cx="249.52" cy="181.08" r="21.67" fill="#48a346"/>
  <rect x="60.33" y="34.54" width="27.37" height="1.14"/>
  <rect x="60.33" y="324.76" width="27.37" height="1.14"/>
  <rect x="38.67" y="56.78" width="1.14" height="29.08"/>
  <rect x="320.33" y="56.78" width="1.14" height="29.08"/>
  <rect x="38.67" y="130.9" width="1.14" height="29.08"/>
  <rect x="249.63" y="130.9" width="1.14" height="29.08"/>
  <rect x="108.23" y="130.9" width="1.14" height="29.08"/>
  <rect x="108.23" y="202.74" width="1.14" height="29.08"/>
  <rect x="320.33" y="130.9" width="1.14" height="29.08"/>
  <rect x="320.33" y="202.74" width="1.14" height="29.08"/>
  <circle cx="38.67" cy="252.92" r="21.67" fill="#48a346"/>
  <circle cx="108.99" cy="252.92" r="21.67" fill="#c03b2d"/>
  <circle cx="179.31" cy="252.92" r="21.67" fill="#48a346"/>
  <circle cx="249.63" cy="252.92" r="21.67" fill="#c03b2d"/>
  <rect x="38.67" y="202.74" width="1.14" height="29.08"/>
  <rect x="129.89" y="35.11" width="27.37" height="1.14"/>
  <rect x="200.6" y="35.11" width="27.37" height="1.14"/>
  <rect x="200.6" y="178.8" width="27.37" height="1.14"/>
  <rect x="200.6" y="106.95" width="27.37" height="1.14"/>
  <rect x="129.89" y="106.95" width="27.37" height="1.14"/>
  <rect x="129.89" y="252.92" width="27.37" height="1.14"/>
  <rect x="200.6" y="252.92" width="27.37" height="1.14"/>
  <rect x="271.3" y="252.92" width="27.37" height="1.14"/>
  <rect x="129.89" y="324.76" width="27.37" height="1.14"/>
  <rect x="200.6" y="324.76" width="27.37" height="1.14"/>
  <rect x="271.3" y="324.76" width="27.37" height="1.14"/>
  <circle cx="320.33" cy="35.11" r="21.67" fill="#c03b2d"/>
  <circle cx="320.33" cy="108.09" r="21.67" fill="#48a346"/>
  <circle cx="320.33" cy="181.08" r="21.67" fill="#c03b2d"/>
  <circle cx="320.33" cy="252.92" r="21.67" fill="#c03b2d"/>
  <circle cx="38.67" cy="324.76" r="21.67" fill="#c03b2d"/>
  <circle cx="108.99" cy="324.76" r="21.67" fill="#c03b2d"/>
  <circle cx="179.31" cy="324.76" r="21.67" fill="#48a346"/>
  <circle cx="249.63" cy="324.76" r="21.67" fill="#c03b2d"/>
  <rect x="38.67" y="274.58" width="1.14" height="29.08"/>
  <circle cx="320.33" cy="324.76" r="21.67" fill="#c03b2d"/>
  <rect x="271.3" y="35.11" width="27.37" height="1.14"/>
  <path d="M172.63,178.49c0-3.35.42-5.94,1.27-7.77,1.18-2.72,3.16-4.08,5.95-4.08.59,0,1.19.08,1.81.24.62.16,1.32.55,2.1,1.16.79.61,1.42,1.42,1.9,2.42.91,1.94,1.37,4.61,1.37,8.02s-.42,5.9-1.27,7.72c-1.24,2.65-3.22,3.98-5.95,3.98-1.03,0-2.06-.26-3.1-.78-1.04-.52-1.89-1.41-2.55-2.67-1.02-1.88-1.54-4.63-1.54-8.24ZM175.47,178.07c0,3.44.12,5.85.37,7.22.28,1.48.8,2.54,1.56,3.18.76.64,1.57.96,2.41.96.91,0,1.75-.34,2.51-1.03s1.26-1.77,1.5-3.25c.26-1.46.38-3.82.37-7.08,0-3.17-.11-5.4-.33-6.67-.3-1.48-.85-2.52-1.65-3.12s-1.59-.89-2.4-.89c-.3,0-.61.04-.93.13-.32.09-.7.26-1.16.52-.46.26-.86.7-1.21,1.34-.35.63-.61,1.43-.78,2.39-.18,1.24-.27,3.34-.27,6.3Z" fill="#fff"/>
  <path d="M243.84,169.9v-1.07c2.76,0,4.86-.73,6.28-2.19.36,0,.58.04.64.13.06.09.09.34.09.75v19.18c0,.68.17,1.12.52,1.33.35.21,1.28.32,2.79.32h1.13v1.07c-.8-.07-2.65-.1-5.55-.1s-4.74.03-5.53.1v-1.07h1.08c1.44,0,2.33-.1,2.67-.31.35-.21.52-.65.52-1.34v-17.71c-1.24.6-2.79.9-4.66.9Z" fill="#fff"/>
  <path d="M242.56,118.73c0-.41.02-.68.06-.8.04-.12.14-.28.32-.47l6.51-7.32c2.4-2.7,3.6-5.23,3.6-7.58,0-1.52-.4-2.83-1.2-3.92-.8-1.09-1.93-1.63-3.39-1.63-1,0-1.91.3-2.75.91-.84.61-1.45,1.45-1.84,2.53.07-.02.21-.03.44-.03.56,0,.99.18,1.3.54.31.36.47.78.47,1.26,0,.62-.19,1.08-.58,1.37s-.77.45-1.16.45c-.15,0-.33-.02-.53-.05-.2-.03-.46-.21-.78-.53-.32-.32-.47-.77-.47-1.34,0-1.59.6-3.02,1.79-4.28,1.2-1.27,2.71-1.9,4.54-1.9,2.07,0,3.79.62,5.15,1.86s2.04,2.83,2.04,4.76c0,.68-.1,1.33-.31,1.95-.21.62-.44,1.17-.71,1.65-.27.48-.77,1.1-1.5,1.87s-1.39,1.43-1.97,1.97-1.54,1.4-2.85,2.56l-3.6,3.53h6.12c1.99,0,3.06-.09,3.22-.27.22-.32.47-1.34.75-3.04h.85l-.95,5.95h-12.58Z" fill="#fff"/>
  <path d="M172.73,114.1c0-.69.16-1.19.49-1.52.32-.33.69-.49,1.11-.49.53,0,.98.17,1.36.51.38.34.57.81.57,1.41,0,.64-.22,1.14-.67,1.5-.45.36-.98.49-1.61.41.55.91,1.33,1.57,2.35,1.97,1.01.41,1.99.61,2.93.61s1.87-.42,2.67-1.27c.8-.85,1.2-2.31,1.2-4.38,0-1.75-.34-3.13-1.03-4.14-.69-1.01-1.71-1.51-3.06-1.51h-1.51c-.39,0-.64-.02-.75-.05-.11-.03-.17-.14-.17-.32,0-.21.21-.34.62-.39.35,0,.79-.03,1.34-.1,1.33-.04,2.35-.65,3.05-1.81.64-1.08.96-2.39.96-3.94,0-1.38-.33-2.36-1-2.94-.66-.58-1.43-.87-2.29-.87-.81,0-1.65.16-2.54.49s-1.57.85-2.05,1.57c1.43,0,2.14.58,2.14,1.75,0,.51-.16.93-.48,1.27-.32.33-.75.5-1.27.5s-.93-.16-1.26-.49c-.34-.32-.51-.76-.51-1.32,0-1.29.58-2.39,1.76-3.28s2.62-1.34,4.35-1.34,3.11.44,4.34,1.33,1.85,2.01,1.85,3.37-.43,2.6-1.3,3.71c-.87,1.11-2,1.9-3.38,2.36,1.74.34,3.13,1.1,4.16,2.26,1.04,1.17,1.55,2.46,1.55,3.89,0,1.79-.7,3.34-2.11,4.65-1.41,1.31-3.13,1.97-5.19,1.97-1.81,0-3.37-.51-4.67-1.54-1.3-1.03-1.95-2.31-1.95-3.84Z" fill="#fff"/>
  <path d="M101.46,113.08v-1.07l10.51-16.05c.18-.28.41-.41.69-.4.26,0,.41.05.47.15s.08.35.08.73v15.57h3.51v1.07h-3.51v2.96c0,.65.14,1.09.41,1.3s1,.32,2.18.32h.72v1.07c-.94-.07-2.47-.1-4.6-.1s-3.73.03-4.67.1v-1.07h.74c1.21,0,1.96-.1,2.24-.31.29-.21.43-.64.43-1.31v-2.96h-9.19ZM102.51,112.01h8.34v-12.76l-8.34,12.76Z" fill="#fff"/>
  <path d="M102.16,184.97c0-.72.2-1.21.59-1.49.4-.28.8-.41,1.22-.41.49,0,.89.17,1.18.52.29.35.43.76.43,1.24s-.14.9-.43,1.24c-.29.35-.68.52-1.18.52-.28,0-.49-.02-.63-.07.3,1.04.9,1.94,1.81,2.69.91.75,1.97,1.13,3.17,1.13,1.53,0,2.75-.76,3.67-2.27.55-.98.82-2.58.82-4.8,0-1.86-.21-3.26-.62-4.19-.64-1.42-1.61-2.13-2.91-2.13-1.85,0-3.32.77-4.41,2.32-.12.19-.25.3-.39.31-.2,0-.32-.06-.37-.19s-.07-.36-.07-.71v-10.06c0-.54.11-.81.33-.81.09,0,.23.02.42.07,1.44.46,2.95.69,4.54.7,1.64,0,3.19-.33,4.66-1,.11-.07.2-.1.27-.1.22,0,.34.13.35.38,0,.09-.09.27-.28.54-.19.27-.48.59-.87.97-.39.38-.84.74-1.35,1.1-.51.36-1.13.66-1.87.9-.74.24-1.51.36-2.32.36-.97,0-1.95-.15-2.94-.45v6.64c1.18-1.14,2.63-1.71,4.35-1.71,1.82,0,3.36.72,4.62,2.16,1.26,1.44,1.89,3.16,1.89,5.17,0,2.19-.74,4.04-2.23,5.54s-3.23,2.25-5.23,2.25c-1.84,0-3.34-.66-4.5-1.98-1.16-1.32-1.74-2.78-1.74-4.37Z" fill="#fff"/>
  <path d="M102.03,252.74c0-3.58.91-6.48,2.73-8.68s3.91-3.3,6.25-3.3c1.34,0,2.38.35,3.12,1.04.75.69,1.12,1.57,1.12,2.64,0,.59-.17,1.02-.51,1.28-.34.26-.69.39-1.04.39-.39,0-.73-.14-1.04-.42s-.46-.67-.46-1.18c0-1.03.6-1.54,1.79-1.54-.57-.9-1.55-1.35-2.92-1.35-.44,0-.89.06-1.34.19s-.97.4-1.56.83c-.59.42-1.11.97-1.56,1.64-.45.67-.84,1.63-1.15,2.89-.32,1.26-.47,2.71-.47,4.34v.82c.93-2.24,2.36-3.35,4.27-3.35,1.91,0,3.53.73,4.85,2.18,1.32,1.45,1.99,3.25,1.99,5.4s-.68,4.06-2.05,5.54c-1.37,1.47-3.01,2.21-4.93,2.21-.86,0-1.69-.18-2.47-.54-.78-.36-1.53-.96-2.26-1.78s-1.3-2.03-1.73-3.61c-.43-1.58-.65-3.46-.65-5.63ZM105.07,255.81c0,2.24.21,3.89.63,4.96.07.18.18.39.33.63.15.24.36.53.63.84.27.32.62.58,1.06.78.44.21.91.31,1.42.31,1.51,0,2.63-.74,3.36-2.22.39-.82.58-2.35.58-4.59s-.2-3.84-.61-4.67c-.69-1.41-1.75-2.12-3.15-2.12-.97,0-1.79.33-2.46.98s-1.14,1.42-1.39,2.3c-.25.88-.38,1.81-.38,2.79Z" fill="#fff"/>
  <path d="M173.22,247.47l1.12-7.03h.85c.06.28.15.48.27.6.11.12.49.23,1.13.33.64.1,1.6.15,2.9.15h8.28c0,.52-.1.92-.3,1.2l-4.63,6.5c-.98,1.37-1.69,3.32-2.12,5.85-.26,1.69-.38,3.56-.37,5.61v1.74c0,1.26-.51,1.89-1.52,1.89s-1.52-.63-1.52-1.89c0-4.35,1.4-8.64,4.21-12.86.3-.43,1-1.43,2.11-2.97s1.68-2.36,1.73-2.42h-7.08c-2.07,0-3.19.07-3.36.2-.22.2-.51,1.24-.85,3.11h-.85Z" fill="#fff"/>
  <path d="M242.29,258.38c0-2.55,1.64-4.65,4.93-6.29-1.41-.96-2.25-1.57-2.51-1.85-1-1.11-1.5-2.36-1.5-3.76,0-1.59.6-2.94,1.81-4.05,1.21-1.11,2.67-1.66,4.38-1.66s3.07.47,4.31,1.42,1.85,2.17,1.85,3.67c0,2.11-1.38,3.88-4.14,5.31,1.83,1.14,2.96,1.94,3.39,2.42,1.11,1.23,1.67,2.64,1.67,4.21,0,1.83-.7,3.37-2.11,4.63-1.4,1.26-3.07,1.88-5.01,1.88s-3.55-.55-4.96-1.66c-1.41-1.1-2.12-2.53-2.12-4.27ZM244,258.38c0,1.41.53,2.59,1.59,3.54,1.06.95,2.34,1.42,3.82,1.42s2.69-.41,3.77-1.23c1.07-.82,1.61-1.85,1.61-3.07,0-.48-.08-.92-.24-1.34-.16-.41-.4-.78-.72-1.11-.32-.33-.57-.57-.77-.72-.19-.15-.48-.35-.84-.61l-4.21-2.65c-2.67,1.48-4.01,3.41-4.01,5.78ZM244.71,245.14c0,1.09.57,2.01,1.72,2.77l4.24,2.74c2.26-1.32,3.39-2.92,3.39-4.79,0-1.21-.46-2.22-1.39-3.03-.92-.81-2.03-1.21-3.31-1.21s-2.35.33-3.27.99c-.92.66-1.39,1.51-1.39,2.53Z" fill="#fff"/>
  <path d="M312.99,248.49c0-1.22.18-2.24.53-3.08.35-.83.9-1.66,1.64-2.49,1.36-1.44,3.01-2.16,4.98-2.16.85,0,1.65.18,2.4.54.75.36,1.49.94,2.21,1.75.72.81,1.3,2.01,1.73,3.6.44,1.59.65,3.48.65,5.67,0,3.52-.86,6.39-2.58,8.62-1.72,2.23-3.74,3.35-6.05,3.35-1.43,0-2.57-.33-3.41-.99-.84-.66-1.26-1.56-1.26-2.7,0-.59.17-1.01.49-1.26s.68-.38,1.05-.38.73.14,1.04.41c.3.27.46.66.46,1.16,0,.41-.12.78-.37,1.09-.25.32-.69.48-1.32.48.64.81,1.74,1.22,3.28,1.22.58,0,1.15-.13,1.73-.39.58-.26,1.18-.71,1.8-1.35.63-.64,1.13-1.63,1.52-2.97s.58-2.95.58-4.83v-1.08c-.93,2.26-2.37,3.38-4.34,3.38s-3.5-.73-4.81-2.2c-1.31-1.47-1.97-3.27-1.97-5.41ZM316.03,248.53c0,2.27.2,3.82.61,4.66.69,1.44,1.75,2.16,3.15,2.16s2.47-.62,3.18-1.87c.71-1.25,1.06-2.68,1.06-4.3,0-2.25-.19-3.86-.56-4.85-.69-1.81-1.8-2.72-3.33-2.72s-2.67.72-3.42,2.16c-.46.85-.69,2.43-.69,4.74Z" fill="#fff"/>
  <g>
    <path d="M305.88,172.18v-1.07c2.76,0,4.86-.73,6.28-2.19.36,0,.58.04.64.13.06.09.09.34.09.75v19.18c0,.68.17,1.12.52,1.33.35.21,1.28.32,2.79.32h1.13v1.07c-.8-.07-2.65-.1-5.55-.1s-4.74.03-5.53.1v-1.07h1.08c1.44,0,2.33-.1,2.67-.31.35-.21.52-.65.52-1.34v-17.71c-1.24.6-2.79.9-4.66.9Z" fill="#fff"/>
    <path d="M321.45,180.77c0-3.35.42-5.94,1.27-7.77,1.18-2.72,3.16-4.08,5.95-4.08.59,0,1.19.08,1.81.24.62.16,1.32.55,2.1,1.16.79.61,1.42,1.42,1.9,2.42.91,1.94,1.37,4.61,1.37,8.02s-.42,5.9-1.27,7.72c-1.24,2.65-3.22,3.98-5.95,3.98-1.03,0-2.06-.26-3.1-.78-1.04-.52-1.89-1.41-2.55-2.67-1.02-1.88-1.54-4.63-1.54-8.24ZM324.29,180.35c0,3.44.12,5.85.37,7.22.28,1.48.8,2.54,1.56,3.18.76.64,1.57.96,2.41.96.91,0,1.75-.34,2.51-1.03s1.26-1.77,1.5-3.25c.26-1.46.38-3.82.37-7.08,0-3.17-.11-5.4-.33-6.67-.3-1.48-.85-2.52-1.65-3.12s-1.59-.89-2.4-.89c-.3,0-.61.04-.93.13-.32.09-.7.26-1.16.52-.46.26-.86.7-1.21,1.34-.35.63-.61,1.43-.78,2.39-.18,1.24-.27,3.34-.27,6.3Z" fill="#fff"/>
  </g>
  <g>
    <path d="M305.88,99.2v-1.07c2.76,0,4.86-.73,6.28-2.19.36,0,.58.04.64.13.06.09.09.34.09.75v19.18c0,.68.17,1.12.52,1.33.35.21,1.28.32,2.79.32h1.13v1.07c-.8-.07-2.65-.1-5.55-.1s-4.74.03-5.53.1v-1.07h1.08c1.44,0,2.33-.1,2.67-.31.35-.21.52-.65.52-1.34v-17.71c-1.24.6-2.79.9-4.66.9Z" fill="#fff"/>
    <path d="M322.98,99.2v-1.07c2.76,0,4.86-.73,6.28-2.19.36,0,.58.04.64.13.06.09.09.34.09.75v19.18c0,.68.17,1.12.52,1.33.35.21,1.28.32,2.79.32h1.13v1.07c-.8-.07-2.65-.1-5.55-.1s-4.74.03-5.53.1v-1.07h1.08c1.44,0,2.33-.1,2.67-.31.35-.21.52-.65.52-1.34v-17.71c-1.24.6-2.79.9-4.66.9Z" fill="#fff"/>
  </g>
  <g>
    <path d="M305.88,27.36v-1.07c2.76,0,4.86-.73,6.28-2.19.36,0,.58.04.64.13.06.09.09.34.09.75v19.18c0,.68.17,1.12.52,1.33.35.21,1.28.32,2.79.32h1.13v1.07c-.8-.07-2.65-.1-5.55-.1s-4.74.03-5.53.1v-1.07h1.08c1.44,0,2.33-.1,2.67-.31.35-.21.52-.65.52-1.34v-17.71c-1.24.6-2.79.9-4.66.9Z" fill="#fff"/>
    <path d="M321.81,46.89c0-.41.02-.68.06-.8.04-.12.14-.28.32-.47l6.51-7.32c2.4-2.7,3.6-5.23,3.6-7.58,0-1.52-.4-2.83-1.2-3.92-.8-1.09-1.93-1.63-3.39-1.63-1,0-1.91.3-2.75.91-.84.61-1.45,1.45-1.84,2.53.07-.02.21-.03.44-.03.56,0,.99.18,1.3.54.31.36.47.78.47,1.26,0,.62-.19,1.08-.58,1.37s-.77.45-1.16.45c-.15,0-.33-.02-.53-.05-.2-.03-.46-.21-.78-.53-.32-.32-.47-.77-.47-1.34,0-1.59.6-3.02,1.79-4.28,1.2-1.27,2.71-1.9,4.54-1.9,2.07,0,3.79.62,5.15,1.86s2.04,2.83,2.04,4.76c0,.68-.1,1.33-.31,1.95-.21.62-.44,1.17-.71,1.65-.27.48-.77,1.1-1.5,1.87s-1.39,1.43-1.97,1.97-1.54,1.4-2.85,2.56l-3.6,3.53h6.12c1.99,0,3.06-.09,3.22-.27.22-.32.47-1.34.75-3.04h.85l-.95,5.95h-12.58Z" fill="#fff"/>
  </g>
  <g>
    <path d="M235.18,27.36v-1.07c2.76,0,4.86-.73,6.28-2.19.36,0,.58.04.64.13.06.09.09.34.09.75v19.18c0,.68.17,1.12.52,1.33.35.21,1.28.32,2.79.32h1.13v1.07c-.8-.07-2.65-.1-5.55-.1s-4.74.03-5.53.1v-1.07h1.08c1.44,0,2.33-.1,2.67-.31.35-.21.52-.65.52-1.34v-17.71c-1.24.6-2.79.9-4.66.9Z" fill="#fff"/>
    <path d="M250.85,42.26c0-.69.16-1.19.49-1.52.32-.33.69-.49,1.11-.49.53,0,.98.17,1.36.51.38.34.57.81.57,1.41,0,.64-.22,1.14-.67,1.5-.45.36-.98.49-1.61.41.55.91,1.33,1.57,2.35,1.97,1.01.41,1.99.61,2.93.61s1.87-.42,2.67-1.27c.8-.85,1.2-2.31,1.2-4.38,0-1.75-.34-3.13-1.03-4.14-.69-1.01-1.71-1.51-3.06-1.51h-1.51c-.39,0-.64-.02-.75-.05-.11-.03-.17-.14-.17-.32,0-.21.21-.34.62-.39.35,0,.79-.03,1.34-.1,1.33-.04,2.35-.65,3.05-1.81.64-1.08.96-2.39.96-3.94,0-1.38-.33-2.36-1-2.94-.66-.58-1.43-.87-2.29-.87-.81,0-1.65.16-2.54.49s-1.57.85-2.05,1.57c1.43,0,2.14.58,2.14,1.75,0,.51-.16.93-.48,1.27-.32.33-.75.5-1.27.5s-.93-.16-1.26-.49c-.34-.32-.51-.76-.51-1.32,0-1.29.58-2.39,1.76-3.28s2.62-1.34,4.35-1.34,3.11.44,4.34,1.33,1.85,2.01,1.85,3.37-.43,2.6-1.3,3.71c-.87,1.11-2,1.9-3.38,2.36,1.74.34,3.13,1.1,4.16,2.26,1.04,1.17,1.55,2.46,1.55,3.89,0,1.79-.7,3.34-2.11,4.65-1.41,1.31-3.13,1.97-5.19,1.97-1.81,0-3.37-.51-4.67-1.54-1.3-1.03-1.95-2.31-1.95-3.84Z" fill="#fff"/>
  </g>
  <g>
    <path d="M165.62,27.36v-1.07c2.76,0,4.86-.73,6.28-2.19.36,0,.58.04.64.13.06.09.09.34.09.75v19.18c0,.68.17,1.12.52,1.33.35.21,1.28.32,2.79.32h1.13v1.07c-.8-.07-2.65-.1-5.55-.1s-4.74.03-5.53.1v-1.07h1.08c1.44,0,2.33-.1,2.67-.31.35-.21.52-.65.52-1.34v-17.71c-1.24.6-2.79.9-4.66.9Z" fill="#fff"/>
    <path d="M180.72,41.24v-1.07l10.51-16.05c.18-.28.41-.41.68-.4.26,0,.41.05.47.15s.08.35.08.73v15.57h3.51v1.07h-3.51v2.96c0,.65.14,1.09.41,1.3.27.21,1,.32,2.18.32h.72v1.07c-.94-.07-2.47-.1-4.6-.1s-3.73.03-4.67.1v-1.07h.74c1.21,0,1.96-.1,2.24-.31s.43-.64.43-1.31v-2.96h-9.19ZM181.77,40.17h8.34v-12.76l-8.34,12.76Z" fill="#fff"/>
  </g>
  <g>
    <path d="M94.91,27.36v-1.07c2.76,0,4.86-.73,6.28-2.19.36,0,.58.04.64.13.06.09.09.34.09.75v19.18c0,.68.17,1.12.52,1.33s1.28.32,2.79.32h1.13v1.07c-.8-.07-2.65-.1-5.55-.1s-4.74.03-5.53.1v-1.07h1.09c1.44,0,2.33-.1,2.67-.31.35-.21.52-.65.52-1.34v-17.71c-1.24.6-2.79.9-4.66.9Z" fill="#fff"/>
    <path d="M110.72,41.29c0-.72.2-1.21.59-1.49.4-.28.8-.41,1.22-.41.49,0,.89.17,1.18.52.29.35.43.76.43,1.24s-.14.9-.43,1.24c-.29.35-.68.52-1.18.52-.28,0-.49-.02-.63-.07.3,1.04.9,1.94,1.81,2.69.91.75,1.97,1.13,3.17,1.13,1.53,0,2.75-.76,3.67-2.27.55-.98.82-2.58.82-4.8,0-1.86-.21-3.26-.62-4.19-.64-1.42-1.61-2.13-2.91-2.13-1.85,0-3.32.77-4.41,2.32-.12.19-.25.3-.39.31-.2,0-.32-.06-.37-.19s-.07-.36-.07-.71v-10.06c0-.54.11-.81.33-.81.09,0,.23.02.42.07,1.44.46,2.95.69,4.54.7,1.64,0,3.19-.33,4.66-1,.11-.07.2-.1.27-.1.22,0,.34.13.35.38,0,.09-.09.27-.28.54-.19.27-.48.59-.87.97-.39.38-.84.74-1.35,1.1-.51.36-1.13.66-1.87.9-.74.24-1.51.36-2.32.36-.97,0-1.95-.15-2.94-.45v6.64c1.18-1.14,2.63-1.71,4.35-1.71,1.82,0,3.36.72,4.62,2.16,1.26,1.44,1.89,3.16,1.89,5.17,0,2.19-.74,4.04-2.23,5.54s-3.23,2.25-5.23,2.25c-1.84,0-3.34-.66-4.5-1.98-1.16-1.32-1.74-2.78-1.74-4.37Z" fill="#fff"/>
  </g>
  <g>
    <path d="M24.21,27.36v-1.07c2.76,0,4.86-.73,6.28-2.19.36,0,.58.04.64.13.06.09.09.34.09.75v19.18c0,.68.17,1.12.52,1.33s1.28.32,2.79.32h1.13v1.07c-.8-.07-2.65-.1-5.55-.1s-4.74.03-5.53.1v-1.07h1.09c1.44,0,2.33-.1,2.67-.31.35-.21.52-.65.52-1.34v-17.71c-1.24.6-2.79.9-4.66.9Z" fill="#fff"/>
    <path d="M39.88,36.08c0-3.58.91-6.48,2.73-8.68s3.91-3.3,6.25-3.3c1.34,0,2.38.35,3.12,1.04.75.69,1.12,1.57,1.12,2.64,0,.59-.17,1.02-.51,1.28-.34.26-.69.39-1.04.39-.39,0-.73-.14-1.04-.42s-.46-.67-.46-1.18c0-1.03.6-1.54,1.79-1.54-.57-.9-1.55-1.35-2.92-1.35-.44,0-.89.06-1.34.19s-.97.4-1.56.83c-.59.42-1.11.97-1.56,1.64-.45.67-.84,1.63-1.15,2.89-.32,1.26-.47,2.71-.47,4.34v.82c.93-2.24,2.36-3.35,4.27-3.35,1.91,0,3.53.73,4.85,2.18,1.32,1.45,1.99,3.25,1.99,5.4s-.68,4.06-2.05,5.54c-1.37,1.47-3.01,2.21-4.93,2.21-.86,0-1.69-.18-2.47-.54-.78-.36-1.53-.96-2.26-1.78s-1.3-2.03-1.73-3.61c-.43-1.58-.65-3.46-.65-5.63ZM42.92,39.15c0,2.24.21,3.89.63,4.96.07.18.18.39.33.63.15.24.36.53.63.84.27.32.62.58,1.06.78.44.21.91.31,1.42.31,1.51,0,2.63-.74,3.36-2.22.39-.82.58-2.35.58-4.59s-.2-3.84-.61-4.67c-.69-1.41-1.75-2.12-3.15-2.12-.97,0-1.79.33-2.46.98s-1.14,1.42-1.39,2.3c-.25.88-.38,1.81-.38,2.79Z" fill="#fff"/>
  </g>
  <g>
    <path d="M24.21,100.34v-1.07c2.76,0,4.86-.73,6.28-2.19.36,0,.58.04.64.13.06.09.09.34.09.75v19.18c0,.68.17,1.12.52,1.33s1.28.32,2.79.32h1.13v1.07c-.8-.07-2.65-.1-5.55-.1s-4.74.03-5.53.1v-1.07h1.09c1.44,0,2.33-.1,2.67-.31.35-.21.52-.65.52-1.34v-17.71c-1.24.6-2.79.9-4.66.9Z" fill="#fff"/>
    <path d="M40.37,103.78l1.12-7.03h.85c.07.28.16.48.27.6.11.12.49.23,1.13.33.64.1,1.6.15,2.9.15h8.28c0,.52-.1.92-.3,1.2l-4.63,6.5c-.98,1.37-1.69,3.32-2.12,5.85-.26,1.69-.38,3.56-.37,5.61v1.74c0,1.26-.51,1.89-1.52,1.89s-1.52-.63-1.52-1.89c0-4.35,1.4-8.64,4.21-12.86.3-.43,1-1.43,2.11-2.97,1.11-1.55,1.68-2.36,1.73-2.42h-7.08c-2.07,0-3.19.07-3.36.2-.22.2-.51,1.24-.85,3.11h-.85Z" fill="#fff"/>
  </g>
  <g>
    <path d="M24.21,173.32v-1.07c2.76,0,4.86-.73,6.28-2.19.36,0,.58.04.64.13.06.09.09.34.09.75v19.18c0,.68.17,1.12.52,1.33s1.28.32,2.79.32h1.13v1.07c-.8-.07-2.65-.1-5.55-.1s-4.74.03-5.53.1v-1.07h1.09c1.44,0,2.33-.1,2.67-.31.35-.21.52-.65.52-1.34v-17.71c-1.24.6-2.79.9-4.66.9Z" fill="#fff"/>
    <path d="M39.88,187.68c0-2.55,1.64-4.65,4.93-6.29-1.41-.96-2.25-1.57-2.51-1.85-1-1.11-1.5-2.36-1.5-3.76,0-1.59.6-2.94,1.81-4.05,1.21-1.11,2.67-1.66,4.38-1.66s3.07.47,4.31,1.42c1.24.95,1.85,2.17,1.85,3.67,0,2.11-1.38,3.88-4.14,5.31,1.83,1.14,2.96,1.94,3.39,2.42,1.11,1.23,1.67,2.64,1.67,4.21,0,1.83-.7,3.37-2.1,4.63-1.4,1.26-3.07,1.88-5.01,1.88s-3.55-.55-4.96-1.66c-1.41-1.1-2.12-2.53-2.12-4.27ZM41.58,187.68c0,1.41.53,2.59,1.6,3.54,1.06.95,2.34,1.42,3.82,1.42s2.69-.41,3.77-1.23c1.07-.82,1.61-1.85,1.61-3.07,0-.48-.08-.92-.24-1.34-.16-.41-.4-.78-.72-1.11-.32-.33-.57-.57-.77-.72-.2-.15-.48-.35-.84-.61l-4.21-2.65c-2.67,1.48-4.01,3.41-4.01,5.78ZM42.3,174.44c0,1.09.57,2.01,1.72,2.77l4.24,2.74c2.26-1.32,3.39-2.92,3.39-4.79,0-1.21-.46-2.22-1.39-3.03s-2.03-1.21-3.31-1.21-2.35.33-3.27.99c-.92.66-1.39,1.51-1.39,2.53Z" fill="#fff"/>
  </g>
  <g>
    <path d="M24.21,244.03v-1.07c2.76,0,4.86-.73,6.28-2.19.36,0,.58.04.64.13.06.09.09.34.09.75v19.18c0,.68.17,1.12.52,1.33s1.28.32,2.79.32h1.13v1.07c-.8-.07-2.65-.1-5.55-.1s-4.74.03-5.53.1v-1.07h1.09c1.44,0,2.33-.1,2.67-.31.35-.21.52-.65.52-1.34v-17.71c-1.24.6-2.79.9-4.66.9Z" fill="#fff"/>
    <path d="M39.88,248.49c0-1.22.18-2.24.53-3.08.35-.83.9-1.66,1.64-2.49,1.36-1.44,3.02-2.16,4.98-2.16.85,0,1.65.18,2.4.54.75.36,1.49.94,2.21,1.75.72.81,1.3,2.01,1.73,3.6.44,1.59.65,3.48.65,5.67,0,3.52-.86,6.39-2.58,8.62-1.72,2.23-3.74,3.35-6.05,3.35-1.43,0-2.57-.33-3.41-.99-.84-.66-1.26-1.56-1.26-2.7,0-.59.16-1.01.49-1.26s.68-.38,1.05-.38.73.14,1.04.41c.3.27.46.66.46,1.16,0,.41-.12.78-.37,1.09-.25.32-.69.48-1.32.48.64.81,1.74,1.22,3.28,1.22.58,0,1.15-.13,1.73-.39.58-.26,1.18-.71,1.8-1.35.63-.64,1.13-1.63,1.52-2.97.38-1.34.58-2.95.58-4.83v-1.08c-.93,2.26-2.37,3.38-4.34,3.38s-3.5-.73-4.81-2.2c-1.31-1.47-1.97-3.27-1.97-5.41ZM42.92,248.53c0,2.27.2,3.82.61,4.66.69,1.44,1.75,2.16,3.15,2.16s2.47-.62,3.18-1.87c.71-1.25,1.06-2.68,1.06-4.3,0-2.25-.19-3.86-.56-4.85-.69-1.81-1.8-2.72-3.33-2.72s-2.67.72-3.42,2.16c-.46.85-.69,2.43-.69,4.74Z" fill="#fff"/>
  </g>
  <g>
    <path d="M23.04,335.4c0-.41.02-.68.06-.8.04-.12.15-.28.32-.47l6.51-7.32c2.4-2.7,3.6-5.23,3.6-7.58,0-1.52-.4-2.83-1.2-3.92-.8-1.09-1.93-1.63-3.39-1.63-.99,0-1.91.3-2.75.91s-1.45,1.45-1.84,2.53c.07-.02.21-.03.44-.03.56,0,.99.18,1.3.54s.47.78.47,1.26c0,.62-.19,1.08-.58,1.37s-.77.45-1.16.45c-.15,0-.33-.02-.53-.05-.2-.03-.46-.21-.78-.53s-.48-.77-.48-1.34c0-1.59.6-3.01,1.8-4.28,1.2-1.27,2.71-1.9,4.54-1.9,2.07,0,3.79.62,5.15,1.86s2.04,2.83,2.04,4.76c0,.68-.1,1.33-.31,1.95-.2.62-.44,1.17-.71,1.65-.27.48-.77,1.1-1.5,1.87-.73.77-1.39,1.43-1.97,1.97-.59.55-1.54,1.4-2.85,2.56l-3.6,3.53h6.12c1.99,0,3.06-.09,3.22-.27.22-.32.47-1.34.75-3.04h.85l-.95,5.95h-12.58Z" fill="#fff"/>
    <path d="M39.78,324.45c0-3.35.42-5.94,1.27-7.77,1.18-2.72,3.16-4.08,5.95-4.08.59,0,1.19.08,1.81.24.62.16,1.32.55,2.1,1.16.79.61,1.42,1.42,1.9,2.42.91,1.94,1.37,4.61,1.37,8.02s-.42,5.9-1.27,7.72c-1.24,2.65-3.22,3.98-5.95,3.98-1.02,0-2.06-.26-3.1-.79-1.04-.52-1.89-1.41-2.55-2.67-1.02-1.88-1.54-4.63-1.54-8.24ZM42.62,324.04c0,3.44.12,5.85.37,7.22.28,1.48.8,2.54,1.56,3.18.76.64,1.57.96,2.41.96.91,0,1.75-.34,2.51-1.03s1.26-1.77,1.5-3.25c.26-1.46.38-3.82.37-7.08,0-3.17-.11-5.4-.33-6.67-.3-1.48-.85-2.52-1.65-3.12-.8-.6-1.6-.89-2.4-.89-.3,0-.61.04-.93.13s-.7.26-1.16.52c-.46.26-.86.7-1.21,1.34-.35.63-.61,1.43-.78,2.39-.18,1.24-.27,3.33-.27,6.3Z" fill="#fff"/>
  </g>
  <g>
    <path d="M93.74,335.4c0-.41.02-.68.06-.8.04-.12.15-.28.32-.47l6.51-7.32c2.4-2.7,3.6-5.23,3.6-7.58,0-1.52-.4-2.83-1.2-3.92-.8-1.09-1.93-1.63-3.39-1.63-.99,0-1.91.3-2.75.91s-1.45,1.45-1.84,2.53c.07-.02.21-.03.44-.03.56,0,.99.18,1.3.54s.47.78.47,1.26c0,.62-.19,1.08-.58,1.37s-.77.45-1.16.45c-.15,0-.33-.02-.53-.05-.2-.03-.46-.21-.78-.53s-.48-.77-.48-1.34c0-1.59.6-3.01,1.8-4.28,1.2-1.27,2.71-1.9,4.54-1.9,2.07,0,3.79.62,5.15,1.86s2.04,2.83,2.04,4.76c0,.68-.1,1.33-.31,1.95-.2.62-.44,1.17-.71,1.65-.27.48-.77,1.1-1.5,1.87-.73.77-1.39,1.43-1.97,1.97-.59.55-1.54,1.4-2.85,2.56l-3.6,3.53h6.12c1.99,0,3.06-.09,3.22-.27.22-.32.47-1.34.75-3.04h.85l-.95,5.95h-12.58Z" fill="#fff"/>
    <path d="M112.02,315.87v-1.07c2.76,0,4.86-.73,6.28-2.19.36,0,.58.04.64.13.06.09.09.34.09.75v19.18c0,.68.17,1.12.52,1.34.35.21,1.28.32,2.79.32h1.13v1.07c-.8-.07-2.65-.1-5.55-.1s-4.74.03-5.53.1v-1.07h1.09c1.44,0,2.33-.1,2.67-.31s.52-.65.52-1.34v-17.71c-1.24.6-2.79.9-4.66.9Z" fill="#fff"/>
  </g>
  <g>
    <path d="M164.45,335.4c0-.41.02-.68.06-.8.04-.12.14-.28.32-.47l6.51-7.32c2.4-2.7,3.6-5.23,3.6-7.58,0-1.52-.4-2.83-1.2-3.92-.8-1.09-1.93-1.63-3.39-1.63-1,0-1.91.3-2.75.91s-1.45,1.45-1.84,2.53c.07-.02.21-.03.44-.03.56,0,.99.18,1.3.54.31.36.47.78.47,1.26,0,.62-.19,1.08-.58,1.37s-.77.45-1.16.45c-.15,0-.33-.02-.53-.05-.2-.03-.46-.21-.78-.53-.32-.32-.47-.77-.47-1.34,0-1.59.6-3.01,1.79-4.28,1.2-1.27,2.71-1.9,4.54-1.9,2.07,0,3.79.62,5.15,1.86s2.04,2.83,2.04,4.76c0,.68-.1,1.33-.31,1.95-.21.62-.44,1.17-.71,1.65s-.77,1.1-1.5,1.87c-.73.77-1.39,1.43-1.97,1.97s-1.54,1.4-2.85,2.56l-3.6,3.53h6.12c1.99,0,3.06-.09,3.22-.27.22-.32.47-1.34.75-3.04h.85l-.95,5.95h-12.58Z" fill="#fff"/>
    <path d="M181.55,335.4c0-.41.02-.68.06-.8.04-.12.14-.28.32-.47l6.51-7.32c2.4-2.7,3.6-5.23,3.6-7.58,0-1.52-.4-2.83-1.2-3.92-.8-1.09-1.93-1.63-3.39-1.63-1,0-1.91.3-2.75.91s-1.45,1.45-1.84,2.53c.07-.02.21-.03.44-.03.56,0,.99.18,1.3.54.31.36.47.78.47,1.26,0,.62-.19,1.08-.58,1.37s-.77.45-1.16.45c-.15,0-.33-.02-.53-.05-.2-.03-.46-.21-.78-.53-.32-.32-.47-.77-.47-1.34,0-1.59.6-3.01,1.79-4.28,1.2-1.27,2.71-1.9,4.54-1.9,2.07,0,3.79.62,5.15,1.86s2.04,2.83,2.04,4.76c0,.68-.1,1.33-.31,1.95-.21.62-.44,1.17-.71,1.65s-.77,1.1-1.5,1.87c-.73.77-1.39,1.43-1.97,1.97s-1.54,1.4-2.85,2.56l-3.6,3.53h6.12c1.99,0,3.06-.09,3.22-.27.22-.32.47-1.34.75-3.04h.85l-.95,5.95h-12.58Z" fill="#fff"/>
  </g>
  <g>
    <path d="M236.29,335.4c0-.41.02-.68.06-.8.04-.12.14-.28.32-.47l6.51-7.32c2.4-2.7,3.6-5.23,3.6-7.58,0-1.52-.4-2.83-1.2-3.92-.8-1.09-1.93-1.63-3.39-1.63-1,0-1.91.3-2.75.91s-1.45,1.45-1.84,2.53c.07-.02.21-.03.44-.03.56,0,.99.18,1.3.54.31.36.47.78.47,1.26,0,.62-.19,1.08-.58,1.37s-.77.45-1.16.45c-.15,0-.33-.02-.53-.05-.2-.03-.46-.21-.78-.53-.32-.32-.47-.77-.47-1.34,0-1.59.6-3.01,1.79-4.28,1.2-1.27,2.71-1.9,4.54-1.9,2.07,0,3.79.62,5.15,1.86s2.04,2.83,2.04,4.76c0,.68-.1,1.33-.31,1.95-.21.62-.44,1.17-.71,1.65s-.77,1.1-1.5,1.87c-.73.77-1.39,1.43-1.97,1.97s-1.54,1.4-2.85,2.56l-3.6,3.53h6.12c1.99,0,3.06-.09,3.22-.27.22-.32.47-1.34.75-3.04h.85l-.95,5.95h-12.58Z" fill="#fff"/>
    <path d="M253.13,330.77c0-.69.16-1.19.49-1.52.32-.33.69-.49,1.11-.49.53,0,.98.17,1.36.51.38.34.57.81.57,1.41,0,.64-.22,1.14-.67,1.5-.45.36-.98.49-1.61.41.55.91,1.33,1.57,2.35,1.98s1.99.61,2.93.61,1.87-.42,2.67-1.27c.8-.85,1.2-2.31,1.2-4.38,0-1.75-.34-3.13-1.03-4.14-.69-1.01-1.71-1.51-3.06-1.51h-1.51c-.39,0-.64-.02-.75-.05-.11-.03-.17-.14-.17-.32,0-.21.21-.34.62-.39.35,0,.79-.03,1.34-.1,1.33-.04,2.35-.65,3.05-1.81.64-1.08.96-2.39.96-3.94,0-1.38-.33-2.36-1-2.94-.66-.58-1.43-.87-2.29-.87-.81,0-1.65.16-2.54.49-.88.32-1.57.85-2.05,1.57,1.43,0,2.14.58,2.14,1.75,0,.51-.16.93-.48,1.27-.32.33-.75.5-1.27.5s-.93-.16-1.26-.49c-.34-.32-.51-.76-.51-1.32,0-1.29.58-2.39,1.76-3.28s2.62-1.34,4.35-1.34,3.11.44,4.34,1.33c1.23.89,1.85,2.01,1.85,3.37s-.43,2.59-1.3,3.71c-.87,1.11-2,1.9-3.38,2.36,1.74.34,3.13,1.1,4.16,2.26,1.04,1.17,1.55,2.46,1.55,3.89,0,1.79-.7,3.34-2.11,4.65-1.41,1.31-3.13,1.97-5.19,1.97-1.81,0-3.37-.51-4.67-1.54-1.3-1.03-1.95-2.31-1.95-3.84Z" fill="#fff"/>
  </g>
  <g>
    <path d="M304.71,335.4c0-.41.02-.68.06-.8.04-.12.14-.28.32-.47l6.51-7.32c2.4-2.7,3.6-5.23,3.6-7.58,0-1.52-.4-2.83-1.2-3.92-.8-1.09-1.93-1.63-3.39-1.63-1,0-1.91.3-2.75.91s-1.45,1.45-1.84,2.53c.07-.02.21-.03.44-.03.56,0,.99.18,1.3.54.31.36.47.78.47,1.26,0,.62-.19,1.08-.58,1.37s-.77.45-1.16.45c-.15,0-.33-.02-.53-.05-.2-.03-.46-.21-.78-.53-.32-.32-.47-.77-.47-1.34,0-1.59.6-3.01,1.79-4.28,1.2-1.27,2.71-1.9,4.54-1.9,2.07,0,3.79.62,5.15,1.86s2.04,2.83,2.04,4.76c0,.68-.1,1.33-.31,1.95-.21.62-.44,1.17-.71,1.65s-.77,1.1-1.5,1.87c-.73.77-1.39,1.43-1.97,1.97s-1.54,1.4-2.85,2.56l-3.6,3.53h6.12c1.99,0,3.06-.09,3.22-.27.22-.32.47-1.34.75-3.04h.85l-.95,5.95h-12.58Z" fill="#fff"/>
    <path d="M320.98,329.75v-1.07l10.51-16.05c.18-.28.41-.41.68-.4.26,0,.41.05.47.15s.08.35.08.74v15.57h3.51v1.07h-3.51v2.96c0,.66.14,1.09.41,1.3.27.21,1,.32,2.18.32h.72v1.07c-.94-.07-2.47-.1-4.6-.1s-3.73.03-4.67.1v-1.07h.74c1.21,0,1.96-.1,2.24-.31s.43-.64.43-1.31v-2.96h-9.19ZM322.03,328.68h8.34v-12.76l-8.34,12.76Z" fill="#fff"/>
  </g>
</svg>