<?xml version="1.0" encoding="UTF-8"?>
<svg id="Ebene_1" data-name="Ebene 1" xmlns="http://www.w3.org/2000/svg" viewBox="0 0 1366 767.78">
  <rect width="1366" height="767.78" fill="#fbf2d8"/>
  <g>
    <rect x="122.05" y="159.33" width="77.38" height="77.38" fill="#d32a20"/>
    <path d="M201.63,238.91h-81.78v-81.78h81.78v81.78ZM124.26,234.5h72.97v-72.97h-72.97v72.97Z"/>
  </g>
  <g>
    <rect x="44.47" y="159.33" width="77.38" height="77.38" fill="#d32a20"/>
    <path d="M124.05,238.91H42.27v-81.78h81.78v81.78ZM46.67,234.5h72.97v-72.97H46.67v72.97Z"/>
  </g>
  <path d="M358.6,587.95h-51.34v-51.34h51.34v51.34ZM310.27,584.95h45.34v-45.34h-45.34v45.34Z"/>
  <path d="M406.6,587.95h-51.34v-51.34h51.34v51.34ZM358.27,584.95h45.34v-45.34h-45.34v45.34Z"/>
  <path d="M455.6,587.95h-51.34v-51.34h51.34v51.34ZM407.27,584.95h45.34v-45.34h-45.34v45.34Z"/>
  <path d="M358.6,635.95h-51.34v-51.34h51.34v51.34ZM310.27,632.95h45.34v-45.34h-45.34v45.34Z"/>
  <path d="M406.6,635.95h-51.34v-51.34h51.34v51.34ZM358.27,632.95h45.34v-45.34h-45.34v45.34Z"/>
  <path d="M455.6,635.95h-51.34v-51.34h51.34v51.34ZM407.27,632.95h45.34v-45.34h-45.34v45.34Z"/>
  <path d="M913.6,608.95h-51.34v-51.34h51.34v51.34ZM865.27,605.95h45.34v-45.34h-45.34v45.34Z"/>
  <path d="M961.6,608.95h-51.34v-51.34h51.34v51.34ZM913.27,605.95h45.34v-45.34h-45.34v45.34Z"/>
  <path d="M1010.6,608.95h-51.34v-51.34h51.34v51.34ZM962.27,605.95h45.34v-45.34h-45.34v45.34Z"/>
  <path d="M1058.6,608.95h-51.34v-51.34h51.34v51.34ZM1010.27,605.95h45.34v-45.34h-45.34v45.34Z"/>
  <path d="M913.6,656.95h-51.34v-51.34h51.34v51.34ZM865.27,653.95h45.34v-45.34h-45.34v45.34Z"/>
  <path d="M961.6,656.95h-51.34v-51.34h51.34v51.34ZM913.27,653.95h45.34v-45.34h-45.34v45.34Z"/>
  <path d="M1010.6,656.95h-51.34v-51.34h51.34v51.34ZM962.27,653.95h45.34v-45.34h-45.34v45.34Z"/>
  <path d="M1058.6,656.95h-51.34v-51.34h51.34v51.34ZM1010.27,653.95h45.34v-45.34h-45.34v45.34Z"/>
  <path d="M913.6,704.95h-51.34v-51.34h51.34v51.34ZM865.27,701.95h45.34v-45.34h-45.34v45.34Z"/>
  <path d="M961.6,704.95h-51.34v-51.34h51.34v51.34ZM913.27,701.95h45.34v-45.34h-45.34v45.34Z"/>
  <path d="M1010.6,704.95h-51.34v-51.34h51.34v51.34ZM962.27,701.95h45.34v-45.34h-45.34v45.34Z"/>
  <path d="M1058.6,704.95h-51.34v-51.34h51.34v51.34ZM1010.27,701.95h45.34v-45.34h-45.34v45.34Z"/>
  <path d="M358.6,683.95h-51.34v-51.34h51.34v51.34ZM310.27,680.95h45.34v-45.34h-45.34v45.34Z"/>
  <path d="M406.6,683.95h-51.34v-51.34h51.34v51.34ZM358.27,680.95h45.34v-45.34h-45.34v45.34Z"/>
  <path d="M455.6,683.95h-51.34v-51.34h51.34v51.34ZM407.27,680.95h45.34v-45.34h-45.34v45.34Z"/>
  <path d="M358.6,731.95h-51.34v-51.34h51.34v51.34ZM310.27,728.95h45.34v-45.34h-45.34v45.34Z"/>
  <path d="M406.6,731.95h-51.34v-51.34h51.34v51.34ZM358.27,728.95h45.34v-45.34h-45.34v45.34Z"/>
  <path d="M455.6,731.95h-51.34v-51.34h51.34v51.34ZM407.27,728.95h45.34v-45.34h-45.34v45.34Z"/>
  <g>
    <rect x="199.43" y="159.33" width="77.38" height="77.38" fill="#d32a20"/>
    <path d="M279.01,238.91h-81.78v-81.78h81.78v81.78ZM201.63,234.5h72.97v-72.97h-72.97v72.97Z"/>
  </g>
  <g>
    <rect x="276.8" y="159.33" width="77.38" height="77.38" fill="#d32a20"/>
    <path d="M356.38,238.91h-81.78v-81.78h81.78v81.78ZM279.01,234.5h72.97v-72.97h-72.97v72.97Z"/>
  </g>
  <g>
    <rect x="397.46" y="159.69" width="77.38" height="77.38" fill="#30628b"/>
    <path d="M477.04,239.27h-81.78v-81.78h81.78v81.78ZM399.67,234.86h72.97v-72.97h-72.97v72.97Z"/>
  </g>
  <g>
    <rect x="474.84" y="159.69" width="77.38" height="77.38" fill="#f9c12b"/>
    <path d="M554.42,239.27h-81.78v-81.78h81.78v81.78ZM477.04,234.86h72.97v-72.97h-72.97v72.97Z"/>
  </g>
  <g>
    <rect x="552.42" y="159.69" width="77.38" height="77.38" fill="#f9c12b"/>
    <path d="M632,239.27h-81.78v-81.78h81.78v81.78ZM554.62,234.86h72.97v-72.97h-72.97v72.97Z"/>
  </g>
  <g>
    <rect x="805.05" y="159.33" width="77.38" height="77.38" fill="#d32a20"/>
    <path d="M884.63,238.91h-81.78v-81.78h81.78v81.78ZM807.26,234.5h72.97v-72.97h-72.97v72.97Z"/>
  </g>
  <g>
    <rect x="727.47" y="159.33" width="77.38" height="77.38" fill="#d32a20"/>
    <path d="M807.05,238.91h-81.78v-81.78h81.78v81.78ZM729.67,234.5h72.97v-72.97h-72.97v72.97Z"/>
  </g>
  <g>
    <rect x="882.43" y="159.33" width="77.38" height="77.38" fill="#d32a20"/>
    <path d="M962.01,238.91h-81.78v-81.78h81.78v81.78ZM884.63,234.5h72.97v-72.97h-72.97v72.97Z"/>
  </g>
  <g>
    <rect x="959.8" y="159.33" width="77.38" height="77.38" fill="#d32a20"/>
    <path d="M1039.38,238.91h-81.78v-81.78h81.78v81.78ZM962.01,234.5h72.97v-72.97h-72.97v72.97Z"/>
  </g>
  <g>
    <rect x="1037.46" y="159.69" width="77.38" height="77.38" fill="#30628b"/>
    <path d="M1117.04,239.27h-81.78v-81.78h81.78v81.78ZM1039.67,234.86h72.97v-72.97h-72.97v72.97Z"/>
  </g>
  <g>
    <rect x="1157.84" y="159.69" width="77.38" height="77.38" fill="#f9c12b"/>
    <path d="M1237.42,239.27h-81.78v-81.78h81.78v81.78ZM1160.04,234.86h72.97v-72.97h-72.97v72.97Z"/>
  </g>
  <g>
    <rect x="1235.42" y="159.69" width="77.38" height="77.38" fill="#f9c12b"/>
    <path d="M1315,239.27h-81.78v-81.78h81.78v81.78ZM1237.62,234.86h72.97v-72.97h-72.97v72.97Z"/>
  </g>
  <g>
    <path d="M411.7,84.13c0-1.95.44-3.85,1.32-5.7.88-1.85,2.16-3.4,3.86-4.66,1.69-1.26,3.57-1.88,5.62-1.88,1.54,0,2.86.53,3.97,1.6.61-.51,1.23-.76,1.87-.76.5,0,.94.15,1.31.44.37.29.56.71.56,1.24,0,.33-.54,2.49-1.61,6.5-1.07,4.01-1.61,6.32-1.61,6.93,0,.82.25,1.24.74,1.25.86,0,1.65-1.49,2.37-4.47.1-.39.2-.65.33-.78s.36-.2.71-.2h.16c.62,0,.93.21.93.64-.03.15-.08.37-.15.65-.06.28-.21.79-.45,1.51-.24.73-.52,1.37-.85,1.92s-.78,1.06-1.35,1.52c-.57.46-1.2.69-1.89.69-1.82,0-3.21-.7-4.17-2.09-1.65,1.38-3.41,2.08-5.27,2.09-1.81,0-3.33-.54-4.56-1.62-1.23-1.08-1.85-2.69-1.85-4.82ZM416.01,86.24c0,1.02.23,1.75.7,2.19.47.44,1,.66,1.58.66.99,0,1.92-.34,2.8-1.03s1.45-1.29,1.71-1.83c.05-.1.49-1.8,1.32-5.1.83-3.29,1.24-5.02,1.24-5.18,0-.48-.24-1.04-.73-1.66s-1.2-.94-2.14-.94c-1.45,0-2.67.83-3.67,2.48-.61,1.07-1.23,2.8-1.87,5.2-.63,2.4-.95,4.13-.95,5.2Z"/>
    <path d="M453.77,80.1c0-.49.43-.74,1.29-.74h12.25l2.96-11.88c.01-.05.03-.13.06-.24.03-.11.05-.19.08-.24.02-.05.05-.13.08-.24.03-.1.05-.18.08-.23.02-.05.07-.11.12-.19.06-.07.11-.13.16-.17.05-.04.11-.07.17-.1.06-.03.13-.04.21-.04.2,0,.37.09.5.26.13.17.19.38.16.61,0,.15-.2,1.03-.6,2.64-.4,1.6-.86,3.43-1.37,5.48-.51,2.05-.87,3.49-1.09,4.33h11.86c.86,0,1.29.25,1.28.74,0,.5-.42.74-1.24.74h-12.27c-.16.69-.29,1.21-.38,1.53l-2.6,10.38c-.01.05-.03.13-.06.24s-.05.19-.08.24c-.02.05-.05.13-.08.23-.03.1-.05.18-.08.23-.03.05-.06.11-.11.18-.05.07-.1.12-.15.16-.05.04-.11.07-.18.09-.07.03-.14.04-.22.04-.42,0-.63-.25-.63-.75,0-.23.06-.55.18-.97l2.89-11.6h-11.95c-.81,0-1.21-.25-1.21-.74Z"/>
    <path d="M506.37,87.25c0-2.16.28-4.43.84-6.81.56-2.38,1.39-4.77,2.48-7.17s2.57-4.72,4.44-6.96c1.87-2.24,3.99-4.14,6.36-5.7.4-.3.76-.45,1.07-.45.46,0,.68.18.68.53,0,.1-.04.21-.12.33-.08.12-.16.21-.24.28-.08.07-.2.17-.37.3-.17.13-.26.21-.29.23-2.62,2.27-4.86,5.17-6.71,8.72-1.85,3.55-3.16,6.92-3.92,10.12-.77,3.2-1.15,6.16-1.15,8.88,0,1.5.13,2.89.4,4.17.27,1.28.55,2.24.84,2.86s.61,1.22.94,1.8c.33.57.51.89.54.94.08.18.06.36-.06.54s-.29.26-.53.26h-.04c-.23,0-.56-.18-.98-.54-.42-.36-.87-.91-1.36-1.64-.49-.74-.95-1.6-1.37-2.58-.42-.98-.77-2.19-1.05-3.63-.28-1.44-.42-2.93-.42-4.48Z"/>
    <path d="M522.99,84.24c0-1.17.21-2.5.63-4l2.75-10.89c.58-2.31.97-3.85,1.17-4.62-.25-.03-.54-.04-.88-.04s-.6,0-.79-.02c-.19-.01-.38-.05-.58-.1s-.34-.14-.42-.26c-.08-.12-.13-.29-.13-.52,0-.55.22-.88.66-1,.44-.12,1.5-.22,3.18-.3.94-.05,1.7-.09,2.29-.12h.31c.61,0,.92.25.92.76,0,.26-.03.52-.1.76l-2.25,9.18c1.37-.78,2.69-1.18,3.95-1.19.56,0,1.1.05,1.63.16.53.1,1.09.31,1.67.62.58.31,1.1.7,1.56,1.16.45.46.82,1.08,1.1,1.86.28.77.42,1.66.42,2.65,0,1.86-.41,3.71-1.24,5.54-.83,1.83-2.1,3.41-3.82,4.73-1.72,1.32-3.66,1.98-5.82,1.98-1.86,0-3.36-.55-4.5-1.64-1.14-1.09-1.71-2.66-1.71-4.69ZM526.83,86c0,1.12.25,1.91.74,2.38.49.47,1.06.7,1.7.7.72,0,1.41-.25,2.08-.74.67-.49,1.19-1.05,1.55-1.66.66-1.07,1.31-2.82,1.92-5.26.62-2.44.93-4.18.93-5.22s-.23-1.74-.7-2.18c-.46-.44-.98-.65-1.56-.65-.98,0-1.9.34-2.77,1.02-.87.68-1.44,1.29-1.71,1.83-.08.21-.26.9-.55,2.07-.29,1.17-.63,2.58-1.04,4.22-.4,1.64-.6,2.81-.6,3.5Z"/>
    <path d="M562.42,80.1c0-.49.43-.74,1.29-.74h12.25l2.96-11.88c.01-.05.03-.13.06-.24.03-.11.05-.19.08-.24.02-.05.05-.13.08-.24.03-.1.05-.18.08-.23.02-.05.07-.11.12-.19.06-.07.11-.13.16-.17.05-.04.11-.07.17-.1.06-.03.13-.04.21-.04.2,0,.37.09.5.26.13.17.19.38.16.61,0,.15-.2,1.03-.6,2.64-.4,1.6-.86,3.43-1.37,5.48-.51,2.05-.87,3.49-1.09,4.33h11.86c.86,0,1.29.25,1.28.74,0,.5-.42.74-1.24.74h-12.27c-.16.69-.29,1.21-.38,1.53l-2.6,10.38c-.01.05-.03.13-.06.24s-.05.19-.08.24c-.02.05-.05.13-.08.23-.03.1-.05.18-.08.23-.03.05-.06.11-.11.18-.05.07-.1.12-.15.16-.05.04-.11.07-.18.09-.07.03-.14.04-.22.04-.42,0-.63-.25-.63-.75,0-.23.06-.55.18-.97l2.89-11.6h-11.95c-.81,0-1.21-.25-1.21-.74Z"/>
    <path d="M612.54,83.73c0-3,1.11-5.73,3.34-8.18s5.07-3.67,8.54-3.67c1.5,0,2.73.35,3.68,1.06.95.71,1.42,1.64,1.42,2.78,0,.89-.28,1.62-.84,2.22-.56.59-1.24.89-2.04.89-.56,0-1.03-.17-1.4-.5-.37-.33-.56-.78-.56-1.34,0-.51.17-1.04.5-1.58.33-.55.86-.92,1.58-1.13-.61-.61-1.39-.92-2.33-.92-1.47,0-2.79.58-3.95,1.75-.82.82-1.53,2.09-2.12,3.83-.59,1.73-.98,3.17-1.15,4.31-.18,1.14-.26,1.92-.26,2.32,0,1.14.3,2.01.91,2.61s1.45.9,2.53.9c2.78,0,5.13-.95,7.06-2.84.54-.53.9-.8,1.08-.8.23,0,.49.15.76.44s.41.55.41.77c0,.16-.11.38-.34.68-.23.3-.6.63-1.1,1.01s-1.11.73-1.81,1.05c-.7.32-1.58.6-2.66.83-1.08.23-2.25.34-3.51.34-2.4,0-4.28-.6-5.65-1.79-1.37-1.2-2.06-2.88-2.06-5.05Z"/>
    <path d="M630.58,99.6c0-.23.29-.59.86-1.07,2.18-1.86,4.09-4.11,5.72-6.76,1.63-2.64,2.87-5.28,3.71-7.92.84-2.64,1.47-5.06,1.87-7.28.4-2.21.6-4.17.6-5.88,0-1.52-.13-2.93-.4-4.21-.27-1.28-.55-2.24-.85-2.86-.3-.62-.62-1.22-.95-1.78-.33-.56-.51-.87-.54-.92-.08-.18-.06-.35.07-.52.12-.16.3-.24.54-.24s.56.17.98.52c.42.35.87.89,1.36,1.64.49.75.95,1.61,1.38,2.58.42.97.78,2.18,1.07,3.62s.43,2.94.43,4.47c0,2.16-.28,4.44-.84,6.83-.56,2.39-1.39,4.79-2.5,7.19-1.11,2.4-2.6,4.73-4.48,6.98-1.88,2.25-4.01,4.17-6.38,5.74-.35.26-.68.39-.98.39-.44,0-.66-.18-.66-.53Z"/>
    <path d="M669.98,84.56c0-.48.38-.72,1.15-.72h25.33c.72,0,1.17.06,1.35.18.21.13.32.31.33.55,0,.18-.09.35-.28.52-.19.16-.45.24-.77.24h-26c-.74,0-1.11-.25-1.11-.76ZM672.22,75.67c0-.49.38-.74,1.15-.74h25.49c.99,0,1.48.25,1.47.74,0,.5-.34.74-1.01.74h-26c-.74,0-1.11-.25-1.11-.74Z"/>
    <path d="M723.67,87.25c0-2.16.28-4.43.84-6.81.56-2.38,1.39-4.77,2.48-7.17s2.57-4.72,4.44-6.96c1.87-2.24,3.99-4.14,6.36-5.7.4-.3.76-.45,1.07-.45.46,0,.68.18.68.53,0,.1-.04.21-.12.33-.08.12-.16.21-.24.28-.08.07-.2.17-.37.3-.17.13-.26.21-.29.23-2.62,2.27-4.86,5.17-6.71,8.72-1.85,3.55-3.16,6.92-3.92,10.12-.76,3.2-1.15,6.16-1.15,8.88,0,1.5.13,2.89.4,4.17.27,1.28.55,2.24.84,2.86s.61,1.22.94,1.8c.33.57.51.89.54.94.08.18.06.36-.06.54s-.29.26-.53.26h-.04c-.23,0-.56-.18-.98-.54-.42-.36-.87-.91-1.36-1.64-.49-.74-.95-1.6-1.37-2.58-.42-.98-.77-2.19-1.05-3.63-.28-1.44-.42-2.93-.42-4.48Z"/>
    <path d="M740.02,84.13c0-1.95.44-3.85,1.32-5.7.88-1.85,2.16-3.4,3.86-4.66,1.69-1.26,3.57-1.88,5.62-1.88,1.54,0,2.86.53,3.97,1.6.61-.51,1.23-.76,1.87-.76.5,0,.94.15,1.31.44.37.29.56.71.56,1.24,0,.33-.54,2.49-1.61,6.5-1.07,4.01-1.61,6.32-1.61,6.93,0,.82.25,1.24.74,1.25.86,0,1.65-1.49,2.37-4.47.09-.39.2-.65.33-.78s.36-.2.71-.2h.16c.62,0,.93.21.93.64-.03.15-.08.37-.15.65-.06.28-.21.79-.45,1.51-.24.73-.52,1.37-.85,1.92s-.78,1.06-1.35,1.52-1.2.69-1.89.69c-1.82,0-3.21-.7-4.17-2.09-1.65,1.38-3.41,2.08-5.27,2.09-1.81,0-3.33-.54-4.56-1.62-1.23-1.08-1.85-2.69-1.85-4.82ZM744.33,86.24c0,1.02.23,1.75.7,2.19.47.44,1,.66,1.58.66.99,0,1.92-.34,2.8-1.03s1.45-1.29,1.71-1.83c.05-.1.49-1.8,1.32-5.1.83-3.29,1.24-5.02,1.24-5.18,0-.48-.24-1.04-.73-1.66s-1.2-.94-2.14-.94c-1.45,0-2.67.83-3.67,2.48-.61,1.07-1.23,2.8-1.87,5.2-.63,2.4-.95,4.13-.95,5.2Z"/>
    <path d="M782.09,80.1c0-.49.43-.74,1.29-.74h12.25l2.96-11.88c.01-.05.03-.13.06-.24s.05-.19.08-.24c.03-.05.05-.13.08-.24.03-.1.05-.18.08-.23.02-.05.07-.11.12-.19.06-.07.11-.13.16-.17s.11-.07.17-.1c.06-.03.13-.04.21-.04.2,0,.37.09.5.26.13.17.19.38.16.61,0,.15-.2,1.03-.6,2.64-.4,1.6-.86,3.43-1.37,5.48-.51,2.05-.88,3.49-1.09,4.33h11.86c.86,0,1.29.25,1.28.74,0,.5-.42.74-1.24.74h-12.27c-.16.69-.29,1.21-.38,1.53l-2.6,10.38c-.01.05-.03.13-.06.24s-.05.19-.08.24c-.02.05-.05.13-.08.23-.03.1-.05.18-.08.23-.03.05-.06.11-.11.18-.05.07-.1.12-.15.16-.05.04-.11.07-.18.09s-.14.04-.22.04c-.42,0-.63-.25-.63-.75,0-.23.06-.55.18-.97l2.89-11.6h-11.95c-.81,0-1.21-.25-1.21-.74Z"/>
    <path d="M832.4,84.24c0-1.17.21-2.5.63-4l2.75-10.89c.58-2.31.97-3.85,1.17-4.62-.25-.03-.54-.04-.88-.04s-.6,0-.79-.02c-.19-.01-.38-.05-.58-.1s-.34-.14-.42-.26c-.08-.12-.13-.29-.13-.52,0-.55.22-.88.66-1,.44-.12,1.5-.22,3.18-.3.94-.05,1.7-.09,2.29-.12h.31c.61,0,.92.25.92.76,0,.26-.04.52-.1.76l-2.25,9.18c1.37-.78,2.69-1.18,3.95-1.19.56,0,1.1.05,1.63.16.53.1,1.09.31,1.67.62s1.1.7,1.56,1.16c.45.46.82,1.08,1.1,1.86.28.77.42,1.66.42,2.65,0,1.86-.41,3.71-1.24,5.54-.83,1.83-2.1,3.41-3.82,4.73-1.72,1.32-3.66,1.98-5.82,1.98-1.86,0-3.36-.55-4.5-1.64-1.14-1.09-1.71-2.66-1.71-4.69ZM836.25,86c0,1.12.25,1.91.74,2.38.49.47,1.06.7,1.7.7.72,0,1.41-.25,2.08-.74.67-.49,1.19-1.05,1.55-1.66.66-1.07,1.31-2.82,1.92-5.26s.93-4.18.93-5.22-.23-1.74-.7-2.18c-.46-.44-.98-.65-1.56-.65-.98,0-1.9.34-2.77,1.02-.87.68-1.44,1.29-1.71,1.83-.08.21-.26.9-.55,2.07-.29,1.17-.63,2.58-1.04,4.22-.4,1.64-.61,2.81-.61,3.5Z"/>
    <path d="M850.25,99.6c0-.23.29-.59.86-1.07,2.18-1.86,4.09-4.11,5.72-6.76s2.87-5.28,3.71-7.92,1.47-5.06,1.87-7.28c.4-2.21.6-4.17.6-5.88,0-1.52-.13-2.93-.4-4.21-.27-1.28-.55-2.24-.85-2.86s-.62-1.22-.95-1.78c-.33-.56-.51-.87-.54-.92-.08-.18-.06-.35.07-.52.12-.16.3-.24.54-.24s.56.17.98.52c.42.35.87.89,1.36,1.64.49.75.95,1.61,1.38,2.58.42.97.78,2.18,1.07,3.62s.43,2.94.43,4.47c0,2.16-.28,4.44-.84,6.83-.56,2.39-1.39,4.79-2.5,7.19s-2.6,4.73-4.48,6.98c-1.88,2.25-4.01,4.17-6.38,5.74-.35.26-.68.39-.98.39-.44,0-.66-.18-.66-.53Z"/>
    <path d="M890.74,80.1c0-.49.43-.74,1.29-.74h12.25l2.96-11.88c.01-.05.03-.13.06-.24.03-.11.05-.19.08-.24.02-.05.05-.13.08-.24.03-.1.05-.18.08-.23.02-.05.07-.11.12-.19s.11-.13.16-.17.11-.07.17-.1c.06-.03.13-.04.21-.04.2,0,.37.09.5.26.13.17.19.38.16.61,0,.15-.2,1.03-.6,2.64-.4,1.6-.86,3.43-1.37,5.48-.51,2.05-.88,3.49-1.09,4.33h11.86c.86,0,1.29.25,1.28.74,0,.5-.42.74-1.24.74h-12.27c-.16.69-.29,1.21-.38,1.53l-2.6,10.38c-.01.05-.03.13-.06.24s-.05.19-.08.24c-.03.05-.05.13-.08.23s-.05.18-.08.23c-.03.05-.06.11-.11.18-.05.07-.1.12-.15.16-.05.04-.11.07-.18.09s-.14.04-.22.04c-.42,0-.63-.25-.63-.75,0-.23.06-.55.18-.97l2.89-11.6h-11.95c-.81,0-1.21-.25-1.21-.74Z"/>
    <path d="M940.86,83.73c0-3,1.11-5.73,3.34-8.18s5.07-3.67,8.54-3.67c1.5,0,2.73.35,3.68,1.06.95.71,1.42,1.64,1.42,2.78,0,.89-.28,1.62-.84,2.22-.56.59-1.24.89-2.04.89-.56,0-1.03-.17-1.4-.5-.37-.33-.56-.78-.56-1.34,0-.51.17-1.04.5-1.58s.86-.92,1.58-1.13c-.61-.61-1.39-.92-2.33-.92-1.47,0-2.79.58-3.95,1.75-.82.82-1.53,2.09-2.12,3.83s-.98,3.17-1.15,4.31c-.18,1.14-.26,1.92-.26,2.32,0,1.14.3,2.01.91,2.61s1.45.9,2.53.9c2.78,0,5.13-.95,7.06-2.84.54-.53.89-.8,1.08-.8.23,0,.49.15.76.44s.41.55.41.77c0,.16-.11.38-.34.68-.23.3-.6.63-1.1,1.01s-1.11.73-1.81,1.05-1.58.6-2.66.83-2.25.34-3.51.34c-2.4,0-4.28-.6-5.65-1.79-1.37-1.2-2.06-2.88-2.06-5.05Z"/>
  </g>
  <g>
    <path d="M549.83,350.13c0-1.95.44-3.85,1.32-5.7.88-1.85,2.16-3.4,3.86-4.66,1.69-1.26,3.57-1.88,5.62-1.88,1.54,0,2.86.53,3.97,1.6.61-.51,1.23-.76,1.87-.76.5,0,.94.15,1.31.44.37.29.56.71.56,1.24,0,.33-.54,2.49-1.61,6.5-1.07,4.01-1.61,6.32-1.61,6.93,0,.82.25,1.24.74,1.25.86,0,1.65-1.49,2.37-4.47.1-.39.2-.65.33-.78s.36-.2.71-.2h.16c.62,0,.93.21.93.64-.03.15-.08.37-.15.65-.06.28-.21.79-.45,1.51-.24.73-.52,1.37-.85,1.92s-.78,1.06-1.35,1.52c-.57.46-1.2.69-1.89.69-1.82,0-3.21-.7-4.17-2.09-1.65,1.38-3.41,2.08-5.27,2.09-1.81,0-3.33-.54-4.56-1.62-1.23-1.08-1.85-2.69-1.85-4.82ZM554.15,352.24c0,1.02.23,1.75.7,2.19.47.44,1,.66,1.58.66.99,0,1.92-.34,2.8-1.03s1.45-1.29,1.71-1.83c.05-.1.49-1.8,1.32-5.1.83-3.29,1.24-5.02,1.24-5.18,0-.48-.24-1.04-.73-1.66s-1.2-.94-2.14-.94c-1.45,0-2.67.83-3.67,2.48-.61,1.07-1.23,2.8-1.87,5.2-.63,2.4-.95,4.13-.95,5.2Z"/>
    <path d="M576.02,353.25c0-2.16.28-4.43.84-6.81.56-2.38,1.39-4.77,2.48-7.17s2.57-4.72,4.44-6.96c1.87-2.24,3.99-4.14,6.36-5.7.4-.3.76-.45,1.07-.45.46,0,.68.18.68.53,0,.1-.04.21-.12.33-.08.12-.16.21-.24.28-.08.07-.2.17-.37.3-.17.13-.26.21-.29.23-2.62,2.27-4.86,5.17-6.71,8.72-1.85,3.55-3.16,6.92-3.92,10.12-.77,3.2-1.15,6.16-1.15,8.88,0,1.5.13,2.89.4,4.17.27,1.28.55,2.24.84,2.86s.61,1.22.94,1.8c.33.57.51.89.54.94.08.18.06.36-.06.54s-.29.26-.53.26h-.04c-.23,0-.56-.18-.98-.54-.42-.36-.87-.91-1.36-1.64-.49-.74-.95-1.6-1.37-2.58-.42-.98-.77-2.19-1.05-3.63-.28-1.44-.42-2.93-.42-4.48Z"/>
    <path d="M592.64,350.24c0-1.17.21-2.5.63-4l2.75-10.89c.58-2.31.97-3.85,1.17-4.62-.25-.03-.54-.04-.88-.04s-.6,0-.79-.02c-.19-.01-.38-.05-.58-.1s-.34-.14-.42-.26c-.08-.12-.13-.29-.13-.52,0-.55.22-.88.66-1,.44-.12,1.5-.22,3.18-.3.94-.05,1.7-.09,2.29-.12h.31c.61,0,.92.25.92.76,0,.26-.03.52-.1.76l-2.25,9.18c1.37-.78,2.69-1.18,3.95-1.19.56,0,1.1.05,1.63.16.53.1,1.09.31,1.67.62.58.31,1.1.7,1.56,1.16.45.46.82,1.08,1.1,1.86.28.77.42,1.66.42,2.65,0,1.86-.41,3.71-1.24,5.54-.83,1.83-2.1,3.41-3.82,4.73-1.72,1.32-3.66,1.98-5.82,1.98-1.86,0-3.36-.55-4.5-1.64-1.14-1.09-1.71-2.66-1.71-4.69ZM596.49,352c0,1.12.25,1.91.74,2.38.49.47,1.06.7,1.7.7.72,0,1.41-.25,2.08-.74.67-.49,1.19-1.05,1.55-1.66.66-1.07,1.31-2.82,1.92-5.26.62-2.44.93-4.18.93-5.22s-.23-1.74-.7-2.18c-.46-.44-.98-.65-1.56-.65-.98,0-1.9.34-2.77,1.02-.87.68-1.44,1.29-1.71,1.83-.08.21-.26.9-.55,2.07-.29,1.17-.63,2.58-1.04,4.22-.4,1.64-.6,2.81-.6,3.5Z"/>
    <path d="M611.36,349.73c0-3,1.11-5.73,3.34-8.18s5.07-3.67,8.54-3.67c1.5,0,2.73.35,3.68,1.06.95.71,1.42,1.64,1.42,2.78,0,.89-.28,1.62-.84,2.22-.56.59-1.24.89-2.04.89-.56,0-1.03-.17-1.4-.5-.37-.33-.56-.78-.56-1.34,0-.51.17-1.04.5-1.58.33-.55.86-.92,1.58-1.13-.61-.61-1.39-.92-2.33-.92-1.47,0-2.79.58-3.95,1.75-.82.82-1.53,2.09-2.12,3.83-.59,1.73-.98,3.17-1.15,4.31-.18,1.14-.26,1.92-.26,2.32,0,1.14.3,2.01.91,2.61s1.45.9,2.53.9c2.78,0,5.13-.95,7.06-2.84.54-.53.9-.8,1.08-.8.23,0,.49.15.76.44s.41.55.41.77c0,.16-.11.38-.34.68-.23.3-.6.63-1.1,1.01s-1.11.73-1.81,1.05c-.7.32-1.58.6-2.66.83-1.08.23-2.25.34-3.51.34-2.4,0-4.28-.6-5.65-1.79-1.37-1.2-2.06-2.88-2.06-5.05Z"/>
    <path d="M629.4,365.6c0-.23.29-.59.86-1.07,2.18-1.86,4.09-4.11,5.72-6.76,1.63-2.64,2.87-5.28,3.71-7.92.84-2.64,1.47-5.06,1.87-7.28.4-2.21.6-4.17.6-5.88,0-1.52-.13-2.93-.4-4.21-.27-1.28-.55-2.24-.85-2.86-.3-.62-.62-1.22-.95-1.78-.33-.56-.51-.87-.54-.92-.08-.18-.06-.35.07-.52.12-.16.3-.24.54-.24s.56.17.98.52c.42.35.87.89,1.36,1.64.49.75.95,1.61,1.38,2.58.42.97.78,2.18,1.07,3.62s.43,2.94.43,4.47c0,2.16-.28,4.44-.84,6.83-.56,2.39-1.39,4.79-2.5,7.19-1.11,2.4-2.6,4.73-4.48,6.98-1.88,2.25-4.01,4.17-6.38,5.74-.35.26-.68.39-.98.39-.44,0-.66-.18-.66-.53Z"/>
    <path d="M668.8,350.56c0-.48.38-.72,1.15-.72h25.33c.72,0,1.17.06,1.35.18.21.13.32.31.33.55,0,.18-.09.35-.28.52-.19.16-.45.24-.77.24h-26c-.74,0-1.11-.25-1.11-.76ZM671.04,341.67c0-.49.38-.74,1.15-.74h25.49c.99,0,1.48.25,1.47.74,0,.5-.34.74-1.01.74h-26c-.74,0-1.11-.25-1.11-.74Z"/>
    <path d="M722.49,353.25c0-2.16.28-4.43.84-6.81.56-2.38,1.39-4.77,2.48-7.17s2.57-4.72,4.44-6.96c1.87-2.24,3.99-4.14,6.36-5.7.4-.3.76-.45,1.07-.45.46,0,.68.18.68.53,0,.1-.04.21-.12.33-.08.12-.16.21-.24.28-.08.07-.2.17-.37.3-.17.13-.26.21-.29.23-2.62,2.27-4.86,5.17-6.71,8.72-1.85,3.55-3.16,6.92-3.92,10.12-.76,3.2-1.15,6.16-1.15,8.88,0,1.5.13,2.89.4,4.17.27,1.28.55,2.24.84,2.86s.61,1.22.94,1.8c.33.57.51.89.54.94.08.18.06.36-.06.54s-.29.26-.53.26h-.04c-.23,0-.56-.18-.98-.54-.42-.36-.87-.91-1.36-1.64-.49-.74-.95-1.6-1.37-2.58-.42-.98-.77-2.19-1.05-3.63-.28-1.44-.42-2.93-.42-4.48Z"/>
    <path d="M738.84,350.13c0-1.95.44-3.85,1.32-5.7.88-1.85,2.16-3.4,3.86-4.66,1.69-1.26,3.57-1.88,5.62-1.88,1.54,0,2.86.53,3.97,1.6.61-.51,1.23-.76,1.87-.76.5,0,.94.15,1.31.44.37.29.56.71.56,1.24,0,.33-.54,2.49-1.61,6.5-1.07,4.01-1.61,6.32-1.61,6.93,0,.82.25,1.24.74,1.25.86,0,1.65-1.49,2.37-4.47.09-.39.2-.65.33-.78s.36-.2.71-.2h.16c.62,0,.93.21.93.64-.03.15-.08.37-.15.65-.06.28-.21.79-.45,1.51-.24.73-.52,1.37-.85,1.92s-.78,1.06-1.35,1.52-1.2.69-1.89.69c-1.82,0-3.21-.7-4.17-2.09-1.65,1.38-3.41,2.08-5.27,2.09-1.81,0-3.33-.54-4.56-1.62-1.23-1.08-1.85-2.69-1.85-4.82ZM743.15,352.24c0,1.02.23,1.75.7,2.19.47.44,1,.66,1.58.66.99,0,1.92-.34,2.8-1.03s1.45-1.29,1.71-1.83c.05-.1.49-1.8,1.32-5.1.83-3.29,1.24-5.02,1.24-5.18,0-.48-.24-1.04-.73-1.66s-1.2-.94-2.14-.94c-1.45,0-2.67.83-3.67,2.48-.61,1.07-1.23,2.8-1.87,5.2-.63,2.4-.95,4.13-.95,5.2Z"/>
    <path d="M762.74,350.24c0-1.17.21-2.5.63-4l2.75-10.89c.58-2.31.97-3.85,1.17-4.62-.25-.03-.54-.04-.88-.04s-.6,0-.79-.02c-.19-.01-.38-.05-.58-.1s-.34-.14-.42-.26c-.08-.12-.13-.29-.13-.52,0-.55.22-.88.66-1,.44-.12,1.5-.22,3.18-.3.94-.05,1.7-.09,2.29-.12h.31c.61,0,.92.25.92.76,0,.26-.04.52-.1.76l-2.25,9.18c1.37-.78,2.69-1.18,3.95-1.19.56,0,1.1.05,1.63.16.53.1,1.09.31,1.67.62.58.31,1.1.7,1.56,1.16.45.46.82,1.08,1.1,1.86.28.77.42,1.66.42,2.65,0,1.86-.41,3.71-1.24,5.54-.83,1.83-2.1,3.41-3.82,4.73-1.72,1.32-3.66,1.98-5.82,1.98-1.86,0-3.36-.55-4.5-1.64-1.14-1.09-1.71-2.66-1.71-4.69ZM766.59,352c0,1.12.25,1.91.74,2.38.49.47,1.06.7,1.7.7.72,0,1.41-.25,2.08-.74.67-.49,1.19-1.05,1.55-1.66.66-1.07,1.3-2.82,1.92-5.26.62-2.44.93-4.18.93-5.22s-.23-1.74-.7-2.18c-.46-.44-.98-.65-1.56-.65-.98,0-1.9.34-2.77,1.02-.87.68-1.44,1.29-1.71,1.83-.08.21-.26.9-.55,2.07-.29,1.17-.63,2.58-1.04,4.22-.4,1.64-.61,2.81-.61,3.5Z"/>
    <path d="M780.59,365.6c0-.23.29-.59.86-1.07,2.18-1.86,4.09-4.11,5.72-6.76,1.63-2.64,2.87-5.28,3.71-7.92.84-2.64,1.47-5.06,1.87-7.28.4-2.21.6-4.17.6-5.88,0-1.52-.13-2.93-.4-4.21-.27-1.28-.55-2.24-.85-2.86-.3-.62-.62-1.22-.95-1.78-.33-.56-.51-.87-.54-.92-.08-.18-.06-.35.07-.52.12-.16.3-.24.54-.24s.56.17.98.52c.42.35.87.89,1.36,1.64.49.75.95,1.61,1.38,2.58.42.97.78,2.18,1.07,3.62s.43,2.94.43,4.47c0,2.16-.28,4.44-.84,6.83-.56,2.39-1.39,4.79-2.5,7.19-1.11,2.4-2.6,4.73-4.48,6.98-1.88,2.25-4.01,4.17-6.38,5.74-.35.26-.68.39-.98.39-.44,0-.66-.18-.66-.53Z"/>
    <path d="M802.72,349.73c0-3,1.11-5.73,3.34-8.18s5.07-3.67,8.54-3.67c1.5,0,2.73.35,3.68,1.06.95.71,1.42,1.64,1.42,2.78,0,.89-.28,1.62-.84,2.22-.56.59-1.24.89-2.04.89-.56,0-1.03-.17-1.4-.5s-.56-.78-.56-1.34c0-.51.17-1.04.5-1.58.33-.55.86-.92,1.58-1.13-.61-.61-1.39-.92-2.33-.92-1.47,0-2.79.58-3.95,1.75-.82.82-1.53,2.09-2.12,3.83-.59,1.73-.98,3.17-1.15,4.31-.18,1.14-.26,1.92-.26,2.32,0,1.14.3,2.01.91,2.61s1.45.9,2.53.9c2.78,0,5.13-.95,7.06-2.84.54-.53.89-.8,1.08-.8.23,0,.49.15.76.44s.41.55.41.77c0,.16-.11.38-.34.68-.23.3-.6.63-1.1,1.01s-1.11.73-1.81,1.05c-.7.32-1.58.6-2.66.83-1.08.23-2.25.34-3.51.34-2.4,0-4.28-.6-5.65-1.79-1.37-1.2-2.06-2.88-2.06-5.05Z"/>
  </g>
  <g>
    <path d="M233.51,450.12l5.88-27.75.04-.04h3.73l-2.52,12.08c1.98-2.32,4.22-3.49,6.72-3.49,3.12,0,4.69,1.31,4.69,3.95,0,.59-.1,1.44-.31,2.56l-2.73,12.69h-3.85l2.62-12.5c.13-.74.19-1.21.19-1.41,0-1.54-1.08-2.31-3.25-2.31h-.06c-.26,0-.53.03-.8.08-.27.05-.63.19-1.09.4-.46.22-.87.52-1.23.9-.36.39-.73.96-1.1,1.72-.37.76-.67,1.65-.89,2.65l-2.18,10.46h-3.85Z"/>
    <path d="M254.55,442.82c0-3.07,1.2-5.85,3.6-8.35,2.4-2.5,5.1-3.75,8.1-3.75,2.2,0,3.99.74,5.37,2.21s2.08,3.33,2.08,5.56c0,3.18-1.21,5.97-3.63,8.36-2.42,2.39-5.1,3.58-8.05,3.58-2.22,0-4.02-.72-5.4-2.16s-2.08-3.26-2.08-5.45ZM258.39,442.98c0,1.58.42,2.7,1.26,3.36.84.66,1.86.99,3.06.99,1.42,0,2.64-.38,3.68-1.13,1.04-.75,1.79-1.69,2.25-2.81s.79-2.14.99-3.07c.2-.92.3-1.75.3-2.48,0-1.5-.42-2.57-1.27-3.19s-1.87-.94-3.06-.94-2.22.25-3.15.76-1.63,1.13-2.12,1.85c-.49.72-.89,1.55-1.2,2.47-.31.92-.51,1.71-.61,2.38-.09.67-.14,1.27-.14,1.8ZM261.03,427.19l.78-3.75h3.77l-.78,3.75h-3.77ZM269.23,427.19l.74-3.75h3.81l-.78,3.75h-3.77Z"/>
    <path d="M275.17,450.12l5.88-27.75.04-.04h3.73l-2.52,12.08c1.98-2.32,4.22-3.49,6.72-3.49,3.12,0,4.69,1.31,4.69,3.95,0,.59-.1,1.44-.31,2.56l-2.73,12.69h-3.85l2.62-12.5c.13-.74.19-1.21.19-1.41,0-1.54-1.08-2.31-3.25-2.31h-.06c-.26,0-.53.03-.8.08-.27.05-.63.19-1.09.4-.46.22-.87.52-1.23.9-.36.39-.73.96-1.1,1.72-.37.76-.67,1.65-.89,2.65l-2.18,10.46h-3.85Z"/>
    <path d="M296.25,442.76c0-3.01,1.14-5.76,3.43-8.25,2.29-2.49,4.87-3.74,7.74-3.74,1.06,0,2.03.15,2.91.46.88.31,1.66.94,2.34,1.91.68.97,1.02,2.23,1.02,3.78,0,.53-.14,1.6-.42,3.2h-13.11s-.06.16-.1.4c-.04.24-.08.53-.14.88-.05.34-.08.64-.08.89,0,1.47.42,2.7,1.26,3.68.84.98,1.99,1.47,3.43,1.47,2.14,0,4.47-.76,6.99-2.29l-.45,3.24c-2.48,1.35-4.87,2.03-7.19,2.03s-4.19-.73-5.57-2.2c-1.38-1.46-2.07-3.29-2.07-5.48ZM301.07,437.76h9.14c-.03-1.52-.38-2.57-1.08-3.14-.69-.57-1.49-.86-2.41-.86-1.1,0-2.15.37-3.15,1.1-1,.74-1.84,1.7-2.5,2.9Z"/>
    <path d="M325.41,450.12l9.47-9.77-5.23-9.12h4.16l3.32,6.29,5.8-6.29h4.08l-8.85,9.08,5.57,9.8h-4.12l-3.55-7.48h-.04l-6.52,7.48h-4.08Z"/>
    <path d="M361.62,446.45c0-4.3.9-8.73,2.71-13.29,1.8-4.56,4.41-8.34,7.82-11.32.46-.4,1.19-.98,2.21-1.72h3.03c-2.67,2.08-4.94,4.77-6.82,8.07-1.88,3.29-3.21,6.55-3.99,9.76-.79,3.21-1.18,6.34-1.18,9.38,0,1.63.12,3.11.36,4.45.24,1.34.6,2.51,1.08,3.5.48.99.86,1.7,1.14,2.13.28.43.65.96,1.12,1.6h-3.03c-.48-.54-.8-.89-.95-1.06s-.51-.7-1.07-1.58c-.56-.88-.98-1.71-1.25-2.48-.27-.78-.53-1.83-.79-3.17-.26-1.34-.39-2.76-.39-4.26Z"/>
    <path d="M375.91,450.12l5.88-27.75.04-.04h3.73l-2.33,11.08c2.26-1.66,4.63-2.48,7.09-2.48,1.09,0,2,.37,2.73,1.12s1.21,1.58,1.47,2.51c.25.93.38,1.91.38,2.95,0,3.39-1.04,6.39-3.13,9-2.09,2.61-4.42,3.92-7,3.92-1.92,0-3.46-.8-4.62-2.39l-.44,2.08h-3.8ZM380.67,445.58c.21.4.41.71.6.92s.49.42.91.63c.41.21.9.32,1.47.32,3.71,0,6.05-2.22,7.01-6.65.26-1.15.39-2.12.39-2.93,0-1.45-.41-2.47-1.23-3.06-.82-.59-1.77-.89-2.87-.89-.93,0-1.81.2-2.65.6-.84.4-1.35.79-1.55,1.17-.08.18-.77,3.48-2.08,9.89Z"/>
    <path d="M395.43,450.12l4-18.89h3.59l-.83,4.09c2.29-2.86,4.95-4.33,7.97-4.41l-.72,3.36c-2.06.03-3.81.58-5.26,1.67-1.45,1.09-2.4,2.32-2.87,3.71l-2.12,10.47h-3.77Z"/>
    <path d="M409.62,442.76c0-3.01,1.14-5.76,3.43-8.25,2.29-2.49,4.87-3.74,7.74-3.74,1.06,0,2.03.15,2.91.46.88.31,1.66.94,2.34,1.91.68.97,1.02,2.23,1.02,3.78,0,.53-.14,1.6-.42,3.2h-13.11s-.06.16-.1.4c-.04.24-.08.53-.14.88-.05.34-.08.64-.08.89,0,1.47.42,2.7,1.26,3.68.84.98,1.99,1.47,3.43,1.47,2.14,0,4.47-.76,6.99-2.29l-.45,3.24c-2.48,1.35-4.87,2.03-7.19,2.03s-4.19-.73-5.57-2.2c-1.38-1.46-2.07-3.29-2.07-5.48ZM414.45,437.76h9.14c-.03-1.52-.38-2.57-1.08-3.14-.69-.57-1.49-.86-2.41-.86-1.1,0-2.15.37-3.15,1.1-1,.74-1.84,1.7-2.5,2.9Z"/>
    <path d="M428.08,450.12l4-18.89h3.77l-4,18.89h-3.77ZM433.14,426.12l.78-3.75h3.77l-.78,3.75h-3.77Z"/>
    <path d="M438.68,434.22l.64-2.99h3.21l1.17-5.41h3.59l-1.14,5.41h5.61l-.64,2.99h-5.59c-.32,1.51-.63,2.99-.94,4.43-.31,1.44-.53,2.47-.68,3.08-.15.61-.27,1.19-.37,1.74-.1.55-.16.86-.18.95-.03.08-.04.25-.04.5,0,1.59.5,2.39,1.5,2.41,1.17,0,2.42-.47,3.73-1.41l.16,2.91c-2.45,1.07-4.71,1.6-6.8,1.6-1.71,0-2.56-1.16-2.56-3.48,0-.33.04-.77.12-1.35s.21-1.28.38-2.12c.17-.84.35-1.69.55-2.53.2-.85.44-1.93.73-3.26s.54-2.49.75-3.47h-3.2Z"/>
    <path d="M452.59,442.76c0-3.01,1.14-5.76,3.43-8.25,2.29-2.49,4.87-3.74,7.74-3.74,1.06,0,2.03.15,2.91.46.88.31,1.66.94,2.34,1.91.68.97,1.02,2.23,1.02,3.78,0,.53-.14,1.6-.42,3.2h-13.11s-.06.16-.1.4c-.04.24-.08.53-.14.88-.05.34-.08.64-.08.89,0,1.47.42,2.7,1.26,3.68.84.98,1.99,1.47,3.43,1.47,2.14,0,4.47-.76,6.99-2.29l-.45,3.24c-2.48,1.35-4.87,2.03-7.19,2.03s-4.19-.73-5.57-2.2c-1.38-1.46-2.07-3.29-2.07-5.48ZM457.42,437.76h9.14c-.03-1.52-.38-2.57-1.08-3.14-.69-.57-1.49-.86-2.41-.86-1.1,0-2.15.37-3.15,1.1-1,.74-1.84,1.7-2.5,2.9Z"/>
    <path d="M481.75,450.12l9.47-9.77-5.23-9.12h4.16l3.32,6.29,5.8-6.29h4.08l-8.85,9.08,5.57,9.8h-4.12l-3.55-7.48h-.04l-6.52,7.48h-4.08Z"/>
    <path d="M515.95,450.12l5.88-27.75.04-.04h3.73l-5.88,27.79h-3.77Z"/>
    <path d="M524.94,446.08c0-1.65.58-2.95,1.73-3.9,1.16-.94,2.81-1.68,4.97-2.22,1.81-.46,3.9-.71,6.27-.76.32-1.63.47-2.62.46-2.97,0-.69-.22-1.31-.65-1.86s-1.1-.82-2.01-.82c-1.02,0-1.98.13-2.9.4-.92.27-1.58.51-1.98.72-.4.21-1.04.58-1.91,1.08.23-2.08.39-3.19.47-3.32.05-.05.18-.12.37-.2,2.16-1.02,4.36-1.52,6.6-1.52,1.92,0,3.4.53,4.43,1.58,1.03,1.05,1.55,2.26,1.55,3.61,0,.4-.09,1-.27,1.8l-2.53,12.4h-3.87l.53-2.55c-2.08,1.91-4.52,2.86-7.34,2.86-1.38,0-2.37-.45-2.99-1.36-.62-.91-.92-1.9-.92-3ZM528.74,445.32c.05.56.33,1.05.84,1.48s1.22.64,2.15.64c1.07,0,2.09-.26,3.07-.78.98-.52,1.62-1.24,1.93-2.15.08-.21.34-1.35.8-3.44-2.7.1-4.79.5-6.3,1.2-1.5.7-2.32,1.55-2.45,2.57l-.04.47ZM531.03,427.19l.78-3.75h3.77l-.78,3.75h-3.77ZM539.21,427.19l.78-3.75h3.77l-.78,3.75h-3.77Z"/>
    <path d="M544.57,450.12l4-18.89h3.71l-.67,3.29c2.04-2.4,4.32-3.6,6.81-3.6,3.13,0,4.7,1.31,4.7,3.95,0,.59-.1,1.44-.31,2.56l-2.73,12.69h-3.85l2.62-12.5c.13-.74.19-1.21.19-1.41,0-1.54-1.08-2.31-3.24-2.31h-.06c-.27,0-.53.03-.81.08-.27.05-.64.19-1.11.4-.47.21-.88.51-1.25.9s-.74.96-1.12,1.72-.68,1.64-.91,2.65l-2.14,10.47h-3.85Z"/>
    <path d="M564.4,455.7l.68-3.28c1.2.72,2.29,1.24,3.28,1.58.99.33,2.19.5,3.59.5,1.25,0,2.28-.4,3.08-1.19.8-.79,1.35-1.65,1.65-2.58.03-.05.4-1.77,1.13-5.15-1.79,2.37-3.88,3.55-6.28,3.55-1.68,0-3.05-.61-4.09-1.82-1.04-1.22-1.57-2.74-1.57-4.57s.45-3.55,1.36-5.38c.9-1.83,2.14-3.36,3.72-4.58s3.2-1.84,4.88-1.84c.64,0,1.23.09,1.78.28s.98.42,1.3.7.6.56.84.84c.24.28.41.51.52.69l.16.27.61-2.79h3.87l-3.81,17.93c-.39,1.6-.77,2.76-1.14,3.49-.24.45-.57.92-.98,1.41-.41.49-.97,1.04-1.66,1.65-.7.61-1.56,1.11-2.6,1.5s-2.15.58-3.33.58c-2.45,0-4.78-.6-6.99-1.79ZM569.84,441.85c0,1.25.4,2.28,1.19,3.09.79.8,1.76,1.21,2.9,1.21s2.14-.49,3.06-1.48,1.6-2.5,2.02-4.54c.51-2.09.76-3.24.74-3.45,0-.54-.22-1.13-.65-1.78-.44-.65-1.13-.98-2.09-.98-1.75,0-3.39.85-4.9,2.55-1.51,1.7-2.27,3.49-2.27,5.39Z"/>
    <path d="M586.3,442.76c0-3.01,1.14-5.76,3.43-8.25,2.29-2.49,4.87-3.74,7.74-3.74,1.06,0,2.03.15,2.91.46.88.31,1.66.94,2.34,1.91.68.97,1.02,2.23,1.02,3.78,0,.53-.14,1.6-.42,3.2h-13.11s-.06.16-.1.4c-.04.24-.08.53-.14.88-.05.34-.08.64-.08.89,0,1.47.42,2.7,1.26,3.68.84.98,1.99,1.47,3.43,1.47,2.14,0,4.47-.76,6.99-2.29l-.45,3.24c-2.48,1.35-4.87,2.03-7.19,2.03s-4.19-.73-5.57-2.2-2.07-3.29-2.07-5.48ZM591.13,437.76h9.14c-.03-1.52-.38-2.57-1.08-3.14-.69-.57-1.49-.86-2.41-.86-1.1,0-2.15.37-3.15,1.1-1,.74-1.84,1.7-2.5,2.9Z"/>
    <path d="M602.55,458.97c5.44-4.15,9.13-10.5,11.05-19.04.64-2.8.96-5.51.96-8.12,0-1.63-.12-3.12-.36-4.46s-.6-2.51-1.08-3.48c-.48-.97-.86-1.68-1.14-2.12-.28-.44-.66-.98-1.14-1.62h3.01c1.25,1.45,2.16,2.74,2.73,3.89,1.18,2.45,1.77,5.33,1.77,8.63,0,4.3-.9,8.71-2.69,13.24s-4.39,8.3-7.8,11.31c-.66.59-1.41,1.19-2.25,1.82h-1.8l-1.25-.04Z"/>
  </g>
  <g>
    <path d="M748.56,446.45c0-4.3.9-8.73,2.71-13.29,1.8-4.56,4.41-8.34,7.82-11.32.46-.4,1.19-.98,2.21-1.72h3.03c-2.67,2.08-4.94,4.77-6.82,8.07-1.88,3.29-3.21,6.55-3.99,9.76-.79,3.21-1.18,6.34-1.18,9.38,0,1.63.12,3.11.36,4.45.24,1.34.6,2.51,1.08,3.5.48.99.86,1.7,1.14,2.13.28.43.65.96,1.12,1.6h-3.03c-.48-.54-.8-.89-.95-1.06s-.51-.7-1.07-1.58c-.56-.88-.98-1.71-1.25-2.48-.27-.78-.53-1.83-.79-3.17-.26-1.34-.39-2.76-.39-4.26Z"/>
    <path d="M762.82,450.12l5.88-27.75.04-.04h3.73l-2.52,12.08c1.98-2.32,4.22-3.49,6.72-3.49,3.12,0,4.69,1.31,4.69,3.95,0,.59-.11,1.44-.31,2.56l-2.73,12.69h-3.85l2.62-12.5c.13-.74.19-1.21.19-1.41,0-1.54-1.08-2.31-3.25-2.31h-.06c-.26,0-.53.03-.8.08-.27.05-.63.19-1.09.4-.46.22-.87.52-1.23.9-.36.39-.73.96-1.1,1.72-.37.76-.67,1.65-.89,2.65l-2.18,10.46h-3.85Z"/>
    <path d="M783.86,442.82c0-3.07,1.2-5.85,3.6-8.35,2.4-2.5,5.1-3.75,8.11-3.75,2.2,0,3.99.74,5.37,2.21s2.08,3.33,2.08,5.56c0,3.18-1.21,5.97-3.62,8.36-2.42,2.39-5.1,3.58-8.05,3.58-2.22,0-4.02-.72-5.4-2.16-1.38-1.44-2.08-3.26-2.08-5.45ZM787.7,442.98c0,1.58.42,2.7,1.26,3.36.84.66,1.86.99,3.06.99,1.42,0,2.64-.38,3.68-1.13,1.04-.75,1.79-1.69,2.25-2.81s.79-2.14.99-3.07c.2-.92.3-1.75.3-2.48,0-1.5-.42-2.57-1.27-3.19s-1.87-.94-3.06-.94-2.22.25-3.14.76-1.63,1.13-2.12,1.85c-.49.72-.89,1.55-1.2,2.47-.31.92-.51,1.71-.61,2.38-.09.67-.14,1.27-.14,1.8ZM790.34,427.19l.78-3.75h3.77l-.78,3.75h-3.77ZM798.54,427.19l.74-3.75h3.81l-.78,3.75h-3.77Z"/>
    <path d="M804.48,450.12l5.88-27.75.04-.04h3.73l-2.52,12.08c1.98-2.32,4.22-3.49,6.72-3.49,3.12,0,4.69,1.31,4.69,3.95,0,.59-.11,1.44-.31,2.56l-2.73,12.69h-3.85l2.62-12.5c.13-.74.19-1.21.19-1.41,0-1.54-1.08-2.31-3.25-2.31h-.06c-.26,0-.53.03-.8.08-.27.05-.63.19-1.09.4-.46.22-.87.52-1.23.9-.36.39-.73.96-1.1,1.72-.37.76-.67,1.65-.89,2.65l-2.18,10.46h-3.85Z"/>
    <path d="M825.55,442.76c0-3.01,1.14-5.76,3.43-8.25,2.29-2.49,4.87-3.74,7.74-3.74,1.06,0,2.03.15,2.91.46.88.31,1.66.94,2.34,1.91.68.97,1.02,2.23,1.02,3.78,0,.53-.14,1.6-.42,3.2h-13.11s-.06.16-.1.4c-.04.24-.08.53-.14.88-.05.34-.08.64-.08.89,0,1.47.42,2.7,1.26,3.68.84.98,1.99,1.47,3.43,1.47,2.14,0,4.47-.76,6.99-2.29l-.45,3.24c-2.48,1.35-4.87,2.03-7.19,2.03s-4.19-.73-5.57-2.2c-1.38-1.46-2.07-3.29-2.07-5.48ZM830.38,437.76h9.14c-.03-1.52-.38-2.57-1.08-3.14-.69-.57-1.49-.86-2.41-.86-1.1,0-2.15.37-3.15,1.1-1,.74-1.84,1.7-2.5,2.9Z"/>
    <path d="M854.71,450.12l9.47-9.77-5.23-9.12h4.16l3.32,6.29,5.8-6.29h4.08l-8.85,9.08,5.57,9.8h-4.12l-3.55-7.48h-.04l-6.52,7.48h-4.08Z"/>
    <path d="M888.91,450.12l5.88-27.75.04-.04h3.73l-2.33,11.08c2.26-1.66,4.63-2.48,7.1-2.48,1.09,0,2,.37,2.73,1.12s1.21,1.58,1.47,2.51c.25.93.38,1.91.38,2.95,0,3.39-1.04,6.39-3.13,9-2.09,2.61-4.42,3.92-7,3.92-1.92,0-3.46-.8-4.62-2.39l-.44,2.08h-3.8ZM893.67,445.58c.21.4.41.71.6.92s.49.42.91.63c.41.21.9.32,1.47.32,3.71,0,6.05-2.22,7.01-6.65.26-1.15.39-2.12.39-2.93,0-1.45-.41-2.47-1.22-3.06-.82-.59-1.77-.89-2.87-.89-.93,0-1.81.2-2.65.6-.84.4-1.35.79-1.55,1.17-.08.18-.77,3.48-2.08,9.89Z"/>
    <path d="M908.43,450.12l4-18.89h3.59l-.83,4.09c2.29-2.86,4.95-4.33,7.97-4.41l-.72,3.36c-2.06.03-3.81.58-5.26,1.67-1.45,1.09-2.4,2.32-2.87,3.71l-2.12,10.47h-3.77Z"/>
    <path d="M922.62,442.76c0-3.01,1.14-5.76,3.43-8.25,2.29-2.49,4.87-3.74,7.74-3.74,1.06,0,2.03.15,2.91.46.88.31,1.66.94,2.34,1.91.68.97,1.02,2.23,1.02,3.78,0,.53-.14,1.6-.42,3.2h-13.11s-.06.16-.1.4c-.04.24-.08.53-.14.88-.05.34-.08.64-.08.89,0,1.47.42,2.7,1.26,3.68.84.98,1.99,1.47,3.43,1.47,2.14,0,4.47-.76,6.99-2.29l-.45,3.24c-2.48,1.35-4.87,2.03-7.19,2.03s-4.19-.73-5.57-2.2c-1.38-1.46-2.07-3.29-2.07-5.48ZM927.45,437.76h9.14c-.03-1.52-.38-2.57-1.08-3.14-.69-.57-1.49-.86-2.41-.86-1.1,0-2.15.37-3.15,1.1-1,.74-1.84,1.7-2.5,2.9Z"/>
    <path d="M941.08,450.12l4-18.89h3.77l-4,18.89h-3.77ZM946.14,426.12l.78-3.75h3.77l-.78,3.75h-3.77Z"/>
    <path d="M951.68,434.22l.64-2.99h3.21l1.17-5.41h3.59l-1.14,5.41h5.61l-.64,2.99h-5.59c-.32,1.51-.63,2.99-.94,4.43s-.53,2.47-.68,3.08c-.15.61-.27,1.19-.37,1.74-.1.55-.16.86-.18.95-.03.08-.04.25-.04.5,0,1.59.5,2.39,1.5,2.41,1.17,0,2.42-.47,3.73-1.41l.16,2.91c-2.45,1.07-4.71,1.6-6.8,1.6-1.71,0-2.56-1.16-2.56-3.48,0-.33.04-.77.12-1.35s.21-1.28.38-2.12c.17-.84.35-1.69.55-2.53.2-.85.44-1.93.73-3.26s.54-2.49.75-3.47h-3.2Z"/>
    <path d="M965.59,442.76c0-3.01,1.14-5.76,3.43-8.25,2.29-2.49,4.87-3.74,7.74-3.74,1.06,0,2.03.15,2.91.46.88.31,1.66.94,2.34,1.91.68.97,1.02,2.23,1.02,3.78,0,.53-.14,1.6-.42,3.2h-13.11s-.06.16-.1.4c-.04.24-.08.53-.14.88-.05.34-.08.64-.08.89,0,1.47.42,2.7,1.26,3.68.84.98,1.99,1.47,3.43,1.47,2.14,0,4.47-.76,6.99-2.29l-.45,3.24c-2.48,1.35-4.87,2.03-7.19,2.03s-4.19-.73-5.57-2.2c-1.38-1.46-2.07-3.29-2.07-5.48ZM970.42,437.76h9.14c-.03-1.52-.38-2.57-1.08-3.14-.69-.57-1.49-.86-2.41-.86-1.1,0-2.15.37-3.15,1.1-1,.74-1.84,1.7-2.5,2.9Z"/>
    <path d="M981.84,458.97c5.44-4.15,9.13-10.5,11.05-19.04.64-2.8.96-5.51.96-8.12,0-1.63-.12-3.12-.36-4.46-.24-1.35-.6-2.51-1.08-3.48-.48-.97-.86-1.68-1.14-2.12-.28-.44-.66-.98-1.14-1.62h3.01c1.25,1.45,2.16,2.74,2.72,3.89,1.18,2.45,1.77,5.33,1.77,8.63,0,4.3-.9,8.71-2.69,13.24-1.79,4.53-4.39,8.3-7.8,11.31-.66.59-1.41,1.19-2.25,1.82h-1.8l-1.25-.04Z"/>
    <path d="M1011.06,450.12l9.47-9.77-5.23-9.12h4.16l3.32,6.29,5.8-6.29h4.08l-8.85,9.08,5.57,9.8h-4.12l-3.55-7.48h-.04l-6.52,7.48h-4.08Z"/>
    <path d="M1045.26,450.12l5.88-27.75.04-.04h3.73l-5.88,27.79h-3.77Z"/>
    <path d="M1054.25,446.08c0-1.65.58-2.95,1.73-3.9,1.16-.94,2.81-1.68,4.97-2.22,1.81-.46,3.9-.71,6.28-.76.32-1.63.47-2.62.46-2.97,0-.69-.22-1.31-.65-1.86-.43-.55-1.1-.82-2.01-.82-1.02,0-1.98.13-2.9.4-.92.27-1.58.51-1.98.72s-1.04.58-1.91,1.08c.23-2.08.39-3.19.47-3.32.05-.05.18-.12.37-.2,2.16-1.02,4.36-1.52,6.6-1.52,1.92,0,3.4.53,4.43,1.58,1.03,1.05,1.55,2.26,1.55,3.61,0,.4-.09,1-.27,1.8l-2.53,12.4h-3.87l.53-2.55c-2.08,1.91-4.52,2.86-7.34,2.86-1.38,0-2.37-.45-2.99-1.36-.62-.91-.92-1.9-.92-3ZM1058.05,445.32c.05.56.33,1.05.84,1.48s1.22.64,2.15.64c1.07,0,2.09-.26,3.07-.78.98-.52,1.62-1.24,1.93-2.15.08-.21.35-1.35.8-3.44-2.7.1-4.79.5-6.3,1.2-1.5.7-2.32,1.55-2.45,2.57l-.04.47ZM1060.34,427.19l.78-3.75h3.77l-.78,3.75h-3.77ZM1068.52,427.19l.78-3.75h3.77l-.78,3.75h-3.77Z"/>
    <path d="M1073.88,450.12l4-18.89h3.71l-.67,3.29c2.04-2.4,4.32-3.6,6.81-3.6,3.13,0,4.7,1.31,4.7,3.95,0,.59-.11,1.44-.31,2.56l-2.73,12.69h-3.85l2.62-12.5c.13-.74.19-1.21.19-1.41,0-1.54-1.08-2.31-3.24-2.31h-.06c-.27,0-.54.03-.81.08-.27.05-.64.19-1.11.4-.47.21-.88.51-1.25.9s-.74.96-1.12,1.72-.68,1.64-.91,2.65l-2.14,10.47h-3.85Z"/>
    <path d="M1093.7,455.7l.68-3.28c1.2.72,2.29,1.24,3.28,1.58.99.33,2.19.5,3.59.5,1.25,0,2.28-.4,3.08-1.19.8-.79,1.35-1.65,1.65-2.58.03-.05.4-1.77,1.13-5.15-1.79,2.37-3.88,3.55-6.28,3.55-1.68,0-3.05-.61-4.09-1.82s-1.57-2.74-1.57-4.57.45-3.55,1.36-5.38c.9-1.83,2.14-3.36,3.72-4.58,1.57-1.23,3.2-1.84,4.88-1.84.64,0,1.23.09,1.78.28.55.19.98.42,1.3.7s.6.56.84.84c.24.28.41.51.52.69l.16.27.61-2.79h3.87l-3.81,17.93c-.39,1.6-.76,2.76-1.14,3.49-.24.45-.57.92-.98,1.41-.41.49-.97,1.04-1.66,1.65s-1.56,1.11-2.6,1.5-2.15.58-3.33.58c-2.45,0-4.78-.6-6.99-1.79ZM1099.15,441.85c0,1.25.4,2.28,1.19,3.09s1.76,1.21,2.9,1.21,2.14-.49,3.06-1.48c.92-.99,1.6-2.5,2.02-4.54.51-2.09.75-3.24.74-3.45,0-.54-.22-1.13-.65-1.78-.44-.65-1.13-.98-2.09-.98-1.75,0-3.39.85-4.9,2.55-1.51,1.7-2.27,3.49-2.27,5.39Z"/>
    <path d="M1115.61,442.76c0-3.01,1.14-5.76,3.43-8.25,2.29-2.49,4.87-3.74,7.74-3.74,1.06,0,2.03.15,2.91.46.88.31,1.66.94,2.34,1.91.68.97,1.02,2.23,1.02,3.78,0,.53-.14,1.6-.42,3.2h-13.11s-.06.16-.1.4c-.04.24-.08.53-.14.88-.05.34-.08.64-.08.89,0,1.47.42,2.7,1.26,3.68.84.98,1.99,1.47,3.43,1.47,2.14,0,4.47-.76,6.99-2.29l-.45,3.24c-2.48,1.35-4.87,2.03-7.19,2.03s-4.19-.73-5.57-2.2-2.07-3.29-2.07-5.48ZM1120.44,437.76h9.14c-.03-1.52-.38-2.57-1.08-3.14-.69-.57-1.49-.86-2.41-.86-1.1,0-2.15.37-3.15,1.1-1,.74-1.84,1.7-2.5,2.9Z"/>
  </g>
  <path d="M372.75,482.67l131.04.18-49.45,50.09h-136.97l55.39-50.27M371.2,478.67l-64.2,58.27h149l57.34-58.07-142.14-.2h0Z"/>
  <path d="M509.34,488.53v190.61l-49.74,43.93v-184.81l49.74-49.74M513.34,478.87l-57.74,57.74v195.34l57.74-51v-202.07h0Z"/>
  <path d="M355.27,538.61c-.53,0-1.06-.21-1.45-.62-.76-.8-.73-2.07.08-2.83l58.73-55.66c.8-.76,2.07-.73,2.83.08.76.8.73,2.07-.08,2.83l-58.73,55.66c-.39.37-.88.55-1.38.55Z"/>
  <path d="M406.6,538.61c-.51,0-1.02-.19-1.41-.58-.78-.78-.79-2.05,0-2.83l55.4-55.66c.78-.78,2.05-.78,2.83,0,.78.78.79,2.05,0,2.83l-55.4,55.66c-.39.39-.9.59-1.42.59Z"/>
  <path d="M476.17,711.11c-1.1,0-2-.89-2-1.99l-.66-189.98h-139.17c-1.1,0-2-.9-2-2s.9-2,2-2h141.16c1.1,0,2,.89,2,1.99l.67,191.98c0,1.1-.89,2-1.99,2.01h0Z"/>
  <path d="M495.5,696.45c-1.1,0-2-.9-2-2v-194.31h-139.16c-1.1,0-2-.9-2-2s.9-2,2-2h141.16c1.1,0,2,.9,2,2v196.31c0,1.1-.89,2-2,2Z"/>
  <path d="M455.6,586.61c-.51,0-1.02-.2-1.41-.59-.78-.78-.78-2.05,0-2.83l55.32-55.32c.78-.78,2.05-.78,2.83,0s.78,2.05,0,2.83l-55.32,55.32c-.39.39-.9.59-1.41.59Z"/>
  <path d="M455.6,637.61c-.51,0-1.02-.2-1.41-.59-.78-.78-.78-2.05,0-2.83l55.32-55.32c.78-.78,2.05-.78,2.83,0s.78,2.05,0,2.83l-55.32,55.32c-.39.39-.9.59-1.41.59Z"/>
  <path d="M455.6,687.61c-.51,0-1.02-.2-1.41-.59-.78-.78-.78-2.05,0-2.83l55.32-55.32c.78-.78,2.05-.78,2.83,0s.78,2.05,0,2.83l-55.32,55.32c-.39.39-.9.59-1.41.59Z"/>
  <path d="M1005.71,511.37l42.32,42.32-183.5,1.58-43.9-43.9h185.08M1007.36,507.37h-196.4l51.92,51.92,194.72-1.68-50.24-50.24h0Z"/>
  <path d="M814.62,514.61l46.08,46.08-1.36,137.08-44.72-44.72v-138.44M811.62,507.37v146.92l50.65,50.65,1.44-145.48-52.09-52.09h0Z"/>
  <rect x="835.6" y="546.07" width="4" height="69.75" transform="translate(-165.46 762.43) rotate(-45)"/>
  <rect x="885.6" y="499.07" width="4" height="69.75" transform="translate(-117.58 784.02) rotate(-45)"/>
  <rect x="935.6" y="499.07" width="4" height="69.75" transform="translate(-102.94 819.38) rotate(-45)"/>
  <rect x="982.6" y="499.07" width="4" height="69.75" transform="translate(-89.17 852.61) rotate(-45)"/>
  <rect x="835.93" y="594.87" width="4" height="68.82" transform="translate(-199.54 776.82) rotate(-45)"/>
  <path d="M832,671.42h-4s.31-146.36.31-146.36c0-1.1.9-2,2-2h193.02v4h-191.02l-.31,144.35Z"/>
  <path d="M848.99,687.94h-4s.32-147.87.32-147.87c0-1.1.9-2,2-2h193.02v4h-191.02l-.32,145.87Z"/>
  <rect x="123" y="281.95" width="1119" height="4" fill="#aaa496"/>
</svg>