<?xml version="1.0" encoding="UTF-8"?>
<svg id="Ebene_1" data-name="Ebene 1" xmlns="http://www.w3.org/2000/svg" viewBox="0 0 855 532">
  <defs>
    <style>
      .cls-1 {
        fill: #fff;
      }

      .cls-1, .cls-2 {
        font-family: CMUSerif-BoldSlanted, 'CMU Serif Extra';
        font-size: 20px;
        font-weight: 700;
      }

      .cls-1, .cls-2, .cls-3 {
        font-style: oblique;
      }

      .cls-4 {
        fill: #c03b2d;
      }

      .cls-5 {
        fill: #f9f2db;
      }

      .cls-6 {
        fill: #f0c34e;
      }

      .cls-3 {
        font-family: CMUBright-SemiBoldOblique, 'CMU Bright';
        font-size: 19px;
        font-weight: 600;
      }

      .cls-7 {
        fill: #4e8caf;
      }

      .cls-8 {
        fill: #84b5d1;
      }

      .cls-9 {
        fill: #30628b;
      }
    </style>
  </defs>
  <rect class="cls-5" width="855" height="532"/>
  <path class="cls-9" d="M429,168l-1.4,292h-127.88v-176.32c10.6-15.81,23.13-34.43,41.28-59.68,1.9-2.64,12.84-17.66,31-33,18.49-15.62,30.98-20.19,41-22,6.56-1.18,12.15-1.2,16-1Z"/>
  <path class="cls-8" d="M170.84,421.36v38.64H46.4c23.29-1.39,54.25-6.16,88-20,4.64-1.9,18.38-7.68,36.44-18.64Z"/>
  <path class="cls-7" d="M170.84,460h129.16l-.28-176.32c-72.28,113.68-128.88,137.68-128.88,137.68v38.64Z"/>
  <path class="cls-9" d="M426.2,168l1.4,292h127.88s0-176.32,0-176.32c-10.6-15.81-23.13-34.43-41.28-59.68-1.9-2.64-12.84-17.66-31-33-18.49-15.62-30.98-20.19-41-22-6.56-1.18-12.15-1.2-16-1Z"/>
  <path class="cls-8" d="M684.36,421.36v38.64s124.44,0,124.44,0c-23.29-1.39-54.25-6.16-88-20-4.64-1.9-18.38-7.68-36.44-18.64Z"/>
  <path class="cls-7" d="M684.36,460h-129.16s.28-176.32.28-176.32c72.28,113.68,128.88,137.68,128.88,137.68v38.64Z"/>
  <g>
    <rect class="cls-4" x="473.5" y="117" width="75.92" height="1"/>
    <polygon class="cls-4" points="546.1 121.59 545.42 120.86 549.03 117.5 545.42 114.14 546.1 113.41 550.5 117.5 546.1 121.59"/>
  </g>
  <g>
    <rect class="cls-4" x="305.58" y="117" width="75.92" height="1"/>
    <polygon class="cls-4" points="308.9 113.41 309.58 114.14 305.97 117.5 309.58 120.86 308.9 121.59 304.5 117.5 308.9 113.41"/>
  </g>
  <g>
    <rect class="cls-4" x="474" y="83" width="202.42" height="1"/>
    <polygon class="cls-4" points="673.1 87.59 672.42 86.86 676.03 83.5 672.42 80.14 673.1 79.41 677.5 83.5 673.1 87.59"/>
  </g>
  <g>
    <rect class="cls-4" x="178.58" y="83" width="203.42" height="1"/>
    <polygon class="cls-4" points="181.9 79.41 182.58 80.14 178.97 83.5 182.58 86.86 181.9 87.59 177.5 83.5 181.9 79.41"/>
  </g>
  <g>
    <rect class="cls-4" x="474" y="48" width="328.42" height="1"/>
    <polygon class="cls-4" points="799.1 52.59 798.42 51.86 802.03 48.5 798.42 45.14 799.1 44.41 803.5 48.5 799.1 52.59"/>
  </g>
  <g>
    <rect class="cls-4" x="52.58" y="48" width="329.42" height="1"/>
    <polygon class="cls-4" points="55.9 44.41 56.58 45.14 52.97 48.5 56.58 51.86 55.9 52.59 51.5 48.5 55.9 44.41"/>
  </g>
  <g>
    <rect x="170.25" y="83" width="3.5" height="1.5" transform="translate(87.8 255.53) rotate(-89.85)"/>
    <path d="M171.78,450.48h-1.5s.02-7.02.02-7.02h1.5s-.02,7.02-.02,7.02ZM171.81,436.45h-1.5s.02-7.02.02-7.02h1.5s-.02,7.02-.02,7.02ZM171.85,422.41h-1.5s.02-7.02.02-7.02h1.5s-.02,7.02-.02,7.02ZM171.89,408.37h-1.5s.02-7.02.02-7.02h1.5s-.02,7.02-.02,7.02ZM171.93,394.33h-1.5s.02-7.02.02-7.02h1.5s-.02,7.02-.02,7.02ZM171.96,380.29h-1.5s.02-7.02.02-7.02h1.5s-.02,7.02-.02,7.02ZM172,366.26h-1.5s.02-7.02.02-7.02h1.5s-.02,7.02-.02,7.02ZM172.04,352.22h-1.5s.02-7.02.02-7.02h1.5s-.02,7.02-.02,7.02ZM172.07,338.18h-1.5s.02-7.02.02-7.02h1.5s-.02,7.02-.02,7.02ZM172.11,324.14h-1.5s.02-7.02.02-7.02h1.5s-.02,7.02-.02,7.02ZM172.15,310.11h-1.5s.02-7.02.02-7.02h1.5s-.02,7.02-.02,7.02ZM172.19,296.07h-1.5s.02-7.02.02-7.02h1.5s-.02,7.02-.02,7.02ZM172.22,282.03h-1.5s.02-7.02.02-7.02h1.5s-.02,7.02-.02,7.02ZM172.26,267.99h-1.5s.02-7.02.02-7.02h1.5s-.02,7.02-.02,7.02ZM172.3,253.96h-1.5s.02-7.02.02-7.02h1.5s-.02,7.02-.02,7.02ZM172.33,239.92h-1.5s.02-7.02.02-7.02h1.5s-.02,7.02-.02,7.02ZM172.37,225.88h-1.5s.02-7.02.02-7.02h1.5s-.02,7.02-.02,7.02ZM172.41,211.84h-1.5s.02-7.02.02-7.02h1.5s-.02,7.02-.02,7.02ZM172.44,197.8h-1.5s.02-7.02.02-7.02h1.5s-.02,7.02-.02,7.02ZM172.48,183.77h-1.5s.02-7.02.02-7.02h1.5s-.02,7.02-.02,7.02ZM172.52,169.73h-1.5s.02-7.02.02-7.02h1.5s-.02,7.02-.02,7.02ZM172.56,155.69h-1.5s.02-7.02.02-7.02h1.5s-.02,7.02-.02,7.02ZM172.59,141.65h-1.5s.02-7.02.02-7.02h1.5s-.02,7.02-.02,7.02ZM172.63,127.62h-1.5s.02-7.02.02-7.02h1.5s-.02,7.02-.02,7.02ZM172.67,113.58h-1.5s.02-7.02.02-7.02h1.5s-.02,7.02-.02,7.02ZM172.7,99.54h-1.5s.02-7.02.02-7.02h1.5s-.02,7.02-.02,7.02Z"/>
    <rect x="169.25" y="458.5" width="3.5" height="1.5" transform="translate(-288.69 629.06) rotate(-89.85)"/>
  </g>
  <g>
    <rect x="44.75" y="45.5" width="1.5" height="3.5"/>
    <path d="M46.25,448.12h-1.5v-6.88h1.5v6.88ZM46.25,434.36h-1.5v-6.88h1.5v6.88ZM46.25,420.59h-1.5v-6.88h1.5v6.88ZM46.25,406.83h-1.5v-6.88h1.5v6.88ZM46.25,393.07h-1.5v-6.88h1.5v6.88ZM46.25,379.3h-1.5v-6.88h1.5v6.88ZM46.25,365.54h-1.5v-6.88h1.5v6.88ZM46.25,351.78h-1.5v-6.88h1.5v6.88ZM46.25,338.02h-1.5v-6.88h1.5v6.88ZM46.25,324.25h-1.5v-6.88h1.5v6.88ZM46.25,310.49h-1.5v-6.88h1.5v6.88ZM46.25,296.73h-1.5v-6.88h1.5v6.88ZM46.25,282.97h-1.5v-6.88h1.5v6.88ZM46.25,269.2h-1.5v-6.88h1.5v6.88ZM46.25,255.44h-1.5v-6.88h1.5v6.88ZM46.25,241.68h-1.5v-6.88h1.5v6.88ZM46.25,227.92h-1.5v-6.88h1.5v6.88ZM46.25,214.15h-1.5v-6.88h1.5v6.88ZM46.25,200.39h-1.5v-6.88h1.5v6.88ZM46.25,186.63h-1.5v-6.88h1.5v6.88ZM46.25,172.86h-1.5v-6.88h1.5v6.88ZM46.25,159.1h-1.5v-6.88h1.5v6.88ZM46.25,145.34h-1.5v-6.88h1.5v6.88ZM46.25,131.58h-1.5v-6.88h1.5v6.88ZM46.25,117.81h-1.5v-6.88h1.5v6.88ZM46.25,104.05h-1.5v-6.88h1.5v6.88ZM46.25,90.29h-1.5v-6.88h1.5v6.88ZM46.25,76.53h-1.5v-6.88h1.5v6.88ZM46.25,62.76h-1.5v-6.88h1.5v6.88Z"/>
    <rect x="44.75" y="455" width="1.5" height="3.5"/>
  </g>
  <g>
    <rect x="682.75" y="82" width="1.5" height="3.5"/>
    <path d="M684.25,446.56h-1.5v-6.94h1.5v6.94ZM684.25,432.67h-1.5v-6.94h1.5v6.94ZM684.25,418.78h-1.5v-6.94h1.5v6.94ZM684.25,404.9h-1.5v-6.94h1.5v6.94ZM684.25,391.01h-1.5v-6.94h1.5v6.94ZM684.25,377.12h-1.5v-6.94h1.5v6.94ZM684.25,363.24h-1.5v-6.94h1.5v6.94ZM684.25,349.35h-1.5v-6.94h1.5v6.94ZM684.25,335.46h-1.5v-6.94h1.5v6.94ZM684.25,321.58h-1.5v-6.94h1.5v6.94ZM684.25,307.69h-1.5v-6.94h1.5v6.94ZM684.25,293.8h-1.5v-6.94h1.5v6.94ZM684.25,279.92h-1.5v-6.94h1.5v6.94ZM684.25,266.03h-1.5v-6.94h1.5v6.94ZM684.25,252.14h-1.5v-6.94h1.5v6.94ZM684.25,238.25h-1.5v-6.94h1.5v6.94ZM684.25,224.37h-1.5v-6.94h1.5v6.94ZM684.25,210.48h-1.5v-6.94h1.5v6.94ZM684.25,196.59h-1.5v-6.94h1.5v6.94ZM684.25,182.71h-1.5v-6.94h1.5v6.94ZM684.25,168.82h-1.5v-6.94h1.5v6.94ZM684.25,154.93h-1.5v-6.94h1.5v6.94ZM684.25,141.05h-1.5v-6.94h1.5v6.94ZM684.25,127.16h-1.5v-6.94h1.5v6.94ZM684.25,113.27h-1.5v-6.94h1.5v6.94ZM684.25,99.39h-1.5v-6.94h1.5v6.94Z"/>
    <rect x="682.75" y="453.5" width="1.5" height="3.5"/>
  </g>
  <g>
    <rect x="808.75" y="44.5" width="1.5" height="3.5"/>
    <path d="M810.25,451.54h-1.5v-6.96h1.5v6.96ZM810.25,437.63h-1.5v-6.96h1.5v6.96ZM810.25,423.71h-1.5v-6.96h1.5v6.96ZM810.25,409.8h-1.5v-6.96h1.5v6.96ZM810.25,395.88h-1.5v-6.96h1.5v6.96ZM810.25,381.97h-1.5v-6.96h1.5v6.96ZM810.25,368.05h-1.5v-6.96h1.5v6.96ZM810.25,354.14h-1.5v-6.96h1.5v6.96ZM810.25,340.22h-1.5v-6.96h1.5v6.96ZM810.25,326.31h-1.5v-6.96h1.5v6.96ZM810.25,312.39h-1.5v-6.96h1.5v6.96ZM810.25,298.47h-1.5v-6.96h1.5v6.96ZM810.25,284.56h-1.5v-6.96h1.5v6.96ZM810.25,270.64h-1.5v-6.96h1.5v6.96ZM810.25,256.73h-1.5v-6.96h1.5v6.96ZM810.25,242.81h-1.5v-6.96h1.5v6.96ZM810.25,228.9h-1.5v-6.96h1.5v6.96ZM810.25,214.98h-1.5v-6.96h1.5v6.96ZM810.25,201.07h-1.5v-6.96h1.5v6.96ZM810.25,187.15h-1.5v-6.96h1.5v6.96ZM810.25,173.24h-1.5v-6.96h1.5v6.96ZM810.25,159.32h-1.5v-6.96h1.5v6.96ZM810.25,145.41h-1.5v-6.96h1.5v6.96ZM810.25,131.49h-1.5v-6.96h1.5v6.96ZM810.25,117.58h-1.5v-6.96h1.5v6.96ZM810.25,103.66h-1.5v-6.96h1.5v6.96ZM810.25,89.75h-1.5v-6.96h1.5v6.96ZM810.25,75.83h-1.5v-6.96h1.5v6.96ZM810.25,61.92h-1.5v-6.96h1.5v6.96Z"/>
    <rect x="808.75" y="458.5" width="1.5" height="3.5"/>
  </g>
  <g>
    <rect x="299.75" y="116.5" width="1.5" height="3.5"/>
    <path d="M301.25,445.42h-1.5v-7.07h1.5v7.07ZM301.25,431.28h-1.5v-7.07h1.5v7.07ZM301.25,417.13h-1.5v-7.07h1.5v7.07ZM301.25,402.98h-1.5v-7.07h1.5v7.07ZM301.25,388.83h-1.5v-7.07h1.5v7.07ZM301.25,374.68h-1.5v-7.07h1.5v7.07ZM301.25,360.53h-1.5v-7.07h1.5v7.07ZM301.25,346.38h-1.5v-7.07h1.5v7.07ZM301.25,332.23h-1.5v-7.07h1.5v7.07ZM301.25,318.08h-1.5v-7.07h1.5v7.07ZM301.25,303.94h-1.5v-7.07h1.5v7.07ZM301.25,289.79h-1.5v-7.07h1.5v7.07ZM301.25,275.64h-1.5v-7.07h1.5v7.07ZM301.25,261.49h-1.5v-7.07h1.5v7.07ZM301.25,247.34h-1.5v-7.07h1.5v7.07ZM301.25,233.19h-1.5v-7.07h1.5v7.07ZM301.25,219.04h-1.5v-7.07h1.5v7.07ZM301.25,204.89h-1.5v-7.07h1.5v7.07ZM301.25,190.74h-1.5v-7.07h1.5v7.07ZM301.25,176.6h-1.5v-7.07h1.5v7.07ZM301.25,162.45h-1.5v-7.07h1.5v7.07ZM301.25,148.3h-1.5v-7.07h1.5v7.07ZM301.25,134.15h-1.5v-7.07h1.5v7.07Z"/>
    <rect x="299.75" y="452.5" width="1.5" height="3.5"/>
  </g>
  <rect class="cls-6" x="426.5" y="168" width="4" height="293.5"/>
  <rect class="cls-6" x="44" y="458.5" width="766" height="5"/>
  <text class="cls-2" transform="translate(394.85 53.18)"><tspan x="0" y="0">99,7 %</tspan></text>
  <text class="cls-2" transform="translate(403.79 88.18)"><tspan x="0" y="0">95 %</tspan></text>
  <text class="cls-2" transform="translate(403.79 123.18)"><tspan x="0" y="0">68 %</tspan></text>
  <text class="cls-1" transform="translate(342.79 299.18)"><tspan x="0" y="0">34 %</tspan></text>
  <text class="cls-2" transform="translate(203.85 299.18)"><tspan x="0" y="0">13.5 %</tspan></text>
  <text class="cls-2" transform="translate(79.85 299.18)"><tspan x="0" y="0">2.35 %</tspan></text>
  <text class="cls-2" transform="translate(714.85 299.18)"><tspan x="0" y="0">2.35 %</tspan></text>
  <text class="cls-2" transform="translate(589.68 299.18)"><tspan x="0" y="0">13.5%</tspan></text>
  <text class="cls-1" transform="translate(466.79 299.18)"><tspan x="0" y="0">34 %</tspan></text>
  <text class="cls-3" transform="translate(421.15 493.18)"><tspan x="0" y="0">μ</tspan></text>
  <text class="cls-3" transform="translate(527.06 493.18)"><tspan x="0" y="0">μ + σ</tspan></text>
  <text class="cls-3" transform="translate(658.08 493.18)"><tspan x="0" y="0">μ + 2σ</tspan></text>
  <text class="cls-3" transform="translate(783.08 493.18)"><tspan x="0" y="0">μ + 3σ</tspan></text>
  <text class="cls-3" transform="translate(19.85 493.18)"><tspan x="0" y="0">μ - 3σ</tspan></text>
  <text class="cls-3" transform="translate(150.85 493.18)"><tspan x="0" y="0">μ - 2σ</tspan></text>
  <text class="cls-3" transform="translate(280.84 493.18)"><tspan x="0" y="0">μ - σ</tspan></text>
  <g>
    <rect x="553.75" y="117" width="1.5" height="3.5"/>
    <path d="M555.25,446.42h-1.5v-7.08h1.5v7.08ZM555.25,432.25h-1.5v-7.09h1.5v7.09ZM555.25,418.07h-1.5v-7.08h1.5v7.08ZM555.25,403.9h-1.5v-7.08h1.5v7.08ZM555.25,389.73h-1.5v-7.09h1.5v7.09ZM555.25,375.56h-1.5v-7.08h1.5v7.08ZM555.25,361.39h-1.5v-7.08h1.5v7.08ZM555.25,347.22h-1.5v-7.08h1.5v7.08ZM555.25,333.05h-1.5v-7.09h1.5v7.09ZM555.25,318.88h-1.5v-7.08h1.5v7.08ZM555.25,304.71h-1.5v-7.09h1.5v7.09ZM555.25,290.54h-1.5v-7.08h1.5v7.08ZM555.25,276.37h-1.5v-7.08h1.5v7.08ZM555.25,262.2h-1.5v-7.09h1.5v7.09ZM555.25,248.03h-1.5v-7.08h1.5v7.08ZM555.25,233.86h-1.5v-7.08h1.5v7.08ZM555.25,219.69h-1.5v-7.08h1.5v7.08ZM555.25,205.52h-1.5v-7.08h1.5v7.08ZM555.25,191.35h-1.5v-7.09h1.5v7.09ZM555.25,177.18h-1.5v-7.08h1.5v7.08ZM555.25,163.01h-1.5v-7.08h1.5v7.08ZM555.25,148.84h-1.5v-7.08h1.5v7.08ZM555.25,134.67h-1.5v-7.08h1.5v7.08Z"/>
    <rect x="553.75" y="453.5" width="1.5" height="3.5"/>
  </g>
</svg>