<?xml version="1.0" encoding="UTF-8"?>
<svg id="Ebene_1" data-name="Ebene 1" xmlns="http://www.w3.org/2000/svg" viewBox="0 0 1197.64 392">
  <defs>
    <style>
      .cls-1 {
        fill: #fbf2d8;
      }

      .cls-2 {
        letter-spacing: -.03em;
      }

      .cls-3 {
        font-family: CMUBright-SemiBoldOblique, 'CMU Bright';
        font-size: 40px;
        font-style: oblique;
        font-weight: 600;
      }
    </style>
  </defs>
  <rect class="cls-1" width="1197.64" height="392"/>
  <path d="M358.25,104h-51.34v-51.34h51.34v51.34ZM309.91,101h45.34v-45.34h-45.34v45.34Z"/>
  <path d="M406.25,104h-51.34v-51.34h51.34v51.34ZM357.91,101h45.34v-45.34h-45.34v45.34Z"/>
  <path d="M455.25,104h-51.34v-51.34h51.34v51.34ZM406.91,101h45.34v-45.34h-45.34v45.34Z"/>
  <path d="M503.25,104h-51.34v-51.34h51.34v51.34ZM454.91,101h45.34v-45.34h-45.34v45.34Z"/>
  <path d="M358.25,152h-51.34v-51.34h51.34v51.34ZM309.91,149h45.34v-45.34h-45.34v45.34Z"/>
  <path d="M406.25,152h-51.34v-51.34h51.34v51.34ZM357.91,149h45.34v-45.34h-45.34v45.34Z"/>
  <path d="M455.25,152h-51.34v-51.34h51.34v51.34ZM406.91,149h45.34v-45.34h-45.34v45.34Z"/>
  <path d="M503.25,152h-51.34v-51.34h51.34v51.34ZM454.91,149h45.34v-45.34h-45.34v45.34Z"/>
  <path d="M358.25,200h-51.34v-51.34h51.34v51.34ZM309.91,197h45.34v-45.34h-45.34v45.34Z"/>
  <path d="M406.25,200h-51.34v-51.34h51.34v51.34ZM357.91,197h45.34v-45.34h-45.34v45.34Z"/>
  <path d="M455.25,200h-51.34v-51.34h51.34v51.34ZM406.91,197h45.34v-45.34h-45.34v45.34Z"/>
  <path d="M503.25,200h-51.34v-51.34h51.34v51.34ZM454.91,197h45.34v-45.34h-45.34v45.34Z"/>
  <path d="M358.25,248h-51.34v-51.34h51.34v51.34ZM309.91,245h45.34v-45.34h-45.34v45.34Z"/>
  <path d="M406.25,248h-51.34v-51.34h51.34v51.34ZM357.91,245h45.34v-45.34h-45.34v45.34Z"/>
  <path d="M455.25,248h-51.34v-51.34h51.34v51.34ZM406.91,245h45.34v-45.34h-45.34v45.34Z"/>
  <path d="M503.25,248h-51.34v-51.34h51.34v51.34ZM454.91,245h45.34v-45.34h-45.34v45.34Z"/>
  <path d="M652.25,166h-51.34v-51.34h51.34v51.34ZM603.91,163h45.34v-45.34h-45.34v45.34Z"/>
  <path d="M700.25,166h-51.34v-51.34h51.34v51.34ZM651.91,163h45.34v-45.34h-45.34v45.34Z"/>
  <path d="M749.25,166h-51.34v-51.34h51.34v51.34ZM700.91,163h45.34v-45.34h-45.34v45.34Z"/>
  <path d="M797.25,166h-51.34v-51.34h51.34v51.34ZM748.91,163h45.34v-45.34h-45.34v45.34Z"/>
  <path d="M652.25,214h-51.34v-51.34h51.34v51.34ZM603.91,211h45.34v-45.34h-45.34v45.34Z"/>
  <path d="M700.25,214h-51.34v-51.34h51.34v51.34ZM651.91,211h45.34v-45.34h-45.34v45.34Z"/>
  <path d="M749.25,214h-51.34v-51.34h51.34v51.34ZM700.91,211h45.34v-45.34h-45.34v45.34Z"/>
  <path d="M797.25,214h-51.34v-51.34h51.34v51.34ZM748.91,211h45.34v-45.34h-45.34v45.34Z"/>
  <path d="M652.25,262h-51.34v-51.34h51.34v51.34ZM603.91,259h45.34v-45.34h-45.34v45.34Z"/>
  <path d="M700.25,262h-51.34v-51.34h51.34v51.34ZM651.91,259h45.34v-45.34h-45.34v45.34Z"/>
  <path d="M749.25,262h-51.34v-51.34h51.34v51.34ZM700.91,259h45.34v-45.34h-45.34v45.34Z"/>
  <path d="M797.25,262h-51.34v-51.34h51.34v51.34ZM748.91,259h45.34v-45.34h-45.34v45.34Z"/>
  <path d="M652.25,310h-51.34v-51.34h51.34v51.34ZM603.91,307h45.34v-45.34h-45.34v45.34Z"/>
  <path d="M700.25,310h-51.34v-51.34h51.34v51.34ZM651.91,307h45.34v-45.34h-45.34v45.34Z"/>
  <path d="M749.25,310h-51.34v-51.34h51.34v51.34ZM700.91,307h45.34v-45.34h-45.34v45.34Z"/>
  <path d="M797.25,310h-51.34v-51.34h51.34v51.34ZM748.91,307h45.34v-45.34h-45.34v45.34Z"/>
  <path d="M845.25,166h-51.34v-51.34h51.34v51.34ZM796.91,163h45.34v-45.34h-45.34v45.34Z"/>
  <path d="M893.25,166h-51.34v-51.34h51.34v51.34ZM844.91,163h45.34v-45.34h-45.34v45.34Z"/>
  <path d="M845.25,214h-51.34v-51.34h51.34v51.34ZM796.91,211h45.34v-45.34h-45.34v45.34Z"/>
  <path d="M893.25,214h-51.34v-51.34h51.34v51.34ZM844.91,211h45.34v-45.34h-45.34v45.34Z"/>
  <path d="M845.25,262h-51.34v-51.34h51.34v51.34ZM796.91,259h45.34v-45.34h-45.34v45.34Z"/>
  <path d="M893.25,262h-51.34v-51.34h51.34v51.34ZM844.91,259h45.34v-45.34h-45.34v45.34Z"/>
  <path d="M845.25,310h-51.34v-51.34h51.34v51.34ZM796.91,307h45.34v-45.34h-45.34v45.34Z"/>
  <path d="M893.25,310h-51.34v-51.34h51.34v51.34ZM844.91,307h45.34v-45.34h-45.34v45.34Z"/>
  <path d="M358.25,296h-51.34v-51.34h51.34v51.34ZM309.91,293h45.34v-45.34h-45.34v45.34Z"/>
  <path d="M406.25,296h-51.34v-51.34h51.34v51.34ZM357.91,293h45.34v-45.34h-45.34v45.34Z"/>
  <path d="M455.25,296h-51.34v-51.34h51.34v51.34ZM406.91,293h45.34v-45.34h-45.34v45.34Z"/>
  <path d="M503.25,296h-51.34v-51.34h51.34v51.34ZM454.91,293h45.34v-45.34h-45.34v45.34Z"/>
  <path d="M358.25,344h-51.34v-51.34h51.34v51.34ZM309.91,341h45.34v-45.34h-45.34v45.34Z"/>
  <path d="M406.25,344h-51.34v-51.34h51.34v51.34ZM357.91,341h45.34v-45.34h-45.34v45.34Z"/>
  <path d="M455.25,344h-51.34v-51.34h51.34v51.34ZM406.91,341h45.34v-45.34h-45.34v45.34Z"/>
  <path d="M503.25,344h-51.34v-51.34h51.34v51.34ZM454.91,341h45.34v-45.34h-45.34v45.34Z"/>
  <text class="cls-3" transform="translate(44.76 207.18)"><tspan class="cls-2" x="0" y="0">b</tspan><tspan x="19.51" y="0">reite x höhe</tspan><tspan x="67.15" y="48">4 x 6</tspan></text>
  <text class="cls-3" transform="translate(928.76 207.18)"><tspan class="cls-2" x="0" y="0">b</tspan><tspan x="19.51" y="0">reite x höhe</tspan><tspan x="67.15" y="48">6 x 4</tspan></text>
</svg>