<?xml version="1.0" encoding="UTF-8"?>
<svg id="Ebene_1" data-name="Ebene 1" xmlns="http://www.w3.org/2000/svg" viewBox="0 0 1020 615.95">
  <defs>
    <style>
      .cls-1 {
        fill: #48a346;
      }

      .cls-2 {
        fill: #7e4c8d;
      }

      .cls-3 {
        fill: #c23bb7;
      }

      .cls-4 {
        fill: #299c9f;
      }

      .cls-5 {
        fill: #c03b2d;
      }

      .cls-6 {
        fill: #f0c34e;
      }

      .cls-7 {
        fill: #dd8d41;
      }

      .cls-8 {
        font-family: CMUSerif-BoldItalic, 'CMU Serif';
        font-size: 30px;
        font-style: italic;
        font-weight: 700;
      }

      .cls-9 {
        fill: #fbf2d8;
      }

      .cls-10 {
        fill: #30628b;
      }
    </style>
  </defs>
  <rect class="cls-9" width="1020" height="615.95"/>
  <rect class="cls-3" x="42.21" y="32.95" width="59.59" height="59.59"/>
  <rect class="cls-3" x="245.21" y="32.95" width="729.79" height="59.59"/>
  <rect class="cls-10" x="245.21" y="104.95" width="729.79" height="59.59"/>
  <rect class="cls-5" x="245.21" y="176.95" width="729.79" height="59.59"/>
  <rect class="cls-6" x="245.21" y="249.95" width="729.79" height="59.59"/>
  <rect class="cls-7" x="245.21" y="321.95" width="729.79" height="59.59"/>
  <rect class="cls-1" x="245.21" y="393.95" width="729.79" height="59.59"/>
  <rect class="cls-2" x="245.21" y="465.95" width="729.79" height="59.59"/>
  <rect class="cls-4" x="245.21" y="537.95" width="729.79" height="59.59"/>
  <rect class="cls-10" x="42.21" y="105.08" width="59.59" height="59.59"/>
  <rect class="cls-5" x="42.21" y="177.22" width="59.59" height="59.59"/>
  <rect class="cls-6" x="42.21" y="249.36" width="59.59" height="59.59"/>
  <rect class="cls-7" x="42.21" y="321.5" width="59.59" height="59.59"/>
  <rect class="cls-1" x="42.21" y="393.64" width="59.59" height="59.59"/>
  <rect class="cls-2" x="42.21" y="465.78" width="59.59" height="59.59"/>
  <rect class="cls-4" x="42.21" y="537.92" width="59.59" height="59.59"/>
  <text class="cls-8" transform="translate(134.74 73.87)"><tspan x="0" y="0">wenn</tspan></text>
  <text class="cls-8" transform="translate(134.74 145.87)"><tspan x="0" y="0">wenn</tspan></text>
  <text class="cls-8" transform="translate(134.74 212.87)"><tspan x="0" y="0">wenn</tspan></text>
  <text class="cls-8" transform="translate(133.24 286.37)"><tspan x="0" y="0">wenn</tspan></text>
  <text class="cls-8" transform="translate(134.74 359.87)"><tspan x="0" y="0">wenn</tspan></text>
  <text class="cls-8" transform="translate(134.74 431.87)"><tspan x="0" y="0">wenn</tspan></text>
  <text class="cls-8" transform="translate(134.74 498.87)"><tspan x="0" y="0">wenn</tspan></text>
  <text class="cls-8" transform="translate(133.24 572.37)"><tspan x="0" y="0">wenn</tspan></text>
</svg>