<?xml version="1.0" encoding="UTF-8"?>
<svg id="Ebene_1" data-name="Ebene 1" xmlns="http://www.w3.org/2000/svg" viewBox="0 0 1020 615.95">
  <defs>
    <style>
      .cls-1, .cls-2, .cls-3 {
        fill: #48a346;
      }

      .cls-2, .cls-4, .cls-5, .cls-3, .cls-6, .cls-7 {
        font-weight: 700;
      }

      .cls-2, .cls-5 {
        font-family: CMUSerif-Bold, 'CMU Serif';
      }

      .cls-2, .cls-5, .cls-3 {
        font-size: 30px;
      }

      .cls-4 {
        font-family: CMUSerif-BoldSlanted, 'CMU Serif Extra';
        font-style: oblique;
      }

      .cls-4, .cls-7 {
        font-size: 56.6px;
      }

      .cls-5, .cls-8 {
        fill: #c03b2d;
      }

      .cls-9 {
        fill: #f0c34e;
      }

      .cls-3, .cls-6, .cls-7 {
        font-family: CMUSerif-BoldItalic, 'CMU Serif';
        font-style: italic;
      }

      .cls-6 {
        font-size: 40px;
      }

      .cls-10 {
        fill: #fbf2d8;
      }
    </style>
  </defs>
  <rect class="cls-10" width="1020" height="615.95"/>
  <g>
    <rect class="cls-9" x="333.31" y="47.68" width="54.53" height="54.53"/>
    <path d="M389.4,103.77h-57.64v-57.64h57.64v57.64ZM334.86,100.66h51.43v-51.43h-51.43v51.43Z"/>
  </g>
  <g>
    <rect class="cls-9" x="388.5" y="47.68" width="54.53" height="54.53"/>
    <path d="M444.58,103.77h-57.64v-57.64h57.64v57.64ZM390.05,100.66h51.43v-51.43h-51.43v51.43Z"/>
  </g>
  <g>
    <rect class="cls-9" x="443.68" y="47.68" width="54.53" height="54.53"/>
    <path d="M499.77,103.77h-57.64v-57.64h57.64v57.64ZM445.24,100.66h51.43v-51.43h-51.43v51.43Z"/>
  </g>
  <g>
    <rect class="cls-9" x="498.87" y="47.68" width="54.53" height="54.53"/>
    <path d="M554.96,103.77h-57.64v-57.64h57.64v57.64ZM500.42,100.66h51.43v-51.43h-51.43v51.43Z"/>
  </g>
  <g>
    <rect class="cls-9" x="554.06" y="47.68" width="54.53" height="54.53"/>
    <path d="M610.15,103.77h-57.64v-57.64h57.64v57.64ZM555.61,100.66h51.43v-51.43h-51.43v51.43Z"/>
  </g>
  <g>
    <rect class="cls-9" x="609.25" y="47.68" width="54.53" height="54.53"/>
    <path d="M665.33,103.77h-57.64v-57.64h57.64v57.64ZM610.8,100.66h51.43v-51.43h-51.43v51.43Z"/>
  </g>
  <g>
    <rect class="cls-9" x="333.31" y="101.45" width="54.53" height="54.53"/>
    <path d="M389.4,157.54h-57.64v-57.64h57.64v57.64ZM334.86,154.43h51.43v-51.43h-51.43v51.43Z"/>
  </g>
  <g>
    <rect class="cls-9" x="388.5" y="101.45" width="54.53" height="54.53"/>
    <path d="M444.58,157.54h-57.64v-57.64h57.64v57.64ZM390.05,154.43h51.43v-51.43h-51.43v51.43Z"/>
  </g>
  <g>
    <rect class="cls-9" x="443.68" y="101.45" width="54.53" height="54.53"/>
    <path d="M499.77,157.54h-57.64v-57.64h57.64v57.64ZM445.24,154.43h51.43v-51.43h-51.43v51.43Z"/>
  </g>
  <g>
    <rect class="cls-9" x="498.87" y="101.45" width="54.53" height="54.53"/>
    <path d="M554.96,157.54h-57.64v-57.64h57.64v57.64ZM500.42,154.43h51.43v-51.43h-51.43v51.43Z"/>
  </g>
  <g>
    <rect class="cls-9" x="554.06" y="101.45" width="54.53" height="54.53"/>
    <path d="M610.15,157.54h-57.64v-57.64h57.64v57.64ZM555.61,154.43h51.43v-51.43h-51.43v51.43Z"/>
  </g>
  <g>
    <rect class="cls-9" x="609.25" y="101.45" width="54.53" height="54.53"/>
    <path d="M665.33,157.54h-57.64v-57.64h57.64v57.64ZM610.8,154.43h51.43v-51.43h-51.43v51.43Z"/>
  </g>
  <g>
    <rect class="cls-9" x="333.31" y="156.64" width="54.53" height="54.53"/>
    <path d="M389.4,212.73h-57.64v-57.64h57.64v57.64ZM334.86,209.62h51.43v-51.43h-51.43v51.43Z"/>
  </g>
  <g>
    <rect class="cls-9" x="388.5" y="156.64" width="54.53" height="54.53"/>
    <path d="M444.58,212.73h-57.64v-57.64h57.64v57.64ZM390.05,209.62h51.43v-51.43h-51.43v51.43Z"/>
  </g>
  <g>
    <rect class="cls-9" x="443.68" y="156.64" width="54.53" height="54.53"/>
    <path d="M499.77,212.73h-57.64v-57.64h57.64v57.64ZM445.24,209.62h51.43v-51.43h-51.43v51.43Z"/>
  </g>
  <g>
    <rect class="cls-9" x="498.87" y="156.64" width="54.53" height="54.53"/>
    <path d="M554.96,212.73h-57.64v-57.64h57.64v57.64ZM500.42,209.62h51.43v-51.43h-51.43v51.43Z"/>
  </g>
  <g>
    <rect class="cls-9" x="554.06" y="156.64" width="54.53" height="54.53"/>
    <path d="M610.15,212.73h-57.64v-57.64h57.64v57.64ZM555.61,209.62h51.43v-51.43h-51.43v51.43Z"/>
  </g>
  <g>
    <rect class="cls-9" x="609.25" y="156.64" width="54.53" height="54.53"/>
    <path d="M665.33,212.73h-57.64v-57.64h57.64v57.64ZM610.8,209.62h51.43v-51.43h-51.43v51.43Z"/>
  </g>
  <g>
    <rect class="cls-9" x="333.31" y="210.41" width="54.53" height="54.53"/>
    <path d="M389.4,266.5h-57.64v-57.64h57.64v57.64ZM334.86,263.39h51.43v-51.43h-51.43v51.43Z"/>
  </g>
  <g>
    <rect class="cls-9" x="388.5" y="210.41" width="54.53" height="54.53"/>
    <path d="M444.58,266.5h-57.64v-57.64h57.64v57.64ZM390.05,263.39h51.43v-51.43h-51.43v51.43Z"/>
  </g>
  <g>
    <rect class="cls-9" x="443.68" y="210.41" width="54.53" height="54.53"/>
    <path d="M499.77,266.5h-57.64v-57.64h57.64v57.64ZM445.24,263.39h51.43v-51.43h-51.43v51.43Z"/>
  </g>
  <g>
    <rect class="cls-9" x="498.87" y="210.41" width="54.53" height="54.53"/>
    <path d="M554.96,266.5h-57.64v-57.64h57.64v57.64ZM500.42,263.39h51.43v-51.43h-51.43v51.43Z"/>
  </g>
  <g>
    <rect class="cls-9" x="554.06" y="210.41" width="54.53" height="54.53"/>
    <path d="M610.15,266.5h-57.64v-57.64h57.64v57.64ZM555.61,263.39h51.43v-51.43h-51.43v51.43Z"/>
  </g>
  <g>
    <rect class="cls-9" x="609.25" y="210.41" width="54.53" height="54.53"/>
    <path d="M665.33,266.5h-57.64v-57.64h57.64v57.64ZM610.8,263.39h51.43v-51.43h-51.43v51.43Z"/>
  </g>
  <g>
    <rect class="cls-9" x="333.31" y="265.41" width="54.53" height="54.53"/>
    <path d="M389.4,321.5h-57.64v-57.64h57.64v57.64ZM334.86,318.39h51.43v-51.43h-51.43v51.43Z"/>
  </g>
  <g>
    <rect class="cls-9" x="388.5" y="265.41" width="54.53" height="54.53"/>
    <path d="M444.58,321.5h-57.64v-57.64h57.64v57.64ZM390.05,318.39h51.43v-51.43h-51.43v51.43Z"/>
  </g>
  <g>
    <rect class="cls-9" x="222.31" y="47.68" width="54.53" height="54.53"/>
    <path d="M278.4,103.77h-57.64v-57.64h57.64v57.64ZM223.86,100.66h51.43v-51.43h-51.43v51.43Z"/>
  </g>
  <g>
    <rect class="cls-9" x="277.5" y="47.68" width="54.53" height="54.53"/>
    <path d="M333.58,103.77h-57.64v-57.64h57.64v57.64ZM279.05,100.66h51.43v-51.43h-51.43v51.43Z"/>
  </g>
  <g>
    <rect class="cls-9" x="222.31" y="101.45" width="54.53" height="54.53"/>
    <path d="M278.4,157.54h-57.64v-57.64h57.64v57.64ZM223.86,154.43h51.43v-51.43h-51.43v51.43Z"/>
  </g>
  <g>
    <rect class="cls-9" x="277.5" y="101.45" width="54.53" height="54.53"/>
    <path d="M333.58,157.54h-57.64v-57.64h57.64v57.64ZM279.05,154.43h51.43v-51.43h-51.43v51.43Z"/>
  </g>
  <g>
    <rect class="cls-9" x="222.31" y="156.64" width="54.53" height="54.53"/>
    <path d="M278.4,212.73h-57.64v-57.64h57.64v57.64ZM223.86,209.62h51.43v-51.43h-51.43v51.43Z"/>
  </g>
  <g>
    <rect class="cls-9" x="277.5" y="156.64" width="54.53" height="54.53"/>
    <path d="M333.58,212.73h-57.64v-57.64h57.64v57.64ZM279.05,209.62h51.43v-51.43h-51.43v51.43Z"/>
  </g>
  <g>
    <rect class="cls-9" x="222.31" y="210.41" width="54.53" height="54.53"/>
    <path d="M278.4,266.5h-57.64v-57.64h57.64v57.64ZM223.86,263.39h51.43v-51.43h-51.43v51.43Z"/>
  </g>
  <g>
    <rect class="cls-9" x="277.5" y="210.41" width="54.53" height="54.53"/>
    <path d="M333.58,266.5h-57.64v-57.64h57.64v57.64ZM279.05,263.39h51.43v-51.43h-51.43v51.43Z"/>
  </g>
  <g>
    <rect class="cls-9" x="222.31" y="265.41" width="54.53" height="54.53"/>
    <path d="M278.4,321.5h-57.64v-57.64h57.64v57.64ZM223.86,318.39h51.43v-51.43h-51.43v51.43Z"/>
  </g>
  <g>
    <rect class="cls-9" x="277.5" y="265.41" width="54.53" height="54.53"/>
    <path d="M333.58,321.5h-57.64v-57.64h57.64v57.64ZM279.05,318.39h51.43v-51.43h-51.43v51.43Z"/>
  </g>
  <g>
    <rect class="cls-9" x="443.68" y="265.41" width="54.53" height="54.53"/>
    <path d="M499.77,321.5h-57.64v-57.64h57.64v57.64ZM445.24,318.39h51.43v-51.43h-51.43v51.43Z"/>
  </g>
  <g>
    <rect class="cls-9" x="498.87" y="265.41" width="54.53" height="54.53"/>
    <path d="M554.96,321.5h-57.64v-57.64h57.64v57.64ZM500.42,318.39h51.43v-51.43h-51.43v51.43Z"/>
  </g>
  <g>
    <rect class="cls-9" x="554.06" y="265.41" width="54.53" height="54.53"/>
    <path d="M610.15,321.5h-57.64v-57.64h57.64v57.64ZM555.61,318.39h51.43v-51.43h-51.43v51.43Z"/>
  </g>
  <g>
    <rect class="cls-9" x="609.25" y="265.41" width="54.53" height="54.53"/>
    <path d="M665.33,321.5h-57.64v-57.64h57.64v57.64ZM610.8,318.39h51.43v-51.43h-51.43v51.43Z"/>
  </g>
  <g>
    <rect class="cls-9" x="664.25" y="47.68" width="54.53" height="54.53"/>
    <path d="M720.33,103.77h-57.64v-57.64h57.64v57.64ZM665.8,100.66h51.43v-51.43h-51.43v51.43Z"/>
  </g>
  <g>
    <rect class="cls-9" x="664.25" y="101.45" width="54.53" height="54.53"/>
    <path d="M720.33,157.54h-57.64v-57.64h57.64v57.64ZM665.8,154.43h51.43v-51.43h-51.43v51.43Z"/>
  </g>
  <g>
    <rect class="cls-9" x="664.25" y="156.64" width="54.53" height="54.53"/>
    <path d="M720.33,212.73h-57.64v-57.64h57.64v57.64ZM665.8,209.62h51.43v-51.43h-51.43v51.43Z"/>
  </g>
  <g>
    <rect class="cls-9" x="664.25" y="210.41" width="54.53" height="54.53"/>
    <path d="M720.33,266.5h-57.64v-57.64h57.64v57.64ZM665.8,263.39h51.43v-51.43h-51.43v51.43Z"/>
  </g>
  <g>
    <rect class="cls-9" x="664.25" y="265.41" width="54.53" height="54.53"/>
    <path d="M720.33,321.5h-57.64v-57.64h57.64v57.64ZM665.8,318.39h51.43v-51.43h-51.43v51.43Z"/>
  </g>
  <text class="cls-6" transform="translate(203.84 546.12)"><tspan x="0" y="0">(k+l)(m+n) = km+kn+lm+ln</tspan></text>
  <text class="cls-7" transform="translate(289.24 411.59)"><tspan x="0" y="0">k</tspan></text>
  <text class="cls-5" transform="translate(348.67 488.59)"><tspan x="0" y="0">1</tspan></text>
  <text class="cls-5" transform="translate(420.67 494.59)"><tspan x="0" y="0">2</tspan></text>
  <text class="cls-2" transform="translate(348.67 579.59)"><tspan x="0" y="0">3</tspan></text>
  <text class="cls-3" transform="translate(419.43 586.59)"><tspan x="0" y="0">4</tspan></text>
  <text class="cls-4" transform="translate(288.03 285.59)"><tspan x="0" y="0">1</tspan></text>
  <text class="cls-4" transform="translate(288.03 148.59)"><tspan x="0" y="0">2</tspan></text>
  <text class="cls-4" transform="translate(533.03 144.59)"><tspan x="0" y="0">4</tspan></text>
  <text class="cls-4" transform="translate(536.03 285.59)"><tspan x="0" y="0">3</tspan></text>
  <text class="cls-7" transform="translate(546.89 411.59)"><tspan x="0" y="0">l</tspan></text>
  <text class="cls-7" transform="translate(770.04 140.06)"><tspan x="0" y="0">n</tspan></text>
  <g>
    <rect x="227.34" y="354.96" width="159.91" height="3"/>
    <polygon points="237.28 368.73 239.33 366.53 228.49 356.46 239.33 346.39 237.28 344.19 224.09 356.46 237.28 368.73"/>
    <polygon points="377.31 368.73 375.26 366.53 386.1 356.46 375.26 346.39 377.31 344.19 390.5 356.46 377.31 368.73"/>
  </g>
  <g>
    <rect x="391.34" y="354.96" width="323.91" height="3"/>
    <polygon points="401.28 368.73 403.33 366.53 392.49 356.46 403.33 346.39 401.28 344.19 388.09 356.46 401.28 368.73"/>
    <polygon points="705.31 368.73 703.26 366.53 714.1 356.46 703.26 346.39 705.31 344.19 718.5 356.46 705.31 368.73"/>
  </g>
  <g>
    <rect x="750.92" y="53.37" width="3" height="154.82"/>
    <polygon points="740.15 63.31 742.35 65.36 752.41 54.52 762.49 65.36 764.68 63.31 752.41 50.12 740.15 63.31"/>
    <polygon points="740.15 198.25 742.35 196.2 752.41 207.04 762.49 196.2 764.68 198.25 752.41 211.45 740.15 198.25"/>
  </g>
  <text class="cls-7" transform="translate(771.72 267.06)"><tspan x="0" y="0">m</tspan></text>
  <g>
    <rect x="750.92" y="215.37" width="3" height="102.82"/>
    <polygon points="740.15 225.31 742.35 227.36 752.41 216.52 762.49 227.36 764.68 225.31 752.41 212.12 740.15 225.31"/>
    <polygon points="740.15 308.25 742.35 306.2 752.41 317.04 762.49 306.2 764.68 308.25 752.41 321.45 740.15 308.25"/>
  </g>
  <path d="M383,56.95v146h-153V56.95h153M392,47.95h-171v164h171V47.95h0Z"/>
  <path d="M383,212.95v100h-153v-100h153M392,203.95h-171v118h171v-118h0Z"/>
  <path d="M711,56.95v146h-319V56.95h319M720,47.95h-337v164h337V47.95h0Z"/>
  <path d="M711,212.95v100h-319v-100h319M720,203.95h-337v118h337v-118h0Z"/>
  <g>
    <path class="cls-8" d="M350.43,507.85c-.43,0-.83-.29-.96-.72-7.35-25.47-30.38-43.18-56.09-43.18-.13,0-.25,0-.38,0-23.64.16-45.37,15.58-54.07,38.36-.2.52-.78.78-1.29.58-.52-.2-.77-.78-.58-1.29,8.99-23.55,31.47-39.48,55.93-39.64.13,0,.26,0,.39,0,26.6,0,50.41,18.3,58.01,44.63.15.53-.15,1.08-.68,1.24-.09.03-.19.04-.28.04Z"/>
    <polygon class="cls-8" points="340.52 503.08 341.49 501.34 350.1 506.15 354.27 497.22 356.08 498.06 351 508.95 340.52 503.08"/>
  </g>
  <g>
    <path class="cls-8" d="M413.29,508.89c-.41,0-.8-.25-.94-.66-11.7-32.79-39.11-56.67-71.52-62.3-19.82-3.45-40.85.22-59.24,10.31-18.54,10.18-33.7,26.56-42.68,46.12-.23.5-.82.72-1.33.49-.5-.23-.72-.82-.49-1.33,9.16-19.95,24.62-36.66,43.54-47.04,18.78-10.31,40.28-14.05,60.54-10.52,33.12,5.76,61.12,30.13,73.06,63.6.19.52-.09,1.09-.61,1.28-.11.04-.22.06-.34.06Z"/>
    <polygon class="cls-8" points="403.25 504.59 404.14 502.8 412.96 507.2 416.71 498.07 418.56 498.83 414 509.95 403.25 504.59"/>
  </g>
  <g>
    <path class="cls-1" d="M312.96,580c-.67,0-1.34-.02-2.02-.06-18.78-1.15-27.47-17.83-27.83-18.54-.25-.49-.05-1.09.44-1.34.49-.25,1.1-.05,1.34.44.08.16,8.52,16.38,26.17,17.46,11.73.71,22.86-5.27,29.03-15.62.28-.47.9-.63,1.37-.35s.63.9.35,1.37c-6.2,10.4-17.12,16.65-28.85,16.65Z"/>
    <polygon class="cls-1" points="343.99 572.79 342.02 573.12 340.39 563.4 330.81 565.74 330.33 563.79 342 560.95 343.99 572.79"/>
  </g>
  <g>
    <path class="cls-1" d="M336.14,594.42c-9.11,0-18.57-1.77-27.61-6.59-10.3-5.49-19.09-14.62-25.41-26.41-.26-.49-.08-1.09.41-1.35.49-.26,1.09-.08,1.35.41,6.13,11.44,14.64,20.29,24.59,25.59,26.88,14.31,57.89.76,71.13-5.03,9.67-4.23,18.79-9.77,27.1-16.49.43-.35,1.06-.28,1.41.15.35.43.28,1.06-.15,1.41-8.45,6.83-17.72,12.46-27.55,16.76-9.1,3.98-26.44,11.56-45.26,11.56Z"/>
    <polygon class="cls-1" points="408.12 575.81 406.15 575.5 407.69 565.76 397.86 564.93 398.03 562.94 410 563.95 408.12 575.81"/>
  </g>
</svg>