<?xml version="1.0" encoding="UTF-8"?>
<svg id="Ebene_1" data-name="Ebene 1" xmlns="http://www.w3.org/2000/svg" viewBox="0 0 910 622">
  <rect width="910" height="622" fill="#fbf2d8"/>
  <g>
    <circle cx="503.5" cy="243.5" r="87" fill="#e36a5a" stroke="#000" stroke-miterlimit="10" stroke-width="5"/>
    <path d="M485,240.27c0-6.59,2.15-12.08,6.44-16.48,3.53-3.6,7.66-5.41,12.39-5.41,2.12,0,4.16.44,6.12,1.32,1.96.88,3.92,2.35,5.88,4.42s3.54,5.27,4.75,9.62c1.21,4.35,1.81,9.59,1.81,15.71,0,9.23-2.22,16.86-6.65,22.9-4.43,6.04-9.81,9.05-16.14,9.05-4.29,0-8.28-1.38-11.96-4.13l2.78-4.88c.06.06.31.24.76.55s.75.52.89.64c.14.12.43.29.86.53.43.23.77.42,1.04.55.26.13.64.29,1.12.46s.95.31,1.41.4c.45.09.96.16,1.52.22.56.06,1.14.09,1.76.09,4.08-.06,7.48-2.01,10.19-5.84,2.71-3.84,4.31-8.96,4.78-15.38-4.2,4.98-9.28,7.47-15.23,7.47-3.88,0-7.1-1.83-9.66-5.49-3.24-4.57-4.85-10-4.85-16.3ZM492.29,240.27c0,2.75.18,5.02.55,6.79.37,1.77,1.14,3.54,2.31,5.3,1.94,2.75,4.56,4.13,7.88,4.13s6.14-1.37,8.3-4.11c2.16-2.74,3.24-6.03,3.24-9.87,0-1.03-.03-1.8-.09-2.33h.18c-.12-1.79-.36-3.51-.73-5.16-.37-1.65-.92-3.4-1.67-5.23-.75-1.83-1.84-3.29-3.28-4.37-1.44-1.08-3.13-1.63-5.06-1.63-3.11,0-5.58,1.05-7.42,3.16s-3.06,4.39-3.68,6.86c-.35,1.44-.53,3.59-.53,6.46Z"/>
  </g>
  <g>
    <circle cx="475.5" cy="388.5" r="87" fill="#b5c84b" stroke="#000" stroke-miterlimit="10" stroke-width="5"/>
    <path d="M452.36,396.05v-4.42c0-.73.34-1.65,1.01-2.76l21.75-36.37h8.31v37.97h8.88v5.58h-8.88v15.38h-7.25v-15.38h-23.82ZM459.35,390.47h17.36v-34.76c-.35,2.23-1.2,4.87-2.55,7.93-1.35,3.06-2.62,5.65-3.82,7.78-1.2,2.12-3.84,6.7-7.91,13.73-1.32,2.29-2.34,4.06-3.08,5.32Z"/>
  </g>
  <g>
    <circle cx="362.5" cy="292.5" r="87" fill="#f5b5aa" stroke="#000" stroke-miterlimit="10" stroke-width="5"/>
    <path d="M339.36,300.05v-4.42c0-.73.34-1.65,1.01-2.76l21.75-36.37h8.31v37.97h8.88v5.58h-8.88v15.38h-7.25v-15.38h-23.82ZM346.35,294.47h17.36v-34.76c-.35,2.23-1.2,4.87-2.55,7.93-1.35,3.06-2.62,5.65-3.82,7.78-1.2,2.12-3.84,6.7-7.91,13.73-1.32,2.29-2.34,4.06-3.08,5.32Z"/>
  </g>
  <g>
    <circle cx="128.55" cy="482.71" r="87" fill="#48a346" stroke="#000" stroke-miterlimit="10" stroke-width="5"/>
    <path d="M109.82,475.8c0-8.98,2.28-16.54,6.85-22.69,4.57-6.14,10.31-9.22,17.24-9.22,3.09,0,6.28.6,9.57,1.8v5.41c-3.41-1.29-6.6-1.93-9.57-1.93-3.48,0-6.51,1.22-9.08,3.65s-4.4,5.19-5.48,8.28c-1.08,3.09-1.71,6.29-1.89,9.6,1.84-2.37,4.12-4.21,6.82-5.51s5.49-1.96,8.36-1.96c3.93,0,7.17,1.84,9.73,5.52,3.17,4.47,4.76,9.8,4.76,15.97,0,6.65-2.05,12.17-6.16,16.57-3.47,3.72-7.53,5.58-12.19,5.58-1.68,0-3.31-.24-4.92-.73-1.6-.48-3.28-1.41-5.03-2.79s-3.27-3.16-4.56-5.34-2.36-5.19-3.2-9.01c-.84-3.82-1.26-8.22-1.26-13.21ZM117.56,485.07c1.14,10.81,4.85,16.22,11.14,16.22,3.04,0,5.45-1.03,7.21-3.1,1.77-2.07,2.93-4.36,3.49-6.88.29-1.32.44-3.33.44-6.02,0-5.21-.83-9.16-2.5-11.82-1.99-3.11-4.72-4.66-8.2-4.66s-6.12,1.36-8.27,4.09c-2.15,2.72-3.22,5.98-3.22,9.76,0,.53.06,1.33.18,2.42h-.26Z"/>
  </g>
  <g>
    <circle cx="346.5" cy="445.5" r="87" fill="#dd8d41" stroke="#000" stroke-miterlimit="10" stroke-width="5"/>
    <path d="M341.12,403.44h7.56l-.57,48.85h-6.28l-.62-44.27-.09-4.57ZM341.12,468.43v-8.04h7.56v8.04h-7.56Z"/>
  </g>
  <g>
    <circle cx="689.15" cy="95.87" r="87" fill="#dd8d41" stroke="#000" stroke-miterlimit="10" stroke-width="5"/>
    <path d="M673.03,57.14c4.63-3.42,9.67-5.13,15.12-5.13,3.38,0,6.29.46,8.72,1.38,2.43.92,4.23,2.17,5.41,3.74,1.18,1.57,2.02,3.11,2.54,4.64.52,1.52.77,3.14.77,4.84,0,1.25-.12,2.42-.35,3.51-.24,1.09-.54,2.01-.9,2.77-.37.76-.82,1.5-1.36,2.24-.54.74-.99,1.28-1.34,1.63-.35.35-.79.75-1.3,1.2-.51.45-.83.73-.94.85-5.48,5.28-8.23,11.8-8.26,19.55v3.57h-6.28v-2.87c0-3.45.32-6.6.96-9.45.64-2.84,1.51-5.23,2.6-7.16,1.1-1.93,2.12-3.51,3.05-4.73.94-1.22,1.98-2.38,3.14-3.48,1.16-1.1,1.86-1.77,2.1-2,1.24-1.6,1.86-3.5,1.86-5.7,0-5.95-3.47-8.93-10.41-8.93-4.81,0-9.16,1.73-13.05,5.18l-2.06-5.63ZM684.14,118.06v-8.04h7.56v8.04h-7.56Z"/>
  </g>
  <g>
    <circle cx="655.5" cy="524.5" r="87" fill="#9c9e3d" stroke="#000" stroke-miterlimit="10" stroke-width="5"/>
    <g>
      <path d="M618.45,496.81v-5.27c7.22,0,12.96-1.96,17.21-5.89h1.68v55.77h11.38v5.27h-29.66v-5.27h11.25v-46.71c-3.61,1.4-7.57,2.1-11.87,2.1Z"/>
      <path d="M659.19,518.78v-1.54c0-2.34.04-4.38.13-6.11s.37-4.02.86-6.88,1.14-5.29,1.98-7.29,2.12-3.98,3.87-5.93,3.82-3.38,6.22-4.29c1.85-.73,3.74-1.1,5.67-1.1,1.67,0,3.29.23,4.86.68s3.22,1.36,4.97,2.7c1.74,1.35,3.26,3.08,4.55,5.19,1.29,2.11,2.35,5.01,3.19,8.7s1.25,7.93,1.25,12.7v1.89c0,2.29-.04,4.33-.13,6.13-.09,1.8-.37,4.09-.86,6.86-.48,2.77-1.16,5.16-2.02,7.16-.86,2.01-2.17,3.96-3.91,5.85-1.74,1.89-3.82,3.29-6.22,4.2-1.99.67-3.88,1-5.67.97-1.67,0-3.27-.21-4.81-.64s-3.19-1.28-4.97-2.57-3.29-2.98-4.55-5.08c-1.26-2.09-2.31-5-3.14-8.72s-1.25-8.01-1.25-12.88ZM666.22,518.73c0,4.01.27,7.52.81,10.55.54,3.03,1.2,5.4,1.98,7.11.78,1.71,1.72,3.09,2.83,4.15,1.11,1.05,2.15,1.74,3.1,2.06s1.97.48,3.05.48c1.38,0,2.67-.31,3.87-.94,1.2-.63,2.43-1.73,3.69-3.31,1.26-1.58,2.26-4.1,3.01-7.55s1.12-7.66,1.12-12.63v-5.31c0-4.56-.37-8.39-1.12-11.49s-1.76-5.37-3.05-6.82c-1.29-1.45-2.53-2.44-3.74-2.98-1.2-.54-2.49-.81-3.87-.81s-2.67.27-3.87.81c-1.2.54-2.43,1.54-3.69,2.98-1.26,1.45-2.26,3.74-3.01,6.89-.75,3.14-1.12,6.95-1.12,11.43v5.4Z"/>
    </g>
  </g>
  <g>
    <circle cx="808.5" cy="182.5" r="87" fill="#c23bb7" stroke="#000" stroke-miterlimit="10" stroke-width="5"/>
    <path d="M803.12,140.44h7.56l-.57,48.85h-6.28l-.62-44.27-.09-4.58ZM803.12,205.43v-8.04h7.56v8.04h-7.56Z"/>
  </g>
  <g>
    <circle cx="265.5" cy="139.5" r="87" fill="#f9c12b" stroke="#000" stroke-miterlimit="10" stroke-width="5"/>
    <path d="M244.76,161.68l17.45-20.52v-.18l-16.92-19.34h7.47l12.44,14.85h.09l11.95-14.85h7.47l-16.57,19.34v.09l18.02,20.61h-7.47l-13.49-16.92-12.96,16.92h-7.47Z"/>
  </g>
  <g>
    <circle cx="94.95" cy="168.87" r="87" fill="#30628b" stroke="#000" stroke-miterlimit="10" stroke-width="5"/>
    <path d="M76.23,161.97c0-8.98,2.28-16.54,6.85-22.69,4.57-6.14,10.31-9.22,17.24-9.22,3.09,0,6.28.6,9.57,1.8v5.41c-3.41-1.29-6.6-1.93-9.57-1.93-3.48,0-6.51,1.22-9.08,3.65-2.57,2.43-4.4,5.19-5.48,8.28-1.08,3.09-1.71,6.29-1.89,9.6,1.84-2.37,4.12-4.21,6.82-5.51s5.49-1.96,8.36-1.96c3.93,0,7.17,1.84,9.73,5.52,3.17,4.47,4.76,9.8,4.76,15.97,0,6.65-2.05,12.17-6.16,16.57-3.47,3.72-7.53,5.58-12.19,5.58-1.68,0-3.31-.24-4.92-.73-1.6-.48-3.28-1.41-5.03-2.79s-3.27-3.16-4.56-5.34-2.36-5.19-3.2-9.01c-.84-3.82-1.26-8.22-1.26-13.21ZM83.96,171.24c1.14,10.81,4.85,16.22,11.14,16.22,3.04,0,5.45-1.03,7.21-3.1,1.77-2.07,2.93-4.36,3.49-6.88.29-1.32.44-3.33.44-6.02,0-5.21-.83-9.16-2.5-11.82-1.99-3.11-4.72-4.66-8.2-4.66s-6.12,1.36-8.27,4.09c-2.15,2.72-3.22,5.98-3.22,9.76,0,.53.06,1.33.18,2.42h-.26Z"/>
  </g>
  <g>
    <circle cx="170.95" cy="270.87" r="87" fill="#d32a20" stroke="#000" stroke-miterlimit="10" stroke-width="5"/>
    <path d="M148.45,271.09v-5.41h45v5.41h-45Z"/>
  </g>
  <g>
    <circle cx="625.5" cy="337.5" r="87" fill="#299c9f" stroke="#000" stroke-miterlimit="10" stroke-width="5"/>
    <path d="M596.25,339.12c-.53-.55-.79-1.19-.79-1.92s.21-1.31.62-1.74c.41-.44.86-.71,1.34-.83s1.24-.17,2.26-.17h23.03v-23.2c0-2.7.91-4.05,2.72-4.05s2.77,1.35,2.77,4.05v23.2h23.42c2.52,0,3.78.92,3.78,2.75s-1.2,2.66-3.6,2.66h-23.6v23.29c0,2.7-.89,4.05-2.68,4.05-.73,0-1.34-.23-1.82-.68-.48-.46-.78-.92-.9-1.39-.06-.23-.09-.89-.09-1.98v-23.29h-23.2c-.23.06-.48.09-.75.09-1.14,0-1.98-.28-2.5-.83Z"/>
  </g>
  <g>
    <circle cx="515.5" cy="511.5" r="87" fill="#333132" stroke="#000" stroke-miterlimit="10" stroke-width="5"/>
    <path d="M493.5,481.79v-6.37l37.53.09v5.84c-6.39,7.32-11.31,15.7-14.79,25.12s-5.21,19.08-5.21,28.98h-7.56c0-9.49,1.74-18.84,5.23-28.06,3.49-9.21,8.89-17.75,16.22-25.6h-31.42Z" fill="#fbf2d8"/>
  </g>
  <g>
    <circle cx="813.95" cy="437.87" r="87" fill="#c285cb" stroke="#000" stroke-miterlimit="10" stroke-width="5"/>
    <path d="M796.5,479.79c0-.41.26-1.41.79-2.99l28.43-81.56c.59-1.73,1.55-2.59,2.9-2.59.73,0,1.36.26,1.89.77s.79,1.15.79,1.91c0,.41-.21,1.26-.62,2.55l-28.61,82c-.73,1.79-1.7,2.68-2.9,2.68-.73,0-1.36-.26-1.89-.79s-.79-1.19-.79-1.98Z"/>
  </g>
</svg>