<?xml version="1.0" encoding="UTF-8"?>
<svg id="Ebene_1" data-name="Ebene 1" xmlns="http://www.w3.org/2000/svg" viewBox="0 0 1366 767.78">
  <defs>
    <style>
      .cls-1 {
        fill: #f9c12b;
      }

      .cls-2 {
        fill: #aaa496;
      }

      .cls-3 {
        font-family: CMUSerif-BoldItalic, 'CMU Serif';
        font-style: italic;
        font-weight: 700;
      }

      .cls-3, .cls-4 {
        font-size: 40px;
      }

      .cls-5 {
        fill: #fbf2d8;
      }

      .cls-6 {
        letter-spacing: -.03em;
      }

      .cls-7 {
        fill: #d32a20;
      }

      .cls-4 {
        font-family: CMUBright-SemiBoldOblique, 'CMU Bright';
        font-style: oblique;
        font-weight: 600;
      }

      .cls-8 {
        fill: #30628b;
      }
    </style>
  </defs>
  <rect class="cls-5" width="1366" height="767.78"/>
  <g>
    <rect class="cls-7" x="122.05" y="159.33" width="77.38" height="77.38"/>
    <path d="M201.63,238.91h-81.78v-81.78h81.78v81.78ZM124.26,234.5h72.97v-72.97h-72.97v72.97Z"/>
  </g>
  <g>
    <rect class="cls-7" x="44.47" y="159.33" width="77.38" height="77.38"/>
    <path d="M124.05,238.91H42.27v-81.78h81.78v81.78ZM46.67,234.5h72.97v-72.97H46.67v72.97Z"/>
  </g>
  <path d="M358.6,587.95h-51.34v-51.34h51.34v51.34ZM310.27,584.95h45.34v-45.34h-45.34v45.34Z"/>
  <path d="M406.6,587.95h-51.34v-51.34h51.34v51.34ZM358.27,584.95h45.34v-45.34h-45.34v45.34Z"/>
  <path d="M455.6,587.95h-51.34v-51.34h51.34v51.34ZM407.27,584.95h45.34v-45.34h-45.34v45.34Z"/>
  <path d="M358.6,635.95h-51.34v-51.34h51.34v51.34ZM310.27,632.95h45.34v-45.34h-45.34v45.34Z"/>
  <path d="M406.6,635.95h-51.34v-51.34h51.34v51.34ZM358.27,632.95h45.34v-45.34h-45.34v45.34Z"/>
  <path d="M455.6,635.95h-51.34v-51.34h51.34v51.34ZM407.27,632.95h45.34v-45.34h-45.34v45.34Z"/>
  <path d="M913.6,608.95h-51.34v-51.34h51.34v51.34ZM865.27,605.95h45.34v-45.34h-45.34v45.34Z"/>
  <path d="M961.6,608.95h-51.34v-51.34h51.34v51.34ZM913.27,605.95h45.34v-45.34h-45.34v45.34Z"/>
  <path d="M1010.6,608.95h-51.34v-51.34h51.34v51.34ZM962.27,605.95h45.34v-45.34h-45.34v45.34Z"/>
  <path d="M1058.6,608.95h-51.34v-51.34h51.34v51.34ZM1010.27,605.95h45.34v-45.34h-45.34v45.34Z"/>
  <path d="M913.6,656.95h-51.34v-51.34h51.34v51.34ZM865.27,653.95h45.34v-45.34h-45.34v45.34Z"/>
  <path d="M961.6,656.95h-51.34v-51.34h51.34v51.34ZM913.27,653.95h45.34v-45.34h-45.34v45.34Z"/>
  <path d="M1010.6,656.95h-51.34v-51.34h51.34v51.34ZM962.27,653.95h45.34v-45.34h-45.34v45.34Z"/>
  <path d="M1058.6,656.95h-51.34v-51.34h51.34v51.34ZM1010.27,653.95h45.34v-45.34h-45.34v45.34Z"/>
  <path d="M913.6,704.95h-51.34v-51.34h51.34v51.34ZM865.27,701.95h45.34v-45.34h-45.34v45.34Z"/>
  <path d="M961.6,704.95h-51.34v-51.34h51.34v51.34ZM913.27,701.95h45.34v-45.34h-45.34v45.34Z"/>
  <path d="M1010.6,704.95h-51.34v-51.34h51.34v51.34ZM962.27,701.95h45.34v-45.34h-45.34v45.34Z"/>
  <path d="M1058.6,704.95h-51.34v-51.34h51.34v51.34ZM1010.27,701.95h45.34v-45.34h-45.34v45.34Z"/>
  <path d="M358.6,683.95h-51.34v-51.34h51.34v51.34ZM310.27,680.95h45.34v-45.34h-45.34v45.34Z"/>
  <path d="M406.6,683.95h-51.34v-51.34h51.34v51.34ZM358.27,680.95h45.34v-45.34h-45.34v45.34Z"/>
  <path d="M455.6,683.95h-51.34v-51.34h51.34v51.34ZM407.27,680.95h45.34v-45.34h-45.34v45.34Z"/>
  <path d="M358.6,731.95h-51.34v-51.34h51.34v51.34ZM310.27,728.95h45.34v-45.34h-45.34v45.34Z"/>
  <path d="M406.6,731.95h-51.34v-51.34h51.34v51.34ZM358.27,728.95h45.34v-45.34h-45.34v45.34Z"/>
  <path d="M455.6,731.95h-51.34v-51.34h51.34v51.34ZM407.27,728.95h45.34v-45.34h-45.34v45.34Z"/>
  <g>
    <rect class="cls-7" x="199.43" y="159.33" width="77.38" height="77.38"/>
    <path d="M279.01,238.91h-81.78v-81.78h81.78v81.78ZM201.63,234.5h72.97v-72.97h-72.97v72.97Z"/>
  </g>
  <g>
    <rect class="cls-7" x="276.8" y="159.33" width="77.38" height="77.38"/>
    <path d="M356.38,238.91h-81.78v-81.78h81.78v81.78ZM279.01,234.5h72.97v-72.97h-72.97v72.97Z"/>
  </g>
  <g>
    <rect class="cls-8" x="397.46" y="159.69" width="77.38" height="77.38"/>
    <path d="M477.04,239.27h-81.78v-81.78h81.78v81.78ZM399.67,234.86h72.97v-72.97h-72.97v72.97Z"/>
  </g>
  <g>
    <rect class="cls-1" x="474.84" y="159.69" width="77.38" height="77.38"/>
    <path d="M554.42,239.27h-81.78v-81.78h81.78v81.78ZM477.04,234.86h72.97v-72.97h-72.97v72.97Z"/>
  </g>
  <g>
    <rect class="cls-1" x="552.42" y="159.69" width="77.38" height="77.38"/>
    <path d="M632,239.27h-81.78v-81.78h81.78v81.78ZM554.62,234.86h72.97v-72.97h-72.97v72.97Z"/>
  </g>
  <g>
    <rect class="cls-7" x="805.05" y="159.33" width="77.38" height="77.38"/>
    <path d="M884.63,238.91h-81.78v-81.78h81.78v81.78ZM807.26,234.5h72.97v-72.97h-72.97v72.97Z"/>
  </g>
  <g>
    <rect class="cls-7" x="727.47" y="159.33" width="77.38" height="77.38"/>
    <path d="M807.05,238.91h-81.78v-81.78h81.78v81.78ZM729.67,234.5h72.97v-72.97h-72.97v72.97Z"/>
  </g>
  <g>
    <rect class="cls-7" x="882.43" y="159.33" width="77.38" height="77.38"/>
    <path d="M962.01,238.91h-81.78v-81.78h81.78v81.78ZM884.63,234.5h72.97v-72.97h-72.97v72.97Z"/>
  </g>
  <g>
    <rect class="cls-7" x="959.8" y="159.33" width="77.38" height="77.38"/>
    <path d="M1039.38,238.91h-81.78v-81.78h81.78v81.78ZM962.01,234.5h72.97v-72.97h-72.97v72.97Z"/>
  </g>
  <g>
    <rect class="cls-8" x="1037.46" y="159.69" width="77.38" height="77.38"/>
    <path d="M1117.04,239.27h-81.78v-81.78h81.78v81.78ZM1039.67,234.86h72.97v-72.97h-72.97v72.97Z"/>
  </g>
  <g>
    <rect class="cls-1" x="1157.84" y="159.69" width="77.38" height="77.38"/>
    <path d="M1237.42,239.27h-81.78v-81.78h81.78v81.78ZM1160.04,234.86h72.97v-72.97h-72.97v72.97Z"/>
  </g>
  <g>
    <rect class="cls-1" x="1235.42" y="159.69" width="77.38" height="77.38"/>
    <path d="M1315,239.27h-81.78v-81.78h81.78v81.78ZM1237.62,234.86h72.97v-72.97h-72.97v72.97Z"/>
  </g>
  <text class="cls-3" transform="translate(391.05 90.12)"><tspan x="0" y="0">m + (n + k) = (m + k) + k</tspan></text>
  <text class="cls-3" transform="translate(525.64 356.12)"><tspan x="0" y="0">m(nk) = (mn)k</tspan></text>
  <text class="cls-4" transform="translate(230.95 450.12)"><tspan x="0" y="0">höhe x (</tspan><tspan class="cls-6" x="142.36" y="0">b</tspan><tspan x="161.88" y="0">reite x länge)</tspan></text>
  <text class="cls-4" transform="translate(743.95 450.12)"><tspan x="0" y="0">(höhe x </tspan><tspan class="cls-6" x="142.36" y="0">b</tspan><tspan x="161.88" y="0">reite) x länge</tspan></text>
  <path d="M372.75,482.67l131.04.18-49.45,50.09h-136.97l55.39-50.27M371.2,478.67l-64.2,58.27h149l57.34-58.07-142.14-.2h0Z"/>
  <path d="M509.34,488.53v190.61l-49.74,43.93v-184.81l49.74-49.74M513.34,478.87l-57.74,57.74v195.34l57.74-51v-202.07h0Z"/>
  <path d="M355.27,538.61c-.53,0-1.06-.21-1.45-.62-.76-.8-.73-2.07.08-2.83l58.73-55.66c.8-.76,2.07-.73,2.83.08.76.8.73,2.07-.08,2.83l-58.73,55.66c-.39.37-.88.55-1.38.55Z"/>
  <path d="M406.6,538.61c-.51,0-1.02-.19-1.41-.58-.78-.78-.79-2.05,0-2.83l55.4-55.66c.78-.78,2.05-.78,2.83,0,.78.78.79,2.05,0,2.83l-55.4,55.66c-.39.39-.9.59-1.42.59Z"/>
  <path d="M476.17,711.11c-1.1,0-2-.89-2-1.99l-.66-189.98h-139.17c-1.1,0-2-.9-2-2s.9-2,2-2h141.16c1.1,0,2,.89,2,1.99l.67,191.98c0,1.1-.89,2-1.99,2.01h0Z"/>
  <path d="M495.5,696.45c-1.1,0-2-.9-2-2v-194.31h-139.16c-1.1,0-2-.9-2-2s.9-2,2-2h141.16c1.1,0,2,.9,2,2v196.31c0,1.1-.89,2-2,2Z"/>
  <path d="M455.6,586.61c-.51,0-1.02-.2-1.41-.59-.78-.78-.78-2.05,0-2.83l55.32-55.32c.78-.78,2.05-.78,2.83,0s.78,2.05,0,2.83l-55.32,55.32c-.39.39-.9.59-1.41.59Z"/>
  <path d="M455.6,637.61c-.51,0-1.02-.2-1.41-.59-.78-.78-.78-2.05,0-2.83l55.32-55.32c.78-.78,2.05-.78,2.83,0s.78,2.05,0,2.83l-55.32,55.32c-.39.39-.9.59-1.41.59Z"/>
  <path d="M455.6,687.61c-.51,0-1.02-.2-1.41-.59-.78-.78-.78-2.05,0-2.83l55.32-55.32c.78-.78,2.05-.78,2.83,0s.78,2.05,0,2.83l-55.32,55.32c-.39.39-.9.59-1.41.59Z"/>
  <path d="M1005.71,511.37l42.32,42.32-183.5,1.58-43.9-43.9h185.08M1007.36,507.37h-196.4l51.92,51.92,194.72-1.68-50.24-50.24h0Z"/>
  <path d="M814.62,514.61l46.08,46.08-1.36,137.08-44.72-44.72v-138.44M811.62,507.37v146.92l50.65,50.65,1.44-145.48-52.09-52.09h0Z"/>
  <rect x="835.6" y="546.07" width="4" height="69.75" transform="translate(-165.46 762.43) rotate(-45)"/>
  <rect x="885.6" y="499.07" width="4" height="69.75" transform="translate(-117.58 784.02) rotate(-45)"/>
  <rect x="935.6" y="499.07" width="4" height="69.75" transform="translate(-102.94 819.38) rotate(-45)"/>
  <rect x="982.6" y="499.07" width="4" height="69.75" transform="translate(-89.17 852.61) rotate(-45)"/>
  <rect x="835.93" y="594.87" width="4" height="68.82" transform="translate(-199.54 776.82) rotate(-45)"/>
  <path d="M832,671.42h-4s.31-146.36.31-146.36c0-1.1.9-2,2-2h193.02v4h-191.02l-.31,144.35Z"/>
  <path d="M848.99,687.94h-4s.32-147.87.32-147.87c0-1.1.9-2,2-2h193.02v4h-191.02l-.32,145.87Z"/>
  <rect class="cls-2" x="123" y="281.95" width="1119" height="4"/>
</svg>