<?xml version="1.0" encoding="UTF-8"?>
<svg id="Ebene_1" data-name="Ebene 1" xmlns="http://www.w3.org/2000/svg" viewBox="0 0 1371.6 286.57">
  <defs>
    <style>
      .cls-1 {
        fill: #f9c12b;
      }

      .cls-2 {
        font-family: CMUSerif-BoldItalic, 'CMU Serif';
        font-size: 40px;
        font-style: italic;
        font-weight: 700;
      }

      .cls-3 {
        fill: #fbf2d8;
      }

      .cls-4 {
        fill: #d32a20;
      }

      .cls-5 {
        fill: #30628b;
      }
    </style>
  </defs>
  <rect class="cls-3" width="1371.6" height="286.57"/>
  <g>
    <rect class="cls-4" x="130.58" y="141.55" width="77.38" height="77.38"/>
    <path d="M210.16,221.13h-81.78v-81.78h81.78v81.78ZM132.78,216.72h72.97v-72.97h-72.97v72.97Z"/>
  </g>
  <g>
    <rect class="cls-4" x="53" y="141.55" width="77.38" height="77.38"/>
    <path d="M132.58,221.13H50.79v-81.78h81.78v81.78ZM55.2,216.72h72.97v-72.97H55.2v72.97Z"/>
  </g>
  <g>
    <rect class="cls-4" x="207.95" y="141.55" width="77.38" height="77.38"/>
    <path d="M287.54,221.13h-81.78v-81.78h81.78v81.78ZM210.16,216.72h72.97v-72.97h-72.97v72.97Z"/>
  </g>
  <g>
    <rect class="cls-4" x="285.33" y="141.55" width="77.38" height="77.38"/>
    <path d="M364.91,221.13h-81.78v-81.78h81.78v81.78ZM287.54,216.72h72.97v-72.97h-72.97v72.97Z"/>
  </g>
  <g>
    <rect class="cls-5" x="405.99" y="141.91" width="77.38" height="77.38"/>
    <path d="M485.57,221.49h-81.78v-81.78h81.78v81.78ZM408.19,217.08h72.97v-72.97h-72.97v72.97Z"/>
  </g>
  <g>
    <rect class="cls-1" x="483.36" y="141.91" width="77.38" height="77.38"/>
    <path d="M562.94,221.49h-81.78v-81.78h81.78v81.78ZM485.57,217.08h72.97v-72.97h-72.97v72.97Z"/>
  </g>
  <g>
    <rect class="cls-1" x="560.95" y="141.91" width="77.38" height="77.38"/>
    <path d="M640.53,221.49h-81.78v-81.78h81.78v81.78ZM563.15,217.08h72.97v-72.97h-72.97v72.97Z"/>
  </g>
  <g>
    <rect class="cls-4" x="813.58" y="141.55" width="77.38" height="77.38"/>
    <path d="M893.16,221.13h-81.78v-81.78h81.78v81.78ZM815.78,216.72h72.97v-72.97h-72.97v72.97Z"/>
  </g>
  <g>
    <rect class="cls-4" x="736" y="141.55" width="77.38" height="77.38"/>
    <path d="M815.58,221.13h-81.78v-81.78h81.78v81.78ZM738.2,216.72h72.97v-72.97h-72.97v72.97Z"/>
  </g>
  <g>
    <rect class="cls-4" x="890.95" y="141.55" width="77.38" height="77.38"/>
    <path d="M970.54,221.13h-81.78v-81.78h81.78v81.78ZM893.16,216.72h72.97v-72.97h-72.97v72.97Z"/>
  </g>
  <g>
    <rect class="cls-4" x="968.33" y="141.55" width="77.38" height="77.38"/>
    <path d="M1047.91,221.13h-81.78v-81.78h81.78v81.78ZM970.54,216.72h72.97v-72.97h-72.97v72.97Z"/>
  </g>
  <g>
    <rect class="cls-5" x="1045.99" y="141.91" width="77.38" height="77.38"/>
    <path d="M1125.57,221.49h-81.78v-81.78h81.78v81.78ZM1048.19,217.08h72.97v-72.97h-72.97v72.97Z"/>
  </g>
  <g>
    <rect class="cls-1" x="1166.36" y="141.91" width="77.38" height="77.38"/>
    <path d="M1245.94,221.49h-81.78v-81.78h81.78v81.78ZM1168.57,217.08h72.97v-72.97h-72.97v72.97Z"/>
  </g>
  <g>
    <rect class="cls-1" x="1243.95" y="141.91" width="77.38" height="77.38"/>
    <path d="M1323.53,221.49h-81.78v-81.78h81.78v81.78ZM1246.15,217.08h72.97v-72.97h-72.97v72.97Z"/>
  </g>
  <text class="cls-2" transform="translate(399.58 72.34)"><tspan x="0" y="0">m + (n + k) = (m + k) + k</tspan></text>
</svg>