<?xml version="1.0" encoding="UTF-8"?>
<svg id="Ebene_1" data-name="Ebene 1" xmlns="http://www.w3.org/2000/svg" viewBox="0 0 1371.6 506">
  <defs>
    <style>
      .cls-1 {
        font-family: CMUSerif-BoldItalic, 'CMU Serif';
        font-style: italic;
        font-weight: 700;
      }

      .cls-1, .cls-2 {
        font-size: 40px;
      }

      .cls-3 {
        letter-spacing: -.06em;
      }

      .cls-4 {
        fill: #fbf2d8;
      }

      .cls-5 {
        letter-spacing: -.03em;
      }

      .cls-2 {
        font-family: CMUBright-SemiBoldOblique, 'CMU Bright';
        font-style: oblique;
        font-weight: 600;
      }
    </style>
  </defs>
  <rect class="cls-4" width="1371.6" height="506"/>
  <text class="cls-1" transform="translate(538.82 76.79)"><tspan x="0" y="0">a(</tspan><tspan class="cls-3" x="42.54" y="0">b</tspan><tspan x="61.45" y="0">c) = (ab)c</tspan></text>
  <path d="M353.25,315.19h-51.34v-51.34h51.34v51.34ZM304.92,312.19h45.34v-45.34h-45.34v45.34Z"/>
  <path d="M401.25,315.19h-51.34v-51.34h51.34v51.34ZM352.92,312.19h45.34v-45.34h-45.34v45.34Z"/>
  <path d="M450.25,315.19h-51.34v-51.34h51.34v51.34ZM401.92,312.19h45.34v-45.34h-45.34v45.34Z"/>
  <path d="M353.25,363.19h-51.34v-51.34h51.34v51.34ZM304.92,360.19h45.34v-45.34h-45.34v45.34Z"/>
  <path d="M401.25,363.19h-51.34v-51.34h51.34v51.34ZM352.92,360.19h45.34v-45.34h-45.34v45.34Z"/>
  <path d="M450.25,363.19h-51.34v-51.34h51.34v51.34ZM401.92,360.19h45.34v-45.34h-45.34v45.34Z"/>
  <path d="M908.25,336.19h-51.34v-51.34h51.34v51.34ZM859.92,333.19h45.34v-45.34h-45.34v45.34Z"/>
  <path d="M956.25,336.19h-51.34v-51.34h51.34v51.34ZM907.92,333.19h45.34v-45.34h-45.34v45.34Z"/>
  <path d="M1005.25,336.19h-51.34v-51.34h51.34v51.34ZM956.92,333.19h45.34v-45.34h-45.34v45.34Z"/>
  <path d="M1053.25,336.19h-51.34v-51.34h51.34v51.34ZM1004.92,333.19h45.34v-45.34h-45.34v45.34Z"/>
  <path d="M908.25,384.19h-51.34v-51.34h51.34v51.34ZM859.92,381.19h45.34v-45.34h-45.34v45.34Z"/>
  <path d="M956.25,384.19h-51.34v-51.34h51.34v51.34ZM907.92,381.19h45.34v-45.34h-45.34v45.34Z"/>
  <path d="M1005.25,384.19h-51.34v-51.34h51.34v51.34ZM956.92,381.19h45.34v-45.34h-45.34v45.34Z"/>
  <path d="M1053.25,384.19h-51.34v-51.34h51.34v51.34ZM1004.92,381.19h45.34v-45.34h-45.34v45.34Z"/>
  <path d="M908.25,432.19h-51.34v-51.34h51.34v51.34ZM859.92,429.19h45.34v-45.34h-45.34v45.34Z"/>
  <path d="M956.25,432.19h-51.34v-51.34h51.34v51.34ZM907.92,429.19h45.34v-45.34h-45.34v45.34Z"/>
  <path d="M1005.25,432.19h-51.34v-51.34h51.34v51.34ZM956.92,429.19h45.34v-45.34h-45.34v45.34Z"/>
  <path d="M1053.25,432.19h-51.34v-51.34h51.34v51.34ZM1004.92,429.19h45.34v-45.34h-45.34v45.34Z"/>
  <path d="M353.25,411.19h-51.34v-51.34h51.34v51.34ZM304.92,408.19h45.34v-45.34h-45.34v45.34Z"/>
  <path d="M401.25,411.19h-51.34v-51.34h51.34v51.34ZM352.92,408.19h45.34v-45.34h-45.34v45.34Z"/>
  <path d="M450.25,411.19h-51.34v-51.34h51.34v51.34ZM401.92,408.19h45.34v-45.34h-45.34v45.34Z"/>
  <path d="M353.25,459.19h-51.34v-51.34h51.34v51.34ZM304.92,456.19h45.34v-45.34h-45.34v45.34Z"/>
  <path d="M401.25,459.19h-51.34v-51.34h51.34v51.34ZM352.92,456.19h45.34v-45.34h-45.34v45.34Z"/>
  <path d="M450.25,459.19h-51.34v-51.34h51.34v51.34ZM401.92,456.19h45.34v-45.34h-45.34v45.34Z"/>
  <text class="cls-2" transform="translate(225.6 177.36)"><tspan x="0" y="0">höhe x (</tspan><tspan class="cls-5" x="142.36" y="0">b</tspan><tspan x="161.88" y="0">reite x länge)</tspan></text>
  <text class="cls-2" transform="translate(738.6 177.36)"><tspan x="0" y="0">(höhe x </tspan><tspan class="cls-5" x="142.36" y="0">b</tspan><tspan x="161.88" y="0">reite) x länge</tspan></text>
  <path d="M367.4,209.92l131.04.18-49.45,50.09h-136.97l55.39-50.27M365.85,205.91l-64.2,58.27h149l57.34-58.07-142.14-.2h0Z"/>
  <path d="M503.99,215.77v190.61l-49.74,43.93v-184.81l49.74-49.74M507.99,206.11l-57.74,57.74v195.34l57.74-51v-202.07h0Z"/>
  <path d="M349.92,265.85c-.53,0-1.06-.21-1.45-.62-.76-.8-.73-2.07.08-2.83l58.73-55.66c.8-.76,2.07-.73,2.83.08.76.8.73,2.07-.08,2.83l-58.73,55.66c-.39.37-.88.55-1.38.55Z"/>
  <path d="M401.25,265.85c-.51,0-1.02-.19-1.41-.58-.78-.78-.79-2.05,0-2.83l55.4-55.66c.78-.78,2.05-.78,2.83,0,.78.78.79,2.05,0,2.83l-55.4,55.66c-.39.39-.9.59-1.42.59Z"/>
  <path d="M470.82,438.35c-1.1,0-2-.89-2-1.99l-.66-189.98h-139.17c-1.1,0-2-.9-2-2s.9-2,2-2h141.16c1.1,0,2,.89,2,1.99l.67,191.98c0,1.1-.89,2-1.99,2.01h0Z"/>
  <path d="M490.15,423.69c-1.1,0-2-.9-2-2v-194.31h-139.16c-1.1,0-2-.9-2-2s.9-2,2-2h141.16c1.1,0,2,.9,2,2v196.31c0,1.1-.89,2-2,2Z"/>
  <path d="M450.25,313.85c-.51,0-1.02-.2-1.41-.59-.78-.78-.78-2.05,0-2.83l55.32-55.32c.78-.78,2.05-.78,2.83,0s.78,2.05,0,2.83l-55.32,55.32c-.39.39-.9.59-1.41.59Z"/>
  <path d="M450.25,364.85c-.51,0-1.02-.2-1.41-.59-.78-.78-.78-2.05,0-2.83l55.32-55.32c.78-.78,2.05-.78,2.83,0s.78,2.05,0,2.83l-55.32,55.32c-.39.39-.9.59-1.41.59Z"/>
  <path d="M450.25,414.85c-.51,0-1.02-.2-1.41-.59-.78-.78-.78-2.05,0-2.83l55.32-55.32c.78-.78,2.05-.78,2.83,0s.78,2.05,0,2.83l-55.32,55.32c-.39.39-.9.59-1.41.59Z"/>
  <path d="M1000.36,238.61l42.32,42.32-183.5,1.58-43.9-43.9h185.08M1002.01,234.61h-196.4l51.92,51.92,194.72-1.68-50.24-50.24h0Z"/>
  <path d="M809.27,241.86l46.08,46.08-1.36,137.08-44.72-44.72v-138.44M806.27,234.61v146.92l50.65,50.65,1.44-145.48-52.09-52.09h0Z"/>
  <rect x="830.25" y="273.31" width="4" height="69.75" transform="translate(25.84 678.76) rotate(-45)"/>
  <rect x="880.25" y="226.31" width="4" height="69.75" transform="translate(73.72 700.35) rotate(-45)"/>
  <rect x="930.25" y="226.31" width="4" height="69.75" transform="translate(88.36 735.7) rotate(-45)"/>
  <rect x="977.25" y="226.31" width="4" height="69.75" transform="translate(102.13 768.94) rotate(-45)"/>
  <rect x="830.59" y="322.11" width="4" height="68.82" transform="translate(-8.24 693.15) rotate(-45)"/>
  <path d="M826.65,398.66h-4s.31-146.36.31-146.36c0-1.1.9-2,2-2h193.02v4h-191.02l-.31,144.35Z"/>
  <path d="M843.64,415.18h-4s.32-147.87.32-147.87c0-1.1.9-2,2-2h193.02v4h-191.02l-.32,145.87Z"/>
</svg>