<?xml version="1.0" encoding="UTF-8"?>
<svg id="Ebene_1" data-name="Ebene 1" xmlns="http://www.w3.org/2000/svg" viewBox="0 0 1371.6 209.57">
  <defs>
    <style>
      .cls-1 {
        fill: #f9c12b;
      }

      .cls-2 {
        fill: #fbf2d8;
      }

      .cls-3 {
        fill: #d32a20;
      }

      .cls-4 {
        fill: #30628b;
      }
    </style>
  </defs>
  <rect class="cls-2" width="1371.6" height="209.57"/>
  <g>
    <rect class="cls-3" x="130.58" y="64.55" width="77.38" height="77.38"/>
    <path d="M210.16,144.13h-81.78V62.34h81.78v81.78ZM132.78,139.72h72.97v-72.97h-72.97v72.97Z"/>
  </g>
  <g>
    <rect class="cls-3" x="53" y="64.55" width="77.38" height="77.38"/>
    <path d="M132.58,144.13H50.79V62.34h81.78v81.78ZM55.2,139.72h72.97v-72.97H55.2v72.97Z"/>
  </g>
  <g>
    <rect class="cls-3" x="207.95" y="64.55" width="77.38" height="77.38"/>
    <path d="M287.54,144.13h-81.78V62.34h81.78v81.78ZM210.16,139.72h72.97v-72.97h-72.97v72.97Z"/>
  </g>
  <g>
    <rect class="cls-3" x="285.33" y="64.55" width="77.38" height="77.38"/>
    <path d="M364.91,144.13h-81.78V62.34h81.78v81.78ZM287.54,139.72h72.97v-72.97h-72.97v72.97Z"/>
  </g>
  <g>
    <rect class="cls-4" x="382.99" y="64.91" width="77.38" height="77.38"/>
    <path d="M462.57,144.49h-81.78V62.7h81.78v81.78ZM385.19,140.08h72.97v-72.97h-72.97v72.97Z"/>
  </g>
  <g>
    <rect class="cls-1" x="483.36" y="64.91" width="77.38" height="77.38"/>
    <path d="M562.94,144.49h-81.78V62.7h81.78v81.78ZM485.57,140.08h72.97v-72.97h-72.97v72.97Z"/>
  </g>
  <g>
    <rect class="cls-1" x="560.95" y="64.91" width="77.38" height="77.38"/>
    <path d="M640.53,144.49h-81.78V62.7h81.78v81.78ZM563.15,140.08h72.97v-72.97h-72.97v72.97Z"/>
  </g>
  <g>
    <rect class="cls-3" x="813.58" y="64.55" width="77.38" height="77.38"/>
    <path d="M893.16,144.13h-81.78V62.34h81.78v81.78ZM815.78,139.72h72.97v-72.97h-72.97v72.97Z"/>
  </g>
  <g>
    <rect class="cls-3" x="736" y="64.55" width="77.38" height="77.38"/>
    <path d="M815.58,144.13h-81.78V62.34h81.78v81.78ZM738.2,139.72h72.97v-72.97h-72.97v72.97Z"/>
  </g>
  <g>
    <rect class="cls-3" x="890.95" y="64.55" width="77.38" height="77.38"/>
    <path d="M970.54,144.13h-81.78V62.34h81.78v81.78ZM893.16,139.72h72.97v-72.97h-72.97v72.97Z"/>
  </g>
  <g>
    <rect class="cls-3" x="968.33" y="64.55" width="77.38" height="77.38"/>
    <path d="M1047.91,144.13h-81.78V62.34h81.78v81.78ZM970.54,139.72h72.97v-72.97h-72.97v72.97Z"/>
  </g>
  <g>
    <rect class="cls-4" x="1066.99" y="64.91" width="77.38" height="77.38"/>
    <path d="M1146.57,144.49h-81.78V62.7h81.78v81.78ZM1069.19,140.08h72.97v-72.97h-72.97v72.97Z"/>
  </g>
  <g>
    <rect class="cls-1" x="1166.36" y="64.91" width="77.38" height="77.38"/>
    <path d="M1245.94,144.49h-81.78V62.7h81.78v81.78ZM1168.57,140.08h72.97v-72.97h-72.97v72.97Z"/>
  </g>
  <g>
    <rect class="cls-1" x="1243.95" y="64.91" width="77.38" height="77.38"/>
    <path d="M1323.53,144.49h-81.78V62.7h81.78v81.78ZM1246.15,140.08h72.97v-72.97h-72.97v72.97Z"/>
  </g>
</svg>