<?xml version="1.0" encoding="UTF-8"?>
<svg id="Ebene_1" data-name="Ebene 1" xmlns="http://www.w3.org/2000/svg" viewBox="0 0 1024 1024">
  <defs>
    <style>
      .cls-1 {
        fill: none;
        stroke: #000;
        stroke-linecap: round;
        stroke-miterlimit: 10;
        stroke-width: 20px;
      }

      .cls-2, .cls-3, .cls-4, .cls-5, .cls-6 {
        stroke-width: 0px;
      }

      .cls-3 {
        fill: #c03b2d;
      }

      .cls-4 {
        fill: #30628b;
      }

      .cls-5 {
        fill: #f3c042;
      }

      .cls-6 {
        fill: #fff;
      }
    </style>
  </defs>
  <g>
    <ellipse class="cls-5" cx="771.77" cy="509.05" rx="164.23" ry="317.47"/>
    <path class="cls-3" d="m771.77,171.58c-16.02,0-31.88,3.61-47.13,10.73l8.46,18.12c5.97-2.79,12.07-4.94,18.27-6.43h0c.28-.07.56-.13.83-.2h0c.13-.03.26-.06.38-.09h0s.04,0,.06-.01h0c.13-.03.25-.06.38-.09h0s.04-.01.06-.01h0s.04-.01.06-.01h0c.08-.02.17-.04.25-.06h0s.04,0,.06-.01h0s.04,0,.06-.01h0c.11-.02.21-.05.32-.07h0s.04,0,.06-.01h.01s.04-.01.06-.01h0c.08-.02.17-.04.25-.05h0s.04,0,.06-.01h.01s.04,0,.05-.01h.01s.04,0,.05-.01h.01c.08-.02.16-.03.24-.05,0,0,0,0,.01,0,.02,0,.04,0,.05-.01,0,0,.01,0,.02,0,.02,0,.03,0,.05-.01,0,0,.01,0,.02,0,.02,0,.03,0,.05-.01,0,0,0,0,.01,0,.08-.02.16-.03.24-.05h.01s.04,0,.05-.01c0,0,.01,0,.02,0,.02,0,.03,0,.05-.01,0,0,0,0,.01,0,.02,0,.04,0,.05-.01h0c.08-.02.16-.03.24-.05,0,0,0,0,.01,0,.02,0,.04,0,.05-.01h.01s.04,0,.05-.01h.01c.08-.02.16-.03.24-.05,0,0,0,0,.01,0,.02,0,.03,0,.05,0,0,0,.01,0,.02,0,.02,0,.03,0,.05,0,.01,0,0,0,.02,0,.02,0,.03,0,.05,0,0,0,0,0,.01,0,.08-.01.16-.03.24-.04,0,0,0,0,.01,0,.02,0,.03,0,.05,0,.01,0,0,0,.02,0,.02,0,.03,0,.05,0,0,0,.01,0,.02,0,.02,0,.03,0,.05,0,0,0,0,0,.01,0,.06-.01.12-.02.18-.03h0s.03,0,.05-.01c0,0,.01,0,.02,0,.02,0,.03,0,.05,0,.01,0,0,0,.02,0,.02,0,.03,0,.05,0,0,0,.02,0,.02,0,.02,0,.03,0,.05,0,0,0,0,0,.01,0,.06,0,.12-.02.17-.03,0,0,0,0,.01,0,.02,0,.03,0,.05,0,0,0,.02,0,.02,0,.02,0,.03,0,.05,0,.01,0,.01,0,.02,0,.02,0,.03,0,.05,0,0,0,.02,0,.02,0,.02,0,.03,0,.05,0t.01,0s.08-.01.11-.02h0s.03,0,.05,0c0,0,.02,0,.02,0,.02,0,.03,0,.05,0,.01,0,.01,0,.02,0,.02,0,.03,0,.05,0,.01,0,.01,0,.02,0,.02,0,.03,0,.05,0,0,0,.01,0,.02,0,.06,0,.11-.02.17-.03,0,0,0,0,.01,0,.02,0,.03,0,.05,0,0,0,.02,0,.03,0,.01,0,.03,0,.04,0,.01,0,.02,0,.03,0,.01,0,.03,0,.04,0,.01,0,.02,0,.03,0,.01,0,.03,0,.04,0,0,0,.02,0,.02,0,.05,0,.1-.02.15-.02,0,0,.02,0,.03,0,.01,0,.03,0,.04,0,.01,0,.02,0,.03,0,.01,0,.03,0,.04,0,.01,0,.02,0,.03,0,.01,0,.03,0,.04,0,.01,0,.02,0,.03,0,.01,0,.03,0,.04,0,0,0,.02,0,.03,0,.03,0,.07,0,.1-.01h0s.03,0,.04,0c0,0,.02,0,.03,0,.01,0,.03,0,.04,0,.01,0,.02,0,.03,0,.01,0,.03,0,.04,0,.01,0,.02,0,.03,0,.01,0,.03,0,.04,0,0,0,.03,0,.03,0,.01,0,.03,0,.04,0,0,0,.02,0,.02,0,.03,0,.07,0,.1-.01,0,0,0,0,0,0h.05s.02,0,.03-.01c.01,0,.03,0,.04,0,.01,0,.02,0,.03,0,.01,0,.03,0,.04,0,.01,0,.02,0,.03,0,.01,0,.03,0,.04,0,0,0,.02,0,.03,0,.01,0,.03,0,.04,0,0,0,.02,0,.02,0,.03,0,.06,0,.08-.01.01,0,.02,0,.03,0,.01,0,.03,0,.04,0,.01,0,.02,0,.03,0,.01,0,.03,0,.04,0,.01,0,.02,0,.03,0,.01,0,.03,0,.04,0,.01,0,.02,0,.03,0,.01,0,.03,0,.04,0,.01,0,.02,0,.03,0,.05,0,.1-.01.15-.02,0,0,.02,0,.02,0,.01,0,.03,0,.04,0,.01,0,.02,0,.03,0,.01,0,.03,0,.04,0,.01,0,.02,0,.03,0,.01,0,.03,0,.04,0,0,0,.02,0,.03,0,.02,0,.03,0,.05,0,0,0,.01,0,.02,0,.03,0,.07,0,.1-.01,0,0,0,0,.01,0,.01,0,.03,0,.04,0,0,0,.02,0,.03,0,.01,0,.03,0,.04,0,.01,0,.02,0,.03,0,.01,0,.03,0,.04,0,.01,0,.02,0,.03,0,.01,0,.02,0,.04,0,.02,0,.02,0,.03,0,.01,0,.03,0,.04,0,.01,0,.02,0,.03,0,.02,0,.05,0,.07,0,.01,0,.02,0,.03,0,.01,0,.02,0,.04,0,.01,0,.02,0,.03,0,.01,0,.02,0,.04,0,.01,0,.02,0,.03,0,.01,0,.02,0,.04,0,.01,0,.02,0,.03,0,.01,0,.02,0,.04,0,.01,0,.02,0,.03,0,.05,0,.1-.01.15-.02,0,0,.02,0,.03,0,.01,0,.03,0,.04,0,.01,0,.02,0,.03,0,.01,0,.03,0,.04,0,.01,0,.02,0,.03,0,.01,0,.03,0,.04,0,.01,0,.02,0,.03,0,.01,0,.03,0,.04,0,0,0,.02,0,.03,0,.03,0,.05,0,.08,0,.01,0,.02,0,.03,0,.01,0,.03,0,.04,0,.01,0,.02,0,.03,0,.01,0,.03,0,.04,0,.01,0,.02,0,.04,0,.01,0,.02,0,.03,0,.01,0,.03,0,.04,0,.01,0,.02,0,.04,0,.02,0,.02,0,.03,0,.01,0,.03,0,.04,0,.01,0,.02,0,.04,0,.02,0,.04,0,.06,0,.01,0,.03,0,.04,0,.01,0,.02,0,.04,0,.02,0,.02,0,.04,0,.01,0,.02,0,.04,0,.01,0,.02,0,.04,0,.01,0,.02,0,.04,0,.01,0,.03,0,.04,0,.01,0,.02,0,.03,0,.02,0,.02,0,.04,0,.01,0,.02,0,.03,0,.02,0,.04,0,.06,0,.01,0,.03,0,.04,0,.01,0,.03,0,.04,0,.01,0,.02,0,.03,0,.02,0,.02,0,.04,0,.01,0,.02,0,.04,0,.01,0,.03,0,.04,0,.01,0,.02,0,.03,0,.02,0,.02,0,.04,0,.01,0,.02,0,.03,0,.02,0,.04,0,.05,0,0,0,0,0,.02,0,.02,0,.05,0,.07,0,0,0,.02,0,.03,0,.02,0,.03,0,.04,0,.01,0,.02,0,.03,0,.02,0,.02,0,.04,0,.01,0,.02,0,.03,0,.01,0,.03,0,.04,0,.01,0,.02,0,.03,0,.02,0,.02,0,.04,0,.01,0,.02,0,.03,0,.02,0,.03,0,.05,0,.01,0,.02,0,.03,0,.02,0,.04,0,.06,0,0,0,.02,0,.03,0,.02,0,.02,0,.04,0,.01,0,.02,0,.03,0,.01,0,.03,0,.04,0,.01,0,.02,0,.04,0,.01,0,.03,0,.04,0,.01,0,.02,0,.03,0,.02,0,.02,0,.04,0,.01,0,.02,0,.03,0,.02,0,.04,0,.06,0,.01,0,.03,0,.04,0,.01,0,.03,0,.04,0,.01,0,.02,0,.04,0,.02,0,.02,0,.04,0,.01,0,.02,0,.03,0,.01,0,.03,0,.04,0,.01,0,.02,0,.04,0,.01,0,.03,0,.04,0,.01,0,.02,0,.03,0,.01,0,.03,0,.04,0,.01,0,.02,0,.03,0,.02,0,.05,0,.07,0,.01,0,.02,0,.03,0,.01,0,.03,0,.04,0,.01,0,.02,0,.04,0,.01,0,.03,0,.04,0,.01,0,.02,0,.03,0,.01,0,.03,0,.04,0,.01,0,.02,0,.03,0,.02,0,.02,0,.04,0,.01,0,.02,0,.03,0,.01,0,.03,0,.04,0,.01,0,.02,0,.03,0,.02,0,.04,0,.06,0,0,0,.02,0,.03,0,.02,0,.03,0,.04,0,.01,0,.02,0,.03,0,.01,0,.03,0,.04,0,.01,0,.02,0,.03,0,.01,0,.03,0,.04,0,.01,0,.02,0,.03,0,.02,0,.03,0,.04,0,0,0,.02,0,.03,0,.02,0,.03,0,.05,0,.01,0,.03,0,.04,0,.02,0,.03,0,.05,0,.01,0,.02,0,.03,0,.02,0,.02,0,.04,0,.01,0,.02,0,.03,0,.01,0,.03,0,.04,0,.01,0,.02,0,.03,0,.01,0,.03,0,.04,0,.01,0,.02,0,.03,0,.02,0,.03,0,.04,0,0,0,.02,0,.03,0,.02,0,.05,0,.07,0,0,0,.02,0,.03,0,.01,0,.04,0,.05,0,.01,0,.02,0,.03,0,.02,0,.02,0,.04,0,.01,0,.02,0,.03,0,.01,0,.03,0,.04,0,.01,0,.02,0,.03,0,.02,0,.02,0,.04,0,.01,0,.02,0,.03,0,.01,0,.04,0,.05,0h.02s.05,0,.07,0c0,0,.02,0,.02,0,.02,0,.03,0,.05,0,.01,0,.02,0,.03,0,.02,0,.03,0,.04,0,.01,0,.02,0,.03,0,.01,0,.03,0,.04,0,.01,0,.02,0,.03,0,.02,0,.02,0,.04,0,.01,0,.02,0,.03,0,.02,0,.03,0,.05,0,0,0,.01,0,.02,0,.02,0,.05,0,.07,0,0,0,.02,0,.03,0,.02,0,.03,0,.05,0,0,0,.02,0,.03,0,.02,0,.03,0,.04,0,.01,0,.02,0,.03,0,.01,0,.03,0,.04,0,.01,0,.02,0,.03,0,.02,0,.03,0,.04,0,0,0,.02,0,.03,0,.02,0,.05,0,.07,0,0,0,.02,0,.02,0,.02,0,.04,0,.05,0,.01,0,.02,0,.03,0,.02,0,.03,0,.04,0,0,0,.02,0,.03,0,.01,0,.03,0,.05,0,0,0,.02,0,.03,0,.02,0,.03,0,.04,0,0,0,.02,0,.03,0,.02,0,.03,0,.05,0,0,0,.02,0,.02,0,.02,0,.05,0,.07,0,0,0,.01,0,.02,0,.02,0,.04,0,.05,0,.01,0,.02,0,.03,0,.02,0,.02,0,.04,0,.01,0,.02,0,.03,0,.01,0,.03,0,.04,0,.01,0,.02,0,.03,0,.02,0,.02,0,.04,0,.01,0,.02,0,.03,0,.02,0,.03,0,.05,0,0,0,.02,0,.02,0,.02,0,.05,0,.07,0,0,0,.02,0,.03,0,.02,0,.03,0,.04,0,.01,0,.02,0,.03,0,.01,0,.03,0,.04,0,.01,0,.02,0,.03,0,.01,0,.03,0,.04,0,.01,0,.02,0,.03,0,.02,0,.03,0,.04,0,0,0,.02,0,.03,0,.02,0,.04,0,.05,0,.01,0,.02,0,.03,0,.02,0,.04,0,.05,0,.01,0,.02,0,.03,0,.02,0,.02,0,.04,0,.01,0,.02,0,.03,0,.01,0,.03,0,.04,0,0,0,.02,0,.03,0,.02,0,.03,0,.04,0,.01,0,.02,0,.03,0,.02,0,.03,0,.05,0,0,0,.02,0,.03,0,.02,0,.05,0,.07,0,0,0,0,0,.01,0,.02,0,.04,0,.06,0,0,0,.02,0,.03,0,.02,0,.03,0,.04,0,.01,0,.02,0,.03,0,.01,0,.03,0,.04,0,0,0,.02,0,.03,0,.02,0,.03,0,.04,0,0,0,.02,0,.03,0,.02,0,.04,0,.05,0,0,0,.01,0,.02,0,.02,0,.05,0,.07,0,0,0,.01,0,.02,0,.02,0,.03,0,.05,0,0,0,.02,0,.03,0,.02,0,.03,0,.05,0,0,0,.02,0,.03,0,.01,0,.03,0,.05,0,0,0,.02,0,.03,0,.02,0,.03,0,.05,0,0,0,.02,0,.03,0,.02,0,.04,0,.06,0,0,0,0,0,.01,0,.02,0,.05,0,.07,0,0,0,.02,0,.02,0,.02,0,.03,0,.05,0,0,0,.02,0,.03,0,.02,0,.03,0,.04,0,0,0,.02,0,.03,0,.02,0,.03,0,.04,0,0,0,.02,0,.03,0,.02,0,.03,0,.05,0,0,0,.02,0,.03,0,.02,0,.05,0,.07,0,0,0,.01,0,.02,0,.02,0,.04,0,.05,0,0,0,.02,0,.03,0,.02,0,.03,0,.04,0,.01,0,.02,0,.03,0,.01,0,.03,0,.04,0,0,0,.02,0,.03,0,.02,0,.03,0,.05,0,0,0,.02,0,.03,0,.02,0,.03,0,.05,0,0,0,.01,0,.02,0,.02,0,.05,0,.07,0,0,0,.01,0,.02,0,.02,0,.03,0,.06,0,0,0,.02,0,.03,0,.02,0,.03,0,.05,0,0,0,.02,0,.03,0,.01,0,.04,0,.05,0,0,0,.02,0,.03,0,.02,0,.03,0,.05,0,0,0,.02,0,.02,0,.02,0,.04,0,.06,0,0,0,0,0,.01,0,.02,0,.05,0,.07,0,0,0,.01,0,.02,0,.02,0,.03,0,.05,0,0,0,.02,0,.03,0,.02,0,.03,0,.05,0,0,0,.02,0,.03,0,.01,0,.03,0,.04,0,.01,0,.02,0,.03,0,.02,0,.03,0,.05,0,0,0,.02,0,.03,0,.02,0,.05,0,.07,0h0v-20h0Zm-85.09,36.91c-10.1,9.45-19.75,20.7-28.7,33.45l16.38,11.48c2.03-2.89,4.09-5.7,6.19-8.41,0,0,0,0,.01-.01,0-.01.03-.04.04-.05,0,0,0-.01.01-.02,0-.01.03-.04.04-.05,0,0,0,0,.01-.01.01-.02.02-.03.04-.05,0,0,.01-.01.02-.02.01-.02.02-.03.03-.04,0,0,.01-.01.02-.02.01-.02.02-.03.04-.05,0,0,.01-.01.02-.02.01-.02.02-.03.03-.04,0,0,.01-.02.02-.02,0-.01.02-.03.03-.04,0,0,.01-.02.02-.03,0-.01.02-.02.03-.03,0,0,.02-.02.02-.03,0-.01.02-.03.03-.04,0,0,.01-.02.02-.03,0-.01.02-.03.03-.04,0,0,.01-.02.02-.03,0-.01.02-.03.03-.04,0,0,.01-.02.02-.03,0-.01.02-.02.03-.03,0-.01.02-.02.02-.03,0-.01.02-.02.03-.04,0-.01.02-.02.02-.03,0-.01.02-.02.02-.03,0-.01.02-.02.03-.04,0,0,.02-.02.02-.03.01-.02.02-.03.04-.05,0,0,0,0,.01-.01.01-.02.02-.03.04-.05,0,0,.01-.02.02-.02.01-.02.02-.03.04-.05,0,0,.01-.01.01-.02.01-.02.02-.03.04-.05,0,0,0-.01.01-.02.01-.02.03-.04.04-.05,0,0,0,0,0-.01,0-.01.02-.02.03-.03.01-.02.03-.04.04-.06.03-.04.06-.07.08-.11h0s.07-.09.1-.13c0,0,0,0,0-.01.01-.02.03-.04.04-.05h0s.03-.04.04-.06c0,0,0,0,.01-.01.01-.02.03-.04.04-.05h0s.03-.04.04-.06c0,0,0,0,.01-.01.01-.02.03-.04.04-.05h0s.03-.05.05-.07h0s.03-.05.05-.07h0s.03-.04.05-.06h0s.07-.09.1-.13h0s.03-.05.05-.07h0s.03-.04.04-.06h0c3.16-3.98,6.4-7.75,9.71-11.3h0s.03-.04.05-.06h0s.03-.04.05-.06h0c.18-.2.36-.39.54-.58h0s.03-.04.05-.06c0,0,0,0,.01-.01.01-.01.03-.03.04-.04,0,0,0,0,.01-.01.01-.01.03-.03.04-.04,0,0,0,0,.01-.01.01-.01.03-.03.04-.04,0,0,.02-.02.02-.02.01-.01.02-.02.03-.03,0,0,.01-.01.02-.02.01-.01.02-.02.03-.03,0,0,.01-.01.02-.02.01-.01.02-.02.04-.04,0,0,0-.01.02-.02.01-.01.02-.02.03-.03,0,0,.01-.01.02-.02,0-.01.02-.02.03-.03,0,0,.02-.02.03-.03,0,0,.02-.02.03-.03,0,0,.02-.02.02-.03,0-.01.02-.02.03-.03,0,0,.02-.02.03-.03,0,0,.02-.02.03-.03,0,0,.02-.02.03-.03,0,0,.02-.02.02-.03.01-.01.02-.02.03-.03,0,0,.02-.02.02-.03,0,0,.02-.02.03-.03.01-.01.02-.02.03-.03,0,0,.02-.02.02-.03,0,0,.02-.02.02-.03,0,0,.02-.02.03-.03,0,0,.01-.01.02-.02,0,0,.03-.03.04-.04,0,0,0,0,0,0,.01-.01.03-.04.05-.05,0,0,0,0,0,0,.07-.07.14-.14.21-.22,0,0,0,0,0,0,.03-.03.07-.07.1-.11,0,0,0,0,0,0,.02-.02.03-.03.05-.05,0,0,0,0,0,0,.02-.02.03-.03.05-.05,0,0,0,0,0,0,.02-.02.03-.03.05-.05,0,0,0,0,0,0,.01-.01.03-.04.05-.05,0,0,0,0,0,0,.01-.01.03-.04.05-.05,0,0,0,0,0,0,.01-.01.03-.03.05-.05,0,0,0,0,0,0,.01-.01.03-.03.05-.05,0,0,0,0,0,0,.02-.02.03-.03.05-.05,0,0,0,0,0,0,.02-.02.03-.03.05-.05h0s.03-.04.05-.05h0c1.89-1.95,3.8-3.83,5.74-5.64l-13.66-14.61h0Zm-50.56,70.33c-6.07,12.08-11.71,25.11-16.75,38.73l18.76,6.94c1-2.71,2.03-5.4,3.08-8.05,0,0,0-.02,0-.02.03-.09.07-.17.1-.26,0-.02,0-.02.01-.04.02-.04.03-.09.05-.13,0-.02.01-.03.02-.04,0-.02.02-.05.03-.07,0-.02.01-.03.02-.04.02-.04.03-.08.05-.13,0-.02,0-.02.02-.05,0-.02.02-.05.03-.07,0-.02.01-.04.02-.05.01-.04.03-.07.04-.11,0-.02.02-.04.02-.06,0-.02.02-.04.03-.06.01-.03.03-.07.04-.1,0-.02.02-.04.02-.06.01-.03.02-.04.03-.07,0-.02.01-.03.02-.05.02-.04.03-.07.04-.11,0-.02.01-.03.02-.05.01-.03.03-.06.04-.09,0-.01,0-.02.01-.03.02-.04.03-.08.05-.12,0-.01,0-.02.01-.04.02-.04.03-.09.05-.13,0,0,0-.01,0-.02.02-.04.03-.08.05-.11,0-.01,0-.02.01-.03.02-.05.03-.08.05-.13,0,0,0-.01,0-.02.02-.05.03-.08.05-.12,0,0,0-.01,0-.02.02-.05.03-.09.05-.13,0,0,0-.01,0-.02.02-.05.04-.09.05-.13,0,0,0,0,0,0,.02-.05.04-.09.06-.14,0,0,0,0,0-.01.04-.09.08-.19.12-.29h0c2.41-5.93,4.92-11.7,7.54-17.28,0,0,0,0,0,0,.04-.1.08-.17.13-.27,0,0,0,0,0,0,.04-.09.08-.18.13-.27,0,0,0,0,0,0,.02-.04.04-.08.06-.13,0,0,0-.01,0-.02.02-.04.04-.08.06-.13h0s.04-.09.06-.13c0,0,0-.02.01-.03.02-.04.04-.08.06-.12,0,0,0-.01,0-.02.02-.04.03-.07.05-.1,0-.01.01-.02.02-.04.02-.04.03-.07.05-.11,0-.01.01-.03.02-.04.01-.03.03-.06.04-.09,0-.01.01-.03.02-.04.02-.04.03-.07.05-.1,0-.02.02-.03.02-.05.01-.02.03-.05.04-.08,0-.02.02-.03.02-.05.01-.03.03-.06.04-.09,0-.02.02-.04.03-.06.01-.02.02-.04.03-.07.01-.03.03-.06.04-.09.01-.02.02-.03.03-.06.01-.02.02-.04.03-.06,0-.01.02-.04.03-.05.02-.03.03-.07.05-.1,0-.01.01-.03.02-.04.04-.08.07-.15.11-.23,0,0,0-.02.01-.03.02-.05.05-.1.07-.15h0s.03-.07.04-.1h0c.03-.06.05-.12.08-.17h0c.82-1.71,1.65-3.4,2.49-5.07l-17.87-8.98h0Zm-29.41,78.58c-3.52,13.08-6.61,26.72-9.19,40.56l19.66,3.66c.4-2.15.81-4.29,1.24-6.42,0,0,0,0,0,0,0-.05.02-.1.03-.15,0,0,0,0,0,0,.02-.1.04-.19.06-.3,0,0,0-.02,0-.03.02-.09.04-.2.06-.29,0,0,0-.01,0-.02,0-.04.02-.09.03-.13,0,0,0-.02,0-.03,0-.05.02-.09.03-.14,0,0,0-.01,0-.02,0-.04.02-.08.02-.12,0-.01,0-.03,0-.04,0-.03.02-.08.02-.11,0-.01,0-.02,0-.03,0-.04.02-.1.03-.14,0-.01,0-.02,0-.04,0-.03.02-.08.02-.11,0-.02,0-.03,0-.05,0-.04.02-.08.02-.12,0,0,0-.01,0-.02,0-.05.02-.09.03-.14,0-.01,0-.03,0-.04,0-.04.01-.06.02-.1,0-.02,0-.03,0-.05,0-.05.02-.08.03-.13,0-.02,0-.03,0-.05,0-.03.01-.07.02-.09,0-.02,0-.03.01-.05,0-.03.01-.07.02-.1,0-.02,0-.03,0-.05,0-.04.02-.09.03-.12,0-.02,0-.04.01-.06,0-.03,0-.04.01-.07,0-.02,0-.05.01-.07,0-.03,0-.04.01-.07,0-.04.02-.09.03-.13,0,0,0-.04,0-.05,0-.03.01-.06.02-.08,0-.02,0-.03,0-.05,0-.03.01-.06.02-.09,0,0,0,0,0-.02.01-.06.03-.12.04-.19,0,0,0-.03,0-.03,0-.03.01-.06.02-.09,0,0,0-.02,0-.03.02-.1.04-.2.06-.3,0-.02,0-.01,0-.03,0-.03.01-.07.02-.1h0c.02-.11.05-.22.07-.33v-.02c.03-.11.05-.22.07-.32h0s.01-.07.02-.11v-.02c.03-.11.05-.21.07-.32h0c1.95-9.31,4.12-18.39,6.5-27.22l-19.31-5.2h0Zm-15.28,81.52c-1.52,13.52-2.61,27.38-3.24,41.21l19.98.9c.21-4.6.47-9.18.78-13.73,0,0,0,0,0,0,0-.05,0-.09,0-.14,0,0,0,0,0,0,0-.1.01-.2.02-.3,0,0,0-.02,0-.02,0-.04,0-.09,0-.13,0,0,0-.01,0-.02,0-.04,0-.09,0-.13,0,0,0-.01,0-.02,0-.05,0-.1.01-.15,0,0,0,0,0,0,0-.04,0-.09,0-.13,0-.02,0-.04,0-.05,0-.04,0-.05,0-.09,0-.02,0-.03,0-.05,0-.03,0-.06,0-.09,0-.02,0-.04,0-.05,0-.04,0-.09,0-.13,0-.02,0-.04,0-.05,0-.03,0-.06,0-.09,0-.02,0-.04,0-.06,0-.02,0-.06,0-.08,0-.02,0-.04,0-.06,0-.03,0-.05,0-.08,0-.04,0-.07,0-.11,0-.03,0-.06,0-.09,0-.02,0-.04,0-.06,0-.03,0-.05,0-.08,0-.02,0-.05,0-.07,0-.02,0-.05,0-.07,0-.02,0-.05,0-.07,0-.01,0-.04,0-.05,0-.06,0-.12.01-.18,0-.01,0-.01,0-.02,0-.03,0-.06,0-.09,0-.02,0-.03,0-.05,0-.03,0-.06,0-.09,0-.01,0-.03,0-.04,0-.03,0-.06,0-.1h0c0-.08.01-.15.02-.23,0-.01,0-.02,0-.03,0-.03,0-.07,0-.1,0-.01,0-.02,0-.03,0-.03,0-.07,0-.11,0-.01,0-.01,0-.02.01-.16.02-.31.04-.47h0c.01-.17.02-.33.04-.5h0c.34-4.53.73-9.02,1.17-13.48h0s0-.08.01-.12h0c0-.05,0-.09.01-.13h0c0-.08.02-.16.02-.24h0s0-.08.01-.11v-.02s0-.07.01-.1c0-.01,0-.03,0-.04,0-.1.02-.19.03-.29,0-.02,0-.04,0-.06,0-.02,0-.04,0-.07,0-.02,0-.06,0-.08,0-.02,0-.04,0-.06,0-.03,0-.05,0-.08,0-.02,0-.04,0-.06,0-.04,0-.09.01-.13,0-.01,0-.03,0-.04,0-.03,0-.07.01-.1,0-.02,0-.03,0-.05,0-.04,0-.06,0-.1,0-.02,0-.03,0-.04,0-.05,0-.09.01-.14h0c0-.05.01-.1.02-.15,0,0,0,0,0-.01,0-.04,0-.09.01-.13,0,0,0-.02,0-.03,0-.04,0-.09.01-.13,0,0,0-.01,0-.02.02-.15.03-.3.05-.45h0c.18-1.69.36-3.37.55-5.05l-19.87-2.24h0Zm16.23,82.11l-20,.38c.27,13.81.99,27.69,2.14,41.25l19.93-1.7c-.34-4.03-.65-8.09-.91-12.16,0,0,0,0,0,0,0-.04,0-.1,0-.14,0,0,0,0,0-.02,0-.14-.02-.31-.03-.46,0,0,0,0,0,0,0-.05,0-.09,0-.15,0,0,0,0,0-.01-.01-.2-.03-.41-.04-.61,0,0,0-.01,0-.02,0-.15-.02-.31-.03-.45,0,0,0,0,0,0,0-.04,0-.09,0-.14,0,0,0-.02,0-.02,0-.15-.02-.31-.03-.45,0,0,0,0,0-.01,0-.04,0-.09,0-.13,0,0,0-.02,0-.03,0-.15-.02-.31-.03-.45,0,0,0,0,0,0,0-.05,0-.09,0-.15,0,0,0,0,0-.01,0-.16-.02-.3-.03-.46,0,0,0,0,0,0,0-.05,0-.09,0-.14,0,0,0-.01,0-.02-.01-.2-.02-.41-.03-.61,0,0,0,0,0-.01-.01-.21-.02-.41-.03-.61,0,0,0,0,0,0-.42-7.48-.7-15.02-.85-22.64h0Zm6.83,79.65l-19.76,3.08c2.16,13.84,4.82,27.55,7.91,40.75l19.47-4.56c-2.97-12.66-5.52-25.77-7.62-39.26h0Zm18.37,77.77l-19.01,6.22c4.48,13.7,9.53,26.9,15.02,39.25l18.28-8.12c-2.45-5.5-4.79-11.16-7.04-16.98,0,0,0,0,0,0-.02-.05-.04-.09-.05-.14,0,0,0,0,0,0-.02-.05-.03-.09-.05-.14,0,0,0,0,0,0-.02-.05-.03-.09-.05-.13,0,0,0-.02,0-.02-.02-.04-.03-.08-.05-.12,0,0,0,0,0-.01-.02-.04-.03-.09-.05-.13,0-.01,0-.02-.01-.03-.02-.04-.03-.07-.04-.11,0-.01,0-.02-.01-.03-.02-.04-.03-.08-.05-.12,0-.01-.01-.03-.02-.04-.01-.03-.02-.06-.03-.09,0-.02-.01-.04-.02-.06-.01-.03-.03-.07-.04-.1,0-.02-.01-.03-.02-.05-.01-.03-.02-.06-.03-.09,0-.03-.02-.05-.03-.08l-.03-.07s-.02-.04-.02-.06c0-.02-.02-.05-.03-.08-.01-.03-.02-.06-.03-.09,0-.02-.02-.04-.03-.07,0-.02-.02-.04-.02-.06,0-.02-.02-.05-.03-.07-.01-.03-.02-.06-.04-.1,0-.02-.01-.04-.02-.06,0-.02-.02-.05-.03-.07,0-.02-.01-.03-.02-.04-.02-.04-.03-.09-.05-.13,0-.02-.01-.03-.02-.04,0-.02-.02-.05-.03-.07,0-.02-.01-.04-.02-.05-.02-.04-.03-.08-.04-.12,0-.02-.01-.03-.02-.05,0-.02-.02-.05-.03-.07,0-.02-.01-.03-.02-.05-.02-.04-.03-.09-.05-.13,0-.02,0-.01-.01-.03-.03-.09-.07-.17-.1-.26,0-.02,0-.01-.01-.03-.03-.09-.07-.18-.1-.27h0c-2.05-5.47-4.01-11.07-5.89-16.79h0Zm32.74,72.8l-17.07,10.41c7.96,13.06,16.61,24.87,25.7,35.12l14.96-13.28c-7.31-8.24-14.27-17.55-20.81-27.8h0c-.35-.55-.7-1.1-1.05-1.66,0,0,0,0,0,0-.12-.19-.23-.36-.35-.55h0s-.06-.09-.08-.13c0,0,0,0,0,0-.01-.02-.03-.04-.04-.06,0,0,0,0,0,0-.01-.02-.02-.04-.04-.06,0,0,0-.01,0-.02-.01-.02-.02-.04-.04-.06,0,0,0,0,0-.01-.01-.02-.03-.04-.04-.06,0,0,0,0,0-.01-.01-.02-.02-.04-.04-.06,0,0,0,0,0-.01-.01-.02-.02-.04-.04-.06,0,0,0-.01-.01-.02-.05-.08-.1-.17-.15-.25,0,0,0-.02-.01-.02,0-.01-.02-.03-.03-.04,0-.01-.01-.02-.02-.03,0-.01-.02-.03-.02-.04,0-.01-.01-.02-.02-.03,0-.01-.02-.02-.02-.04,0-.01-.02-.03-.02-.04,0-.01-.01-.02-.02-.03,0-.02-.02-.03-.03-.05,0-.01-.01-.02-.02-.03,0-.01-.02-.03-.03-.04,0-.01-.01-.02-.02-.03,0-.01-.02-.03-.02-.04,0-.01-.01-.02-.02-.04,0-.01-.02-.03-.03-.04,0,0-.01-.02-.02-.03-.01-.02-.02-.04-.03-.05,0,0,0-.01-.01-.02-.03-.05-.06-.1-.09-.15,0,0,0-.01-.01-.02-.01-.02-.02-.04-.04-.06,0,0,0,0,0-.01-.01-.02-.02-.04-.04-.06,0,0-.01-.02-.02-.03,0-.02-.02-.03-.03-.05,0-.01,0-.02-.02-.03,0-.01-.02-.03-.03-.04,0-.01-.01-.02-.02-.03,0-.02-.02-.03-.03-.05,0-.01,0-.01-.01-.02-.01-.02-.02-.04-.03-.05,0,0,0-.01-.01-.02-.01-.02-.03-.04-.04-.06h0s-.04-.07-.05-.1h0Zm53.53,58.59l-10.94,16.74c14.08,9.21,28.89,15.3,44.01,18.11l3.66-19.66c-9.74-1.81-19.23-5.27-28.39-10.22h0c-.14-.08-.28-.15-.42-.23,0,0,0,0,0,0-.02-.01-.05-.02-.07-.04,0,0,0,0,0,0-.11-.06-.24-.13-.35-.19,0,0,0,0,0,0-.02-.01-.04-.02-.07-.04,0,0,0,0,0,0-.02-.01-.05-.02-.07-.04,0,0,0,0,0,0-.09-.05-.18-.1-.28-.15,0,0,0,0-.01,0-.02,0-.04-.02-.06-.03,0,0,0,0-.01,0-.02-.01-.03-.02-.05-.03,0,0-.01,0-.02,0-.02,0-.04-.02-.05-.03,0,0,0,0-.01,0-.02-.01-.04-.02-.06-.03,0,0,0,0,0,0-.04-.02-.09-.05-.14-.08,0,0-.01,0-.02,0-.02,0-.03-.02-.05-.03,0,0-.01,0-.02-.01-.02,0-.03-.02-.05-.03,0,0-.01,0-.02-.01-.02,0-.03-.02-.05-.03,0,0-.01,0-.02-.01-.02,0-.03-.02-.05-.03,0,0-.01,0-.02-.01-.02-.01-.04-.02-.06-.03,0,0,0,0,0,0-.02-.01-.05-.03-.07-.04,0,0,0,0,0,0-.02,0-.04-.02-.06-.03,0,0-.02,0-.03-.01-.02,0-.02-.01-.04-.02-.01,0-.02-.01-.03-.02-.01,0-.03-.01-.04-.02,0,0-.02-.01-.03-.02-.01,0-.03-.02-.04-.02,0,0-.02-.01-.03-.02-.02,0-.02-.01-.04-.02,0,0-.02-.01-.03-.02-.01,0-.03-.02-.04-.02,0,0-.02-.01-.03-.02-.02-.01-.04-.02-.06-.03,0,0-.02,0-.02-.01-.01,0-.03-.02-.04-.02-.01,0-.02-.01-.04-.02-.01,0-.02,0-.03-.02-.01,0-.03-.01-.04-.02-.01,0-.01,0-.02-.01-.01,0-.03-.02-.04-.02-.01,0-.01,0-.02-.01-.01,0-.03-.02-.04-.02,0,0-.01,0-.02-.01-.05-.03-.11-.06-.16-.09,0,0,0,0,0,0-.02,0-.03-.02-.05-.03,0,0-.01,0-.02-.01-.01,0-.03-.02-.04-.03-.01,0,0,0-.02-.01-.01,0-.03-.02-.04-.03-.01,0,0,0-.02-.01-.01,0-.03-.02-.04-.03,0,0-.01,0-.02,0-.02,0-.03-.02-.05-.03h0c-.06-.04-.12-.07-.17-.1h0s-.04-.02-.05-.04h0s-.04-.03-.05-.04h0s-.04-.03-.05-.04h0s-.04-.03-.06-.04h0c-1.52-.9-3.03-1.84-4.53-2.82h0Zm111.82-4.57c-3.12,2.33-6.28,4.48-9.49,6.45h0c-.16.1-.32.2-.48.29h0s-.04.03-.06.04h0s-.04.03-.06.04h0s-.04.03-.06.04h0c-.1.06-.2.12-.3.18h0s-.04.02-.06.03h0s-.04.02-.05.03h-.01s-.04.03-.05.04h0c-.12.07-.24.14-.36.21h0s-.04.02-.05.03h-.01s-.03.03-.05.04h-.01s-.04.03-.05.04h0c-.1.06-.19.12-.29.18h0s-.03.02-.05.03c0,0,0,0-.01,0-.02,0-.03.02-.05.03h-.01s-.03.03-.05.04h0s-.04.03-.05.04h0c-.1.06-.2.11-.29.17,0,0,0,0-.01,0-.02,0-.03.02-.05.03h-.01s-.03.03-.05.04h-.01s-.03.03-.05.04c0,0-.01,0-.02,0-.02,0-.03.02-.05.03,0,0,0,0-.01,0-.07.04-.15.09-.22.13,0,0,0,0-.01,0-.02,0-.03.02-.05.03,0,0,0,0-.01,0-.02,0-.03.02-.05.03,0,0,0,0-.01,0-.02,0-.03.02-.05.03,0,0,0,0-.01,0-.02,0-.03.02-.05.03,0,0-.01,0-.02,0-.02,0-.03.02-.05.03h0c-.08.05-.15.09-.23.13,0,0,0,0-.01,0-.02,0-.03.02-.05.03,0,0-.01,0-.02.01-.02,0-.03.02-.04.03-.01,0,0,0-.02.01-.02,0-.03.02-.04.02-.01,0-.01,0-.02.01-.01,0-.03.02-.04.02,0,0-.01,0-.02,0-.02,0-.03.02-.05.03h0c-.06.03-.12.07-.18.1h0s-.03.02-.05.03c0,0-.01,0-.02.01-.01,0-.03.02-.04.02-.01,0-.01,0-.02.01-.01,0-.03.02-.04.02-.01,0-.01,0-.02.01-.01,0-.03.02-.04.02,0,0-.01,0-.02.01-.02,0-.03.02-.04.02,0,0-.01,0-.02.01-.07.04-.14.08-.21.12,0,0-.01,0-.02.01-.01,0-.03.01-.04.02-.01,0-.01,0-.02.01-.01,0-.03.01-.04.02-.01,0-.02.01-.03.02-.01,0-.02.01-.04.02-.01,0-.02,0-.03.01-.01,0-.03.01-.04.02,0,0-.02,0-.02.01-.01,0-.03.02-.04.02,0,0,0,0-.02,0-.06.03-.11.06-.17.09h0s-.03.02-.05.03c0,0-.01,0-.02,0-.01,0-.03.01-.04.02-.01,0-.01,0-.02.01-.01,0-.03.02-.04.02-.01,0-.01,0-.02.01-.01,0-.03.01-.04.02-.01,0-.01,0-.02.01-.01,0-.03.02-.04.02,0,0-.02,0-.02.01-.01,0-.03.02-.04.02,0,0,0,0-.02,0-.05.03-.1.06-.15.08,0,0-.01,0-.02,0-.01,0-.03.02-.04.02,0,0-.02.01-.02.01-.01,0-.03.01-.04.02-.01,0-.01,0-.02.01-.01,0-.03.01-.04.02-.01,0-.01,0-.02.01-.01,0-.03.01-.04.02,0,0-.02,0-.02.01-.01,0-.03.01-.04.02,0,0-.02,0-.02.01-.01,0-.03.02-.04.02h0s-.07.04-.1.06c0,0-.02,0-.02.01-.01,0-.03.01-.04.02,0,0-.02.01-.03.01-.01,0-.03.01-.04.02,0,0-.02,0-.02.01-.01,0-.03.01-.04.02-.01,0-.02,0-.03.01-.01,0-.03.01-.04.02-.01,0-.01,0-.02.01-.01,0-.03.01-.04.02-.01,0-.02,0-.03.01-.01,0-.03.01-.04.02,0,0-.02.01-.02.01-.01,0-.03.01-.04.02,0,0,0,0-.01,0-.03.01-.06.03-.08.04-.01,0-.02.01-.03.02-.01,0-.03.01-.04.02,0,0-.02.01-.02.01-.01,0-.03.01-.04.02-.01,0-.02,0-.03.01-.01,0-.03.01-.04.02-.01,0-.02,0-.03.01-.01,0-.03.01-.04.02-.01,0-.02,0-.03.01-.01,0-.02.01-.04.02,0,0-.02.01-.03.01-.01,0-.03.01-.04.02,0,0-.02,0-.02.01-.02.01-.05.03-.07.04-.01,0-.02,0-.03.01-.01,0-.03.01-.04.02,0,0-.02.01-.03.01-.01,0-.03.01-.04.02,0,0-.02.01-.03.01-.01,0-.03.01-.04.02-.01,0-.02,0-.03.01-.01,0-.02.01-.04.02-.01,0-.02.01-.03.02-.01,0-.02.01-.04.02-.01,0-.02,0-.03.01-.01,0-.03.01-.04.02,0,0-.02,0-.02.01-.01,0-.03.01-.04.02,0,0-.01,0-.02,0-.03.01-.05.03-.08.04-.01,0-.02,0-.03.01-.01,0-.03.01-.04.02,0,0-.02.01-.03.01-.01,0-.03.01-.04.02-.01,0-.01,0-.02.01-.01,0-.03.01-.04.02-.01,0-.02,0-.03.01-.01,0-.03.01-.04.02-.01,0-.01,0-.03.01-.01,0-.03.01-.04.02,0,0-.02.01-.03.01-.01,0-.03.01-.04.02-.01,0-.02,0-.03.01-.01,0-.02.01-.04.02-.01,0-.02.01-.03.02-.02.01-.04.02-.06.03-.01,0-.02.01-.03.02-.01,0-.02.01-.04.02,0,0-.02.01-.03.01-.01,0-.02.01-.03.02-.01,0-.02.01-.03.02-.01,0-.02.01-.03.02-.01,0-.02.01-.03.02s-.02.01-.03.02c-.01,0-.03.01-.04.02-.01,0-.02.01-.03.02-.02,0-.03.01-.04.02,0,0-.01,0-.02.01-.02,0-.03.02-.05.02,0,0-.02,0-.03.01-.02,0-.04.02-.05.03,0,0-.02,0-.03.01-.01,0-.03.01-.04.02-.01,0-.02.01-.03.02-.02,0-.02,0-.03.02-.01,0-.02.01-.03.02-.01,0-.02,0-.03.01-.01,0-.02.01-.04.02-.01,0-.02.01-.03.02-.01,0-.02.01-.03.02-.02,0-.02,0-.04.02,0,0-.02,0-.03.01-.01,0-.03.01-.04.02,0,0-.02,0-.03.01-.02,0-.03.01-.04.02-.02,0-.03.02-.05.02-.01,0-.03.01-.04.02,0,0-.02,0-.03.01-.02,0-.02.01-.04.02,0,0-.02,0-.03.01-.02,0-.02.01-.04.02-.01,0-.02.01-.03.01-.01,0-.02.01-.03.02-.01,0-.02.01-.03.02-.01,0-.03.01-.04.02,0,0-.02,0-.03.01-.02,0-.03.01-.04.02,0,0-.02,0-.03.01-.02,0-.03.01-.05.02,0,0-.01,0-.02,0-.02,0-.04.02-.06.03-.01,0-.03.01-.04.02-.01,0-.02.01-.03.02-.01,0-.02.01-.04.02,0,0-.02.01-.03.01-.01,0-.02.01-.04.02-.01,0-.02,0-.03.01-.01,0-.02.01-.04.02-.01,0-.02,0-.03.01-.01,0-.03.01-.04.02-.01,0-.02,0-.03.01-.01,0-.02.01-.04.02,0,0-.02.01-.03.01-.01,0-.02.01-.04.02-.01,0-.02,0-.03.01-.02.01-.04.02-.07.03-.01,0-.02,0-.03.01-.01,0-.02.01-.03.02-.01,0-.02.01-.03.02-.01,0-.02.01-.03.02-.02,0-.02,0-.03.02-.01,0-.02.01-.03.02-.01,0-.02.01-.03.02,0,0-.02,0-.03.01-.01,0-.03.01-.04.02-.01,0-.02,0-.03.01-.02,0-.02,0-.04.02,0,0-.02,0-.03.01-.01,0-.03.01-.04.02,0,0-.02,0-.03.01-.02,0-.04.02-.07.03,0,0,0,0-.01,0-.02,0-.04.02-.05.02-.01,0-.02,0-.03.02-.02,0-.02,0-.03.02-.01,0-.02.01-.03.02-.01,0-.02.01-.03.02-.01,0-.02.01-.03.02-.01,0-.02.01-.03.02-.01,0-.02.01-.03.02-.01,0-.02,0-.03.01-.01,0-.03.01-.04.02,0,0-.02.01-.03.01-.01,0-.03.01-.04.02-.01,0-.02,0-.03.01-.01,0-.02.01-.04.02,0,0,0,0-.01,0-.03.01-.06.03-.08.04-.01,0-.02,0-.03.01-.01,0-.02.01-.04.02-.01,0-.02,0-.03.01-.01,0-.02.01-.03.02-.01,0-.02.01-.03.01-.01,0-.02.01-.04.02-.01,0-.02,0-.03.01-.01,0-.02.01-.04.02-.01,0-.02,0-.03.01-.01,0-.03.01-.04.02,0,0-.02,0-.02.01-.01,0-.03.01-.04.02,0,0-.02,0-.02,0-.03.01-.06.03-.09.04,0,0,0,0-.01,0-.01,0-.03.01-.04.02,0,0-.02,0-.02.01-.01,0-.03.01-.04.02-.01,0-.02,0-.03.01-.01,0-.02.01-.04.02-.01,0-.02,0-.03.01-.01,0-.03.01-.04.02-.01,0-.02,0-.03.01-.01,0-.03.01-.04.02,0,0-.02,0-.02.01-.01,0-.03.01-.04.02,0,0-.02,0-.02.01-.01,0-.03.01-.04.02,0,0,0,0-.01,0-.03.01-.06.03-.09.04-.01,0-.02,0-.03.01-.01,0-.02.01-.03.02-.01,0-.02,0-.03.01-.01,0-.02.01-.04.02-.01,0-.02,0-.03.01-.01,0-.02.01-.03.02-.01,0-.02,0-.03.01-.01,0-.02.01-.03.02-.01,0-.02,0-.03.01-.01,0-.02.01-.04.02-.01,0-.02,0-.03.01-.01,0-.03.01-.04.02,0,0-.01,0-.02,0-.05.02-.1.04-.15.07,0,0-.02,0-.03.01-.01,0-.03.01-.04.02,0,0-.02,0-.03.01-.01,0-.03.01-.04.02-.01,0-.02,0-.03.01-.01,0-.03.01-.04.02-.01,0-.02,0-.03.01-.01,0-.03.01-.04.02-.01,0-.01,0-.02.01-.01,0-.03.01-.04.02,0,0-.01,0-.02,0-.02,0-.03.01-.05.02h0s-.07.03-.1.05c0,0-.01,0-.02,0-.01,0-.03.01-.04.02,0,0-.02,0-.02,0-.01,0-.03.01-.04.02,0,0-.02,0-.02.01-.01,0-.03.01-.04.02-.01,0-.01,0-.02.01-.01,0-.03.01-.04.02-.01,0-.02,0-.03.01-.01,0-.03.01-.04.02,0,0-.02,0-.02,0-.01,0-.03.01-.04.02,0,0-.01,0-.02,0-.06.02-.11.05-.17.07h0s-.03.01-.05.02c0,0-.01,0-.02,0-.02,0-.03.01-.05.02,0,0-.01,0-.02,0-.02,0-.03.01-.05.02-.01,0,0,0-.02,0-.02,0-.03.01-.05.02,0,0-.01,0-.02,0-.02,0-.03.01-.05.02,0,0-.01,0-.02,0-.02,0-.03.01-.05.02h0c-.06.03-.12.05-.18.08h0s-.03.02-.05.02c0,0-.01,0-.02,0-.01,0-.03.01-.04.02-.01,0-.01,0-.02,0-.02,0-.03.01-.05.02-.01,0,0,0-.02,0-.02,0-.03.01-.05.02,0,0-.01,0-.02,0-.02,0-.03.01-.05.02,0,0,0,0-.01,0-.1.04-.2.08-.29.12,0,0,0,0-.01,0-.02,0-.03.01-.05.02h-.01s-.03.02-.05.03h-.01s-.03.02-.05.03h-.01s-.04.02-.05.03h0c-.08.03-.16.07-.24.1h0s-.04.02-.06.02h0s-.04.02-.06.03h0s-.04.02-.06.03h0s-.04.02-.06.03h0c-.12.05-.24.1-.37.15h0s-.04.02-.06.02h0s-.04.02-.06.03h0c-3.11,1.23-6.25,2.29-9.41,3.18l5.38,19.26c14.52-4.05,28.68-11.18,42.08-21.19l-11.97-16.02h0Zm51.05-60.88c-2.33,4.08-4.71,8.02-7.16,11.84,0,0,0,0,0,0-.02.02-.02.04-.04.06,0,0,0,0,0,.01-.1.16-.19.3-.29.46,0,0,0,0,0,0-.01.02-.02.03-.03.05,0,0,0,.01-.01.02-.01.02-.02.03-.03.05,0,0,0,.01-.01.02,0,.01-.02.04-.03.05,0,0,0,.01-.01.02-.01.02-.02.03-.03.05,0,0-.01.02-.02.03,0,.01-.02.03-.03.04,0,.01-.02.03-.02.04,0,0-.02.03-.02.03,0,.01-.01.02-.02.03-.02.02-.04.06-.05.08,0,0,0,.02-.01.02,0,0-.02.03-.02.03,0,.01-.02.03-.03.04,0,0-.01.02-.02.03,0,.01-.02.03-.03.04,0,.01-.01.02-.02.03,0,.01-.02.03-.03.04,0,.01-.01.02-.02.03,0,.01-.02.03-.03.04,0,.01,0,.01-.02.03-.01.02-.02.04-.04.05,0,0,0,0,0,.01-.01.02-.03.04-.04.06,0,0,0,0,0,.01-.05.07-.1.15-.14.22h0s-.03.05-.05.07h0s-.03.05-.04.07h0s-.03.05-.04.07v.02s-.04.04-.05.06h0s-.03.06-.05.08h0c-.1.15-.19.29-.29.44h0s-.03.06-.04.08h0c-4.36,6.62-8.89,12.82-13.59,18.57l15.49,12.65c8.63-10.57,16.82-22.6,24.34-35.77l-17.37-9.92h0Zm31.11-73.54c-.89,2.88-1.79,5.74-2.72,8.56,0,0,0,0,0,0-.02.05-.03.09-.05.15,0,0,0,0,0,.01-.01.04-.03.1-.05.14,0,0,0,0,0,0-.02.05-.03.09-.05.14,0,0,0,.01,0,.02-.01.04-.03.08-.04.12,0,0,0,.01,0,.02-.01.04-.03.09-.05.14,0,0,0,.02,0,.02-.01.03-.03.08-.04.11,0,.01,0,.02-.01.03-.01.04-.03.08-.04.12,0,.01-.01.03-.02.05-.01.03-.02.05-.03.08l-.02.06s-.03.08-.04.11c0,.02-.01.04-.02.06,0,.02-.02.05-.02.07,0,.02-.01.04-.02.06-.01.03-.02.07-.04.11l-.02.07s-.01.03-.02.05c-.01.04-.03.09-.04.13,0,.02,0,.03-.01.04,0,.03-.02.05-.03.08,0,.02,0,.02-.01.04-.03.09-.06.18-.09.27,0,.02,0,.01,0,.03-.03.09-.06.19-.1.28h0c-1.72,5.11-3.51,10.12-5.38,15.01h0c-.04.1-.07.19-.11.29h0c-.02.07-.04.13-.07.18h0s-.02.07-.03.1c0,0,0,.02,0,.03-.02.05-.04.1-.06.15,0,0,0,.02-.01.03-.01.03-.02.05-.03.08,0,.02,0,.02-.01.04-.02.04-.03.09-.05.13,0,.02-.01.03-.02.04,0,.02-.02.05-.03.07,0,.02-.01.03-.02.05-.02.04-.03.08-.05.12,0,.02-.01.03-.02.05,0,.02-.02.05-.03.07,0,.02-.01.03-.02.06-.01.03-.02.05-.03.08-.01.03-.02.05-.03.09,0,.02-.01.04-.02.05,0,.02-.02.06-.03.08,0,.02-.01.03-.02.05-.02.04-.03.07-.04.11,0,.01-.01.03-.02.04-.01.03-.02.06-.04.09,0,.01,0,.02-.01.04-.02.04-.03.08-.04.11,0,.01-.01.03-.02.04-.01.03-.02.06-.04.09,0,.01,0,.02-.01.03-.02.04-.03.08-.05.12,0,.01,0,.02-.01.03-.02.04-.03.08-.05.12,0,0,0,0,0,0-.02.04-.04.09-.05.13,0,0,0,.01,0,.02-.02.04-.03.08-.05.12,0,0,0,0,0,.01-.02.04-.04.09-.05.13,0,0,0,.01,0,.02-.04.1-.07.18-.11.27,0,0,0,0,0,0-1.06,2.71-2.14,5.39-3.25,8.03l18.45,7.72c5.21-12.47,9.99-25.74,14.21-39.46l-19.12-5.87h0Zm17.13-78.06c-.42,2.98-.86,5.94-1.33,8.88v.02s-.01.07-.02.11h0c-.01.07-.02.14-.03.2,0,0,0,.03,0,.04,0,.03,0,.06-.01.09,0,.02,0,.02,0,.04,0,.03,0,.06-.01.09,0,0,0,.03,0,.04,0,.05-.02.1-.02.14,0,.02,0,.05-.01.07,0,.02,0,.05-.01.07,0,.02,0,.05-.01.07,0,.02,0,.05-.01.07,0,.02,0,.05-.01.07,0,.04-.01.08-.02.12,0,.03,0,.04-.01.07,0,.02,0,.04-.01.07,0,.02,0,.05-.01.07,0,.02,0,.04-.01.06,0,.04-.01.08-.02.12,0,.01,0,.02,0,.04,0,.04-.01.07-.02.11,0,.02,0,.03,0,.05,0,.04,0,.06-.02.1,0,.01,0,.03,0,.04,0,.05-.01.09-.02.14,0,0,0,.02,0,.02,0,.04-.01.08-.02.12,0,.01,0,.02,0,.04,0,.04-.01.07-.02.11,0,.01,0,.02,0,.04,0,.05-.02.1-.02.14,0,0,0,0,0,0,0,.05-.02.1-.02.15,0,0,0,.01,0,.02,0,.05-.01.09-.02.14,0,0,0,0,0,0-.02.11-.03.2-.05.3,0,0,0,0,0,.01-.03.15-.05.3-.07.45,0,0,0,0,0,.01-.63,3.83-1.3,7.64-2,11.4h0c-.03.15-.06.3-.08.45,0,0,0,0,0,0-.02.1-.04.2-.06.3,0,0,0,0,0,0,0,.05-.02.08-.02.13,0,.01,0,.02,0,.03-.02.1-.04.19-.05.29,0,0,0,.01,0,.02,0,.05-.02.08-.02.13,0,0,0,.01,0,.02,0,.04-.02.1-.03.13,0,0,0,.01,0,.02,0,.05-.02.09-.03.14,0,.01,0,.03,0,.04,0,.03-.01.07-.02.1,0,.02,0,.03,0,.05,0,.03-.01.07-.02.1,0,.02,0,.03,0,.04,0,.04-.02.08-.02.12,0,.02,0,.04-.01.06,0,.03,0,.05-.02.08,0,.02,0,.04-.01.05,0,.03-.01.06-.02.09,0,.03-.01.06-.02.08,0,.03-.01.06-.02.09,0,.02,0,.05-.01.07,0,.02,0,.04-.01.06,0,.03-.01.05-.02.08,0,0,0,.04,0,.05-.01.06-.02.11-.03.17,0,0,0,.01,0,.02,0,.03-.01.06-.02.09,0,.02,0,.02,0,.04,0,.03-.01.06-.02.09,0,0,0,.01,0,.02-.02.11-.04.21-.06.32h0c-.77,3.98-1.58,7.92-2.43,11.82l19.54,4.26c2.89-13.25,5.34-26.98,7.3-40.83l-19.8-2.8h0Zm5.76-79.73s0,0,0,.01c0,.04,0,.08,0,.13,0,0,0,.02,0,.03,0,.05,0,.09,0,.14,0,0,0,0,0,0,0,.04,0,.1,0,.14,0,.02,0,.04,0,.05,0,.03,0,.06,0,.09,0,.02,0,.04,0,.07,0,.02,0,.05,0,.08,0,.02,0,.05,0,.07,0,.03,0,.04,0,.07,0,.05,0,.1,0,.15,0,.02,0,.04,0,.06,0,.03,0,.06,0,.08,0,.01,0,.04,0,.05,0,.03,0,.07,0,.1,0,.02,0,.02,0,.04,0,.03,0,.07,0,.1v.02c0,.17,0,.33,0,.49h0c-.08,8.14-.32,16.2-.7,24.18h0s0,.09,0,.13h0c0,.17-.02.34-.02.5h0s0,.08,0,.12v.02c0,.16-.02.32-.02.48,0,.01,0,.01,0,.02,0,.04,0,.07,0,.11v.02s0,.08,0,.12h0c0,.12-.01.24-.02.36,0,.01,0,.01,0,.02,0,.03,0,.07,0,.1,0,.02,0,.02,0,.04,0,.03,0,.06,0,.1,0,.01,0,.03,0,.04,0,.03,0,.06,0,.09,0,.01,0,.02,0,.03,0,.07,0,.13-.01.2,0,.01,0,.01,0,.03,0,.03,0,.07,0,.1,0,.01,0,.02,0,.03,0,.03,0,.06,0,.1,0,.01,0,.03,0,.04,0,.11-.01.23-.02.34h0s0,.08,0,.11c0,.01,0,.03,0,.04,0,.03,0,.07,0,.1,0,.01,0,.02,0,.03,0,.04,0,.07,0,.11h0c0,.13-.01.25-.02.37h0s0,.09,0,.12v.02s0,.07,0,.11h0c0,.13-.01.24-.02.36,0,.01,0,.01,0,.02,0,.04,0,.07,0,.11v.02s0,.07,0,.11v.02c0,.12-.01.24-.02.36h0s0,.08,0,.11v.03s0,.07,0,.11h0c0,.17-.02.33-.03.5h0c0,.05,0,.09,0,.13h0c0,.17-.02.33-.03.49h0c0,.05,0,.09,0,.13h0c0,.18-.02.34-.03.5h0s0,.08,0,.12v.02c-.13,2.19-.28,4.36-.43,6.54l19.95,1.43c.97-13.58,1.51-27.47,1.6-41.27l-20-.13h0Zm15.15-82.33l-19.84,2.51c.83,6.59,1.56,13.26,2.18,20,0,0,0,0,0,.01.01.15.03.31.04.46,0,0,0,0,0,0,0,.05,0,.09.01.14,0,0,0,0,0,.01,0,.09.02.21.03.3,0,0,0,0,0,0,0,.04,0,.1.01.15,0,0,0,.01,0,.02,0,.04,0,.09.01.13,0,0,0,.01,0,.02,0,.1.02.2.03.3,0,0,0,.01,0,.02,0,.04,0,.09.01.13,0,.01,0,.02,0,.03,0,.03,0,.08.01.12,0,.01,0,.02,0,.03,0,.1.02.18.03.28,0,.02,0,.03,0,.05,0,.04,0,.06,0,.1,0,.01,0,.03,0,.04,0,.04,0,.08.01.12,0,0,0,.02,0,.03,0,.04,0,.1.01.14,0,.01,0,.02,0,.03,0,.04,0,.07,0,.11,0,.02,0,.04,0,.05,0,.03,0,.06,0,.09,0,.02,0,.03,0,.05,0,.04,0,.07,0,.11,0,.01,0,.02,0,.03,0,.04,0,.09.01.13,0,.02,0,.04,0,.05,0,.03,0,.05,0,.09,0,.02,0,.04,0,.06,0,.03,0,.06,0,.09,0,.02,0,.04,0,.06,0,.03,0,.08,0,.11,0,.03,0,.05,0,.08,0,.02,0,.05,0,.08,0,.02,0,.05,0,.07,0,.02,0,.05,0,.07,0,.02,0,.05,0,.07,0,.03,0,.04,0,.07,0,.02,0,.05,0,.07,0,.04,0,.09.01.13,0,.02,0,.05,0,.07,0,.03,0,.04,0,.07,0,.03,0,.05,0,.08,0,.02,0,.03,0,.05,0,.03,0,.06,0,.09,0,.01,0,.04,0,.05,0,.05,0,.09.01.14,0,.02,0,.05,0,.07,0,.02,0,.05,0,.07,0,.02,0,.05,0,.07,0,.02,0,.05,0,.07,0,.03,0,.04,0,.07,0,.02,0,.05,0,.07,0,.04,0,.09.01.13,0,.02,0,.04,0,.05,0,.02,0,.06,0,.08,0,.03,0,.05,0,.07,0,.02,0,.05,0,.07,0,.02,0,.05,0,.07,0,.03,0,.04,0,.07,0,.03,0,.06,0,.09,0,.03,0,.08,0,.11,0,.02,0,.05,0,.07,0,.02,0,.04,0,.07,0,.03,0,.05,0,.08,0,.02,0,.04,0,.06,0,.02,0,.05,0,.07,0,.02,0,.05,0,.07,0,.05,0,.09.01.14,0,.02,0,.04,0,.06,0,.03,0,.05,0,.08,0,.02,0,.04,0,.06,0,.03,0,.05,0,.08,0,.02,0,.04,0,.06,0,.03,0,.05,0,.08,0,.01,0,0,0,.02,0,.06.01.13.02.19,0,.01,0,.04,0,.05,0,.03,0,.05,0,.08,0,.02,0,.05,0,.07,0,.03,0,.05,0,.08,0,.02,0,.05,0,.07,0,.02,0,.05,0,.07,0,.04,0,.08,0,.12,0,.03,0,.05,0,.08,0,.02,0,.04,0,.06,0,.03,0,.05,0,.08,0,.02,0,.04,0,.06,0,.03,0,.06,0,.08,0,.01,0,.04,0,.05,0,.05,0,.11.01.16,0,.01,0,.04,0,.05,0,.03,0,.06,0,.09,0,.02,0,.02,0,.04,0,.03,0,.06,0,.09,0,.01,0,.03,0,.04,0,.11.02.22.03.33,0,.01,0,.01,0,.02,0,.03,0,.07,0,.1,0,.02,0,.02,0,.04,0,.03,0,.07,0,.1,0,.01,0,.02,0,.03,0,.11.02.22.02.32,0,.01,0,.02,0,.03,0,.03,0,.07,0,.1,0,.01,0,.02,0,.03,0,.03,0,.06,0,.1,0,.01,0,.03,0,.04,0,.06,0,.12.01.18,0,.01,0,.03,0,.04,0,.03,0,.06,0,.09,0,.02,0,.03,0,.05,0,.03,0,.06,0,.09,0,.02,0,.04,0,.06,0,.03,0,.06,0,.08h0c0,.07,0,.14.01.2,0,.02,0,.04,0,.06,0,.03,0,.05,0,.07,0,.02,0,.05,0,.07,0,.03,0,.05,0,.08,0,.02,0,.05,0,.07,0,.02,0,.04,0,.07,0,.04,0,.09,0,.13,0,.02,0,.04,0,.06,0,.03,0,.05,0,.08,0,.02,0,.04,0,.07,0,.02,0,.05,0,.08,0,.02,0,.04,0,.07,0,.03,0,.08,0,.11,0,.02,0,.05,0,.07,0,.04,0,.06,0,.1,0,.02,0,.04,0,.06,0,.02,0,.05,0,.08,0,.02,0,.05,0,.07,0,.03,0,.04,0,.07,0,.02,0,.05,0,.07,0,.04,0,.09,0,.13,0,.02,0,.04,0,.05,0,.03,0,.06,0,.09,0,.02,0,.04,0,.06,0,.03,0,.06,0,.09,0,.02,0,.04,0,.06,0,.04,0,.06,0,.1,0,.01,0,.03,0,.04,0,.04,0,.1,0,.14,0,.01,0,.03,0,.04,0,.03,0,.08,0,.11,0,.01,0,.03,0,.04,0,.03,0,.08,0,.11,0,0,0,.02,0,.03,0,.05,0,.1.01.15,0,0,0,.01,0,.02,0,.04,0,.09,0,.13,0,0,0,.02,0,.03,0,.04,0,.08,0,.12,0,.01,0,.02,0,.03,0,.04,0,.09,0,.13,0,0,0,0,0,.01,0,.04,0,.11.01.15,0,0,0,0,0,0,0,.04,0,.1,0,.14,0,0,0,.01,0,.02,0,.04,0,.09,0,.14,0,0,0,.01,0,.02,0,.1.01.2.02.31,0,0,0,0,0,0,0,.05,0,.1,0,.15,0,0,0,0,0,0,.11,1.63.21,3.27.31,4.91l19.97-1.16c-.81-13.83-2.08-27.69-3.79-41.17h0Zm-16.53-81.34l-19.22,5.53c2.02,7.01,3.9,14.18,5.64,21.51h0c.07.3.15.61.22.92,0,0,0,0,0,0,.02.1.05.19.07.3,0,0,0,.01,0,.02.03.15.07.29.1.44,0,0,0,0,0,.01.02.1.05.2.07.3,0,0,0,0,0,0,.01.05.02.1.03.14,0,0,0,0,0,.01.01.05.02.09.03.15,0,0,0,0,0,0,0,.04.02.09.03.13,0,.01,0,.03,0,.04.01.05.02.09.03.13,0,0,0,0,0,0,.01.05.02.1.03.14,0,0,0,.01,0,.02,0,.04.02.09.03.13,0,0,0,.01,0,.02.01.05.02.1.03.14,0,0,0,0,0,0,.01.05.02.09.03.13,0,0,0,.02,0,.02.01.05.02.09.03.13,0,0,0,0,0,.01.01.05.02.09.03.14,0,0,0,.02,0,.03,0,.04.02.08.03.12,0,0,0,.02,0,.03.01.05.02.1.03.14,0,0,0,0,0,0,0,.04.02.09.03.13,0,.01,0,.02,0,.04,0,.04.02.09.03.13,0,0,0,0,0,0,.01.05.02.09.03.14,0,.01,0,.03,0,.04,0,.04.02.07.02.11,0,.01,0,.03,0,.04.02.09.04.18.06.27,0,.01,0,.03,0,.04,0,.03.02.08.02.1,0,.01,0,.03,0,.04.01.05.02.09.03.14,0,0,0,.01,0,.02.01.05.02.07.03.12,0,0,0,.02,0,.03.02.09.04.19.06.28,0,0,0,.02,0,.03.01.05.02.08.03.12,0,0,0,.01,0,.02.01.06.02.08.03.14,0,0,0,.02,0,.03.01.05.02.07.03.12,0,.01,0,.02,0,.03.01.05.02.09.03.13,0,0,0,0,0,0,.01.05.02.1.03.14,0,0,0,.02,0,.03.01.05.02.08.03.13,0,0,0,.02,0,.02.01.05.02.1.03.14,0,0,0,.01,0,.02,0,.04.02.08.03.12,0,.01,0,.03,0,.04.01.05.02.09.03.14,0,0,0,0,0,0,.01.05.02.1.03.14,0,0,0,.02,0,.03,0,.04.02.09.03.12,0,0,0,.01,0,.02.01.05.02.1.03.14,0,0,0,.02,0,.02.01.05.02.07.03.12,0,0,0,.02,0,.03.02.09.04.2.06.29,0,0,0,.01,0,.02,0,.04.02.1.03.13,0,0,0,.01,0,.02.02.1.04.2.07.3,0,0,0,0,0,0,.66,2.99,1.3,6.01,1.91,9.05l19.61-3.95c-2.79-13.82-6.1-27.43-9.84-40.44h0Zm-31.09-78.11l-17.63,9.44c1.91,3.56,3.77,7.21,5.59,10.95h0c.11.22.23.47.33.69,0,0,0,0,0,0,.04.09.09.18.13.27,0,0,0,0,0,0,.05.09.09.18.13.27,0,0,0,0,0,0,.02.04.04.09.07.14,0,0,0,0,0,0,.04.09.09.18.13.27,0,0,0,0,0,.01.05.09.08.17.13.27,0,0,0,0,0,0,.02.04.04.08.06.13,0,0,0,.01.01.02.04.09.08.17.12.26,0,0,0,.01,0,.02.05.09.08.17.13.27,0,0,0,0,0,.01.02.04.04.09.06.13,0,0,0,0,0,.01.04.09.08.18.13.27,0,0,0,0,0,.01.04.09.08.18.13.27,0,0,0,0,0,.01.02.04.04.09.06.13,0,0,0,0,0,.01.04.09.08.18.13.27,0,0,0,0,0,.01.04.09.09.18.13.27,0,0,0,0,0,0,.02.04.04.09.06.14,0,0,0,0,0,0,.02.04.04.09.06.13,0,0,0,0,0,0,.02.04.04.09.06.14,0,0,0,0,0,0,.04.09.09.18.13.27,0,0,0,0,0,0,.02.04.04.09.06.13,0,0,0,0,0,0,.04.1.08.18.13.27,0,0,0,0,0,.01.04.09.08.18.12.27,0,0,0,0,0,.01.02.04.04.09.06.13h0s.04.1.06.14c0,0,0,0,0,0,.02.04.04.09.06.14,0,0,0,0,0,.01.04.09.09.19.13.27,0,0,0,0,0,0,.02.04.04.09.06.14,0,0,0,0,0,0,.02.04.04.09.06.14h0s.04.09.06.14c0,0,0,0,0,.01.04.09.08.18.12.27,0,0,0,0,0,.01.04.09.09.19.13.28h0s.04.1.06.14c0,0,0,0,0,0,.04.09.09.19.13.28,0,0,0,0,0,0,2.62,5.75,5.13,11.68,7.54,17.79,0,0,0,0,0,0l18.61-7.32c-5.34-13.59-11.29-26.52-17.67-38.44h0Zm-53.4-68.79l-12.88,15.3c9.6,8.07,18.71,17.86,27.25,29.17l15.96-12.05c-9.48-12.55-19.68-23.46-30.33-32.42h0Zm-78.36-30.93v20s.04,0,.07,0c0,0,0,0,.02,0,.02,0,.03,0,.05,0,0,0,.02,0,.02,0,.01,0,.03,0,.04,0,0,0,.02,0,.03,0,.01,0,.03,0,.04,0,0,0,.02,0,.03,0,.01,0,.02,0,.04,0,.01,0,.02,0,.03,0,.01,0,.02,0,.04,0,.01,0,.02,0,.03,0,.01,0,.02,0,.03,0,.01,0,.02,0,.03,0,.01,0,.02,0,.04,0,.01,0,.02,0,.03,0,.01,0,.02,0,.03,0,.01,0,.02,0,.03,0,.01,0,.02,0,.03,0,.01,0,.02,0,.03,0,.01,0,.02,0,.03,0,.01,0,.02,0,.03,0,.01,0,.02,0,.03,0,.01,0,.02,0,.03,0,.01,0,.02,0,.03,0,0,0,.02,0,.03,0,.01,0,.02,0,.04,0,0,0,.02,0,.03,0,.02,0,.03,0,.04,0,0,0,.01,0,.02,0,.02,0,.03,0,.04,0,0,0,.02,0,.02,0,.04,0,.09,0,.13,0,0,0,.01,0,.02,0,.02,0,.03,0,.05,0,0,0,.01,0,.02,0,.02,0,.03,0,.05,0,0,0,.02,0,.02,0,.01,0,.03,0,.04,0,0,0,.02,0,.02,0,.01,0,.03,0,.04,0,0,0,.02,0,.03,0,.01,0,.03,0,.04,0,.01,0,.01,0,.03,0,.01,0,.02,0,.04,0,.01,0,.02,0,.03,0,.01,0,.03,0,.04,0,.01,0,.02,0,.03,0,.01,0,.03,0,.04,0,.01,0,.02,0,.03,0,.01,0,.03,0,.04,0,.01,0,.01,0,.02,0,.01,0,.03,0,.04,0,.01,0,.02,0,.03,0,.01,0,.03,0,.04,0,0,0,.02,0,.02,0,.01,0,.03,0,.04,0,0,0,.02,0,.02,0,.02,0,.03,0,.04,0,0,0,.02,0,.02,0,.01,0,.03,0,.04,0,0,0,.02,0,.02,0,.02,0,.03,0,.04,0,0,0,.01,0,.02,0,.04,0,.09,0,.13,0h0s.04,0,.06,0c0,0,.01,0,.02,0,.02,0,.03,0,.05,0,0,0,.01,0,.02,0,.02,0,.03,0,.05,0,0,0,.02,0,.02,0,.01,0,.03,0,.04,0,0,0,.02,0,.02,0,.01,0,.03,0,.04,0,.01,0,.02,0,.03,0,.01,0,.03,0,.04,0,.01,0,.01,0,.02,0,.01,0,.03,0,.04,0,.01,0,.01,0,.02,0,.01,0,.03,0,.04,0,.01,0,.01,0,.02,0,.01,0,.03,0,.04,0,.01,0,.01,0,.02,0,.02,0,.03,0,.04,0,0,0,.01,0,.02,0,.02,0,.03,0,.05,0,0,0,.01,0,.02,0,.02,0,.03,0,.05,0,0,0,.01,0,.02,0,.02,0,.03,0,.05,0,0,0,.01,0,.02,0,.02,0,.04,0,.05,0h0s.04,0,.06,0h0c.09,0,.18,0,.26.01h0s.04,0,.06,0h0s.04,0,.05,0c0,0,0,0,.01,0,.02,0,.04,0,.05,0h.01s.04,0,.05,0c0,0,0,0,.01,0,.02,0,.03,0,.05,0,0,0,0,0,.01,0,.02,0,.03,0,.05,0,0,0,.01,0,.02,0,.02,0,.03,0,.05,0h.02s.03,0,.05,0c0,0,.01,0,.02,0,.02,0,.03,0,.05,0,0,0,.01,0,.02,0,.02,0,.03,0,.05,0,0,0,.01,0,.02,0,.02,0,.04,0,.05,0h0s.04,0,.06,0h0c.13,0,.26.01.39.02h0s.04,0,.06,0h0s.04,0,.06,0h.01s.04,0,.06,0h0s.04,0,.06,0h.01s.04,0,.05,0h.01s.04,0,.05,0h.01s.04,0,.05,0h.01s.03,0,.05,0c0,0,0,0,.01,0,.02,0,.04,0,.05,0h0s.04,0,.06,0h0c.22.01.44.03.66.04h0s.04,0,.06,0h0s.04,0,.06,0h0s.04,0,.06,0h0s.04,0,.06,0h.01s.04,0,.06,0h0s.04,0,.06,0h0c8.47.64,16.77,2.51,24.86,5.53l7-18.74c-12.5-4.67-25.4-7.04-38.34-7.04h0Z"/>
  </g>
  <g>
    <ellipse class="cls-5" cx="245.34" cy="509.05" rx="164.23" ry="317.47"/>
    <path class="cls-3" d="m245.34,171.58c-16.02,0-31.88,3.61-47.13,10.73l8.46,18.12c3.33-1.55,6.7-2.91,10.11-4.07h0c.13-.04.25-.09.38-.13h0s.04-.01.06-.02h0c.13-.04.25-.08.38-.13h0s.04-.01.06-.02h0s.04-.02.06-.02h0c.08-.03.17-.06.25-.08h0s.04-.01.06-.02h0s.04-.02.06-.02h0c.1-.04.21-.07.31-.1h0s.04-.01.06-.02h0s.04-.01.06-.02h0c.08-.03.16-.05.25-.08h0s.04-.01.06-.02h0s.04-.01.06-.02h.01s.04-.01.06-.02h0c.08-.03.17-.05.25-.08h0s.04-.01.05-.02c0,0,.01,0,.02,0,.02,0,.03-.01.05-.02,0,0,0,0,.01,0,.02,0,.03-.01.05-.02,0,0,0,0,.01,0,.08-.02.16-.05.24-.07h0s.04-.01.05-.02h.01s.04-.01.05-.02c0,0,0,0,.01,0,.08-.02.16-.05.24-.07h0s.03-.01.05-.02c0,0,.01,0,.02,0,.02,0,.03,0,.05-.01.01,0,0,0,.02,0,.02,0,.03,0,.05-.01,0,0,0,0,.02,0,.02,0,.03-.01.05-.02,0,0,0,0,.01,0,.06-.02.12-.03.18-.05h0s.03-.01.05-.02c0,0,.01,0,.02,0,.02,0,.03,0,.05-.01,0,0,.01,0,.02,0,.02,0,.03,0,.05-.01,0,0,0,0,.01,0,.08-.02.16-.05.23-.07,0,0,0,0,.01,0,.02,0,.03,0,.05-.01,0,0,.01,0,.02,0,.02,0,.03,0,.05-.01,0,0,.01,0,.02,0,.02,0,.03,0,.05-.01,0,0,0,0,.01,0,.06-.02.11-.03.17-.05,0,0,.01,0,.02,0,.02,0,.03,0,.05-.01,0,0,.01,0,.02,0,.02,0,.03,0,.05-.01.01,0,.01,0,.02,0,.02,0,.03,0,.05-.01,0,0,.01,0,.02,0,.02,0,.03,0,.05-.01,0,0,0,0,.01,0,.06-.02.12-.03.17-.05,0,0,0,0,.01,0,.02,0,.03,0,.05-.01,0,0,.02,0,.02,0,.02,0,.03,0,.05-.01.01,0,0,0,.02,0,.02,0,.03,0,.05-.01,0,0,.01,0,.02,0,.08-.02.15-.04.23-.06,0,0,.02,0,.02,0,.01,0,.03,0,.04-.01.01,0,.01,0,.02,0,.01,0,.03,0,.04-.01.01,0,.02,0,.03,0,.01,0,.03,0,.04-.01,0,0,.02,0,.02,0,.05-.01.11-.03.16-.04,0,0,0,0,.01,0,.02,0,.03,0,.05-.01,0,0,.02,0,.02,0,.02,0,.03,0,.05-.01.01,0,.01,0,.02,0,.02,0,.03,0,.05-.01,0,0,.02,0,.02,0,.01,0,.03,0,.04-.01,0,0,.02,0,.02,0,.05-.01.1-.03.16-.04,0,0,.02,0,.02,0,.01,0,.03,0,.04-.01.01,0,.01,0,.03,0,.01,0,.03,0,.04-.01.01,0,.01,0,.02,0,.02,0,.03,0,.05-.01,0,0,.02,0,.02,0,.01,0,.03,0,.05-.01,0,0,.01,0,.02,0,.03,0,.07-.02.1-.03,0,0,0,0,0,0,.01,0,.03,0,.04-.01,0,0,.02,0,.03,0,.01,0,.03,0,.04-.01.01,0,.02,0,.03,0,.01,0,.03,0,.04,0,.01,0,.02,0,.03,0,.01,0,.03,0,.04-.01,0,0,.02,0,.03,0,.01,0,.03,0,.04-.01,0,0,.01,0,.02,0,.03,0,.06-.02.09-.02,0,0,.02,0,.02,0,.01,0,.03,0,.04-.01,0,0,.02,0,.03,0,.01,0,.03,0,.04-.01.01,0,.02,0,.03,0,.01,0,.03,0,.04-.01.01,0,.02,0,.03,0,.01,0,.03,0,.04-.01,0,0,.02,0,.03,0,.01,0,.03,0,.04-.01,0,0,0,0,0,0,.03,0,.06-.02.09-.02.01,0,.02,0,.03,0,.01,0,.03,0,.04,0,.01,0,.02,0,.03,0,.01,0,.03,0,.04-.01.01,0,.02,0,.03,0,.01,0,.03,0,.04-.01.01,0,.02,0,.03,0,.01,0,.03,0,.04-.01,0,0,.02,0,.02,0,.05-.01.1-.02.15-.04,0,0,.02,0,.03,0,.01,0,.03,0,.04,0,.01,0,.02,0,.03,0,.01,0,.03,0,.04,0,.01,0,.02,0,.03,0,.01,0,.03,0,.04,0,0,0,.02,0,.02,0,.01,0,.03,0,.05-.01,0,0,.01,0,.02,0,.03,0,.07-.02.1-.02,0,0,0,0,.01,0,.01,0,.03,0,.04-.01,0,0,.02,0,.03,0,.01,0,.03,0,.04,0,.01,0,.02,0,.03,0,.01,0,.03,0,.04,0,.01,0,.02,0,.03,0,.01,0,.03,0,.04,0,0,0,.03,0,.03,0,.01,0,.03,0,.04,0,0,0,0,0,.01,0,.03,0,.07-.02.1-.02,0,0,.01,0,.02,0,.01,0,.03,0,.04-.01.01,0,.02,0,.03,0,.01,0,.03,0,.04,0,.01,0,.02,0,.03,0,.01,0,.03,0,.04,0,.01,0,.02,0,.03,0,.01,0,.03,0,.04,0,0,0,.02,0,.03,0,.05-.01.1-.02.15-.03,0,0,.02,0,.03,0,.01,0,.03,0,.04,0,.01,0,.02,0,.03,0,.01,0,.03,0,.04,0,.01,0,.02,0,.03,0,.01,0,.03,0,.04,0,.01,0,.02,0,.03,0,.01,0,.03,0,.04,0,.01,0,.02,0,.03,0,.02,0,.04,0,.06-.01.02,0,.03,0,.05-.01.01,0,.02,0,.03,0,.01,0,.03,0,.04,0,.01,0,.02,0,.04,0,.01,0,.02,0,.03,0,.01,0,.03,0,.04,0,.01,0,.02,0,.03,0,.01,0,.02,0,.04,0,.02,0,.02,0,.03,0,.01,0,.02,0,.04,0,.01,0,.02,0,.03,0,.02,0,.05-.01.07-.02.01,0,.02,0,.03,0,.01,0,.02,0,.04,0,.02,0,.02,0,.03,0,.01,0,.02,0,.04,0,.01,0,.02,0,.03,0,.01,0,.03,0,.04,0,.01,0,.02,0,.03,0,.01,0,.03,0,.04,0,0,0,.02,0,.03,0,.01,0,.03,0,.04,0,.01,0,.02,0,.03,0,.02,0,.05,0,.07-.01.01,0,.02,0,.03,0,.01,0,.03,0,.04,0,.01,0,.02,0,.03,0,.01,0,.02,0,.04,0,.01,0,.02,0,.03,0,.01,0,.02,0,.04,0,.01,0,.02,0,.03,0,.01,0,.03,0,.04,0,.01,0,.02,0,.03,0,.01,0,.03,0,.04,0,.02,0,.04,0,.06-.01.01,0,.02,0,.03,0,.01,0,.03,0,.04,0,.01,0,.02,0,.03,0,.01,0,.03,0,.04,0,.01,0,.02,0,.04,0,.01,0,.02,0,.03,0,.01,0,.02,0,.03,0,.02,0,.02,0,.04,0,.01,0,.03,0,.04,0,.01,0,.03,0,.04,0,.02,0,.03,0,.05,0,.02,0,.03,0,.05-.01.01,0,.02,0,.03,0,.02,0,.02,0,.04,0,.01,0,.02,0,.03,0,.01,0,.03,0,.04,0,.01,0,.02,0,.03,0,.01,0,.03,0,.04,0,.01,0,.02,0,.03,0,.02,0,.03,0,.04,0,0,0,.02,0,.03,0,.02,0,.04,0,.06-.01.01,0,.02,0,.04,0,.01,0,.03,0,.04,0,.01,0,.02,0,.03,0,.02,0,.02,0,.04,0,.01,0,.02,0,.03,0,.01,0,.03,0,.04,0,.01,0,.02,0,.04,0,.01,0,.02,0,.04,0,.01,0,.02,0,.03,0,.01,0,.03,0,.04,0,.01,0,.02,0,.03,0,.02,0,.05,0,.07-.01.01,0,.02,0,.03,0,.01,0,.03,0,.04,0,.01,0,.02,0,.04,0,.01,0,.02,0,.03,0,.01,0,.03,0,.04,0,.01,0,.02,0,.03,0,.01,0,.02,0,.04,0,.01,0,.02,0,.03,0,.01,0,.03,0,.04,0,.01,0,.02,0,.03,0,.02,0,.04,0,.07-.01.01,0,.03,0,.04,0,.01,0,.02,0,.03,0,.02,0,.02,0,.04,0,.01,0,.02,0,.03,0,.01,0,.03,0,.04,0,.01,0,.02,0,.03,0,.01,0,.03,0,.04,0,.01,0,.02,0,.03,0,.02,0,.02,0,.04,0,.01,0,.02,0,.03,0,.01,0,.03,0,.04,0,.02,0,.05,0,.07-.01.01,0,.02,0,.03,0,.01,0,.02,0,.04,0,.02,0,.02,0,.03,0,.01,0,.02,0,.04,0,.01,0,.03,0,.04,0,.01,0,.02,0,.03,0,.01,0,.02,0,.04,0,.01,0,.02,0,.04,0,.01,0,.03,0,.04,0,.01,0,.02,0,.03,0,.02,0,.05,0,.07-.01,0,0,.02,0,.03,0,.01,0,.03,0,.04,0,.01,0,.02,0,.03,0,.02,0,.02,0,.04,0,.01,0,.02,0,.04,0,.01,0,.03,0,.04,0,.01,0,.02,0,.03,0,.02,0,.02,0,.04,0,.01,0,.02,0,.03,0,.01,0,.03,0,.04,0,.01,0,.02,0,.03,0,.02,0,.04,0,.07-.01.01,0,.02,0,.03,0,.01,0,.03,0,.04,0,.01,0,.02,0,.03,0,.01,0,.03,0,.04,0,.01,0,.02,0,.03,0,.01,0,.03,0,.04,0,.01,0,.02,0,.03,0,.02,0,.02,0,.04,0,.01,0,.02,0,.03,0,.02,0,.03,0,.05,0,0,0,.02,0,.03,0,.02,0,.04,0,.06-.01,0,0,.02,0,.03,0,.02,0,.03,0,.04,0,.01,0,.02,0,.03,0,.01,0,.03,0,.04,0,.01,0,.02,0,.03,0,.01,0,.03,0,.04,0,.01,0,.02,0,.03,0,.02,0,.02,0,.04,0,.01,0,.02,0,.03,0,.02,0,.05,0,.07-.01,0,0,.01,0,.02,0,.02,0,.04,0,.05,0,.01,0,.02,0,.03,0,.02,0,.02,0,.04,0,.01,0,.02,0,.03,0,.01,0,.03,0,.04,0,.01,0,.02,0,.03,0,.02,0,.03,0,.04,0,.01,0,.02,0,.03,0,.02,0,.03,0,.04,0,0,0,.02,0,.03,0,.02,0,.05,0,.07-.01,0,0,.01,0,.02,0,.02,0,.03,0,.05,0,0,0,.02,0,.03,0,.02,0,.03,0,.04,0,0,0,.02,0,.03,0,.01,0,.03,0,.04,0,.01,0,.02,0,.03,0,.02,0,.03,0,.04,0,0,0,.02,0,.03,0,.02,0,.04,0,.05,0,0,0,.01,0,.02,0,.02,0,.05,0,.07-.01,0,0,.02,0,.03,0,.02,0,.03,0,.05,0,0,0,.02,0,.03,0,.02,0,.03,0,.05,0,0,0,.02,0,.03,0,.01,0,.03,0,.04,0,.01,0,.02,0,.03,0,.02,0,.03,0,.05,0,0,0,.02,0,.03,0,.02,0,.03,0,.05,0,.01,0,.03,0,.04,0,.02,0,.03,0,.05,0,.01,0,.02,0,.03,0,.02,0,.02,0,.04,0,.01,0,.02,0,.03,0,.01,0,.03,0,.04,0,.01,0,.02,0,.03,0,.02,0,.02,0,.04,0,.01,0,.02,0,.03,0,.02,0,.03,0,.04,0,0,0,.02,0,.03,0,.02,0,.05,0,.07,0,0,0,.02,0,.02,0,.02,0,.03,0,.05,0,0,0,.02,0,.03,0,.02,0,.02,0,.04,0,.01,0,.02,0,.03,0,.01,0,.03,0,.04,0,.01,0,.02,0,.03,0,.02,0,.03,0,.04,0,.01,0,.02,0,.03,0,.02,0,.03,0,.05,0,0,0,.01,0,.02,0,.02,0,.05,0,.07,0,.01,0,.02,0,.03,0,.01,0,.03,0,.04,0,.01,0,.02,0,.03,0,.01,0,.03,0,.04,0,.01,0,.02,0,.03,0,.01,0,.03,0,.04,0,.01,0,.02,0,.03,0,.02,0,.02,0,.04,0,.01,0,.02,0,.04,0,.02,0,.03,0,.05,0,0,0,.02,0,.03,0,.02,0,.04,0,.06,0,.01,0,.02,0,.03,0,.02,0,.02,0,.04,0,.01,0,.02,0,.03,0,.01,0,.03,0,.04,0,.01,0,.02,0,.03,0,.02,0,.03,0,.04,0,0,0,.02,0,.03,0,.02,0,.03,0,.05,0,0,0,.02,0,.03,0,.02,0,.04,0,.07,0,0,0,.01,0,.02,0,.02,0,.04,0,.05,0,0,0,.02,0,.03,0,.02,0,.03,0,.04,0,0,0,.02,0,.03,0,.01,0,.03,0,.04,0,.01,0,.02,0,.03,0,.02,0,.03,0,.04,0,0,0,.02,0,.03,0,.02,0,.03,0,.04,0,0,0,.02,0,.03,0,.02,0,.05,0,.07,0,0,0,.02,0,.03,0,.01,0,.03,0,.04,0,.01,0,.02,0,.03,0,.02,0,.02,0,.04,0,.01,0,.02,0,.03,0,.01,0,.02,0,.04,0,.01,0,.02,0,.04,0,.02,0,.02,0,.04,0,.01,0,.02,0,.03,0,.01,0,.03,0,.04,0,.01,0,.02,0,.03,0,.02,0,.04,0,.06,0,0,0,.02,0,.03,0,.02,0,.03,0,.04,0,.01,0,.02,0,.03,0,.02,0,.03,0,.04,0,0,0,.02,0,.03,0,.01,0,.03,0,.04,0,.01,0,.02,0,.03,0,.02,0,.03,0,.04,0,0,0,.02,0,.03,0,.02,0,.04,0,.05,0,.01,0,.02,0,.03,0,.02,0,.04,0,.06,0,0,0,.02,0,.03,0,.02,0,.03,0,.04,0,.01,0,.02,0,.03,0,.01,0,.03,0,.04,0,.01,0,.02,0,.03,0,.02,0,.03,0,.04,0,0,0,.02,0,.03,0,.02,0,.03,0,.05,0,0,0,.02,0,.03,0,.02,0,.05,0,.07,0,0,0,.01,0,.02,0,.02,0,.04,0,.05,0,0,0,.02,0,.03,0,.02,0,.03,0,.04,0,.01,0,.02,0,.03,0,.01,0,.03,0,.04,0,0,0,.02,0,.03,0,.02,0,.03,0,.05,0,0,0,.02,0,.03,0,.02,0,.04,0,.07,0,0,0,0,0,0,0,.02,0,.05,0,.07,0,0,0,.01,0,.02,0,.02,0,.03,0,.05,0,0,0,.02,0,.03,0,.02,0,.03,0,.05,0,0,0,.02,0,.03,0,.01,0,.03,0,.05,0,0,0,.02,0,.03,0,.02,0,.03,0,.04,0,0,0,.02,0,.03,0,.02,0,.04,0,.06,0,0,0,0,0,.01,0,.02,0,.05,0,.07,0,0,0,.02,0,.02,0,.02,0,.03,0,.05,0,0,0,.02,0,.03,0,.02,0,.03,0,.04,0,.01,0,.02,0,.03,0,.01,0,.03,0,.04,0,0,0,.02,0,.03,0,.02,0,.03,0,.05,0,0,0,.02,0,.03,0,.02,0,.05,0,.07,0,0,0,.01,0,.02,0,.02,0,.04,0,.05,0,.01,0,.02,0,.03,0,.02,0,.03,0,.04,0,.01,0,.02,0,.03,0,.01,0,.03,0,.04,0,.01,0,.02,0,.03,0,.02,0,.03,0,.04,0,.01,0,.02,0,.03,0,.02,0,.03,0,.04,0,0,0,.02,0,.03,0,.02,0,.05,0,.07,0,0,0,.02,0,.03,0,.01,0,.03,0,.05,0,.01,0,.02,0,.03,0,.02,0,.02,0,.04,0,.01,0,.02,0,.03,0,.01,0,.03,0,.04,0,0,0,.02,0,.03,0,.02,0,.03,0,.04,0,0,0,.02,0,.03,0,.02,0,.03,0,.05,0,0,0,.01,0,.02,0,.02,0,.05,0,.07,0,0,0,.01,0,.02,0,.02,0,.03,0,.05,0,0,0,.02,0,.03,0,.02,0,.03,0,.04,0,.01,0,.02,0,.03,0,.01,0,.03,0,.04,0,0,0,.02,0,.03,0,.02,0,.03,0,.05,0,0,0,.02,0,.03,0,.02,0,.04,0,.06,0,0,0,.02,0,.03,0,.02,0,.04,0,.06,0,0,0,.02,0,.03,0,.02,0,.03,0,.05,0,.01,0,.02,0,.03,0,.01,0,.03,0,.04,0,.01,0,.02,0,.03,0,.02,0,.03,0,.04,0,0,0,.02,0,.03,0,.02,0,.03,0,.05,0,0,0,.01,0,.02,0,.02,0,.05,0,.07,0,0,0,.01,0,.02,0,.02,0,.04,0,.05,0,0,0,.02,0,.03,0,.02,0,.03,0,.04,0,.01,0,.02,0,.03,0,.01,0,.03,0,.04,0,0,0,.02,0,.03,0,.02,0,.03,0,.04,0,0,0,.02,0,.03,0,.02,0,.03,0,.05,0,0,0,.01,0,.02,0,.02,0,.05,0,.07,0,0,0,.01,0,.02,0,.02,0,.03,0,.05,0,0,0,.02,0,.03,0,.02,0,.03,0,.04,0,.01,0,.02,0,.03,0,.01,0,.03,0,.04,0,.01,0,.02,0,.03,0,.02,0,.03,0,.04,0,.01,0,.02,0,.03,0,.02,0,.04,0,.05,0,0,0,.01,0,.02,0,.02,0,.05,0,.07,0,0,0,.02,0,.02,0,.02,0,.03,0,.05,0,0,0,.02,0,.03,0,.02,0,.03,0,.04,0,.01,0,.02,0,.03,0,.01,0,.03,0,.04,0,0,0,.02,0,.03,0,.02,0,.03,0,.05,0,0,0,.02,0,.03,0,.02,0,.05,0,.07,0,0,0,.01,0,.02,0,.02,0,.04,0,.06,0,0,0,.02,0,.03,0,.02,0,.03,0,.04,0,0,0,.02,0,.03,0,.02,0,.03,0,.05,0,0,0,.02,0,.03,0,.02,0,.03,0,.05,0,0,0,.02,0,.03,0,.02,0,.03,0,.05,0,0,0,.01,0,.02,0,.02,0,.05,0,.07,0,0,0,0,0,.02,0,.02,0,.04,0,.06,0,.01,0,.02,0,.03,0,.02,0,.03,0,.04,0,.01,0,.02,0,.03,0,.01,0,.03,0,.04,0,.01,0,.02,0,.03,0,.02,0,.03,0,.04,0,0,0,.02,0,.03,0,.02,0,.03,0,.05,0,0,0,.01,0,.02,0,.02,0,.05,0,.07,0,0,0,.02,0,.03,0,.02,0,.03,0,.05,0,.01,0,.02,0,.03,0,.01,0,.03,0,.04,0,.01,0,.02,0,.03,0,.01,0,.03,0,.04,0,.01,0,.02,0,.03,0,.02,0,.03,0,.04,0,0,0,.02,0,.03,0,.02,0,.04,0,.06,0,.01,0,.02,0,.03,0,.02,0,.04,0,.06,0,.01,0,.02,0,.03,0,.02,0,.03,0,.04,0,.01,0,.02,0,.03,0,.01,0,.03,0,.04,0,0,0,.02,0,.03,0,.02,0,.03,0,.04,0,0,0,.02,0,.03,0,.02,0,.03,0,.05,0,0,0,.02,0,.03,0,.02,0,.05,0,.07,0,0,0,0,0,.01,0,.02,0,.04,0,.06,0,0,0,.02,0,.03,0,.02,0,.03,0,.04,0,.01,0,.02,0,.03,0,.01,0,.03,0,.04,0,0,0,.02,0,.03,0,.02,0,.03,0,.04,0,0,0,.02,0,.03,0,.02,0,.04,0,.05,0,0,0,.01,0,.02,0,.02,0,.05,0,.07,0,0,0,.01,0,.02,0,.02,0,.03,0,.05,0,0,0,.02,0,.03,0,.02,0,.03,0,.05,0,0,0,.02,0,.03,0,.01,0,.03,0,.05,0,0,0,.02,0,.03,0,.02,0,.03,0,.05,0,0,0,.02,0,.03,0,.02,0,.04,0,.06,0,0,0,0,0,.01,0,.02,0,.05,0,.07,0,0,0,.02,0,.02,0,.02,0,.03,0,.05,0,0,0,.02,0,.03,0,.02,0,.03,0,.04,0,0,0,.02,0,.03,0,.02,0,.03,0,.04,0,0,0,.02,0,.03,0,.02,0,.03,0,.05,0,0,0,.02,0,.03,0,.02,0,.05,0,.07,0,0,0,.01,0,.02,0,.02,0,.04,0,.05,0,0,0,.02,0,.03,0,.02,0,.03,0,.04,0,.01,0,.02,0,.03,0,.01,0,.03,0,.04,0,0,0,.02,0,.03,0,.02,0,.03,0,.05,0,0,0,.02,0,.03,0,.02,0,.03,0,.05,0,0,0,.01,0,.02,0,.02,0,.05,0,.07,0,0,0,.01,0,.02,0,.02,0,.03,0,.06,0,0,0,.02,0,.03,0,.02,0,.03,0,.05,0,0,0,.02,0,.03,0,.01,0,.04,0,.05,0,0,0,.02,0,.03,0,.02,0,.03,0,.05,0,0,0,.02,0,.02,0,.02,0,.04,0,.06,0,0,0,0,0,.01,0,.02,0,.05,0,.07,0,0,0,.01,0,.02,0,.02,0,.03,0,.05,0,0,0,.02,0,.03,0,.02,0,.03,0,.05,0,0,0,.02,0,.03,0,.01,0,.03,0,.04,0,.01,0,.02,0,.03,0,.02,0,.03,0,.05,0,0,0,.02,0,.03,0,.02,0,.05,0,.07,0h0v-20h0Zm-85.09,36.91c-10.1,9.45-19.75,20.7-28.7,33.45l16.38,11.48c1.73-2.47,3.49-4.88,5.28-7.23h0s.03-.04.05-.07h0s.03-.04.05-.07h0s.03-.05.05-.07h0s.03-.04.05-.06h0s.03-.05.04-.06c0,0,0-.01.01-.02.01-.01.02-.03.03-.04,0-.01.01-.01.02-.02.01-.01.02-.03.03-.04,0,0,.01-.02.02-.02.01-.01.02-.03.03-.04,0,0,.02-.02.02-.03.01-.01.02-.03.03-.04,0,0,.01-.02.02-.02.01-.01.02-.03.03-.04,0,0,.01-.02.02-.02.01-.02.02-.03.04-.05l.02-.02s.02-.03.03-.04c0,0,.02-.02.02-.03,0-.01.02-.02.03-.04,0-.01.01-.02.02-.03,0,0,.02-.02.02-.03,0-.01.02-.03.03-.04,0,0,0,0,0,0,.05-.06.09-.11.13-.17,0,0,0,0,.01-.01,0-.01.02-.03.03-.04,0,0,.01-.02.02-.03,0-.01.03-.03.03-.04,0,0,.01-.01.02-.02.01-.02.03-.04.04-.05,0,0,0,0,0,0,.02-.02.03-.03.04-.05,0,0,0,0,0-.01.01-.02.03-.04.04-.06,0,0,0,0,0,0,.02-.02.03-.04.05-.06,0,0,0,0,0,0,.01-.02.03-.04.04-.06,0,0,0,0,0,0,.01-.02.03-.04.05-.06,0,0,0,0,0,0,.02-.02.03-.04.05-.06,0,0,0,0,0,0,5.85-7.52,11.96-14.33,18.31-20.38,0,0,0,0,0,0,.01-.01.03-.03.04-.04,0,0,0,0,0,0,.01-.01.03-.03.04-.04,0,0,0,0,.01-.01.01-.01.03-.02.04-.04,0,0,0,0,.01-.01.01-.01.02-.02.04-.04,0,0,.01-.01.02-.02,0,0,.02-.02.03-.03,0,0,.01-.01.02-.02,0,0,.03-.02.03-.03,0,0,.01-.01.02-.02,0,0,.03-.03.04-.03,0,0,0,0,.01-.01.01-.01.02-.02.04-.04,0,0,.01-.01.02-.02.01-.01.02-.02.04-.03,0,0,.01-.01.02-.02.01-.01.02-.02.03-.03,0,0,.01-.01.02-.02.01-.01.02-.02.03-.03,0,0,.01-.01.02-.02.01-.01.02-.02.03-.03.01,0,.02-.02.03-.03,0,0,.02-.02.02-.02.01-.01.02-.02.03-.03,0,0,.02-.01.02-.02.01-.01.03-.02.04-.04,0,0,.01,0,.01-.01.02-.01.03-.03.04-.04,0,0,0,0,.01,0,.02-.02.04-.03.05-.05h0c.05-.05.11-.1.16-.15l-13.66-14.61h0Zm-50.56,70.33c-6.07,12.08-11.71,25.11-16.75,38.73l18.76,6.94c2.86-7.71,5.89-15.17,9.08-22.35,0,0,0,0,0,0,.15-.33.29-.65.44-.98,0,0,0,0,0,0,.04-.09.08-.18.12-.27,0,0,0,0,0-.01.02-.04.04-.09.06-.13,0,0,0,0,0,0,.02-.04.04-.09.06-.13,0,0,0,0,0,0,.02-.04.04-.09.06-.13,0,0,0-.01,0-.02.02-.04.04-.09.06-.13,0,0,0,0,0,0,.02-.04.04-.09.06-.13,0,0,0-.01,0-.02.04-.09.08-.17.12-.26v-.02s.05-.09.07-.13c0,0,0,0,0-.01.02-.04.03-.08.05-.11,0,0,0-.02.01-.03.02-.04.04-.08.06-.12,0,0,0-.01,0-.02.02-.04.03-.07.05-.11,0,0,0-.01,0-.02.02-.04.04-.08.06-.12,0,0,0-.02.01-.03.02-.04.03-.07.05-.12,0,0,0-.01,0-.02.02-.04.03-.07.05-.11,0-.01.01-.02.02-.03.02-.04.04-.08.05-.12,0,0,0-.02.01-.03.02-.04.03-.06.05-.1,0-.01,0-.02.01-.03.02-.04.03-.07.05-.12,0,0,0-.02.01-.03.02-.04.03-.07.05-.11,0,0,0-.01,0-.02.02-.04.04-.08.05-.12,0-.01.01-.02.02-.03.03-.07.08-.17.11-.24,0-.01.01-.02.02-.03.02-.04.04-.08.06-.12,0,0,0-.01,0-.02.02-.04.03-.07.05-.1,0-.01.01-.02.02-.04.02-.04.03-.07.05-.11,0-.01.01-.03.02-.04.01-.03.03-.06.04-.09,0-.01,0-.02.01-.03.02-.04.04-.08.05-.11,0-.01.01-.02.02-.04.01-.03.03-.07.05-.1,0-.01.01-.02.02-.03.01-.03.03-.07.05-.1,0-.01.01-.03.02-.04.02-.04.03-.07.05-.11,0-.01.01-.03.02-.04.01-.03.03-.05.04-.08,0-.01.01-.03.02-.04.02-.04.03-.07.05-.11,0-.02.01-.03.02-.05.01-.03.03-.05.04-.08,0-.01.01-.02.02-.04.02-.04.04-.08.05-.11,0-.01.01-.03.02-.04.01-.03.03-.07.05-.1,0,0,0-.02.01-.03.02-.04.03-.07.05-.11,0-.01.01-.03.02-.04.02-.04.04-.08.05-.11,0,0,0-.02.01-.03.02-.04.03-.06.05-.1,0-.01.01-.02.02-.04.02-.04.03-.07.05-.12,0,0,0-.02.01-.03.01-.03.03-.07.05-.1,0-.01.01-.02.02-.03.02-.04.04-.07.05-.11,0-.01.01-.02.02-.04.02-.04.03-.06.05-.1,0-.01.01-.02.02-.04.02-.04.03-.06.05-.1,0-.01.01-.03.02-.04.02-.04.03-.07.05-.11,0-.01,0-.02.01-.03.02-.04.03-.05.04-.09,0-.01.01-.03.02-.04.02-.04.03-.07.05-.11,0-.01.01-.03.02-.04.01-.03.03-.05.04-.08,0-.01.01-.03.02-.04.02-.04.03-.07.05-.11,0-.02.01-.03.02-.05.01-.03.03-.06.04-.09,0-.01,0-.02.01-.03.02-.04.03-.07.05-.11,0-.01.01-.03.02-.04.02-.04.03-.06.05-.1,0-.01.01-.03.02-.04.02-.04.02-.05.04-.09,0-.01.01-.03.02-.04.02-.04.04-.07.05-.11,0-.01,0-.02.01-.03.01-.03.03-.07.05-.1,0,0,0-.02.01-.03.02-.04.04-.08.05-.11,0-.01.01-.02.02-.04.02-.04.03-.06.04-.09,0-.01.01-.02.02-.03.02-.04.04-.07.05-.11,0-.01.01-.02.02-.03.02-.04.04-.08.06-.12,0,0,0,0,0-.01.02-.04.04-.07.05-.11,0,0,0-.02.01-.03.02-.04.04-.08.06-.12,0-.01,0-.02.01-.03.01-.03.03-.07.05-.1,0,0,0-.02.01-.03.02-.04.04-.08.06-.11,0-.01.01-.02.02-.03.02-.04.03-.06.05-.09,0,0,0-.02.01-.03.02-.04.04-.07.05-.11,0-.01.01-.03.02-.04.02-.04.04-.08.05-.11,0,0,0-.01,0-.02.02-.04.03-.07.05-.1,0-.01.01-.02.02-.03.02-.04.04-.08.06-.12,0,0,0-.01,0-.02.02-.04.03-.07.05-.11,0,0,0-.02.01-.02.02-.04.04-.08.06-.12,0,0,0-.01,0-.02.02-.04.04-.08.06-.12,0,0,0,0,0,0,.02-.04.04-.08.06-.12,0,0,0-.02.01-.03.02-.04.04-.09.06-.12,0,0,0,0,0,0,.02-.04.04-.08.06-.12,0,0,0-.01.01-.02.02-.04.04-.08.06-.12,0,0,0,0,0,0,.02-.04.04-.08.06-.12,0,0,0,0,0-.01.02-.04.04-.08.06-.13,0,0,0-.01,0-.02.04-.09.08-.17.13-.26,0,0,0,0,0-.01.04-.09.09-.17.13-.26,0,0,0,0,0,0,.06-.13.13-.27.2-.4h0c.29-.59.58-1.17.87-1.75l-17.87-8.98h0Zm-29.41,78.58c-3.52,13.08-6.61,26.72-9.19,40.56l19.66,3.66c1.95-10.48,4.17-20.7,6.66-30.63v-.02c.03-.1.05-.2.08-.29,0,0,0-.02,0-.03,0-.03.01-.06.02-.08,0-.02,0-.03.01-.05.02-.09.04-.17.07-.26,0-.02.01-.05.02-.07,0-.02,0-.04.01-.06,0-.03.02-.06.02-.09,0-.02,0-.03.01-.05.01-.05.02-.07.03-.11,0-.02,0-.03.01-.05,0-.04.01-.05.02-.09,0-.01,0-.03.01-.04.02-.09.05-.18.07-.27,0,0,0-.02,0-.03.58-2.29,1.17-4.54,1.78-6.79l-19.31-5.2h0Zm-15.28,81.52c-1.52,13.52-2.61,27.38-3.24,41.21l19.98.9c.15-3.38.33-6.76.54-10.11,0,0,0-.02,0-.03,0-.04,0-.08,0-.13,0,0,0-.02,0-.02,0-.1.01-.2.02-.3,0,0,0,0,0-.01,0-.04,0-.09,0-.13,0-.01,0-.03,0-.04,0-.03,0-.09,0-.12,0,0,0-.02,0-.03,0-.1.01-.19.02-.29,0-.01,0-.03,0-.04,0-.03,0-.07,0-.1,0-.02,0-.04,0-.06,0-.03,0-.06,0-.09,0-.02,0-.03,0-.05,0-.03,0-.08,0-.11,0-.03,0-.06,0-.08,0-.03,0-.05,0-.08,0-.02,0-.04,0-.06,0-.02,0-.06,0-.08,0-.02,0-.05,0-.07,0-.03,0-.04,0-.07,0-.02,0-.05,0-.07,0-.03,0-.06,0-.09,0-.04,0-.07,0-.11,0-.03,0-.04,0-.07,0-.03,0-.06,0-.08,0-.02,0-.02,0-.04,0-.03,0-.07,0-.1,0-.01,0-.02,0-.03,0-.11.01-.22.02-.33,0-.01,0-.02,0-.03,0-.03,0-.07,0-.1,0-.01,0-.02,0-.03.01-.16.02-.32.03-.47h0c.51-7.48,1.15-14.88,1.92-22.19h0s0-.07.01-.1c0-.02,0-.02,0-.04,0-.03,0-.06.01-.1,0-.01,0,0,0-.02.01-.1.02-.2.03-.31,0-.02,0-.04,0-.06,0-.02,0-.05,0-.07,0-.02,0-.05,0-.07,0-.02,0-.04,0-.06,0-.03,0-.05,0-.08,0-.03,0-.05,0-.08,0-.04,0-.07.01-.11,0-.01,0-.02,0-.04,0-.03,0-.07.01-.1,0-.02,0-.03,0-.05,0-.03,0-.07.01-.1,0-.01,0-.03,0-.04.01-.1.02-.19.03-.29,0,0,0,0,0,0,0-.05.01-.1.02-.15,0,0,0,0,0,0,.08-.72.16-1.42.24-2.13l-19.87-2.24h0Zm16.23,82.11l-20,.38c.27,13.81.99,27.69,2.14,41.25l19.93-1.7c-1.11-13.07-1.81-26.39-2.07-39.94h0Zm6.83,79.65l-19.76,3.08c2.16,13.84,4.82,27.55,7.91,40.75l19.47-4.57c-2.21-9.42-4.19-19.08-5.92-28.96h0c-.05-.27-.09-.54-.14-.8h0c-.03-.16-.05-.31-.08-.46h0c-.03-.16-.05-.31-.08-.45v-.03c-.02-.1-.04-.21-.06-.31,0,0,0-.01,0-.02,0-.03-.01-.07-.02-.1,0,0,0-.02,0-.03-.02-.1-.04-.21-.05-.31,0,0,0-.02,0-.03,0-.03-.01-.06-.02-.09,0,0,0-.02,0-.03-.02-.1-.03-.2-.05-.3,0,0,0-.03,0-.04,0-.03-.01-.06-.02-.09,0,0,0-.03,0-.04,0-.06-.02-.11-.03-.17,0,0,0-.03,0-.04,0-.03,0-.05-.01-.08,0-.02,0-.03,0-.05,0-.03,0-.05-.01-.08,0-.03,0-.04-.01-.06,0-.04-.01-.07-.02-.11,0-.03,0-.06-.01-.09,0-.02,0-.04-.01-.07,0-.02,0-.05-.01-.07,0-.02,0-.05-.01-.07,0-.02,0-.05-.01-.07,0-.03-.01-.06-.02-.1,0-.04,0-.05-.02-.09,0-.02,0-.04-.01-.06,0-.02,0-.06-.01-.08,0-.02,0-.04-.01-.06,0-.03-.01-.06-.02-.09,0-.03,0-.06-.01-.08,0-.03-.01-.06-.02-.09,0-.02,0-.04,0-.06,0-.03,0-.05-.01-.08,0-.02,0-.04-.01-.06,0-.04-.01-.09-.02-.13,0-.02,0-.03,0-.05,0-.03-.01-.06-.02-.09,0-.02,0-.04,0-.06,0-.03-.01-.06-.02-.09,0-.01,0-.03,0-.04,0-.04-.02-.1-.02-.14,0,0,0-.02,0-.03,0-.04-.01-.08-.02-.12,0-.01,0-.02,0-.03,0-.04-.01-.09-.02-.13,0,0,0-.01,0-.02,0-.05-.02-.1-.02-.15,0,0,0-.01,0-.02,0-.05-.01-.08-.02-.13,0,0,0-.02,0-.02-.02-.1-.03-.2-.05-.3,0,0,0-.01,0-.02,0-.05-.02-.09-.02-.14,0,0,0,0,0,0-.02-.1-.03-.21-.05-.31,0,0,0,0,0,0,0-.05-.02-.1-.02-.15,0,0,0,0,0,0-.17-1.05-.34-2.1-.5-3.15h0Zm18.37,77.77l-19.01,6.22c4.48,13.7,9.53,26.9,15.02,39.25l18.28-8.12c-3.68-8.28-7.14-16.92-10.37-25.91h0c-.03-.1-.07-.19-.1-.29h0c-.03-.11-.07-.2-.1-.3h0c-.03-.11-.07-.2-.1-.29v-.02c-.04-.09-.07-.18-.11-.27,0,0,0-.02,0-.02-.02-.06-.04-.12-.06-.17h0s-.02-.07-.03-.1c0,0,0-.01,0-.02-.02-.06-.04-.12-.06-.17h0s-.02-.07-.03-.09c0-.02,0-.03-.02-.04-.02-.04-.03-.09-.05-.13,0-.02-.01-.03-.02-.05,0-.03-.02-.05-.03-.08,0-.02,0-.03-.02-.05-.01-.04-.03-.08-.04-.12,0-.02-.01-.03-.02-.06,0-.02-.02-.05-.02-.07,0-.02-.02-.05-.02-.07-.01-.03-.02-.06-.03-.09,0-.02-.02-.06-.03-.08,0-.02-.01-.04-.02-.06-.01-.03-.02-.06-.03-.1,0-.02-.01-.04-.02-.06,0-.02-.02-.06-.03-.08,0-.02-.01-.04-.02-.06-.01-.04-.03-.08-.04-.12,0-.01,0-.03-.01-.04,0-.02-.02-.07-.03-.1,0-.01-.01-.03-.02-.05-.01-.04-.03-.08-.04-.12,0,0,0-.02,0-.03-.01-.04-.02-.06-.04-.1,0-.01,0-.03-.01-.04-.01-.04-.03-.08-.04-.12,0-.01,0-.02-.01-.03-.01-.03-.02-.07-.04-.1,0-.01,0-.03-.01-.04-.01-.04-.03-.08-.04-.12,0-.01,0-.02-.01-.03-.01-.03-.03-.07-.04-.11,0-.01,0-.02-.01-.03-.02-.05-.03-.08-.04-.13,0-.01,0-.02-.01-.03-.01-.03-.03-.08-.04-.11,0-.01,0-.02-.01-.03-.01-.04-.03-.09-.05-.13,0,0,0-.02,0-.03-.01-.04-.03-.09-.04-.13,0,0,0,0,0-.01-.01-.04-.03-.1-.05-.14,0,0,0,0,0-.01-.03-.09-.07-.2-.1-.29,0,0,0-.01,0-.02-.03-.1-.06-.18-.1-.28,0,0,0-.01,0-.02-.03-.1-.06-.19-.1-.29,0,0,0,0,0-.01-.03-.1-.07-.19-.1-.29,0,0,0,0,0,0-.03-.1-.07-.2-.1-.3h0c-.57-1.67-1.13-3.35-1.68-5.05h0Zm32.74,72.8l-17.07,10.41c7.96,13.06,16.61,24.87,25.7,35.12l14.96-13.28s-.08-.09-.12-.14h0s-.07-.08-.1-.12h0c-.07-.08-.14-.16-.21-.24h0s-.03-.04-.05-.06c0,0,0,0-.01-.01-.01-.01-.02-.03-.04-.04,0,0-.02-.02-.02-.02-.01-.01-.02-.02-.03-.04,0,0-.02-.02-.02-.02,0-.01-.02-.02-.03-.03,0-.01-.02-.02-.03-.03,0,0-.02-.02-.03-.03,0-.01-.02-.02-.03-.03,0,0-.01-.02-.02-.02,0-.01-.02-.02-.03-.03,0,0-.01-.02-.02-.02-.01-.02-.02-.02-.03-.04,0,0,0,0,0,0-.11-.13-.22-.26-.33-.38,0,0,0,0,0,0-.03-.04-.06-.07-.1-.11,0,0,0,0,0,0-.03-.04-.07-.08-.1-.11h0c-3.96-4.56-7.8-9.43-11.54-14.6,0,0,0,0,0-.01-.01-.02-.02-.03-.04-.05,0,0,0,0,0-.01-.01-.02-.03-.04-.04-.05,0,0,0,0,0-.01-.01-.02-.03-.04-.04-.05,0,0,0,0,0,0-.09-.12-.18-.25-.27-.37,0,0,0,0,0,0-.01-.02-.02-.03-.04-.05,0,0,0,0-.01-.01-.01-.02-.02-.03-.03-.05,0,0,0-.01-.02-.02,0-.01-.02-.03-.03-.04,0,0-.01-.02-.02-.03,0-.01-.02-.03-.03-.04,0,0-.01-.02-.02-.03,0-.01-.02-.03-.03-.04,0,0-.01-.02-.02-.03,0-.01-.02-.02-.03-.04,0-.01-.02-.02-.03-.04,0,0-.02-.02-.02-.03,0-.01-.02-.03-.03-.04,0,0-.02-.03-.02-.03,0-.01-.01-.02-.02-.03,0-.01-.02-.02-.03-.04-.01-.02-.02-.03-.03-.05,0-.01-.02-.03-.03-.04-.01-.01-.02-.03-.03-.04,0,0-.02-.02-.02-.03,0-.01-.02-.02-.03-.04-.01-.02-.01-.02-.03-.04,0-.01-.02-.02-.02-.03,0-.01-.01-.02-.02-.03,0-.01-.02-.02-.03-.04,0-.01-.01-.02-.02-.03,0-.01-.02-.03-.03-.04,0-.01-.01-.02-.02-.03,0-.01-.02-.02-.02-.03,0-.01-.02-.02-.02-.03,0-.01-.02-.03-.03-.04,0,0-.01-.02-.02-.03-.01-.02-.02-.03-.03-.05,0,0,0-.01-.01-.02-.02-.02-.03-.04-.05-.06h0c-.07-.1-.13-.19-.2-.28h0s-.03-.04-.05-.07c0,0,0,0,0-.01-.01-.02-.03-.04-.04-.06h0s-.03-.05-.04-.07h0s-.03-.05-.04-.07h0s-.03-.05-.05-.07h0c-3.05-4.34-6.02-8.88-8.9-13.61h0Zm53.53,58.59l-10.94,16.74c14.08,9.21,28.89,15.3,44.01,18.11l3.66-19.66h0c-6.23-1.16-12.37-3-18.38-5.46,0,0,0,0,0,0-.02,0-.04-.02-.07-.03,0,0,0,0,0,0-.03-.01-.04-.02-.06-.03,0,0,0,0,0,0-.09-.04-.19-.08-.28-.12,0,0,0,0,0,0-.02,0-.04-.02-.06-.03,0,0,0,0,0,0-.02,0-.04-.02-.06-.03,0,0,0,0,0,0-.03-.01-.04-.02-.07-.03,0,0,0,0,0,0-.09-.04-.19-.08-.28-.12,0,0,0,0-.01,0-.02,0-.04-.02-.06-.02,0,0,0,0-.01,0-.02,0-.04-.02-.06-.02,0,0,0,0-.01,0-.02,0-.04-.02-.07-.03,0,0,0,0,0,0-.07-.03-.14-.06-.21-.09,0,0,0,0,0,0-.02,0-.04-.02-.06-.03,0,0,0,0,0,0-.02,0-.04-.02-.06-.02,0,0,0,0-.01,0-.02,0-.04-.02-.06-.03,0,0,0,0,0,0-.09-.04-.19-.08-.28-.12,0,0,0,0,0,0-.02,0-.04-.02-.06-.03,0,0,0,0-.01,0-.02,0-.04-.02-.06-.02,0,0,0,0-.01,0-.02,0-.04-.02-.06-.03,0,0,0,0-.01,0-.07-.03-.14-.06-.21-.09,0,0,0,0,0,0-.02,0-.04-.02-.06-.03,0,0-.01,0-.02,0-.02,0-.03-.02-.05-.02,0,0,0,0-.01,0-.02,0-.03-.02-.06-.02,0,0,0,0-.01,0-.02,0-.04-.02-.06-.03,0,0,0,0,0,0-.07-.03-.14-.06-.21-.09,0,0,0,0,0,0-.02,0-.04-.02-.06-.03,0,0-.01,0-.02,0-.02,0-.03-.01-.05-.02,0,0-.01,0-.02,0-.02,0-.04-.02-.06-.02,0,0,0,0-.01,0-.02,0-.04-.02-.06-.03,0,0,0,0,0,0-.05-.02-.09-.04-.14-.06,0,0,0,0,0,0-.02,0-.04-.02-.06-.03,0,0,0,0-.01,0-.02,0-.04-.02-.06-.03,0,0-.01,0-.02,0-.02,0-.03-.01-.05-.02,0,0-.01,0-.02,0-.02,0-.03-.01-.05-.02,0,0-.01,0-.02,0-.02,0-.04-.02-.06-.03,0,0,0,0-.01,0-.05-.02-.09-.04-.14-.06,0,0-.01,0-.02,0-.02,0-.03-.02-.05-.02,0,0-.01,0-.02-.01-.02,0-.03-.01-.04-.02,0,0-.02,0-.02-.01-.02,0-.03-.01-.05-.02,0,0-.02,0-.02-.01-.02,0-.03-.02-.05-.02,0,0-.01,0-.02,0-.02,0-.04-.02-.06-.03,0,0,0,0-.01,0-.02,0-.05-.02-.07-.03,0,0,0,0,0,0-.02,0-.04-.02-.06-.03,0,0-.01,0-.02,0-.02,0-.03-.02-.05-.02,0,0-.01,0-.02-.01-.02,0-.03-.01-.04-.02,0,0-.02,0-.02-.01-.02,0-.03-.01-.05-.02,0,0-.01,0-.02-.01-.02,0-.03-.01-.05-.02,0,0,0,0-.01,0-.04-.02-.1-.04-.14-.06,0,0-.01,0-.02,0-.02,0-.03-.01-.05-.02,0,0-.01,0-.02,0-.02,0-.03-.02-.05-.02,0,0-.01,0-.02-.01-.01,0-.03-.02-.04-.02,0,0-.02,0-.03-.01-.02,0-.03-.01-.04-.02,0,0-.02,0-.03-.01-.01,0-.04-.02-.05-.02,0,0-.01,0-.02,0-.02,0-.05-.02-.07-.03,0,0-.01,0-.02,0-.02,0-.04-.02-.05-.02,0,0-.01,0-.02-.01-.02,0-.03-.01-.04-.02,0,0-.02,0-.03-.01-.02,0-.03-.01-.04-.02,0,0-.02,0-.02-.01-.02,0-.03-.01-.04-.02,0,0-.02,0-.03-.01-.02,0-.03-.01-.04-.02,0,0-.02,0-.03-.01-.02,0-.03-.02-.05-.02,0,0-.01,0-.02,0-.02,0-.05-.02-.07-.03,0,0,0,0-.01,0-.02,0-.03-.02-.05-.03,0,0-.01,0-.02,0-.02,0-.03-.02-.05-.02,0,0-.01,0-.02,0-.02,0-.03-.02-.05-.02,0,0-.01,0-.02-.01-.02,0-.03-.01-.05-.02,0,0-.01,0-.02-.01-.02,0-.03-.02-.05-.02,0,0-.01,0-.02,0-.04-.02-.09-.05-.13-.07,0,0-.01,0-.02-.01-.02,0-.03-.02-.05-.02,0,0-.01,0-.02-.01-.02,0-.03-.02-.05-.02,0,0-.01,0-.02-.01-.02,0-.03-.02-.05-.02,0,0-.01,0-.02,0-.02,0-.03-.02-.05-.02,0,0-.01,0-.02,0-.02-.01-.04-.02-.06-.03,0,0,0,0,0,0-.05-.02-.09-.05-.14-.07,0,0,0,0-.01,0-.02-.01-.03-.02-.05-.03,0,0-.01,0-.02,0-.02,0-.04-.02-.05-.03,0,0,0,0-.01,0-.02-.01-.03-.02-.06-.03,0,0,0,0-.01,0-.02-.01-.04-.02-.06-.03,0,0,0,0-.01,0-.05-.02-.09-.05-.14-.07,0,0,0,0,0,0-.02-.01-.04-.02-.06-.03,0,0-.01,0-.02-.01-.02,0-.03-.02-.05-.02,0,0-.01,0-.02-.01-.02,0-.03-.01-.04-.02,0,0-.02,0-.02-.01-.02,0-.03-.02-.05-.02,0,0-.01,0-.02-.01-.02-.01-.03-.02-.05-.03,0,0,0,0-.02,0-.04-.02-.1-.05-.14-.07,0,0,0,0-.01,0-.02-.01-.03-.02-.05-.03,0,0-.01,0-.02,0-.02,0-.03-.02-.05-.03,0,0-.01,0-.02-.01-.02,0-.03-.02-.05-.02,0,0-.01,0-.02,0-.02,0-.04-.02-.05-.03,0,0-.01,0-.02,0-.02-.01-.04-.02-.06-.03,0,0,0,0,0,0-.02-.01-.05-.02-.07-.04,0,0,0,0,0,0-.03-.01-.04-.02-.07-.03,0,0,0,0-.01,0-.02-.01-.03-.02-.05-.03,0,0-.01,0-.02-.01-.02,0-.03-.02-.05-.02,0,0-.01,0-.02-.01-.02,0-.03-.02-.05-.03,0,0-.01,0-.02,0-.02-.01-.03-.02-.05-.03,0,0,0,0-.01,0-.03-.01-.04-.02-.06-.03,0,0,0,0,0,0-.02-.01-.05-.03-.07-.04,0,0,0,0,0,0-.02-.01-.04-.02-.06-.03,0,0,0,0-.02,0-.02,0-.04-.02-.05-.03,0,0-.01,0-.02,0-.02-.01-.03-.02-.05-.03,0,0-.01,0-.02,0-.02,0-.04-.02-.05-.03,0,0,0,0-.01,0-.02-.01-.04-.02-.06-.03,0,0,0,0,0,0-.05-.02-.09-.05-.14-.07,0,0,0,0-.01,0-.02-.01-.04-.02-.06-.03,0,0-.01,0-.02,0-.02,0-.04-.02-.05-.03,0,0-.01,0-.02,0-.02-.01-.03-.02-.05-.03,0,0,0,0-.01,0-.02,0-.04-.02-.06-.03,0,0,0,0-.01,0-.07-.04-.13-.07-.2-.11,0,0,0,0-.01,0-.02-.01-.03-.02-.05-.03,0,0-.01,0-.02,0-.02,0-.03-.02-.05-.03,0,0-.01,0-.02,0-.02,0-.04-.02-.05-.03,0,0,0,0-.02,0-.02-.01-.04-.02-.06-.03,0,0,0,0,0,0-.07-.04-.14-.07-.21-.11,0,0,0,0,0,0-.02-.01-.04-.02-.06-.03,0,0,0,0-.01,0-.02-.01-.04-.02-.06-.03,0,0,0,0-.01,0-.02-.01-.04-.02-.06-.03,0,0,0,0,0,0-.09-.05-.19-.1-.28-.15,0,0,0,0,0,0-.03-.01-.04-.02-.07-.04,0,0,0,0,0,0-.02-.01-.04-.02-.06-.04,0,0,0,0,0,0-2.63-1.44-5.25-3.01-7.83-4.7h0Zm111.82-4.57s-.09.06-.13.1c0,0,0,0,0,0-.02.01-.04.03-.06.04,0,0,0,0-.01,0-.01.01-.04.03-.05.04,0,0,0,0-.01.01-.02.01-.03.03-.05.04,0,0,0,0,0,0-.02.01-.04.03-.06.04,0,0,0,0,0,0-.09.07-.17.13-.26.19,0,0,0,0,0,0-.02.01-.04.03-.06.04,0,0,0,0,0,0-.02.01-.03.03-.05.04,0,0,0,0-.01,0-.02.01-.03.03-.05.04,0,0,0,0-.01,0-.02.01-.04.03-.05.04,0,0,0,0,0,0-.02.02-.04.03-.06.05,0,0,0,0,0,0-.04.03-.09.07-.13.09,0,0,0,0-.01.01-.02.01-.03.02-.05.04,0,0-.01,0-.02.01-.01.01-.03.02-.04.03,0,0-.01,0-.02.01-.01.01-.03.02-.04.03,0,0-.02.01-.02.02-.01.01-.03.02-.04.03,0,0-.01.01-.02.02-.01.01-.03.02-.04.03,0,0-.01.01-.02.02-.04.03-.09.06-.12.09,0,0-.01,0-.02.01-.02.01-.03.02-.04.03,0,0-.01,0-.02.01-.01.01-.03.02-.04.03,0,0-.02.01-.02.02-.01.01-.03.02-.04.03,0,0-.01,0-.02.01,0,0-.03.02-.04.03,0,0-.02.01-.03.02-.01.01-.02.02-.04.03,0,0-.02.01-.03.02,0,0-.03.02-.04.03,0,0-.02.01-.03.02,0,0-.02.02-.03.02-.02.02-.04.03-.07.05,0,0-.02.01-.02.02-.01,0-.02.02-.04.03,0,0-.02.02-.03.02-.01,0-.02.01-.03.02,0,0-.02.02-.03.02-.01,0-.02.01-.03.02,0,0-.02.02-.03.02-.01,0-.02.01-.03.02,0,0-.02.02-.03.02,0,0-.02.01-.03.02-.01.01-.02.02-.04.03,0,0-.02.01-.02.02,0,0-.03.02-.04.03,0,0-.02.01-.02.02-.02.01-.04.03-.06.04,0,0-.01.01-.02.02,0,0-.03.02-.04.03-.01,0-.02.01-.03.02-.01.01-.02.01-.04.02,0,0-.02.01-.03.02,0,0-.02.02-.03.02-.01,0-.02.01-.03.02,0,0-.02.01-.03.02-.01,0-.02.02-.03.02,0,0-.02.01-.03.02-.01,0-.02.02-.04.03,0,0-.02.01-.02.02-.01,0-.03.02-.04.03,0,0,0,0-.01,0-.05.04-.1.07-.15.11,0,0-.01,0-.02.01-.01.01-.03.02-.04.03,0,0-.01,0-.02.01-.01.01-.03.02-.04.03,0,0,0,0-.02.01-.01.01-.03.02-.04.03,0,0,0,0-.02.01-.01,0-.03.02-.04.03,0,0-.02.01-.02.01-.01.01-.03.02-.04.03,0,0,0,0,0,0-.05.04-.11.07-.16.11,0,0,0,0-.01,0-.02.01-.03.02-.05.04h0s-.03.03-.05.04c0,0,0,0-.01,0-.02.01-.03.02-.05.03h-.01s-.03.03-.05.04c0,0,0,0-.01.01-.02.01-.03.02-.05.03h0c-.12.09-.23.17-.35.24h0s-.04.03-.06.04h0s-.04.03-.05.04h0c-8.18,5.59-16.65,9.96-25.36,13h0s-.04.01-.06.02h0s-.04.02-.06.02h0c-.1.04-.21.07-.31.11h0s-.04.02-.05.02h-.01s-.03.02-.05.02h-.01s-.03.02-.05.02c0,0,0,0-.01,0-.02,0-.04.01-.05.02h0c-.08.03-.16.06-.24.08h0s-.04.01-.05.02c0,0,0,0-.01,0-.02,0-.03.01-.05.02,0,0-.01,0-.02,0-.02,0-.03.01-.05.02,0,0-.01,0-.02,0-.02,0-.03.01-.05.02,0,0-.02,0-.02,0-.01,0-.03.01-.05.02,0,0-.02,0-.02,0-.01,0-.03,0-.04.01,0,0,0,0-.01,0-.03.01-.06.02-.09.03,0,0-.02,0-.02,0-.01,0-.03,0-.04.01,0,0-.02,0-.03,0-.01,0-.03,0-.04.01-.01,0-.02,0-.03,0-.01,0-.03,0-.04.01-.01,0-.02,0-.03,0-.01,0-.03,0-.04.01-.01,0-.02,0-.03.01-.01,0-.02,0-.03.01-.02,0-.02,0-.04.01-.01,0-.02,0-.03.01-.02,0-.03,0-.05.01,0,0-.01,0-.02,0-.02,0-.05.02-.07.02,0,0-.01,0-.02,0-.02,0-.04.01-.05.02,0,0-.01,0-.02,0-.02,0-.03.01-.05.02,0,0-.01,0-.02,0-.02,0-.03,0-.05.02,0,0-.01,0-.02,0-.01,0-.03.01-.04.01,0,0-.02,0-.03,0-.02,0-.03,0-.05.01,0,0-.01,0-.02,0-.02,0-.04.01-.06.02,0,0,0,0,0,0-.07.02-.14.04-.21.07,0,0,0,0-.01,0-.02,0-.04.01-.06.02,0,0,0,0-.02,0-.02,0-.04.01-.05.02,0,0-.01,0-.02,0-.02,0-.04.01-.06.02,0,0,0,0-.01,0-.02,0-.04.01-.06.02,0,0,0,0,0,0-.1.03-.19.06-.28.09,0,0,0,0,0,0-.02,0-.04.01-.06.02,0,0,0,0,0,0-.02,0-.04.01-.06.02,0,0,0,0,0,0-.02,0-.04.01-.07.02,0,0,0,0,0,0-.76.23-1.54.46-2.3.68l5.38,19.26c14.52-4.05,28.68-11.18,42.08-21.19l-11.97-16.02h0Zm51.05-60.88c-6.97,12.21-14.48,23.26-22.46,33.04l15.49,12.65c8.63-10.57,16.82-22.6,24.34-35.77l-17.37-9.92h0Zm31.11-73.54s-.01.04-.02.07c0,.02-.01.05-.02.06,0,.03-.02.05-.02.08,0,.02-.01.04-.02.05,0,.02-.02.05-.02.07-.01.03-.02.07-.03.1,0,.03-.02.05-.02.08,0,.02-.01.04-.02.05-.01.04-.02.08-.03.11,0,.03-.01.04-.02.07,0,.02-.02.05-.02.07,0,.02-.01.04-.02.05,0,.03-.02.06-.03.09,0,.03-.02.07-.03.09,0,.02-.01.05-.02.07,0,.02-.01.04-.02.06-.01.04-.02.08-.04.12,0,.02-.01.04-.02.06,0,.02-.01.05-.02.07,0,.02-.01.04-.02.06,0,.02-.01.05-.02.07-.01.03-.02.07-.03.1,0,.03-.02.05-.02.08,0,.02,0,.03-.02.05l-.04.12s-.02.05-.02.07c0,.02-.01.05-.02.07,0,.02-.01.04-.02.05-.03.09-.05.17-.08.26,0,.02,0,.02-.01.04-.02.05-.03.11-.05.16,0,0,0,.01,0,.02,0,.03-.02.05-.02.08,0,.02-.01.04-.02.06,0,.02-.01.04-.02.07-.01.03-.02.08-.03.11,0,.02-.01.05-.02.07,0,.02-.01.04-.02.06-.01.04-.02.08-.04.11,0,.02-.01.05-.02.06,0,.03-.02.05-.02.07,0,.02-.01.03-.02.05-.03.09-.05.17-.08.26,0,.02-.01.03-.02.05-.02.05-.03.1-.05.15,0,0,0,.02,0,.03,0,.03-.02.05-.02.08,0,.02-.01.03-.02.05-.01.04-.03.09-.04.13,0,.02,0,.03-.01.04,0,.03-.02.05-.02.08,0,.02-.01.04-.02.05-.01.04-.02.08-.04.11,0,.02-.02.05-.02.07,0,.02-.02.05-.02.07,0,.02-.01.04-.02.05-.02.05-.03.09-.05.14,0,0,0,.03-.01.03,0,.03-.02.05-.03.08,0,.02,0,.03-.01.04-.03.09-.06.18-.08.26,0,.02,0,.02-.01.04-.01.04-.03.08-.04.12,0,.02-.01.04-.02.06,0,.03-.02.05-.02.08,0,.02-.01.03-.02.05-.01.04-.03.09-.04.13,0,.02-.01.04-.02.05,0,.02-.02.05-.02.07,0,.02-.01.04-.02.05-.01.03-.02.07-.03.1,0,.03-.02.05-.03.08,0,.02-.01.05-.02.07,0,.02-.01.04-.02.06-.01.04-.02.07-.03.11,0,.03-.01.04-.02.07,0,.02-.02.05-.02.07,0,.02-.01.04-.02.06,0,.03-.02.06-.03.08-.01.03-.02.06-.03.09,0,.03-.02.05-.02.08,0,.02-.01.03-.02.05-.01.04-.03.08-.04.12,0,.02-.01.04-.02.06,0,.03-.02.05-.02.08,0,.02,0,.03-.02.05-.02.05-.03.09-.05.14,0,0,0,.03-.01.04,0,.03-.02.05-.02.08,0,.02-.01.04-.02.05-.01.04-.03.09-.04.13,0,.02,0,.03-.01.04,0,.02-.02.05-.02.07,0,.02-.01.04-.02.06,0,.02-.01.04-.02.07-.01.03-.02.07-.04.11,0,.02-.02.05-.02.07,0,.02-.01.04-.02.06-.01.04-.02.07-.04.11,0,.02-.02.05-.02.07,0,.02-.01.05-.02.07,0,.02-.01.04-.02.06,0,.03-.02.06-.03.09,0,.03-.02.06-.03.09,0,.02-.01.04-.02.06,0,.02-.02.05-.02.07,0,.03-.02.06-.03.09,0,.03-.02.06-.03.09,0,.02-.01.04-.02.06,0,.02-.02.05-.02.06,0,.02-.01.04-.02.06-.01.03-.02.08-.04.11,0,.02-.01.04-.02.06,0,.03-.01.04-.02.07,0,.02-.01.04-.02.06-.01.03-.03.08-.04.11,0,.02-.01.04-.02.05,0,.03-.02.05-.03.08,0,.02-.01.04-.02.06-.01.03-.03.08-.04.11,0,.02-.01.04-.02.06,0,.03-.02.05-.02.07,0,.03-.02.05-.03.08,0,.03-.02.07-.03.09,0,.02-.01.04-.02.06,0,.03-.02.05-.03.08,0,.02-.01.03-.02.05-.01.03-.03.08-.04.12,0,.02-.01.03-.02.05,0,.03-.02.06-.03.08,0,.02-.01.04-.02.05-.01.04-.03.08-.04.12,0,.02-.01.03-.02.05-.01.03-.02.05-.03.09,0,.02-.01.03-.02.05-.01.04-.03.08-.04.12,0,.02,0,.03-.02.05-.01.03-.02.05-.03.09,0,.02-.01.03-.02.05-.01.04-.02.07-.04.12,0,.02-.01.03-.02.05-.01.03-.02.06-.03.09,0,.01,0,.03-.01.04-.01.04-.03.08-.04.12,0,.02-.01.03-.02.05-.01.03-.02.06-.03.09,0,.01,0,.03-.01.04-.01.04-.03.09-.04.13,0,.01,0,.02-.01.03-.01.03-.02.07-.03.1,0,.01,0,.02-.01.04-.01.04-.03.08-.04.12,0,.01,0,.03-.01.04-.01.03-.02.07-.03.1,0,.01,0,.02-.01.04-.01.04-.03.09-.04.13v.03s-.04.08-.05.12c0,0,0,0,0,.01-.02.05-.03.09-.05.14,0,0,0,.02,0,.02-.01.04-.03.08-.04.12,0,0,0,.01,0,.02-.01.04-.03.1-.05.14,0,0,0,.01,0,.02-.01.04-.03.09-.04.13,0,0,0,0,0,.01-.02.05-.03.09-.05.14,0,0,0,.01,0,.02-.01.04-.03.08-.04.12,0,0,0,.01,0,.02-.01.04-.03.09-.05.14,0,0,0,.01,0,.02-.01.04-.03.09-.05.14h0c-.02.05-.03.1-.05.15,0,0,0,0,0,.01-.01.04-.03.1-.05.14h0c-.02.05-.03.1-.05.15,0,0,0,0,0,0-.03.09-.07.2-.1.29,0,0,0,0,0,.01-.01.04-.03.09-.05.14,0,0,0,0,0,0-.02.05-.03.1-.05.15h0c-2.74,7.9-5.65,15.53-8.73,22.9l18.45,7.72c5.21-12.47,9.99-25.74,14.21-39.46l-19.12-5.87h0Zm17.13-78.06c-.77,5.49-1.62,10.9-2.54,16.27,0,0,0,.01,0,.02-.02.1-.03.2-.05.3,0,0,0,0,0,0,0,.05-.02.09-.02.14,0,0,0,.01,0,.02,0,.05-.02.09-.02.14,0,0,0,0,0,0,0,.05-.02.1-.03.15,0,0,0,.01,0,.02,0,.04-.01.08-.02.12,0,.01,0,.02,0,.03-.02.1-.03.18-.05.28,0,.02,0,.03,0,.05,0,.04,0,.05-.02.09,0,.02,0,.03,0,.05,0,.04-.01.07-.02.11,0,.01,0,.03,0,.04,0,.05-.01.08-.02.12,0,.02,0,.03,0,.05,0,.03-.01.06-.02.09,0,.02,0,.04,0,.05,0,.04-.01.07-.02.11,0,.02,0,.03,0,.04,0,.03-.01.08-.02.11,0,.02,0,.04-.01.06,0,.02-.01.06-.01.08v.07s-.02.04-.02.06c0,.05-.02.09-.02.14,0,0,0,.04,0,.05,0,.02,0,.05-.01.07,0,.02,0,.04-.01.06,0,.03,0,.05-.01.08,0,0,0,.02,0,.03-.01.06-.02.13-.03.19,0,0,0,.01,0,.02,0,.03-.01.06-.02.09,0,.02,0,.02,0,.04,0,.03-.01.06-.02.09v.02c-.01.07-.03.14-.04.21h0s-.01.08-.02.11v.03c-.03.15-.06.29-.08.44v.02c-.03.15-.06.29-.08.44v.02c-.06.3-.11.6-.17.91h0c-.63,3.44-1.28,6.85-1.97,10.23h0c-.03.15-.06.29-.09.44,0,0,0,.01,0,.02,0,.03-.01.06-.02.1,0,0,0,.02,0,.03-.02.1-.04.2-.06.29,0,0,0,.03,0,.04,0,.03-.01.06-.02.09,0,0,0,.03,0,.04-.02.1-.04.19-.06.29,0,0,0,.02,0,.03,0,.03-.01.06-.02.09,0,0,0,.03,0,.04-.02.09-.04.18-.06.27,0,.02,0,.04-.01.06,0,.02-.01.05-.02.07,0,.02,0,.04-.01.06,0,.02,0,.05-.01.07,0,.04-.02.08-.02.12,0,.02,0,.04-.01.06,0,.03,0,.05-.02.07,0,.02,0,.04-.01.06,0,.03-.01.06-.02.08,0,.02,0,.03,0,.05,0,.04-.02.09-.03.12,0,.02,0,.04-.01.06,0,.03,0,.05-.02.08,0,.02,0,.04-.01.06,0,.04-.01.06-.02.1,0,.01,0,.02,0,.03,0,.05-.02.09-.03.13,0,.01,0,.02,0,.03,0,.04-.01.07-.02.11,0,.01,0,.03,0,.04-.02.09-.04.18-.06.28,0,0,0,.01,0,.02,0,.05-.02.08-.03.13,0,0,0,.01,0,.02-.02.09-.04.2-.06.29,0,0,0,0,0,0,0,.05-.02.1-.03.15h0c-.23,1.1-.47,2.19-.71,3.29l19.54,4.26c2.89-13.25,5.34-26.98,7.3-40.83l-19.8-2.8h0Zm5.76-79.73s0,.01,0,.02c0,.04,0,.07,0,.11,0,.01,0,.03,0,.04,0,.04,0,.07,0,.11,0,.01,0,.02,0,.03,0,.04,0,.09,0,.14,0,.02,0,.05,0,.07,0,.03,0,.04,0,.07,0,.03,0,.05,0,.08,0,.02,0,.04,0,.06,0,.03,0,.06,0,.08,0,.01,0,.03,0,.05,0,.11,0,.22,0,.33,0,.01,0,.01,0,.03,0,.04,0,.07,0,.11v.02c-.11,13.08-.63,25.96-1.54,38.61l19.95,1.43c.97-13.59,1.51-27.47,1.6-41.27l-20-.13h0Zm15.15-82.33l-19.84,2.51c1.21,9.52,2.19,19.24,2.94,29.08,0,0,0,0,0,0,.02.21.03.42.05.62,0,0,0,0,0,.01.25,3.35.48,6.72.67,10.11l19.97-1.16c-.81-13.83-2.08-27.69-3.79-41.17h0Zm-16.53-81.34l-19.22,5.53c.28.98.56,1.94.83,2.93,0,0,0,0,0,0,.03.1.05.19.08.29,0,0,0,0,0,.01.01.04.02.08.03.12,0,0,0,.02,0,.03.01.04.02.08.03.12,0,0,0,.02,0,.03,0,.04.02.08.03.11,0,.02,0,.03.01.04,0,.03.02.06.02.09,0,.02,0,.03.01.05,0,.04.02.08.03.12,0,.02.01.04.02.06,0,.03.01.04.02.07,0,.02.01.05.02.07,0,.02.01.04.02.06.01.04.02.08.03.12,0,.02.01.04.02.06,0,.02.01.05.02.07,0,.02,0,.04.01.05.03.09.05.19.08.28h0s.02.07.03.11h0c1.93,6.99,3.73,14.13,5.39,21.42h0c.02.11.04.21.07.31,0,.02,0,.03.01.05,0,.03.01.05.02.08,0,.02.01.05.02.07,0,.03.01.06.02.1,0,.03.01.06.02.09,0,.02,0,.04.01.06,0,.03.01.06.02.08,0,.02,0,.03.01.05,0,.04.02.09.03.13,0,.01,0,.03,0,.04,0,.04.02.07.02.1,0,.01,0,.03,0,.04,0,.04.02.09.03.12,0,0,0,.01,0,.02.01.05.02.09.03.14,0,.01,0,.02,0,.03,0,.04.02.08.03.12,0,0,0,.02,0,.03.02.1.04.19.07.29,0,0,0,.01,0,.02.78,3.5,1.53,7.03,2.25,10.59l19.61-3.95c-2.79-13.82-6.1-27.43-9.84-40.44h0Zm-31.09-78.11l-17.63,9.44c4.36,8.15,8.5,16.77,12.37,25.81v.02c.03.05.05.1.07.15,0,0,0,.02.01.03.01.03.02.05.03.08,0,0,0,.02.01.02.02.05.04.09.06.14,0,.02.01.03.02.04,0,.02.02.05.03.07.01.03.03.07.04.1,0,.02.02.04.03.07,0,.02.02.04.03.06.01.03.03.06.04.09,0,.02.02.04.03.07,0,.02.02.04.03.06.01.03.03.06.04.09,0,.02.02.04.02.06.01.03.02.05.04.09,0,.02.01.03.02.05.02.04.03.08.05.12,0,.01.01.03.02.04.02.04.03.06.04.1,0,.01,0,.02.01.03.02.04.04.09.05.12,0,0,0,.02.01.03.02.04.04.09.05.13,0,0,0,0,0,.01.02.04.04.09.05.13,0,0,0,0,0,.01.02.05.04.09.06.14,0,0,0,.01,0,.02.04.09.08.19.12.28,0,0,0,0,0,0,1.11,2.65,2.21,5.35,3.28,8.07l18.61-7.32c-5.34-13.59-11.29-26.52-17.67-38.44h0Zm-53.4-68.79l-12.88,15.3c8.39,7.06,16.42,15.44,24.01,24.99,0,0,0,0,0,0,.03.04.07.08.1.13h0s.03.04.05.06c0,0,0,0,0,0,.02.02.03.03.04.05,0,0,0,0,0,.01.03.04.06.08.1.12,0,0,0,0,0,0,.02.02.03.04.05.06,0,0,0,0,0,0,.01.02.03.04.04.05,0,0,0,.01.01.02.01.02.03.04.04.06,0,0,0,0,0,0,.01.02.03.04.04.06,0,0,0,0,0,0,.01.02.03.04.04.06,0,0,0,0,0,0,.01.02.03.04.04.05,0,0,0,0,.01.01.01.02.03.04.04.06,0,0,0,0,0,0,.01.02.03.04.05.06,0,0,0,0,0,0,.01.02.03.04.04.05,0,0,0,0,.01.01.01.02.02.03.04.05,0,0,.01.01.02.02.01.02.03.03.04.05,0,0,0,0,0,.01.02.02.02.03.04.05,0,0,0,.01.01.02.01.02.03.03.04.05,0,0,0,0,.01.01.01.02.03.03.04.05,0,0,0,.01.01.02.01.02.03.03.04.05,0,0,0,0,0,.01.01.02.03.04.04.05,0,0,0,.01.01.02.01.02.03.03.04.05,0,0,0,.01.01.02.01.02.02.03.04.05,0,0,.01.02.02.02.01.02.02.03.03.04,0,0,.01.01.02.02.01.02.02.03.04.05,0,0,.01.01.02.02.01.02.02.03.04.05,0,0,.01.01.02.02.01.02.02.03.04.05,0,0,.01.01.02.02.01.02.02.03.04.05,0,0,0,0,.01.02.01.02.03.03.04.05,0,0,0,.01.01.02.01.02.02.03.04.05,0,0,.01.01.02.02.01.02.02.03.03.04,0,0,.01.02.02.03.01.02.02.02.03.04,0,0,.01.01.02.02.01.02.02.03.04.05,0,0,0,.01.01.02.01.02.03.03.04.05,0,0,0,0,0,.01.02.02.02.03.04.05,0,0,0,.01.01.02.01.02.02.03.04.05,0,0,0,0,.01.01.02.02.02.03.04.05,0,0,0,0,0,0,.01.02.03.04.05.06,0,0,0,0,0,0,.01.02.03.04.04.06,0,0,0,0,.01.01.12.16.24.32.37.48,0,.01.02.02.03.03h0s.03.04.05.07c0,.01.01.02.02.03,0,.01.02.03.03.04,0,.01.02.02.02.03,0,.01.02.02.03.03,0,0,.02.02.02.03.01.01.02.03.03.04,0,0,0,.01.01.02.01.02.02.03.04.05,0,0,.01.02.02.02.01.01.02.03.03.04,0,0,.02.02.02.03,0,.01.02.03.03.04,0,0,.01.02.02.02.01.02.02.03.04.05,0,0,0,.01.01.02.01.02.02.03.04.05,0,0,.01.02.02.02.01.01.02.03.03.04,0,0,.01.02.02.03.01.01.02.03.03.04,0,0,0,.01.01.02.01.02.03.03.04.05,0,0,0,.01.01.02.01.02.02.03.04.05,0,0,.01.01.01.02.01.02.02.03.04.05,0,0,.01.02.02.02.01.02.02.03.04.05,0,0,0,0,.01.01,0,.01.02.02.03.04l15.96-12.05c-9.48-12.55-19.68-23.46-30.33-32.42h0Zm-78.36-30.93v20s.04,0,.07,0c0,0,0,0,.02,0,.02,0,.03,0,.05,0,0,0,.02,0,.02,0,.01,0,.03,0,.04,0,0,0,.02,0,.03,0,.01,0,.03,0,.04,0,0,0,.02,0,.03,0,.01,0,.02,0,.04,0,.01,0,.02,0,.03,0,.01,0,.02,0,.04,0,.01,0,.02,0,.03,0,.01,0,.02,0,.03,0,.01,0,.02,0,.03,0,.01,0,.02,0,.04,0,.01,0,.02,0,.03,0,.01,0,.02,0,.03,0,.01,0,.02,0,.03,0,.01,0,.02,0,.03,0,.01,0,.02,0,.03,0,.01,0,.02,0,.03,0,.01,0,.02,0,.03,0,.01,0,.02,0,.03,0,.01,0,.02,0,.03,0,.01,0,.02,0,.03,0,0,0,.03,0,.03,0,.01,0,.02,0,.03,0,0,0,.03,0,.03,0,.01,0,.03,0,.04,0,0,0,.02,0,.02,0,.01,0,.03,0,.04,0,0,0,.02,0,.03,0,.02,0,.03,0,.05,0,0,0,.01,0,.02,0,.02,0,.04,0,.06,0,0,0,.02,0,.02,0,.01,0,.03,0,.04,0,0,0,.02,0,.02,0,.01,0,.03,0,.04,0,0,0,.02,0,.03,0,.01,0,.03,0,.04,0,0,0,.02,0,.03,0,.01,0,.02,0,.04,0,.01,0,.02,0,.03,0,.01,0,.02,0,.04,0,.01,0,.02,0,.03,0,.01,0,.02,0,.03,0,.01,0,.02,0,.03,0,.01,0,.02,0,.03,0,.01,0,.02,0,.03,0,0,0,.02,0,.03,0,.01,0,.02,0,.03,0,.01,0,.02,0,.03,0,.01,0,.02,0,.03,0,.01,0,.02,0,.03,0,.01,0,.02,0,.03,0,.01,0,.02,0,.03,0,.01,0,.02,0,.03,0,.01,0,.02,0,.03,0,0,0,.02,0,.03,0,.01,0,.02,0,.04,0,0,0,.02,0,.03,0,0,0,.02,0,.03,0,.01,0,.02,0,.04,0,0,0,.02,0,.03,0,.01,0,.03,0,.04,0,0,0,.02,0,.03,0,.05,0,.1,0,.15,0,0,0,.01,0,.02,0,.01,0,.03,0,.04,0,0,0,.02,0,.02,0,.01,0,.03,0,.04,0,0,0,.02,0,.03,0,.01,0,.03,0,.04,0,0,0,.02,0,.02,0,.02,0,.02,0,.04,0,0,0,.01,0,.02,0,.02,0,.02,0,.04,0,0,0,.02,0,.02,0,.01,0,.03,0,.04,0,0,0,.02,0,.03,0,.01,0,.03,0,.04,0,0,0,.02,0,.03,0,.01,0,.03,0,.04,0,0,0,.02,0,.03,0,.01,0,.03,0,.04,0,0,0,.02,0,.03,0,.01,0,.02,0,.03,0,.01,0,.02,0,.03,0,.01,0,.02,0,.04,0,0,0,.02,0,.03,0,.02,0,.02,0,.04,0,0,0,.02,0,.03,0,.02,0,.02,0,.04,0,0,0,.02,0,.02,0,.01,0,.03,0,.04,0,0,0,.02,0,.02,0,.01,0,.03,0,.04,0,0,0,.01,0,.02,0,.02,0,.03,0,.04,0,0,0,0,0,0,0,.03,0,.06,0,.1,0,0,0,.01,0,.02,0,.02,0,.03,0,.05,0,0,0,.01,0,.02,0,.01,0,.03,0,.04,0,0,0,.01,0,.02,0,.01,0,.03,0,.04,0,0,0,.01,0,.02,0,.02,0,.02,0,.04,0,0,0,.02,0,.03,0,.02,0,.02,0,.04,0,0,0,.02,0,.03,0,.01,0,.03,0,.04,0,0,0,.02,0,.03,0,.01,0,.03,0,.04,0,0,0,.02,0,.02,0,.01,0,.03,0,.04,0,0,0,.02,0,.03,0,.01,0,.03,0,.04,0,0,0,.02,0,.02,0,.01,0,.03,0,.04,0,0,0,.02,0,.02,0,.02,0,.03,0,.04,0,0,0,.01,0,.02,0,.02,0,.03,0,.05,0,0,0,.01,0,.02,0,.02,0,.03,0,.05,0,0,0,0,0,.01,0,.02,0,.03,0,.05,0,0,0,0,0,.01,0,.12,0,.24.01.36.02,0,0,0,0,0,0,.02,0,.03,0,.05,0,0,0,0,0,0,0,.02,0,.03,0,.05,0,0,0,.01,0,.02,0,.02,0,.03,0,.05,0,0,0,.01,0,.02,0,.02,0,.03,0,.04,0,0,0,.01,0,.02,0,.02,0,.03,0,.05,0,0,0,.01,0,.02,0,.01,0,.03,0,.05,0,0,0,.01,0,.02,0,.01,0,.04,0,.05,0,0,0,.01,0,.02,0,.02,0,.03,0,.05,0,0,0,0,0,.01,0,.02,0,.04,0,.05,0,0,0,0,0,0,0,.02,0,.04,0,.05,0,0,0,0,0,.01,0,.02,0,.04,0,.05,0,0,0,0,0,0,0,.02,0,.03,0,.06,0,0,0,0,0,0,0,.16.01.33.02.48.03,0,0,0,0,.01,0,.02,0,.04,0,.05,0,0,0,0,0,0,0,.02,0,.04,0,.05,0,0,0,0,0,0,0,.02,0,.04,0,.06,0,0,0,0,0,0,0,.02,0,.03,0,.06,0,0,0,0,0,0,0,.02,0,.04,0,.06,0,0,0,0,0,0,0,.02,0,.04,0,.06,0,0,0,0,0,0,0,.02,0,.04,0,.06,0,0,0,0,0,0,0,.02,0,.04,0,.06,0,0,0,0,0,0,0,.25.02.49.04.74.06,0,0,0,0,0,0,.02,0,.04,0,.06,0,0,0,0,0,0,0,.02,0,.04,0,.06,0,0,0,0,0,0,0,.02,0,.04,0,.06,0h0s.04,0,.06,0c0,0,0,0,0,0,5.96.52,11.84,1.65,17.62,3.36h0s.08.02.12.04c0,0,0,0,0,0,.02,0,.03.01.06.02,0,0,0,0,0,0,.02,0,.03.01.05.02,0,0,0,0,.01,0,.02,0,.03.01.05.01,0,0,0,0,0,0,.02,0,.04.01.05.02,0,0,0,0,0,0,.02,0,.04.01.05.02,0,0,0,0,0,0,.02,0,.03.01.06.02,0,0,0,0,.01,0,.15.05.31.09.46.14,0,0,.01,0,.02,0,.02,0,.03,0,.05.01,0,0,0,0,.01,0,.02,0,.03,0,.04.01,0,0,.01,0,.02,0,.02,0,.03,0,.04.01,0,0,.01,0,.02,0,.01,0,.03,0,.04.01,0,0,.02,0,.02,0,.01,0,.03,0,.04.01,0,0,.02,0,.02,0,.01,0,.03,0,.04.01,0,0,.02,0,.03,0,.01,0,.02,0,.03.01,0,0,.02,0,.03,0,.01,0,.03,0,.04.01,0,0,.02,0,.03,0,.01,0,.02,0,.03.01,0,0,.02,0,.02,0,.02,0,.02,0,.04.01,0,0,.02,0,.03,0,.01,0,.02,0,.03.01,0,0,.02,0,.03,0,.01,0,.02,0,.03.01,0,0,.02,0,.03,0,.01,0,.02,0,.04.01,0,0,0,0,.01,0,.05.02.1.03.14.05,0,0,.02,0,.03,0,.01,0,.02,0,.03,0,.01,0,.02,0,.04.01,0,0,.02,0,.02,0,.01,0,.03,0,.04.01,0,0,.02,0,.02,0,.01,0,.03,0,.04.01,0,0,.02,0,.02,0,.01,0,.03,0,.04.01,0,0,.02,0,.02,0,.01,0,.03,0,.04.01.01,0,.01,0,.02,0,.01,0,.03,0,.04.01.01,0,.01,0,.02,0,.01,0,.03,0,.04.01.01,0,0,0,.02,0,.02,0,.03,0,.05.02,0,0,.01,0,.02,0,.02,0,.03.01.05.02,0,0,0,0,.01,0,.02,0,.03.01.05.02,0,0,0,0,.01,0,.02,0,.04.01.06.02h0s.04.01.06.02h0c.17.06.34.11.5.17h0s.04.01.06.02h0s.04.01.06.02h0s.04.01.06.02h0s.04.01.06.02h0s.04.02.06.02h0c.91.31,1.81.63,2.71.97l7-18.74c-12.5-4.67-25.4-7.04-38.34-7.04h0Z"/>
  </g>
  <g>
    <circle class="cls-3" cx="245.34" cy="399.81" r="56.19"/>
    <path class="cls-2" d="m245.34,353.62c25.51,0,46.19,20.68,46.19,46.19s-20.68,46.19-46.19,46.19-46.19-20.68-46.19-46.19,20.68-46.19,46.19-46.19m0-20c-36.5,0-66.19,29.69-66.19,66.19s29.69,66.19,66.19,66.19,66.19-29.69,66.19-66.19-29.69-66.19-66.19-66.19h0Z"/>
  </g>
  <g>
    <path class="cls-3" d="m245.34,675.22c-30.98,0-56.19-25.21-56.19-56.19s25.21-56.19,56.19-56.19,56.19,25.21,56.19,56.19-25.21,56.19-56.19,56.19Z"/>
    <path class="cls-2" d="m245.34,572.84c25.51,0,46.19,20.68,46.19,46.19s-20.68,46.19-46.19,46.19-46.19-20.68-46.19-46.19,20.68-46.19,46.19-46.19m0-20c-36.5,0-66.19,29.69-66.19,66.19s29.69,66.19,66.19,66.19,66.19-29.69,66.19-66.19-29.69-66.19-66.19-66.19h0Z"/>
  </g>
  <g>
    <path class="cls-4" d="m771.77,456c-30.98,0-56.19-25.21-56.19-56.19s25.21-56.19,56.19-56.19,56.19,25.21,56.19,56.19-25.21,56.19-56.19,56.19Z"/>
    <path class="cls-2" d="m771.77,353.62c25.51,0,46.19,20.68,46.19,46.19s-20.68,46.19-46.19,46.19-46.19-20.68-46.19-46.19,20.68-46.19,46.19-46.19m0-20c-36.5,0-66.19,29.69-66.19,66.19s29.69,66.19,66.19,66.19,66.19-29.69,66.19-66.19-29.69-66.19-66.19-66.19h0Z"/>
  </g>
  <g>
    <path class="cls-3" d="m771.77,675.22c-30.98,0-56.19-25.21-56.19-56.19s25.21-56.19,56.19-56.19,56.19,25.21,56.19,56.19-25.21,56.19-56.19,56.19Z"/>
    <path class="cls-2" d="m771.77,572.84c25.51,0,46.19,20.68,46.19,46.19s-20.68,46.19-46.19,46.19-46.19-20.68-46.19-46.19,20.68-46.19,46.19-46.19m0-20c-36.5,0-66.19,29.69-66.19,66.19s29.69,66.19,66.19,66.19,66.19-29.69,66.19-66.19-29.69-66.19-66.19-66.19h0Z"/>
  </g>
  <g>
    <line class="cls-1" x1="245.34" y1="619.03" x2="664.87" y2="439.54"/>
    <g>
      <path class="cls-6" d="m656.85,492.71c-.48,0-.96-.03-1.44-.1-3.63-.53-6.69-3.01-7.95-6.46l-24.28-66.26c-1.24-3.37-.57-7.15,1.75-9.89,1.92-2.27,4.73-3.55,7.64-3.55.6,0,1.21.05,1.81.17l64.75,11.92c3.4.63,6.23,2.96,7.5,6.18,1.26,3.22.78,6.86-1.29,9.63l-40.47,54.34c-1.9,2.56-4.89,4.03-8.02,4.03Z"/>
      <path class="cls-2" d="m632.57,416.45l64.74,11.92-40.47,54.34-24.28-66.26m0-20c-5.83,0-11.45,2.55-15.29,7.1-4.63,5.49-5.96,13.04-3.49,19.78l24.28,66.26c2.53,6.9,8.63,11.85,15.9,12.91.96.14,1.93.21,2.88.21,6.26,0,12.23-2.94,16.04-8.06l40.47-54.34c4.13-5.54,5.1-12.83,2.57-19.26-2.53-6.43-8.2-11.11-14.99-12.36l-64.74-11.92c-1.21-.22-2.42-.33-3.62-.33h0Z"/>
    </g>
  </g>
  <g>
    <line class="cls-1" x1="245.22" y1="397.99" x2="660.88" y2="586.83"/>
    <g>
      <path class="cls-6" d="m637.76,619.1c-2.99,0-5.86-1.34-7.77-3.71-2.31-2.86-2.87-6.75-1.46-10.14l26.89-64.51c1.38-3.31,4.43-5.63,8-6.08.41-.05.83-.08,1.24-.08,3.13,0,6.1,1.47,8,4.01l39.07,52.2c2.07,2.77,2.57,6.41,1.31,9.63s-4.08,5.56-7.48,6.2l-65.97,12.31c-.61.11-1.23.17-1.83.17Z"/>
      <path class="cls-2" d="m664.65,544.59l39.07,52.2-65.97,12.31,26.89-64.51m0-20c-.82,0-1.65.05-2.47.15-7.12.89-13.23,5.52-15.99,12.15l-26.89,64.51c-2.83,6.78-1.71,14.56,2.91,20.27,3.84,4.74,9.58,7.42,15.55,7.42,1.22,0,2.45-.11,3.67-.34l65.97-12.31c6.79-1.27,12.45-5.95,14.96-12.39,2.51-6.44,1.52-13.72-2.62-19.25l-39.07-52.2c-3.8-5.08-9.76-8.02-16.01-8.02h0Z"/>
    </g>
  </g>
</svg>