<?xml version="1.0" encoding="UTF-8"?>
<svg id="Ebene_1" data-name="Ebene 1" xmlns="http://www.w3.org/2000/svg" viewBox="0 0 1025 1025">
  <defs>
    <style>
      .cls-1 {
        fill: #f0c34e;
        stroke: #000;
        stroke-miterlimit: 10;
        stroke-width: 20px;
      }

      .cls-2, .cls-3, .cls-4, .cls-5 {
        stroke-width: 0px;
      }

      .cls-3 {
        fill: #c03b2d;
      }

      .cls-4 {
        fill: #30628b;
      }

      .cls-5 {
        fill: #faf3dc;
      }
    </style>
  </defs>
  <rect class="cls-5" width="1025" height="1025"/>
  <path class="cls-1" d="m839.16,863.79h0c0,52.58-37.65,95.21-84.09,95.21h-485.88c-46.44,0-84.09-42.63-84.09-95.21v-.8c0-22.49,7.03-44.26,19.86-61.44l239.01-320.3c33.27-44.58,93.81-45.09,127.65-1.07l246.87,321.1c13.32,17.33,20.66,39.53,20.66,62.51Z"/>
  <circle class="cls-3" cx="889.02" cy="646.15" r="83.1"/>
  <circle class="cls-4" cx="145.99" cy="646.15" r="83.1"/>
  <path class="cls-2" d="m510.52,209.84s24.25,44.6,93.54,84.49c84.64,48.72,158.37,139.59,158.37,139.59l-34.64,24.93,144.56,79.23-25.78-159-34.64,24.93s-77.15-113.64-207.86-179.48c-79.19-39.88-59.39-159.53-59.39-159.53h-68.3s19.8,119.65-59.39,159.53c-130.72,65.84-207.86,179.48-207.86,179.48l-34.64-24.93-25.78,159,144.56-79.23-34.64-24.93s73.73-90.87,158.37-139.59c69.29-39.88,93.54-84.49,93.54-84.49h0Z"/>
</svg>