<?xml version="1.0" encoding="UTF-8"?>
<svg id="Ebene_1" data-name="Ebene 1" xmlns="http://www.w3.org/2000/svg" viewBox="0 0 200 146">
  <defs>
    <style>
      .cls-1 {
        fill: none;
        stroke: #000;
        stroke-linecap: round;
        stroke-miterlimit: 10;
        stroke-width: 2px;
      }

      .cls-2 {
        font-family: Noteworthy-Bold, Noteworthy;
        font-size: 15px;
        font-weight: 700;
      }

      .cls-3 {
        fill: #fbf2d8;
      }

      .cls-4 {
        letter-spacing: -.02em;
      }

      .cls-5 {
        letter-spacing: -.02em;
      }

      .cls-6 {
        letter-spacing: -.03em;
      }

      .cls-7 {
        letter-spacing: .02em;
      }

      .cls-8 {
        letter-spacing: .02em;
      }

      .cls-9 {
        letter-spacing: .02em;
      }

      .cls-10 {
        letter-spacing: .03em;
      }

      .cls-11 {
        letter-spacing: .03em;
      }
    </style>
  </defs>
  <rect class="cls-3" width="200" height="146"/>
  <text class="cls-2" transform="translate(14.21 31.7)"><tspan x="0" y="0">60</tspan><tspan x="0" y="30">30</tspan><tspan x="0" y="60">15</tspan></text>
  <text class="cls-2" transform="translate(59.21 31.7)"><tspan x="0" y="0">2</tspan><tspan x="0" y="30">2</tspan><tspan x="0" y="60">n. </tspan><tspan class="cls-6" x="14.7" y="60">t</tspan><tspan class="cls-10" x="19.82" y="60">e</tspan><tspan x="27.39" y="60">i</tspan><tspan class="cls-9" x="30.45" y="60">l</tspan><tspan class="cls-5" x="33.71" y="60">b</tspan><tspan class="cls-7" x="41.12" y="60">a</tspan><tspan x="49.42" y="60">r d</tspan><tspan class="cls-11" x="66.13" y="60">u</tspan><tspan class="cls-6" x="73.46" y="60">r</tspan><tspan x="79.01" y="60">ch 2!</tspan><tspan x="0" y="90">Aber </tspan><tspan class="cls-6" x="35.27" y="90">t</tspan><tspan class="cls-11" x="40.39" y="90">e</tspan><tspan x="47.96" y="90">i</tspan><tspan class="cls-8" x="51.02" y="90">l</tspan><tspan class="cls-4" x="54.28" y="90">b</tspan><tspan class="cls-7" x="61.69" y="90">a</tspan><tspan x="69.99" y="90">r d</tspan><tspan class="cls-11" x="86.7" y="90">u</tspan><tspan class="cls-6" x="94.03" y="90">r</tspan><tspan x="99.58" y="90">ch 3</tspan></text>
  <line class="cls-1" x1="48" y1="11" x2="48" y2="134"/>
</svg>