<?xml version="1.0" encoding="UTF-8"?>
<svg id="Ebene_1" data-name="Ebene 1" xmlns="http://www.w3.org/2000/svg" viewBox="0 0 794 442">
  <defs>
    <style>
      .cls-1, .cls-2 {
        letter-spacing: .05em;
      }

      .cls-3 {
        letter-spacing: .05em;
      }

      .cls-4, .cls-5 {
        letter-spacing: .05em;
      }

      .cls-6 {
        letter-spacing: .08em;
      }

      .cls-7 {
        letter-spacing: .08em;
      }

      .cls-8 {
        font-family: CMUBright-SemiBold, 'CMU Bright';
        font-size: 62.51px;
        font-weight: 600;
      }

      .cls-9 {
        letter-spacing: .02em;
      }

      .cls-10 {
        fill: none;
        stroke: #000;
        stroke-linecap: round;
        stroke-miterlimit: 10;
        stroke-width: 7px;
      }

      .cls-11 {
        letter-spacing: .02em;
      }

      .cls-12 {
        letter-spacing: .07em;
      }

      .cls-13 {
        letter-spacing: .07em;
      }

      .cls-14 {
        letter-spacing: .07em;
      }

      .cls-15 {
        letter-spacing: .07em;
      }

      .cls-16 {
        letter-spacing: .03em;
      }

      .cls-17, .cls-18 {
        stroke-width: 0px;
      }

      .cls-5, .cls-2, .cls-19 {
        font-family: Noteworthy-Bold, Noteworthy;
        font-size: 31.26px;
        font-weight: 700;
      }

      .cls-18 {
        fill: #f9f2db;
      }

      .cls-20 {
        letter-spacing: .02em;
      }

      .cls-21 {
        letter-spacing: .02em;
      }
    </style>
  </defs>
  <rect class="cls-18" width="794" height="442"/>
  <text class="cls-8" transform="translate(420.56 259.88)"><tspan x="0" y="0">f(x) = y</tspan></text>
  <g>
    <path class="cls-18" d="m448.31,133.93c21.27,37.87,33.99,64.14,30.01,66.89-2.57,1.77-11.66-6.56-11.88-6.25-.2.28,7.13,7.99,11.88,6.25,3.93-1.44,4.89-8.91,5-15.63"/>
    <path class="cls-17" d="m476.8,203.26c-5.3,0-10.89-5.72-11.91-7.04-1.07-1.4-.52-2.5-.23-2.91l.54-.77.94-.15c1.04-.16,1.53.22,3.37,1.64,4.4,3.39,6.44,4.47,7.38,4.75.03-1.42-.71-5.92-7.04-19.39-5.07-10.8-12.95-25.74-23.43-44.39-.59-1.05-.22-2.39.84-2.98,1.05-.59,2.39-.22,2.98.84,19.73,35.12,27.64,52.19,30.09,60.8.43-1.98.76-4.72.82-8.51.02-1.2,1-2.15,2.19-2.15.01,0,.02,0,.04,0,1.21.02,2.17,1.02,2.15,2.22-.17,10.3-2.15,15.9-6.21,17.56-.64.37-1.35.51-2.12.47-.13,0-.25,0-.38,0Z"/>
  </g>
  <text class="cls-19" transform="translate(354 84.98)"><tspan class="cls-1" x="0" y="0">Una</tspan><tspan class="cls-14" x="57.67" y="0">b</tspan><tspan class="cls-3" x="75.87" y="0">hän</tspan><tspan class="cls-7" x="128.5" y="0">g</tspan><tspan class="cls-16" x="146.9" y="0">i</tspan><tspan class="cls-1" x="154.21" y="0">ge</tspan><tspan class="cls-20" x="0" y="37.51">V</tspan><tspan class="cls-12" x="21.88" y="37.51">a</tspan><tspan class="cls-4" x="40.75" y="37.51">r</tspan><tspan class="cls-9" x="54.81" y="37.51">i</tspan><tspan class="cls-1" x="61.85" y="37.51">a</tspan><tspan class="cls-15" x="80.13" y="37.51">b</tspan><tspan class="cls-1" x="98.34" y="37.51">le</tspan></text>
  <text class="cls-5" transform="translate(27 314.98)"><tspan x="0" y="0">x</tspan></text>
  <text class="cls-2" transform="translate(296 314.98)"><tspan x="0" y="0">y</tspan></text>
  <text class="cls-5" transform="translate(156 51.98)"><tspan x="0" y="0">z</tspan></text>
  <text class="cls-19" transform="translate(613.42 368.78)"><tspan class="cls-1" x="0" y="0">A</tspan><tspan class="cls-14" x="25.16" y="0">b</tspan><tspan class="cls-1" x="43.37" y="0">hän</tspan><tspan class="cls-6" x="95.99" y="0">g</tspan><tspan class="cls-16" x="114.39" y="0">i</tspan><tspan class="cls-1" x="121.7" y="0">ge</tspan><tspan class="cls-21" x="0" y="37.51">V</tspan><tspan class="cls-13" x="21.88" y="37.51">a</tspan><tspan class="cls-3" x="40.75" y="37.51">r</tspan><tspan class="cls-11" x="54.81" y="37.51">i</tspan><tspan class="cls-1" x="61.85" y="37.51">a</tspan><tspan class="cls-14" x="80.13" y="37.51">b</tspan><tspan class="cls-1" x="98.34" y="37.51">le</tspan></text>
  <g>
    <path class="cls-18" d="m638.97,326.46c-7.34-34.09-11.71-44.67-14.38-44.38-2.42.26-3.5,9.44-3.75,9.38-.22-.06,0-7.51,3.75-9.38,3.39-1.68,8.54,1.71,12.5,5"/>
    <path class="cls-17" d="m638.97,328.65c-1.01,0-1.92-.7-2.14-1.73-6.78-31.48-10.44-39.86-11.97-42.07-.38.87-.89,2.53-1.53,5.64-.33,1.61-.47,2.28-1.32,2.82l-.79.5-.92-.23c-.35-.09-1.52-.5-1.68-2.05-.1-.96.12-6.96,3.25-10.13.56-.72,1.23-1.21,2.04-1.41,3.56-1.55,8.33.23,14.58,5.42.93.77,1.06,2.15.29,3.08-.77.93-2.15,1.06-3.08.29-2.52-2.1-4.47-3.34-5.96-4.06.76,1.56,1.53,3.53,2.36,5.96,2.52,7.39,5.55,19.28,9.01,35.33.25,1.18-.5,2.35-1.68,2.6-.16.03-.31.05-.46.05Z"/>
  </g>
  <path class="cls-10" d="m166.5,79.5v125.04c43.17,25.15,86.33,50.31,129.5,75.46"/>
  <path class="cls-10" d="m47,279c39.83-24.83,79.67-49.67,119.5-74.5"/>
</svg>