<?xml version="1.0" encoding="UTF-8"?>
<svg id="Ebene_1" data-name="Ebene 1" xmlns="http://www.w3.org/2000/svg" viewBox="0 0 1259.64 290">
  <rect width="1259.64" height="290" fill="#fbf2d8"/>
  <g>
    <rect x="139.41" y="61.16" width="87.77" height="87.77" fill="#d32a20"/>
    <path d="M229.68,151.43h-92.77V58.66h92.77v92.77ZM141.91,146.43h82.77V63.66h-82.77v82.77Z"/>
  </g>
  <g>
    <rect x="51.41" y="61.16" width="87.77" height="87.77" fill="#d32a20"/>
    <path d="M141.68,151.43H48.91V58.66h92.77v92.77ZM53.91,146.43h82.77V63.66H53.91v82.77Z"/>
  </g>
  <g>
    <rect x="227.18" y="61.16" width="87.77" height="87.77" fill="#d32a20"/>
    <path d="M317.44,151.43h-92.77V58.66h92.77v92.77ZM229.68,146.43h82.77V63.66h-82.77v82.77Z"/>
  </g>
  <g>
    <rect x="314.94" y="61.16" width="87.77" height="87.77" fill="#d32a20"/>
    <path d="M405.21,151.43h-92.77V58.66h92.77v92.77ZM317.44,146.43h82.77V63.66h-82.77v82.77Z"/>
  </g>
  <g>
    <rect x="403.11" y="61.57" width="87.77" height="87.77" fill="#f9c12b"/>
    <path d="M493.38,151.84h-92.77V59.07h92.77v92.77ZM405.61,146.84h82.77v-82.77h-82.77v82.77Z"/>
  </g>
  <g>
    <rect x="490.88" y="61.57" width="87.77" height="87.77" fill="#f9c12b"/>
    <path d="M581.14,151.84h-92.77V59.07h92.77v92.77ZM493.38,146.84h82.77v-82.77h-82.77v82.77Z"/>
  </g>
  <g>
    <rect x="681.41" y="61.16" width="87.77" height="87.77" fill="#f9c12b"/>
    <path d="M771.68,151.43h-92.77V58.66h92.77v92.77ZM683.91,146.43h82.77V63.66h-82.77v82.77Z"/>
  </g>
  <g>
    <rect x="769.18" y="61.16" width="87.77" height="87.77" fill="#f9c12b"/>
    <path d="M859.44,151.43h-92.77V58.66h92.77v92.77ZM771.68,146.43h82.77V63.66h-82.77v82.77Z"/>
  </g>
  <g>
    <rect x="856.94" y="61.16" width="87.77" height="87.77" fill="#d32a20"/>
    <path d="M947.21,151.43h-92.77V58.66h92.77v92.77ZM859.44,146.43h82.77V63.66h-82.77v82.77Z"/>
  </g>
  <g>
    <rect x="945.11" y="61.57" width="87.77" height="87.77" fill="#d32a20"/>
    <path d="M1035.38,151.84h-92.77V59.07h92.77v92.77ZM947.61,146.84h82.77v-82.77h-82.77v82.77Z"/>
  </g>
  <g>
    <rect x="1032.88" y="61.57" width="87.77" height="87.77" fill="#d32a20"/>
    <path d="M1123.14,151.84h-92.77V59.07h92.77v92.77ZM1035.38,146.84h82.77v-82.77h-82.77v82.77Z"/>
  </g>
  <g>
    <rect x="1120.88" y="61.57" width="87.77" height="87.77" fill="#d32a20"/>
    <path d="M1211.14,151.84h-92.77V59.07h92.77v92.77ZM1123.38,146.84h82.77v-82.77h-82.77v82.77Z"/>
  </g>
  <g>
    <path d="M234.12,240.95l.68-3.2,13.83-17.13h4.41l-3.61,17.13h3.93l-.68,3.2h-3.92l-1.31,6.23h-3.77l1.37-6.23h-10.92ZM238.42,237.74h7.32l3.06-13.89c-.53,1.15-1.49,2.63-2.87,4.44s-3.89,4.96-7.52,9.44Z"/>
    <path d="M270.5,236.63c0-1,.62-1.5,1.88-1.48h7.4c1.12-5.31,1.71-8.03,1.76-8.16.26-.56.71-.84,1.35-.84.38,0,.72.13,1.03.4.31.27.46.64.46,1.13,0,.16-.51,2.65-1.52,7.47h6.76c.72,0,1.2.16,1.46.49.26.33.39.66.39.99,0,.18-.04.37-.11.57-.07.2-.26.4-.57.62-.31.21-.71.32-1.22.32h-7.38c-1.12,5.27-1.73,7.99-1.82,8.16-.33.56-.76.84-1.31.84-.38,0-.72-.14-1.03-.42-.31-.28-.46-.65-.46-1.11,0-.16.51-2.65,1.52-7.47h-6.84c-.48,0-.86-.11-1.14-.32-.28-.21-.45-.42-.52-.62-.07-.2-.1-.39-.1-.57Z"/>
    <path d="M306.93,247.18l.68-3.2,6.41-4.96c.3-.21.88-.62,1.75-1.25.87-.62,1.46-1.06,1.8-1.32s.85-.67,1.55-1.24c.7-.57,1.22-1.03,1.54-1.37.33-.34.73-.79,1.2-1.35.48-.56.82-1.06,1.04-1.51s.41-.96.59-1.53c.18-.57.26-1.15.26-1.74,0-1.3-.43-2.33-1.28-3.1-.85-.76-1.92-1.14-3.21-1.14-.91,0-1.75.18-2.52.54-.77.36-1.42.86-1.95,1.51-.53.65-.94,1.2-1.22,1.66-.28.46-.57,1-.87,1.64l-1.64-2.71c.43-.72.85-1.34,1.27-1.85.42-.51,1-1.12,1.76-1.82.75-.7,1.67-1.24,2.75-1.61,1.08-.37,2.29-.56,3.63-.56,2.27,0,4.06.62,5.38,1.85,1.32,1.23,1.98,2.87,1.98,4.91,0,.91-.14,1.76-.42,2.56-.28.79-.6,1.47-.95,2.03-.35.56-.92,1.2-1.71,1.92-.79.72-1.44,1.28-1.95,1.66-.51.38-1.34.98-2.47,1.8-1.13.81-2,1.44-2.6,1.87l-6.64,4.96h13.38l-.72,3.36h-16.82Z"/>
    <path d="M342.93,240.53c0-.8.41-1.29,1.23-1.46.21-.03.51-.04.92-.04h16.91c1.25,0,1.88.5,1.88,1.49,0,1-.63,1.49-1.92,1.49h-17.23c-.48,0-.87-.11-1.16-.32s-.47-.41-.54-.59c-.07-.19-.1-.38-.1-.58ZM344.55,232.74c0-1.04.75-1.55,2.25-1.52h16.68c1.35,0,2.04.51,2.05,1.52,0,.18-.04.37-.11.58-.07.2-.25.4-.55.6s-.69.29-1.2.29h-17.38c-.48,0-.86-.1-1.14-.31-.28-.21-.45-.41-.51-.6-.06-.19-.09-.38-.09-.56Z"/>
    <path d="M381.93,239.67c0-3.47.7-6.7,2.1-9.7,1.4-3,3.23-5.37,5.5-7.08s4.66-2.58,7.19-2.58c1.47,0,2.86.25,4.16.76l-.68,3.07c-1.42-.56-2.76-.84-4.02-.84-1.95,0-3.73.65-5.33,1.96s-2.81,3.38-3.63,6.2l-.31,1.29c2.4-2.75,5.07-4.12,8.03-4.12,1.63,0,2.83.72,3.59,2.15.72,1.33,1.08,2.75,1.09,4.28,0,2.24-.47,4.31-1.41,6.21-.77,1.52-2.02,3-3.76,4.44-1.74,1.44-3.71,2.16-5.93,2.16-.74,0-1.46-.11-2.15-.34-.69-.23-1.39-.62-2.1-1.18-.71-.56-1.28-1.41-1.7-2.55-.42-1.14-.63-2.52-.63-4.12ZM385.52,240.9c0,2.57,1.24,3.85,3.71,3.85.51,0,.98-.05,1.43-.16.44-.1.83-.22,1.16-.34s.64-.33.94-.63.54-.54.74-.74c.2-.2.4-.52.61-.96.2-.44.35-.76.44-.98.09-.21.2-.6.33-1.14.13-.55.21-.92.25-1.11s.12-.58.24-1.16c.12-.59.2-.95.22-1.08.1-.74.16-1.3.16-1.68,0-.33-.03-.61-.08-.86-.05-.25-.12-.47-.2-.67s-.19-.38-.32-.53c-.14-.15-.26-.28-.38-.38-.12-.1-.28-.2-.48-.27-.2-.08-.35-.14-.46-.2-.1-.05-.27-.09-.5-.13-.23-.03-.38-.06-.46-.07-.08-.01-.22-.03-.42-.04-.2-.01-.32-.02-.34-.02-1.12.1-2.11.44-2.96,1.01-.85.57-1.5,1.2-1.94,1.91-.44.7-.8,1.5-1.08,2.4-.28.89-.45,1.64-.52,2.24-.07.6-.1,1.18-.1,1.74Z"/>
  </g>
  <g>
    <path d="M862.17,248.68l.68-3.2,6.41-4.96c.3-.21.88-.62,1.75-1.25.87-.62,1.46-1.06,1.8-1.32s.85-.67,1.55-1.24c.7-.57,1.22-1.03,1.54-1.37.33-.34.73-.79,1.2-1.35.47-.56.82-1.06,1.04-1.51s.41-.96.59-1.53c.18-.57.26-1.15.26-1.74,0-1.3-.43-2.33-1.28-3.1-.85-.76-1.92-1.14-3.21-1.14-.91,0-1.75.18-2.52.54-.77.36-1.42.86-1.95,1.51-.53.65-.94,1.2-1.22,1.66-.28.46-.57,1-.87,1.64l-1.64-2.71c.43-.72.85-1.34,1.27-1.85.42-.51,1-1.12,1.76-1.82.75-.7,1.67-1.24,2.75-1.61,1.08-.37,2.29-.56,3.63-.56,2.27,0,4.06.62,5.38,1.85,1.32,1.23,1.98,2.87,1.98,4.91,0,.91-.14,1.76-.42,2.56-.28.79-.6,1.47-.95,2.03-.35.56-.92,1.2-1.71,1.92-.79.72-1.44,1.28-1.95,1.66-.51.38-1.34.98-2.47,1.8-1.13.81-2,1.44-2.6,1.87l-6.64,4.96h13.38l-.72,3.36h-16.82Z"/>
    <path d="M899,238.13c0-1,.62-1.5,1.88-1.48h7.4c1.12-5.31,1.71-8.03,1.76-8.16.26-.56.71-.84,1.35-.84.38,0,.72.13,1.03.4.31.27.46.64.46,1.13,0,.16-.51,2.65-1.52,7.47h6.76c.72,0,1.2.16,1.46.49.26.33.39.66.39.99,0,.18-.04.37-.11.57-.07.2-.26.4-.57.62-.31.21-.71.32-1.22.32h-7.38c-1.12,5.27-1.73,7.99-1.82,8.16-.33.56-.76.84-1.31.84-.38,0-.72-.14-1.03-.42-.31-.28-.46-.65-.46-1.11,0-.16.51-2.65,1.52-7.47h-6.84c-.48,0-.86-.11-1.14-.32-.28-.21-.45-.42-.52-.62-.07-.2-.1-.39-.1-.57Z"/>
    <path d="M935.88,242.45l.68-3.2,13.83-17.13h4.41l-3.61,17.13h3.93l-.68,3.2h-3.92l-1.31,6.23h-3.77l1.37-6.23h-10.92ZM940.18,239.24h7.32l3.06-13.89c-.53,1.15-1.49,2.63-2.87,4.44s-3.89,4.96-7.52,9.44Z"/>
    <path d="M971.43,242.03c0-.8.41-1.29,1.23-1.46.21-.03.51-.04.92-.04h16.91c1.25,0,1.88.5,1.88,1.49,0,1-.63,1.49-1.92,1.49h-17.23c-.48,0-.87-.11-1.16-.32s-.47-.41-.54-.59c-.07-.19-.1-.38-.1-.58ZM973.05,234.24c0-1.04.75-1.55,2.25-1.52h16.68c1.35,0,2.04.51,2.05,1.52,0,.18-.04.37-.11.58-.07.2-.25.4-.55.6s-.69.29-1.2.29h-17.38c-.48,0-.86-.1-1.14-.31-.28-.21-.45-.41-.51-.6-.06-.19-.09-.38-.09-.56Z"/>
    <path d="M1010.43,241.17c0-3.47.7-6.7,2.1-9.7,1.4-3,3.23-5.37,5.5-7.08s4.66-2.58,7.19-2.58c1.47,0,2.86.25,4.16.76l-.68,3.07c-1.42-.56-2.76-.84-4.02-.84-1.95,0-3.73.65-5.33,1.96s-2.81,3.38-3.63,6.2l-.31,1.29c2.4-2.75,5.07-4.12,8.03-4.12,1.63,0,2.83.72,3.59,2.15.72,1.33,1.08,2.75,1.09,4.28,0,2.24-.47,4.31-1.41,6.21-.77,1.52-2.02,3-3.76,4.44-1.74,1.44-3.71,2.16-5.93,2.16-.74,0-1.46-.11-2.15-.34-.69-.23-1.39-.62-2.1-1.18-.71-.56-1.28-1.41-1.7-2.55-.42-1.14-.63-2.52-.63-4.12ZM1014.02,242.4c0,2.57,1.24,3.85,3.71,3.85.51,0,.98-.05,1.43-.16.44-.1.83-.22,1.16-.34s.64-.33.94-.63.54-.54.74-.74c.2-.2.4-.52.61-.96.2-.44.35-.76.44-.98.09-.21.2-.6.33-1.14.13-.55.21-.92.25-1.11s.12-.58.24-1.16c.12-.59.2-.95.22-1.08.1-.74.16-1.3.16-1.68,0-.33-.03-.61-.08-.86-.05-.25-.12-.47-.2-.67s-.19-.38-.32-.53c-.14-.15-.26-.28-.38-.38-.12-.1-.28-.2-.48-.27-.2-.08-.36-.14-.46-.2-.1-.05-.27-.09-.5-.13-.23-.03-.38-.06-.46-.07-.08-.01-.22-.03-.42-.04-.2-.01-.32-.02-.34-.02-1.12.1-2.11.44-2.96,1.01-.85.57-1.5,1.2-1.94,1.91-.44.7-.8,1.5-1.08,2.4-.28.89-.45,1.64-.52,2.24-.07.6-.1,1.18-.1,1.74Z"/>
  </g>
</svg>