<?xml version="1.0" encoding="UTF-8"?>
<svg id="Ebene_1" data-name="Ebene 1" xmlns="http://www.w3.org/2000/svg" viewBox="0 0 1365.64 767.78">
  <defs>
    <style>
      .cls-1 {
        fill: #f9c12b;
      }

      .cls-2 {
        font-family: CMUSerif-BoldItalic, 'CMU Serif';
        font-style: italic;
        font-weight: 700;
      }

      .cls-2, .cls-3 {
        font-size: 40px;
      }

      .cls-4 {
        letter-spacing: -.06em;
      }

      .cls-5 {
        fill: #fbf2d8;
      }

      .cls-6 {
        letter-spacing: -.03em;
      }

      .cls-7 {
        fill: #d32a20;
      }

      .cls-3 {
        font-family: CMUBright-SemiBoldOblique, 'CMU Bright';
        font-style: oblique;
        font-weight: 600;
      }
    </style>
  </defs>
  <rect class="cls-5" width="1365.64" height="767.78"/>
  <g>
    <rect class="cls-7" x="192.41" y="152.16" width="87.77" height="87.77"/>
    <path d="M282.68,242.43h-92.77v-92.77h92.77v92.77ZM194.91,237.43h82.77v-82.77h-82.77v82.77Z"/>
  </g>
  <g>
    <rect class="cls-7" x="104.41" y="152.16" width="87.77" height="87.77"/>
    <path d="M194.68,242.43h-92.77v-92.77h92.77v92.77ZM106.91,237.43h82.77v-82.77h-82.77v82.77Z"/>
  </g>
  <path d="M488.25,450h-51.34v-51.34h51.34v51.34ZM439.91,447h45.34v-45.34h-45.34v45.34Z"/>
  <path d="M536.25,450h-51.34v-51.34h51.34v51.34ZM487.91,447h45.34v-45.34h-45.34v45.34Z"/>
  <path d="M585.25,450h-51.34v-51.34h51.34v51.34ZM536.91,447h45.34v-45.34h-45.34v45.34Z"/>
  <path d="M633.25,450h-51.34v-51.34h51.34v51.34ZM584.91,447h45.34v-45.34h-45.34v45.34Z"/>
  <path d="M488.25,498h-51.34v-51.34h51.34v51.34ZM439.91,495h45.34v-45.34h-45.34v45.34Z"/>
  <path d="M536.25,498h-51.34v-51.34h51.34v51.34ZM487.91,495h45.34v-45.34h-45.34v45.34Z"/>
  <path d="M585.25,498h-51.34v-51.34h51.34v51.34ZM536.91,495h45.34v-45.34h-45.34v45.34Z"/>
  <path d="M633.25,498h-51.34v-51.34h51.34v51.34ZM584.91,495h45.34v-45.34h-45.34v45.34Z"/>
  <path d="M488.25,546h-51.34v-51.34h51.34v51.34ZM439.91,543h45.34v-45.34h-45.34v45.34Z"/>
  <path d="M536.25,546h-51.34v-51.34h51.34v51.34ZM487.91,543h45.34v-45.34h-45.34v45.34Z"/>
  <path d="M585.25,546h-51.34v-51.34h51.34v51.34ZM536.91,543h45.34v-45.34h-45.34v45.34Z"/>
  <path d="M633.25,546h-51.34v-51.34h51.34v51.34ZM584.91,543h45.34v-45.34h-45.34v45.34Z"/>
  <path d="M488.25,594h-51.34v-51.34h51.34v51.34ZM439.91,591h45.34v-45.34h-45.34v45.34Z"/>
  <path d="M536.25,594h-51.34v-51.34h51.34v51.34ZM487.91,591h45.34v-45.34h-45.34v45.34Z"/>
  <path d="M585.25,594h-51.34v-51.34h51.34v51.34ZM536.91,591h45.34v-45.34h-45.34v45.34Z"/>
  <path d="M633.25,594h-51.34v-51.34h51.34v51.34ZM584.91,591h45.34v-45.34h-45.34v45.34Z"/>
  <path d="M782.25,512h-51.34v-51.34h51.34v51.34ZM733.91,509h45.34v-45.34h-45.34v45.34Z"/>
  <path d="M830.25,512h-51.34v-51.34h51.34v51.34ZM781.91,509h45.34v-45.34h-45.34v45.34Z"/>
  <path d="M879.25,512h-51.34v-51.34h51.34v51.34ZM830.91,509h45.34v-45.34h-45.34v45.34Z"/>
  <path d="M927.25,512h-51.34v-51.34h51.34v51.34ZM878.91,509h45.34v-45.34h-45.34v45.34Z"/>
  <path d="M782.25,560h-51.34v-51.34h51.34v51.34ZM733.91,557h45.34v-45.34h-45.34v45.34Z"/>
  <path d="M830.25,560h-51.34v-51.34h51.34v51.34ZM781.91,557h45.34v-45.34h-45.34v45.34Z"/>
  <path d="M879.25,560h-51.34v-51.34h51.34v51.34ZM830.91,557h45.34v-45.34h-45.34v45.34Z"/>
  <path d="M927.25,560h-51.34v-51.34h51.34v51.34ZM878.91,557h45.34v-45.34h-45.34v45.34Z"/>
  <path d="M782.25,608h-51.34v-51.34h51.34v51.34ZM733.91,605h45.34v-45.34h-45.34v45.34Z"/>
  <path d="M830.25,608h-51.34v-51.34h51.34v51.34ZM781.91,605h45.34v-45.34h-45.34v45.34Z"/>
  <path d="M879.25,608h-51.34v-51.34h51.34v51.34ZM830.91,605h45.34v-45.34h-45.34v45.34Z"/>
  <path d="M927.25,608h-51.34v-51.34h51.34v51.34ZM878.91,605h45.34v-45.34h-45.34v45.34Z"/>
  <path d="M782.25,656h-51.34v-51.34h51.34v51.34ZM733.91,653h45.34v-45.34h-45.34v45.34Z"/>
  <path d="M830.25,656h-51.34v-51.34h51.34v51.34ZM781.91,653h45.34v-45.34h-45.34v45.34Z"/>
  <path d="M879.25,656h-51.34v-51.34h51.34v51.34ZM830.91,653h45.34v-45.34h-45.34v45.34Z"/>
  <path d="M927.25,656h-51.34v-51.34h51.34v51.34ZM878.91,653h45.34v-45.34h-45.34v45.34Z"/>
  <path d="M975.25,512h-51.34v-51.34h51.34v51.34ZM926.91,509h45.34v-45.34h-45.34v45.34Z"/>
  <path d="M1023.25,512h-51.34v-51.34h51.34v51.34ZM974.91,509h45.34v-45.34h-45.34v45.34Z"/>
  <path d="M975.25,560h-51.34v-51.34h51.34v51.34ZM926.91,557h45.34v-45.34h-45.34v45.34Z"/>
  <path d="M1023.25,560h-51.34v-51.34h51.34v51.34ZM974.91,557h45.34v-45.34h-45.34v45.34Z"/>
  <path d="M975.25,608h-51.34v-51.34h51.34v51.34ZM926.91,605h45.34v-45.34h-45.34v45.34Z"/>
  <path d="M1023.25,608h-51.34v-51.34h51.34v51.34ZM974.91,605h45.34v-45.34h-45.34v45.34Z"/>
  <path d="M975.25,656h-51.34v-51.34h51.34v51.34ZM926.91,653h45.34v-45.34h-45.34v45.34Z"/>
  <path d="M1023.25,656h-51.34v-51.34h51.34v51.34ZM974.91,653h45.34v-45.34h-45.34v45.34Z"/>
  <path d="M488.25,642h-51.34v-51.34h51.34v51.34ZM439.91,639h45.34v-45.34h-45.34v45.34Z"/>
  <path d="M536.25,642h-51.34v-51.34h51.34v51.34ZM487.91,639h45.34v-45.34h-45.34v45.34Z"/>
  <path d="M585.25,642h-51.34v-51.34h51.34v51.34ZM536.91,639h45.34v-45.34h-45.34v45.34Z"/>
  <path d="M633.25,642h-51.34v-51.34h51.34v51.34ZM584.91,639h45.34v-45.34h-45.34v45.34Z"/>
  <path d="M488.25,690h-51.34v-51.34h51.34v51.34ZM439.91,687h45.34v-45.34h-45.34v45.34Z"/>
  <path d="M536.25,690h-51.34v-51.34h51.34v51.34ZM487.91,687h45.34v-45.34h-45.34v45.34Z"/>
  <path d="M585.25,690h-51.34v-51.34h51.34v51.34ZM536.91,687h45.34v-45.34h-45.34v45.34Z"/>
  <path d="M633.25,690h-51.34v-51.34h51.34v51.34ZM584.91,687h45.34v-45.34h-45.34v45.34Z"/>
  <g>
    <rect class="cls-7" x="280.18" y="152.16" width="87.77" height="87.77"/>
    <path d="M370.44,242.43h-92.77v-92.77h92.77v92.77ZM282.68,237.43h82.77v-82.77h-82.77v82.77Z"/>
  </g>
  <g>
    <rect class="cls-7" x="367.94" y="152.16" width="87.77" height="87.77"/>
    <path d="M458.21,242.43h-92.77v-92.77h92.77v92.77ZM370.44,237.43h82.77v-82.77h-82.77v82.77Z"/>
  </g>
  <g>
    <rect class="cls-1" x="456.11" y="152.57" width="87.77" height="87.77"/>
    <path d="M546.38,242.84h-92.77v-92.77h92.77v92.77ZM458.61,237.84h82.77v-82.77h-82.77v82.77Z"/>
  </g>
  <g>
    <rect class="cls-1" x="543.88" y="152.57" width="87.77" height="87.77"/>
    <path d="M634.14,242.84h-92.77v-92.77h92.77v92.77ZM546.38,237.84h82.77v-82.77h-82.77v82.77Z"/>
  </g>
  <g>
    <rect class="cls-1" x="734.41" y="152.16" width="87.77" height="87.77"/>
    <path d="M824.68,242.43h-92.77v-92.77h92.77v92.77ZM736.91,237.43h82.77v-82.77h-82.77v82.77Z"/>
  </g>
  <g>
    <rect class="cls-1" x="822.18" y="152.16" width="87.77" height="87.77"/>
    <path d="M912.44,242.43h-92.77v-92.77h92.77v92.77ZM824.68,237.43h82.77v-82.77h-82.77v82.77Z"/>
  </g>
  <g>
    <rect class="cls-7" x="909.94" y="152.16" width="87.77" height="87.77"/>
    <path d="M1000.21,242.43h-92.77v-92.77h92.77v92.77ZM912.44,237.43h82.77v-82.77h-82.77v82.77Z"/>
  </g>
  <g>
    <rect class="cls-7" x="998.11" y="152.57" width="87.77" height="87.77"/>
    <path d="M1088.38,242.84h-92.77v-92.77h92.77v92.77ZM1000.61,237.84h82.77v-82.77h-82.77v82.77Z"/>
  </g>
  <g>
    <rect class="cls-7" x="1085.88" y="152.57" width="87.77" height="87.77"/>
    <path d="M1176.14,242.84h-92.77v-92.77h92.77v92.77ZM1088.38,237.84h82.77v-82.77h-82.77v82.77Z"/>
  </g>
  <g>
    <rect class="cls-7" x="1173.88" y="152.57" width="87.77" height="87.77"/>
    <path d="M1264.14,242.84h-92.77v-92.77h92.77v92.77ZM1176.38,237.84h82.77v-82.77h-82.77v82.77Z"/>
  </g>
  <text class="cls-2" transform="translate(595.9 97.18)"><tspan class="cls-4" x="0" y="0">A</tspan><tspan x="32.23" y="0">ddition</tspan></text>
  <text class="cls-2" transform="translate(540.86 337.18)"><tspan x="0" y="0">Multiplikation</tspan></text>
  <text class="cls-3" transform="translate(174.76 553.18)"><tspan class="cls-6" x="0" y="0">b</tspan><tspan x="19.51" y="0">reite x höhe</tspan><tspan x="67.15" y="48">4 x 6</tspan></text>
  <text class="cls-3" transform="translate(1058.76 553.18)"><tspan class="cls-6" x="0" y="0">b</tspan><tspan x="19.51" y="0">reite x höhe</tspan><tspan x="67.15" y="48">6 x 4</tspan></text>
</svg>