<?xml version="1.0" encoding="UTF-8"?>
<svg id="Ebene_1" data-name="Ebene 1" xmlns="http://www.w3.org/2000/svg" viewBox="0 0 1365.64 767.78">
  <rect width="1365.64" height="767.78" fill="#fbf2d8"/>
  <g>
    <rect x="192.41" y="152.16" width="87.77" height="87.77" fill="#d32a20"/>
    <path d="M282.68,242.43h-92.77v-92.77h92.77v92.77ZM194.91,237.43h82.77v-82.77h-82.77v82.77Z"/>
  </g>
  <g>
    <rect x="104.41" y="152.16" width="87.77" height="87.77" fill="#d32a20"/>
    <path d="M194.68,242.43h-92.77v-92.77h92.77v92.77ZM106.91,237.43h82.77v-82.77h-82.77v82.77Z"/>
  </g>
  <path d="M488.25,450h-51.34v-51.34h51.34v51.34ZM439.91,447h45.34v-45.34h-45.34v45.34Z"/>
  <path d="M536.25,450h-51.34v-51.34h51.34v51.34ZM487.91,447h45.34v-45.34h-45.34v45.34Z"/>
  <path d="M585.25,450h-51.34v-51.34h51.34v51.34ZM536.91,447h45.34v-45.34h-45.34v45.34Z"/>
  <path d="M633.25,450h-51.34v-51.34h51.34v51.34ZM584.91,447h45.34v-45.34h-45.34v45.34Z"/>
  <path d="M488.25,498h-51.34v-51.34h51.34v51.34ZM439.91,495h45.34v-45.34h-45.34v45.34Z"/>
  <path d="M536.25,498h-51.34v-51.34h51.34v51.34ZM487.91,495h45.34v-45.34h-45.34v45.34Z"/>
  <path d="M585.25,498h-51.34v-51.34h51.34v51.34ZM536.91,495h45.34v-45.34h-45.34v45.34Z"/>
  <path d="M633.25,498h-51.34v-51.34h51.34v51.34ZM584.91,495h45.34v-45.34h-45.34v45.34Z"/>
  <path d="M488.25,546h-51.34v-51.34h51.34v51.34ZM439.91,543h45.34v-45.34h-45.34v45.34Z"/>
  <path d="M536.25,546h-51.34v-51.34h51.34v51.34ZM487.91,543h45.34v-45.34h-45.34v45.34Z"/>
  <path d="M585.25,546h-51.34v-51.34h51.34v51.34ZM536.91,543h45.34v-45.34h-45.34v45.34Z"/>
  <path d="M633.25,546h-51.34v-51.34h51.34v51.34ZM584.91,543h45.34v-45.34h-45.34v45.34Z"/>
  <path d="M488.25,594h-51.34v-51.34h51.34v51.34ZM439.91,591h45.34v-45.34h-45.34v45.34Z"/>
  <path d="M536.25,594h-51.34v-51.34h51.34v51.34ZM487.91,591h45.34v-45.34h-45.34v45.34Z"/>
  <path d="M585.25,594h-51.34v-51.34h51.34v51.34ZM536.91,591h45.34v-45.34h-45.34v45.34Z"/>
  <path d="M633.25,594h-51.34v-51.34h51.34v51.34ZM584.91,591h45.34v-45.34h-45.34v45.34Z"/>
  <path d="M782.25,512h-51.34v-51.34h51.34v51.34ZM733.91,509h45.34v-45.34h-45.34v45.34Z"/>
  <path d="M830.25,512h-51.34v-51.34h51.34v51.34ZM781.91,509h45.34v-45.34h-45.34v45.34Z"/>
  <path d="M879.25,512h-51.34v-51.34h51.34v51.34ZM830.91,509h45.34v-45.34h-45.34v45.34Z"/>
  <path d="M927.25,512h-51.34v-51.34h51.34v51.34ZM878.91,509h45.34v-45.34h-45.34v45.34Z"/>
  <path d="M782.25,560h-51.34v-51.34h51.34v51.34ZM733.91,557h45.34v-45.34h-45.34v45.34Z"/>
  <path d="M830.25,560h-51.34v-51.34h51.34v51.34ZM781.91,557h45.34v-45.34h-45.34v45.34Z"/>
  <path d="M879.25,560h-51.34v-51.34h51.34v51.34ZM830.91,557h45.34v-45.34h-45.34v45.34Z"/>
  <path d="M927.25,560h-51.34v-51.34h51.34v51.34ZM878.91,557h45.34v-45.34h-45.34v45.34Z"/>
  <path d="M782.25,608h-51.34v-51.34h51.34v51.34ZM733.91,605h45.34v-45.34h-45.34v45.34Z"/>
  <path d="M830.25,608h-51.34v-51.34h51.34v51.34ZM781.91,605h45.34v-45.34h-45.34v45.34Z"/>
  <path d="M879.25,608h-51.34v-51.34h51.34v51.34ZM830.91,605h45.34v-45.34h-45.34v45.34Z"/>
  <path d="M927.25,608h-51.34v-51.34h51.34v51.34ZM878.91,605h45.34v-45.34h-45.34v45.34Z"/>
  <path d="M782.25,656h-51.34v-51.34h51.34v51.34ZM733.91,653h45.34v-45.34h-45.34v45.34Z"/>
  <path d="M830.25,656h-51.34v-51.34h51.34v51.34ZM781.91,653h45.34v-45.34h-45.34v45.34Z"/>
  <path d="M879.25,656h-51.34v-51.34h51.34v51.34ZM830.91,653h45.34v-45.34h-45.34v45.34Z"/>
  <path d="M927.25,656h-51.34v-51.34h51.34v51.34ZM878.91,653h45.34v-45.34h-45.34v45.34Z"/>
  <path d="M975.25,512h-51.34v-51.34h51.34v51.34ZM926.91,509h45.34v-45.34h-45.34v45.34Z"/>
  <path d="M1023.25,512h-51.34v-51.34h51.34v51.34ZM974.91,509h45.34v-45.34h-45.34v45.34Z"/>
  <path d="M975.25,560h-51.34v-51.34h51.34v51.34ZM926.91,557h45.34v-45.34h-45.34v45.34Z"/>
  <path d="M1023.25,560h-51.34v-51.34h51.34v51.34ZM974.91,557h45.34v-45.34h-45.34v45.34Z"/>
  <path d="M975.25,608h-51.34v-51.34h51.34v51.34ZM926.91,605h45.34v-45.34h-45.34v45.34Z"/>
  <path d="M1023.25,608h-51.34v-51.34h51.34v51.34ZM974.91,605h45.34v-45.34h-45.34v45.34Z"/>
  <path d="M975.25,656h-51.34v-51.34h51.34v51.34ZM926.91,653h45.34v-45.34h-45.34v45.34Z"/>
  <path d="M1023.25,656h-51.34v-51.34h51.34v51.34ZM974.91,653h45.34v-45.34h-45.34v45.34Z"/>
  <path d="M488.25,642h-51.34v-51.34h51.34v51.34ZM439.91,639h45.34v-45.34h-45.34v45.34Z"/>
  <path d="M536.25,642h-51.34v-51.34h51.34v51.34ZM487.91,639h45.34v-45.34h-45.34v45.34Z"/>
  <path d="M585.25,642h-51.34v-51.34h51.34v51.34ZM536.91,639h45.34v-45.34h-45.34v45.34Z"/>
  <path d="M633.25,642h-51.34v-51.34h51.34v51.34ZM584.91,639h45.34v-45.34h-45.34v45.34Z"/>
  <path d="M488.25,690h-51.34v-51.34h51.34v51.34ZM439.91,687h45.34v-45.34h-45.34v45.34Z"/>
  <path d="M536.25,690h-51.34v-51.34h51.34v51.34ZM487.91,687h45.34v-45.34h-45.34v45.34Z"/>
  <path d="M585.25,690h-51.34v-51.34h51.34v51.34ZM536.91,687h45.34v-45.34h-45.34v45.34Z"/>
  <path d="M633.25,690h-51.34v-51.34h51.34v51.34ZM584.91,687h45.34v-45.34h-45.34v45.34Z"/>
  <g>
    <rect x="280.18" y="152.16" width="87.77" height="87.77" fill="#d32a20"/>
    <path d="M370.44,242.43h-92.77v-92.77h92.77v92.77ZM282.68,237.43h82.77v-82.77h-82.77v82.77Z"/>
  </g>
  <g>
    <rect x="367.94" y="152.16" width="87.77" height="87.77" fill="#d32a20"/>
    <path d="M458.21,242.43h-92.77v-92.77h92.77v92.77ZM370.44,237.43h82.77v-82.77h-82.77v82.77Z"/>
  </g>
  <g>
    <rect x="456.11" y="152.57" width="87.77" height="87.77" fill="#f9c12b"/>
    <path d="M546.38,242.84h-92.77v-92.77h92.77v92.77ZM458.61,237.84h82.77v-82.77h-82.77v82.77Z"/>
  </g>
  <g>
    <rect x="543.88" y="152.57" width="87.77" height="87.77" fill="#f9c12b"/>
    <path d="M634.14,242.84h-92.77v-92.77h92.77v92.77ZM546.38,237.84h82.77v-82.77h-82.77v82.77Z"/>
  </g>
  <g>
    <rect x="734.41" y="152.16" width="87.77" height="87.77" fill="#f9c12b"/>
    <path d="M824.68,242.43h-92.77v-92.77h92.77v92.77ZM736.91,237.43h82.77v-82.77h-82.77v82.77Z"/>
  </g>
  <g>
    <rect x="822.18" y="152.16" width="87.77" height="87.77" fill="#f9c12b"/>
    <path d="M912.44,242.43h-92.77v-92.77h92.77v92.77ZM824.68,237.43h82.77v-82.77h-82.77v82.77Z"/>
  </g>
  <g>
    <rect x="909.94" y="152.16" width="87.77" height="87.77" fill="#d32a20"/>
    <path d="M1000.21,242.43h-92.77v-92.77h92.77v92.77ZM912.44,237.43h82.77v-82.77h-82.77v82.77Z"/>
  </g>
  <g>
    <rect x="998.11" y="152.57" width="87.77" height="87.77" fill="#d32a20"/>
    <path d="M1088.38,242.84h-92.77v-92.77h92.77v92.77ZM1000.61,237.84h82.77v-82.77h-82.77v82.77Z"/>
  </g>
  <g>
    <rect x="1085.88" y="152.57" width="87.77" height="87.77" fill="#d32a20"/>
    <path d="M1176.14,242.84h-92.77v-92.77h92.77v92.77ZM1088.38,237.84h82.77v-82.77h-82.77v82.77Z"/>
  </g>
  <g>
    <rect x="1173.88" y="152.57" width="87.77" height="87.77" fill="#d32a20"/>
    <path d="M1264.14,242.84h-92.77v-92.77h92.77v92.77ZM1176.38,237.84h82.77v-82.77h-82.77v82.77Z"/>
  </g>
  <g>
    <path d="M598.73,96.38c0-.4.14-.69.42-.86.28-.17.6-.25.97-.25s.81-.04,1.35-.11c.53-.07.97-.2,1.31-.38.38-.21.74-.61,1.09-1.19l14.32-23.48c.3-.48.59-.79.85-.93.27-.14.68-.21,1.25-.21.33,0,.58.02.75.06s.3.16.39.36c.09.2.14.33.15.4.01.06.05.3.1.7l2.38,21.9c.03.33.07.72.13,1.18.08.82.16,1.3.23,1.44s.31.22.68.24h1.72c.77,0,1.15.28,1.15.84,0,.72-.36,1.07-1.07,1.07-.08,0-.32-.01-.73-.04-.41-.03-.98-.05-1.7-.06-.72-.01-1.5-.02-2.34-.02h-1.19c-.94,0-1.8,0-2.58.02-.78.01-1.4.03-1.86.06-.46.03-.74.04-.84.04-.64,0-.96-.28-.96-.84,0-.72.41-1.07,1.23-1.07h.31c.89,0,1.73-.07,2.52-.21l-.59-5.43h-9.28l-3.16,5.23c.53.16,1.12.26,1.76.32.64.06,1.06.13,1.28.22.21.09.32.33.32.7,0,.72-.36,1.07-1.07,1.07-.08,0-.32-.01-.72-.04-.4-.03-.96-.05-1.67-.06-.71-.01-1.46-.02-2.26-.02-.64,0-1.24,0-1.8.02-.56.01-1,.03-1.32.04-.32.01-.5.02-.56.02-.65,0-.98-.25-.98-.76ZM610.15,87.7h7.83l-1.19-10.92-6.64,10.92Z"/>
    <path d="M632.29,91.18c0-1.95.44-3.85,1.32-5.7.88-1.85,2.16-3.4,3.86-4.66,1.69-1.26,3.57-1.88,5.62-1.88,1.26,0,2.44.35,3.54,1.05l2.18-8.69c-.23-.02-.52-.03-.86-.03s-.59,0-.76-.02c-.17-.01-.35-.04-.54-.08-.19-.04-.32-.11-.4-.2-.08-.09-.12-.23-.12-.41,0-.43.2-.69.6-.78.4-.09,1.33-.16,2.78-.2,1.02-.05,1.86-.09,2.5-.12.05,0,.14,0,.26-.02.12-.01.21-.02.26-.02.52,0,.77.22.77.67,0,.18-.03.4-.08.65l-5.36,21.48c-.33,1.18-.49,2.09-.49,2.74,0,.77.26,1.17.77,1.18.86,0,1.71-1.5,2.56-4.49.08-.43.21-.7.37-.8.17-.1.4-.16.7-.16h.26c.71,0,1.07.2,1.07.61,0,.08-.05.32-.14.72-.09.4-.26.93-.51,1.58-.24.65-.55,1.27-.9,1.86-.36.59-.85,1.09-1.47,1.52s-1.3.64-2.02.64c-1.81,0-3.18-.7-4.12-2.09-1.71,1.38-3.46,2.08-5.27,2.09-.69,0-1.38-.1-2.06-.3s-1.36-.52-2.04-.97c-.68-.44-1.23-1.11-1.66-2-.43-.89-.64-1.95-.64-3.17ZM636.6,93.29c0,1.02.23,1.75.69,2.19.46.44.98.66,1.56.66.97,0,1.89-.34,2.76-1.04.86-.69,1.43-1.3,1.68-1.84.04-.14.47-1.88,1.31-5.23.84-3.35,1.26-5.09,1.26-5.23,0-.49-.26-1.01-.79-1.56-.53-.55-1.21-.82-2.05-.82-1.43,0-2.64.83-3.64,2.48-.61,1.07-1.22,2.8-1.85,5.2-.63,2.4-.94,4.13-.94,5.2Z"/>
    <path d="M655.92,91.18c0-1.95.44-3.85,1.32-5.7.88-1.85,2.16-3.4,3.86-4.66,1.69-1.26,3.57-1.88,5.62-1.88,1.26,0,2.44.35,3.54,1.05l2.18-8.69c-.23-.02-.52-.03-.86-.03s-.59,0-.76-.02c-.17-.01-.35-.04-.54-.08-.19-.04-.32-.11-.4-.2-.08-.09-.12-.23-.12-.41,0-.43.2-.69.6-.78.4-.09,1.33-.16,2.78-.2,1.02-.05,1.86-.09,2.5-.12.05,0,.14,0,.26-.02.12-.01.21-.02.26-.02.52,0,.77.22.77.67,0,.18-.03.4-.08.65l-5.36,21.48c-.33,1.18-.49,2.09-.49,2.74,0,.77.26,1.17.77,1.18.86,0,1.71-1.5,2.56-4.49.08-.43.21-.7.37-.8.17-.1.4-.16.7-.16h.26c.71,0,1.07.2,1.07.61,0,.08-.05.32-.14.72-.09.4-.26.93-.51,1.58-.24.65-.55,1.27-.9,1.86-.36.59-.85,1.09-1.47,1.52s-1.3.64-2.02.64c-1.81,0-3.18-.7-4.12-2.09-1.71,1.38-3.46,2.08-5.27,2.09-.69,0-1.38-.1-2.06-.3s-1.36-.52-2.04-.97c-.68-.44-1.23-1.11-1.66-2-.43-.89-.64-1.95-.64-3.17ZM660.24,93.29c0,1.02.23,1.75.69,2.19.46.44.98.66,1.56.66.97,0,1.89-.34,2.76-1.04.86-.69,1.43-1.3,1.68-1.84.04-.14.47-1.88,1.31-5.23.84-3.35,1.26-5.09,1.26-5.23,0-.49-.26-1.01-.79-1.56-.53-.55-1.21-.82-2.05-.82-1.43,0-2.64.83-3.64,2.48-.61,1.07-1.22,2.8-1.85,5.2-.63,2.4-.94,4.13-.94,5.2Z"/>
    <path d="M678.48,85.22c0-.4.21-1.06.62-1.99s1.12-1.87,2.14-2.82,2.14-1.44,3.36-1.44c1.15,0,2.12.34,2.94,1.01.81.68,1.22,1.54,1.22,2.58,0,.64-.71,2.77-2.14,6.39-1.43,3.62-2.14,5.76-2.14,6.43,0,.51.21.76.64.76.54,0,1.06-.26,1.56-.78.5-.52.87-1.08,1.13-1.68.26-.6.5-1.19.71-1.78s.34-.89.37-.92c.16-.18.44-.28.85-.29h.24c.65,0,.98.21,1.01.64,0,.18-.08.5-.24.96-.16.46-.41.99-.76,1.6-.35.61-.75,1.19-1.22,1.74-.46.55-1.04,1.02-1.74,1.41-.7.39-1.44.59-2.24.59-1.09,0-2.06-.32-2.9-.97s-1.26-1.53-1.26-2.65c0-.64.71-2.76,2.14-6.38s2.14-5.75,2.14-6.42c0-.51-.22-.76-.66-.76-.66,0-1.35.47-2.05,1.42-.4.56-.72,1.13-.94,1.69-.22.56-.36,1-.42,1.31s-.17.56-.32.76-.42.29-.8.29h-.25c-.65,0-.98-.23-.98-.7ZM685.43,72.18c0-.72.29-1.35.87-1.89s1.24-.82,1.97-.82c.57,0,1.04.19,1.43.56.38.37.58.82.58,1.36,0,.66-.29,1.28-.85,1.86-.57.57-1.24.86-2,.86-.57,0-1.04-.18-1.42-.54-.38-.36-.57-.82-.57-1.38Z"/>
    <path d="M693.23,80.48c0-.7.38-1.07,1.13-1.1h3.46c.21-.93.68-2.8,1.4-5.6.43-1.63,1.31-2.44,2.64-2.44.48,0,.9.16,1.24.48.35.32.52.72.52,1.2,0,.21-.09.68-.28,1.42s-.41,1.64-.67,2.69-.45,1.81-.56,2.25h3.02c.72,0,1.08.26,1.08.78,0,.73-.37,1.11-1.11,1.14h-3.47l-2.7,10.84c-.33,1.2-.49,2.14-.47,2.83,0,.77.28,1.16.84,1.17.64,0,1.38-.34,2.24-1.03.85-.68,1.64-1.84,2.35-3.47.13-.26.23-.45.3-.58.07-.12.17-.22.3-.28s.3-.1.51-.1h.25c.69,0,1.04.2,1.04.61,0,.23-.17.68-.52,1.34-.35.66-.8,1.36-1.38,2.12-.57.76-1.35,1.42-2.32,2s-1.99.87-3.03.87c-1.33,0-2.43-.37-3.31-1.1s-1.32-1.69-1.32-2.86c0-.33.16-1.15.47-2.48l2.46-9.88h-3.04c-.71,0-1.06-.27-1.06-.82Z"/>
    <path d="M708.07,85.22c0-.4.21-1.06.62-1.99s1.12-1.87,2.14-2.82,2.13-1.44,3.36-1.44c1.15,0,2.12.34,2.94,1.01.81.68,1.22,1.54,1.22,2.58,0,.64-.71,2.77-2.14,6.39-1.43,3.62-2.14,5.76-2.14,6.43,0,.51.21.76.64.76.54,0,1.06-.26,1.56-.78.5-.52.87-1.08,1.13-1.68.26-.6.5-1.19.71-1.78s.34-.89.37-.92c.16-.18.44-.28.85-.29h.24c.65,0,.98.21,1.01.64,0,.18-.08.5-.24.96-.16.46-.41.99-.76,1.6-.35.61-.75,1.19-1.22,1.74-.46.55-1.04,1.02-1.74,1.41-.7.39-1.44.59-2.24.59-1.09,0-2.06-.32-2.9-.97s-1.26-1.53-1.26-2.65c0-.64.71-2.76,2.14-6.38s2.14-5.75,2.14-6.42c0-.51-.22-.76-.66-.76-.66,0-1.35.47-2.05,1.42-.4.56-.72,1.13-.94,1.69-.22.56-.36,1-.42,1.31s-.17.56-.32.76-.42.29-.8.29h-.25c-.65,0-.98-.23-.98-.7ZM715.02,72.18c0-.72.29-1.35.87-1.89s1.24-.82,1.97-.82c.57,0,1.04.19,1.43.56.38.37.58.82.58,1.36,0,.66-.29,1.28-.85,1.86-.57.57-1.24.86-2,.86-.57,0-1.04-.18-1.42-.54-.38-.36-.57-.82-.57-1.38Z"/>
    <path d="M723.42,90.78c0-3,1.11-5.73,3.34-8.18s5.11-3.67,8.65-3.67c2.31,0,4.15.59,5.51,1.77,1.36,1.18,2.04,2.85,2.04,5.01,0,1.3-.25,2.64-.76,4.01-.51,1.37-1.24,2.65-2.18,3.83-.95,1.19-2.21,2.16-3.79,2.92-1.58.76-3.32,1.14-5.22,1.14-2.32,0-4.16-.6-5.54-1.79-1.37-1.2-2.06-2.88-2.06-5.05ZM727.82,92.64c0,1.25.33,2.14.99,2.69.66.55,1.42.82,2.29.82.59,0,1.14-.09,1.66-.26.52-.18.98-.42,1.39-.72.4-.31.77-.64,1.1-.99.33-.36.62-.77.88-1.24.25-.47.47-.9.65-1.3.18-.4.35-.82.5-1.28.15-.45.26-.83.32-1.12.06-.29.14-.59.21-.89l.08-.39c.46-1.81.68-3.16.68-4.07,0-1.25-.33-2.14-.98-2.67-.65-.53-1.42-.8-2.3-.8-3.36,0-5.62,2.71-6.8,8.14-.46,1.81-.68,3.16-.68,4.07Z"/>
    <path d="M745.9,85.22c0-.08.04-.31.14-.7.09-.39.26-.9.5-1.54.24-.64.54-1.25.9-1.84.36-.59.84-1.09,1.46-1.52.61-.43,1.28-.64,2.01-.64.82,0,1.67.21,2.55.64s1.49,1.15,1.85,2.17c1.83-1.89,3.86-2.84,6.09-2.85,1.7,0,3.05.37,4.05,1.1,1,.74,1.5,1.89,1.5,3.47,0,1.33-.55,3.52-1.64,6.57-1.09,3.05-1.64,4.82-1.64,5.3,0,.51.21.76.63.76.64,0,1.26-.38,1.87-1.13.56-.69,1-1.53,1.32-2.51.32-.98.54-1.53.67-1.65.21-.13.52-.2.94-.2.66,0,1,.23,1.01.68,0,.4-.21,1.07-.63,2-.42.93-1.14,1.88-2.15,2.84-1.01.96-2.13,1.45-3.36,1.45-1.09,0-2.06-.32-2.89-.97-.84-.64-1.26-1.53-1.26-2.65,0-.48.51-2.13,1.54-4.94,1.03-2.81,1.54-4.95,1.54-6.41s-.61-2.25-1.84-2.25c-1.99,0-3.74,1.11-5.24,3.33-.4.59-.71,1.32-.93,2.21-1.34,5.25-2.11,8.26-2.31,9.03-.2.78-.4,1.29-.61,1.55-.51.71-1.19,1.07-2.03,1.09-.48,0-.91-.16-1.27-.47-.37-.31-.55-.72-.55-1.21,0-.18.07-.57.21-1.17l2.51-10.08c.38-1.55.56-2.56.55-3.05,0-.79-.25-1.19-.76-1.19s-.94.38-1.32,1.14-.68,1.6-.92,2.5c-.24.91-.39,1.4-.44,1.47-.16.21-.51.31-1.07.31h-.06c-.62,0-.94-.22-.94-.66Z"/>
  </g>
  <g>
    <path d="M543.42,336.38c0-.64.25-1,.76-1.07.08-.03.43-.05,1.05-.06.62-.01,1.2-.07,1.74-.19.53-.11.9-.27,1.09-.48.08-.1.48-1.57,1.19-4.39l3.65-14.61.96-3.85c-.48-.05-1.22-.08-2.21-.08h-.76c-.72,0-1.07-.28-1.07-.84,0-.72.38-1.07,1.15-1.07h8.01c.46,0,.79.08,1,.22.21.15.35.49.43,1.03l2.93,18.54c.03.17.08.48.15.95s.13.83.17,1.1l1.37-2.03,12.22-18.55c.33-.53.62-.88.88-1.03.26-.15.63-.22,1.12-.22h7.64c.72,0,1.07.27,1.07.8,0,.48-.12.79-.35.92-.23.13-.62.2-1.15.2h-.49c-1.2,0-1.92.04-2.18.11s-.43.28-.54.62l-.59,2.33-5.15,20.47c.51.05,1.28.08,2.32.08h.76c.66,0,1,.28,1,.84,0,.72-.39,1.07-1.17,1.07h-.08c-1.28-.08-3.38-.12-6.32-.12-.75,0-1.63.01-2.64.04-1.02.03-1.77.04-2.25.04-.72,0-1.07-.25-1.07-.76,0-.72.38-1.09,1.15-1.11h.68c1.42,0,2.35-.05,2.79-.16l5.7-22.81h-.04s-.72,1.17-.72,1.17l-14.97,22.71c-.46.66-1.02,1-1.68,1-.13,0-.24,0-.33-.02-.09-.01-.18-.05-.26-.1-.08-.05-.15-.09-.21-.12-.05-.03-.1-.09-.16-.19-.05-.1-.09-.17-.12-.21s-.05-.12-.08-.23c-.03-.12-.04-.2-.04-.23s-.01-.13-.04-.26c-.03-.14-.04-.22-.04-.24l-3.21-20.42c-.23-1.48-.35-2.25-.37-2.33h.01s-5.47,22.04-5.47,22.04c.66.25,1.6.39,2.79.4h.04c.77,0,1.16.27,1.17.8,0,.1-.02.23-.07.37-.05.14-.16.3-.34.48-.18.18-.44.26-.76.26-.08,0-.31-.01-.69-.04-.38-.03-.92-.05-1.61-.06-.69-.01-1.44-.02-2.25-.02-.77,0-1.5,0-2.2.02-.7.01-1.24.03-1.63.06-.39.03-.62.04-.7.04-.66,0-1-.27-1-.8Z"/>
    <path d="M586.86,325.22c0-.26.13-.7.4-1.33.27-.63.62-1.32,1.07-2.08s1.09-1.42,1.93-1.99c.84-.57,1.74-.85,2.71-.85,1.07,0,2.03.33,2.88,1,.85.66,1.28,1.53,1.28,2.6,0,.51-.49,2.06-1.46,4.65-.97,2.59-1.46,4.67-1.46,6.25,0,1.78.7,2.68,2.11,2.68,1.15,0,2.19-.52,3.12-1.56.18-.21.33-.38.46-.52.12-.14.22-.29.28-.45.06-.16.1-.27.12-.32.01-.05.04-.18.08-.37s.07-.35.1-.47l2.64-10.66c.43-1.58,1.3-2.36,2.6-2.36.51,0,.93.15,1.26.46.33.31.5.71.5,1.22,0,.35-.52,2.57-1.57,6.64-1.05,4.08-1.57,6.46-1.57,7.15,0,.82.25,1.24.76,1.25.89,0,1.71-1.51,2.48-4.53.08-.3.18-.51.29-.64.12-.13.24-.21.38-.23.14-.03.35-.04.63-.04.64,0,.96.21.96.64,0,.1-.05.36-.14.76-.09.4-.26.92-.52,1.56-.25.64-.56,1.24-.92,1.82-.36.57-.84,1.07-1.44,1.5-.6.43-1.25.64-1.95.64-1.81,0-3.17-.68-4.08-2.05-1.5,1.35-3.09,2.04-4.79,2.05-1.63,0-3.01-.38-4.14-1.14s-1.7-2.08-1.7-3.96c0-1.5.52-3.63,1.55-6.4,1.04-2.77,1.55-4.4,1.55-4.91s-.21-.76-.62-.76c-.66,0-1.31.39-1.93,1.16-.53.7-.95,1.53-1.26,2.5-.31.97-.52,1.51-.65,1.61-.21.13-.51.2-.92.2h-.06c-.65,0-.98-.23-.98-.7Z"/>
    <path d="M612.15,333.66c0-.48.11-1.08.33-1.8l4.4-17.71c.07-.27.16-.66.29-1.18.13-.52.23-.93.3-1.22-.23-.03-.53-.04-.88-.04s-.62,0-.79-.02c-.18-.01-.35-.05-.52-.1-.17-.05-.3-.14-.38-.26-.08-.12-.13-.29-.13-.51,0-.46.15-.78.45-.97.1-.08.65-.15,1.64-.22.99-.07,1.95-.11,2.88-.14l1.41-.08c.64,0,.96.27.96.81,0,.13-.03.3-.08.5l-5.35,21.52c-.34,1.27-.5,2.17-.5,2.67,0,.79.24,1.2.72,1.21.51,0,.95-.38,1.32-1.14s.68-1.59.92-2.5c.24-.9.39-1.4.44-1.47.15-.21.46-.32.91-.33.76,0,1.15.21,1.16.64,0,.18-.09.57-.26,1.15s-.43,1.29-.78,2.1c-.34.81-.86,1.52-1.56,2.13-.69.61-1.46.91-2.31.91-1.2,0-2.27-.36-3.2-1.08s-1.41-1.68-1.41-2.88Z"/>
    <path d="M624.07,320.48c0-.7.38-1.07,1.13-1.1h3.46c.21-.93.68-2.8,1.4-5.6.43-1.63,1.31-2.44,2.64-2.44.48,0,.9.16,1.24.48.35.32.52.72.52,1.2,0,.21-.09.68-.28,1.42-.18.74-.41,1.64-.67,2.69s-.45,1.81-.56,2.25h3.02c.72,0,1.08.26,1.08.78,0,.73-.37,1.11-1.11,1.14h-3.47l-2.7,10.84c-.33,1.2-.49,2.14-.47,2.83,0,.77.28,1.16.84,1.17.64,0,1.38-.34,2.24-1.03.85-.68,1.64-1.84,2.35-3.47.13-.26.23-.45.3-.58.07-.12.17-.22.3-.28.13-.06.3-.1.51-.1h.25c.69,0,1.04.2,1.04.61,0,.23-.17.68-.52,1.34-.35.66-.8,1.36-1.38,2.12-.57.76-1.35,1.42-2.32,2s-1.99.87-3.03.87c-1.33,0-2.43-.37-3.31-1.1s-1.32-1.69-1.32-2.86c0-.33.16-1.15.47-2.48l2.46-9.88h-3.04c-.71,0-1.06-.27-1.06-.82Z"/>
    <path d="M638.91,325.22c0-.4.21-1.06.62-1.99s1.12-1.87,2.14-2.82,2.14-1.44,3.36-1.44c1.15,0,2.13.34,2.94,1.01.81.68,1.22,1.54,1.22,2.58,0,.64-.71,2.77-2.14,6.39-1.43,3.62-2.14,5.76-2.14,6.43,0,.51.21.76.64.76.54,0,1.06-.26,1.56-.78.5-.52.87-1.08,1.13-1.68.26-.6.5-1.19.71-1.78.22-.59.34-.89.37-.92.16-.18.44-.28.85-.29h.24c.65,0,.98.21,1.01.64,0,.18-.08.5-.24.96-.16.46-.41.99-.76,1.6-.35.61-.75,1.19-1.22,1.74-.46.55-1.04,1.02-1.74,1.41-.7.39-1.44.59-2.24.59-1.09,0-2.06-.32-2.9-.97s-1.26-1.53-1.26-2.65c0-.64.71-2.76,2.14-6.38s2.14-5.75,2.14-6.42c0-.51-.22-.76-.66-.76-.66,0-1.35.47-2.05,1.42-.4.56-.72,1.13-.94,1.69-.22.56-.36,1-.42,1.31s-.17.56-.32.76-.42.29-.8.29h-.25c-.65,0-.98-.23-.98-.7ZM645.86,312.18c0-.72.29-1.35.87-1.89.58-.55,1.24-.82,1.97-.82.57,0,1.04.19,1.43.56.38.37.58.82.58,1.36,0,.66-.28,1.28-.85,1.86-.57.57-1.24.86-2,.86-.57,0-1.04-.18-1.42-.54-.38-.36-.57-.82-.57-1.38Z"/>
    <path d="M650.98,344.11c0-.73.4-1.1,1.21-1.1h.12c.23,0,.62-.03,1.15-.08.06-.23.15-.59.27-1.09.12-.5.22-.87.28-1.12l4.16-16.6c.3-1.2.44-2.02.43-2.48,0-.79-.25-1.19-.76-1.19s-.92.37-1.31,1.12c-.39.75-.7,1.58-.95,2.48-.24.91-.38,1.38-.4,1.44-.15.26-.47.39-.94.39-.75,0-1.13-.21-1.13-.62,0-.08.04-.32.14-.72.09-.4.26-.92.49-1.56.24-.64.54-1.25.89-1.84.36-.59.84-1.09,1.44-1.52.61-.43,1.27-.64,2-.64,1.81,0,3.16.7,4.05,2.09,1.79-1.42,3.55-2.13,5.28-2.13.71,0,1.41.1,2.09.3.68.2,1.37.53,2.06.98s1.24,1.12,1.66,2.02.62,1.95.62,3.14c0,1.33-.25,2.7-.74,4.11-.49,1.41-1.18,2.73-2.06,3.95-.88,1.22-2.02,2.22-3.42,3.01-1.4.79-2.92,1.18-4.58,1.18-1.37,0-2.58-.44-3.63-1.32l-1.67,6.64c.64.05,1.13.08,1.49.08.82,0,1.24.26,1.25.78,0,.76-.37,1.14-1.1,1.14-.08,0-.3,0-.66-.02-.36-.01-.85-.03-1.48-.04-.63-.01-1.3-.02-2.03-.02-.78,0-1.41,0-1.9.02-.49.01-.83.03-1.02.04-.19.01-.31.02-.36.02-.64,0-.96-.27-.96-.82ZM660.15,333.59c0,.54.27,1.1.8,1.68.53.58,1.23.87,2.09.87,1.45,0,2.66-.8,3.64-2.4.67-1.12,1.3-2.9,1.92-5.34.61-2.44.92-4.16.92-5.15s-.23-1.74-.7-2.18c-.46-.44-.99-.65-1.58-.65-.94,0-1.86.32-2.75.97-.9.65-1.49,1.26-1.79,1.85-.04.14-.47,1.86-1.3,5.16-.83,3.3-1.25,5.03-1.25,5.19Z"/>
    <path d="M677.25,333.66c0-.48.11-1.08.33-1.8l4.4-17.71c.07-.27.16-.66.29-1.18.13-.52.23-.93.3-1.22-.23-.03-.53-.04-.88-.04s-.62,0-.79-.02c-.18-.01-.35-.05-.52-.1-.17-.05-.3-.14-.38-.26-.08-.12-.13-.29-.13-.51,0-.46.15-.78.45-.97.1-.08.65-.15,1.64-.22.99-.07,1.95-.11,2.88-.14l1.41-.08c.64,0,.96.27.96.81,0,.13-.03.3-.08.5l-5.35,21.52c-.34,1.27-.5,2.17-.5,2.67,0,.79.24,1.2.72,1.21.51,0,.95-.38,1.32-1.14s.68-1.59.92-2.5c.24-.9.39-1.4.44-1.47.15-.21.46-.32.91-.33.76,0,1.15.21,1.16.64,0,.18-.09.57-.26,1.15s-.43,1.29-.78,2.1c-.34.81-.86,1.52-1.56,2.13-.69.61-1.46.91-2.3.91-1.2,0-2.27-.36-3.2-1.08s-1.41-1.68-1.41-2.88Z"/>
    <path d="M688.62,325.22c0-.4.21-1.06.62-1.99s1.12-1.87,2.14-2.82,2.13-1.44,3.36-1.44c1.15,0,2.12.34,2.94,1.01.81.68,1.22,1.54,1.22,2.58,0,.64-.71,2.77-2.14,6.39-1.43,3.62-2.14,5.76-2.14,6.43,0,.51.21.76.64.76.54,0,1.06-.26,1.56-.78.5-.52.87-1.08,1.13-1.68.26-.6.5-1.19.71-1.78s.34-.89.37-.92c.16-.18.44-.28.85-.29h.24c.65,0,.98.21,1.01.64,0,.18-.08.5-.24.96-.16.46-.41.99-.76,1.6-.35.61-.75,1.19-1.22,1.74-.46.55-1.04,1.02-1.74,1.41-.7.39-1.44.59-2.24.59-1.09,0-2.06-.32-2.9-.97s-1.26-1.53-1.26-2.65c0-.64.71-2.76,2.14-6.38s2.14-5.75,2.14-6.42c0-.51-.22-.76-.66-.76-.66,0-1.35.47-2.05,1.42-.4.56-.72,1.13-.94,1.69-.22.56-.36,1-.42,1.31s-.17.56-.32.76-.42.29-.8.29h-.25c-.65,0-.98-.23-.98-.7ZM695.57,312.18c0-.72.29-1.35.87-1.89s1.24-.82,1.97-.82c.57,0,1.04.19,1.43.56.38.37.58.82.58,1.36,0,.66-.29,1.28-.85,1.86-.57.57-1.24.86-2,.86-.57,0-1.04-.18-1.42-.54-.38-.36-.57-.82-.57-1.38Z"/>
    <path d="M702.7,335.89c0-.23.05-.57.16-1l5.25-21.22c.3-1.14.49-1.9.56-2.28-.58-.04-1.02-.07-1.32-.07h-.16c-.83,0-1.26-.24-1.27-.71,0-.43.21-.7.65-.81.43-.11,1.38-.19,2.85-.23,1.02-.05,1.86-.09,2.52-.12.03,0,.08,0,.18-.02.09-.01.16-.02.21-.02.64,0,.97.27.97.8l-.12.59-3.83,15.41c.74-.51,1.58-1.22,2.52-2.14.93-.92,1.73-1.73,2.39-2.42.66-.7,1.45-1.32,2.36-1.88.91-.56,1.83-.84,2.76-.84,1.01,0,1.72.33,2.14.99.42.66.63,1.38.63,2.18,0,1.2-.3,2.08-.91,2.64-.61.56-1.27.84-2,.84-.55,0-1.02-.16-1.38-.49-.37-.33-.55-.77-.55-1.33,0-.61.22-1.2.67-1.78.45-.58,1.1-.92,1.96-1.03-.21-.35-.46-.52-.76-.52-.94,0-1.89.39-2.87,1.16-.98.77-2.04,1.77-3.19,2.98-1.14,1.21-2.06,2.07-2.75,2.58v.04c4.1.46,6.15,1.86,6.15,4.22,0,.34-.05.87-.14,1.6-.09.73-.14,1.35-.14,1.86,0,.86.27,1.29.8,1.29.61,0,1.13-.39,1.57-1.16.44-.77.77-1.61.99-2.52.22-.9.38-1.4.47-1.47.17-.18.57-.28,1.2-.29.66,0,.99.21.99.64,0,.18-.11.58-.33,1.2-.22.62-.53,1.32-.93,2.1s-.99,1.47-1.75,2.08c-.76.61-1.6.91-2.51.91-1.17,0-2.22-.37-3.15-1.1s-1.39-1.74-1.39-3.02c0-.21.03-.53.1-.98.06-.44.1-.77.1-1,0-1.45-1.22-2.42-3.66-2.91-1.09,4.78-1.82,7.43-2.2,7.95-.56.69-1.23,1.04-2,1.05-.51,0-.95-.16-1.31-.49-.36-.33-.54-.74-.54-1.25Z"/>
    <path d="M725.16,331.18c0-1.95.44-3.85,1.32-5.7.88-1.85,2.16-3.4,3.86-4.66,1.69-1.26,3.57-1.88,5.62-1.88,1.54,0,2.86.53,3.97,1.6.61-.51,1.23-.76,1.87-.76.5,0,.94.15,1.31.44.37.29.56.71.56,1.24,0,.33-.54,2.49-1.61,6.5-1.07,4.01-1.61,6.32-1.61,6.93,0,.82.25,1.24.74,1.25.86,0,1.65-1.49,2.37-4.47.09-.39.2-.65.33-.78s.36-.2.71-.2h.16c.62,0,.93.21.93.64-.03.15-.08.37-.15.65-.06.28-.21.79-.45,1.51-.24.73-.52,1.37-.85,1.92s-.78,1.06-1.35,1.52-1.2.69-1.89.69c-1.82,0-3.21-.7-4.17-2.09-1.65,1.38-3.41,2.08-5.27,2.09-1.81,0-3.33-.54-4.56-1.62-1.23-1.08-1.85-2.69-1.85-4.82ZM729.48,333.29c0,1.02.23,1.75.7,2.19.47.44,1,.66,1.58.66.99,0,1.92-.34,2.8-1.03s1.45-1.29,1.71-1.83c.05-.1.49-1.8,1.32-5.1.83-3.29,1.24-5.02,1.24-5.18,0-.48-.24-1.04-.73-1.66s-1.2-.94-2.14-.94c-1.45,0-2.67.83-3.67,2.48-.61,1.07-1.23,2.8-1.87,5.2-.63,2.4-.95,4.13-.95,5.2Z"/>
    <path d="M748.26,320.48c0-.7.38-1.07,1.13-1.1h3.46c.21-.93.68-2.8,1.4-5.6.43-1.63,1.31-2.44,2.64-2.44.48,0,.9.16,1.24.48.35.32.52.72.52,1.2,0,.21-.09.68-.28,1.42s-.41,1.64-.67,2.69-.45,1.81-.56,2.25h3.02c.72,0,1.08.26,1.08.78,0,.73-.37,1.11-1.11,1.14h-3.47l-2.7,10.84c-.33,1.2-.49,2.14-.47,2.83,0,.77.28,1.16.84,1.17.64,0,1.38-.34,2.24-1.03.85-.68,1.64-1.84,2.35-3.47.13-.26.23-.45.3-.58.07-.12.17-.22.3-.28s.3-.1.51-.1h.25c.69,0,1.04.2,1.04.61,0,.23-.17.68-.52,1.34-.35.66-.8,1.36-1.38,2.12-.57.76-1.35,1.42-2.32,2s-1.99.87-3.03.87c-1.33,0-2.43-.37-3.31-1.1s-1.32-1.69-1.32-2.86c0-.33.16-1.15.47-2.48l2.46-9.88h-3.04c-.71,0-1.06-.27-1.06-.82Z"/>
    <path d="M763.11,325.22c0-.4.21-1.06.62-1.99s1.12-1.87,2.14-2.82,2.13-1.44,3.36-1.44c1.15,0,2.12.34,2.94,1.01.81.68,1.22,1.54,1.22,2.58,0,.64-.71,2.77-2.14,6.39-1.43,3.62-2.14,5.76-2.14,6.43,0,.51.21.76.64.76.54,0,1.06-.26,1.56-.78.5-.52.87-1.08,1.13-1.68.26-.6.5-1.19.71-1.78s.34-.89.37-.92c.16-.18.44-.28.85-.29h.24c.65,0,.98.21,1.01.64,0,.18-.08.5-.24.96-.16.46-.41.99-.76,1.6-.35.61-.75,1.19-1.22,1.74-.46.55-1.04,1.02-1.74,1.41-.7.39-1.44.59-2.24.59-1.09,0-2.06-.32-2.9-.97s-1.26-1.53-1.26-2.65c0-.64.71-2.76,2.14-6.38s2.14-5.75,2.14-6.42c0-.51-.22-.76-.66-.76-.66,0-1.35.47-2.05,1.42-.4.56-.72,1.13-.94,1.69-.22.56-.36,1-.42,1.31s-.17.56-.32.76-.42.29-.8.29h-.25c-.65,0-.98-.23-.98-.7ZM770.06,312.18c0-.72.29-1.35.87-1.89s1.24-.82,1.97-.82c.57,0,1.04.19,1.43.56.38.37.58.82.58,1.36,0,.66-.29,1.28-.85,1.86-.57.57-1.24.86-2,.86-.57,0-1.04-.18-1.42-.54-.38-.36-.57-.82-.57-1.38Z"/>
    <path d="M778.46,330.78c0-3,1.11-5.73,3.34-8.18s5.11-3.67,8.65-3.67c2.31,0,4.15.59,5.51,1.77,1.36,1.18,2.04,2.85,2.04,5.01,0,1.3-.25,2.64-.76,4.01-.51,1.37-1.24,2.65-2.18,3.83-.95,1.19-2.21,2.16-3.79,2.92-1.58.76-3.32,1.14-5.22,1.14-2.32,0-4.16-.6-5.54-1.79-1.37-1.2-2.06-2.88-2.06-5.05ZM782.85,332.64c0,1.25.33,2.14.99,2.69.66.55,1.42.82,2.29.82.59,0,1.14-.09,1.66-.26.52-.18.98-.42,1.39-.72.4-.31.77-.64,1.1-.99.33-.36.62-.77.88-1.24.25-.47.47-.9.65-1.3.18-.4.35-.82.5-1.28.15-.45.26-.83.32-1.12.06-.29.14-.59.21-.89l.08-.39c.46-1.81.68-3.16.68-4.07,0-1.25-.33-2.14-.98-2.67-.65-.53-1.42-.8-2.3-.8-3.36,0-5.62,2.71-6.8,8.14-.46,1.81-.68,3.16-.68,4.07Z"/>
    <path d="M800.94,325.22c0-.08.04-.31.14-.7.09-.39.26-.9.5-1.54.24-.64.54-1.25.9-1.84.36-.59.84-1.09,1.46-1.52.61-.43,1.28-.64,2.01-.64.82,0,1.67.21,2.55.64s1.49,1.15,1.85,2.17c1.83-1.89,3.86-2.84,6.09-2.85,1.7,0,3.05.37,4.05,1.1,1,.74,1.5,1.89,1.5,3.47,0,1.33-.55,3.52-1.64,6.57-1.09,3.05-1.64,4.82-1.64,5.3,0,.51.21.76.63.76.64,0,1.26-.38,1.87-1.13.56-.69,1-1.53,1.32-2.51.32-.98.54-1.53.67-1.65.21-.13.52-.2.94-.2.66,0,1,.23,1.01.68,0,.4-.21,1.07-.63,2-.42.93-1.14,1.88-2.15,2.84-1.01.96-2.13,1.45-3.36,1.45-1.09,0-2.06-.32-2.89-.97-.84-.64-1.26-1.53-1.26-2.65,0-.48.51-2.13,1.54-4.94,1.03-2.81,1.54-4.95,1.54-6.41s-.61-2.25-1.84-2.25c-1.99,0-3.74,1.11-5.24,3.33-.4.59-.71,1.32-.93,2.21-1.34,5.25-2.11,8.26-2.31,9.03-.2.78-.4,1.29-.61,1.55-.51.71-1.19,1.07-2.03,1.09-.48,0-.91-.16-1.27-.47-.37-.31-.55-.72-.55-1.21,0-.18.07-.57.21-1.17l2.51-10.08c.38-1.55.56-2.56.55-3.05,0-.79-.25-1.19-.76-1.19s-.94.38-1.32,1.14-.68,1.6-.92,2.5c-.24.91-.39,1.4-.44,1.47-.16.21-.51.31-1.07.31h-.06c-.62,0-.94-.22-.94-.66Z"/>
  </g>
  <g>
    <path d="M177.36,553.18l5.88-27.75.04-.04h3.73l-2.33,11.08c2.26-1.66,4.63-2.48,7.09-2.48,1.09,0,2,.37,2.73,1.12s1.21,1.58,1.47,2.51c.25.93.38,1.91.38,2.95,0,3.39-1.04,6.39-3.13,9-2.09,2.61-4.42,3.92-7,3.92-1.92,0-3.46-.8-4.62-2.39l-.44,2.08h-3.8ZM182.12,548.63c.21.4.41.71.6.92s.49.42.91.63c.41.21.9.32,1.47.32,3.71,0,6.05-2.22,7.01-6.65.26-1.15.39-2.12.39-2.93,0-1.45-.41-2.47-1.23-3.06-.82-.59-1.77-.89-2.87-.89-.93,0-1.81.2-2.65.6-.84.4-1.35.79-1.55,1.17-.08.18-.77,3.48-2.08,9.89Z"/>
    <path d="M196.87,553.18l4-18.89h3.59l-.83,4.09c2.29-2.86,4.95-4.33,7.97-4.41l-.72,3.36c-2.06.03-3.81.58-5.26,1.67-1.45,1.09-2.4,2.32-2.87,3.71l-2.12,10.47h-3.77Z"/>
    <path d="M211.07,545.81c0-3.01,1.14-5.76,3.43-8.25,2.29-2.49,4.87-3.74,7.74-3.74,1.06,0,2.03.15,2.91.46.88.31,1.66.94,2.34,1.91.68.97,1.02,2.23,1.02,3.78,0,.53-.14,1.6-.42,3.2h-13.11s-.06.16-.1.4c-.04.24-.08.53-.14.88-.05.34-.08.64-.08.89,0,1.47.42,2.7,1.26,3.68.84.98,1.99,1.47,3.43,1.47,2.14,0,4.47-.76,6.99-2.29l-.45,3.24c-2.48,1.35-4.87,2.03-7.19,2.03s-4.19-.73-5.57-2.2c-1.38-1.46-2.07-3.29-2.07-5.48ZM215.9,540.81h9.14c-.03-1.52-.38-2.57-1.08-3.14-.69-.57-1.49-.86-2.41-.86-1.1,0-2.15.37-3.15,1.1-1,.74-1.84,1.7-2.5,2.9Z"/>
    <path d="M229.53,553.18l4-18.89h3.77l-4,18.89h-3.77ZM234.59,529.17l.78-3.75h3.77l-.78,3.75h-3.77Z"/>
    <path d="M240.13,537.28l.64-2.99h3.21l1.17-5.41h3.59l-1.14,5.41h5.61l-.64,2.99h-5.59c-.32,1.51-.63,2.99-.94,4.43-.31,1.44-.53,2.47-.68,3.08-.15.61-.27,1.19-.37,1.74-.1.55-.16.86-.18.95-.03.08-.04.25-.04.5,0,1.59.5,2.39,1.5,2.41,1.17,0,2.42-.47,3.73-1.41l.16,2.91c-2.45,1.07-4.71,1.6-6.8,1.6-1.71,0-2.56-1.16-2.56-3.48,0-.33.04-.77.12-1.35s.21-1.28.38-2.12c.17-.84.35-1.69.55-2.53.2-.85.44-1.93.73-3.26s.54-2.49.75-3.47h-3.2Z"/>
    <path d="M254.04,545.81c0-3.01,1.14-5.76,3.43-8.25,2.29-2.49,4.87-3.74,7.74-3.74,1.06,0,2.03.15,2.91.46.88.31,1.66.94,2.34,1.91.68.97,1.02,2.23,1.02,3.78,0,.53-.14,1.6-.42,3.2h-13.11s-.06.16-.1.4c-.04.24-.08.53-.14.88-.05.34-.08.64-.08.89,0,1.47.42,2.7,1.26,3.68.84.98,1.99,1.47,3.43,1.47,2.14,0,4.47-.76,6.99-2.29l-.45,3.24c-2.48,1.35-4.87,2.03-7.19,2.03s-4.19-.73-5.57-2.2c-1.38-1.46-2.07-3.29-2.07-5.48ZM258.87,540.81h9.14c-.03-1.52-.38-2.57-1.08-3.14-.69-.57-1.49-.86-2.41-.86-1.1,0-2.15.37-3.15,1.1-1,.74-1.84,1.7-2.5,2.9Z"/>
    <path d="M283.2,553.18l9.47-9.77-5.23-9.12h4.16l3.32,6.29,5.8-6.29h4.08l-8.85,9.08,5.57,9.8h-4.12l-3.55-7.48h-.04l-6.52,7.48h-4.08Z"/>
    <path d="M317.36,553.18l5.88-27.75.04-.04h3.73l-2.52,12.08c1.98-2.32,4.22-3.49,6.72-3.49,3.12,0,4.69,1.31,4.69,3.95,0,.59-.1,1.44-.31,2.56l-2.73,12.69h-3.85l2.62-12.5c.13-.74.19-1.21.19-1.41,0-1.54-1.08-2.31-3.25-2.31h-.06c-.26,0-.53.03-.8.08-.27.05-.63.19-1.09.4-.46.22-.87.52-1.23.9-.36.39-.73.96-1.1,1.72-.37.76-.67,1.65-.89,2.65l-2.18,10.46h-3.85Z"/>
    <path d="M338.39,545.88c0-3.07,1.2-5.85,3.6-8.35,2.4-2.5,5.1-3.75,8.1-3.75,2.2,0,3.99.74,5.37,2.21s2.08,3.33,2.08,5.56c0,3.18-1.21,5.97-3.63,8.36-2.42,2.39-5.1,3.58-8.05,3.58-2.22,0-4.02-.72-5.4-2.16s-2.08-3.26-2.08-5.45ZM342.24,546.04c0,1.58.42,2.7,1.26,3.36.84.66,1.86.99,3.06.99,1.42,0,2.64-.38,3.68-1.13,1.04-.75,1.79-1.69,2.25-2.81s.79-2.14.99-3.07c.2-.92.3-1.75.3-2.48,0-1.5-.42-2.57-1.27-3.19s-1.87-.94-3.06-.94-2.22.25-3.15.76-1.63,1.13-2.12,1.85c-.49.72-.89,1.55-1.2,2.47-.31.92-.51,1.71-.61,2.38-.09.67-.14,1.27-.14,1.8ZM344.88,530.25l.78-3.75h3.77l-.78,3.75h-3.77ZM353.08,530.25l.74-3.75h3.81l-.78,3.75h-3.77Z"/>
    <path d="M359.02,553.18l5.88-27.75.04-.04h3.73l-2.52,12.08c1.98-2.32,4.22-3.49,6.72-3.49,3.12,0,4.69,1.31,4.69,3.95,0,.59-.1,1.44-.31,2.56l-2.73,12.69h-3.85l2.62-12.5c.13-.74.19-1.21.19-1.41,0-1.54-1.08-2.31-3.25-2.31h-.06c-.26,0-.53.03-.8.08-.27.05-.63.19-1.09.4-.46.22-.87.52-1.23.9-.36.39-.73.96-1.1,1.72-.37.76-.67,1.65-.89,2.65l-2.18,10.46h-3.85Z"/>
    <path d="M380.09,545.81c0-3.01,1.14-5.76,3.43-8.25,2.29-2.49,4.87-3.74,7.74-3.74,1.06,0,2.03.15,2.91.46.88.31,1.66.94,2.34,1.91.68.97,1.02,2.23,1.02,3.78,0,.53-.14,1.6-.42,3.2h-13.11s-.06.16-.1.4c-.04.24-.08.53-.14.88-.05.34-.08.64-.08.89,0,1.47.42,2.7,1.26,3.68.84.98,1.99,1.47,3.43,1.47,2.14,0,4.47-.76,6.99-2.29l-.45,3.24c-2.48,1.35-4.87,2.03-7.19,2.03s-4.19-.73-5.57-2.2c-1.38-1.46-2.07-3.29-2.07-5.48ZM384.92,540.81h9.14c-.03-1.52-.38-2.57-1.08-3.14-.69-.57-1.49-.86-2.41-.86-1.1,0-2.15.37-3.15,1.1-1,.74-1.84,1.7-2.5,2.9Z"/>
    <path d="M244.43,594.95l.68-3.2,13.83-17.13h4.41l-3.61,17.13h3.93l-.68,3.2h-3.92l-1.31,6.23h-3.77l1.37-6.23h-10.92ZM248.73,591.74h7.32l3.06-13.89c-.53,1.15-1.49,2.63-2.87,4.44s-3.89,4.96-7.52,9.44Z"/>
    <path d="M276.21,601.18l9.47-9.77-5.23-9.12h4.16l3.32,6.29,5.8-6.29h4.08l-8.85,9.08,5.57,9.8h-4.12l-3.55-7.48h-.04l-6.52,7.48h-4.08Z"/>
    <path d="M311.62,593.67c0-3.47.7-6.7,2.1-9.7,1.4-3,3.23-5.37,5.5-7.08s4.66-2.58,7.19-2.58c1.47,0,2.86.25,4.16.76l-.68,3.07c-1.42-.56-2.76-.84-4.02-.84-1.95,0-3.73.65-5.33,1.96s-2.81,3.38-3.63,6.2l-.31,1.29c2.4-2.75,5.07-4.12,8.03-4.12,1.63,0,2.83.72,3.59,2.15.72,1.33,1.08,2.75,1.09,4.28,0,2.24-.47,4.31-1.41,6.21-.77,1.52-2.02,3-3.76,4.44-1.74,1.44-3.71,2.16-5.93,2.16-.74,0-1.46-.11-2.15-.34-.69-.23-1.39-.62-2.1-1.18-.71-.56-1.28-1.41-1.7-2.55-.42-1.14-.63-2.52-.63-4.12ZM315.21,594.9c0,2.57,1.24,3.85,3.71,3.85.51,0,.98-.05,1.43-.16.44-.1.83-.22,1.16-.34s.64-.33.94-.63.54-.54.74-.74c.2-.2.4-.52.61-.96.2-.44.35-.76.44-.98.09-.21.2-.6.33-1.14.13-.55.21-.92.25-1.11s.12-.58.24-1.16c.12-.59.2-.95.22-1.08.1-.74.16-1.3.16-1.68,0-.33-.03-.61-.08-.86-.05-.25-.12-.47-.2-.67s-.19-.38-.32-.53c-.14-.15-.26-.28-.38-.38-.12-.1-.28-.2-.48-.27-.2-.08-.35-.14-.46-.2-.1-.05-.27-.09-.5-.13-.23-.03-.38-.06-.46-.07-.08-.01-.22-.03-.42-.04-.2-.01-.32-.02-.34-.02-1.12.1-2.11.44-2.96,1.01-.85.57-1.5,1.2-1.94,1.91-.44.7-.8,1.5-1.08,2.4-.28.89-.45,1.64-.52,2.24-.07.6-.1,1.18-.1,1.74Z"/>
  </g>
  <g>
    <path d="M1061.36,553.18l5.88-27.75.04-.04h3.73l-2.33,11.08c2.26-1.66,4.63-2.48,7.1-2.48,1.09,0,2,.37,2.73,1.12s1.21,1.58,1.47,2.51c.25.93.38,1.91.38,2.95,0,3.39-1.04,6.39-3.13,9-2.09,2.61-4.42,3.92-7,3.92-1.92,0-3.46-.8-4.62-2.39l-.44,2.08h-3.8ZM1066.12,548.63c.21.4.41.71.6.92s.49.42.91.63c.41.21.9.32,1.47.32,3.71,0,6.05-2.22,7.01-6.65.26-1.15.39-2.12.39-2.93,0-1.45-.41-2.47-1.22-3.06-.82-.59-1.77-.89-2.87-.89-.93,0-1.81.2-2.65.6-.84.4-1.35.79-1.55,1.17-.08.18-.77,3.48-2.08,9.89Z"/>
    <path d="M1080.87,553.18l4-18.89h3.59l-.83,4.09c2.29-2.86,4.95-4.33,7.97-4.41l-.72,3.36c-2.06.03-3.81.58-5.26,1.67-1.45,1.09-2.4,2.32-2.87,3.71l-2.12,10.47h-3.77Z"/>
    <path d="M1095.07,545.81c0-3.01,1.14-5.76,3.43-8.25,2.29-2.49,4.87-3.74,7.74-3.74,1.06,0,2.03.15,2.91.46.88.31,1.66.94,2.34,1.91.68.97,1.02,2.23,1.02,3.78,0,.53-.14,1.6-.42,3.2h-13.11s-.06.16-.1.4c-.04.24-.08.53-.14.88-.05.34-.08.64-.08.89,0,1.47.42,2.7,1.26,3.68.84.98,1.99,1.47,3.43,1.47,2.14,0,4.47-.76,6.99-2.29l-.45,3.24c-2.48,1.35-4.87,2.03-7.19,2.03s-4.19-.73-5.57-2.2c-1.38-1.46-2.07-3.29-2.07-5.48ZM1099.9,540.81h9.14c-.03-1.52-.38-2.57-1.08-3.14-.69-.57-1.49-.86-2.41-.86-1.1,0-2.15.37-3.15,1.1-1,.74-1.84,1.7-2.5,2.9Z"/>
    <path d="M1113.53,553.18l4-18.89h3.77l-4,18.89h-3.77ZM1118.59,529.17l.78-3.75h3.77l-.78,3.75h-3.77Z"/>
    <path d="M1124.13,537.28l.64-2.99h3.21l1.17-5.41h3.59l-1.14,5.41h5.61l-.64,2.99h-5.59c-.32,1.51-.63,2.99-.94,4.43s-.53,2.47-.68,3.08c-.15.61-.27,1.19-.37,1.74-.1.55-.16.86-.18.95-.03.08-.04.25-.04.5,0,1.59.5,2.39,1.5,2.41,1.17,0,2.42-.47,3.73-1.41l.16,2.91c-2.45,1.07-4.71,1.6-6.8,1.6-1.71,0-2.56-1.16-2.56-3.48,0-.33.04-.77.12-1.35s.21-1.28.38-2.12c.17-.84.35-1.69.55-2.53.2-.85.44-1.93.73-3.26s.54-2.49.75-3.47h-3.2Z"/>
    <path d="M1138.04,545.81c0-3.01,1.14-5.76,3.43-8.25,2.29-2.49,4.87-3.74,7.74-3.74,1.06,0,2.03.15,2.91.46.88.31,1.66.94,2.34,1.91.68.97,1.02,2.23,1.02,3.78,0,.53-.14,1.6-.42,3.2h-13.11s-.06.16-.1.4c-.04.24-.08.53-.14.88-.05.34-.08.64-.08.89,0,1.47.42,2.7,1.26,3.68.84.98,1.99,1.47,3.43,1.47,2.14,0,4.47-.76,6.99-2.29l-.45,3.24c-2.48,1.35-4.87,2.03-7.19,2.03s-4.19-.73-5.57-2.2c-1.38-1.46-2.07-3.29-2.07-5.48ZM1142.86,540.81h9.14c-.03-1.52-.38-2.57-1.08-3.14-.69-.57-1.49-.86-2.41-.86-1.1,0-2.15.37-3.15,1.1-1,.74-1.84,1.7-2.5,2.9Z"/>
    <path d="M1167.2,553.18l9.47-9.77-5.23-9.12h4.16l3.32,6.29,5.8-6.29h4.08l-8.85,9.08,5.57,9.8h-4.12l-3.55-7.48h-.04l-6.52,7.48h-4.08Z"/>
    <path d="M1201.36,553.18l5.88-27.75.04-.04h3.73l-2.52,12.08c1.98-2.32,4.22-3.49,6.72-3.49,3.12,0,4.69,1.31,4.69,3.95,0,.59-.11,1.44-.31,2.56l-2.73,12.69h-3.85l2.62-12.5c.13-.74.19-1.21.19-1.41,0-1.54-1.08-2.31-3.25-2.31h-.06c-.26,0-.53.03-.8.08-.27.05-.63.19-1.09.4-.46.22-.87.52-1.23.9-.36.39-.73.96-1.1,1.72-.37.76-.67,1.65-.89,2.65l-2.18,10.46h-3.85Z"/>
    <path d="M1222.39,545.88c0-3.07,1.2-5.85,3.6-8.35,2.4-2.5,5.1-3.75,8.11-3.75,2.2,0,3.99.74,5.37,2.21s2.08,3.33,2.08,5.56c0,3.18-1.21,5.97-3.62,8.36-2.42,2.39-5.1,3.58-8.05,3.58-2.22,0-4.02-.72-5.4-2.16-1.38-1.44-2.08-3.26-2.08-5.45ZM1226.24,546.04c0,1.58.42,2.7,1.26,3.36.84.66,1.86.99,3.06.99,1.42,0,2.64-.38,3.68-1.13,1.04-.75,1.79-1.69,2.25-2.81s.79-2.14.99-3.07c.2-.92.3-1.75.3-2.48,0-1.5-.42-2.57-1.27-3.19s-1.87-.94-3.06-.94-2.22.25-3.14.76-1.63,1.13-2.12,1.85c-.49.72-.89,1.55-1.2,2.47-.31.92-.51,1.71-.61,2.38-.09.67-.14,1.27-.14,1.8ZM1228.88,530.25l.78-3.75h3.77l-.78,3.75h-3.77ZM1237.08,530.25l.74-3.75h3.81l-.78,3.75h-3.77Z"/>
    <path d="M1243.02,553.18l5.88-27.75.04-.04h3.73l-2.52,12.08c1.98-2.32,4.22-3.49,6.72-3.49,3.12,0,4.69,1.31,4.69,3.95,0,.59-.11,1.44-.31,2.56l-2.73,12.69h-3.85l2.62-12.5c.13-.74.19-1.21.19-1.41,0-1.54-1.08-2.31-3.25-2.31h-.06c-.26,0-.53.03-.8.08-.27.05-.63.19-1.09.4-.46.22-.87.52-1.23.9-.36.39-.73.96-1.1,1.72-.37.76-.67,1.65-.89,2.65l-2.18,10.46h-3.85Z"/>
    <path d="M1264.09,545.81c0-3.01,1.14-5.76,3.43-8.25,2.29-2.49,4.87-3.74,7.74-3.74,1.06,0,2.03.15,2.91.46.88.31,1.66.94,2.34,1.91.68.97,1.02,2.23,1.02,3.78,0,.53-.14,1.6-.42,3.2h-13.11s-.06.16-.1.4c-.04.24-.08.53-.14.88-.05.34-.08.64-.08.89,0,1.47.42,2.7,1.26,3.68.84.98,1.99,1.47,3.43,1.47,2.14,0,4.47-.76,6.99-2.29l-.45,3.24c-2.48,1.35-4.87,2.03-7.19,2.03s-4.19-.73-5.57-2.2c-1.38-1.46-2.07-3.29-2.07-5.48ZM1268.92,540.81h9.14c-.03-1.52-.38-2.57-1.08-3.14-.69-.57-1.49-.86-2.41-.86-1.1,0-2.15.37-3.15,1.1-1,.74-1.84,1.7-2.5,2.9Z"/>
    <path d="M1129.72,593.67c0-3.47.7-6.7,2.1-9.7,1.4-3,3.23-5.37,5.5-7.08s4.66-2.58,7.19-2.58c1.47,0,2.86.25,4.16.76l-.68,3.07c-1.42-.56-2.76-.84-4.02-.84-1.95,0-3.73.65-5.33,1.96s-2.81,3.38-3.63,6.2l-.31,1.29c2.4-2.75,5.07-4.12,8.03-4.12,1.63,0,2.83.72,3.59,2.15.72,1.33,1.08,2.75,1.09,4.28,0,2.24-.47,4.31-1.41,6.21-.77,1.52-2.02,3-3.76,4.44-1.74,1.44-3.71,2.16-5.93,2.16-.74,0-1.46-.11-2.15-.34-.69-.23-1.39-.62-2.1-1.18-.71-.56-1.28-1.41-1.7-2.55-.42-1.14-.63-2.52-.63-4.12ZM1133.31,594.9c0,2.57,1.24,3.85,3.71,3.85.51,0,.98-.05,1.43-.16.44-.1.83-.22,1.16-.34s.64-.33.94-.63.54-.54.74-.74c.2-.2.4-.52.61-.96.2-.44.35-.76.44-.98.09-.21.2-.6.33-1.14.13-.55.21-.92.25-1.11s.12-.58.24-1.16c.12-.59.2-.95.22-1.08.1-.74.16-1.3.16-1.68,0-.33-.03-.61-.08-.86-.05-.25-.12-.47-.2-.67s-.19-.38-.32-.53c-.14-.15-.26-.28-.38-.38-.12-.1-.28-.2-.48-.27-.2-.08-.36-.14-.46-.2-.1-.05-.27-.09-.5-.13-.23-.03-.38-.06-.46-.07-.08-.01-.22-.03-.42-.04-.2-.01-.32-.02-.34-.02-1.12.1-2.11.44-2.96,1.01-.85.57-1.5,1.2-1.94,1.91-.44.7-.8,1.5-1.08,2.4-.28.89-.45,1.64-.52,2.24-.07.6-.1,1.18-.1,1.74Z"/>
    <path d="M1160.21,601.18l9.47-9.77-5.23-9.12h4.16l3.32,6.29,5.8-6.29h4.08l-8.85,9.08,5.57,9.8h-4.12l-3.55-7.48h-.04l-6.52,7.48h-4.08Z"/>
    <path d="M1194.33,594.95l.68-3.2,13.83-17.13h4.41l-3.61,17.13h3.93l-.68,3.2h-3.92l-1.31,6.23h-3.77l1.37-6.23h-10.92ZM1198.63,591.74h7.32l3.06-13.89c-.53,1.15-1.49,2.63-2.87,4.44s-3.89,4.96-7.52,9.44Z"/>
  </g>
</svg>