<?xml version="1.0" encoding="UTF-8"?>
<svg id="Ebene_1" data-name="Ebene 1" xmlns="http://www.w3.org/2000/svg" viewBox="0 0 1197.64 392">
  <rect width="1197.64" height="392" fill="#fbf2d8"/>
  <path d="M358.25,104h-51.34v-51.34h51.34v51.34ZM309.91,101h45.34v-45.34h-45.34v45.34Z"/>
  <path d="M406.25,104h-51.34v-51.34h51.34v51.34ZM357.91,101h45.34v-45.34h-45.34v45.34Z"/>
  <path d="M455.25,104h-51.34v-51.34h51.34v51.34ZM406.91,101h45.34v-45.34h-45.34v45.34Z"/>
  <path d="M503.25,104h-51.34v-51.34h51.34v51.34ZM454.91,101h45.34v-45.34h-45.34v45.34Z"/>
  <path d="M358.25,152h-51.34v-51.34h51.34v51.34ZM309.91,149h45.34v-45.34h-45.34v45.34Z"/>
  <path d="M406.25,152h-51.34v-51.34h51.34v51.34ZM357.91,149h45.34v-45.34h-45.34v45.34Z"/>
  <path d="M455.25,152h-51.34v-51.34h51.34v51.34ZM406.91,149h45.34v-45.34h-45.34v45.34Z"/>
  <path d="M503.25,152h-51.34v-51.34h51.34v51.34ZM454.91,149h45.34v-45.34h-45.34v45.34Z"/>
  <path d="M358.25,200h-51.34v-51.34h51.34v51.34ZM309.91,197h45.34v-45.34h-45.34v45.34Z"/>
  <path d="M406.25,200h-51.34v-51.34h51.34v51.34ZM357.91,197h45.34v-45.34h-45.34v45.34Z"/>
  <path d="M455.25,200h-51.34v-51.34h51.34v51.34ZM406.91,197h45.34v-45.34h-45.34v45.34Z"/>
  <path d="M503.25,200h-51.34v-51.34h51.34v51.34ZM454.91,197h45.34v-45.34h-45.34v45.34Z"/>
  <path d="M358.25,248h-51.34v-51.34h51.34v51.34ZM309.91,245h45.34v-45.34h-45.34v45.34Z"/>
  <path d="M406.25,248h-51.34v-51.34h51.34v51.34ZM357.91,245h45.34v-45.34h-45.34v45.34Z"/>
  <path d="M455.25,248h-51.34v-51.34h51.34v51.34ZM406.91,245h45.34v-45.34h-45.34v45.34Z"/>
  <path d="M503.25,248h-51.34v-51.34h51.34v51.34ZM454.91,245h45.34v-45.34h-45.34v45.34Z"/>
  <path d="M652.25,166h-51.34v-51.34h51.34v51.34ZM603.91,163h45.34v-45.34h-45.34v45.34Z"/>
  <path d="M700.25,166h-51.34v-51.34h51.34v51.34ZM651.91,163h45.34v-45.34h-45.34v45.34Z"/>
  <path d="M749.25,166h-51.34v-51.34h51.34v51.34ZM700.91,163h45.34v-45.34h-45.34v45.34Z"/>
  <path d="M797.25,166h-51.34v-51.34h51.34v51.34ZM748.91,163h45.34v-45.34h-45.34v45.34Z"/>
  <path d="M652.25,214h-51.34v-51.34h51.34v51.34ZM603.91,211h45.34v-45.34h-45.34v45.34Z"/>
  <path d="M700.25,214h-51.34v-51.34h51.34v51.34ZM651.91,211h45.34v-45.34h-45.34v45.34Z"/>
  <path d="M749.25,214h-51.34v-51.34h51.34v51.34ZM700.91,211h45.34v-45.34h-45.34v45.34Z"/>
  <path d="M797.25,214h-51.34v-51.34h51.34v51.34ZM748.91,211h45.34v-45.34h-45.34v45.34Z"/>
  <path d="M652.25,262h-51.34v-51.34h51.34v51.34ZM603.91,259h45.34v-45.34h-45.34v45.34Z"/>
  <path d="M700.25,262h-51.34v-51.34h51.34v51.34ZM651.91,259h45.34v-45.34h-45.34v45.34Z"/>
  <path d="M749.25,262h-51.34v-51.34h51.34v51.34ZM700.91,259h45.34v-45.34h-45.34v45.34Z"/>
  <path d="M797.25,262h-51.34v-51.34h51.34v51.34ZM748.91,259h45.34v-45.34h-45.34v45.34Z"/>
  <path d="M652.25,310h-51.34v-51.34h51.34v51.34ZM603.91,307h45.34v-45.34h-45.34v45.34Z"/>
  <path d="M700.25,310h-51.34v-51.34h51.34v51.34ZM651.91,307h45.34v-45.34h-45.34v45.34Z"/>
  <path d="M749.25,310h-51.34v-51.34h51.34v51.34ZM700.91,307h45.34v-45.34h-45.34v45.34Z"/>
  <path d="M797.25,310h-51.34v-51.34h51.34v51.34ZM748.91,307h45.34v-45.34h-45.34v45.34Z"/>
  <path d="M845.25,166h-51.34v-51.34h51.34v51.34ZM796.91,163h45.34v-45.34h-45.34v45.34Z"/>
  <path d="M893.25,166h-51.34v-51.34h51.34v51.34ZM844.91,163h45.34v-45.34h-45.34v45.34Z"/>
  <path d="M845.25,214h-51.34v-51.34h51.34v51.34ZM796.91,211h45.34v-45.34h-45.34v45.34Z"/>
  <path d="M893.25,214h-51.34v-51.34h51.34v51.34ZM844.91,211h45.34v-45.34h-45.34v45.34Z"/>
  <path d="M845.25,262h-51.34v-51.34h51.34v51.34ZM796.91,259h45.34v-45.34h-45.34v45.34Z"/>
  <path d="M893.25,262h-51.34v-51.34h51.34v51.34ZM844.91,259h45.34v-45.34h-45.34v45.34Z"/>
  <path d="M845.25,310h-51.34v-51.34h51.34v51.34ZM796.91,307h45.34v-45.34h-45.34v45.34Z"/>
  <path d="M893.25,310h-51.34v-51.34h51.34v51.34ZM844.91,307h45.34v-45.34h-45.34v45.34Z"/>
  <path d="M358.25,296h-51.34v-51.34h51.34v51.34ZM309.91,293h45.34v-45.34h-45.34v45.34Z"/>
  <path d="M406.25,296h-51.34v-51.34h51.34v51.34ZM357.91,293h45.34v-45.34h-45.34v45.34Z"/>
  <path d="M455.25,296h-51.34v-51.34h51.34v51.34ZM406.91,293h45.34v-45.34h-45.34v45.34Z"/>
  <path d="M503.25,296h-51.34v-51.34h51.34v51.34ZM454.91,293h45.34v-45.34h-45.34v45.34Z"/>
  <path d="M358.25,344h-51.34v-51.34h51.34v51.34ZM309.91,341h45.34v-45.34h-45.34v45.34Z"/>
  <path d="M406.25,344h-51.34v-51.34h51.34v51.34ZM357.91,341h45.34v-45.34h-45.34v45.34Z"/>
  <path d="M455.25,344h-51.34v-51.34h51.34v51.34ZM406.91,341h45.34v-45.34h-45.34v45.34Z"/>
  <path d="M503.25,344h-51.34v-51.34h51.34v51.34ZM454.91,341h45.34v-45.34h-45.34v45.34Z"/>
  <g>
    <path d="M47.36,207.18l5.88-27.75.04-.04h3.73l-2.33,11.08c2.26-1.66,4.63-2.48,7.09-2.48,1.09,0,2,.37,2.73,1.12s1.21,1.58,1.47,2.51c.25.93.38,1.91.38,2.95,0,3.39-1.04,6.39-3.13,9-2.09,2.61-4.42,3.92-7,3.92-1.92,0-3.46-.8-4.62-2.39l-.44,2.08h-3.8ZM52.12,202.63c.21.4.41.71.6.92s.49.42.91.63c.41.21.9.32,1.47.32,3.71,0,6.05-2.22,7.01-6.65.26-1.15.39-2.12.39-2.93,0-1.45-.41-2.47-1.23-3.06-.82-.59-1.77-.89-2.87-.89-.93,0-1.81.2-2.65.6-.84.4-1.35.79-1.55,1.17-.08.18-.77,3.48-2.08,9.89Z"/>
    <path d="M66.87,207.18l4-18.89h3.59l-.83,4.09c2.29-2.86,4.95-4.33,7.97-4.41l-.72,3.36c-2.06.03-3.81.58-5.26,1.67-1.45,1.09-2.4,2.32-2.87,3.71l-2.12,10.47h-3.77Z"/>
    <path d="M81.07,199.81c0-3.01,1.14-5.76,3.43-8.25,2.29-2.49,4.87-3.74,7.74-3.74,1.06,0,2.03.15,2.91.46.88.31,1.66.94,2.34,1.91.68.97,1.02,2.23,1.02,3.78,0,.53-.14,1.6-.42,3.2h-13.11s-.06.16-.1.4c-.04.24-.08.53-.14.88-.05.34-.08.64-.08.89,0,1.47.42,2.7,1.26,3.68.84.98,1.99,1.47,3.43,1.47,2.14,0,4.47-.76,6.99-2.29l-.45,3.24c-2.48,1.35-4.87,2.03-7.19,2.03s-4.19-.73-5.57-2.2c-1.38-1.46-2.07-3.29-2.07-5.48ZM85.9,194.81h9.14c-.03-1.52-.38-2.57-1.08-3.14-.69-.57-1.49-.86-2.41-.86-1.1,0-2.15.37-3.15,1.1-1,.74-1.84,1.7-2.5,2.9Z"/>
    <path d="M99.53,207.18l4-18.89h3.77l-4,18.89h-3.77ZM104.59,183.17l.78-3.75h3.77l-.78,3.75h-3.77Z"/>
    <path d="M110.13,191.28l.64-2.99h3.21l1.17-5.41h3.59l-1.14,5.41h5.61l-.64,2.99h-5.59c-.32,1.51-.63,2.99-.94,4.43-.31,1.44-.53,2.47-.68,3.08-.15.61-.27,1.19-.37,1.74-.1.55-.16.86-.18.95-.03.08-.04.25-.04.5,0,1.59.5,2.39,1.5,2.41,1.17,0,2.42-.47,3.73-1.41l.16,2.91c-2.45,1.07-4.71,1.6-6.8,1.6-1.71,0-2.56-1.16-2.56-3.48,0-.33.04-.77.12-1.35s.21-1.28.38-2.12c.17-.84.35-1.69.55-2.53.2-.85.44-1.93.73-3.26s.54-2.49.75-3.47h-3.2Z"/>
    <path d="M124.04,199.81c0-3.01,1.14-5.76,3.43-8.25,2.29-2.49,4.87-3.74,7.74-3.74,1.06,0,2.03.15,2.91.46.88.31,1.66.94,2.34,1.91.68.97,1.02,2.23,1.02,3.78,0,.53-.14,1.6-.42,3.2h-13.11s-.06.16-.1.4c-.04.24-.08.53-.14.88-.05.34-.08.64-.08.89,0,1.47.42,2.7,1.26,3.68.84.98,1.99,1.47,3.43,1.47,2.14,0,4.47-.76,6.99-2.29l-.45,3.24c-2.48,1.35-4.87,2.03-7.19,2.03s-4.19-.73-5.57-2.2c-1.38-1.46-2.07-3.29-2.07-5.48ZM128.87,194.81h9.14c-.03-1.52-.38-2.57-1.08-3.14-.69-.57-1.49-.86-2.41-.86-1.1,0-2.15.37-3.15,1.1-1,.74-1.84,1.7-2.5,2.9Z"/>
    <path d="M153.2,207.18l9.47-9.77-5.23-9.12h4.16l3.32,6.29,5.8-6.29h4.08l-8.85,9.08,5.57,9.8h-4.12l-3.55-7.48h-.04l-6.52,7.48h-4.08Z"/>
    <path d="M187.36,207.18l5.88-27.75.04-.04h3.73l-2.52,12.08c1.98-2.32,4.22-3.49,6.72-3.49,3.12,0,4.69,1.31,4.69,3.95,0,.59-.1,1.44-.31,2.56l-2.73,12.69h-3.85l2.62-12.5c.13-.74.19-1.21.19-1.41,0-1.54-1.08-2.31-3.25-2.31h-.06c-.26,0-.53.03-.8.08-.27.05-.63.19-1.09.4-.46.22-.87.52-1.23.9-.36.39-.73.96-1.1,1.72-.37.76-.67,1.65-.89,2.65l-2.18,10.46h-3.85Z"/>
    <path d="M208.39,199.88c0-3.07,1.2-5.85,3.6-8.35,2.4-2.5,5.1-3.75,8.1-3.75,2.2,0,3.99.74,5.37,2.21s2.08,3.33,2.08,5.56c0,3.18-1.21,5.97-3.63,8.36-2.42,2.39-5.1,3.58-8.05,3.58-2.22,0-4.02-.72-5.4-2.16s-2.08-3.26-2.08-5.45ZM212.24,200.04c0,1.58.42,2.7,1.26,3.36.84.66,1.86.99,3.06.99,1.42,0,2.64-.38,3.68-1.13,1.04-.75,1.79-1.69,2.25-2.81s.79-2.14.99-3.07c.2-.92.3-1.75.3-2.48,0-1.5-.42-2.57-1.27-3.19s-1.87-.94-3.06-.94-2.22.25-3.15.76-1.63,1.13-2.12,1.85c-.49.72-.89,1.55-1.2,2.47-.31.92-.51,1.71-.61,2.38-.09.67-.14,1.27-.14,1.8ZM214.88,184.25l.78-3.75h3.77l-.78,3.75h-3.77ZM223.08,184.25l.74-3.75h3.81l-.78,3.75h-3.77Z"/>
    <path d="M229.02,207.18l5.88-27.75.04-.04h3.73l-2.52,12.08c1.98-2.32,4.22-3.49,6.72-3.49,3.12,0,4.69,1.31,4.69,3.95,0,.59-.1,1.44-.31,2.56l-2.73,12.69h-3.85l2.62-12.5c.13-.74.19-1.21.19-1.41,0-1.54-1.08-2.31-3.25-2.31h-.06c-.26,0-.53.03-.8.08-.27.05-.63.19-1.09.4-.46.22-.87.52-1.23.9-.36.39-.73.96-1.1,1.72-.37.76-.67,1.65-.89,2.65l-2.18,10.46h-3.85Z"/>
    <path d="M250.09,199.81c0-3.01,1.14-5.76,3.43-8.25,2.29-2.49,4.87-3.74,7.74-3.74,1.06,0,2.03.15,2.91.46.88.31,1.66.94,2.34,1.91.68.97,1.02,2.23,1.02,3.78,0,.53-.14,1.6-.42,3.2h-13.11s-.06.16-.1.4c-.04.24-.08.53-.14.88-.05.34-.08.64-.08.89,0,1.47.42,2.7,1.26,3.68.84.98,1.99,1.47,3.43,1.47,2.14,0,4.47-.76,6.99-2.29l-.45,3.24c-2.48,1.35-4.87,2.03-7.19,2.03s-4.19-.73-5.57-2.2c-1.38-1.46-2.07-3.29-2.07-5.48ZM254.92,194.81h9.14c-.03-1.52-.38-2.57-1.08-3.14-.69-.57-1.49-.86-2.41-.86-1.1,0-2.15.37-3.15,1.1-1,.74-1.84,1.7-2.5,2.9Z"/>
    <path d="M114.43,248.95l.68-3.2,13.83-17.13h4.41l-3.61,17.13h3.93l-.68,3.2h-3.92l-1.31,6.23h-3.77l1.37-6.23h-10.92ZM118.73,245.74h7.32l3.06-13.89c-.53,1.15-1.49,2.63-2.87,4.44s-3.89,4.96-7.52,9.44Z"/>
    <path d="M146.21,255.18l9.47-9.77-5.23-9.12h4.16l3.32,6.29,5.8-6.29h4.08l-8.85,9.08,5.57,9.8h-4.12l-3.55-7.48h-.04l-6.52,7.48h-4.08Z"/>
    <path d="M181.62,247.67c0-3.47.7-6.7,2.1-9.7,1.4-3,3.23-5.37,5.5-7.08s4.66-2.58,7.19-2.58c1.47,0,2.86.25,4.16.76l-.68,3.07c-1.42-.56-2.76-.84-4.02-.84-1.95,0-3.73.65-5.33,1.96s-2.81,3.38-3.63,6.2l-.31,1.29c2.4-2.75,5.07-4.12,8.03-4.12,1.63,0,2.83.72,3.59,2.15.72,1.33,1.08,2.75,1.09,4.28,0,2.24-.47,4.31-1.41,6.21-.77,1.52-2.02,3-3.76,4.44-1.74,1.44-3.71,2.16-5.93,2.16-.74,0-1.46-.11-2.15-.34-.69-.23-1.39-.62-2.1-1.18-.71-.56-1.28-1.41-1.7-2.55-.42-1.14-.63-2.52-.63-4.12ZM185.21,248.9c0,2.57,1.24,3.85,3.71,3.85.51,0,.98-.05,1.43-.16.44-.1.83-.22,1.16-.34s.64-.33.94-.63.54-.54.74-.74c.2-.2.4-.52.61-.96.2-.44.35-.76.44-.98.09-.21.2-.6.33-1.14.13-.55.21-.92.25-1.11s.12-.58.24-1.16c.12-.59.2-.95.22-1.08.1-.74.16-1.3.16-1.68,0-.33-.03-.61-.08-.86-.05-.25-.12-.47-.2-.67s-.19-.38-.32-.53c-.14-.15-.26-.28-.38-.38-.12-.1-.28-.2-.48-.27-.2-.08-.35-.14-.46-.2-.1-.05-.27-.09-.5-.13-.23-.03-.38-.06-.46-.07-.08-.01-.22-.03-.42-.04-.2-.01-.32-.02-.34-.02-1.12.1-2.11.44-2.96,1.01-.85.57-1.5,1.2-1.94,1.91-.44.7-.8,1.5-1.08,2.4-.28.89-.45,1.64-.52,2.24-.07.6-.1,1.18-.1,1.74Z"/>
  </g>
  <g>
    <path d="M931.36,207.18l5.88-27.75.04-.04h3.73l-2.33,11.08c2.26-1.66,4.63-2.48,7.1-2.48,1.09,0,2,.37,2.73,1.12s1.21,1.58,1.47,2.51c.25.93.38,1.91.38,2.95,0,3.39-1.04,6.39-3.13,9-2.09,2.61-4.42,3.92-7,3.92-1.92,0-3.46-.8-4.62-2.39l-.44,2.08h-3.8ZM936.12,202.63c.21.4.41.71.6.92s.49.42.91.63c.41.21.9.32,1.47.32,3.71,0,6.05-2.22,7.01-6.65.26-1.15.39-2.12.39-2.93,0-1.45-.41-2.47-1.22-3.06-.82-.59-1.77-.89-2.87-.89-.93,0-1.81.2-2.65.6-.84.4-1.35.79-1.55,1.17-.08.18-.77,3.48-2.08,9.89Z"/>
    <path d="M950.87,207.18l4-18.89h3.59l-.83,4.09c2.29-2.86,4.95-4.33,7.97-4.41l-.72,3.36c-2.06.03-3.81.58-5.26,1.67-1.45,1.09-2.4,2.32-2.87,3.71l-2.12,10.47h-3.77Z"/>
    <path d="M965.07,199.81c0-3.01,1.14-5.76,3.43-8.25,2.29-2.49,4.87-3.74,7.74-3.74,1.06,0,2.03.15,2.91.46.88.31,1.66.94,2.34,1.91.68.97,1.02,2.23,1.02,3.78,0,.53-.14,1.6-.42,3.2h-13.11s-.06.16-.1.4c-.04.24-.08.53-.14.88-.05.34-.08.64-.08.89,0,1.47.42,2.7,1.26,3.68.84.98,1.99,1.47,3.43,1.47,2.14,0,4.47-.76,6.99-2.29l-.45,3.24c-2.48,1.35-4.87,2.03-7.19,2.03s-4.19-.73-5.57-2.2c-1.38-1.46-2.07-3.29-2.07-5.48ZM969.9,194.81h9.14c-.03-1.52-.38-2.57-1.08-3.14-.69-.57-1.49-.86-2.41-.86-1.1,0-2.15.37-3.15,1.1-1,.74-1.84,1.7-2.5,2.9Z"/>
    <path d="M983.53,207.18l4-18.89h3.77l-4,18.89h-3.77ZM988.59,183.17l.78-3.75h3.77l-.78,3.75h-3.77Z"/>
    <path d="M994.13,191.28l.64-2.99h3.21l1.17-5.41h3.59l-1.14,5.41h5.61l-.64,2.99h-5.59c-.32,1.51-.63,2.99-.94,4.43s-.53,2.47-.68,3.08c-.15.61-.27,1.19-.37,1.74-.1.55-.16.86-.18.95-.03.08-.04.25-.04.5,0,1.59.5,2.39,1.5,2.41,1.17,0,2.42-.47,3.73-1.41l.16,2.91c-2.45,1.07-4.71,1.6-6.8,1.6-1.71,0-2.56-1.16-2.56-3.48,0-.33.04-.77.12-1.35s.21-1.28.38-2.12c.17-.84.35-1.69.55-2.53.2-.85.44-1.93.73-3.26s.54-2.49.75-3.47h-3.2Z"/>
    <path d="M1008.04,199.81c0-3.01,1.14-5.76,3.43-8.25,2.29-2.49,4.87-3.74,7.74-3.74,1.06,0,2.03.15,2.91.46.88.31,1.66.94,2.34,1.91.68.97,1.02,2.23,1.02,3.78,0,.53-.14,1.6-.42,3.2h-13.11s-.06.16-.1.4c-.04.24-.08.53-.14.88-.05.34-.08.64-.08.89,0,1.47.42,2.7,1.26,3.68.84.98,1.99,1.47,3.43,1.47,2.14,0,4.47-.76,6.99-2.29l-.45,3.24c-2.48,1.35-4.87,2.03-7.19,2.03s-4.19-.73-5.57-2.2c-1.38-1.46-2.07-3.29-2.07-5.48ZM1012.86,194.81h9.14c-.03-1.52-.38-2.57-1.08-3.14-.69-.57-1.49-.86-2.41-.86-1.1,0-2.15.37-3.15,1.1-1,.74-1.84,1.7-2.5,2.9Z"/>
    <path d="M1037.2,207.18l9.47-9.77-5.23-9.12h4.16l3.32,6.29,5.8-6.29h4.08l-8.85,9.08,5.57,9.8h-4.12l-3.55-7.48h-.04l-6.52,7.48h-4.08Z"/>
    <path d="M1071.36,207.18l5.88-27.75.04-.04h3.73l-2.52,12.08c1.98-2.32,4.22-3.49,6.72-3.49,3.12,0,4.69,1.31,4.69,3.95,0,.59-.11,1.44-.31,2.56l-2.73,12.69h-3.85l2.62-12.5c.13-.74.19-1.21.19-1.41,0-1.54-1.08-2.31-3.25-2.31h-.06c-.26,0-.53.03-.8.08-.27.05-.63.19-1.09.4-.46.22-.87.52-1.23.9-.36.39-.73.96-1.1,1.72-.37.76-.67,1.65-.89,2.65l-2.18,10.46h-3.85Z"/>
    <path d="M1092.39,199.88c0-3.07,1.2-5.85,3.6-8.35,2.4-2.5,5.1-3.75,8.11-3.75,2.2,0,3.99.74,5.37,2.21s2.08,3.33,2.08,5.56c0,3.18-1.21,5.97-3.62,8.36-2.42,2.39-5.1,3.58-8.05,3.58-2.22,0-4.02-.72-5.4-2.16-1.38-1.44-2.08-3.26-2.08-5.45ZM1096.24,200.04c0,1.58.42,2.7,1.26,3.36.84.66,1.86.99,3.06.99,1.42,0,2.64-.38,3.68-1.13,1.04-.75,1.79-1.69,2.25-2.81s.79-2.14.99-3.07c.2-.92.3-1.75.3-2.48,0-1.5-.42-2.57-1.27-3.19s-1.87-.94-3.06-.94-2.22.25-3.14.76-1.63,1.13-2.12,1.85c-.49.72-.89,1.55-1.2,2.47-.31.92-.51,1.71-.61,2.38-.09.67-.14,1.27-.14,1.8ZM1098.88,184.25l.78-3.75h3.77l-.78,3.75h-3.77ZM1107.08,184.25l.74-3.75h3.81l-.78,3.75h-3.77Z"/>
    <path d="M1113.02,207.18l5.88-27.75.04-.04h3.73l-2.52,12.08c1.98-2.32,4.22-3.49,6.72-3.49,3.12,0,4.69,1.31,4.69,3.95,0,.59-.11,1.44-.31,2.56l-2.73,12.69h-3.85l2.62-12.5c.13-.74.19-1.21.19-1.41,0-1.54-1.08-2.31-3.25-2.31h-.06c-.26,0-.53.03-.8.08-.27.05-.63.19-1.09.4-.46.22-.87.52-1.23.9-.36.39-.73.96-1.1,1.72-.37.76-.67,1.65-.89,2.65l-2.18,10.46h-3.85Z"/>
    <path d="M1134.09,199.81c0-3.01,1.14-5.76,3.43-8.25,2.29-2.49,4.87-3.74,7.74-3.74,1.06,0,2.03.15,2.91.46.88.31,1.66.94,2.34,1.91.68.97,1.02,2.23,1.02,3.78,0,.53-.14,1.6-.42,3.2h-13.11s-.06.16-.1.4c-.04.24-.08.53-.14.88-.05.34-.08.64-.08.89,0,1.47.42,2.7,1.26,3.68.84.98,1.99,1.47,3.43,1.47,2.14,0,4.47-.76,6.99-2.29l-.45,3.24c-2.48,1.35-4.87,2.03-7.19,2.03s-4.19-.73-5.57-2.2c-1.38-1.46-2.07-3.29-2.07-5.48ZM1138.92,194.81h9.14c-.03-1.52-.38-2.57-1.08-3.14-.69-.57-1.49-.86-2.41-.86-1.1,0-2.15.37-3.15,1.1-1,.74-1.84,1.7-2.5,2.9Z"/>
    <path d="M999.72,247.67c0-3.47.7-6.7,2.1-9.7,1.4-3,3.23-5.37,5.5-7.08s4.66-2.58,7.19-2.58c1.47,0,2.86.25,4.16.76l-.68,3.07c-1.42-.56-2.76-.84-4.02-.84-1.95,0-3.73.65-5.33,1.96s-2.81,3.38-3.63,6.2l-.31,1.29c2.4-2.75,5.07-4.12,8.03-4.12,1.63,0,2.83.72,3.59,2.15.72,1.33,1.08,2.75,1.09,4.28,0,2.24-.47,4.31-1.41,6.21-.77,1.52-2.02,3-3.76,4.44-1.74,1.44-3.71,2.16-5.93,2.16-.74,0-1.46-.11-2.15-.34-.69-.23-1.39-.62-2.1-1.18-.71-.56-1.28-1.41-1.7-2.55-.42-1.14-.63-2.52-.63-4.12ZM1003.31,248.9c0,2.57,1.24,3.85,3.71,3.85.51,0,.98-.05,1.43-.16.44-.1.83-.22,1.16-.34s.64-.33.94-.63.54-.54.74-.74c.2-.2.4-.52.61-.96.2-.44.35-.76.44-.98.09-.21.2-.6.33-1.14.13-.55.21-.92.25-1.11s.12-.58.24-1.16c.12-.59.2-.95.22-1.08.1-.74.16-1.3.16-1.68,0-.33-.03-.61-.08-.86-.05-.25-.12-.47-.2-.67s-.19-.38-.32-.53c-.14-.15-.26-.28-.38-.38-.12-.1-.28-.2-.48-.27-.2-.08-.36-.14-.46-.2-.1-.05-.27-.09-.5-.13-.23-.03-.38-.06-.46-.07-.08-.01-.22-.03-.42-.04-.2-.01-.32-.02-.34-.02-1.12.1-2.11.44-2.96,1.01-.85.57-1.5,1.2-1.94,1.91-.44.7-.8,1.5-1.08,2.4-.28.89-.45,1.64-.52,2.24-.07.6-.1,1.18-.1,1.74Z"/>
    <path d="M1030.21,255.18l9.47-9.77-5.23-9.12h4.16l3.32,6.29,5.8-6.29h4.08l-8.85,9.08,5.57,9.8h-4.12l-3.55-7.48h-.04l-6.52,7.48h-4.08Z"/>
    <path d="M1064.33,248.95l.68-3.2,13.83-17.13h4.41l-3.61,17.13h3.93l-.68,3.2h-3.92l-1.31,6.23h-3.77l1.37-6.23h-10.92ZM1068.63,245.74h7.32l3.06-13.89c-.53,1.15-1.49,2.63-2.87,4.44s-3.89,4.96-7.52,9.44Z"/>
  </g>
</svg>