<?xml version="1.0" encoding="UTF-8"?>
<svg id="Ebene_1" data-name="Ebene 1" xmlns="http://www.w3.org/2000/svg" viewBox="0 0 355 355">
  <defs>
    <style>
      .cls-1 {
        fill: none;
      }

      .cls-1, .cls-2, .cls-3, .cls-4, .cls-5, .cls-6 {
        stroke-width: 0px;
      }

      .cls-3 {
        fill: #c03b2d;
      }

      .cls-4 {
        fill: #30628b;
      }

      .cls-5 {
        fill: #fff;
      }

      .cls-6 {
        fill: #f0c34e;
      }
    </style>
  </defs>
  <path class="cls-2" d="m27.84,178.4l-18-55.35,47.09-34.2.59.81c7.18,9.87,10.97,21.55,10.97,33.78,0,24.98-15.95,46.94-39.69,54.66l-.95.31Zm-15.65-54.59l16.93,52.06c22.39-7.72,37.36-28.67,37.36-52.44,0-11.47-3.46-22.44-10.01-31.79L12.19,123.81Z"/>
  <path class="cls-2" d="m177.5,59.97c-18.32,0-35.7-8.86-46.5-23.69l-.59-.81L177.5,1.26l47.09,34.21-.59.81c-10.8,14.83-28.18,23.69-46.5,23.69Zm-44.29-24.06c10.46,13.84,26.94,22.06,44.29,22.06s33.83-8.23,44.29-22.06L177.5,3.74l-44.29,32.17Z"/>
  <path class="cls-2" d="m295.02,266.22c-10.23-3.33-21.54-3.34-31.8,0l-.62-1.9c10.66-3.46,22.4-3.45,33.04,0l-.62,1.9Z"/>
  <path class="cls-2" d="m327.16,178.4l-.95-.31c-23.74-7.71-39.69-29.68-39.69-54.66,0-12.23,3.79-23.91,10.97-33.78l.59-.81,47.09,34.2-18,55.35Zm-28.63-86.76c-6.55,9.35-10.01,20.32-10.01,31.79,0,23.78,14.97,44.73,37.36,52.44l16.93-52.06-44.29-32.17Z"/>
  <polygon class="cls-6" points="177.5 2.5 74.64 319.08 280.36 319.08 177.5 2.5"/>
  <rect class="cls-2" x="216.79" y="122.42" width="127.2" height="2"/>
  <rect class="cls-5" x="138.21" y="122.42" width="78.58" height="2"/>
  <rect class="cls-2" x="11.01" y="122.42" width="127.2" height="2"/>
  <rect class="cls-5" x="196.14" y="155.77" width="2" height="205.72" transform="translate(-127.97 266.13) rotate(-54.01)"/>
  <rect class="cls-2" x="61.46" y="97.2" width="2" height="127.2" transform="translate(-104.34 116.83) rotate(-54)"/>
  <rect class="cls-5" x="55" y="257.63" width="205.72" height="2" transform="translate(-121.91 142.28) rotate(-36.02)"/>
  <rect class="cls-2" x="228.94" y="159.8" width="127.2" height="2" transform="translate(-38.63 202.77) rotate(-36.02)"/>
  <rect class="cls-4" x="-8.63" y="60.46" width="205.77" height="5" transform="translate(-19.01 67.41) rotate(-35.99)"/>
  <rect class="cls-6" x="258.25" y="-39.92" width="5" height="205.77" transform="translate(56.58 236.93) rotate(-54.01)"/>
  <path class="cls-3" d="m234.68,285.89c-6.78,9.32-10.78,20.78-10.78,33.19h56.47l-45.69-33.19Z"/>
  <path class="cls-4" d="m74.64,319.08h56.48c0-12.41-4-23.88-10.79-33.19l-45.69,33.19Z"/>
  <line class="cls-1" x1="280.36" y1="319.08" x2="343.99" y2="123.42"/>
  <path class="cls-3" d="m282.74,319.85l-4.75-1.55,1.24-3.8,4.75,1.55-1.24,3.8Zm2.47-7.61l-4.75-1.55,1.24-3.8,4.76,1.55-1.24,3.8Zm2.47-7.61l-4.75-1.55,1.24-3.8,4.75,1.55-1.24,3.8Zm2.47-7.61l-4.75-1.55,1.24-3.8,4.75,1.55-1.24,3.8Zm2.47-7.61l-4.75-1.55,1.24-3.8,4.75,1.55-1.24,3.8Zm2.47-7.61l-4.75-1.55,1.24-3.8,4.75,1.55-1.24,3.8Zm2.48-7.61l-4.75-1.55,1.24-3.8,4.76,1.55-1.24,3.8Zm2.47-7.61l-4.75-1.55,1.24-3.8,4.75,1.55-1.24,3.8Zm2.47-7.61l-4.75-1.55,1.24-3.8,4.75,1.55-1.24,3.8Zm2.47-7.61l-4.75-1.55,1.24-3.8,4.75,1.55-1.24,3.8Zm2.47-7.61l-4.75-1.55,1.24-3.8,4.75,1.55-1.24,3.8Zm2.47-7.61l-4.76-1.55,1.24-3.8,4.75,1.55-1.24,3.8Zm2.47-7.61l-4.75-1.55,1.24-3.8,4.75,1.55-1.24,3.8Zm2.47-7.61l-4.75-1.55,1.24-3.8,4.75,1.55-1.24,3.8Zm2.47-7.61l-4.75-1.55,1.24-3.8,4.75,1.55-1.24,3.8Zm2.47-7.61l-4.75-1.55,1.24-3.8,4.75,1.55-1.24,3.8Zm2.48-7.61l-4.76-1.55,1.24-3.8,4.75,1.55-1.24,3.8Zm2.47-7.61l-4.75-1.55,1.24-3.8,4.75,1.55-1.24,3.8Zm2.48-7.61l-4.76-1.54,1.24-3.8,4.76,1.55-1.24,3.8Zm2.47-7.61l-4.75-1.55,1.24-3.8,4.75,1.55-1.24,3.8Zm2.48-7.61l-4.76-1.55,1.24-3.8,4.76,1.55-1.24,3.8Zm2.47-7.61l-4.75-1.55,1.24-3.8,4.75,1.55-1.24,3.8Zm2.48-7.61l-4.76-1.55,1.24-3.8,4.76,1.55-1.24,3.8Zm2.47-7.61l-4.75-1.55,1.24-3.8,4.75,1.55-1.24,3.8Zm2.48-7.61l-4.76-1.54,1.24-3.8,4.76,1.54-1.24,3.8Zm2.47-7.61l-4.75-1.55,1.24-3.8,4.75,1.55-1.24,3.8Z"/>
  <path class="cls-2" d="m160.05,56.22c5.5,1.78,11.36,2.75,17.45,2.75s11.96-.97,17.45-2.75L177.5,2.5l-17.45,53.72Z"/>
  <path class="cls-2" d="m119.52,286.48c-10.42-14.32-27.2-22.87-44.87-22.87-5.86,0-11.63.91-17.16,2.71l-.62-1.9c5.73-1.86,11.71-2.81,17.78-2.81,18.31,0,35.69,8.86,46.49,23.69l-1.62,1.18Z"/>
  <rect class="cls-3" x="40.32" y="118.38" width="5" height="205.75" transform="translate(-66.33 24.09) rotate(-18.01)"/>
  <path class="cls-2" d="m281.31,320.39l-47.33-34.39.29-.4c7.04-9.67,17.15-17.03,28.48-20.71l.48-.15,18.08,55.66Zm-45.93-34.61l44.03,31.99-16.82-51.78c-10.78,3.61-20.41,10.62-27.21,19.79Z"/>
  <path class="cls-2" d="m281.31,320.39l-47.33-34.39.29-.4c7.04-9.67,17.15-17.03,28.48-20.71l.48-.15,18.08,55.66Zm-45.93-34.61l44.03,31.99-16.82-51.78c-10.78,3.61-20.41,10.62-27.21,19.79Z"/>
  <path class="cls-2" d="m240.97,290.46c5.98-8.22,14.47-14.49,24.35-17.7l-2.4-7.4c-11.45,3.72-21.3,11-28.23,20.53l6.28,4.57Z"/>
  <path class="cls-4" d="m177.5,355C79.63,355,0,275.37,0,177.5S79.63,0,177.5,0s177.5,79.63,177.5,177.5-79.63,177.5-177.5,177.5Zm0-350C82.38,5,5,82.38,5,177.5s77.38,172.5,172.5,172.5,172.5-77.38,172.5-172.5S272.62,5,177.5,5Z"/>
</svg>