<?xml version="1.0" encoding="UTF-8"?>
<svg id="Ebene_1" data-name="Ebene 1" xmlns="http://www.w3.org/2000/svg" viewBox="0 0 354.27 354.77">
  <defs>
    <style>
      .cls-1 {
        fill: none;
      }

      .cls-1, .cls-2, .cls-3, .cls-4, .cls-5 {
        stroke-width: 0px;
      }

      .cls-3 {
        fill: #c03b2d;
      }

      .cls-4 {
        fill: #30628b;
      }

      .cls-5 {
        fill: #f0c34e;
      }
    </style>
  </defs>
  <rect class="cls-5" x="219.88" y="133.66" width="131.89" height="218.11"/>
  <rect class="cls-5" x="1.77" y="1.77" width="218.11" height="131.89"/>
  <polygon class="cls-4" points="1.77 133.66 1.77 351.77 219.88 133.66 1.77 133.66"/>
  <polygon class="cls-3" points="219.88 1.77 348.14 1.77 219.88 130.03 219.88 1.77"/>
  <path class="cls-4" d="m312.43,44.61c10.07,10.1,23.98,16.35,39.34,16.35V5.16l-39.34,39.45Z"/>
  <path class="cls-5" d="m1.77,351.77h59.19c0-16.34-6.62-31.14-17.34-41.85L1.77,351.77Z"/>
  <path class="cls-3" d="m178.03,175.51c10.71,10.71,25.51,17.34,41.85,17.34v-59.19s-28.87,28.87-41.85,41.85Z"/>
  <path class="cls-2" d="m219.88,133.66h59.19c0-16.34-6.62-31.14-17.34-41.85-18.13,18.13-41.85,41.85-41.85,41.85Z"/>
  <rect class="cls-4" x="1.77" y="349.27" width="218.11" height="5"/>
  <rect class="cls-3" x="219.88" y="349.27" width="131.89" height="5"/>
  <rect class="cls-4" x="217.38" y="133.66" width="5" height="218.11"/>
  <rect class="cls-4" x="349.27" y="133.66" width="5" height="221.11"/>
  <rect class="cls-3" x="219.88" y="131.16" width="131.89" height="5"/>
  <rect class="cls-3" x="349.27" y=".77" width="5" height="134.61"/>
  <line class="cls-1" x1="351.77" y1="1.77" x2="219.88" y2="133.66"/>
  <line class="cls-1" x1="219.88" y1="133.66" x2="1.77" y2="351.77"/>
  <rect class="cls-2" x="-43.4" y="240.21" width="308.45" height="5" transform="translate(-139.16 149.45) rotate(-45)"/>
  <path class="cls-2" d="m221.65,135.43l-3.54-3.54,1.78-1.78,3.54,3.54-1.78,1.78Zm4.61-4.61l-3.54-3.54,2.83-2.83,3.54,3.54-2.83,2.83Zm5.66-5.66l-3.54-3.54,2.83-2.83,3.54,3.54-2.83,2.83Zm5.66-5.66l-3.54-3.54,2.83-2.83,3.54,3.54-2.83,2.83Zm5.66-5.66l-3.54-3.54,2.83-2.83,3.54,3.54-2.83,2.83Zm5.66-5.66l-3.54-3.54,2.83-2.83,3.54,3.54-2.83,2.83Zm5.66-5.66l-3.54-3.54,2.83-2.83,3.54,3.54-2.83,2.83Zm5.66-5.66l-3.54-3.54,2.83-2.83,3.54,3.54-2.83,2.83Zm5.66-5.66l-3.54-3.54,2.83-2.83,3.54,3.54-2.83,2.83Zm5.66-5.66l-3.54-3.54,2.83-2.83,3.54,3.54-2.83,2.83Zm5.66-5.66l-3.54-3.54,2.83-2.83,3.54,3.54-2.83,2.83Zm5.66-5.66l-3.54-3.54,2.83-2.83,3.54,3.54-2.83,2.83Zm5.66-5.66l-3.54-3.54,2.83-2.83,3.54,3.54-2.83,2.83Zm5.66-5.66l-3.54-3.54,2.83-2.83,3.54,3.54-2.83,2.83Zm5.66-5.66l-3.54-3.54,2.83-2.83,3.54,3.54-2.83,2.83Zm5.66-5.66l-3.54-3.54,2.83-2.83,3.54,3.54-2.83,2.83Zm5.66-5.66l-3.54-3.54,2.83-2.83,3.54,3.54-2.83,2.83Zm5.66-5.66l-3.54-3.54,2.83-2.83,3.54,3.54-2.83,2.83Zm5.66-5.66l-3.54-3.54,2.83-2.83,3.54,3.54-2.83,2.83Zm5.66-5.66l-3.54-3.54,2.83-2.83,3.54,3.54-2.83,2.83Zm5.66-5.66l-3.54-3.54,2.83-2.83,3.54,3.54-2.83,2.83Zm5.66-5.66l-3.54-3.54,2.83-2.83,3.54,3.54-2.83,2.83Zm5.66-5.66l-3.54-3.54,2.83-2.83,3.54,3.54-2.83,2.83Zm5.66-5.66l-3.54-3.54,2.83-2.83,3.54,3.54-2.83,2.83Z"/>
</svg>