<?xml version="1.0" encoding="utf-8"?>
<!-- Generator: Adobe Illustrator 27.9.0, SVG Export Plug-In . SVG Version: 6.00 Build 0)  -->
<svg version="1.1" id="Ebene_1" xmlns="http://www.w3.org/2000/svg" xmlns:xlink="http://www.w3.org/1999/xlink" x="0px" y="0px"
	 viewBox="0 0 288.5 352.5" style="enable-background:new 0 0 288.5 352.5;" xml:space="preserve">
<style type="text/css">
	.st0{fill:#F0C34E;}
	.st1{fill:#C03B2D;}
	.st2{fill:#30628B;}
	.st3{fill:none;}
</style>
<polyline class="st0" points="92.5,190.9 63.4,190.8 63.3,349.9 63.3,350 92.5,350 92.5,349.9 92.5,191.8 "/>
<polygon class="st1" points="286,63.5 158.5,0 95,127.4 137.3,148.5 "/>
<polygon class="st1" points="286,63.5 222.4,191 137.3,148.5 "/>
<path class="st0" d="M222.4,191l19.3-38.7c-5.8-2.9-12.3-4.5-19.2-4.5c-16.9,0-31.6,9.8-38.7,24C200.1,179.9,222.4,191,222.4,191z"
	/>
<polyline class="st2" points="97.5,190.9 133.1,190.9 133.1,190.9 222.3,350 97.5,350 97.5,349.9 97.5,191.8 "/>
<polyline class="st2" points="131.3,190.9 222.4,191 222.3,350 131.3,190.9 "/>
<rect x="12.1" y="107.9" transform="matrix(0.4462 -0.8949 0.8949 0.4462 -101.9651 121.876)" width="70.8" height="70.8"/>
<path class="st0" d="M222.4,233.9l0-43c0,0-26.1,0-43.1,0C179.4,214.7,198.7,233.9,222.4,233.9z"/>
<path d="M183.8,171.7c-2.9,5.8-4.5,12.2-4.5,19.1c0,0,0,0.1,0,0.1l43.1,0L183.8,171.7z"/>
<rect x="156.2" y="88" transform="matrix(0.4462 -0.8949 0.8949 0.4462 -54.5699 230.2059)" class="st2" width="5" height="142.4"/>
<rect x="63.4" y="188.4" class="st1" width="159" height="5"/>
<rect x="43.8" y="156.6" transform="matrix(0.4461 -0.895 0.895 0.4461 -98.5472 159.0253)" class="st0" width="70.8" height="5"/>
<line class="st3" x1="95" y1="127.4" x2="95" y2="349.9"/>
<path d="M97.5,347.4h-5v-4h5V347.4z M97.5,339.4h-5v-4h5V339.4z M97.5,331.4h-5v-4h5V331.4z M97.5,323.4h-5v-4h5V323.4z M97.5,315.4
	h-5v-4h5V315.4z M97.5,307.4h-5v-4h5V307.4z M97.5,299.4h-5v-4h5V299.4z M97.5,291.4h-5v-4h5V291.4z M97.5,283.4h-5v-4h5V283.4z
	 M97.5,275.4h-5v-4h5V275.4z M97.5,267.4h-5v-4h5V267.4z M97.5,259.4h-5v-4h5V259.4z M97.5,251.4h-5v-4h5V251.4z M97.5,243.4h-5v-4
	h5V243.4z M97.5,235.4h-5v-4h5V235.4z M97.5,227.4h-5v-4h5V227.4z M97.5,219.4h-5v-4h5V219.4z M97.5,211.4h-5v-4h5V211.4z
	 M97.5,203.4h-5v-4h5V203.4z M97.5,195.4h-5v-4h5V195.4z M97.5,187.4h-5v-4h5V187.4z M97.5,179.4h-5v-4h5V179.4z M97.5,171.4h-5v-4
	h5V171.4z M97.5,163.4h-5v-4h5V163.4z M97.5,155.4h-5v-4h5V155.4z M97.5,147.4h-5v-4h5V147.4z M97.5,139.4h-5v-4h5V139.4z
	 M97.5,131.4h-5v-4h5V131.4z"/>
<line class="st3" x1="286" y1="63.5" x2="222.4" y2="191"/>
<path class="st2" d="M226.7,192.9l-4.5-2.2l1.8-3.6l4.5,2.2L226.7,192.9z M230.3,185.8l-4.5-2.2l1.8-3.6l4.5,2.2L230.3,185.8z
	 M233.9,178.6l-4.5-2.2l1.8-3.6l4.5,2.2L233.9,178.6z M237.4,171.5l-4.5-2.2l1.8-3.6l4.5,2.2L237.4,171.5z M241,164.3l-4.5-2.2
	l1.8-3.6l4.5,2.2L241,164.3z M244.6,157.1l-4.5-2.2l1.8-3.6l4.5,2.2L244.6,157.1z M248.2,150l-4.5-2.2l1.8-3.6l4.5,2.2L248.2,150z
	 M251.7,142.8l-4.5-2.2l1.8-3.6l4.5,2.2L251.7,142.8z M255.3,135.7l-4.5-2.2l1.8-3.6l4.5,2.2L255.3,135.7z M258.9,128.5l-4.5-2.2
	l1.8-3.6l4.5,2.2L258.9,128.5z M262.4,121.3l-4.5-2.2l1.8-3.6l4.5,2.2L262.4,121.3z M266,114.2l-4.5-2.2l1.8-3.6l4.5,2.2L266,114.2z
	 M269.6,107l-4.5-2.2l1.8-3.6l4.5,2.2L269.6,107z M273.1,99.9l-4.5-2.2l1.8-3.6l4.5,2.2L273.1,99.9z M276.7,92.7l-4.5-2.2l1.8-3.6
	l4.5,2.2L276.7,92.7z M280.3,85.5l-4.5-2.2l1.8-3.6l4.5,2.2L280.3,85.5z M283.9,78.4l-4.5-2.2l1.8-3.6l4.5,2.2L283.9,78.4z
	 M287.4,71.2l-4.5-2.2l1.8-3.6l4.5,2.2L287.4,71.2z"/>
<line class="st3" x1="222.4" y1="191" x2="222.3" y2="350"/>
<path class="st1" d="M226.8,347l-5,0l0-4l5,0L226.8,347z M226.8,339l-5,0l0-4l5,0L226.8,339z M226.8,331l-5,0l0-4l5,0L226.8,331z
	 M226.8,323l-5,0l0-4l5,0L226.8,323z M226.8,315l-5,0l0-4l5,0L226.8,315z M226.8,307l-5,0l0-4l5,0L226.8,307z M226.8,299l-5,0l0-4
	l5,0L226.8,299z M226.8,291l-5,0l0-4l5,0L226.8,291z M226.9,283l-5,0l0-4l5,0L226.9,283z M226.9,275l-5,0l0-4l5,0L226.9,275z
	 M226.9,267l-5,0l0-4l5,0L226.9,267z M226.9,259l-5,0l0-4l5,0L226.9,259z M226.9,251l-5,0l0-4l5,0L226.9,251z M226.9,243l-5,0l0-4
	l5,0L226.9,243z M226.9,235l-5,0l0-4l5,0L226.9,235z M226.9,227l-5,0l0-4l5,0L226.9,227z M226.9,219l-5,0l0-4l5,0L226.9,219z
	 M226.9,211l-5,0l0-4l5,0L226.9,211z M226.9,203l-5,0l0-4l5,0L226.9,203z M226.9,195l-5,0l0-4l5,0L226.9,195z"/>
<rect x="156.2" y="110.5" transform="matrix(0.8681 -0.4965 0.4965 0.8681 -97.5789 110.2606)" width="5" height="256.4"/>
<rect x="46.5" y="124.7" transform="matrix(0.868 -0.4965 0.4965 0.868 -40.0933 103.5184)" width="256.4" height="5"/>
</svg>
