<?xml version="1.0" encoding="UTF-8"?>
<svg id="Ebene_1" data-name="Ebene 1" xmlns="http://www.w3.org/2000/svg" viewBox="0 0 631 561">
  <rect width="631" height="561" fill="#fbf2d8"/>
  <g>
    <rect x="132.31" y="7.73" width="54.53" height="54.53" fill="#f0c34e"/>
    <path d="M188.4,63.82h-57.64V6.18h57.64v57.64ZM133.86,60.71h51.43V9.29h-51.43v51.43Z"/>
  </g>
  <g>
    <rect x="187.5" y="7.73" width="54.53" height="54.53" fill="#f0c34e"/>
    <path d="M243.58,63.82h-57.64V6.18h57.64v57.64ZM189.05,60.71h51.43V9.29h-51.43v51.43Z"/>
  </g>
  <g>
    <rect x="242.68" y="7.73" width="54.53" height="54.53" fill="#f0c34e"/>
    <path d="M298.77,63.82h-57.64V6.18h57.64v57.64ZM244.24,60.71h51.43V9.29h-51.43v51.43Z"/>
  </g>
  <g>
    <rect x="297.87" y="7.73" width="54.53" height="54.53" fill="#f0c34e"/>
    <path d="M353.96,63.82h-57.64V6.18h57.64v57.64ZM299.42,60.71h51.43V9.29h-51.43v51.43Z"/>
  </g>
  <g>
    <rect x="353.06" y="7.73" width="54.53" height="54.53" fill="#f0c34e"/>
    <path d="M409.15,63.82h-57.64V6.18h57.64v57.64ZM354.61,60.71h51.43V9.29h-51.43v51.43Z"/>
  </g>
  <g>
    <rect x="408.25" y="7.73" width="54.53" height="54.53" fill="#f0c34e"/>
    <path d="M464.33,63.82h-57.64V6.18h57.64v57.64ZM409.8,60.71h51.43V9.29h-51.43v51.43Z"/>
  </g>
  <g>
    <rect x="132.31" y="61.5" width="54.53" height="54.53" fill="#f0c34e"/>
    <path d="M188.4,117.59h-57.64v-57.64h57.64v57.64ZM133.86,114.49h51.43v-51.43h-51.43v51.43Z"/>
  </g>
  <g>
    <rect x="187.5" y="61.5" width="54.53" height="54.53" fill="#f0c34e"/>
    <path d="M243.58,117.59h-57.64v-57.64h57.64v57.64ZM189.05,114.49h51.43v-51.43h-51.43v51.43Z"/>
  </g>
  <g>
    <rect x="242.68" y="61.5" width="54.53" height="54.53" fill="#f0c34e"/>
    <path d="M298.77,117.59h-57.64v-57.64h57.64v57.64ZM244.24,114.49h51.43v-51.43h-51.43v51.43Z"/>
  </g>
  <g>
    <rect x="297.87" y="61.5" width="54.53" height="54.53" fill="#f0c34e"/>
    <path d="M353.96,117.59h-57.64v-57.64h57.64v57.64ZM299.42,114.49h51.43v-51.43h-51.43v51.43Z"/>
  </g>
  <g>
    <rect x="353.06" y="61.5" width="54.53" height="54.53" fill="#f0c34e"/>
    <path d="M409.15,117.59h-57.64v-57.64h57.64v57.64ZM354.61,114.49h51.43v-51.43h-51.43v51.43Z"/>
  </g>
  <g>
    <rect x="408.25" y="61.5" width="54.53" height="54.53" fill="#f0c34e"/>
    <path d="M464.33,117.59h-57.64v-57.64h57.64v57.64ZM409.8,114.49h51.43v-51.43h-51.43v51.43Z"/>
  </g>
  <g>
    <rect x="132.31" y="116.69" width="54.53" height="54.53" fill="#f0c34e"/>
    <path d="M188.4,172.78h-57.64v-57.64h57.64v57.64ZM133.86,169.67h51.43v-51.43h-51.43v51.43Z"/>
  </g>
  <g>
    <rect x="187.5" y="116.69" width="54.53" height="54.53" fill="#f0c34e"/>
    <path d="M243.58,172.78h-57.64v-57.64h57.64v57.64ZM189.05,169.67h51.43v-51.43h-51.43v51.43Z"/>
  </g>
  <g>
    <rect x="242.68" y="116.69" width="54.53" height="54.53" fill="#f0c34e"/>
    <path d="M298.77,172.78h-57.64v-57.64h57.64v57.64ZM244.24,169.67h51.43v-51.43h-51.43v51.43Z"/>
  </g>
  <g>
    <rect x="297.87" y="116.69" width="54.53" height="54.53" fill="#f0c34e"/>
    <path d="M353.96,172.78h-57.64v-57.64h57.64v57.64ZM299.42,169.67h51.43v-51.43h-51.43v51.43Z"/>
  </g>
  <g>
    <rect x="353.06" y="116.69" width="54.53" height="54.53" fill="#f0c34e"/>
    <path d="M409.15,172.78h-57.64v-57.64h57.64v57.64ZM354.61,169.67h51.43v-51.43h-51.43v51.43Z"/>
  </g>
  <g>
    <rect x="408.25" y="116.69" width="54.53" height="54.53" fill="#f0c34e"/>
    <path d="M464.33,172.78h-57.64v-57.64h57.64v57.64ZM409.8,169.67h51.43v-51.43h-51.43v51.43Z"/>
  </g>
  <g>
    <rect x="132.31" y="170.46" width="54.53" height="54.53" fill="#f0c34e"/>
    <path d="M188.4,226.55h-57.64v-57.64h57.64v57.64ZM133.86,223.45h51.43v-51.43h-51.43v51.43Z"/>
  </g>
  <g>
    <rect x="187.5" y="170.46" width="54.53" height="54.53" fill="#f0c34e"/>
    <path d="M243.58,226.55h-57.64v-57.64h57.64v57.64ZM189.05,223.45h51.43v-51.43h-51.43v51.43Z"/>
  </g>
  <g>
    <rect x="242.68" y="170.46" width="54.53" height="54.53" fill="#f0c34e"/>
    <path d="M298.77,226.55h-57.64v-57.64h57.64v57.64ZM244.24,223.45h51.43v-51.43h-51.43v51.43Z"/>
  </g>
  <g>
    <rect x="297.87" y="170.46" width="54.53" height="54.53" fill="#f0c34e"/>
    <path d="M353.96,226.55h-57.64v-57.64h57.64v57.64ZM299.42,223.45h51.43v-51.43h-51.43v51.43Z"/>
  </g>
  <g>
    <rect x="353.06" y="170.46" width="54.53" height="54.53" fill="#f0c34e"/>
    <path d="M409.15,226.55h-57.64v-57.64h57.64v57.64ZM354.61,223.45h51.43v-51.43h-51.43v51.43Z"/>
  </g>
  <g>
    <rect x="408.25" y="170.46" width="54.53" height="54.53" fill="#f0c34e"/>
    <path d="M464.33,226.55h-57.64v-57.64h57.64v57.64ZM409.8,223.45h51.43v-51.43h-51.43v51.43Z"/>
  </g>
  <g>
    <rect x="132.31" y="225.46" width="54.53" height="54.53" fill="#f0c34e"/>
    <path d="M188.4,281.55h-57.64v-57.64h57.64v57.64ZM133.86,278.45h51.43v-51.43h-51.43v51.43Z"/>
  </g>
  <g>
    <rect x="187.5" y="225.46" width="54.53" height="54.53" fill="#f0c34e"/>
    <path d="M243.58,281.55h-57.64v-57.64h57.64v57.64ZM189.05,278.45h51.43v-51.43h-51.43v51.43Z"/>
  </g>
  <g>
    <rect x="21.31" y="7.73" width="54.53" height="54.53" fill="#f0c34e"/>
    <path d="M77.4,63.82H19.76V6.18h57.64v57.64ZM22.86,60.71h51.43V9.29H22.86v51.43Z"/>
  </g>
  <g>
    <rect x="76.5" y="7.73" width="54.53" height="54.53" fill="#f0c34e"/>
    <path d="M132.58,63.82h-57.64V6.18h57.64v57.64ZM78.05,60.71h51.43V9.29h-51.43v51.43Z"/>
  </g>
  <g>
    <rect x="21.31" y="61.5" width="54.53" height="54.53" fill="#f0c34e"/>
    <path d="M77.4,117.59H19.76v-57.64h57.64v57.64ZM22.86,114.49h51.43v-51.43H22.86v51.43Z"/>
  </g>
  <g>
    <rect x="76.5" y="61.5" width="54.53" height="54.53" fill="#f0c34e"/>
    <path d="M132.58,117.59h-57.64v-57.64h57.64v57.64ZM78.05,114.49h51.43v-51.43h-51.43v51.43Z"/>
  </g>
  <g>
    <rect x="21.31" y="116.69" width="54.53" height="54.53" fill="#f0c34e"/>
    <path d="M77.4,172.78H19.76v-57.64h57.64v57.64ZM22.86,169.67h51.43v-51.43H22.86v51.43Z"/>
  </g>
  <g>
    <rect x="76.5" y="116.69" width="54.53" height="54.53" fill="#f0c34e"/>
    <path d="M132.58,172.78h-57.64v-57.64h57.64v57.64ZM78.05,169.67h51.43v-51.43h-51.43v51.43Z"/>
  </g>
  <g>
    <rect x="21.31" y="170.46" width="54.53" height="54.53" fill="#f0c34e"/>
    <path d="M77.4,226.55H19.76v-57.64h57.64v57.64ZM22.86,223.45h51.43v-51.43H22.86v51.43Z"/>
  </g>
  <g>
    <rect x="76.5" y="170.46" width="54.53" height="54.53" fill="#f0c34e"/>
    <path d="M132.58,226.55h-57.64v-57.64h57.64v57.64ZM78.05,223.45h51.43v-51.43h-51.43v51.43Z"/>
  </g>
  <g>
    <rect x="21.31" y="225.46" width="54.53" height="54.53" fill="#f0c34e"/>
    <path d="M77.4,281.55H19.76v-57.64h57.64v57.64ZM22.86,278.45h51.43v-51.43H22.86v51.43Z"/>
  </g>
  <g>
    <rect x="76.5" y="225.46" width="54.53" height="54.53" fill="#f0c34e"/>
    <path d="M132.58,281.55h-57.64v-57.64h57.64v57.64ZM78.05,278.45h51.43v-51.43h-51.43v51.43Z"/>
  </g>
  <g>
    <rect x="242.68" y="225.46" width="54.53" height="54.53" fill="#f0c34e"/>
    <path d="M298.77,281.55h-57.64v-57.64h57.64v57.64ZM244.24,278.45h51.43v-51.43h-51.43v51.43Z"/>
  </g>
  <g>
    <rect x="297.87" y="225.46" width="54.53" height="54.53" fill="#f0c34e"/>
    <path d="M353.96,281.55h-57.64v-57.64h57.64v57.64ZM299.42,278.45h51.43v-51.43h-51.43v51.43Z"/>
  </g>
  <g>
    <rect x="353.06" y="225.46" width="54.53" height="54.53" fill="#f0c34e"/>
    <path d="M409.15,281.55h-57.64v-57.64h57.64v57.64ZM354.61,278.45h51.43v-51.43h-51.43v51.43Z"/>
  </g>
  <g>
    <rect x="408.25" y="225.46" width="54.53" height="54.53" fill="#f0c34e"/>
    <path d="M464.33,281.55h-57.64v-57.64h57.64v57.64ZM409.8,278.45h51.43v-51.43h-51.43v51.43Z"/>
  </g>
  <g>
    <rect x="463.25" y="7.73" width="54.53" height="54.53" fill="#f0c34e"/>
    <path d="M519.33,63.82h-57.64V6.18h57.64v57.64ZM464.8,60.71h51.43V9.29h-51.43v51.43Z"/>
  </g>
  <g>
    <rect x="463.25" y="61.5" width="54.53" height="54.53" fill="#f0c34e"/>
    <path d="M519.33,117.59h-57.64v-57.64h57.64v57.64ZM464.8,114.49h51.43v-51.43h-51.43v51.43Z"/>
  </g>
  <g>
    <rect x="463.25" y="116.69" width="54.53" height="54.53" fill="#f0c34e"/>
    <path d="M519.33,172.78h-57.64v-57.64h57.64v57.64ZM464.8,169.67h51.43v-51.43h-51.43v51.43Z"/>
  </g>
  <g>
    <rect x="463.25" y="170.46" width="54.53" height="54.53" fill="#f0c34e"/>
    <path d="M519.33,226.55h-57.64v-57.64h57.64v57.64ZM464.8,223.45h51.43v-51.43h-51.43v51.43Z"/>
  </g>
  <g>
    <rect x="463.25" y="225.46" width="54.53" height="54.53" fill="#f0c34e"/>
    <path d="M519.33,281.55h-57.64v-57.64h57.64v57.64ZM464.8,278.45h51.43v-51.43h-51.43v51.43Z"/>
  </g>
  <g>
    <path d="M9.56,503.31c0-2.16.28-4.43.84-6.81.56-2.38,1.39-4.77,2.48-7.17s2.57-4.72,4.44-6.96c1.87-2.24,3.99-4.14,6.36-5.7.4-.3.76-.45,1.07-.45.46,0,.68.18.68.53,0,.1-.04.21-.12.33-.08.12-.16.21-.24.28-.08.07-.2.17-.37.3-.17.13-.26.21-.29.23-2.62,2.27-4.86,5.17-6.71,8.72-1.85,3.55-3.16,6.92-3.92,10.12-.77,3.2-1.15,6.16-1.15,8.88,0,1.5.13,2.89.4,4.17.27,1.28.55,2.24.84,2.86s.61,1.22.94,1.8c.33.57.51.88.54.94.08.18.06.36-.06.54s-.29.26-.53.26h-.04c-.23,0-.56-.18-.98-.54-.42-.36-.87-.91-1.36-1.64-.49-.74-.95-1.6-1.37-2.58-.42-.98-.77-2.2-1.05-3.63-.28-1.44-.42-2.93-.42-4.48Z"/>
    <path d="M24.72,504.89c0-.23.05-.57.16-1l5.25-21.22c.3-1.13.49-1.89.56-2.28-.58-.04-1.02-.07-1.32-.07h-.16c-.83,0-1.26-.24-1.27-.71,0-.43.21-.7.65-.81.43-.11,1.38-.19,2.85-.23,1.02-.05,1.86-.09,2.52-.12.03,0,.08,0,.18-.02.09-.01.16-.02.21-.02.64,0,.97.27.97.8l-.12.59-3.83,15.41c.74-.51,1.58-1.22,2.52-2.14s1.73-1.73,2.39-2.42c.66-.7,1.45-1.33,2.36-1.88.91-.56,1.83-.84,2.76-.84,1.01,0,1.72.33,2.14.99.42.66.63,1.38.63,2.18,0,1.2-.3,2.08-.91,2.64-.61.56-1.27.84-2,.84-.56,0-1.02-.17-1.39-.49-.37-.33-.55-.77-.55-1.33,0-.61.22-1.2.67-1.78.45-.58,1.1-.92,1.96-1.03-.21-.35-.46-.52-.76-.52-.94,0-1.89.39-2.87,1.16-.98.77-2.04,1.77-3.19,2.98s-2.06,2.07-2.75,2.58v.04c4.1.46,6.15,1.86,6.15,4.22,0,.34-.05.87-.14,1.6-.09.73-.14,1.35-.14,1.86,0,.86.27,1.29.8,1.29.61,0,1.13-.39,1.57-1.16.44-.78.77-1.62.99-2.52.22-.91.38-1.4.47-1.47.17-.18.57-.28,1.2-.29.66,0,.99.21.99.64,0,.18-.11.58-.33,1.2-.22.62-.53,1.32-.93,2.1s-.99,1.47-1.75,2.08c-.76.61-1.6.91-2.51.91-1.17,0-2.22-.37-3.15-1.1-.93-.74-1.39-1.74-1.39-3.02,0-.21.03-.53.1-.98.06-.44.1-.78.1-1,0-1.45-1.22-2.42-3.66-2.91-1.09,4.78-1.82,7.43-2.2,7.95-.56.69-1.23,1.04-2,1.05-.51,0-.95-.16-1.31-.49-.36-.33-.54-.74-.54-1.25Z"/>
    <path d="M49.07,496.16c0-.5.43-.74,1.29-.74h12.25l2.96-11.88.06-.24c.03-.11.05-.19.08-.24.02-.05.05-.13.08-.23.03-.1.05-.18.08-.24.02-.05.07-.11.12-.19.06-.07.11-.13.16-.17.05-.04.11-.07.17-.1.06-.03.13-.04.21-.04.2,0,.37.09.5.26.13.17.19.38.16.61,0,.15-.2,1.04-.6,2.64-.4,1.6-.86,3.43-1.37,5.48s-.87,3.49-1.09,4.33h11.86c.86,0,1.29.25,1.28.74,0,.49-.42.74-1.24.74h-12.27c-.16.69-.29,1.21-.38,1.53l-2.6,10.38-.06.24c-.03.11-.05.19-.08.24-.02.05-.05.13-.08.23-.03.1-.05.18-.08.23-.03.05-.06.11-.11.18-.05.07-.1.12-.15.16-.05.04-.11.07-.18.09-.07.03-.14.04-.22.04-.42,0-.63-.25-.63-.75,0-.23.06-.55.18-.97l2.89-11.6h-11.95c-.81,0-1.21-.25-1.21-.74Z"/>
    <path d="M82,502.66c0-.48.11-1.08.33-1.8l4.4-17.71c.07-.26.16-.66.29-1.18.13-.52.23-.93.3-1.22-.23-.03-.53-.04-.88-.04s-.62,0-.79-.02c-.18-.01-.35-.05-.52-.1-.17-.05-.3-.14-.38-.26-.08-.12-.13-.29-.13-.51,0-.46.15-.78.45-.97.1-.08.65-.15,1.64-.22.99-.06,1.95-.11,2.88-.14l1.41-.08c.64,0,.96.27.96.81,0,.13-.03.3-.08.5l-5.35,21.53c-.34,1.27-.5,2.17-.5,2.67,0,.79.24,1.2.72,1.21.51,0,.95-.38,1.32-1.14s.68-1.6.92-2.5c.24-.91.39-1.4.44-1.47.15-.21.46-.32.91-.33.76,0,1.15.21,1.16.64,0,.18-.09.57-.26,1.15s-.43,1.29-.78,2.1c-.34.81-.86,1.52-1.56,2.13-.69.61-1.46.91-2.31.91-1.2,0-2.27-.36-3.2-1.08s-1.41-1.68-1.41-2.88Z"/>
    <path d="M91.3,515.65c0-.23.29-.59.86-1.07,2.18-1.86,4.09-4.12,5.72-6.76,1.63-2.64,2.87-5.28,3.71-7.92.84-2.64,1.47-5.06,1.87-7.28.4-2.21.6-4.17.6-5.88,0-1.52-.13-2.93-.4-4.21-.27-1.28-.55-2.24-.85-2.86-.3-.62-.62-1.22-.95-1.78-.33-.56-.51-.87-.54-.92-.08-.18-.06-.36.07-.52.12-.16.3-.24.54-.24s.56.17.98.52c.42.34.87.89,1.36,1.64.49.75.95,1.61,1.38,2.58.42.97.78,2.18,1.07,3.62s.43,2.94.43,4.47c0,2.16-.28,4.44-.84,6.83-.56,2.39-1.39,4.79-2.5,7.19-1.11,2.4-2.6,4.73-4.48,6.98-1.88,2.25-4.01,4.17-6.38,5.74-.35.26-.68.39-.98.39-.44,0-.66-.18-.66-.53Z"/>
    <path d="M115.91,503.31c0-2.16.28-4.43.84-6.81.56-2.38,1.39-4.77,2.48-7.17s2.57-4.72,4.44-6.96c1.87-2.24,3.99-4.14,6.36-5.7.4-.3.76-.45,1.07-.45.46,0,.68.18.68.53,0,.1-.04.21-.12.33-.08.12-.16.21-.24.28-.08.07-.2.17-.37.3-.17.13-.26.21-.29.23-2.62,2.27-4.86,5.17-6.71,8.72-1.85,3.55-3.16,6.92-3.92,10.12-.77,3.2-1.15,6.16-1.15,8.88,0,1.5.13,2.89.4,4.17.27,1.28.55,2.24.84,2.86s.61,1.22.94,1.8c.33.57.51.88.54.94.08.18.06.36-.06.54s-.29.26-.53.26h-.04c-.23,0-.56-.18-.98-.54-.42-.36-.87-.91-1.36-1.64-.49-.74-.95-1.6-1.37-2.58-.42-.98-.77-2.2-1.05-3.63-.28-1.44-.42-2.93-.42-4.48Z"/>
    <path d="M131.18,494.22c0-.08.04-.31.14-.7s.25-.91.49-1.54c.24-.64.53-1.25.89-1.84.35-.59.83-1.09,1.44-1.52s1.27-.64,1.99-.64c.82,0,1.66.21,2.54.64.88.43,1.49,1.15,1.84,2.17,1.83-1.89,3.88-2.84,6.15-2.85,2.95,0,4.73,1.04,5.33,3.12,1.98-2.08,4.15-3.12,6.49-3.12,1.52,0,2.8.35,3.86,1.04,1.06.7,1.58,1.87,1.58,3.53,0,1.33-.54,3.51-1.62,6.55-1.08,3.04-1.62,4.83-1.62,5.36,0,.48.21.72.63.72.56,0,1.08-.26,1.56-.78.48-.52.85-1.08,1.1-1.68.25-.6.48-1.19.69-1.78s.33-.89.35-.92c.13-.18.41-.28.84-.29h.41c.53,0,.8.23.8.68,0,.23-.13.67-.38,1.3-.25.63-.61,1.32-1.08,2.08-.47.75-1.11,1.42-1.94,2-.83.58-1.71.87-2.66.87-1.15,0-2.13-.34-2.95-1.01-.82-.67-1.22-1.54-1.22-2.61,0-.43.51-2.09,1.52-4.98s1.52-5.03,1.52-6.41c0-1.47-.6-2.21-1.81-2.21-1.92,0-3.61,1-5.08,2.99-.56.77-.93,1.54-1.11,2.32-1.71,6.77-2.59,10.23-2.66,10.37-.45,1.02-1.22,1.52-2.29,1.52-.5,0-.92-.16-1.25-.47-.33-.31-.5-.72-.5-1.21,0-.38.49-2.47,1.47-6.29.98-3.82,1.47-6.15,1.47-6.99,0-1.5-.58-2.25-1.75-2.25-2.14,0-3.99,1.18-5.54,3.54-.26.4-.52,1.06-.76,1.96-1.63,6.52-2.49,9.9-2.59,10.14-.42,1.04-1.18,1.56-2.26,1.56-.5,0-.92-.16-1.26-.47-.34-.31-.52-.72-.52-1.21,0-.21.05-.71.16-1.48l2.51-10.12c0-.05.06-.25.18-.6.12-.35.22-.71.3-1.07.08-.37.11-.7.11-1,0-.81-.26-1.22-.79-1.22-.47,0-.9.38-1.28,1.14-.38.76-.68,1.59-.92,2.5-.24.9-.38,1.38-.43,1.44-.16.23-.42.35-.8.35h-.33c-.62,0-.94-.22-.94-.66Z"/>
    <path d="M171.91,496.16c0-.5.43-.74,1.29-.74h12.25l2.96-11.88.06-.24c.03-.11.05-.19.08-.24.02-.05.05-.13.08-.23.03-.1.05-.18.08-.24.02-.05.07-.11.12-.19.06-.07.11-.13.16-.17.05-.04.11-.07.17-.1.06-.03.13-.04.21-.04.2,0,.37.09.5.26.13.17.19.38.16.61,0,.15-.2,1.04-.6,2.64-.4,1.6-.86,3.43-1.37,5.48s-.87,3.49-1.09,4.33h11.86c.86,0,1.29.25,1.28.74,0,.49-.42.74-1.24.74h-12.27c-.16.69-.29,1.21-.38,1.53l-2.6,10.38-.06.24c-.03.11-.05.19-.08.24-.02.05-.05.13-.08.23-.03.1-.05.18-.08.23-.03.05-.06.11-.11.18-.05.07-.1.12-.15.16-.05.04-.11.07-.18.09-.07.03-.14.04-.22.04-.42,0-.63-.25-.63-.75,0-.23.06-.55.18-.97l2.89-11.6h-11.95c-.81,0-1.21-.25-1.21-.74Z"/>
    <path d="M204.33,494.22c0-.08.05-.31.14-.7.09-.39.26-.91.5-1.54.24-.64.54-1.25.9-1.84.36-.59.84-1.09,1.46-1.52.61-.43,1.28-.64,2.01-.64.82,0,1.67.21,2.55.64s1.49,1.15,1.85,2.17c1.83-1.89,3.86-2.84,6.09-2.85,1.7,0,3.05.37,4.05,1.1,1,.74,1.5,1.89,1.5,3.47,0,1.33-.55,3.52-1.64,6.57-1.09,3.05-1.64,4.82-1.64,5.3,0,.51.21.76.63.76.64,0,1.26-.38,1.87-1.13.56-.69,1-1.53,1.32-2.51.32-.98.54-1.53.67-1.65.21-.13.52-.2.94-.2.66,0,1,.23,1.01.68,0,.4-.21,1.07-.63,2-.42.93-1.14,1.88-2.15,2.84-1.01.96-2.13,1.45-3.36,1.45-1.09,0-2.06-.32-2.89-.97-.84-.64-1.26-1.53-1.26-2.65,0-.48.51-2.13,1.54-4.94,1.03-2.81,1.54-4.95,1.54-6.41s-.61-2.25-1.84-2.25c-1.99,0-3.74,1.11-5.24,3.33-.4.59-.71,1.32-.93,2.21-1.34,5.25-2.11,8.26-2.31,9.03s-.4,1.29-.61,1.55c-.51.71-1.19,1.07-2.03,1.09-.48,0-.91-.16-1.27-.47-.36-.31-.55-.72-.55-1.21,0-.18.07-.57.21-1.17l2.51-10.08c.38-1.55.56-2.56.55-3.05,0-.79-.25-1.19-.76-1.19s-.94.38-1.32,1.14-.68,1.59-.92,2.5c-.24.9-.39,1.4-.44,1.47-.16.21-.51.31-1.07.31h-.06c-.62,0-.94-.22-.94-.66Z"/>
    <path d="M228.25,515.65c0-.23.29-.59.86-1.07,2.18-1.86,4.09-4.12,5.72-6.76,1.63-2.64,2.87-5.28,3.71-7.92.84-2.64,1.47-5.06,1.87-7.28.4-2.21.6-4.17.6-5.88,0-1.52-.13-2.93-.4-4.21-.27-1.28-.55-2.24-.85-2.86-.3-.62-.62-1.22-.95-1.78-.33-.56-.51-.87-.54-.92-.08-.18-.06-.36.07-.52.12-.16.3-.24.54-.24s.56.17.98.52c.42.34.87.89,1.36,1.64.49.75.95,1.61,1.38,2.58.42.97.78,2.18,1.07,3.62s.43,2.94.43,4.47c0,2.16-.28,4.44-.84,6.83-.56,2.39-1.39,4.79-2.5,7.19-1.11,2.4-2.6,4.73-4.48,6.98-1.88,2.25-4.01,4.17-6.38,5.74-.35.26-.68.39-.98.39-.44,0-.66-.18-.66-.53Z"/>
    <path d="M267.65,500.61c0-.48.38-.72,1.15-.72h25.33c.72,0,1.17.06,1.35.18.21.13.32.31.33.55,0,.18-.09.35-.28.52-.19.16-.45.24-.77.24h-26c-.74,0-1.11-.25-1.11-.76ZM269.89,491.72c0-.5.38-.74,1.15-.74h25.49c.99,0,1.48.25,1.47.74,0,.49-.34.74-1.01.74h-26c-.74,0-1.11-.25-1.11-.74Z"/>
    <path d="M317.59,504.89c0-.23.05-.57.16-1l5.25-21.22c.3-1.13.49-1.89.56-2.28-.58-.04-1.02-.07-1.32-.07h-.16c-.83,0-1.26-.24-1.27-.71,0-.43.21-.7.65-.81.43-.11,1.38-.19,2.85-.23,1.02-.05,1.86-.09,2.52-.12.03,0,.08,0,.18-.02.09-.01.16-.02.21-.02.64,0,.97.27.97.8l-.12.59-3.83,15.41c.74-.51,1.58-1.22,2.52-2.14.93-.92,1.73-1.73,2.39-2.42.66-.7,1.45-1.33,2.36-1.88.91-.56,1.83-.84,2.76-.84,1.01,0,1.72.33,2.14.99.42.66.63,1.38.63,2.18,0,1.2-.3,2.08-.91,2.64-.61.56-1.27.84-2,.84-.55,0-1.02-.17-1.38-.49-.37-.33-.55-.77-.55-1.33,0-.61.22-1.2.67-1.78s1.1-.92,1.96-1.03c-.21-.35-.46-.52-.76-.52-.94,0-1.89.39-2.87,1.16-.98.77-2.04,1.77-3.19,2.98-1.14,1.21-2.06,2.07-2.75,2.58v.04c4.1.46,6.15,1.86,6.15,4.22,0,.34-.05.87-.14,1.6-.09.73-.14,1.35-.14,1.86,0,.86.27,1.29.8,1.29.61,0,1.13-.39,1.57-1.16.44-.78.77-1.62.99-2.52.22-.91.38-1.4.47-1.47.17-.18.57-.28,1.2-.29.66,0,.99.21.99.64,0,.18-.11.58-.33,1.2-.22.62-.53,1.32-.93,2.1s-.99,1.47-1.75,2.08c-.76.61-1.6.91-2.51.91-1.17,0-2.22-.37-3.15-1.1-.93-.74-1.39-1.74-1.39-3.02,0-.21.03-.53.1-.98.06-.44.1-.78.1-1,0-1.45-1.22-2.42-3.66-2.91-1.09,4.78-1.82,7.43-2.2,7.95-.56.69-1.23,1.04-2,1.05-.51,0-.95-.16-1.31-.49-.36-.33-.54-.74-.54-1.25Z"/>
    <path d="M338.98,494.22c0-.08.04-.31.13-.7.09-.39.25-.91.49-1.54.24-.64.53-1.25.89-1.84.35-.59.83-1.09,1.44-1.52s1.27-.64,1.99-.64c.82,0,1.66.21,2.54.64.88.43,1.49,1.15,1.84,2.17,1.83-1.89,3.88-2.84,6.15-2.85,2.95,0,4.73,1.04,5.33,3.12,1.98-2.08,4.15-3.12,6.49-3.12,1.52,0,2.8.35,3.86,1.04,1.06.7,1.58,1.87,1.58,3.53,0,1.33-.54,3.51-1.62,6.55-1.08,3.04-1.62,4.83-1.62,5.36,0,.48.21.72.63.72.56,0,1.08-.26,1.56-.78.48-.52.85-1.08,1.1-1.68.25-.6.49-1.19.69-1.78.21-.59.33-.89.35-.92.13-.18.41-.28.84-.29h.41c.53,0,.8.23.8.68,0,.23-.13.67-.38,1.3-.25.63-.61,1.32-1.08,2.08-.47.75-1.12,1.42-1.94,2-.83.58-1.71.87-2.66.87-1.15,0-2.13-.34-2.95-1.01-.81-.67-1.22-1.54-1.22-2.61,0-.43.51-2.09,1.52-4.98s1.52-5.03,1.52-6.41c0-1.47-.6-2.21-1.81-2.21-1.92,0-3.61,1-5.08,2.99-.56.77-.93,1.54-1.11,2.32-1.71,6.77-2.59,10.23-2.66,10.37-.45,1.02-1.22,1.52-2.29,1.52-.5,0-.92-.16-1.25-.47-.33-.31-.5-.72-.5-1.21,0-.38.49-2.47,1.47-6.29.98-3.82,1.47-6.15,1.47-6.99,0-1.5-.58-2.25-1.75-2.25-2.14,0-3.99,1.18-5.54,3.54-.26.4-.52,1.06-.76,1.96-1.62,6.52-2.49,9.9-2.59,10.14-.42,1.04-1.18,1.56-2.26,1.56-.5,0-.92-.16-1.26-.47-.35-.31-.52-.72-.52-1.21,0-.21.05-.71.16-1.48l2.51-10.12c0-.05.06-.25.18-.6.12-.35.22-.71.3-1.07.08-.37.11-.7.11-1,0-.81-.26-1.22-.79-1.22-.47,0-.9.38-1.28,1.14-.38.76-.68,1.59-.92,2.5-.24.9-.38,1.38-.43,1.44-.16.23-.42.35-.8.35h-.33c-.62,0-.94-.22-.94-.66Z"/>
    <path d="M379.7,496.16c0-.5.43-.74,1.29-.74h12.25l2.96-11.88c.01-.05.03-.13.06-.24s.05-.19.08-.24c.03-.05.05-.13.08-.23.03-.1.05-.18.08-.24.02-.05.07-.11.12-.19.06-.07.11-.13.16-.17s.11-.07.17-.1c.06-.03.13-.04.21-.04.2,0,.37.09.5.26.13.17.19.38.16.61,0,.15-.2,1.04-.6,2.64-.4,1.6-.86,3.43-1.37,5.48-.51,2.05-.88,3.49-1.09,4.33h11.86c.86,0,1.29.25,1.28.74,0,.49-.42.74-1.24.74h-12.27c-.16.69-.29,1.21-.38,1.53l-2.6,10.38c-.01.05-.03.13-.06.24s-.05.19-.08.24c-.02.05-.05.13-.08.23-.03.1-.05.18-.08.23-.03.05-.06.11-.11.18-.05.07-.1.12-.15.16-.05.04-.11.07-.18.09s-.14.04-.22.04c-.42,0-.63-.25-.63-.75,0-.23.06-.55.18-.97l2.89-11.6h-11.95c-.81,0-1.21-.25-1.21-.74Z"/>
    <path d="M412,504.89c0-.23.05-.57.16-1l5.25-21.22c.3-1.13.49-1.89.56-2.28-.58-.04-1.02-.07-1.32-.07h-.16c-.83,0-1.26-.24-1.27-.71,0-.43.21-.7.65-.81.43-.11,1.38-.19,2.85-.23,1.02-.05,1.86-.09,2.52-.12.03,0,.08,0,.18-.02.09-.01.16-.02.21-.02.64,0,.97.27.97.8l-.12.59-3.83,15.41c.74-.51,1.58-1.22,2.52-2.14.93-.92,1.73-1.73,2.39-2.42.66-.7,1.45-1.33,2.36-1.88.91-.56,1.83-.84,2.76-.84,1.01,0,1.72.33,2.14.99.42.66.63,1.38.63,2.18,0,1.2-.3,2.08-.91,2.64-.61.56-1.27.84-2,.84-.55,0-1.02-.17-1.38-.49-.37-.33-.55-.77-.55-1.33,0-.61.22-1.2.67-1.78s1.1-.92,1.96-1.03c-.21-.35-.46-.52-.76-.52-.94,0-1.89.39-2.87,1.16-.98.77-2.04,1.77-3.19,2.98-1.14,1.21-2.06,2.07-2.75,2.58v.04c4.1.46,6.15,1.86,6.15,4.22,0,.34-.05.87-.14,1.6-.09.73-.14,1.35-.14,1.86,0,.86.27,1.29.8,1.29.61,0,1.13-.39,1.57-1.16.44-.78.77-1.62.99-2.52.22-.91.38-1.4.47-1.47.17-.18.57-.28,1.2-.29.66,0,.99.21.99.64,0,.18-.11.58-.33,1.2-.22.62-.53,1.32-.93,2.1s-.99,1.47-1.75,2.08c-.76.61-1.6.91-2.51.91-1.17,0-2.22-.37-3.15-1.1-.93-.74-1.39-1.74-1.39-3.02,0-.21.03-.53.1-.98.06-.44.1-.78.1-1,0-1.45-1.22-2.42-3.66-2.91-1.09,4.78-1.82,7.43-2.2,7.95-.56.69-1.23,1.04-2,1.05-.51,0-.95-.16-1.31-.49-.36-.33-.54-.74-.54-1.25Z"/>
    <path d="M433.39,494.22c0-.08.04-.31.14-.7.09-.39.26-.91.5-1.54.24-.64.54-1.25.9-1.84.36-.59.84-1.09,1.46-1.52.61-.43,1.28-.64,2.01-.64.82,0,1.67.21,2.55.64s1.49,1.15,1.85,2.17c1.83-1.89,3.86-2.84,6.09-2.85,1.7,0,3.05.37,4.05,1.1,1,.74,1.5,1.89,1.5,3.47,0,1.33-.55,3.52-1.64,6.57-1.09,3.05-1.64,4.82-1.64,5.3,0,.51.21.76.63.76.64,0,1.26-.38,1.87-1.13.56-.69,1-1.53,1.32-2.51.32-.98.54-1.53.67-1.65.21-.13.52-.2.94-.2.66,0,1,.23,1.01.68,0,.4-.21,1.07-.63,2-.42.93-1.14,1.88-2.15,2.84-1.01.96-2.13,1.45-3.36,1.45-1.09,0-2.06-.32-2.89-.97-.84-.64-1.26-1.53-1.26-2.65,0-.48.51-2.13,1.54-4.94,1.03-2.81,1.54-4.95,1.54-6.41s-.61-2.25-1.84-2.25c-1.99,0-3.74,1.11-5.24,3.33-.4.59-.71,1.32-.93,2.21-1.34,5.25-2.11,8.26-2.31,9.03-.2.78-.4,1.29-.61,1.55-.51.71-1.19,1.07-2.03,1.09-.48,0-.91-.16-1.27-.47-.37-.31-.55-.72-.55-1.21,0-.18.07-.57.21-1.17l2.51-10.08c.38-1.55.56-2.56.55-3.05,0-.79-.25-1.19-.76-1.19s-.94.38-1.32,1.14-.68,1.59-.92,2.5c-.24.9-.39,1.4-.44,1.47-.16.21-.51.31-1.07.31h-.06c-.62,0-.94-.22-.94-.66Z"/>
    <path d="M462.36,496.16c0-.5.43-.74,1.29-.74h12.25l2.96-11.88c.01-.05.03-.13.06-.24.03-.11.05-.19.08-.24.02-.05.05-.13.08-.23.03-.1.05-.18.08-.24.02-.05.07-.11.12-.19.06-.07.11-.13.16-.17s.11-.07.17-.1c.06-.03.13-.04.21-.04.2,0,.37.09.5.26.13.17.19.38.16.61,0,.15-.2,1.04-.6,2.64-.4,1.6-.86,3.43-1.37,5.48-.51,2.05-.88,3.49-1.09,4.33h11.86c.86,0,1.29.25,1.28.74,0,.49-.42.74-1.24.74h-12.27c-.16.69-.29,1.21-.38,1.53l-2.6,10.38c-.01.05-.03.13-.06.24s-.05.19-.08.24-.05.13-.08.23-.05.18-.08.23-.06.11-.11.18c-.05.07-.1.12-.15.16-.05.04-.11.07-.18.09s-.14.04-.22.04c-.42,0-.63-.25-.63-.75,0-.23.06-.55.18-.97l2.89-11.6h-11.95c-.81,0-1.21-.25-1.21-.74Z"/>
    <path d="M495.29,502.66c0-.48.11-1.08.33-1.8l4.4-17.71c.07-.26.16-.66.29-1.18s.23-.93.3-1.22c-.23-.03-.53-.04-.88-.04s-.62,0-.79-.02c-.18-.01-.35-.05-.52-.1-.17-.05-.3-.14-.38-.26-.08-.12-.13-.29-.13-.51,0-.46.15-.78.45-.97.1-.08.65-.15,1.64-.22.99-.06,1.95-.11,2.88-.14l1.41-.08c.64,0,.96.27.96.81,0,.13-.03.3-.08.5l-5.35,21.53c-.34,1.27-.5,2.17-.5,2.67,0,.79.24,1.2.72,1.21.51,0,.95-.38,1.32-1.14s.68-1.6.92-2.5c.24-.91.39-1.4.44-1.47.15-.21.46-.32.91-.33.76,0,1.15.21,1.16.64,0,.18-.09.57-.26,1.15s-.43,1.29-.78,2.1c-.34.81-.86,1.52-1.56,2.13-.69.61-1.46.91-2.3.91-1.2,0-2.27-.36-3.2-1.08s-1.41-1.68-1.41-2.88Z"/>
    <path d="M506.65,494.22c0-.08.04-.31.13-.7.09-.39.25-.91.49-1.54.24-.64.54-1.25.89-1.84.35-.59.83-1.09,1.44-1.52s1.27-.64,1.99-.64c.82,0,1.66.21,2.54.64.88.43,1.49,1.15,1.84,2.17,1.83-1.89,3.88-2.84,6.15-2.85,2.95,0,4.73,1.04,5.33,3.12,1.98-2.08,4.15-3.12,6.49-3.12,1.52,0,2.8.35,3.86,1.04,1.06.7,1.58,1.87,1.58,3.53,0,1.33-.54,3.51-1.62,6.55-1.08,3.04-1.62,4.83-1.62,5.36,0,.48.21.72.63.72.56,0,1.08-.26,1.56-.78.48-.52.85-1.08,1.1-1.68.25-.6.48-1.19.69-1.78.21-.59.33-.89.35-.92.13-.18.41-.28.84-.29h.41c.53,0,.8.23.8.68,0,.23-.13.67-.38,1.3-.25.63-.61,1.32-1.08,2.08-.47.75-1.12,1.42-1.94,2-.83.58-1.71.87-2.66.87-1.15,0-2.13-.34-2.95-1.01-.81-.67-1.22-1.54-1.22-2.61,0-.43.51-2.09,1.52-4.98s1.52-5.03,1.52-6.41c0-1.47-.6-2.21-1.81-2.21-1.92,0-3.61,1-5.08,2.99-.56.77-.93,1.54-1.11,2.32-1.71,6.77-2.59,10.23-2.66,10.37-.45,1.02-1.22,1.52-2.29,1.52-.5,0-.92-.16-1.25-.47-.33-.31-.5-.72-.5-1.21,0-.38.49-2.47,1.47-6.29.98-3.82,1.47-6.15,1.47-6.99,0-1.5-.58-2.25-1.75-2.25-2.14,0-3.99,1.18-5.54,3.54-.26.4-.52,1.06-.76,1.96-1.62,6.52-2.49,9.9-2.59,10.14-.42,1.04-1.17,1.56-2.26,1.56-.5,0-.92-.16-1.26-.47s-.52-.72-.52-1.21c0-.21.05-.71.16-1.48l2.51-10.12c0-.05.06-.25.18-.6.12-.35.22-.71.3-1.07s.11-.7.11-1c0-.81-.26-1.22-.79-1.22-.47,0-.9.38-1.28,1.14-.38.76-.68,1.59-.92,2.5-.24.9-.38,1.38-.43,1.44-.16.23-.42.35-.8.35h-.33c-.62,0-.94-.22-.94-.66Z"/>
    <path d="M547.38,496.16c0-.5.43-.74,1.29-.74h12.25l2.96-11.88c.01-.05.03-.13.06-.24.03-.11.05-.19.08-.24.02-.05.05-.13.08-.23.03-.1.05-.18.08-.24.02-.05.07-.11.12-.19.06-.07.11-.13.16-.17s.11-.07.17-.1c.06-.03.13-.04.21-.04.2,0,.37.09.5.26.13.17.19.38.16.61,0,.15-.2,1.04-.6,2.64-.4,1.6-.86,3.43-1.37,5.48-.51,2.05-.88,3.49-1.09,4.33h11.86c.86,0,1.29.25,1.28.74,0,.49-.42.74-1.24.74h-12.27c-.16.69-.29,1.21-.38,1.53l-2.6,10.38c-.01.05-.03.13-.06.24s-.05.19-.08.24-.05.13-.08.23-.05.18-.08.23-.06.11-.11.18c-.05.07-.1.12-.15.16-.05.04-.11.07-.18.09s-.14.04-.22.04c-.42,0-.63-.25-.63-.75,0-.23.06-.55.18-.97l2.89-11.6h-11.95c-.81,0-1.21-.25-1.21-.74Z"/>
    <path d="M580.3,502.66c0-.48.11-1.08.33-1.8l4.4-17.71c.07-.26.16-.66.29-1.18s.23-.93.3-1.22c-.23-.03-.53-.04-.88-.04s-.62,0-.79-.02c-.18-.01-.35-.05-.52-.1-.17-.05-.3-.14-.38-.26-.08-.12-.13-.29-.13-.51,0-.46.15-.78.45-.97.1-.08.65-.15,1.64-.22.99-.06,1.95-.11,2.88-.14l1.41-.08c.64,0,.96.27.96.81,0,.13-.03.3-.08.5l-5.35,21.53c-.34,1.27-.5,2.17-.5,2.67,0,.79.24,1.2.72,1.21.51,0,.95-.38,1.32-1.14s.68-1.6.92-2.5c.24-.91.39-1.4.44-1.47.15-.21.46-.32.91-.33.76,0,1.15.21,1.16.64,0,.18-.09.57-.26,1.15s-.43,1.29-.78,2.1c-.34.81-.86,1.52-1.56,2.13-.69.61-1.46.91-2.3.91-1.2,0-2.27-.36-3.2-1.08s-1.41-1.68-1.41-2.88Z"/>
    <path d="M591.67,494.22c0-.08.05-.31.14-.7s.26-.91.5-1.54c.24-.64.54-1.25.9-1.84s.84-1.09,1.46-1.52,1.28-.64,2.01-.64c.82,0,1.67.21,2.55.64s1.49,1.15,1.85,2.17c1.83-1.89,3.86-2.84,6.09-2.85,1.7,0,3.05.37,4.05,1.1,1,.74,1.5,1.89,1.5,3.47,0,1.33-.55,3.52-1.64,6.57-1.09,3.05-1.64,4.82-1.64,5.3,0,.51.21.76.63.76.64,0,1.26-.38,1.87-1.13.56-.69,1-1.53,1.32-2.51.32-.98.54-1.53.67-1.65.21-.13.52-.2.94-.2.66,0,1,.23,1.01.68,0,.4-.21,1.07-.63,2-.42.93-1.14,1.88-2.15,2.84-1.01.96-2.13,1.45-3.36,1.45-1.09,0-2.06-.32-2.89-.97-.84-.64-1.26-1.53-1.26-2.65,0-.48.51-2.13,1.54-4.94s1.54-4.95,1.54-6.41-.61-2.25-1.84-2.25c-1.99,0-3.74,1.11-5.24,3.33-.4.59-.71,1.32-.93,2.21-1.34,5.25-2.11,8.26-2.31,9.03-.2.78-.4,1.29-.61,1.55-.51.71-1.18,1.07-2.03,1.09-.48,0-.91-.16-1.27-.47s-.55-.72-.55-1.21c0-.18.07-.57.21-1.17l2.51-10.08c.38-1.55.56-2.56.55-3.05,0-.79-.25-1.19-.76-1.19s-.94.38-1.32,1.14-.68,1.59-.92,2.5c-.24.9-.39,1.4-.44,1.47-.16.21-.51.31-1.07.31h-.06c-.62,0-.94-.22-.94-.66Z"/>
  </g>
  <path d="M92.44,369.82c0-.33.07-.8.22-1.41l7.43-30.02c.42-1.61.69-2.68.8-3.22-.83-.06-1.45-.09-1.87-.09h-.22c-1.18,0-1.78-.33-1.8-1,0-.61.3-.99.91-1.14.61-.16,1.95-.27,4.04-.33,1.44-.07,2.63-.13,3.57-.17.04,0,.12,0,.25-.03.13-.02.23-.03.3-.03.91,0,1.37.38,1.37,1.13l-.17.83-5.42,21.81c1.05-.72,2.24-1.73,3.56-3.03s2.45-2.44,3.38-3.43c.93-.99,2.05-1.88,3.34-2.67,1.29-.79,2.59-1.19,3.91-1.19,1.43,0,2.44.46,3.03,1.4s.89,1.96.89,3.08c0,1.7-.43,2.94-1.29,3.73-.86.79-1.8,1.19-2.82,1.19-.79,0-1.44-.23-1.96-.7-.52-.47-.78-1.09-.78-1.88,0-.86.32-1.7.95-2.52.64-.82,1.56-1.31,2.78-1.45-.29-.49-.65-.74-1.08-.74-1.32,0-2.68.55-4.07,1.64-1.39,1.1-2.89,2.5-4.51,4.21-1.62,1.71-2.91,2.93-3.89,3.65v.06c5.8.64,8.7,2.63,8.7,5.97,0,.48-.06,1.23-.19,2.27-.13,1.03-.19,1.91-.19,2.62,0,1.22.38,1.82,1.14,1.82.86,0,1.6-.55,2.22-1.64.62-1.1,1.08-2.28,1.4-3.57.32-1.28.54-1.98.66-2.09.24-.26.8-.4,1.7-.42.93,0,1.4.3,1.4.91,0,.26-.15.83-.46,1.7-.31.88-.75,1.87-1.32,2.97s-1.39,2.09-2.47,2.94-2.26,1.29-3.55,1.29c-1.66,0-3.14-.52-4.46-1.56s-1.97-2.46-1.97-4.27c0-.29.05-.75.14-1.38.09-.63.14-1.1.14-1.41,0-2.04-1.73-3.42-5.18-4.12-1.54,6.76-2.58,10.51-3.11,11.25-.8.98-1.74,1.47-2.83,1.49-.72,0-1.34-.23-1.85-.69-.51-.46-.76-1.05-.76-1.77Z"/>
  <path d="M150.07,432.32v-1.41h.61c2.5,0,4.53-.57,6.09-1.71.17-.14.38-.21.63-.21.35,0,.56.06.63.19.07.13.11.38.11.76v17.29h4.35v1.41c-.89-.06-2.9-.09-6.04-.09s-5.15.03-6.04.09v-1.41h4.31v-15.51c-1.28.4-2.62.6-4.02.6h-.62Z" fill="#c03b2d"/>
  <path d="M221.38,454.64v-.54c0-.32.02-.53.06-.62s.14-.22.32-.4l5.99-6.15c2.16-2.2,3.25-4.28,3.25-6.24,0-1.2-.35-2.22-1.05-3.05s-1.67-1.25-2.92-1.25-2.24.35-3.07,1.04c.22.06.44.14.65.26.21.11.44.34.68.68s.36.75.36,1.23c0,.7-.22,1.24-.67,1.6-.45.37-.94.55-1.47.55-.49,0-.97-.17-1.43-.52-.46-.35-.69-.91-.69-1.69,0-1.34.61-2.43,1.83-3.28s2.74-1.27,4.56-1.27c2.12,0,3.87.52,5.25,1.56,1.37,1.04,2.06,2.41,2.06,4.11,0,.7-.1,1.32-.3,1.86s-.57,1.1-1.13,1.69c-.56.59-1.07,1.08-1.54,1.46s-1.25.97-2.32,1.76c-.94.68-2.38,1.84-4.33,3.46h4.38c1.81,0,2.82-.06,3.04-.18.26-.14.52-1.05.79-2.74h1.41l-.94,6.67h-12.76Z" fill="#c03b2d"/>
  <path d="M149.11,535.47c0-.74.2-1.32.61-1.72.41-.4.95-.61,1.63-.61s1.24.21,1.68.63c.44.42.66.96.66,1.64,0,1.18-.6,1.93-1.79,2.25,1.09.68,2.36,1.02,3.81,1.01.6,0,1.11-.12,1.54-.36.42-.24.74-.5.94-.79.2-.29.36-.67.47-1.15s.17-.85.19-1.13c0-.27.01-.62.01-1.04,0-.44,0-.79-.01-1.06s-.08-.65-.2-1.13c-.12-.49-.29-.87-.5-1.16-.21-.28-.54-.54-.98-.77-.44-.23-.97-.34-1.59-.34h-1.32c-.23,0-.39,0-.48-.01-.09-.01-.18-.06-.26-.14s-.13-.21-.13-.41c0-.33.12-.5.37-.53.23-.04.71-.08,1.45-.12.5-.02.94-.13,1.32-.34.38-.21.68-.48.89-.82.21-.33.39-.66.53-.98.14-.32.24-.67.3-1.05.06-.38.09-.65.1-.82s.01-.32.01-.46c0-1.94-.86-2.9-2.59-2.9-1.32,0-2.43.36-3.34,1.08,1.19.28,1.78.98,1.78,2.09,0,.57-.19,1.06-.58,1.45-.39.4-.91.6-1.57.6-.59,0-1.09-.2-1.5-.59s-.61-.9-.61-1.52c0-1.22.55-2.24,1.66-3.07,1.11-.83,2.55-1.24,4.34-1.24,2.03,0,3.63.4,4.77,1.2,1.15.8,1.72,1.8,1.72,2.99s-.42,2.22-1.25,3.08c-.83.86-1.83,1.47-2.98,1.83,1.02.23,1.89.54,2.62.95s1.27.87,1.63,1.38c.35.51.6.99.75,1.44s.22.92.22,1.39c0,1.54-.64,2.89-1.91,4.03-1.27,1.14-3.16,1.72-5.66,1.72-1.96,0-3.58-.42-4.86-1.25-1.28-.83-1.92-1.92-1.92-3.26Z" fill="#48a346"/>
  <path d="M220.2,545.8c0-.18.07-.34.22-.46.15-.12.35-.25.62-.39.26-.13.69-.43,1.26-.89s1.2-1.04,1.87-1.74c1.26-1.32,2.4-2.85,3.41-4.61s1.75-3.25,2.2-4.49c.45-1.24.85-2.44,1.2-3.61s.53-1.76.53-1.78c.36-.74.92-1.11,1.68-1.11.38,0,.7.12.96.36.26.24.39.54.39.9,0,.2-.08.61-.25,1.25-.16.64-.5,1.55-1,2.73-.5,1.19-1.12,2.42-1.85,3.71s-1.76,2.73-3.09,4.32c-1.32,1.59-2.79,3.07-4.39,4.42h.35c.56,0,1.08.04,1.57.12.49.08.88.17,1.16.26.28.09.81.26,1.58.52.69-2.57,1.07-4.01,1.16-4.3.08-.3.22-.54.42-.74.45-.48.96-.72,1.53-.72.38,0,.69.12.95.36s.38.54.38.9c-.11.12-.57,1.81-1.4,5.09.66-.02,1.24-.08,1.76-.19.52-.11.78-.16.8-.16.11,0,.22.09.35.27.13.18.19.35.19.51,0,.28-.38.52-1.13.72-.75.2-1.53.29-2.34.29-.16.64-.3,1.2-.43,1.68-.12.48-.22.87-.3,1.19-.08.31-.14.56-.19.75s-.09.34-.11.45c-.03.11-.05.19-.06.23,0,.04-.03.08-.05.12-.03.04-.04.07-.04.09-.43.4-.92.6-1.47.6-.39,0-.72-.12-1-.36-.28-.24-.42-.54-.42-.9,0-.22.35-1.73,1.05-4.53-.06-.01-.35-.1-.87-.26-.52-.16-.87-.26-1.05-.32s-.48-.12-.9-.19-.84-.11-1.27-.11c-.72,0-1.31.04-1.74.12-.44.08-.71.17-.83.27s-.23.19-.35.27-.25.12-.38.12c-.17,0-.33-.09-.48-.27-.15-.18-.22-.35-.22-.5Z" fill="#48a346"/>
  <path d="M92.47,245.64l.44-2.65h7.88l4.81-29.21c-2.41.72-4.93,1.08-7.55,1.08h-1.08l.41-2.65h1.13c5.14,0,9.3-1.21,12.48-3.62.5,0,.86,0,1.09.03.23.02.45.11.65.28.2.17.3.42.3.75,0,.04,0,.1-.03.18-.02.08-.04.18-.06.29-.02.11-.03.22-.03.33l-5.44,32.56h7.93l-.44,2.65c-1.66-.11-5.41-.17-11.25-.17s-9.59.06-11.25.17Z"/>
  <path d="M90.26,108.64l.28-1.63c.07-.37.32-.76.75-1.19l13.85-12.13c5.25-4.61,7.88-8.98,7.88-13.13,0-1.88-.53-3.4-1.59-4.57-1.06-1.17-2.58-1.75-4.57-1.75-1.01,0-2.01.16-3,.48-.99.32-1.71.61-2.18.87s-.82.49-1.04.69c1.73.5,2.6,1.6,2.6,3.32,0,1.33-.47,2.45-1.42,3.37-.95.92-2.04,1.38-3.27,1.38-.83,0-1.63-.27-2.4-.82-.77-.54-1.16-1.42-1.16-2.64,0-2.45,1.28-4.62,3.84-6.5,2.56-1.88,5.79-2.82,9.67-2.82,3.66,0,6.63.82,8.91,2.46s3.42,3.89,3.42,6.74c0,1.47-.28,2.86-.83,4.15-.55,1.29-1.41,2.5-2.58,3.62-1.17,1.12-2.18,2.01-3.05,2.65-.86.65-2.09,1.47-3.67,2.49-3.5,2.3-7.28,4.93-11.33,7.88h8.19c3.55,0,5.51-.11,5.88-.33.72-.46,1.47-2.18,2.26-5.17h2.68l-3.86,12.58h-24.25Z"/>
  <path d="M335.47,95.82l.44-2.74,23.49-24.85c.27-.33.5-.53.67-.61.17-.07.52-.11,1.05-.11.95,0,1.42.26,1.42.77l-.06.75-4.01,24.13h5.5l-.47,2.65h-5.47l-1.02,6.16h5.47l-.44,2.65c-1.33-.11-4.26-.17-8.79-.17-4.87,0-8.02.06-9.46.17l.44-2.65h6.36l1.18-6.16h-16.31ZM338.3,93.17h13.99l3.37-17.57-17.35,17.57Z"/>
  <path d="M339.06,238.73c0-1.73.5-3.06,1.49-3.98.99-.92,2.14-1.38,3.44-1.38s2.27.38,2.89,1.13c.63.75.94,1.58.94,2.48,0,1.08-.37,2.12-1.11,3.1-.74.98-1.75,1.59-3.04,1.81,1.7,1.29,3.94,1.92,6.74,1.9,2.76,0,4.8-1.26,6.11-3.78.42-.79.77-1.85,1.05-3.19.28-1.33.46-2.41.54-3.21.08-.81.12-1.37.12-1.68,0-3.31-1.69-4.97-5.06-4.97h-2.43c-1.01,0-1.52-.27-1.52-.8,0-.76.22-1.17.67-1.24.07,0,.17,0,.3-.03s.4-.04.82-.06c.42-.02.95-.05,1.59-.08,1.41-.07,2.66-.55,3.74-1.44,1.08-.88,1.87-1.94,2.37-3.17.5-1.22.87-2.34,1.1-3.34s.35-1.87.35-2.58c0-2.3-1.29-3.46-3.87-3.46s-4.68.69-6.69,2.08c.29.07.62.19.97.34.35.16.72.49,1.12,1.01s.59,1.16.59,1.91c0,1.21-.41,2.26-1.24,3.15-.83.9-1.92,1.34-3.29,1.34-1.01,0-1.84-.3-2.49-.91-.65-.61-.97-1.42-.97-2.43,0-2.12,1.13-4.11,3.4-5.97,2.27-1.86,5.26-2.79,8.98-2.79s6.35.65,8.32,1.96c1.97,1.31,2.96,3,2.96,5.07s-.85,4.05-2.56,5.94-4.04,3.32-7,4.3c2.62.61,4.65,1.62,6.09,3.04,1.45,1.42,2.17,3.19,2.17,5.33,0,1.33-.31,2.67-.94,4.03-.63,1.36-1.56,2.66-2.79,3.91s-2.92,2.27-5.08,3.04-4.58,1.16-7.28,1.16c-3.29,0-6.04-.66-8.23-1.99-2.2-1.33-3.29-3.18-3.29-5.55Z"/>
  <path d="M350.97,366.67c0-.68.16-1.53.47-2.54l6.23-25.07c.09-.38.23-.93.42-1.67s.33-1.32.43-1.73c-.33-.04-.75-.06-1.24-.06s-.87,0-1.12-.03c-.25-.02-.49-.06-.73-.14-.24-.08-.42-.2-.54-.36-.12-.17-.18-.41-.18-.72,0-.65.21-1.11.64-1.37.15-.11.92-.21,2.33-.31,1.4-.09,2.76-.16,4.07-.2l1.99-.11c.9,0,1.36.38,1.36,1.14,0,.18-.04.42-.11.71l-7.57,30.46c-.47,1.8-.71,3.06-.71,3.78,0,1.12.34,1.69,1.02,1.71.72,0,1.34-.54,1.87-1.62.53-1.08.96-2.26,1.3-3.54.34-1.28.55-1.98.62-2.09.22-.29.65-.45,1.29-.47,1.08,0,1.62.3,1.64.91,0,.26-.12.8-.37,1.63-.25.83-.62,1.82-1.1,2.97s-1.22,2.16-2.2,3.01c-.98.86-2.07,1.29-3.26,1.29-1.7,0-3.21-.51-4.53-1.53-1.33-1.02-1.99-2.38-1.99-4.08Z"/>
  <path d="M573.41,83.2c0-.11.06-.44.19-.99s.36-1.28.71-2.18c.34-.9.76-1.77,1.27-2.6.51-.83,1.19-1.55,2.06-2.16.87-.61,1.82-.91,2.85-.91,1.16,0,2.36.3,3.61.91,1.24.61,2.11,1.63,2.61,3.07,2.59-2.67,5.46-4.02,8.62-4.04,2.41,0,4.32.52,5.73,1.56,1.41,1.04,2.12,2.68,2.12,4.91,0,1.88-.77,4.98-2.32,9.3-1.55,4.32-2.32,6.82-2.32,7.5,0,.72.3,1.08.89,1.08.9,0,1.79-.53,2.65-1.6.79-.98,1.41-2.16,1.86-3.55s.77-2.17.95-2.34c.29-.18.74-.28,1.33-.28.94,0,1.42.32,1.44.97,0,.57-.3,1.52-.9,2.83s-1.61,2.66-3.04,4.02c-1.43,1.36-3.01,2.05-4.76,2.05-1.54,0-2.91-.46-4.09-1.37s-1.78-2.16-1.78-3.75c0-.68.73-3.01,2.18-6.99,1.46-3.98,2.18-7,2.18-9.07s-.87-3.18-2.6-3.18c-2.82,0-5.29,1.57-7.41,4.71-.57.83-1.01,1.87-1.32,3.13-1.9,7.42-2.98,11.68-3.26,12.78-.28,1.1-.57,1.83-.86,2.2-.72,1.01-1.68,1.52-2.87,1.54-.68,0-1.28-.22-1.8-.66-.52-.44-.77-1.01-.77-1.71,0-.26.1-.81.3-1.66l3.56-14.26c.53-2.19.79-3.63.77-4.31,0-1.12-.36-1.69-1.07-1.69s-1.34.54-1.86,1.62c-.53,1.08-.96,2.26-1.3,3.54-.34,1.28-.55,1.98-.62,2.09-.22.29-.73.44-1.52.44h-.08c-.88,0-1.33-.31-1.33-.94Z"/>
  <g>
    <rect x="26.34" y="315.01" width="159.91" height="3"/>
    <polygon points="36.28 328.78 38.33 326.59 27.49 316.52 38.33 306.44 36.28 304.25 23.09 316.52 36.28 328.78"/>
    <polygon points="176.31 328.78 174.26 326.59 185.1 316.52 174.26 306.44 176.31 304.25 189.5 316.52 176.31 328.78"/>
  </g>
  <g>
    <rect x="190.34" y="315.01" width="323.91" height="3"/>
    <polygon points="200.28 328.78 202.33 326.59 191.49 316.52 202.33 306.44 200.28 304.25 187.09 316.52 200.28 328.78"/>
    <polygon points="504.31 328.78 502.26 326.59 513.1 316.52 502.26 306.44 504.31 304.25 517.5 316.52 504.31 328.78"/>
  </g>
  <g>
    <rect x="549.92" y="13.42" width="3" height="154.82"/>
    <polygon points="539.15 23.36 541.35 25.41 551.41 14.58 561.49 25.41 563.68 23.36 551.41 10.17 539.15 23.36"/>
    <polygon points="539.15 158.31 541.35 156.26 551.41 167.1 561.49 156.26 563.68 158.31 551.41 171.5 539.15 158.31"/>
  </g>
  <path d="M575.09,210.2c0-.11.06-.44.19-.99.13-.55.36-1.28.7-2.18.34-.9.76-1.77,1.26-2.6.5-.83,1.18-1.55,2.04-2.16.86-.61,1.8-.91,2.82-.91,1.16,0,2.35.3,3.59.91,1.24.61,2.11,1.63,2.6,3.07,2.6-2.67,5.5-4.02,8.7-4.04,4.18,0,6.69,1.47,7.54,4.42,2.8-2.95,5.87-4.42,9.19-4.42,2.14,0,3.96.49,5.46,1.48s2.24,2.65,2.24,4.99c0,1.88-.76,4.97-2.29,9.27-1.53,4.3-2.29,6.83-2.29,7.59,0,.68.3,1.02.89,1.02.79,0,1.53-.37,2.21-1.11.68-.74,1.2-1.53,1.56-2.38.36-.85.69-1.69.98-2.52.29-.83.46-1.26.5-1.3.18-.26.58-.4,1.19-.41h.58c.75,0,1.13.32,1.13.97,0,.33-.18.94-.54,1.84-.36.89-.87,1.88-1.53,2.94-.66,1.07-1.58,2.01-2.75,2.83s-2.42,1.23-3.77,1.23c-1.62,0-3.01-.47-4.17-1.42-1.15-.95-1.73-2.18-1.73-3.69,0-.61.72-2.96,2.16-7.05,1.44-4.09,2.16-7.11,2.16-9.07,0-2.08-.85-3.12-2.56-3.12-2.71,0-5.11,1.41-7.19,4.23-.79,1.09-1.32,2.18-1.58,3.29-2.41,9.58-3.67,14.47-3.76,14.68-.64,1.44-1.72,2.16-3.25,2.16-.72,0-1.31-.22-1.77-.66-.47-.44-.7-1.01-.7-1.71,0-.53.69-3.5,2.08-8.9,1.38-5.4,2.08-8.7,2.08-9.89,0-2.12-.83-3.18-2.48-3.18-3.03,0-5.64,1.67-7.84,5.01-.37.57-.73,1.5-1.08,2.78-2.3,9.23-3.52,14.01-3.67,14.35-.6,1.47-1.66,2.21-3.2,2.21-.71,0-1.3-.22-1.79-.66-.49-.44-.73-1.01-.73-1.71,0-.3.07-1,.22-2.09l3.55-14.32c0-.07.09-.36.26-.85s.31-1,.42-1.52c.11-.52.16-.99.16-1.41,0-1.15-.37-1.73-1.11-1.73-.67,0-1.27.54-1.8,1.62-.53,1.08-.97,2.26-1.3,3.54-.34,1.28-.54,1.96-.61,2.03-.22.33-.6.5-1.13.5h-.47c-.88,0-1.33-.31-1.33-.94Z"/>
  <g>
    <rect x="549.92" y="175.42" width="3" height="102.82"/>
    <polygon points="539.15 185.36 541.35 187.41 551.41 176.58 561.49 187.41 563.68 185.36 551.41 172.17 539.15 185.36"/>
    <polygon points="539.15 268.31 541.35 266.26 551.41 277.1 561.49 266.26 563.68 268.31 551.41 281.5 539.15 268.31"/>
  </g>
  <path d="M182,17v146H29V17h153M191,8H20v164h171V8h0Z"/>
  <path d="M182,173v100H29v-100h153M191,164H20v118h171v-118h0Z"/>
  <path d="M510,17v146H191V17h319M519,8H182v164h337V8h0Z"/>
  <path d="M510,173v100H191v-100h319M519,164H182v118h337v-118h0Z"/>
  <g>
    <path d="M149.43,467.91c-.43,0-.83-.29-.96-.72-7.35-25.47-30.38-43.18-56.09-43.18-.13,0-.25,0-.38,0-23.64.16-45.37,15.58-54.07,38.36-.2.52-.78.78-1.29.58-.52-.2-.77-.78-.58-1.29,8.99-23.55,31.47-39.48,55.93-39.64.13,0,.26,0,.39,0,26.6,0,50.41,18.3,58.01,44.63.15.53-.15,1.08-.68,1.24-.09.03-.19.04-.28.04Z" fill="#c03b2d"/>
    <polygon points="139.52 463.14 140.49 461.39 149.1 466.21 153.27 457.27 155.08 458.12 150 469 139.52 463.14" fill="#c03b2d"/>
  </g>
  <g>
    <path d="M212.29,468.95c-.41,0-.8-.25-.94-.66-11.7-32.79-39.11-56.67-71.52-62.3-19.82-3.45-40.85.22-59.24,10.31-18.54,10.18-33.7,26.56-42.68,46.12-.23.5-.82.72-1.33.49-.5-.23-.72-.82-.49-1.33,9.16-19.95,24.62-36.66,43.54-47.04,18.78-10.31,40.28-14.05,60.54-10.52,33.12,5.76,61.12,30.13,73.06,63.6.19.52-.09,1.09-.61,1.28-.11.04-.22.06-.34.06Z" fill="#c03b2d"/>
    <polygon points="202.25 464.65 203.14 462.85 211.96 467.25 215.71 458.13 217.56 458.89 213 470 202.25 464.65" fill="#c03b2d"/>
  </g>
  <g>
    <path d="M111.96,540.06c-.67,0-1.34-.02-2.02-.06-18.78-1.15-27.47-17.83-27.83-18.54-.25-.49-.05-1.09.44-1.34.49-.25,1.1-.05,1.34.44.08.16,8.52,16.38,26.17,17.46,11.73.71,22.86-5.27,29.03-15.62.28-.47.9-.63,1.37-.35s.63.9.35,1.37c-6.2,10.4-17.12,16.65-28.85,16.65Z" fill="#48a346"/>
    <polygon points="142.99 532.85 141.02 533.18 139.39 523.45 129.81 525.79 129.33 523.85 141 521 142.99 532.85" fill="#48a346"/>
  </g>
  <g>
    <path d="M135.14,554.47c-9.11,0-18.57-1.77-27.61-6.59-10.3-5.49-19.09-14.62-25.41-26.41-.26-.49-.08-1.09.41-1.35.49-.26,1.09-.08,1.35.41,6.13,11.44,14.64,20.29,24.59,25.59,26.88,14.31,57.89.76,71.13-5.03,9.67-4.23,18.79-9.77,27.1-16.49.43-.35,1.06-.28,1.41.15.35.43.28,1.06-.15,1.41-8.45,6.83-17.72,12.46-27.55,16.76-9.1,3.98-26.44,11.56-45.26,11.56Z" fill="#48a346"/>
    <polygon points="207.12 535.86 205.15 535.55 206.69 525.81 196.86 524.99 197.03 522.99 209 524 207.12 535.86" fill="#48a346"/>
  </g>
</svg>