<?xml version="1.0" encoding="UTF-8"?>
<svg id="Ebene_1" data-name="Ebene 1" xmlns="http://www.w3.org/2000/svg" viewBox="0 0 1020 615.95">
  <defs>
    <style>
      .cls-1, .cls-2, .cls-3, .cls-4, .cls-5, .cls-6, .cls-7 {
        stroke-miterlimit: 10;
        stroke-width: 3px;
      }

      .cls-1, .cls-2, .cls-5, .cls-7 {
        stroke: #000;
      }

      .cls-1, .cls-8, .cls-9 {
        fill: #d32a20;
      }

      .cls-2, .cls-10, .cls-11 {
        fill: #48a346;
      }

      .cls-3 {
        stroke: #dd8d41;
      }

      .cls-3, .cls-4, .cls-6, .cls-7 {
        fill: none;
      }

      .cls-4 {
        stroke: #48a346;
      }

      .cls-8, .cls-11, .cls-12, .cls-13 {
        font-size: 56.6px;
      }

      .cls-8, .cls-14, .cls-12 {
        font-family: CMUSerif-BoldItalic, 'CMU Serif';
        font-style: italic;
        font-weight: 700;
      }

      .cls-11 {
        font-family: CMUSansSerif-DemiCondensed, 'CMU Sans Serif Demi Condensed';
        font-weight: 300;
      }

      .cls-5, .cls-15, .cls-13 {
        fill: #dd8d41;
      }

      .cls-6 {
        stroke: #d32a20;
      }

      .cls-14 {
        font-size: 40px;
      }

      .cls-16 {
        fill: #fbf2d8;
      }

      .cls-13 {
        font-family: MyriadPro-Regular, 'Myriad Pro';
      }
    </style>
  </defs>
  <rect class="cls-16" width="1020" height="615.95"/>
  <rect class="cls-2" x="551.5" y="48.45" width="76" height="59"/>
  <rect class="cls-1" x="289.5" y="48.45" width="209" height="59"/>
  <rect class="cls-5" x="676.5" y="48.45" width="67" height="59"/>
  <g>
    <rect class="cls-9" x="61.31" y="231.68" width="54.53" height="54.53"/>
    <path d="M117.4,287.77h-57.64v-57.64h57.64v57.64ZM62.86,284.66h51.43v-51.43h-51.43v51.43Z"/>
  </g>
  <g>
    <rect class="cls-9" x="116.5" y="231.68" width="54.53" height="54.53"/>
    <path d="M172.58,287.77h-57.64v-57.64h57.64v57.64ZM118.05,284.66h51.43v-51.43h-51.43v51.43Z"/>
  </g>
  <g>
    <rect class="cls-9" x="171.68" y="231.68" width="54.53" height="54.53"/>
    <path d="M227.77,287.77h-57.64v-57.64h57.64v57.64ZM173.24,284.66h51.43v-51.43h-51.43v51.43Z"/>
  </g>
  <g>
    <rect class="cls-9" x="226.87" y="231.68" width="54.53" height="54.53"/>
    <path d="M282.96,287.77h-57.64v-57.64h57.64v57.64ZM228.42,284.66h51.43v-51.43h-51.43v51.43Z"/>
  </g>
  <g>
    <rect class="cls-9" x="282.06" y="231.68" width="54.53" height="54.53"/>
    <path d="M338.15,287.77h-57.64v-57.64h57.64v57.64ZM283.61,284.66h51.43v-51.43h-51.43v51.43Z"/>
  </g>
  <g>
    <rect class="cls-9" x="337.25" y="231.68" width="54.53" height="54.53"/>
    <path d="M393.33,287.77h-57.64v-57.64h57.64v57.64ZM338.8,284.66h51.43v-51.43h-51.43v51.43Z"/>
  </g>
  <g>
    <rect class="cls-9" x="61.31" y="285.45" width="54.53" height="54.53"/>
    <path d="M117.4,341.54h-57.64v-57.64h57.64v57.64ZM62.86,338.43h51.43v-51.43h-51.43v51.43Z"/>
  </g>
  <g>
    <rect class="cls-9" x="116.5" y="285.45" width="54.53" height="54.53"/>
    <path d="M172.58,341.54h-57.64v-57.64h57.64v57.64ZM118.05,338.43h51.43v-51.43h-51.43v51.43Z"/>
  </g>
  <g>
    <rect class="cls-9" x="171.68" y="285.45" width="54.53" height="54.53"/>
    <path d="M227.77,341.54h-57.64v-57.64h57.64v57.64ZM173.24,338.43h51.43v-51.43h-51.43v51.43Z"/>
  </g>
  <g>
    <rect class="cls-9" x="226.87" y="285.45" width="54.53" height="54.53"/>
    <path d="M282.96,341.54h-57.64v-57.64h57.64v57.64ZM228.42,338.43h51.43v-51.43h-51.43v51.43Z"/>
  </g>
  <g>
    <rect class="cls-9" x="282.06" y="285.45" width="54.53" height="54.53"/>
    <path d="M338.15,341.54h-57.64v-57.64h57.64v57.64ZM283.61,338.43h51.43v-51.43h-51.43v51.43Z"/>
  </g>
  <g>
    <rect class="cls-9" x="337.25" y="285.45" width="54.53" height="54.53"/>
    <path d="M393.33,341.54h-57.64v-57.64h57.64v57.64ZM338.8,338.43h51.43v-51.43h-51.43v51.43Z"/>
  </g>
  <g>
    <rect class="cls-9" x="61.31" y="340.64" width="54.53" height="54.53"/>
    <path d="M117.4,396.73h-57.64v-57.64h57.64v57.64ZM62.86,393.62h51.43v-51.43h-51.43v51.43Z"/>
  </g>
  <g>
    <rect class="cls-9" x="116.5" y="340.64" width="54.53" height="54.53"/>
    <path d="M172.58,396.73h-57.64v-57.64h57.64v57.64ZM118.05,393.62h51.43v-51.43h-51.43v51.43Z"/>
  </g>
  <g>
    <rect class="cls-9" x="171.68" y="340.64" width="54.53" height="54.53"/>
    <path d="M227.77,396.73h-57.64v-57.64h57.64v57.64ZM173.24,393.62h51.43v-51.43h-51.43v51.43Z"/>
  </g>
  <g>
    <rect class="cls-9" x="226.87" y="340.64" width="54.53" height="54.53"/>
    <path d="M282.96,396.73h-57.64v-57.64h57.64v57.64ZM228.42,393.62h51.43v-51.43h-51.43v51.43Z"/>
  </g>
  <g>
    <rect class="cls-9" x="282.06" y="340.64" width="54.53" height="54.53"/>
    <path d="M338.15,396.73h-57.64v-57.64h57.64v57.64ZM283.61,393.62h51.43v-51.43h-51.43v51.43Z"/>
  </g>
  <g>
    <rect class="cls-9" x="337.25" y="340.64" width="54.53" height="54.53"/>
    <path d="M393.33,396.73h-57.64v-57.64h57.64v57.64ZM338.8,393.62h51.43v-51.43h-51.43v51.43Z"/>
  </g>
  <g>
    <rect class="cls-9" x="61.31" y="394.41" width="54.53" height="54.53"/>
    <path d="M117.4,450.5h-57.64v-57.64h57.64v57.64ZM62.86,447.39h51.43v-51.43h-51.43v51.43Z"/>
  </g>
  <g>
    <rect class="cls-9" x="116.5" y="394.41" width="54.53" height="54.53"/>
    <path d="M172.58,450.5h-57.64v-57.64h57.64v57.64ZM118.05,447.39h51.43v-51.43h-51.43v51.43Z"/>
  </g>
  <g>
    <rect class="cls-9" x="171.68" y="394.41" width="54.53" height="54.53"/>
    <path d="M227.77,450.5h-57.64v-57.64h57.64v57.64ZM173.24,447.39h51.43v-51.43h-51.43v51.43Z"/>
  </g>
  <g>
    <rect class="cls-9" x="226.87" y="394.41" width="54.53" height="54.53"/>
    <path d="M282.96,450.5h-57.64v-57.64h57.64v57.64ZM228.42,447.39h51.43v-51.43h-51.43v51.43Z"/>
  </g>
  <g>
    <rect class="cls-9" x="282.06" y="394.41" width="54.53" height="54.53"/>
    <path d="M338.15,450.5h-57.64v-57.64h57.64v57.64ZM283.61,447.39h51.43v-51.43h-51.43v51.43Z"/>
  </g>
  <g>
    <rect class="cls-9" x="337.25" y="394.41" width="54.53" height="54.53"/>
    <path d="M393.33,450.5h-57.64v-57.64h57.64v57.64ZM338.8,447.39h51.43v-51.43h-51.43v51.43Z"/>
  </g>
  <g>
    <rect class="cls-10" x="559.41" y="231.68" width="54.53" height="54.53"/>
    <path d="M615.5,287.77h-57.64v-57.64h57.64v57.64ZM560.96,284.66h51.43v-51.43h-51.43v51.43Z"/>
  </g>
  <g>
    <rect class="cls-10" x="614.6" y="231.68" width="54.53" height="54.53"/>
    <path d="M670.69,287.77h-57.64v-57.64h57.64v57.64ZM616.15,284.66h51.43v-51.43h-51.43v51.43Z"/>
  </g>
  <g>
    <rect class="cls-15" x="669.78" y="231.68" width="54.53" height="54.53"/>
    <path d="M725.87,287.77h-57.64v-57.64h57.64v57.64ZM671.34,284.66h51.43v-51.43h-51.43v51.43Z"/>
  </g>
  <g>
    <rect class="cls-15" x="724.97" y="231.68" width="54.53" height="54.53"/>
    <path d="M781.06,287.77h-57.64v-57.64h57.64v57.64ZM726.53,284.66h51.43v-51.43h-51.43v51.43Z"/>
  </g>
  <g>
    <rect class="cls-15" x="780.16" y="231.68" width="54.53" height="54.53"/>
    <path d="M836.25,287.77h-57.64v-57.64h57.64v57.64ZM781.71,284.66h51.43v-51.43h-51.43v51.43Z"/>
  </g>
  <g>
    <rect class="cls-15" x="835.35" y="231.68" width="54.53" height="54.53"/>
    <path d="M891.43,287.77h-57.64v-57.64h57.64v57.64ZM836.9,284.66h51.43v-51.43h-51.43v51.43Z"/>
  </g>
  <g>
    <rect class="cls-10" x="559.41" y="285.45" width="54.53" height="54.53"/>
    <path d="M615.5,341.54h-57.64v-57.64h57.64v57.64ZM560.96,338.43h51.43v-51.43h-51.43v51.43Z"/>
  </g>
  <g>
    <rect class="cls-10" x="614.6" y="285.45" width="54.53" height="54.53"/>
    <path d="M670.69,341.54h-57.64v-57.64h57.64v57.64ZM616.15,338.43h51.43v-51.43h-51.43v51.43Z"/>
  </g>
  <g>
    <rect class="cls-15" x="669.78" y="285.45" width="54.53" height="54.53"/>
    <path d="M725.87,341.54h-57.64v-57.64h57.64v57.64ZM671.34,338.43h51.43v-51.43h-51.43v51.43Z"/>
  </g>
  <g>
    <rect class="cls-15" x="724.97" y="285.45" width="54.53" height="54.53"/>
    <path d="M781.06,341.54h-57.64v-57.64h57.64v57.64ZM726.53,338.43h51.43v-51.43h-51.43v51.43Z"/>
  </g>
  <g>
    <rect class="cls-15" x="780.16" y="285.45" width="54.53" height="54.53"/>
    <path d="M836.25,341.54h-57.64v-57.64h57.64v57.64ZM781.71,338.43h51.43v-51.43h-51.43v51.43Z"/>
  </g>
  <g>
    <rect class="cls-15" x="835.35" y="285.45" width="54.53" height="54.53"/>
    <path d="M891.43,341.54h-57.64v-57.64h57.64v57.64ZM836.9,338.43h51.43v-51.43h-51.43v51.43Z"/>
  </g>
  <g>
    <rect class="cls-10" x="559.41" y="340.64" width="54.53" height="54.53"/>
    <path d="M615.5,396.73h-57.64v-57.64h57.64v57.64ZM560.96,393.62h51.43v-51.43h-51.43v51.43Z"/>
  </g>
  <g>
    <rect class="cls-10" x="614.6" y="340.64" width="54.53" height="54.53"/>
    <path d="M670.69,396.73h-57.64v-57.64h57.64v57.64ZM616.15,393.62h51.43v-51.43h-51.43v51.43Z"/>
  </g>
  <g>
    <rect class="cls-15" x="669.78" y="340.64" width="54.53" height="54.53"/>
    <path d="M725.87,396.73h-57.64v-57.64h57.64v57.64ZM671.34,393.62h51.43v-51.43h-51.43v51.43Z"/>
  </g>
  <g>
    <rect class="cls-15" x="724.97" y="340.64" width="54.53" height="54.53"/>
    <path d="M781.06,396.73h-57.64v-57.64h57.64v57.64ZM726.53,393.62h51.43v-51.43h-51.43v51.43Z"/>
  </g>
  <g>
    <rect class="cls-15" x="780.16" y="340.64" width="54.53" height="54.53"/>
    <path d="M836.25,396.73h-57.64v-57.64h57.64v57.64ZM781.71,393.62h51.43v-51.43h-51.43v51.43Z"/>
  </g>
  <g>
    <rect class="cls-15" x="835.35" y="340.64" width="54.53" height="54.53"/>
    <path d="M891.43,396.73h-57.64v-57.64h57.64v57.64ZM836.9,393.62h51.43v-51.43h-51.43v51.43Z"/>
  </g>
  <g>
    <rect class="cls-10" x="559.41" y="394.41" width="54.53" height="54.53"/>
    <path d="M615.5,450.5h-57.64v-57.64h57.64v57.64ZM560.96,447.39h51.43v-51.43h-51.43v51.43Z"/>
  </g>
  <g>
    <rect class="cls-10" x="614.6" y="394.41" width="54.53" height="54.53"/>
    <path d="M670.69,450.5h-57.64v-57.64h57.64v57.64ZM616.15,447.39h51.43v-51.43h-51.43v51.43Z"/>
  </g>
  <g>
    <rect class="cls-15" x="669.78" y="394.41" width="54.53" height="54.53"/>
    <path d="M725.87,450.5h-57.64v-57.64h57.64v57.64ZM671.34,447.39h51.43v-51.43h-51.43v51.43Z"/>
  </g>
  <g>
    <rect class="cls-15" x="724.97" y="394.41" width="54.53" height="54.53"/>
    <path d="M781.06,450.5h-57.64v-57.64h57.64v57.64ZM726.53,447.39h51.43v-51.43h-51.43v51.43Z"/>
  </g>
  <g>
    <rect class="cls-15" x="780.16" y="394.41" width="54.53" height="54.53"/>
    <path d="M836.25,450.5h-57.64v-57.64h57.64v57.64ZM781.71,447.39h51.43v-51.43h-51.43v51.43Z"/>
  </g>
  <g>
    <rect class="cls-15" x="835.35" y="394.41" width="54.53" height="54.53"/>
    <path d="M891.43,450.5h-57.64v-57.64h57.64v57.64ZM836.9,447.39h51.43v-51.43h-51.43v51.43Z"/>
  </g>
  <text class="cls-14" transform="translate(297.44 90.12)"><tspan x="0" y="0">k(m + n) = km + kn</tspan></text>
  <text class="cls-8" transform="translate(150.15 555.59)"><tspan x="0" y="0">m+n</tspan></text>
  <text class="cls-11" transform="translate(595.38 555.59)"><tspan x="0" y="0">m</tspan></text>
  <text class="cls-13" transform="translate(764.95 555.59)"><tspan x="0" y="0">n</tspan></text>
  <text class="cls-12" transform="translate(444.39 356.06)"><tspan x="0" y="0">k</tspan></text>
  <g>
    <line class="cls-6" x1="63.34" y1="482.46" x2="387.96" y2="482.46"/>
    <polygon class="cls-9" points="73.28 494.73 75.33 492.53 64.49 482.46 75.33 472.39 73.28 470.19 60.09 482.46 73.28 494.73"/>
    <polygon class="cls-9" points="378.02 494.73 375.97 492.53 386.81 482.46 375.97 472.39 378.02 470.19 391.21 482.46 378.02 494.73"/>
  </g>
  <g>
    <line class="cls-4" x1="563.56" y1="482.46" x2="668.14" y2="482.46"/>
    <polygon class="cls-10" points="573.5 494.73 575.55 492.53 564.72 482.46 575.55 472.39 573.5 470.19 560.31 482.46 573.5 494.73"/>
    <polygon class="cls-10" points="658.2 494.73 656.15 492.53 666.99 482.46 656.15 472.39 658.2 470.19 671.39 482.46 658.2 494.73"/>
  </g>
  <g>
    <line class="cls-3" x1="671.11" y1="482.46" x2="888.89" y2="482.46"/>
    <polygon class="cls-15" points="681.05 494.73 683.1 492.53 672.26 482.46 683.1 472.39 681.05 470.19 667.86 482.46 681.05 494.73"/>
    <polygon class="cls-15" points="878.95 494.73 876.9 492.53 887.74 482.46 876.9 472.39 878.95 470.19 892.14 482.46 878.95 494.73"/>
  </g>
  <g>
    <line class="cls-7" x1="429.42" y1="237.37" x2="429.42" y2="445.24"/>
    <polygon points="417.15 247.31 419.35 249.36 429.41 238.52 439.49 249.36 441.68 247.31 429.41 234.12 417.15 247.31"/>
    <polygon points="417.15 435.3 419.35 433.26 429.41 444.09 439.49 433.26 441.68 435.3 429.41 448.5 417.15 435.3"/>
  </g>
  <text class="cls-12" transform="translate(938.24 356.06)"><tspan x="0" y="0">k</tspan></text>
  <g>
    <line class="cls-7" x1="923.27" y1="237.37" x2="923.27" y2="445.24"/>
    <polygon points="911 247.31 913.2 249.36 923.27 238.52 933.34 249.36 935.54 247.31 923.27 234.12 911 247.31"/>
    <polygon points="911 435.3 913.2 433.26 923.27 444.09 933.34 433.26 935.54 435.3 923.27 448.5 911 435.3"/>
  </g>
</svg>