<?xml version="1.0" encoding="UTF-8"?>
<svg id="Ebene_1" data-name="Ebene 1" xmlns="http://www.w3.org/2000/svg" viewBox="0 0 920 524">
  <rect width="920" height="524" fill="#fbf2d8"/>
  <g>
    <rect x="496.5" y="6.5" width="76" height="59" fill="#48a346"/>
    <path d="M574,67h-79V5h79v62ZM498,64h73V8h-73v56Z"/>
  </g>
  <g>
    <rect x="234.5" y="6.5" width="209" height="59" fill="#d32a20"/>
    <path d="M445,67h-212V5h212v62ZM236,64h206V8h-206v56Z"/>
  </g>
  <g>
    <rect x="621.5" y="6.5" width="67" height="59" fill="#dd8d41"/>
    <path d="M690,67h-70V5h70v62ZM623,64h64V8h-64v56Z"/>
  </g>
  <g>
    <rect x="6.31" y="189.73" width="54.53" height="54.53" fill="#d32a20"/>
    <path d="M62.4,245.82H4.76v-57.64h57.64v57.64ZM7.86,242.71h51.43v-51.43H7.86v51.43Z"/>
  </g>
  <g>
    <rect x="61.5" y="189.73" width="54.53" height="54.53" fill="#d32a20"/>
    <path d="M117.58,245.82h-57.64v-57.64h57.64v57.64ZM63.05,242.71h51.43v-51.43h-51.43v51.43Z"/>
  </g>
  <g>
    <rect x="116.68" y="189.73" width="54.53" height="54.53" fill="#d32a20"/>
    <path d="M172.77,245.82h-57.64v-57.64h57.64v57.64ZM118.24,242.71h51.43v-51.43h-51.43v51.43Z"/>
  </g>
  <g>
    <rect x="171.87" y="189.73" width="54.53" height="54.53" fill="#d32a20"/>
    <path d="M227.96,245.82h-57.64v-57.64h57.64v57.64ZM173.42,242.71h51.43v-51.43h-51.43v51.43Z"/>
  </g>
  <g>
    <rect x="227.06" y="189.73" width="54.53" height="54.53" fill="#d32a20"/>
    <path d="M283.15,245.82h-57.64v-57.64h57.64v57.64ZM228.61,242.71h51.43v-51.43h-51.43v51.43Z"/>
  </g>
  <g>
    <rect x="282.25" y="189.73" width="54.53" height="54.53" fill="#d32a20"/>
    <path d="M338.33,245.82h-57.64v-57.64h57.64v57.64ZM283.8,242.71h51.43v-51.43h-51.43v51.43Z"/>
  </g>
  <g>
    <rect x="6.31" y="243.5" width="54.53" height="54.53" fill="#d32a20"/>
    <path d="M62.4,299.59H4.76v-57.64h57.64v57.64ZM7.86,296.49h51.43v-51.43H7.86v51.43Z"/>
  </g>
  <g>
    <rect x="61.5" y="243.5" width="54.53" height="54.53" fill="#d32a20"/>
    <path d="M117.58,299.59h-57.64v-57.64h57.64v57.64ZM63.05,296.49h51.43v-51.43h-51.43v51.43Z"/>
  </g>
  <g>
    <rect x="116.68" y="243.5" width="54.53" height="54.53" fill="#d32a20"/>
    <path d="M172.77,299.59h-57.64v-57.64h57.64v57.64ZM118.24,296.49h51.43v-51.43h-51.43v51.43Z"/>
  </g>
  <g>
    <rect x="171.87" y="243.5" width="54.53" height="54.53" fill="#d32a20"/>
    <path d="M227.96,299.59h-57.64v-57.64h57.64v57.64ZM173.42,296.49h51.43v-51.43h-51.43v51.43Z"/>
  </g>
  <g>
    <rect x="227.06" y="243.5" width="54.53" height="54.53" fill="#d32a20"/>
    <path d="M283.15,299.59h-57.64v-57.64h57.64v57.64ZM228.61,296.49h51.43v-51.43h-51.43v51.43Z"/>
  </g>
  <g>
    <rect x="282.25" y="243.5" width="54.53" height="54.53" fill="#d32a20"/>
    <path d="M338.33,299.59h-57.64v-57.64h57.64v57.64ZM283.8,296.49h51.43v-51.43h-51.43v51.43Z"/>
  </g>
  <g>
    <rect x="6.31" y="298.69" width="54.53" height="54.53" fill="#d32a20"/>
    <path d="M62.4,354.78H4.76v-57.64h57.64v57.64ZM7.86,351.67h51.43v-51.43H7.86v51.43Z"/>
  </g>
  <g>
    <rect x="61.5" y="298.69" width="54.53" height="54.53" fill="#d32a20"/>
    <path d="M117.58,354.78h-57.64v-57.64h57.64v57.64ZM63.05,351.67h51.43v-51.43h-51.43v51.43Z"/>
  </g>
  <g>
    <rect x="116.68" y="298.69" width="54.53" height="54.53" fill="#d32a20"/>
    <path d="M172.77,354.78h-57.64v-57.64h57.64v57.64ZM118.24,351.67h51.43v-51.43h-51.43v51.43Z"/>
  </g>
  <g>
    <rect x="171.87" y="298.69" width="54.53" height="54.53" fill="#d32a20"/>
    <path d="M227.96,354.78h-57.64v-57.64h57.64v57.64ZM173.42,351.67h51.43v-51.43h-51.43v51.43Z"/>
  </g>
  <g>
    <rect x="227.06" y="298.69" width="54.53" height="54.53" fill="#d32a20"/>
    <path d="M283.15,354.78h-57.64v-57.64h57.64v57.64ZM228.61,351.67h51.43v-51.43h-51.43v51.43Z"/>
  </g>
  <g>
    <rect x="282.25" y="298.69" width="54.53" height="54.53" fill="#d32a20"/>
    <path d="M338.33,354.78h-57.64v-57.64h57.64v57.64ZM283.8,351.67h51.43v-51.43h-51.43v51.43Z"/>
  </g>
  <g>
    <rect x="6.31" y="352.46" width="54.53" height="54.53" fill="#d32a20"/>
    <path d="M62.4,408.55H4.76v-57.64h57.64v57.64ZM7.86,405.45h51.43v-51.43H7.86v51.43Z"/>
  </g>
  <g>
    <rect x="61.5" y="352.46" width="54.53" height="54.53" fill="#d32a20"/>
    <path d="M117.58,408.55h-57.64v-57.64h57.64v57.64ZM63.05,405.45h51.43v-51.43h-51.43v51.43Z"/>
  </g>
  <g>
    <rect x="116.68" y="352.46" width="54.53" height="54.53" fill="#d32a20"/>
    <path d="M172.77,408.55h-57.64v-57.64h57.64v57.64ZM118.24,405.45h51.43v-51.43h-51.43v51.43Z"/>
  </g>
  <g>
    <rect x="171.87" y="352.46" width="54.53" height="54.53" fill="#d32a20"/>
    <path d="M227.96,408.55h-57.64v-57.64h57.64v57.64ZM173.42,405.45h51.43v-51.43h-51.43v51.43Z"/>
  </g>
  <g>
    <rect x="227.06" y="352.46" width="54.53" height="54.53" fill="#d32a20"/>
    <path d="M283.15,408.55h-57.64v-57.64h57.64v57.64ZM228.61,405.45h51.43v-51.43h-51.43v51.43Z"/>
  </g>
  <g>
    <rect x="282.25" y="352.46" width="54.53" height="54.53" fill="#d32a20"/>
    <path d="M338.33,408.55h-57.64v-57.64h57.64v57.64ZM283.8,405.45h51.43v-51.43h-51.43v51.43Z"/>
  </g>
  <g>
    <rect x="504.41" y="189.73" width="54.53" height="54.53" fill="#48a346"/>
    <path d="M560.5,245.82h-57.64v-57.64h57.64v57.64ZM505.96,242.71h51.43v-51.43h-51.43v51.43Z"/>
  </g>
  <g>
    <rect x="559.6" y="189.73" width="54.53" height="54.53" fill="#48a346"/>
    <path d="M615.69,245.82h-57.64v-57.64h57.64v57.64ZM561.15,242.71h51.43v-51.43h-51.43v51.43Z"/>
  </g>
  <g>
    <rect x="614.78" y="189.73" width="54.53" height="54.53" fill="#dd8d41"/>
    <path d="M670.87,245.82h-57.64v-57.64h57.64v57.64ZM616.34,242.71h51.43v-51.43h-51.43v51.43Z"/>
  </g>
  <g>
    <rect x="669.97" y="189.73" width="54.53" height="54.53" fill="#dd8d41"/>
    <path d="M726.06,245.82h-57.64v-57.64h57.64v57.64ZM671.53,242.71h51.43v-51.43h-51.43v51.43Z"/>
  </g>
  <g>
    <rect x="725.16" y="189.73" width="54.53" height="54.53" fill="#dd8d41"/>
    <path d="M781.25,245.82h-57.64v-57.64h57.64v57.64ZM726.71,242.71h51.43v-51.43h-51.43v51.43Z"/>
  </g>
  <g>
    <rect x="780.35" y="189.73" width="54.53" height="54.53" fill="#dd8d41"/>
    <path d="M836.43,245.82h-57.64v-57.64h57.64v57.64ZM781.9,242.71h51.43v-51.43h-51.43v51.43Z"/>
  </g>
  <g>
    <rect x="504.41" y="243.5" width="54.53" height="54.53" fill="#48a346"/>
    <path d="M560.5,299.59h-57.64v-57.64h57.64v57.64ZM505.96,296.49h51.43v-51.43h-51.43v51.43Z"/>
  </g>
  <g>
    <rect x="559.6" y="243.5" width="54.53" height="54.53" fill="#48a346"/>
    <path d="M615.69,299.59h-57.64v-57.64h57.64v57.64ZM561.15,296.49h51.43v-51.43h-51.43v51.43Z"/>
  </g>
  <g>
    <rect x="614.78" y="243.5" width="54.53" height="54.53" fill="#dd8d41"/>
    <path d="M670.87,299.59h-57.64v-57.64h57.64v57.64ZM616.34,296.49h51.43v-51.43h-51.43v51.43Z"/>
  </g>
  <g>
    <rect x="669.97" y="243.5" width="54.53" height="54.53" fill="#dd8d41"/>
    <path d="M726.06,299.59h-57.64v-57.64h57.64v57.64ZM671.53,296.49h51.43v-51.43h-51.43v51.43Z"/>
  </g>
  <g>
    <rect x="725.16" y="243.5" width="54.53" height="54.53" fill="#dd8d41"/>
    <path d="M781.25,299.59h-57.64v-57.64h57.64v57.64ZM726.71,296.49h51.43v-51.43h-51.43v51.43Z"/>
  </g>
  <g>
    <rect x="780.35" y="243.5" width="54.53" height="54.53" fill="#dd8d41"/>
    <path d="M836.43,299.59h-57.64v-57.64h57.64v57.64ZM781.9,296.49h51.43v-51.43h-51.43v51.43Z"/>
  </g>
  <g>
    <rect x="504.41" y="298.69" width="54.53" height="54.53" fill="#48a346"/>
    <path d="M560.5,354.78h-57.64v-57.64h57.64v57.64ZM505.96,351.67h51.43v-51.43h-51.43v51.43Z"/>
  </g>
  <g>
    <rect x="559.6" y="298.69" width="54.53" height="54.53" fill="#48a346"/>
    <path d="M615.69,354.78h-57.64v-57.64h57.64v57.64ZM561.15,351.67h51.43v-51.43h-51.43v51.43Z"/>
  </g>
  <g>
    <rect x="614.78" y="298.69" width="54.53" height="54.53" fill="#dd8d41"/>
    <path d="M670.87,354.78h-57.64v-57.64h57.64v57.64ZM616.34,351.67h51.43v-51.43h-51.43v51.43Z"/>
  </g>
  <g>
    <rect x="669.97" y="298.69" width="54.53" height="54.53" fill="#dd8d41"/>
    <path d="M726.06,354.78h-57.64v-57.64h57.64v57.64ZM671.53,351.67h51.43v-51.43h-51.43v51.43Z"/>
  </g>
  <g>
    <rect x="725.16" y="298.69" width="54.53" height="54.53" fill="#dd8d41"/>
    <path d="M781.25,354.78h-57.64v-57.64h57.64v57.64ZM726.71,351.67h51.43v-51.43h-51.43v51.43Z"/>
  </g>
  <g>
    <rect x="780.35" y="298.69" width="54.53" height="54.53" fill="#dd8d41"/>
    <path d="M836.43,354.78h-57.64v-57.64h57.64v57.64ZM781.9,351.67h51.43v-51.43h-51.43v51.43Z"/>
  </g>
  <g>
    <rect x="504.41" y="352.46" width="54.53" height="54.53" fill="#48a346"/>
    <path d="M560.5,408.55h-57.64v-57.64h57.64v57.64ZM505.96,405.45h51.43v-51.43h-51.43v51.43Z"/>
  </g>
  <g>
    <rect x="559.6" y="352.46" width="54.53" height="54.53" fill="#48a346"/>
    <path d="M615.69,408.55h-57.64v-57.64h57.64v57.64ZM561.15,405.45h51.43v-51.43h-51.43v51.43Z"/>
  </g>
  <g>
    <rect x="614.78" y="352.46" width="54.53" height="54.53" fill="#dd8d41"/>
    <path d="M670.87,408.55h-57.64v-57.64h57.64v57.64ZM616.34,405.45h51.43v-51.43h-51.43v51.43Z"/>
  </g>
  <g>
    <rect x="669.97" y="352.46" width="54.53" height="54.53" fill="#dd8d41"/>
    <path d="M726.06,408.55h-57.64v-57.64h57.64v57.64ZM671.53,405.45h51.43v-51.43h-51.43v51.43Z"/>
  </g>
  <g>
    <rect x="725.16" y="352.46" width="54.53" height="54.53" fill="#dd8d41"/>
    <path d="M781.25,408.55h-57.64v-57.64h57.64v57.64ZM726.71,405.45h51.43v-51.43h-51.43v51.43Z"/>
  </g>
  <g>
    <rect x="780.35" y="352.46" width="54.53" height="54.53" fill="#dd8d41"/>
    <path d="M836.43,408.55h-57.64v-57.64h57.64v57.64ZM781.9,405.45h51.43v-51.43h-51.43v51.43Z"/>
  </g>
  <g>
    <path d="M245.41,46.89c0-.23.05-.57.16-1l5.25-21.22c.3-1.14.49-1.9.56-2.28-.58-.04-1.02-.07-1.32-.07h-.16c-.83,0-1.26-.24-1.27-.71,0-.43.21-.7.65-.81.43-.11,1.38-.19,2.85-.23,1.02-.05,1.86-.09,2.52-.12.03,0,.08,0,.18-.02.09-.01.16-.02.21-.02.64,0,.97.27.97.8l-.12.59-3.83,15.41c.74-.51,1.58-1.22,2.52-2.14s1.73-1.73,2.39-2.42c.66-.7,1.45-1.32,2.36-1.88.91-.56,1.83-.84,2.76-.84,1.01,0,1.72.33,2.14.99.42.66.63,1.38.63,2.18,0,1.2-.3,2.08-.91,2.64-.61.56-1.27.84-2,.84-.56,0-1.02-.16-1.39-.49-.37-.33-.55-.77-.55-1.33,0-.61.22-1.2.67-1.78.45-.58,1.1-.92,1.96-1.03-.21-.35-.46-.52-.76-.52-.94,0-1.89.39-2.87,1.16-.98.77-2.04,1.77-3.19,2.98s-2.06,2.07-2.75,2.58v.04c4.1.46,6.15,1.86,6.15,4.22,0,.34-.05.87-.14,1.6-.09.73-.14,1.35-.14,1.86,0,.86.27,1.29.8,1.29.61,0,1.13-.39,1.57-1.16.44-.77.77-1.61.99-2.52.22-.9.38-1.4.47-1.47.17-.18.57-.28,1.2-.29.66,0,.99.21.99.64,0,.18-.11.58-.33,1.2-.22.62-.53,1.32-.93,2.1s-.99,1.47-1.75,2.08c-.76.61-1.6.91-2.51.91-1.17,0-2.22-.37-3.15-1.1-.93-.74-1.39-1.74-1.39-3.02,0-.21.03-.53.1-.98.06-.44.1-.77.1-1,0-1.45-1.22-2.42-3.66-2.91-1.09,4.78-1.82,7.43-2.2,7.95-.56.69-1.23,1.04-2,1.05-.51,0-.95-.16-1.31-.49-.36-.33-.54-.74-.54-1.25Z"/>
    <path d="M270.43,45.31c0-2.16.28-4.43.84-6.81.56-2.38,1.39-4.77,2.48-7.17s2.57-4.72,4.44-6.96c1.87-2.24,3.99-4.14,6.36-5.7.4-.3.76-.45,1.07-.45.46,0,.68.18.68.53,0,.1-.04.21-.12.33-.08.12-.16.21-.24.28-.08.07-.2.17-.37.3-.17.13-.26.21-.29.23-2.62,2.27-4.86,5.17-6.71,8.72-1.85,3.55-3.16,6.92-3.92,10.12-.77,3.2-1.15,6.16-1.15,8.88,0,1.5.13,2.89.4,4.17.27,1.28.55,2.24.84,2.86s.61,1.22.94,1.8c.33.57.51.89.54.94.08.18.06.36-.06.54s-.29.26-.53.26h-.04c-.23,0-.56-.18-.98-.54-.42-.36-.87-.91-1.36-1.64-.49-.74-.95-1.6-1.37-2.58-.42-.98-.77-2.19-1.05-3.63-.28-1.44-.42-2.93-.42-4.48Z"/>
    <path d="M285.7,36.22c0-.08.04-.31.14-.7s.25-.9.49-1.54c.24-.64.53-1.25.89-1.84.35-.59.83-1.09,1.44-1.52s1.27-.64,1.99-.64c.82,0,1.66.21,2.54.64.88.43,1.49,1.15,1.84,2.17,1.83-1.89,3.88-2.84,6.15-2.85,2.95,0,4.73,1.04,5.33,3.12,1.98-2.08,4.15-3.12,6.49-3.12,1.52,0,2.8.35,3.86,1.04,1.06.7,1.58,1.87,1.58,3.53,0,1.33-.54,3.51-1.62,6.55-1.08,3.04-1.62,4.83-1.62,5.36,0,.48.21.72.63.72.56,0,1.08-.26,1.56-.78.48-.52.85-1.08,1.1-1.68.25-.6.48-1.19.69-1.78s.33-.89.35-.92c.13-.18.41-.28.84-.29h.41c.53,0,.8.23.8.68,0,.23-.13.67-.38,1.3-.25.63-.61,1.33-1.08,2.08-.47.76-1.11,1.42-1.94,2-.83.58-1.71.87-2.66.87-1.15,0-2.13-.34-2.95-1.01s-1.22-1.54-1.22-2.61c0-.43.51-2.09,1.52-4.98s1.52-5.03,1.52-6.41c0-1.47-.6-2.21-1.81-2.21-1.92,0-3.61,1-5.08,2.99-.56.77-.93,1.54-1.11,2.32-1.71,6.77-2.59,10.23-2.66,10.37-.45,1.02-1.22,1.52-2.29,1.52-.5,0-.92-.16-1.25-.47-.33-.31-.5-.72-.5-1.21,0-.38.49-2.47,1.47-6.29.98-3.81,1.47-6.15,1.47-6.99,0-1.5-.58-2.25-1.75-2.25-2.14,0-3.99,1.18-5.54,3.54-.26.4-.52,1.06-.76,1.97-1.63,6.52-2.49,9.9-2.59,10.14-.42,1.04-1.18,1.56-2.26,1.56-.5,0-.92-.16-1.26-.47-.34-.31-.52-.72-.52-1.21,0-.21.05-.71.16-1.48l2.51-10.12c0-.05.06-.25.18-.6.12-.35.22-.71.3-1.07.08-.37.11-.7.11-1,0-.81-.26-1.22-.79-1.22-.47,0-.9.38-1.28,1.14-.38.76-.68,1.6-.92,2.5-.24.91-.38,1.38-.43,1.44-.16.23-.42.35-.8.35h-.33c-.62,0-.94-.22-.94-.66Z"/>
    <path d="M342.96,38.16c0-.49.43-.74,1.29-.74h12.25l2.96-11.88c.01-.05.03-.13.06-.24.03-.11.05-.19.08-.24.02-.05.05-.13.08-.24.03-.1.05-.18.08-.23.02-.05.07-.11.12-.19.06-.07.11-.13.16-.17.05-.04.11-.07.17-.1.06-.03.13-.04.21-.04.2,0,.37.09.5.26.13.17.19.38.16.61,0,.15-.2,1.03-.6,2.64-.4,1.6-.86,3.43-1.37,5.48-.51,2.05-.87,3.49-1.09,4.33h11.86c.86,0,1.29.25,1.28.74,0,.5-.42.74-1.24.74h-12.27c-.16.69-.29,1.21-.38,1.53l-2.6,10.38c-.01.05-.03.13-.06.24s-.05.19-.08.24c-.02.05-.05.13-.08.23-.03.1-.05.18-.08.23-.03.05-.06.11-.11.18-.05.07-.1.12-.15.16-.05.04-.11.07-.18.09-.07.03-.14.04-.22.04-.42,0-.63-.25-.63-.75,0-.23.06-.55.18-.97l2.89-11.6h-11.95c-.81,0-1.21-.25-1.21-.74Z"/>
    <path d="M391.93,36.22c0-.08.05-.31.14-.7.09-.39.26-.9.5-1.54.24-.64.54-1.25.9-1.84.36-.59.84-1.09,1.46-1.52.61-.43,1.28-.64,2.01-.64.82,0,1.67.21,2.55.64s1.49,1.15,1.85,2.17c1.83-1.89,3.86-2.84,6.09-2.85,1.7,0,3.05.37,4.05,1.1,1,.74,1.5,1.89,1.5,3.47,0,1.33-.55,3.52-1.64,6.57-1.09,3.05-1.64,4.82-1.64,5.3,0,.51.21.76.63.76.64,0,1.26-.38,1.87-1.13.56-.69,1-1.53,1.32-2.51.32-.98.54-1.53.67-1.65.21-.13.52-.2.94-.2.66,0,1,.23,1.01.68,0,.4-.21,1.07-.63,2-.42.93-1.14,1.88-2.15,2.84-1.01.96-2.13,1.45-3.36,1.45-1.09,0-2.06-.32-2.89-.97-.84-.64-1.26-1.53-1.26-2.65,0-.48.51-2.13,1.54-4.94,1.03-2.81,1.54-4.95,1.54-6.41s-.61-2.25-1.84-2.25c-1.99,0-3.74,1.11-5.24,3.33-.4.59-.71,1.32-.93,2.21-1.34,5.25-2.11,8.26-2.31,9.03s-.4,1.29-.61,1.55c-.51.71-1.19,1.07-2.03,1.09-.48,0-.91-.16-1.27-.47-.36-.31-.55-.72-.55-1.21,0-.18.07-.57.21-1.17l2.51-10.08c.38-1.55.56-2.56.55-3.05,0-.79-.25-1.19-.76-1.19s-.94.38-1.32,1.14-.68,1.6-.92,2.5c-.24.91-.39,1.4-.44,1.47-.16.21-.51.31-1.07.31h-.06c-.62,0-.94-.22-.94-.66Z"/>
    <path d="M415.86,57.65c0-.23.29-.59.86-1.07,2.18-1.86,4.09-4.11,5.72-6.76,1.63-2.64,2.87-5.28,3.71-7.92.84-2.64,1.47-5.06,1.87-7.28.4-2.21.6-4.17.6-5.88,0-1.52-.13-2.93-.4-4.21-.27-1.28-.55-2.24-.85-2.86-.3-.62-.62-1.22-.95-1.78-.33-.56-.51-.87-.54-.92-.08-.18-.06-.35.07-.52.12-.16.3-.24.54-.24s.56.17.98.52c.42.35.87.89,1.36,1.64.49.75.95,1.61,1.38,2.58.42.97.78,2.18,1.07,3.62s.43,2.94.43,4.47c0,2.16-.28,4.44-.84,6.83-.56,2.39-1.39,4.79-2.5,7.19-1.11,2.4-2.6,4.73-4.48,6.98-1.88,2.25-4.01,4.17-6.38,5.74-.35.26-.68.39-.98.39-.44,0-.66-.18-.66-.53Z"/>
    <path d="M455.25,42.61c0-.48.38-.72,1.15-.72h25.33c.72,0,1.17.06,1.35.18.21.13.32.31.33.55,0,.18-.09.35-.28.52-.19.16-.45.24-.77.24h-26c-.74,0-1.11-.25-1.11-.76ZM457.5,33.72c0-.49.38-.74,1.15-.74h25.49c.99,0,1.48.25,1.47.74,0,.5-.34.74-1.01.74h-26c-.74,0-1.11-.25-1.11-.74Z"/>
    <path d="M505.19,46.89c0-.23.05-.57.16-1l5.25-21.22c.3-1.14.49-1.9.56-2.28-.58-.04-1.02-.07-1.32-.07h-.16c-.83,0-1.26-.24-1.27-.71,0-.43.21-.7.65-.81.43-.11,1.38-.19,2.85-.23,1.02-.05,1.86-.09,2.52-.12.03,0,.08,0,.18-.02.09-.01.16-.02.21-.02.64,0,.97.27.97.8l-.12.59-3.83,15.41c.74-.51,1.58-1.22,2.52-2.14.93-.92,1.73-1.73,2.39-2.42.66-.7,1.45-1.32,2.36-1.88.91-.56,1.83-.84,2.76-.84,1.01,0,1.72.33,2.14.99.42.66.63,1.38.63,2.18,0,1.2-.3,2.08-.91,2.64-.61.56-1.27.84-2,.84-.55,0-1.02-.16-1.38-.49-.37-.33-.55-.77-.55-1.33,0-.61.22-1.2.67-1.78.45-.58,1.1-.92,1.96-1.03-.21-.35-.46-.52-.76-.52-.94,0-1.89.39-2.87,1.16-.98.77-2.04,1.77-3.19,2.98-1.14,1.21-2.06,2.07-2.75,2.58v.04c4.1.46,6.15,1.86,6.15,4.22,0,.34-.05.87-.14,1.6-.09.73-.14,1.35-.14,1.86,0,.86.27,1.29.8,1.29.61,0,1.13-.39,1.57-1.16.44-.77.77-1.61.99-2.52.22-.9.38-1.4.47-1.47.17-.18.57-.28,1.2-.29.66,0,.99.21.99.64,0,.18-.11.58-.33,1.2-.22.62-.53,1.32-.93,2.1s-.99,1.47-1.75,2.08c-.76.61-1.6.91-2.51.91-1.17,0-2.22-.37-3.15-1.1s-1.39-1.74-1.39-3.02c0-.21.03-.53.1-.98.06-.44.1-.77.1-1,0-1.45-1.22-2.42-3.66-2.91-1.09,4.78-1.82,7.43-2.2,7.95-.56.69-1.23,1.04-2,1.05-.51,0-.95-.16-1.31-.49-.36-.33-.54-.74-.54-1.25Z"/>
    <path d="M526.58,36.22c0-.08.04-.31.13-.7.09-.39.25-.9.49-1.54.24-.64.53-1.25.89-1.84.35-.59.83-1.09,1.44-1.52s1.27-.64,1.99-.64c.82,0,1.66.21,2.54.64.88.43,1.49,1.15,1.84,2.17,1.83-1.89,3.88-2.84,6.15-2.85,2.95,0,4.73,1.04,5.33,3.12,1.98-2.08,4.15-3.12,6.49-3.12,1.52,0,2.8.35,3.86,1.04,1.06.7,1.58,1.87,1.58,3.53,0,1.33-.54,3.51-1.62,6.55-1.08,3.04-1.62,4.83-1.62,5.36,0,.48.21.72.63.72.56,0,1.08-.26,1.56-.78.48-.52.85-1.08,1.1-1.68.25-.6.49-1.19.69-1.78.21-.59.33-.89.35-.92.13-.18.41-.28.84-.29h.41c.53,0,.8.23.8.68,0,.23-.13.67-.38,1.3-.25.63-.61,1.33-1.08,2.08-.47.76-1.12,1.42-1.94,2-.83.58-1.71.87-2.66.87-1.15,0-2.13-.34-2.95-1.01-.81-.67-1.22-1.54-1.22-2.61,0-.43.51-2.09,1.52-4.98s1.52-5.03,1.52-6.41c0-1.47-.6-2.21-1.81-2.21-1.92,0-3.61,1-5.08,2.99-.56.77-.93,1.54-1.11,2.32-1.71,6.77-2.59,10.23-2.66,10.37-.45,1.02-1.22,1.52-2.29,1.52-.5,0-.92-.16-1.25-.47-.33-.31-.5-.72-.5-1.21,0-.38.49-2.47,1.47-6.29.98-3.81,1.47-6.15,1.47-6.99,0-1.5-.58-2.25-1.75-2.25-2.14,0-3.99,1.18-5.54,3.54-.26.4-.52,1.06-.76,1.97-1.62,6.52-2.49,9.9-2.59,10.14-.42,1.04-1.18,1.56-2.26,1.56-.5,0-.92-.16-1.26-.47-.35-.31-.52-.72-.52-1.21,0-.21.05-.71.16-1.48l2.51-10.12c0-.05.06-.25.18-.6.12-.35.22-.71.3-1.07.08-.37.11-.7.11-1,0-.81-.26-1.22-.79-1.22-.47,0-.9.38-1.28,1.14-.38.76-.68,1.6-.92,2.5-.24.91-.38,1.38-.43,1.44-.16.23-.42.35-.8.35h-.33c-.62,0-.94-.22-.94-.66Z"/>
    <path d="M583.84,38.16c0-.49.43-.74,1.29-.74h12.25l2.96-11.88c.01-.05.03-.13.06-.24s.05-.19.08-.24c.03-.05.05-.13.08-.24.03-.1.05-.18.08-.23.02-.05.07-.11.12-.19.06-.07.11-.13.16-.17s.11-.07.17-.1c.06-.03.13-.04.21-.04.2,0,.37.09.5.26.13.17.19.38.16.61,0,.15-.2,1.03-.6,2.64-.4,1.6-.86,3.43-1.37,5.48-.51,2.05-.88,3.49-1.09,4.33h11.86c.86,0,1.29.25,1.28.74,0,.5-.42.74-1.24.74h-12.27c-.16.69-.29,1.21-.38,1.53l-2.6,10.38c-.01.05-.03.13-.06.24s-.05.19-.08.24c-.02.05-.05.13-.08.23-.03.1-.05.18-.08.23-.03.05-.06.11-.11.18-.05.07-.1.12-.15.16-.05.04-.11.07-.18.09s-.14.04-.22.04c-.42,0-.63-.25-.63-.75,0-.23.06-.55.18-.97l2.89-11.6h-11.95c-.81,0-1.21-.25-1.21-.74Z"/>
    <path d="M632.69,46.89c0-.23.05-.57.16-1l5.25-21.22c.3-1.14.49-1.9.56-2.28-.58-.04-1.02-.07-1.32-.07h-.16c-.83,0-1.26-.24-1.27-.71,0-.43.21-.7.64-.81.43-.11,1.38-.19,2.85-.23,1.02-.05,1.86-.09,2.52-.12.03,0,.08,0,.18-.02.09-.01.16-.02.21-.02.64,0,.97.27.97.8l-.12.59-3.83,15.41c.74-.51,1.58-1.22,2.52-2.14.93-.92,1.73-1.73,2.39-2.42.66-.7,1.45-1.32,2.36-1.88.91-.56,1.83-.84,2.76-.84,1.01,0,1.72.33,2.14.99.42.66.63,1.38.63,2.18,0,1.2-.3,2.08-.91,2.64-.61.56-1.27.84-2,.84-.56,0-1.02-.16-1.39-.49s-.55-.77-.55-1.33c0-.61.22-1.2.67-1.78.45-.58,1.1-.92,1.96-1.03-.21-.35-.46-.52-.76-.52-.94,0-1.89.39-2.87,1.16-.98.77-2.04,1.77-3.19,2.98-1.14,1.21-2.06,2.07-2.75,2.58v.04c4.1.46,6.15,1.86,6.15,4.22,0,.34-.05.87-.14,1.6-.09.73-.14,1.35-.14,1.86,0,.86.27,1.29.8,1.29.61,0,1.13-.39,1.57-1.16.44-.77.77-1.61.99-2.52.22-.9.38-1.4.47-1.47.17-.18.57-.28,1.2-.29.66,0,.99.21.99.64,0,.18-.11.58-.33,1.2-.22.62-.53,1.32-.93,2.1s-.99,1.47-1.75,2.08-1.6.91-2.51.91c-1.17,0-2.22-.37-3.15-1.1s-1.39-1.74-1.39-3.02c0-.21.03-.53.1-.98.07-.44.1-.77.1-1,0-1.45-1.22-2.42-3.66-2.91-1.09,4.78-1.82,7.43-2.2,7.95-.56.69-1.23,1.04-2,1.05-.51,0-.95-.16-1.31-.49-.36-.33-.54-.74-.54-1.25Z"/>
    <path d="M654.08,36.22c0-.08.05-.31.14-.7s.26-.9.5-1.54c.24-.64.54-1.25.9-1.84s.84-1.09,1.46-1.52,1.28-.64,2.01-.64c.82,0,1.67.21,2.55.64s1.49,1.15,1.85,2.17c1.83-1.89,3.86-2.84,6.09-2.85,1.7,0,3.05.37,4.05,1.1,1,.74,1.5,1.89,1.5,3.47,0,1.33-.55,3.52-1.64,6.57-1.09,3.05-1.64,4.82-1.64,5.3,0,.51.21.76.63.76.64,0,1.26-.38,1.87-1.13.56-.69,1-1.53,1.32-2.51.32-.98.54-1.53.67-1.65.21-.13.52-.2.94-.2.66,0,1,.23,1.01.68,0,.4-.21,1.07-.63,2-.42.93-1.14,1.88-2.15,2.84-1.01.96-2.13,1.45-3.36,1.45-1.09,0-2.06-.32-2.89-.97-.84-.64-1.26-1.53-1.26-2.65,0-.48.51-2.13,1.54-4.94s1.54-4.95,1.54-6.41-.61-2.25-1.84-2.25c-1.99,0-3.74,1.11-5.24,3.33-.4.59-.71,1.32-.93,2.21-1.34,5.25-2.11,8.26-2.31,9.03-.2.78-.4,1.29-.61,1.55-.51.71-1.18,1.07-2.03,1.09-.48,0-.91-.16-1.27-.47s-.55-.72-.55-1.21c0-.18.07-.57.21-1.17l2.51-10.08c.38-1.55.56-2.56.55-3.05,0-.79-.25-1.19-.76-1.19s-.94.38-1.32,1.14-.68,1.6-.92,2.5c-.24.91-.39,1.4-.44,1.47-.16.21-.51.31-1.07.31h-.06c-.62,0-.94-.22-.94-.66Z"/>
  </g>
  <g>
    <path d="M99.51,496.73c0-.11.06-.44.19-1s.36-1.28.7-2.18c.34-.9.76-1.77,1.26-2.6.5-.83,1.18-1.55,2.04-2.16.86-.61,1.8-.91,2.82-.91,1.16,0,2.35.3,3.59.91,1.24.61,2.11,1.63,2.6,3.07,2.6-2.67,5.5-4.02,8.7-4.04,4.18,0,6.69,1.47,7.54,4.42,2.8-2.95,5.87-4.42,9.19-4.42,2.14,0,3.96.49,5.46,1.48s2.24,2.65,2.24,4.99c0,1.88-.77,4.97-2.29,9.27-1.53,4.3-2.29,6.83-2.29,7.59,0,.68.3,1.02.89,1.02.79,0,1.53-.37,2.21-1.11.68-.74,1.2-1.53,1.56-2.38.36-.85.69-1.69.98-2.51s.46-1.26.5-1.3c.18-.26.58-.4,1.19-.42h.58c.75,0,1.13.32,1.13.97,0,.33-.18.94-.54,1.84-.36.89-.87,1.88-1.53,2.94-.66,1.07-1.58,2.01-2.75,2.83-1.17.82-2.42,1.23-3.77,1.23-1.62,0-3.01-.47-4.17-1.42-1.15-.95-1.73-2.18-1.73-3.69,0-.61.72-2.96,2.16-7.05,1.44-4.09,2.16-7.11,2.16-9.06,0-2.08-.85-3.12-2.56-3.12-2.71,0-5.11,1.41-7.19,4.23-.79,1.09-1.32,2.18-1.58,3.29-2.41,9.58-3.67,14.47-3.76,14.67-.64,1.44-1.72,2.16-3.25,2.16-.72,0-1.31-.22-1.77-.66-.47-.44-.7-1.01-.7-1.71,0-.53.69-3.5,2.08-8.9,1.38-5.4,2.08-8.7,2.08-9.89,0-2.12-.83-3.18-2.48-3.18-3.03,0-5.65,1.67-7.84,5.01-.37.57-.73,1.5-1.08,2.78-2.3,9.23-3.52,14.01-3.67,14.35-.6,1.47-1.66,2.21-3.2,2.21-.71,0-1.3-.22-1.79-.66s-.73-1.01-.73-1.71c0-.3.07-1,.22-2.09l3.55-14.32c0-.07.09-.36.26-.85.17-.49.31-1,.42-1.52.11-.52.16-.99.16-1.41,0-1.15-.37-1.72-1.11-1.72-.67,0-1.27.54-1.81,1.62s-.97,2.26-1.3,3.54c-.34,1.28-.54,1.96-.61,2.03-.22.33-.6.5-1.13.5h-.47c-.88,0-1.33-.31-1.33-.94Z" fill="#d32a20"/>
    <path d="M157.14,499.46c0-.7.61-1.05,1.82-1.05h17.33l4.19-16.82c.02-.07.05-.18.08-.34.04-.15.07-.26.11-.34.04-.07.07-.18.11-.33.04-.15.07-.26.11-.33.04-.07.09-.16.17-.26.08-.1.16-.18.23-.24.07-.06.15-.1.24-.14.09-.04.19-.06.29-.06.29,0,.52.12.71.37.19.25.26.53.23.86,0,.22-.29,1.46-.85,3.73-.57,2.27-1.22,4.85-1.94,7.75-.73,2.9-1.24,4.94-1.54,6.13h16.78c1.22,0,1.82.35,1.81,1.05,0,.7-.59,1.05-1.76,1.05h-17.36c-.23.98-.41,1.71-.54,2.17l-3.68,14.69c-.02.07-.05.18-.08.34-.04.15-.08.26-.11.33-.04.07-.07.18-.11.32-.04.14-.07.25-.11.32-.04.07-.09.16-.16.25-.07.1-.14.17-.22.23-.07.05-.16.1-.26.13-.1.04-.2.05-.31.05-.6,0-.9-.35-.9-1.05,0-.32.08-.78.25-1.38l4.09-16.42h-16.91c-1.14,0-1.71-.35-1.71-1.05Z" fill="#d32a20"/>
    <path d="M203.02,496.73c0-.11.06-.44.19-1s.36-1.28.71-2.18c.34-.9.76-1.77,1.27-2.6s1.19-1.55,2.06-2.16c.87-.61,1.81-.91,2.85-.91,1.16,0,2.36.3,3.61.91,1.24.61,2.11,1.63,2.61,3.07,2.59-2.67,5.46-4.02,8.62-4.04,2.41,0,4.32.52,5.73,1.56,1.41,1.04,2.12,2.68,2.12,4.91,0,1.88-.77,4.98-2.32,9.3-1.55,4.32-2.32,6.82-2.32,7.5,0,.72.3,1.08.89,1.08.9,0,1.79-.53,2.65-1.6.79-.98,1.41-2.16,1.86-3.55.45-1.39.77-2.17.95-2.34.29-.18.74-.28,1.33-.28.94,0,1.42.32,1.44.97,0,.57-.3,1.52-.9,2.83-.6,1.32-1.61,2.66-3.04,4.02-1.43,1.36-3.01,2.04-4.76,2.04-1.54,0-2.91-.46-4.09-1.37s-1.78-2.16-1.78-3.75c0-.68.73-3.01,2.18-6.99,1.46-3.98,2.18-7,2.18-9.07s-.87-3.18-2.6-3.18c-2.82,0-5.29,1.57-7.41,4.71-.57.83-1.01,1.87-1.32,3.13-1.9,7.42-2.98,11.68-3.26,12.78-.28,1.1-.57,1.83-.86,2.2-.72,1.01-1.68,1.52-2.87,1.54-.68,0-1.28-.22-1.8-.66-.52-.44-.77-1.01-.77-1.71,0-.26.1-.81.3-1.66l3.56-14.26c.53-2.19.79-3.63.77-4.31,0-1.12-.36-1.69-1.07-1.69s-1.34.54-1.86,1.62c-.53,1.08-.96,2.26-1.3,3.54-.34,1.28-.55,1.98-.62,2.09-.22.29-.73.44-1.52.44h-.08c-.88,0-1.33-.31-1.33-.94Z" fill="#d32a20"/>
  </g>
  <path d="M543.45,511.1v-21.97c0-1.01.18-1.69.54-2.03s1.03-.51,2-.51h.91c1.01,0,1.68.18,2,.54s.48,1.01.48,1.95v3.01l.06.06c1.62-3.85,4.26-5.78,7.9-5.78,4.2,0,6.57,1.83,7.1,5.5,1.74-3.67,4.35-5.5,7.84-5.5,2.67,0,4.56.67,5.66,2,1.1,1.34,1.64,3.31,1.64,5.93v16.86c0,.98-.17,1.64-.51,1.98-.34.34-1,.51-1.98.51h-1.24c-1.01,0-1.69-.18-2.03-.54-.34-.36-.51-1.03-.51-2v-16.58c0-1.62-.22-2.78-.65-3.48s-1.24-1.05-2.43-1.05c-1.52,0-2.83.67-3.94,2-1.11,1.34-1.66,3.21-1.66,5.62v13.54c0,.98-.17,1.64-.51,1.98-.34.34-1,.51-1.99.51h-1.24c-1.01,0-1.68-.18-2.02-.54-.34-.36-.51-1.03-.51-2v-16.58c0-1.62-.22-2.78-.65-3.48-.43-.7-1.23-1.05-2.39-1.05-1.51,0-2.82.67-3.94,2-1.12,1.34-1.67,3.21-1.67,5.62v13.54c0,.98-.17,1.64-.51,1.98-.34.34-1,.51-1.98.51h-1.24c-1.01,0-1.69-.18-2.03-.54s-.51-1.03-.51-2Z" fill="#48a346"/>
  <path d="M714.08,493.66c0-2.83-.06-5.15-.23-7.41h4.41l.28,4.53h.11c1.36-2.6,4.53-5.15,9.05-5.15,3.79,0,9.68,2.26,9.68,11.66v16.36h-4.98v-15.79c0-4.41-1.64-8.09-6.34-8.09-3.28,0-5.83,2.32-6.68,5.09-.23.62-.34,1.47-.34,2.32v16.47h-4.98v-19.98Z" fill="#dd8d41"/>
  <path d="M393.59,312.29c0-.33.07-.8.22-1.41l7.43-30.02c.42-1.61.69-2.68.8-3.22-.83-.06-1.45-.09-1.87-.09h-.22c-1.18,0-1.78-.33-1.8-1,0-.61.3-.99.91-1.15s1.95-.27,4.04-.33c1.44-.07,2.63-.13,3.57-.17.04,0,.12,0,.25-.03.13-.02.23-.03.3-.03.91,0,1.37.38,1.37,1.13l-.17.83-5.42,21.81c1.05-.72,2.24-1.73,3.56-3.03s2.45-2.44,3.38-3.43c.93-.99,2.05-1.87,3.34-2.67,1.29-.79,2.59-1.19,3.91-1.19,1.43,0,2.44.47,3.03,1.4.59.93.89,1.96.89,3.08,0,1.7-.43,2.94-1.29,3.73-.86.79-1.8,1.19-2.82,1.19-.79,0-1.44-.23-1.96-.7s-.78-1.09-.78-1.88c0-.86.32-1.7.95-2.52.64-.82,1.56-1.31,2.78-1.45-.29-.49-.65-.74-1.08-.74-1.32,0-2.68.55-4.07,1.64-1.39,1.1-2.89,2.5-4.51,4.21s-2.91,2.93-3.89,3.65v.06c5.8.65,8.7,2.63,8.7,5.97,0,.48-.06,1.23-.19,2.27-.13,1.03-.19,1.91-.19,2.63,0,1.22.38,1.82,1.14,1.82.86,0,1.6-.55,2.22-1.64.62-1.1,1.08-2.28,1.4-3.56.32-1.28.54-1.98.66-2.09.24-.26.8-.4,1.7-.41.93,0,1.4.3,1.4.91,0,.26-.15.82-.46,1.7-.31.88-.75,1.87-1.32,2.97s-1.39,2.09-2.47,2.94-2.26,1.29-3.55,1.29c-1.66,0-3.14-.52-4.46-1.56-1.31-1.04-1.97-2.46-1.97-4.27,0-.29.05-.76.14-1.38.09-.63.14-1.1.14-1.41,0-2.05-1.73-3.42-5.18-4.12-1.54,6.76-2.58,10.51-3.11,11.25-.8.98-1.74,1.47-2.83,1.49-.72,0-1.34-.23-1.85-.69-.51-.46-.76-1.05-.76-1.77Z"/>
  <g>
    <rect x="8.34" y="439.01" width="324.62" height="3" fill="#d32a20"/>
    <polygon points="18.28 452.78 20.33 450.59 9.49 440.52 20.33 430.44 18.28 428.25 5.09 440.52 18.28 452.78" fill="#d32a20"/>
    <polygon points="323.02 452.78 320.97 450.59 331.81 440.52 320.97 430.44 323.02 428.25 336.21 440.52 323.02 452.78" fill="#d32a20"/>
  </g>
  <g>
    <rect x="508.56" y="439.01" width="104.58" height="3" fill="#48a346"/>
    <polygon points="518.5 452.78 520.55 450.59 509.72 440.52 520.55 430.44 518.5 428.25 505.31 440.52 518.5 452.78" fill="#48a346"/>
    <polygon points="603.2 452.78 601.15 450.59 611.99 440.52 601.15 430.44 603.2 428.25 616.39 440.52 603.2 452.78" fill="#48a346"/>
  </g>
  <g>
    <rect x="616.11" y="439.01" width="217.78" height="3" fill="#dd8d41"/>
    <polygon points="626.05 452.78 628.1 450.59 617.26 440.52 628.1 430.44 626.05 428.25 612.86 440.52 626.05 452.78" fill="#dd8d41"/>
    <polygon points="823.95 452.78 821.9 450.59 832.74 440.52 821.9 430.44 823.95 428.25 837.14 440.52 823.95 452.78" fill="#dd8d41"/>
  </g>
  <g>
    <rect x="372.92" y="195.42" width="3" height="207.87"/>
    <polygon points="362.15 205.36 364.35 207.41 374.41 196.58 384.49 207.41 386.68 205.36 374.41 192.17 362.15 205.36"/>
    <polygon points="362.15 393.36 364.35 391.31 374.41 402.15 384.49 391.31 386.68 393.36 374.41 406.55 362.15 393.36"/>
  </g>
  <path d="M887.44,312.29c0-.33.07-.8.22-1.41l7.43-30.02c.42-1.61.69-2.68.8-3.22-.83-.06-1.45-.09-1.87-.09h-.22c-1.18,0-1.78-.33-1.8-1,0-.61.3-.99.91-1.15s1.95-.27,4.04-.33c1.44-.07,2.63-.13,3.57-.17.04,0,.12,0,.25-.03s.23-.03.3-.03c.91,0,1.37.38,1.37,1.13l-.17.83-5.42,21.81c1.05-.72,2.24-1.73,3.56-3.03s2.45-2.44,3.38-3.43c.93-.99,2.05-1.87,3.33-2.67,1.29-.79,2.59-1.19,3.91-1.19,1.43,0,2.44.47,3.03,1.4.59.93.89,1.96.89,3.08,0,1.7-.43,2.94-1.29,3.73-.86.79-1.8,1.19-2.82,1.19-.79,0-1.44-.23-1.96-.7s-.78-1.09-.78-1.88c0-.86.32-1.7.95-2.52.64-.82,1.56-1.31,2.78-1.45-.29-.49-.65-.74-1.08-.74-1.32,0-2.68.55-4.07,1.64-1.39,1.1-2.89,2.5-4.51,4.21-1.62,1.71-2.91,2.93-3.89,3.65v.06c5.8.65,8.7,2.63,8.7,5.97,0,.48-.06,1.23-.19,2.27-.13,1.03-.19,1.91-.19,2.63,0,1.22.38,1.82,1.14,1.82.86,0,1.6-.55,2.22-1.64.62-1.1,1.08-2.28,1.4-3.56.32-1.28.54-1.98.66-2.09.24-.26.8-.4,1.7-.41.93,0,1.4.3,1.4.91,0,.26-.16.82-.46,1.7-.31.88-.75,1.87-1.32,2.97-.57,1.11-1.39,2.09-2.47,2.94s-2.26,1.29-3.55,1.29c-1.66,0-3.14-.52-4.46-1.56-1.32-1.04-1.97-2.46-1.97-4.27,0-.29.05-.76.14-1.38.09-.63.14-1.1.14-1.41,0-2.05-1.73-3.42-5.18-4.12-1.54,6.76-2.58,10.51-3.11,11.25-.8.98-1.74,1.47-2.83,1.49-.72,0-1.34-.23-1.85-.69-.51-.46-.76-1.05-.76-1.77Z"/>
  <g>
    <rect x="866.77" y="195.42" width="3" height="207.87"/>
    <polygon points="856 205.36 858.2 207.41 868.27 196.58 878.34 207.41 880.54 205.36 868.27 192.17 856 205.36"/>
    <polygon points="856 393.36 858.2 391.31 868.27 402.15 878.34 391.31 880.54 393.36 868.27 406.55 856 393.36"/>
  </g>
</svg>