<?xml version="1.0" encoding="UTF-8"?>
<svg id="Ebene_1" data-name="Ebene 1" xmlns="http://www.w3.org/2000/svg" viewBox="0 0 1020 615.95">
  <rect width="1020" height="615.95" fill="#fbf2d8"/>
  <g>
    <rect x="551.5" y="48.45" width="76" height="59" fill="#48a346"/>
    <path d="M629,108.95h-79v-62h79v62ZM553,105.95h73v-56h-73v56Z"/>
  </g>
  <g>
    <rect x="289.5" y="48.45" width="209" height="59" fill="#d32a20"/>
    <path d="M500,108.95h-212v-62h212v62ZM291,105.95h206v-56h-206v56Z"/>
  </g>
  <g>
    <rect x="676.5" y="48.45" width="67" height="59" fill="#dd8d41"/>
    <path d="M745,108.95h-70v-62h70v62ZM678,105.95h64v-56h-64v56Z"/>
  </g>
  <g>
    <rect x="61.31" y="231.68" width="54.53" height="54.53" fill="#d32a20"/>
    <path d="M117.4,287.77h-57.64v-57.64h57.64v57.64ZM62.86,284.66h51.43v-51.43h-51.43v51.43Z"/>
  </g>
  <g>
    <rect x="116.5" y="231.68" width="54.53" height="54.53" fill="#d32a20"/>
    <path d="M172.58,287.77h-57.64v-57.64h57.64v57.64ZM118.05,284.66h51.43v-51.43h-51.43v51.43Z"/>
  </g>
  <g>
    <rect x="171.68" y="231.68" width="54.53" height="54.53" fill="#d32a20"/>
    <path d="M227.77,287.77h-57.64v-57.64h57.64v57.64ZM173.24,284.66h51.43v-51.43h-51.43v51.43Z"/>
  </g>
  <g>
    <rect x="226.87" y="231.68" width="54.53" height="54.53" fill="#d32a20"/>
    <path d="M282.96,287.77h-57.64v-57.64h57.64v57.64ZM228.42,284.66h51.43v-51.43h-51.43v51.43Z"/>
  </g>
  <g>
    <rect x="282.06" y="231.68" width="54.53" height="54.53" fill="#d32a20"/>
    <path d="M338.15,287.77h-57.64v-57.64h57.64v57.64ZM283.61,284.66h51.43v-51.43h-51.43v51.43Z"/>
  </g>
  <g>
    <rect x="337.25" y="231.68" width="54.53" height="54.53" fill="#d32a20"/>
    <path d="M393.33,287.77h-57.64v-57.64h57.64v57.64ZM338.8,284.66h51.43v-51.43h-51.43v51.43Z"/>
  </g>
  <g>
    <rect x="61.31" y="285.45" width="54.53" height="54.53" fill="#d32a20"/>
    <path d="M117.4,341.54h-57.64v-57.64h57.64v57.64ZM62.86,338.43h51.43v-51.43h-51.43v51.43Z"/>
  </g>
  <g>
    <rect x="116.5" y="285.45" width="54.53" height="54.53" fill="#d32a20"/>
    <path d="M172.58,341.54h-57.64v-57.64h57.64v57.64ZM118.05,338.43h51.43v-51.43h-51.43v51.43Z"/>
  </g>
  <g>
    <rect x="171.68" y="285.45" width="54.53" height="54.53" fill="#d32a20"/>
    <path d="M227.77,341.54h-57.64v-57.64h57.64v57.64ZM173.24,338.43h51.43v-51.43h-51.43v51.43Z"/>
  </g>
  <g>
    <rect x="226.87" y="285.45" width="54.53" height="54.53" fill="#d32a20"/>
    <path d="M282.96,341.54h-57.64v-57.64h57.64v57.64ZM228.42,338.43h51.43v-51.43h-51.43v51.43Z"/>
  </g>
  <g>
    <rect x="282.06" y="285.45" width="54.53" height="54.53" fill="#d32a20"/>
    <path d="M338.15,341.54h-57.64v-57.64h57.64v57.64ZM283.61,338.43h51.43v-51.43h-51.43v51.43Z"/>
  </g>
  <g>
    <rect x="337.25" y="285.45" width="54.53" height="54.53" fill="#d32a20"/>
    <path d="M393.33,341.54h-57.64v-57.64h57.64v57.64ZM338.8,338.43h51.43v-51.43h-51.43v51.43Z"/>
  </g>
  <g>
    <rect x="61.31" y="340.64" width="54.53" height="54.53" fill="#d32a20"/>
    <path d="M117.4,396.73h-57.64v-57.64h57.64v57.64ZM62.86,393.62h51.43v-51.43h-51.43v51.43Z"/>
  </g>
  <g>
    <rect x="116.5" y="340.64" width="54.53" height="54.53" fill="#d32a20"/>
    <path d="M172.58,396.73h-57.64v-57.64h57.64v57.64ZM118.05,393.62h51.43v-51.43h-51.43v51.43Z"/>
  </g>
  <g>
    <rect x="171.68" y="340.64" width="54.53" height="54.53" fill="#d32a20"/>
    <path d="M227.77,396.73h-57.64v-57.64h57.64v57.64ZM173.24,393.62h51.43v-51.43h-51.43v51.43Z"/>
  </g>
  <g>
    <rect x="226.87" y="340.64" width="54.53" height="54.53" fill="#d32a20"/>
    <path d="M282.96,396.73h-57.64v-57.64h57.64v57.64ZM228.42,393.62h51.43v-51.43h-51.43v51.43Z"/>
  </g>
  <g>
    <rect x="282.06" y="340.64" width="54.53" height="54.53" fill="#d32a20"/>
    <path d="M338.15,396.73h-57.64v-57.64h57.64v57.64ZM283.61,393.62h51.43v-51.43h-51.43v51.43Z"/>
  </g>
  <g>
    <rect x="337.25" y="340.64" width="54.53" height="54.53" fill="#d32a20"/>
    <path d="M393.33,396.73h-57.64v-57.64h57.64v57.64ZM338.8,393.62h51.43v-51.43h-51.43v51.43Z"/>
  </g>
  <g>
    <rect x="61.31" y="394.41" width="54.53" height="54.53" fill="#d32a20"/>
    <path d="M117.4,450.5h-57.64v-57.64h57.64v57.64ZM62.86,447.39h51.43v-51.43h-51.43v51.43Z"/>
  </g>
  <g>
    <rect x="116.5" y="394.41" width="54.53" height="54.53" fill="#d32a20"/>
    <path d="M172.58,450.5h-57.64v-57.64h57.64v57.64ZM118.05,447.39h51.43v-51.43h-51.43v51.43Z"/>
  </g>
  <g>
    <rect x="171.68" y="394.41" width="54.53" height="54.53" fill="#d32a20"/>
    <path d="M227.77,450.5h-57.64v-57.64h57.64v57.64ZM173.24,447.39h51.43v-51.43h-51.43v51.43Z"/>
  </g>
  <g>
    <rect x="226.87" y="394.41" width="54.53" height="54.53" fill="#d32a20"/>
    <path d="M282.96,450.5h-57.64v-57.64h57.64v57.64ZM228.42,447.39h51.43v-51.43h-51.43v51.43Z"/>
  </g>
  <g>
    <rect x="282.06" y="394.41" width="54.53" height="54.53" fill="#d32a20"/>
    <path d="M338.15,450.5h-57.64v-57.64h57.64v57.64ZM283.61,447.39h51.43v-51.43h-51.43v51.43Z"/>
  </g>
  <g>
    <rect x="337.25" y="394.41" width="54.53" height="54.53" fill="#d32a20"/>
    <path d="M393.33,450.5h-57.64v-57.64h57.64v57.64ZM338.8,447.39h51.43v-51.43h-51.43v51.43Z"/>
  </g>
  <g>
    <rect x="559.41" y="231.68" width="54.53" height="54.53" fill="#48a346"/>
    <path d="M615.5,287.77h-57.64v-57.64h57.64v57.64ZM560.96,284.66h51.43v-51.43h-51.43v51.43Z"/>
  </g>
  <g>
    <rect x="614.6" y="231.68" width="54.53" height="54.53" fill="#48a346"/>
    <path d="M670.69,287.77h-57.64v-57.64h57.64v57.64ZM616.15,284.66h51.43v-51.43h-51.43v51.43Z"/>
  </g>
  <g>
    <rect x="669.78" y="231.68" width="54.53" height="54.53" fill="#dd8d41"/>
    <path d="M725.87,287.77h-57.64v-57.64h57.64v57.64ZM671.34,284.66h51.43v-51.43h-51.43v51.43Z"/>
  </g>
  <g>
    <rect x="724.97" y="231.68" width="54.53" height="54.53" fill="#dd8d41"/>
    <path d="M781.06,287.77h-57.64v-57.64h57.64v57.64ZM726.53,284.66h51.43v-51.43h-51.43v51.43Z"/>
  </g>
  <g>
    <rect x="780.16" y="231.68" width="54.53" height="54.53" fill="#dd8d41"/>
    <path d="M836.25,287.77h-57.64v-57.64h57.64v57.64ZM781.71,284.66h51.43v-51.43h-51.43v51.43Z"/>
  </g>
  <g>
    <rect x="835.35" y="231.68" width="54.53" height="54.53" fill="#dd8d41"/>
    <path d="M891.43,287.77h-57.64v-57.64h57.64v57.64ZM836.9,284.66h51.43v-51.43h-51.43v51.43Z"/>
  </g>
  <g>
    <rect x="559.41" y="285.45" width="54.53" height="54.53" fill="#48a346"/>
    <path d="M615.5,341.54h-57.64v-57.64h57.64v57.64ZM560.96,338.43h51.43v-51.43h-51.43v51.43Z"/>
  </g>
  <g>
    <rect x="614.6" y="285.45" width="54.53" height="54.53" fill="#48a346"/>
    <path d="M670.69,341.54h-57.64v-57.64h57.64v57.64ZM616.15,338.43h51.43v-51.43h-51.43v51.43Z"/>
  </g>
  <g>
    <rect x="669.78" y="285.45" width="54.53" height="54.53" fill="#dd8d41"/>
    <path d="M725.87,341.54h-57.64v-57.64h57.64v57.64ZM671.34,338.43h51.43v-51.43h-51.43v51.43Z"/>
  </g>
  <g>
    <rect x="724.97" y="285.45" width="54.53" height="54.53" fill="#dd8d41"/>
    <path d="M781.06,341.54h-57.64v-57.64h57.64v57.64ZM726.53,338.43h51.43v-51.43h-51.43v51.43Z"/>
  </g>
  <g>
    <rect x="780.16" y="285.45" width="54.53" height="54.53" fill="#dd8d41"/>
    <path d="M836.25,341.54h-57.64v-57.64h57.64v57.64ZM781.71,338.43h51.43v-51.43h-51.43v51.43Z"/>
  </g>
  <g>
    <rect x="835.35" y="285.45" width="54.53" height="54.53" fill="#dd8d41"/>
    <path d="M891.43,341.54h-57.64v-57.64h57.64v57.64ZM836.9,338.43h51.43v-51.43h-51.43v51.43Z"/>
  </g>
  <g>
    <rect x="559.41" y="340.64" width="54.53" height="54.53" fill="#48a346"/>
    <path d="M615.5,396.73h-57.64v-57.64h57.64v57.64ZM560.96,393.62h51.43v-51.43h-51.43v51.43Z"/>
  </g>
  <g>
    <rect x="614.6" y="340.64" width="54.53" height="54.53" fill="#48a346"/>
    <path d="M670.69,396.73h-57.64v-57.64h57.64v57.64ZM616.15,393.62h51.43v-51.43h-51.43v51.43Z"/>
  </g>
  <g>
    <rect x="669.78" y="340.64" width="54.53" height="54.53" fill="#dd8d41"/>
    <path d="M725.87,396.73h-57.64v-57.64h57.64v57.64ZM671.34,393.62h51.43v-51.43h-51.43v51.43Z"/>
  </g>
  <g>
    <rect x="724.97" y="340.64" width="54.53" height="54.53" fill="#dd8d41"/>
    <path d="M781.06,396.73h-57.64v-57.64h57.64v57.64ZM726.53,393.62h51.43v-51.43h-51.43v51.43Z"/>
  </g>
  <g>
    <rect x="780.16" y="340.64" width="54.53" height="54.53" fill="#dd8d41"/>
    <path d="M836.25,396.73h-57.64v-57.64h57.64v57.64ZM781.71,393.62h51.43v-51.43h-51.43v51.43Z"/>
  </g>
  <g>
    <rect x="835.35" y="340.64" width="54.53" height="54.53" fill="#dd8d41"/>
    <path d="M891.43,396.73h-57.64v-57.64h57.64v57.64ZM836.9,393.62h51.43v-51.43h-51.43v51.43Z"/>
  </g>
  <g>
    <rect x="559.41" y="394.41" width="54.53" height="54.53" fill="#48a346"/>
    <path d="M615.5,450.5h-57.64v-57.64h57.64v57.64ZM560.96,447.39h51.43v-51.43h-51.43v51.43Z"/>
  </g>
  <g>
    <rect x="614.6" y="394.41" width="54.53" height="54.53" fill="#48a346"/>
    <path d="M670.69,450.5h-57.64v-57.64h57.64v57.64ZM616.15,447.39h51.43v-51.43h-51.43v51.43Z"/>
  </g>
  <g>
    <rect x="669.78" y="394.41" width="54.53" height="54.53" fill="#dd8d41"/>
    <path d="M725.87,450.5h-57.64v-57.64h57.64v57.64ZM671.34,447.39h51.43v-51.43h-51.43v51.43Z"/>
  </g>
  <g>
    <rect x="724.97" y="394.41" width="54.53" height="54.53" fill="#dd8d41"/>
    <path d="M781.06,450.5h-57.64v-57.64h57.64v57.64ZM726.53,447.39h51.43v-51.43h-51.43v51.43Z"/>
  </g>
  <g>
    <rect x="780.16" y="394.41" width="54.53" height="54.53" fill="#dd8d41"/>
    <path d="M836.25,450.5h-57.64v-57.64h57.64v57.64ZM781.71,447.39h51.43v-51.43h-51.43v51.43Z"/>
  </g>
  <g>
    <rect x="835.35" y="394.41" width="54.53" height="54.53" fill="#dd8d41"/>
    <path d="M891.43,450.5h-57.64v-57.64h57.64v57.64ZM836.9,447.39h51.43v-51.43h-51.43v51.43Z"/>
  </g>
  <text transform="translate(297.44 90.12)" font-family="CMUSerif-BoldItalic, &apos;CMU Serif&apos;" font-size="40" font-style="italic" font-weight="700"><tspan x="0" y="0">k(m + n) = km + kn</tspan></text>
  <text transform="translate(150.15 555.59)" fill="#d32a20" font-family="CMUSerif-BoldItalic, &apos;CMU Serif&apos;" font-size="56.6" font-style="italic" font-weight="700"><tspan x="0" y="0">m+n</tspan></text>
  <text transform="translate(595.38 555.59)" fill="#48a346" font-family="CMUSansSerif-DemiCondensed, &apos;CMU Sans Serif Demi Condensed&apos;" font-size="56.6" font-weight="300"><tspan x="0" y="0">m</tspan></text>
  <text transform="translate(764.95 555.59)" fill="#dd8d41" font-family="MyriadPro-Regular, &apos;Myriad Pro&apos;" font-size="56.6"><tspan x="0" y="0">n</tspan></text>
  <text transform="translate(444.39 356.06)" font-family="CMUSerif-BoldItalic, &apos;CMU Serif&apos;" font-size="56.6" font-style="italic" font-weight="700"><tspan x="0" y="0">k</tspan></text>
  <g>
    <rect x="63.34" y="480.96" width="324.62" height="3" fill="#d32a20"/>
    <polygon points="73.28 494.73 75.33 492.53 64.49 482.46 75.33 472.39 73.28 470.19 60.09 482.46 73.28 494.73" fill="#d32a20"/>
    <polygon points="378.02 494.73 375.97 492.53 386.81 482.46 375.97 472.39 378.02 470.19 391.21 482.46 378.02 494.73" fill="#d32a20"/>
  </g>
  <g>
    <rect x="563.56" y="480.96" width="104.58" height="3" fill="#48a346"/>
    <polygon points="573.5 494.73 575.55 492.53 564.72 482.46 575.55 472.39 573.5 470.19 560.31 482.46 573.5 494.73" fill="#48a346"/>
    <polygon points="658.2 494.73 656.15 492.53 666.99 482.46 656.15 472.39 658.2 470.19 671.39 482.46 658.2 494.73" fill="#48a346"/>
  </g>
  <g>
    <rect x="671.11" y="480.96" width="217.78" height="3" fill="#dd8d41"/>
    <polygon points="681.05 494.73 683.1 492.53 672.26 482.46 683.1 472.39 681.05 470.19 667.86 482.46 681.05 494.73" fill="#dd8d41"/>
    <polygon points="878.95 494.73 876.9 492.53 887.74 482.46 876.9 472.39 878.95 470.19 892.14 482.46 878.95 494.73" fill="#dd8d41"/>
  </g>
  <g>
    <rect x="427.92" y="237.37" width="3" height="207.87"/>
    <polygon points="417.15 247.31 419.35 249.36 429.41 238.52 439.49 249.36 441.68 247.31 429.41 234.12 417.15 247.31"/>
    <polygon points="417.15 435.3 419.35 433.26 429.41 444.09 439.49 433.26 441.68 435.3 429.41 448.5 417.15 435.3"/>
  </g>
  <text transform="translate(938.24 356.06)" font-family="CMUSerif-BoldItalic, &apos;CMU Serif&apos;" font-size="56.6" font-style="italic" font-weight="700"><tspan x="0" y="0">k</tspan></text>
  <g>
    <rect x="921.77" y="237.37" width="3" height="207.87"/>
    <polygon points="911 247.31 913.2 249.36 923.27 238.52 933.34 249.36 935.54 247.31 923.27 234.12 911 247.31"/>
    <polygon points="911 435.3 913.2 433.26 923.27 444.09 933.34 433.26 935.54 435.3 923.27 448.5 911 435.3"/>
  </g>
</svg>