<?xml version="1.0" encoding="UTF-8"?>
<svg id="Ebene_1" data-name="Ebene 1" xmlns="http://www.w3.org/2000/svg" viewBox="0 0 221.17 219.7">
  <defs>
    <style>
      .cls-1, .cls-2, .cls-3, .cls-4, .cls-5, .cls-6, .cls-7, .cls-8, .cls-9, .cls-10 {
        fill: none;
      }

      .cls-1, .cls-2, .cls-3, .cls-4, .cls-5, .cls-6, .cls-7, .cls-9, .cls-10 {
        stroke-miterlimit: 10;
      }

      .cls-1, .cls-6 {
        stroke: #299c9f;
      }

      .cls-2 {
        stroke: #000;
        stroke-width: 2px;
      }

      .cls-2, .cls-4, .cls-6, .cls-7, .cls-8, .cls-10 {
        stroke-linecap: round;
      }

      .cls-11, .cls-12, .cls-13, .cls-14, .cls-15, .cls-16, .cls-17, .cls-18, .cls-19, .cls-20, .cls-21 {
        font-family: Noteworthy-Bold, Noteworthy;
        font-weight: 700;
      }

      .cls-11, .cls-17, .cls-19, .cls-20 {
        font-size: 15px;
      }

      .cls-22, .cls-15 {
        fill: #48a346;
      }

      .cls-3, .cls-7 {
        stroke: #c03b2d;
      }

      .cls-4, .cls-5 {
        stroke: #c23bb7;
      }

      .cls-4, .cls-6, .cls-7 {
        stroke-width: 1.5px;
      }

      .cls-12, .cls-13, .cls-21 {
        font-size: 7px;
      }

      .cls-12, .cls-23, .cls-16, .cls-19 {
        fill: #c03b2d;
      }

      .cls-24, .cls-17, .cls-21 {
        fill: #c23bb7;
      }

      .cls-13, .cls-25, .cls-20 {
        fill: #299c9f;
      }

      .cls-14 {
        font-size: 9px;
      }

      .cls-26 {
        letter-spacing: 0em;
      }

      .cls-15 {
        font-size: 4px;
      }

      .cls-16 {
        font-size: 8px;
      }

      .cls-18 {
        font-size: 10px;
      }

      .cls-8 {
        stroke-linejoin: round;
      }

      .cls-8, .cls-9, .cls-10 {
        stroke: #48a346;
      }

      .cls-27 {
        letter-spacing: -.09em;
      }

      .cls-28 {
        letter-spacing: -.09em;
      }

      .cls-29 {
        fill: #fbf2d8;
      }

      .cls-30 {
        letter-spacing: -.05em;
      }

      .cls-31 {
        letter-spacing: -.04em;
      }

      .cls-32 {
        letter-spacing: -.04em;
      }

      .cls-33 {
        letter-spacing: -.01em;
      }

      .cls-34 {
        letter-spacing: 0em;
      }

      .cls-35 {
        letter-spacing: .03em;
      }

      .cls-36 {
        letter-spacing: .03em;
      }

      .cls-37 {
        letter-spacing: .01em;
      }

      .cls-38 {
        letter-spacing: .01em;
      }
    </style>
  </defs>
  <rect class="cls-29" width="221.17" height="219.7"/>
  <text class="cls-11" transform="translate(15.38 40.96)"><tspan x="0" y="0">60</tspan><tspan x="0" y="30">30</tspan><tspan x="0" y="60">15</tspan><tspan x="0" y="90">5</tspan><tspan x="0" y="120">1</tspan></text>
  <text class="cls-11" transform="translate(64.38 40.96)"><tspan x="0" y="0">2</tspan><tspan x="0" y="30">2</tspan><tspan x="0" y="60">3</tspan><tspan x="0" y="90">5</tspan></text>
  <text class="cls-11" transform="translate(114.38 39.96)"><tspan x="0" y="0">2 • 3 • 5 = 60</tspan></text>
  <text class="cls-14" transform="translate(123.38 24.96)"><tspan x="0" y="0">2</tspan></text>
  <line class="cls-2" x1="49.17" y1="20.26" x2="49.17" y2="203.26"/>
  <path class="cls-9" d="M67.67,20.73c-5.65.7-8.88,4.91-10,6.37-4.92,6.41-2.84,12.29-2,25.46.42,6.62-.05,13.26,0,19.89.12,16.29.18,24.44,0,29.44-.93,26.09-5.15,33.8,2,38.99,4.56,3.31,12.04,4.35,17,2.39,5.98-2.37,7.59-8.8,9-19.1,2.22-16.26,1.84-26.9,2-38.19.23-16.38.15-24.45,0-40.58-.08-8.18-.32-17.67-8-22.28-.88-.53-5.01-3-10-2.39Z"/>
  <g>
    <line class="cls-8" x1="105.17" y1="33.76" x2="82" y2="33.76"/>
    <polygon class="cls-22" points="87.91 30.58 88.25 31.52 82.1 33.76 88.25 36 87.91 36.94 79.17 33.76 87.91 30.58"/>
  </g>
  <g>
    <line class="cls-3" x1="119.67" y1="61.26" x2="119.67" y2="48.09"/>
    <polygon class="cls-23" points="122.86 54 121.92 54.34 119.67 48.18 117.43 54.34 116.5 54 119.67 45.26 122.86 54"/>
  </g>
  <g>
    <line class="cls-5" x1="142.67" y1="61.26" x2="142.67" y2="48.09"/>
    <polygon class="cls-24" points="145.86 54 144.92 54.34 142.67 48.18 140.43 54.34 139.5 54 142.67 45.26 145.86 54"/>
  </g>
  <g>
    <line class="cls-1" x1="166.67" y1="61.26" x2="166.67" y2="48.09"/>
    <polygon class="cls-25" points="169.86 54 168.92 54.34 166.67 48.18 164.43 54.34 163.5 54 166.67 45.26 169.86 54"/>
  </g>
  <g>
    <line class="cls-9" x1="105.17" y1="64.76" x2="82" y2="64.76"/>
    <polygon class="cls-22" points="87.91 61.58 88.25 62.52 82.1 64.76 88.25 67 87.91 67.94 79.17 64.76 87.91 61.58"/>
  </g>
  <text class="cls-19" transform="translate(113.87 77.14)"><tspan x="0" y="0">p</tspan></text>
  <text class="cls-19" transform="translate(123.87 80.14)"><tspan x="0" y="0">= 2</tspan></text>
  <text class="cls-16" transform="translate(119.87 85.14)"><tspan x="0" y="0">1</tspan></text>
  <text class="cls-19" transform="translate(175.87 81.14)"><tspan x="0" y="0">= 2</tspan></text>
  <text class="cls-21" transform="translate(118.87 118.14)"><tspan x="0" y="0">2</tspan></text>
  <text class="cls-21" transform="translate(167.87 118.14)"><tspan x="0" y="0">2</tspan></text>
  <text class="cls-12" transform="translate(169.87 84.14)"><tspan x="0" y="0">1</tspan></text>
  <text class="cls-13" transform="translate(118.87 151.14)"><tspan x="0" y="0">3</tspan></text>
  <text class="cls-13" transform="translate(168.87 151.14)"><tspan x="0" y="0">3</tspan></text>
  <path class="cls-7" d="M168.66,69.44c-5.27,7.28-7.74,8.5-9,8-1.67-.66-2.43-4.82-1-6,.82-.68,2.22-.24,3,0,3.98,1.25,6.13,5.13,7,7"/>
  <path class="cls-3" d="M149.66,84.44c.67-1.67,1.33-3.33,2-5"/>
  <text class="cls-17" transform="translate(123.87 113.14)"><tspan x="0" y="0">= 3</tspan></text>
  <text class="cls-17" transform="translate(175.87 114.14)"><tspan x="0" y="0">= 1</tspan></text>
  <text class="cls-17" transform="translate(113.87 110.14)"><tspan x="0" y="0">p</tspan></text>
  <text class="cls-18" transform="translate(108.72 203.14)"><tspan x="0" y="0" xml:space="preserve">n = 3  w</tspan><tspan class="cls-36" x="34.61" y="0">e</tspan><tspan class="cls-26" x="39.66" y="0" xml:space="preserve">il  2, 3, 5</tspan></text>
  <text class="cls-15" transform="translate(159.72 191.14)"><tspan x="0" y="0">1</tspan></text>
  <text class="cls-15" transform="translate(171.72 191.14)"><tspan x="0" y="0">2</tspan></text>
  <text class="cls-15" transform="translate(182.72 191.14)"><tspan x="0" y="0">3</tspan></text>
  <text class="cls-18" transform="translate(91.87 183.14)"><tspan x="0" y="0">n ... A</tspan><tspan class="cls-33" x="24.21" y="0">n</tspan><tspan class="cls-30" x="29.44" y="0">z</tspan><tspan class="cls-35" x="33.75" y="0">a</tspan><tspan class="cls-37" x="39.35" y="0">h</tspan><tspan x="44.14" y="0">l der Pri</tspan><tspan class="cls-34" x="77.11" y="0">m</tspan><tspan class="cls-28" x="84.17" y="0">f</tspan><tspan class="cls-38" x="87.26" y="0">a</tspan><tspan class="cls-27" x="92.71" y="0">k</tspan><tspan class="cls-31" x="97.04" y="0">t</tspan><tspan x="100.35" y="0">o</tspan><tspan class="cls-32" x="105.54" y="0">r</tspan><tspan x="109.14" y="0">en</tspan></text>
  <path class="cls-4" d="M168.66,102.44c-5.27,7.28-7.74,8.5-9,8-1.67-.66-2.43-4.82-1-6,.82-.68,2.22-.24,3,0,3.98,1.25,6.13,5.13,7,7"/>
  <path class="cls-5" d="M149.66,117.44c.67-1.67,1.33-3.33,2-5"/>
  <text class="cls-20" transform="translate(113.87 142.14)"><tspan x="0" y="0">p</tspan></text>
  <text class="cls-20" transform="translate(123.87 145.14)"><tspan x="0" y="0">= 5</tspan></text>
  <text class="cls-20" transform="translate(175.87 146.14)"><tspan x="0" y="0">= 1</tspan></text>
  <path class="cls-6" d="M168.66,134.44c-5.27,7.28-7.74,8.5-9,8-1.67-.66-2.43-4.82-1-6,.82-.68,2.22-.24,3,0,3.98,1.25,6.13,5.13,7,7"/>
  <path class="cls-1" d="M149.66,149.44c.67-1.67,1.33-3.33,2-5"/>
  <line class="cls-10" x1="104.17" y1="207.26" x2="134.17" y2="207.26"/>
  <line class="cls-10" x1="136.67" y1="209.76" x2="101.67" y2="209.76"/>
</svg>