<?xml version="1.0" encoding="UTF-8"?>
<svg id="Ebene_1" data-name="Ebene 1" xmlns="http://www.w3.org/2000/svg" viewBox="0 0 221.17 219.7">
  <rect width="221.17" height="219.7" fill="#fbf2d8"/>
  <g>
    <path d="M27.81,37.6c0,.27-.14.4-.41.4.12,0-.15-.04-.82-.11-.6-.06-1.27-.12-2.02-.17.01.44.02.88.04,1.31.04.52.14.95.32,1.27.11.21.17.36.17.43,0,.15-.09.37-.28.66-.21.11-.42.17-.62.17s-.38-.06-.54-.17c-.48,0-.71-.57-.71-1.71,0-.16,0-.41.03-.74.02-.33.03-.58.03-.74,0-.05,0-.12.03-.21.02-.09.03-.15.03-.19-.51.01-1.3.09-2.37.23-1.07.14-1.88.22-2.45.22-.42,0-.91-.16-1.44-.49-.6-.36-.9-.74-.9-1.12,0-.45.39-1.04,1.16-1.76.59-.47,1.17-.96,1.74-1.44.93-.75,2.26-1.92,4.01-3.51.29-.34.57-.68.86-1.01.34-.36.72-.54,1.14-.54.29,0,.55.1.78.3.23.2.35.44.35.71,0,.19-.05.41-.15.66l-.21.64c-.05.2-.23,1.23-.52,3.09-.21,1.3-.32,2.12-.32,2.48.19-.06.49-.09.9-.09,1.09,0,1.81.25,2.18.74l.02.7ZM23.52,31.42c-.88.59-1.93,1.4-3.17,2.44-1.62,1.36-2.44,2.24-2.44,2.64,0,.11.09.17.26.17l.11-.02,4.76-.38.47-4.86Z"/>
    <path d="M39.01,37.59c0,.91-.32,1.69-.95,2.33-.63.64-1.41,1.05-2.33,1.23-.48.09-1.02.13-1.65.13-1.31,0-2.43-.25-3.34-.75-1.14-.62-1.71-1.54-1.71-2.74,0-1.32.74-2.44,2.21-3.34-1.08-.74-1.61-1.59-1.61-2.55,0-1.1.48-2,1.43-2.7.85-.64,1.85-.96,3-.96.71,0,1.4.17,2.06.52.66.34,1.2.81,1.61,1.4.14-.08.23-.11.26-.11.24,0,.43.09.57.27.14.18.22.4.22.65,0,.64-.39,1.26-1.16,1.86-.4.31-1.07.7-2.01,1.16,2.26.74,3.39,1.94,3.39,3.6ZM37.26,37.81c0-.73-.47-1.33-1.41-1.82-.45-.23-1.24-.49-2.38-.81-.06-.02-.17-.05-.32-.08-.94.58-1.48.93-1.63,1.05-.58.48-.86,1.02-.86,1.63,0,.75.41,1.31,1.24,1.69.61.28,1.35.41,2.21.41.8,0,1.49-.14,2.06-.43.72-.38,1.09-.92,1.09-1.65ZM36.68,31.73c-.49-.78-.82-1.26-.99-1.44-.4-.39-.94-.58-1.63-.58s-1.34.17-1.88.52c-.61.41-.92.95-.92,1.62,0,.39.27.75.81,1.08.49.31.93.47,1.33.47.25,0,.81-.23,1.67-.69.79-.42,1.32-.75,1.61-.99Z"/>
    <path d="M25.66,69.78c0,.18-.06.35-.19.52-.12.17-.27.25-.45.25-.15,0-.38-.04-.68-.11-.31-.08-.54-.11-.7-.11-1.98,0-3.94.3-5.91.9-.39.11-.64.17-.75.17-.3,0-.56-.09-.78-.27-.22-.18-.33-.42-.33-.72s.16-.63.47-.96c.11-.12.39-.36.84-.71,1.28-1.01,2.41-2.13,3.41-3.36,1.3-1.62,1.95-3.02,1.95-4.18,0-.46-.17-.83-.5-1.12s-.73-.42-1.19-.42c-.51,0-1.07.21-1.68.62-.61.41-.98.86-1.13,1.35-.09.42-.17.85-.24,1.27-.15.55-.41.83-.79.83-.19,0-.42-.11-.68-.32-.27-.21-.4-.41-.4-.58,0-.74.34-1.52,1.03-2.36.62-.77,1.3-1.34,2.02-1.69.64-.3,1.31-.45,2.02-.45.88,0,1.65.31,2.33.94.68.63,1.02,1.38,1.02,2.25,0,1.31-.66,2.72-1.99,4.22-.45.51-1.63,1.63-3.54,3.34-.19.16-.35.32-.49.47l6.15-.92c.06-.01.13-.02.21-.02.29,0,.52.12.69.37.17.24.26.52.26.82Z"/>
    <path d="M39.03,67.6c0,.27-.14.4-.41.4.12,0-.15-.04-.82-.11-.6-.06-1.27-.12-2.02-.17.01.44.02.88.04,1.31.04.52.14.95.32,1.27.11.21.17.36.17.43,0,.15-.09.37-.28.66-.21.11-.42.17-.62.17s-.38-.06-.54-.17c-.48,0-.71-.57-.71-1.71,0-.16,0-.41.03-.74.02-.33.03-.58.03-.74,0-.05,0-.12.03-.21.02-.09.03-.15.03-.19-.51.01-1.3.09-2.37.23-1.07.14-1.88.22-2.45.22-.42,0-.91-.16-1.44-.49-.6-.36-.9-.74-.9-1.12,0-.45.39-1.04,1.16-1.76.59-.47,1.17-.96,1.74-1.44.93-.75,2.26-1.92,4.01-3.51.29-.34.57-.68.86-1.01.34-.36.72-.54,1.14-.54.29,0,.55.1.78.3.23.2.35.44.35.71,0,.19-.05.41-.15.66l-.21.64c-.05.2-.23,1.23-.52,3.09-.21,1.3-.32,2.12-.32,2.48.19-.06.49-.09.9-.09,1.09,0,1.81.25,2.18.74l.02.7ZM34.73,61.42c-.88.59-1.93,1.4-3.17,2.44-1.62,1.36-2.44,2.24-2.44,2.64,0,.11.09.17.26.17l.11-.02,4.76-.38.47-4.86Z"/>
    <path d="M18.95,89.34c0,.14-.08.56-.23,1.26-.38,1.76-.56,3.14-.56,4.12v3.68c0,.97.05,1.52.15,1.65.21.31.32.51.32.58,0,.18-.07.33-.22.46-.14.13-.3.2-.48.2-.26,0-.62-.11-1.07-.32-.15-.33-.23-.61-.23-.86v-7.76l-.3-.23v-.6c-.01-.52.12-1.17.39-1.93.34-.91.71-1.37,1.12-1.37.24,0,.48.13.72.38.24.26.37.5.37.74Z"/>
    <path d="M30.35,99.78c0,.18-.06.35-.19.52-.12.17-.27.25-.45.25-.15,0-.38-.04-.68-.11-.31-.07-.54-.11-.7-.11-1.98,0-3.94.3-5.91.9-.39.11-.64.17-.75.17-.3,0-.56-.09-.78-.27-.22-.18-.33-.42-.33-.72s.16-.63.47-.96c.11-.12.39-.36.84-.71,1.28-1.01,2.41-2.13,3.41-3.36,1.3-1.62,1.95-3.02,1.95-4.18,0-.46-.17-.83-.5-1.12s-.73-.42-1.19-.42c-.51,0-1.07.21-1.68.62-.61.41-.98.86-1.13,1.35-.09.42-.17.85-.24,1.27-.15.55-.41.83-.79.83-.19,0-.42-.11-.68-.32-.27-.21-.4-.41-.4-.58,0-.74.34-1.52,1.03-2.36.62-.77,1.3-1.34,2.02-1.69.64-.3,1.31-.45,2.02-.45.88,0,1.65.31,2.33.94.68.63,1.02,1.38,1.02,2.25,0,1.31-.66,2.72-1.99,4.22-.45.51-1.63,1.62-3.54,3.34-.19.16-.35.32-.49.47l6.15-.92c.06-.01.13-.02.21-.02.29,0,.52.12.69.37.17.24.26.52.26.82Z"/>
    <path d="M25.73,126.65c0,1.39-.5,2.54-1.51,3.47-1.01.92-2.22,1.39-3.63,1.39s-2.61-.49-3.49-1.46c-.83-.94-1.24-2.14-1.24-3.61,0-1.37.39-2.73,1.16-4.08.73-1.29,1.67-2.35,2.85-3.18.94-.67,1.64-1.01,2.1-1.01.26,0,.54.12.83.35.29.23.44.48.44.74,0,.2-.07.38-.2.55-.13.17-.29.25-.48.25-.21,0-.39-.09-.53-.28-.61.09-1.39.62-2.34,1.6-.96,1.02-1.43,1.83-1.41,2.43v.13c1.11-.95,2.15-1.42,3.11-1.42,1.27,0,2.31.38,3.11,1.12s1.2,1.76,1.2,3.02ZM24.03,126.42c0-.79-.23-1.41-.69-1.86-.46-.45-1.08-.67-1.87-.67-.67,0-1.34.22-2,.67s-1.14.99-1.44,1.61c-.06.19-.17.48-.32.86.1.9.37,1.62.8,2.16.5.62,1.17.94,2.02.94,1,0,1.83-.38,2.5-1.12.66-.71.99-1.58.99-2.59Z"/>
    <path d="M26.56,156.61c0,.82-.26,1.56-.79,2.21-1.2,1.51-2.85,2.27-4.95,2.27-.94,0-1.79-.1-2.57-.3-.5-.12-1-.39-1.5-.79-.59-.46-.88-.92-.88-1.37,0-.21.1-.4.29-.57.19-.17.4-.25.61-.25.36,0,.63.17.81.51.24.5.44.82.6.96.41.34,1.1.51,2.06.51.82,0,1.59-.15,2.29-.45.77-.35,1.36-.84,1.74-1.48.27-.46.41-.84.41-1.12,0-.6-.36-1.11-1.09-1.52-.61-.36-1.24-.54-1.88-.54-.18,0-.64.14-1.39.42s-1.34.42-1.78.42c-.24,0-.46-.05-.66-.15-.25-.11-.38-.27-.38-.49,0-.26.14-.54.41-.83.27-.29.77-.45,1.48-.49.88-.05,1.41-.12,1.61-.21.38-.15.84-.54,1.41-1.16.51-.59.77-1.15.77-1.69,0-.69-.36-1.03-1.07-1.03-.4,0-.97.16-1.71.47-.74.31-1.21.61-1.41.9v.06s.03.1.09.26c-.14.29-.4.59-.79.9-.43.33-.78.49-1.07.49-.21,0-.43-.08-.65-.23s-.33-.33-.33-.53c0-.27.17-.63.51-1.07.55-.71,1.36-1.35,2.43-1.9,1.07-.56,2.04-.83,2.92-.83.79,0,1.44.21,1.97.62.57.44.86,1.04.86,1.82,0,.53-.17,1.09-.51,1.71-.31.55-.69,1.01-1.14,1.39,2.16.49,3.24,1.53,3.24,3.11Z"/>
    <path d="M18.95,179.34c0,.14-.08.56-.23,1.26-.38,1.76-.56,3.14-.56,4.12v3.68c0,.97.05,1.52.15,1.65.21.31.32.51.32.58,0,.18-.07.33-.22.46-.14.13-.3.2-.48.2-.26,0-.62-.11-1.07-.32-.15-.33-.23-.61-.23-.86v-7.76l-.3-.22v-.6c-.01-.52.12-1.17.39-1.93.34-.91.71-1.37,1.12-1.37.24,0,.48.13.72.38.24.26.37.5.37.74Z"/>
  </g>
  <g>
    <path d="M74.66,39.78c0,.18-.06.35-.19.52-.12.17-.27.25-.45.25-.15,0-.38-.04-.68-.11-.31-.08-.54-.11-.7-.11-1.98,0-3.94.3-5.91.9-.39.11-.64.17-.75.17-.3,0-.56-.09-.78-.27-.22-.18-.33-.42-.33-.72s.16-.63.47-.96c.11-.12.39-.36.84-.71,1.28-1.01,2.41-2.13,3.41-3.36,1.3-1.62,1.95-3.02,1.95-4.18,0-.46-.17-.83-.5-1.12s-.73-.42-1.19-.42c-.51,0-1.07.21-1.68.62-.61.41-.98.86-1.13,1.35-.09.42-.17.85-.24,1.27-.15.55-.41.83-.79.83-.19,0-.42-.11-.68-.32-.27-.21-.4-.41-.4-.58,0-.74.34-1.52,1.03-2.36.62-.77,1.3-1.34,2.02-1.69.64-.3,1.31-.45,2.02-.45.88,0,1.65.31,2.33.94.68.63,1.02,1.38,1.02,2.25,0,1.31-.66,2.72-1.99,4.22-.45.51-1.63,1.63-3.54,3.34-.19.16-.35.32-.49.47l6.15-.92c.06-.01.13-.02.21-.02.29,0,.52.12.69.37.17.24.26.52.26.82Z"/>
    <path d="M74.66,69.78c0,.18-.06.35-.19.52-.12.17-.27.25-.45.25-.15,0-.38-.04-.68-.11-.31-.08-.54-.11-.7-.11-1.98,0-3.94.3-5.91.9-.39.11-.64.17-.75.17-.3,0-.56-.09-.78-.27-.22-.18-.33-.42-.33-.72s.16-.63.47-.96c.11-.12.39-.36.84-.71,1.28-1.01,2.41-2.13,3.41-3.36,1.3-1.62,1.95-3.02,1.95-4.18,0-.46-.17-.83-.5-1.12s-.73-.42-1.19-.42c-.51,0-1.07.21-1.68.62-.61.41-.98.86-1.13,1.35-.09.42-.17.85-.24,1.27-.15.55-.41.83-.79.83-.19,0-.42-.11-.68-.32-.27-.21-.4-.41-.4-.58,0-.74.34-1.52,1.03-2.36.62-.77,1.3-1.34,2.02-1.69.64-.3,1.31-.45,2.02-.45.88,0,1.65.31,2.33.94.68.63,1.02,1.38,1.02,2.25,0,1.31-.66,2.72-1.99,4.22-.45.51-1.63,1.63-3.54,3.34-.19.16-.35.32-.49.47l6.15-.92c.06-.01.13-.02.21-.02.29,0,.52.12.69.37.17.24.26.52.26.82Z"/>
    <path d="M74.66,99.78c0,.18-.06.35-.19.52-.12.17-.27.25-.45.25-.15,0-.38-.04-.68-.11-.31-.07-.54-.11-.7-.11-1.98,0-3.94.3-5.91.9-.39.11-.64.17-.75.17-.3,0-.56-.09-.78-.27-.22-.18-.33-.42-.33-.72s.16-.63.47-.96c.11-.12.39-.36.84-.71,1.28-1.01,2.41-2.13,3.41-3.36,1.3-1.62,1.95-3.02,1.95-4.18,0-.46-.17-.83-.5-1.12s-.73-.42-1.19-.42c-.51,0-1.07.21-1.68.62-.61.41-.98.86-1.13,1.35-.09.42-.17.85-.24,1.27-.15.55-.41.83-.79.83-.19,0-.42-.11-.68-.32-.27-.21-.4-.41-.4-.58,0-.74.34-1.52,1.03-2.36.62-.77,1.3-1.34,2.02-1.69.64-.3,1.31-.45,2.02-.45.88,0,1.65.31,2.33.94.68.63,1.02,1.38,1.02,2.25,0,1.31-.66,2.72-1.99,4.22-.45.51-1.63,1.62-3.54,3.34-.19.16-.35.32-.49.47l6.15-.92c.06-.01.13-.02.21-.02.29,0,.52.12.69.37.17.24.26.52.26.82Z"/>
    <path d="M74.66,129.78c0,.18-.06.35-.19.52-.12.17-.27.25-.45.25-.15,0-.38-.04-.68-.11-.31-.07-.54-.11-.7-.11-1.98,0-3.94.3-5.91.9-.39.11-.64.17-.75.17-.3,0-.56-.09-.78-.27-.22-.18-.33-.42-.33-.72s.16-.63.47-.96c.11-.12.39-.36.84-.71,1.28-1.01,2.41-2.13,3.41-3.36,1.3-1.62,1.95-3.02,1.95-4.18,0-.46-.17-.83-.5-1.12s-.73-.42-1.19-.42c-.51,0-1.07.21-1.68.62-.61.41-.98.86-1.13,1.35-.09.43-.17.85-.24,1.28-.15.55-.41.83-.79.83-.19,0-.42-.11-.68-.32-.27-.21-.4-.41-.4-.58,0-.74.34-1.52,1.03-2.36.62-.78,1.3-1.34,2.02-1.69.64-.3,1.31-.45,2.02-.45.88,0,1.65.31,2.33.94.68.62,1.02,1.38,1.02,2.25,0,1.31-.66,2.72-1.99,4.22-.45.51-1.63,1.62-3.54,3.34-.19.16-.35.32-.49.47l6.15-.92c.06-.01.13-.02.21-.02.29,0,.52.12.69.37.17.24.26.52.26.82Z"/>
    <path d="M75.56,156.61c0,.82-.26,1.56-.79,2.21-1.2,1.51-2.85,2.27-4.95,2.27-.94,0-1.79-.1-2.57-.3-.5-.12-1-.39-1.5-.79-.59-.46-.88-.92-.88-1.37,0-.21.1-.4.29-.57.19-.17.4-.25.61-.25.36,0,.63.17.81.51.24.5.44.82.6.96.41.34,1.1.51,2.06.51.82,0,1.59-.15,2.29-.45.77-.35,1.36-.84,1.74-1.48.27-.46.41-.84.41-1.12,0-.6-.36-1.11-1.09-1.52-.61-.36-1.24-.54-1.88-.54-.18,0-.64.14-1.39.42s-1.34.42-1.78.42c-.24,0-.46-.05-.66-.15-.25-.11-.38-.27-.38-.49,0-.26.14-.54.41-.83.27-.29.77-.45,1.48-.49.88-.05,1.41-.12,1.61-.21.38-.15.84-.54,1.41-1.16.51-.59.77-1.15.77-1.69,0-.69-.36-1.03-1.07-1.03-.4,0-.97.16-1.71.47-.74.31-1.21.61-1.41.9v.06s.03.1.09.26c-.14.29-.4.59-.79.9-.43.33-.78.49-1.07.49-.21,0-.43-.08-.65-.23s-.33-.33-.33-.53c0-.27.17-.63.51-1.07.55-.71,1.36-1.35,2.43-1.9,1.07-.56,2.04-.83,2.92-.83.79,0,1.44.21,1.97.62.57.44.86,1.04.86,1.82,0,.53-.17,1.09-.51,1.71-.31.55-.69,1.01-1.14,1.39,2.16.49,3.24,1.53,3.24,3.11Z"/>
  </g>
  <g>
    <path d="M143.66,49.78c0,.18-.06.35-.19.52-.12.17-.27.25-.45.25-.15,0-.38-.04-.68-.11-.31-.08-.54-.11-.7-.11-1.98,0-3.94.3-5.91.9-.39.11-.64.17-.75.17-.3,0-.56-.09-.78-.27-.22-.18-.33-.42-.33-.72s.16-.63.47-.96c.11-.12.39-.36.84-.71,1.28-1.01,2.41-2.13,3.41-3.36,1.3-1.62,1.95-3.02,1.95-4.18,0-.46-.17-.83-.5-1.12-.33-.28-.73-.42-1.19-.42-.51,0-1.07.21-1.68.62s-.98.86-1.13,1.35c-.09.42-.17.85-.24,1.27-.15.55-.41.83-.79.83-.19,0-.42-.11-.69-.32-.27-.21-.4-.41-.4-.58,0-.74.34-1.52,1.03-2.36.62-.77,1.3-1.34,2.03-1.69.64-.3,1.31-.45,2.02-.45.88,0,1.65.31,2.33.94.68.63,1.02,1.38,1.02,2.25,0,1.31-.66,2.72-1.99,4.22-.45.51-1.63,1.63-3.54,3.34-.19.16-.35.32-.49.47l6.15-.92c.06-.01.13-.02.21-.02.29,0,.52.12.69.37.17.24.26.52.26.82Z"/>
    <path d="M148.8,45.05c0,.43-.13.8-.39,1.12-.26.32-.6.48-1.01.48-1.23,0-1.84-.49-1.84-1.46,0-.38.16-.7.49-.98s.67-.42,1.03-.42c.39,0,.76.11,1.11.32.41.25.62.57.62.96Z"/>
    <path d="M164.25,46.61c0,.83-.26,1.56-.79,2.21-1.2,1.51-2.85,2.27-4.95,2.27-.94,0-1.79-.1-2.57-.3-.5-.12-1-.39-1.5-.79-.59-.46-.88-.92-.88-1.37,0-.21.1-.4.29-.57.19-.17.4-.25.61-.25.36,0,.63.17.81.51.24.5.44.82.6.96.41.34,1.1.51,2.06.51.82,0,1.59-.15,2.29-.45.78-.35,1.36-.84,1.74-1.48.27-.46.41-.84.41-1.12,0-.6-.36-1.11-1.09-1.52-.61-.36-1.24-.54-1.88-.54-.17,0-.64.14-1.39.42s-1.34.42-1.78.42c-.24,0-.46-.05-.66-.15-.25-.11-.38-.27-.38-.49,0-.26.14-.54.41-.83.28-.29.77-.45,1.48-.49.88-.05,1.41-.12,1.61-.21.38-.15.84-.54,1.41-1.16.51-.59.77-1.15.77-1.69,0-.69-.36-1.03-1.07-1.03-.4,0-.97.16-1.71.47-.74.31-1.21.61-1.41.9v.06s.03.1.09.26c-.14.29-.4.59-.79.9-.43.33-.78.49-1.07.49-.21,0-.43-.08-.65-.23-.22-.16-.33-.33-.33-.53,0-.27.17-.63.51-1.07.55-.71,1.36-1.35,2.43-1.9,1.07-.56,2.04-.83,2.92-.83.79,0,1.44.21,1.97.62.58.44.86,1.04.86,1.82,0,.52-.17,1.09-.51,1.71-.31.55-.69,1.01-1.14,1.39,2.16.49,3.24,1.52,3.24,3.11Z"/>
    <path d="M176.4,44.12c0,.09-.01.19-.04.32-.02.16-.04.27-.04.32-.33.07-.53.11-.62.11-.07,0-.26-.06-.54-.17-.24-.1-1.12-.15-2.66-.15-.7,0-1.39.11-2.08.32l-.21.06c-.16.05-.28.08-.34.08-.19,0-.38-.1-.56-.3-.19-.2-.28-.39-.28-.58v-.69c3.84-.16,5.78-.24,5.83-.24.33,0,.65.08.98.23.38.19.56.42.56.71ZM176.4,47.38c-3.8.16-5.76.24-5.89.24-.99,0-1.48-.27-1.48-.81,0,.05.03-.17.09-.65.33-.08.53-.12.6-.12.11,0,.28.02.51.06.22.04.39.06.51.06.26,0,.66-.02,1.2-.06.54-.04.94-.06,1.22-.06.14,0,.34,0,.61.03.27.02.47.03.59.03.15,0,.37-.04.67-.12.29-.08.52-.12.67-.12.14,0,.29.1.46.3.17.2.25.38.25.52v.69Z"/>
    <path d="M192.78,47.6c0,.27-.14.4-.41.4.12,0-.15-.04-.83-.11-.6-.06-1.27-.12-2.02-.17.01.44.02.88.04,1.31.04.52.14.95.32,1.27.11.21.17.36.17.43,0,.15-.09.37-.28.66-.21.11-.42.17-.62.17s-.38-.06-.54-.17c-.48,0-.71-.57-.71-1.71,0-.16,0-.41.03-.74.02-.33.03-.58.03-.74,0-.05,0-.12.03-.21s.03-.15.03-.19c-.51.01-1.3.09-2.37.23-1.07.14-1.88.22-2.45.22-.42,0-.91-.16-1.44-.49-.6-.36-.9-.74-.9-1.12,0-.45.39-1.04,1.16-1.76.59-.47,1.17-.96,1.74-1.44.92-.75,2.26-1.92,4.01-3.51.29-.34.58-.68.86-1.01.34-.36.72-.54,1.14-.54.29,0,.55.1.78.3.23.2.35.44.35.71,0,.19-.05.41-.15.66l-.21.64c-.05.2-.23,1.23-.53,3.09-.21,1.3-.32,2.12-.32,2.48.19-.06.49-.09.9-.09,1.09,0,1.81.25,2.17.74l.02.7ZM188.49,41.42c-.88.59-1.93,1.4-3.17,2.44-1.62,1.36-2.44,2.24-2.44,2.64,0,.11.09.17.26.17l.11-.02,4.76-.38.47-4.86Z"/>
    <path d="M203.98,47.59c0,.91-.32,1.69-.95,2.33-.63.64-1.41,1.05-2.33,1.23-.48.09-1.03.13-1.65.13-1.31,0-2.42-.25-3.34-.75-1.14-.62-1.71-1.54-1.71-2.74,0-1.32.74-2.44,2.21-3.34-1.08-.74-1.61-1.59-1.61-2.55,0-1.1.47-2,1.42-2.7.85-.64,1.85-.96,3-.96.71,0,1.4.17,2.06.52.66.34,1.2.81,1.61,1.4.14-.08.22-.11.26-.11.24,0,.43.09.57.27s.22.4.22.65c0,.64-.39,1.26-1.16,1.86-.4.31-1.07.7-2.01,1.16,2.26.74,3.39,1.94,3.39,3.6ZM202.23,47.81c0-.73-.47-1.33-1.41-1.82-.45-.23-1.24-.49-2.38-.81-.06-.02-.17-.05-.32-.08-.94.58-1.48.93-1.63,1.05-.58.48-.86,1.02-.86,1.63,0,.75.41,1.31,1.24,1.69.61.28,1.35.41,2.21.41.8,0,1.49-.14,2.06-.43.73-.38,1.09-.92,1.09-1.65ZM201.65,41.73c-.49-.78-.82-1.26-.99-1.44-.4-.39-.94-.58-1.63-.58s-1.34.17-1.88.52c-.61.41-.92.95-.92,1.62,0,.39.27.75.81,1.08.49.31.93.47,1.33.47.25,0,.81-.23,1.67-.69.79-.42,1.32-.75,1.61-.99Z"/>
  </g>
  <path d="M123.25,82.5c0,1.27-.22,2.36-.67,3.24-.56,1.15-1.41,1.73-2.55,1.73-.61,0-1.14-.18-1.58-.52v1.12c0,1.2.14,2.14.41,2.83.12.27.19.45.19.52,0,.42-.25.64-.75.64-.38,0-.66-.07-.84-.21-.14-.09-.28-.4-.41-.94-.11-.48-.17-.84-.17-1.09v-4.52c0-.41.03-.98.08-1.69.05-.8.08-1.36.09-1.67.01-.31.01-.72,0-1.24v-1.26c0-1.06.35-1.59,1.04-1.59.17,0,.33.06.48.18s.22.26.22.42c0,.27-.03.77-.09,1.5.49-.69,1.08-1.03,1.76-1.03.92,0,1.64.38,2.14,1.12.44.65.66,1.46.66,2.44ZM121.58,82.33c0-1.35-.29-2.02-.87-2.02-.25,0-.58.24-.98.73-.78.94-1.21,2.23-1.28,3.88.14.08.38.34.74.79.28.34.55.51.83.51,1.04,0,1.57-1.29,1.57-3.88Z" fill="#c03b2d"/>
  <g>
    <path d="M134.24,83.12c0,.09-.01.19-.04.32-.03.16-.04.27-.04.32-.33.07-.53.11-.62.11-.08,0-.26-.06-.54-.17-.24-.1-1.12-.15-2.66-.15-.7,0-1.39.11-2.08.32l-.21.06c-.16.05-.28.08-.34.08-.19,0-.38-.1-.56-.3-.19-.2-.28-.39-.28-.58v-.69c3.84-.16,5.78-.24,5.83-.24.32,0,.65.08.97.23.38.19.56.42.56.71ZM134.24,86.38c-3.8.16-5.76.24-5.89.24-.99,0-1.48-.27-1.48-.81,0,.05.03-.17.09-.65.33-.08.53-.12.6-.12.11,0,.28.02.51.06.23.04.39.06.51.06.26,0,.66-.02,1.2-.06.54-.04.94-.06,1.22-.06.14,0,.34,0,.61.03.27.02.47.03.59.03.15,0,.37-.04.67-.12.29-.08.52-.12.67-.12.14,0,.29.1.46.3.17.2.25.38.25.52v.69Z" fill="#c03b2d"/>
    <path d="M148.47,88.78c0,.18-.06.35-.19.52-.12.17-.28.25-.45.25-.15,0-.38-.04-.69-.11-.31-.08-.54-.11-.7-.11-1.97,0-3.94.3-5.91.9-.39.11-.64.17-.75.17-.3,0-.56-.09-.78-.27-.22-.18-.33-.42-.33-.72s.16-.63.47-.96c.11-.12.39-.36.84-.71,1.28-1.01,2.41-2.13,3.41-3.36,1.3-1.62,1.95-3.02,1.95-4.18,0-.46-.17-.83-.5-1.12s-.73-.42-1.19-.42c-.51,0-1.07.21-1.68.62-.61.41-.98.86-1.13,1.35-.09.42-.17.85-.24,1.27-.15.55-.41.83-.79.83-.19,0-.42-.11-.68-.32-.27-.21-.4-.41-.4-.58,0-.74.34-1.52,1.03-2.36.62-.77,1.3-1.34,2.02-1.69.64-.3,1.31-.45,2.02-.45.88,0,1.65.31,2.33.94.68.63,1.02,1.38,1.02,2.25,0,1.31-.66,2.72-1.99,4.22-.45.51-1.63,1.63-3.54,3.34-.19.16-.35.32-.49.47l6.15-.92c.06-.01.13-.02.21-.02.29,0,.52.12.69.37.17.24.26.52.26.82Z" fill="#c03b2d"/>
  </g>
  <path d="M124.28,88.76c0,.07-.04.3-.12.67-.2.94-.3,1.67-.3,2.2v1.96c0,.52.03.81.08.88.11.17.17.27.17.31,0,.09-.04.18-.11.25-.08.07-.16.1-.25.1-.14,0-.33-.06-.57-.17-.08-.17-.12-.33-.12-.46v-4.14l-.16-.12v-.32c0-.28.06-.62.21-1.03.18-.49.38-.73.6-.73.13,0,.26.07.39.2.13.14.19.27.19.4Z" fill="#c03b2d"/>
  <line x1="49.17" y1="20.26" x2="49.17" y2="203.26" fill="none" stroke="#000" stroke-linecap="round" stroke-miterlimit="10" stroke-width="2"/>
  <path d="M67.67,20.73c-5.65.67-8.88,4.71-10,6.11-4.92,6.15-2.84,11.79-2,24.43.42,6.35-.05,12.73,0,19.09.12,15.64.18,23.45,0,28.25-.93,25.04-5.15,32.43,2,37.41,4.56,3.18,12.04,4.17,17,2.29,5.98-2.27,7.59-8.44,9-18.32,2.22-15.6,1.84-25.81,2-36.65.23-15.72.15-23.46,0-38.94-.08-7.85-.32-16.96-8-21.38-.88-.51-5.01-2.88-10-2.29Z" fill="none" stroke="#48a346" stroke-miterlimit="10"/>
  <g>
    <line x1="105.17" y1="33.76" x2="82" y2="33.76" fill="none" stroke="#48a346" stroke-linecap="round" stroke-linejoin="round"/>
    <polygon points="87.91 30.58 88.25 31.52 82.1 33.76 88.25 36 87.91 36.94 79.17 33.76 87.91 30.58" fill="#48a346"/>
  </g>
  <g>
    <line x1="138.67" y1="72.26" x2="138.67" y2="59.09" fill="none" stroke="#c03b2d" stroke-miterlimit="10"/>
    <polygon points="141.86 65 140.92 65.34 138.67 59.18 136.43 65.34 135.5 65 138.67 56.26 141.86 65" fill="#c03b2d"/>
  </g>
  <g>
    <line x1="158.67" y1="72.26" x2="158.67" y2="59.09" fill="none" stroke="#c23bb7" stroke-miterlimit="10"/>
    <polygon points="161.86 65 160.92 65.34 158.67 59.18 156.43 65.34 155.5 65 158.67 56.26 161.86 65" fill="#c23bb7"/>
  </g>
  <g>
    <line x1="105.17" y1="64.76" x2="82" y2="64.76" fill="none" stroke="#48a346" stroke-miterlimit="10"/>
    <polygon points="87.91 61.58 88.25 62.52 82.1 64.76 88.25 67 87.91 67.94 79.17 64.76 87.91 61.58" fill="#48a346"/>
  </g>
  <g>
    <line x1="105.17" y1="95.76" x2="82" y2="95.76" fill="none" stroke="#48a346" stroke-miterlimit="10"/>
    <polygon points="87.91 92.58 88.25 93.52 82.1 95.76 88.25 98 87.91 98.94 79.17 95.76 87.91 92.58" fill="#48a346"/>
  </g>
  <g>
    <line x1="105.17" y1="124.76" x2="82" y2="124.76" fill="none" stroke="#48a346" stroke-miterlimit="10"/>
    <polygon points="87.91 121.58 88.25 122.52 82.1 124.76 88.25 127 87.91 127.94 79.17 124.76 87.91 121.58" fill="#48a346"/>
  </g>
  <g>
    <path d="M186.24,84.12c0,.09-.01.19-.04.32-.03.16-.04.27-.04.32-.33.07-.53.11-.62.11-.08,0-.26-.06-.54-.17-.24-.1-1.12-.15-2.66-.15-.7,0-1.39.11-2.08.32l-.21.06c-.16.05-.28.08-.34.08-.19,0-.38-.1-.56-.3-.19-.2-.28-.39-.28-.58v-.69c3.84-.16,5.78-.24,5.83-.24.32,0,.65.08.97.23.38.19.56.42.56.71ZM186.24,87.38c-3.8.16-5.76.24-5.89.24-.99,0-1.48-.27-1.48-.81,0,.05.03-.17.09-.65.33-.08.53-.12.6-.12.11,0,.28.02.51.06.23.04.39.06.51.06.26,0,.66-.02,1.2-.06.54-.04.94-.06,1.22-.06.14,0,.34,0,.61.03.27.02.47.03.59.03.15,0,.37-.04.67-.12.29-.08.52-.12.67-.12.14,0,.29.1.46.3.17.2.25.38.25.52v.69Z" fill="#c03b2d"/>
    <path d="M202.63,87.6c0,.27-.14.4-.41.4.12,0-.15-.04-.83-.11-.6-.06-1.27-.12-2.02-.17.01.44.02.88.04,1.31.04.52.14.95.32,1.27.11.21.17.36.17.43,0,.15-.09.37-.28.66-.21.11-.42.17-.62.17s-.38-.06-.54-.17c-.47,0-.71-.57-.71-1.71,0-.16,0-.41.03-.74.02-.33.03-.58.03-.74,0-.05,0-.12.03-.21.02-.09.03-.15.03-.19-.51.01-1.3.09-2.37.23-1.07.14-1.88.22-2.45.22-.43,0-.91-.16-1.44-.49-.6-.36-.9-.74-.9-1.12,0-.45.39-1.04,1.16-1.76.59-.47,1.17-.96,1.74-1.44.92-.75,2.26-1.92,4.01-3.51.29-.34.58-.68.86-1.01.34-.36.72-.54,1.14-.54.29,0,.55.1.78.3.23.2.35.44.35.71,0,.19-.05.41-.15.66l-.21.64c-.05.2-.22,1.23-.53,3.09-.21,1.3-.32,2.12-.32,2.48.19-.06.49-.09.9-.09,1.09,0,1.81.25,2.17.74l.02.7ZM198.33,81.42c-.88.59-1.93,1.4-3.17,2.44-1.62,1.36-2.44,2.24-2.44,2.64,0,.11.09.17.26.17l.11-.02,4.76-.38.47-4.86Z" fill="#c03b2d"/>
  </g>
  <path d="M126.18,127.41c0,.08-.03.16-.09.24-.06.08-.13.12-.21.12-.07,0-.18-.02-.32-.05-.14-.03-.25-.05-.33-.05-.92,0-1.84.14-2.76.42-.18.05-.3.08-.35.08-.14,0-.26-.04-.36-.13-.1-.08-.15-.2-.15-.34s.07-.29.22-.45c.05-.06.18-.17.39-.33.59-.47,1.13-.99,1.59-1.57.61-.76.91-1.41.91-1.95,0-.22-.08-.39-.23-.52-.15-.13-.34-.2-.55-.2-.24,0-.5.1-.78.29-.28.19-.46.4-.53.63-.04.2-.08.4-.11.59-.07.26-.19.39-.37.39-.09,0-.19-.05-.32-.15-.13-.1-.19-.19-.19-.27,0-.34.16-.71.48-1.1.29-.36.61-.62.95-.79.3-.14.61-.21.94-.21.41,0,.77.15,1.09.44.32.29.48.64.48,1.05,0,.61-.31,1.27-.93,1.97-.21.24-.76.76-1.65,1.56-.09.08-.16.15-.23.22l2.87-.43s.06,0,.1,0c.13,0,.24.06.32.17.08.11.12.24.12.38Z" fill="#c23bb7"/>
  <path d="M175.18,127.41c0,.08-.03.16-.09.24-.06.08-.13.12-.21.12-.07,0-.18-.02-.32-.05-.14-.03-.25-.05-.33-.05-.92,0-1.84.14-2.76.42-.18.05-.3.08-.35.08-.14,0-.26-.04-.36-.13-.1-.08-.15-.2-.15-.34s.07-.29.22-.45c.05-.06.18-.17.39-.33.59-.47,1.13-.99,1.59-1.57.61-.76.91-1.41.91-1.95,0-.22-.08-.39-.23-.52-.15-.13-.34-.2-.55-.2-.24,0-.5.1-.78.29-.28.19-.46.4-.53.63-.04.2-.08.4-.11.59-.07.26-.19.39-.37.39-.09,0-.19-.05-.32-.15-.13-.1-.19-.19-.19-.27,0-.34.16-.71.48-1.1.29-.36.61-.62.95-.79.3-.14.61-.21.94-.21.41,0,.77.15,1.09.44.32.29.48.64.48,1.05,0,.61-.31,1.27-.93,1.97-.21.24-.76.76-1.65,1.56-.09.08-.16.15-.23.22l2.87-.43s.06,0,.1,0c.13,0,.24.06.32.17.08.11.12.24.12.38Z" fill="#c23bb7"/>
  <path d="M174.05,88.54c0,.06-.04.26-.11.59-.18.82-.26,1.46-.26,1.93v1.71c0,.46.02.71.07.77.1.15.15.24.15.27,0,.08-.03.15-.1.21-.07.06-.14.09-.22.09-.12,0-.29-.05-.5-.15-.07-.15-.1-.29-.1-.4v-3.62l-.14-.1v-.28c0-.24.05-.55.18-.9.16-.43.33-.64.53-.64.11,0,.22.06.34.18.11.12.17.23.17.35Z" fill="#c03b2d"/>
  <path d="M171.17,79.26c-5.27,7.28-7.74,8.5-9,8-1.67-.66-2.43-4.82-1-6,.82-.68,2.22-.24,3,0,3.98,1.25,6.13,5.13,7,7" fill="none" stroke="#c03b2d" stroke-linecap="round" stroke-miterlimit="10" stroke-width="1.5"/>
  <path d="M152.17,94.26c.67-1.67,1.33-3.33,2-5" fill="none" stroke="#c03b2d" stroke-miterlimit="10"/>
  <g>
    <path d="M134.24,116.12c0,.09-.01.19-.04.32-.03.16-.04.27-.04.32-.33.08-.53.11-.62.11-.08,0-.26-.06-.54-.17-.24-.1-1.12-.15-2.66-.15-.7,0-1.39.11-2.08.32l-.21.06c-.16.05-.28.07-.34.07-.19,0-.38-.1-.56-.3s-.28-.39-.28-.58v-.69c3.84-.16,5.78-.24,5.83-.24.32,0,.65.08.97.22.38.19.56.43.56.71ZM134.24,119.38c-3.8.16-5.76.24-5.89.24-.99,0-1.48-.27-1.48-.81,0,.05.03-.17.09-.65.33-.08.53-.12.6-.12.11,0,.28.02.51.06.23.04.39.06.51.06.26,0,.66-.02,1.2-.06.54-.04.94-.06,1.22-.06.14,0,.34,0,.61.03.27.02.47.03.59.03.15,0,.37-.04.67-.12.29-.08.52-.12.67-.12.14,0,.29.1.46.3.17.2.25.38.25.52v.69Z" fill="#c23bb7"/>
    <path d="M149.37,118.61c0,.82-.26,1.56-.79,2.21-1.2,1.51-2.85,2.27-4.95,2.27-.94,0-1.79-.1-2.57-.3-.5-.12-1-.39-1.5-.79-.59-.46-.88-.92-.88-1.37,0-.21.1-.4.29-.57.19-.17.4-.25.61-.25.36,0,.63.17.81.51.24.5.44.82.6.96.41.34,1.1.51,2.06.51.82,0,1.59-.15,2.29-.45.77-.35,1.36-.84,1.74-1.48.27-.46.41-.84.41-1.12,0-.6-.36-1.11-1.09-1.52-.61-.36-1.24-.54-1.88-.54-.18,0-.64.14-1.39.42s-1.34.42-1.78.42c-.24,0-.46-.05-.66-.15-.25-.11-.38-.27-.38-.49,0-.26.14-.54.41-.83.27-.29.77-.45,1.48-.49.88-.05,1.41-.12,1.61-.21.38-.15.84-.54,1.41-1.16.51-.59.77-1.15.77-1.69,0-.69-.36-1.03-1.07-1.03-.4,0-.97.16-1.71.47-.74.31-1.21.61-1.41.9v.06s.03.1.09.26c-.14.29-.4.59-.79.9-.42.33-.78.49-1.07.49-.21,0-.43-.08-.65-.23-.22-.16-.33-.33-.33-.53,0-.28.17-.63.51-1.07.55-.71,1.36-1.35,2.43-1.9,1.07-.56,2.04-.83,2.92-.83.79,0,1.44.21,1.97.62.58.44.86,1.04.86,1.82,0,.53-.17,1.09-.51,1.71-.31.55-.69,1.01-1.14,1.39,2.16.49,3.24,1.53,3.24,3.11Z" fill="#c23bb7"/>
  </g>
  <g>
    <path d="M186.24,117.12c0,.09-.01.19-.04.32-.03.16-.04.27-.04.32-.33.08-.53.11-.62.11-.08,0-.26-.06-.54-.17-.24-.1-1.12-.15-2.66-.15-.7,0-1.39.11-2.08.32l-.21.06c-.16.05-.28.07-.34.07-.19,0-.38-.1-.56-.3s-.28-.39-.28-.58v-.69c3.84-.16,5.78-.24,5.83-.24.32,0,.65.08.97.22.38.19.56.43.56.71ZM186.24,120.38c-3.8.16-5.76.24-5.89.24-.99,0-1.48-.27-1.48-.81,0,.05.03-.17.09-.65.33-.08.53-.12.6-.12.11,0,.28.02.51.06.23.04.39.06.51.06.26,0,.66-.02,1.2-.06.54-.04.94-.06,1.22-.06.14,0,.34,0,.61.03.27.02.47.03.59.03.15,0,.37-.04.67-.12.29-.08.52-.12.67-.12.14,0,.29.1.46.3.17.2.25.38.25.52v.69Z" fill="#c23bb7"/>
    <path d="M193.76,112.34c0,.14-.07.56-.22,1.26-.38,1.76-.56,3.14-.56,4.12v3.68c0,.97.05,1.53.15,1.65.21.31.32.51.32.58,0,.18-.07.33-.21.46-.14.13-.3.2-.48.2-.26,0-.62-.11-1.07-.32-.15-.32-.23-.61-.23-.86v-7.76l-.3-.22v-.6c-.01-.52.12-1.17.39-1.93.34-.91.71-1.37,1.12-1.37.24,0,.48.13.72.38s.37.5.37.74Z" fill="#c23bb7"/>
  </g>
  <path d="M123.25,115.5c0,1.28-.22,2.36-.67,3.24-.56,1.15-1.41,1.72-2.55,1.72-.61,0-1.14-.17-1.58-.52v1.12c0,1.2.14,2.14.41,2.83.12.28.19.45.19.53,0,.42-.25.64-.75.64-.38,0-.66-.07-.84-.21-.14-.09-.28-.4-.41-.94-.11-.48-.17-.84-.17-1.09v-4.52c0-.41.03-.97.08-1.69.05-.8.08-1.36.09-1.67s.01-.72,0-1.24v-1.26c0-1.06.35-1.59,1.04-1.59.17,0,.33.06.48.18s.22.26.22.42c0,.28-.03.78-.09,1.5.49-.69,1.08-1.03,1.76-1.03.92,0,1.64.38,2.14,1.12.44.65.66,1.46.66,2.44ZM121.58,115.33c0-1.35-.29-2.03-.87-2.03-.25,0-.58.24-.98.73-.78.94-1.21,2.23-1.28,3.88.14.08.38.34.74.79.28.34.55.51.83.51,1.04,0,1.57-1.29,1.57-3.88Z" fill="#c23bb7"/>
  <path d="M171.17,112.26c-5.27,7.28-7.74,8.5-9,8-1.67-.66-2.43-4.82-1-6,.82-.68,2.22-.24,3,0,3.98,1.25,6.13,5.13,7,7" fill="none" stroke="#c23bb7" stroke-linecap="round" stroke-miterlimit="10" stroke-width="1.5"/>
  <path d="M152.17,127.26c.67-1.67,1.33-3.33,2-5" fill="none" stroke="#c23bb7" stroke-miterlimit="10"/>
  <g>
    <path d="M111.99,201.74c-.12.19-.28.29-.46.29-.14,0-.38-.08-.7-.25v-.15c0-.18,0-.46.01-.81,0-.36.01-.62.01-.79,0-1.78-.27-2.68-.8-2.68-.15,0-.32.12-.51.35-.59.72-.88,1.58-.88,2.59,0,.14.03.35.08.63.05.28.08.49.08.63,0,.12-.05.21-.16.29-.11.07-.23.11-.35.11-.5,0-.75-.32-.75-.95v-2.61c0-.07,0-.16.03-.29.02-.13.02-.23.02-.29,0-.1-.01-.25-.04-.44s-.04-.33-.04-.42c0-.13.08-.26.23-.38.15-.12.29-.18.42-.18.18,0,.37.1.56.31l-.04.5c.31-.49.69-.74,1.14-.74.29,0,.6.1.92.3.33.2.56.42.71.67.34.63.51,1.47.51,2.5v1.81Z"/>
    <path d="M119.85,197.27c0,.06,0,.13-.03.21-.02.11-.02.18-.02.21-.22.05-.35.07-.41.07-.05,0-.17-.04-.36-.11-.16-.07-.75-.1-1.77-.1-.47,0-.93.07-1.39.21l-.14.04c-.11.03-.18.05-.22.05-.12,0-.25-.07-.38-.2-.12-.13-.19-.26-.19-.39v-.46c2.56-.11,3.85-.16,3.89-.16.22,0,.43.05.65.15.25.12.38.28.38.47ZM119.85,199.44c-2.53.11-3.84.16-3.92.16-.66,0-.99-.18-.99-.54,0,.03.02-.11.06-.44.22-.05.35-.08.4-.08.08,0,.19.01.34.04.15.02.26.04.34.04.18,0,.44-.01.8-.04.36-.03.63-.04.81-.04.09,0,.23,0,.41.02.18.01.31.02.39.02.1,0,.25-.03.44-.08.2-.05.34-.08.44-.08.09,0,.19.07.31.2s.17.25.17.35v.46Z"/>
    <path d="M129.34,201.04c0,.12-.04.23-.12.34-.08.11-.18.17-.3.17-.1,0-.25-.02-.46-.08-.2-.05-.36-.07-.47-.07-1.32,0-2.63.2-3.94.6-.26.07-.42.11-.5.11-.2,0-.37-.06-.52-.18-.15-.12-.22-.28-.22-.48s.1-.42.31-.64c.07-.08.26-.24.56-.47.85-.68,1.61-1.42,2.27-2.24.87-1.08,1.3-2.01,1.3-2.79,0-.31-.11-.56-.33-.74s-.49-.28-.79-.28c-.34,0-.71.14-1.12.41-.4.28-.66.58-.76.9-.06.28-.11.57-.16.85-.1.37-.28.55-.53.55-.12,0-.28-.07-.46-.21-.18-.14-.27-.27-.27-.39,0-.49.23-1.02.69-1.58.42-.52.87-.89,1.35-1.12.43-.2.88-.3,1.35-.3.58,0,1.1.21,1.56.62.45.42.68.92.68,1.5,0,.88-.44,1.81-1.33,2.81-.3.34-1.09,1.08-2.36,2.22-.12.11-.23.21-.33.31l4.1-.61s.09-.01.14-.01c.19,0,.35.08.46.24.12.16.17.34.17.54Z"/>
    <path d="M138.5,197.95c0,.75-.14,1.53-.41,2.33-.36,1.05-.83,1.57-1.42,1.57-.56,0-1.02-.35-1.39-1.04-.25.73-.65,1.1-1.19,1.1-.69,0-1.2-.47-1.51-1.42-.22-.65-.32-1.41-.32-2.29,0-.55.02-1,.06-1.34.12-.18.27-.27.46-.27.17,0,.34.05.51.16.17.11.26.24.26.39,0,.11-.03.27-.08.48-.05.21-.08.37-.08.48,0,1.83.19,2.75.58,2.75s.66-.51.79-1.53c.04-.38.06-1.05.06-2.01,0-.32.18-.47.55-.47.41,0,.61.23.61.69,0,.04,0,.1-.01.17,0,.08-.01.13-.01.16v1.41c0,1.05.19,1.57.58,1.57.33,0,.57-.38.74-1.15.12-.53.19-1.05.19-1.56,0-.43-.02-.69-.06-.76,0-.02-.05-.07-.14-.15-.05-.07-.08-.13-.08-.19,0-.15.07-.29.2-.41.13-.12.27-.18.42-.18.22,0,.4.2.54.6.11.31.16.61.16.9Z"/>
    <path d="M143.34,200.73c0,.42-.28.74-.85.97-.44.18-.9.28-1.39.28-1.28,0-1.92-.73-1.92-2.19,0-.6.15-1.27.44-2,.36-.9.79-1.35,1.3-1.35.46,0,.95.2,1.48.61s.79.83.79,1.27c0,.55-.25.99-.74,1.31-.43.29-.95.44-1.55.44-.12,0-.3-.07-.56-.21.03.79.27,1.19.7,1.19.37,0,.73-.1,1.08-.31s.58-.31.68-.31c.36,0,.54.1.54.3ZM141.98,198.37c0-.21-.06-.41-.18-.59s-.28-.28-.48-.28c-.28,0-.49.12-.64.36-.12.21-.19.46-.19.74,0,.16.05.29.16.39s.25.15.41.15c.61,0,.91-.25.91-.76Z"/>
    <path d="M145.69,197.02c0,.15-.03.36-.1.64-.07.27-.1.49-.1.64v2.58c0,.16.05.41.15.75-.13.19-.26.29-.42.29-.53,0-.82-.26-.87-.79-.08-.98-.12-1.71-.12-2.2,0-.82.03-1.52.1-2.07v-.12c0-.15.12-.23.35-.23.21,0,.41.04.62.12.26.09.4.23.4.4ZM145.8,195.27c0,.18-.06.33-.19.45-.12.12-.28.17-.46.17-.22,0-.42-.07-.61-.22s-.28-.33-.28-.55c0-.18.06-.33.19-.45.13-.12.29-.17.48-.17.23,0,.43.07.6.22s.26.33.26.56Z"/>
    <path d="M147.75,201.49c0,.15-.06.28-.18.38-.12.1-.26.16-.42.16-.53,0-.79-.69-.79-2.06,0-.62,0-1.56.02-2.81.01-1.25.02-2.19.02-2.81,0-.1-.01-.25-.04-.44-.02-.19-.04-.33-.04-.43.27-.18.49-.28.65-.28.18,0,.36.06.53.18s.25.27.25.46c0,.09-.02.2-.06.32-.06.2-.09.31-.1.33-.11.52-.16,1.25-.16,2.2v2.32c.03,1.05.11,1.78.26,2.2.04.12.06.21.06.27Z"/>
    <path d="M159.1,201.04c0,.12-.04.23-.12.34-.08.11-.18.17-.3.17-.1,0-.25-.02-.46-.08-.2-.05-.36-.07-.47-.07-1.32,0-2.63.2-3.94.6-.26.07-.42.11-.5.11-.2,0-.37-.06-.52-.18-.15-.12-.22-.28-.22-.48s.1-.42.31-.64c.08-.08.26-.24.56-.47.85-.68,1.61-1.42,2.27-2.24.87-1.08,1.3-2.01,1.3-2.79,0-.31-.11-.56-.33-.74s-.49-.28-.79-.28c-.34,0-.71.14-1.12.41-.4.28-.66.58-.76.9-.06.28-.11.57-.16.85-.1.37-.27.55-.52.55-.12,0-.28-.07-.46-.21-.18-.14-.27-.27-.27-.39,0-.49.23-1.02.69-1.58.42-.52.87-.89,1.35-1.12.42-.2.88-.3,1.35-.3.58,0,1.1.21,1.56.62.45.42.68.92.68,1.5,0,.88-.44,1.81-1.33,2.81-.3.34-1.09,1.08-2.36,2.22-.12.11-.23.21-.33.31l4.1-.61s.09-.01.14-.01c.19,0,.35.08.46.24.12.16.17.34.17.54Z"/>
    <path d="M159.96,201.25c0-.19.09-.36.26-.51.17-.15.37-.23.59-.23.24,0,.45.11.62.33.17.22.26.49.26.81,0,.35-.03.64-.1.86-.07.23-.18.44-.35.65-.17.22-.35.4-.56.56-.21.15-.4.23-.56.23-.13-.02-.23-.07-.29-.16-.06-.09-.05-.19.04-.31.17-.09.32-.2.47-.34.15-.13.25-.3.32-.51.04-.12.06-.24.04-.38-.01-.14-.09-.25-.23-.34s-.26-.18-.36-.28c-.1-.09-.15-.22-.15-.39Z"/>
    <path d="M171.46,198.93c0,.55-.17,1.04-.53,1.48-.8,1.01-1.9,1.51-3.3,1.51-.62,0-1.2-.07-1.71-.2-.33-.08-.67-.26-1-.53-.39-.31-.59-.61-.59-.91,0-.14.06-.27.19-.38s.26-.17.41-.17c.24,0,.42.11.54.34.16.33.29.54.4.64.28.23.73.34,1.38.34.55,0,1.06-.1,1.53-.3.52-.23.9-.56,1.16-.99.18-.31.28-.56.28-.75,0-.4-.24-.74-.73-1.01-.41-.24-.82-.36-1.25-.36-.12,0-.42.09-.92.28s-.9.28-1.19.28c-.16,0-.3-.03-.44-.1-.17-.08-.25-.18-.25-.33,0-.17.09-.36.28-.55.18-.19.51-.3.99-.33.58-.03.94-.08,1.08-.14.25-.1.56-.36.94-.78.34-.39.51-.77.51-1.12,0-.46-.24-.69-.71-.69-.27,0-.65.1-1.14.31-.49.21-.8.41-.94.6v.04s.02.07.06.17c-.09.19-.27.39-.52.6-.28.22-.52.33-.71.33-.14,0-.29-.05-.43-.16-.15-.11-.22-.22-.22-.36,0-.18.11-.42.34-.71.37-.48.91-.9,1.62-1.27.71-.37,1.36-.56,1.94-.56.53,0,.96.14,1.31.41.38.29.58.7.58,1.21,0,.35-.11.73-.34,1.14-.21.37-.46.67-.76.92,1.44.33,2.16,1.02,2.16,2.08Z"/>
  </g>
  <path d="M156.15,186.73s-.02.15-.06.33c-.1.47-.15.84-.15,1.1v.98c0,.26.01.41.04.44.06.08.09.13.09.15,0,.05-.02.09-.06.12-.04.04-.08.05-.13.05-.07,0-.17-.03-.29-.09-.04-.09-.06-.16-.06-.23v-2.07l-.08-.06v-.16c0-.14.03-.31.1-.52.09-.24.19-.36.3-.36.06,0,.13.03.19.1.06.07.1.13.1.2Z" fill="#48a346"/>
  <path d="M169.94,189.51s-.02.09-.05.14c-.03.05-.07.07-.12.07-.04,0-.1,0-.18-.03-.08-.02-.14-.03-.19-.03-.53,0-1.05.08-1.58.24-.1.03-.17.04-.2.04-.08,0-.15-.02-.21-.07-.06-.05-.09-.11-.09-.19s.04-.17.12-.25c.03-.03.1-.1.22-.19.34-.27.64-.57.91-.9.35-.43.52-.8.52-1.11,0-.12-.04-.22-.13-.3-.09-.07-.19-.11-.32-.11-.14,0-.29.06-.45.17-.16.11-.26.23-.3.36-.02.11-.04.23-.07.34-.04.15-.11.22-.21.22-.05,0-.11-.03-.18-.08-.07-.06-.11-.11-.11-.16,0-.2.09-.41.28-.63.17-.21.35-.36.54-.45.17-.08.35-.12.54-.12.23,0,.44.08.62.25.18.17.27.37.27.6,0,.35-.18.72-.53,1.12-.12.14-.44.43-.95.89-.05.04-.09.08-.13.12l1.64-.25s.04,0,.05,0c.08,0,.14.03.19.1s.07.14.07.22Z" fill="#48a346"/>
  <g>
    <path d="M95.14,181.74c-.12.19-.28.29-.46.29-.14,0-.38-.08-.7-.25v-.15c0-.18,0-.45.01-.81,0-.36.01-.62.01-.79,0-1.78-.27-2.68-.8-2.68-.15,0-.32.12-.51.35-.59.72-.88,1.58-.88,2.59,0,.14.03.35.08.63.05.28.08.49.08.63,0,.12-.05.21-.16.29-.11.07-.23.11-.35.11-.5,0-.75-.32-.75-.95v-2.61c0-.07,0-.17.03-.29.02-.13.02-.23.02-.29,0-.1-.01-.25-.04-.44-.03-.19-.04-.33-.04-.42,0-.13.08-.26.23-.38.15-.12.29-.18.42-.18.18,0,.37.1.56.31l-.04.5c.31-.49.69-.74,1.14-.74.29,0,.6.1.92.3s.56.42.71.67c.34.63.51,1.47.51,2.5v1.81Z"/>
    <path d="M99.89,181.33c0,.14-.12.28-.38.42-.25.14-.46.21-.62.21-.18,0-.38-.07-.59-.21-.21-.14-.31-.31-.31-.5,0-.17.09-.31.26-.44.17-.13.35-.19.53-.19.22,0,.46.07.7.2.27.16.41.33.41.53Z"/>
    <path d="M102.28,181.33c0,.14-.12.28-.38.42-.25.14-.46.21-.62.21-.18,0-.38-.07-.59-.21-.21-.14-.31-.31-.31-.5,0-.17.09-.31.26-.44.17-.13.35-.19.53-.19.22,0,.46.07.7.2.27.16.41.33.41.53Z"/>
    <path d="M104.67,181.33c0,.14-.12.28-.38.42-.25.14-.46.21-.62.21-.18,0-.38-.07-.59-.21-.21-.14-.31-.31-.31-.5,0-.17.09-.31.26-.44.17-.13.35-.19.53-.19.22,0,.46.07.7.2.27.16.41.33.41.53Z"/>
    <path d="M113.94,179.62c0,.4-.18.6-.54.61.04.19.13.45.28.78,0,.18-.08.33-.23.45-.14.12-.31.17-.5.17-.15,0-.33-.05-.52-.14-.11-.22-.16-.47-.16-.77,0-.08,0-.18.01-.33,0-.14.01-.25.01-.31,0,.06-.14.09-.41.09-.47,0-1.02.02-1.66.06-.92.05-1.42.12-1.49.21s-.13.54-.16,1.34c-.11.16-.25.24-.41.24-.18,0-.35-.07-.54-.22-.18-.15-.27-.3-.27-.47,0-.06.07-.29.22-.7.17-.59.44-1.48.81-2.66,1.12-3.06,2.05-4.59,2.79-4.59s1.28.81,1.68,2.42c.17.73.34,1.84.49,3.34.22.05.35.09.41.12.13.08.2.19.2.35ZM112.19,179.14c-.37-2.91-.7-4.36-.99-4.36-.23,0-.64.68-1.23,2.05-.42.98-.75,1.84-.99,2.56.27-.06.66-.13,1.19-.21.48-.06,1.15-.07,2.01-.04Z"/>
    <path d="M119.35,181.74c-.12.19-.28.29-.46.29-.14,0-.38-.08-.7-.25v-.15c0-.18,0-.45.01-.81,0-.36.01-.62.01-.79,0-1.78-.26-2.68-.79-2.68-.15,0-.32.12-.51.35-.59.72-.88,1.58-.88,2.59,0,.14.03.35.08.63.05.28.08.49.08.63,0,.12-.05.21-.16.29-.11.07-.22.11-.35.11-.5,0-.75-.32-.75-.95v-2.61c0-.07,0-.17.03-.29.02-.13.02-.23.02-.29,0-.1-.01-.25-.04-.44-.03-.19-.04-.33-.04-.42,0-.13.08-.26.23-.38.15-.12.29-.18.42-.18.18,0,.37.1.56.31l-.04.5c.31-.49.69-.74,1.14-.74.29,0,.6.1.92.3s.56.42.71.67c.34.63.51,1.47.51,2.5v1.81Z"/>
    <path d="M124.2,177.19c0,.18-.03.33-.1.45-.04.08-.13.18-.26.31-.49.49-.98.99-1.46,1.48-.67.72-1.07,1.24-1.19,1.57.08,0,.15.01.21.01.19,0,.48-.04.86-.11.38-.07.67-.11.86-.11.53,0,.89.22,1.08.65l-.21.26h-.34c-.3,0-.73.04-1.3.13-.57.1-.99.14-1.26.14s-.52-.07-.72-.2c-.25-.15-.38-.35-.38-.61,0-.31.19-.72.57-1.22.23-.3.63-.75,1.19-1.34.53-.55.87-.92,1-1.11h-.06c-.42-.01-.83.11-1.24.37-.41.25-.63.38-.66.38-.16,0-.29-.06-.4-.18-.11-.12-.16-.26-.16-.42,0-.28.43-.55,1.29-.81.73-.21,1.29-.31,1.69-.31.67,0,1,.22,1,.66Z"/>
    <path d="M128.92,179.7c0,1.08-.03,1.83-.1,2.27-.04.26-.22.39-.53.39-.47,0-.67-.23-.62-.7-.42.2-.85.3-1.3.3s-.85-.11-1.24-.33c-.47-.26-.7-.59-.7-.99s.27-.76.8-1.1c.48-.31.94-.46,1.36-.46h1.06v-.3c0-.87-.25-1.3-.77-1.3-.66,0-.99.31-.99.92,0,.21-.12.31-.35.31-.14,0-.29-.06-.44-.19-.15-.13-.23-.26-.23-.41,0-.47.17-.85.5-1.15.33-.3.73-.45,1.2-.45,1.57,0,2.35,1.06,2.35,3.19ZM127.65,180.15c0-.17-.12-.25-.38-.25-1.04,0-1.56.25-1.56.74,0,.27.23.4.69.4.28,0,.55-.08.8-.24.3-.17.45-.39.45-.65Z"/>
    <path d="M133.99,182.03c-.16.16-.37.24-.62.24-.17,0-.35-.11-.54-.33v-1.7c0-1.85-.27-2.77-.8-2.77s-.83.75-.83,2.24v.72c0,.12.02.31.06.57.04.25.06.44.06.57,0,.11-.06.21-.19.29-.13.09-.25.13-.36.13-.21,0-.39-.08-.53-.26-.15-.17-.22-.36-.22-.57l.05-7.24v-.19c0-.3.17-.45.5-.45.16,0,.34.07.55.22s.31.29.31.45c0,.18-.04.46-.12.82-.08.36-.12.63-.12.82,0,.23,0,.61.03,1.12.18-.11.34-.16.46-.16.33,0,.68.08,1.06.24.49.21.83.55,1.03,1.01.14.35.21.83.21,1.45v2.79Z"/>
    <path d="M136.18,181.49c0,.15-.06.28-.18.38-.12.1-.26.16-.42.16-.53,0-.79-.69-.79-2.06,0-.62,0-1.56.02-2.81.01-1.25.02-2.19.02-2.81,0-.1-.01-.25-.04-.44-.02-.19-.04-.33-.04-.43.27-.18.49-.27.65-.27.18,0,.36.06.53.18.17.12.25.27.25.46,0,.09-.02.2-.06.32-.06.2-.09.31-.1.33-.11.52-.16,1.25-.16,2.2v2.33c.03,1.05.11,1.78.26,2.2.04.12.06.21.06.27Z"/>
    <path d="M143.25,174.23c0,.18-.02.42-.07.71-.07.39-.11.62-.12.7-.03.26-.07,1.02-.12,2.29-.05,1.27-.08,1.97-.08,2.1,0,.8.09,1.4.26,1.8-.14.23-.3.35-.49.35s-.36-.07-.51-.22c-.15-.15-.23-.31-.25-.51-.39.36-.79.54-1.2.54-.61,0-1.08-.21-1.41-.64-.31-.38-.46-.89-.46-1.51,0-.73.15-1.48.45-2.24.38-.96.88-1.44,1.5-1.44.37,0,.74.16,1.12.49.04-.39.06-1.39.06-3,0-.15.11-.23.34-.23.27,0,.5.07.69.2.2.13.29.33.29.6ZM141.8,178.47c0-.28-.06-.54-.19-.78-.16-.28-.37-.42-.62-.42-.38,0-.66.37-.86,1.11-.15.53-.22,1.06-.22,1.58,0,.77.22,1.16.67,1.16s.8-.35,1.01-1.04c.14-.47.21-1,.21-1.61Z"/>
    <path d="M148,180.73c0,.42-.28.74-.85.98-.44.18-.9.27-1.39.27-1.28,0-1.92-.73-1.92-2.19,0-.6.15-1.27.44-2,.36-.9.79-1.35,1.3-1.35.46,0,.95.2,1.48.61s.79.83.79,1.28c0,.55-.25.99-.74,1.31-.43.29-.95.44-1.55.44-.12,0-.3-.07-.56-.21.03.79.27,1.19.7,1.19.37,0,.73-.1,1.08-.31.35-.21.58-.31.68-.31.36,0,.54.1.54.3ZM146.64,178.37c0-.21-.06-.41-.18-.59-.12-.19-.28-.28-.48-.28-.28,0-.49.12-.64.36-.12.21-.19.46-.19.74,0,.16.05.29.16.39.11.1.25.15.41.15.61,0,.91-.25.91-.76Z"/>
    <path d="M151.93,177.53c0,.06,0,.15-.02.27-.17.25-.36.38-.55.38-.16,0-.3-.09-.43-.27-.02-.38-.15-.56-.4-.56-.15,0-.33.4-.55,1.19-.1.35-.15.84-.15,1.46,0,.59.03.95.08,1.08.06.16.09.27.09.33,0,.14-.06.26-.19.34-.13.09-.27.13-.43.13-.45,0-.67-.21-.67-.62,0-.04,0-.1.03-.17.02-.08.03-.13.03-.16,0-.43-.02-1.06-.06-1.89-.04-.84-.06-1.46-.06-1.88,0-.38.22-.56.67-.56.27,0,.45.08.55.24.23-.26.5-.39.79-.39.2,0,.39.05.57.16.12.07.27.21.44.43.17.22.25.39.25.52Z"/>
    <path d="M160.83,176.65c0,.18-.01.35-.04.49-.33,1.92-1.24,2.89-2.74,2.89-.77,0-1.45-.2-2.06-.59v.26c0,.56.04.94.15,1.15.16.29.24.46.24.5,0,.17-.07.31-.19.44s-.28.19-.44.19c-.38,0-.63-.13-.76-.4-.08-.16-.12-.45-.15-.89-.02-.28-.02-.61-.02-.97,0-.14.02-.35.06-.64.04-.28.06-.5.06-.65v-.85c0-.25,0-.62.05-1.11s.06-.85.06-1.08v-1.12s-.04-.24-.11-.67c.21-.2.42-.3.61-.3.22,0,.4.08.53.24.13.16.2.36.2.59v.17c.55-.72,1.25-1.09,2.09-1.09.79,0,1.42.3,1.88.89.41.53.61,1.21.61,2.03v.53ZM159.69,176.45c0-.58-.09-1.07-.26-1.48-.24-.55-.61-.82-1.11-.82-.64,0-1.19.39-1.65,1.17-.41.68-.61,1.37-.61,2.06,0,1.16.58,1.74,1.75,1.74.62,0,1.08-.27,1.38-.81.17-.3.33-.85.47-1.64.03-.16.04-.23.04-.22Z"/>
    <path d="M164.96,177.53c0,.06,0,.15-.02.27-.17.25-.36.38-.55.38-.16,0-.3-.09-.43-.27-.02-.38-.15-.56-.4-.56-.15,0-.33.4-.55,1.19-.1.35-.15.84-.15,1.46,0,.59.03.95.08,1.08.06.16.09.27.09.33,0,.14-.06.26-.19.34-.13.09-.27.13-.43.13-.45,0-.67-.21-.67-.62,0-.04,0-.1.03-.17.02-.08.03-.13.03-.16,0-.43-.02-1.06-.06-1.89-.04-.84-.06-1.46-.06-1.88,0-.38.22-.56.67-.56.27,0,.45.08.55.24.23-.26.5-.39.79-.39.2,0,.39.05.57.16.12.07.27.21.44.43.17.22.25.39.25.52Z"/>
    <path d="M167.09,177.02c0,.15-.03.36-.1.64-.07.27-.1.49-.1.64v2.58c0,.16.05.41.15.75-.13.19-.26.29-.42.29-.53,0-.82-.26-.87-.79-.08-.97-.12-1.71-.12-2.2,0-.82.03-1.52.1-2.07v-.12c0-.15.12-.23.35-.23.21,0,.41.04.62.12.26.09.4.23.4.4ZM167.2,175.27c0,.18-.06.33-.19.45-.12.12-.28.17-.46.17-.22,0-.42-.08-.61-.23-.19-.15-.28-.33-.28-.55,0-.18.06-.33.19-.45.13-.12.29-.17.48-.17.23,0,.43.07.6.22.17.15.26.33.26.56Z"/>
    <path d="M174.03,181.8c-.28.17-.49.26-.64.26-.11,0-.27-.06-.5-.17v-1.38c0-2.22-.18-3.33-.54-3.33-.27,0-.49.34-.66,1.01-.12.49-.19.95-.19,1.36v1.15c0,.06.02.14.06.26.04.11.06.2.06.26,0,.13-.07.25-.21.36-.14.1-.28.16-.41.16-.14,0-.28-.07-.42-.21s-.21-.28-.21-.41v-2.33c0-.94-.11-1.41-.32-1.41-.03,0-.11.08-.22.24-.6.8-.9,1.66-.9,2.58,0,.13.02.33.06.58.04.25.06.44.06.57,0,.17-.05.3-.16.41-.1.11-.24.16-.41.16-.19,0-.35-.07-.46-.2-.04-.06-.09-.25-.15-.59-.05-.31-.08-.52-.08-.64v-2.72c0-.2.05-.46.15-.8.12-.4.26-.6.4-.6.17,0,.32.06.45.19.13.13.19.27.17.43.24-.4.55-.6.94-.6.47,0,.86.32,1.16.95.16-.38.3-.63.43-.77.21-.24.47-.36.77-.36s.62.16.94.49c.55.56.83,1.51.83,2.86v2.24Z"/>
    <path d="M179.03,174.37c0,.14-.07.26-.21.35s-.28.14-.42.14c-.11,0-.22-.05-.35-.15,0-.17-.04-.27-.1-.32-.06-.04-.18-.07-.36-.07-.36,0-.62.45-.78,1.34-.08.51-.13,1.1-.14,1.77h.31c.35,0,.6.14.75.41l-.11.47c-.16.08-.43.12-.82.12-.07,0-.12,0-.16.01-.02.27-.04.58-.04.9v1.14c0,.44.07.9.2,1.36-.33.18-.56.28-.71.28-.2,0-.36-.15-.47-.46-.1-.24-.15-.48-.15-.72,0-.15.02-.95.05-2.4-.27.03-.4.04-.39.04-.14,0-.27-.05-.38-.14-.11-.09-.16-.21-.16-.36,0-.26.11-.42.33-.5.12-.03.33-.05.65-.05.03-.08.04-.34.04-.76,0-.86.14-1.6.41-2.23.38-.83.94-1.25,1.69-1.25.38,0,.68.08.92.25.27.2.4.48.4.83Z"/>
    <path d="M182.43,179.7c0,1.08-.03,1.83-.1,2.27-.04.26-.22.39-.53.39-.47,0-.67-.23-.62-.7-.42.2-.85.3-1.3.3s-.85-.11-1.24-.33c-.47-.26-.7-.59-.7-.99s.27-.76.8-1.1c.48-.31.94-.46,1.36-.46h1.06v-.3c0-.87-.25-1.3-.77-1.3-.66,0-.99.31-.99.92,0,.21-.12.31-.35.31-.14,0-.29-.06-.44-.19-.15-.13-.23-.26-.23-.41,0-.47.17-.85.5-1.15.33-.3.73-.45,1.2-.45,1.57,0,2.35,1.06,2.35,3.19ZM181.16,180.15c0-.17-.12-.25-.38-.25-1.04,0-1.56.25-1.56.74,0,.27.23.4.69.4.28,0,.55-.08.8-.24.3-.17.45-.39.45-.65Z"/>
    <path d="M188.2,182.22c-.32.23-.57.35-.75.35-.24,0-.59-.25-1.05-.75-.33-.35-.65-.7-.96-1.06-.18-.22-.47-.52-.88-.91l-.04.02v1.1c0,.07.03.16.08.29.05.13.08.23.08.31,0,.12-.06.22-.18.31-.12.09-.24.13-.37.13-.22,0-.4-.07-.54-.21s-.21-.32-.21-.54v-1.65c0-.1.01-.25.04-.46.03-.2.04-.36.04-.46v-3.36c0-.51-.04-.92-.1-1.23-.03-.14-.05-.25-.05-.32,0-.16.1-.3.29-.43.17-.12.33-.17.5-.17.12,0,.26.05.41.14.15.1.22.2.22.32,0,.03-.03.15-.08.35-.05.2-.08.51-.08.92,0,.13-.01,1.25-.04,3.34.03-.03.48-.45,1.35-1.24.72-.67,1.14-1,1.27-1,.44,0,.66.27.64.81v.12c-.36.21-.82.54-1.39.99-.72.56-1.08.93-1.08,1.11,0,.02.23.28.68.79.43.48.69.78.8.9.5.53.97.88,1.41,1.08v.4Z"/>
    <path d="M190.76,177.35c0,.23-.34.38-1.03.48-.02.18-.02.6-.02,1.25v.83c0,.17.02.41.08.74.05.33.07.57.07.72,0,.13-.07.25-.2.36-.13.1-.27.16-.4.16-.21,0-.38-.18-.53-.54-.11-.28-.16-.54-.16-.8v-2.65c-.38-.06-.6-.1-.66-.11-.22-.07-.33-.16-.33-.29,0-.03,0-.07.02-.11.22-.31.46-.46.73-.46h.08s.06.01.07.01c.18,0,.26-.2.25-.61v-.91c-.04-.09-.06-.17-.06-.24,0-.11.06-.21.19-.29.13-.09.25-.13.37-.13.17,0,.34.08.5.24.16.16.24.33.24.52,0,.2-.03.4-.09.59-.06.2-.09.4-.08.61v.05c.65.07.97.27.97.6Z"/>
    <path d="M195.43,179.37c0,.75-.19,1.39-.56,1.92-.43.61-1.01.91-1.72.91s-1.29-.25-1.66-.75c-.34-.44-.51-1.04-.51-1.8s.19-1.46.56-2.12c.43-.79,1-1.19,1.69-1.19.22,0,.49.1.81.29.93.56,1.4,1.47,1.4,2.74ZM194.33,179.34c0-1.28-.31-1.91-.92-1.91-.44,0-.78.27-1,.81-.17.41-.25.87-.25,1.39,0,1.11.33,1.66.99,1.66.42,0,.74-.23.95-.69.16-.35.24-.77.24-1.26Z"/>
    <path d="M199.43,177.53c0,.06,0,.15-.02.27-.17.25-.36.38-.55.38-.16,0-.3-.09-.43-.27-.02-.38-.15-.56-.4-.56-.15,0-.33.4-.55,1.19-.1.35-.15.84-.15,1.46,0,.59.03.95.08,1.08.06.16.09.27.09.33,0,.14-.06.26-.19.34-.13.09-.27.13-.43.13-.45,0-.67-.21-.67-.62,0-.04,0-.1.03-.17.02-.08.03-.13.03-.16,0-.43-.02-1.06-.06-1.89-.04-.84-.06-1.46-.06-1.88,0-.38.22-.56.67-.56.27,0,.45.08.55.24.23-.26.5-.39.79-.39.2,0,.39.05.57.16.12.07.27.21.44.43.17.22.25.39.25.52Z"/>
    <path d="M203.85,180.73c0,.42-.28.74-.85.98-.44.18-.9.27-1.39.27-1.28,0-1.92-.73-1.92-2.19,0-.6.15-1.27.44-2,.36-.9.79-1.35,1.3-1.35.46,0,.95.2,1.48.61s.79.83.79,1.28c0,.55-.25.99-.74,1.31-.43.29-.95.44-1.55.44-.12,0-.3-.07-.56-.21.03.79.27,1.19.7,1.19.37,0,.73-.1,1.08-.31.35-.21.58-.31.68-.31.36,0,.54.1.54.3ZM202.49,178.37c0-.21-.06-.41-.18-.59-.12-.19-.28-.28-.48-.28-.28,0-.49.12-.64.36-.12.21-.19.46-.19.74,0,.16.05.29.16.39.11.1.25.15.41.15.61,0,.91-.25.91-.76Z"/>
    <path d="M209.03,181.74c-.12.19-.28.29-.46.29-.14,0-.38-.08-.7-.25v-.15c0-.18,0-.45.01-.81,0-.36.01-.62.01-.79,0-1.78-.27-2.68-.8-2.68-.15,0-.32.12-.51.35-.59.72-.88,1.58-.88,2.59,0,.14.03.35.08.63.05.28.08.49.08.63,0,.12-.05.21-.16.29-.11.07-.23.11-.35.11-.5,0-.75-.32-.75-.95v-2.61c0-.07,0-.17.03-.29s.02-.23.02-.29c0-.1-.01-.25-.04-.44-.03-.19-.04-.33-.04-.42,0-.13.08-.26.23-.38.15-.12.29-.18.42-.18.18,0,.37.1.56.31l-.04.5c.31-.49.69-.74,1.14-.74.29,0,.6.1.92.3s.56.42.71.67c.34.63.51,1.47.51,2.5v1.81Z"/>
  </g>
  <line x1="102.66" y1="205.95" x2="132.66" y2="205.95" fill="none" stroke="#48a346" stroke-linecap="round" stroke-miterlimit="10"/>
  <line x1="135.16" y1="208.45" x2="100.16" y2="208.45" fill="none" stroke="#48a346" stroke-linecap="round" stroke-miterlimit="10"/>
  <path d="M149.69,36.26c0,.16-.08.24-.25.24.07,0-.09-.02-.5-.07-.36-.04-.77-.07-1.21-.1,0,.26.01.52.02.79.02.31.09.57.19.77.07.13.1.21.1.26,0,.09-.06.22-.17.39-.13.07-.25.1-.37.1s-.23-.03-.33-.1c-.29,0-.43-.34-.43-1.02,0-.1,0-.25.02-.44.01-.2.02-.35.02-.44,0-.03,0-.07.02-.12.01-.05.02-.09.02-.11-.31,0-.78.05-1.42.14-.64.09-1.13.13-1.47.13-.25,0-.54-.1-.87-.29-.36-.22-.54-.44-.54-.67,0-.27.23-.62.7-1.06.35-.29.7-.57,1.05-.87.56-.45,1.36-1.15,2.41-2.1.17-.2.34-.4.52-.61.2-.22.43-.33.69-.33.17,0,.33.06.47.18s.21.26.21.43c0,.11-.03.24-.09.39l-.12.38c-.03.12-.14.74-.32,1.86-.13.78-.19,1.27-.19,1.48.11-.04.29-.06.54-.06.65,0,1.09.15,1.3.44v.42ZM147.11,32.55c-.53.35-1.16.84-1.9,1.46-.97.82-1.46,1.35-1.46,1.59,0,.07.05.1.16.1h.07s2.86-.24,2.86-.24l.28-2.91Z"/>
</svg>