<?xml version="1.0" encoding="UTF-8"?>
<svg id="Ebene_1" data-name="Ebene 1" xmlns="http://www.w3.org/2000/svg" viewBox="0 0 987 698">
  <rect width="987" height="698" fill="#f9f2db"/>
  <path d="M258,660H45.53l174.72-120.77c23.8,34.26,37.75,75.89,37.75,120.77Z" fill="#30628b"/>
  <path d="M944,497.4v162.6h-168.99c18.31-82.8,85.06-147.41,168.99-162.6Z" fill="#f0c34e"/>
  <path d="M944,39v212c-72.3,0-136.15-36.2-174.41-91.46l174.41-120.54Z" fill="#c03b2d"/>
  <path d="M949,665H29.5L949,29.47v635.53ZM61.56,655h877.44V48.53l-166.57,115.12L223.09,543.34l-161.54,111.66Z"/>
  <path d="M178.58,624.53c-2.7-3.31-4.05-7.33-4.05-12.05s1.33-8.76,4-12.11,5.88-5.02,9.64-5.02c1.5,0,2.91.34,4.22,1.01,1.31.67,2.4,1.48,3.28,2.42.88.94,1.71,2.14,2.51,3.62.8,1.48,1.41,2.78,1.83,3.91.42,1.13.86,2.42,1.32,3.86l2.05-5.35,3.14-9.47h4.55c-2.76,8.69-5.25,15.41-7.49,20.17-.27.61-.3,1.23-.07,1.87,1.73,5.09,3.53,7.63,5.4,7.63.36,0,.66-.1.89-.29.23-.19.37-.38.43-.55.06-.17.09-.31.09-.42h4.55c-.09,1.82-.73,3.24-1.93,4.24s-2.54,1.5-4.02,1.5c-.98,0-1.93-.22-2.84-.67-.91-.45-1.62-.88-2.14-1.29s-1.09-1.12-1.73-2.14c-.64-1.01-1.03-1.67-1.16-1.98s-.43-.95-.89-1.92c-3.46,5.34-7.44,8-11.93,8-3.74,0-6.96-1.66-9.66-4.97ZM179.07,612.88c.05,2.35.36,4.39.94,6.1.58,1.72,1.36,2.99,2.34,3.83.98.84,1.94,1.42,2.87,1.76.93.34,1.89.51,2.87.51,2.89,0,5.74-1.94,8.54-5.83,1.07-1.72,1.61-2.71,1.61-2.98,0-.32-.21-1.24-.62-2.78-.46-1.63-.78-2.76-.97-3.41-.19-.64-.54-1.64-1.03-3-.49-1.36-.95-2.36-1.37-3.02-.42-.66-.93-1.37-1.54-2.15-.6-.78-1.29-1.33-2.07-1.66-.77-.33-1.63-.49-2.56-.49-1.03,0-2.01.19-2.94.56-.93.37-1.87.95-2.8,1.73-.93.78-1.69,1.96-2.27,3.54s-.92,3.46-1.01,5.63v1.66Z" fill="#fff"/>
  <path d="M864.53,627.29v-40.49c0-1.91.04-3.51.14-4.8.09-1.29.39-2.78.91-4.47s1.23-3.05,2.14-4.08c.91-1.02,2.24-1.9,3.97-2.63,1.73-.73,3.83-1.09,6.3-1.09,4.14,0,7.43.88,9.87,2.62s3.65,4.88,3.65,9.39c0,2.56-.65,4.56-1.96,5.99s-2.98,2.64-5.02,3.62c7.02,1.63,10.53,6.18,10.53,13.67,0,4.3-1.53,7.79-4.59,10.46-3.06,2.68-6.56,4.01-10.5,4.01-4.45,0-8.08-2.35-10.89-7.04v14.83h-4.54ZM869.07,602.13c0,2.36.24,4.26.72,5.71.71,2.18,1.91,4.08,3.61,5.71s3.87,2.45,6.49,2.45c2.84,0,5.34-1.01,7.5-3.04,2.16-2.03,3.24-4.68,3.24-7.95,0-1.64-.22-3.08-.67-4.33-.44-1.25-.95-2.27-1.5-3.05-.56-.79-1.37-1.47-2.44-2.07-1.07-.59-1.98-1.02-2.73-1.3-.75-.27-1.83-.49-3.23-.67s-2.38-.27-2.94-.29c-.56-.02-1.51-.06-2.85-.1v-2.8c1.6-.09,2.92-.22,3.98-.38,1.05-.16,2.39-.61,4.03-1.36s2.85-1.75,3.65-3c.71-1.07,1.05-2.32,1.03-3.75,0-3.3-.79-5.61-2.38-6.92-1.59-1.32-3.78-1.98-6.59-1.98-1.21,0-2.31.16-3.29.49-.98.33-1.78.71-2.38,1.16-.61.44-1.13,1.08-1.57,1.92-.45.84-.78,1.57-.99,2.19-.22.62-.37,1.5-.46,2.64-.09,1.13-.15,2.02-.17,2.65-.02.63-.04,1.55-.04,2.75v15.31Z"/>
  <path d="M863.54,152.3c.09-1.96.75-3.44,1.97-4.44,1.22-1,2.58-1.5,4.08-1.5.93,0,1.85.26,2.75.77.9.51,1.63,1.07,2.2,1.67.57.6,1.16,1.44,1.76,2.51.6,1.07,1.01,1.84,1.21,2.31.21.47.5,1.15.89,2.03,1.91,4.63,3.21,8.34,3.9,11.14,3.08-7.47,5.83-12.73,8.25-15.76,2.43-3.03,5.33-4.59,8.7-4.68v4.34c-2.37.09-4.3.98-5.78,2.68-1.48,1.69-3.01,4.31-4.58,7.85-1.07,2.38-1.98,4.74-2.73,7.08s-1.24,4.09-1.47,5.25c-.23,1.15-.34,1.92-.34,2.28.52,4.73.77,8.35.75,10.84,0,.98-.21,1.75-.63,2.31-.42.56-.84.91-1.26,1.05-.42.14-.86.21-1.32.21-.41,0-.83-.07-1.25-.21-.42-.14-.84-.49-1.26-1.05-.42-.56-.63-1.33-.63-2.31,0-2.68.35-6.38,1.06-11.11,0-.41-.22-1.81-.67-4.2-.44-2.39-1.07-5.18-1.86-8.37-.8-3.19-1.87-6.02-3.23-8.51-1.36-2.48-2.8-3.72-4.32-3.72-.27,0-.51.05-.7.15-.19.1-.35.22-.46.36-.12.14-.19.28-.24.43-.04.15-.09.27-.14.38l-.07.22h-4.58Z" fill="#fff"/>
</svg>