<?xml version="1.0" encoding="UTF-8"?>
<svg id="Ebene_1" data-name="Ebene 1" xmlns="http://www.w3.org/2000/svg" viewBox="0 0 1266 854.67">
  <rect y=".33" width="1266" height="854" fill="#f9f2db"/>
  <g>
    <rect x=".47" y="0" width="240" height="170.67" fill="#c03b2d"/>
    <path d="M238.47,2v166.67H2.47V2h236M240.47,0H.47v170.67h240V0h0Z" fill="#faf3dc"/>
  </g>
  <g>
    <rect x="240" y="0" width="171" height="170.67" fill="#e2d3aa"/>
    <path d="M409,2v166.67h-167V2h167M411,0h-171v170.67h171V0h0Z" fill="#faf3dc"/>
  </g>
  <g>
    <rect x="411" y="0" width="171" height="170.67" fill="#e2d3aa"/>
    <path d="M580,2v166.67h-167V2h167M582,0h-171v170.67h171V0h0Z" fill="#faf3dc"/>
  </g>
  <g>
    <rect x="582" y="0" width="171" height="170.67" fill="#e2d3aa"/>
    <path d="M751,2v166.67h-167V2h167M753,0h-171v170.67h171V0h0Z" fill="#faf3dc"/>
  </g>
  <g>
    <rect x="753" y="0" width="171" height="170.67" fill="#e2d3aa"/>
    <path d="M922,2v166.67h-167V2h167M924,0h-171v170.67h171V0h0Z" fill="#faf3dc"/>
  </g>
  <g>
    <rect x="924" y="0" width="171" height="170.67" fill="#e2d3aa"/>
    <path d="M1093,2v166.67h-167V2h167M1095,0h-171v170.67h171V0h0Z" fill="#faf3dc"/>
  </g>
  <g>
    <rect x="1095" y="0" width="171" height="170.67" fill="#e2d3aa"/>
    <path d="M1264,2v166.67h-167V2h167M1266,0h-171v170.67h171V0h0Z" fill="#faf3dc"/>
  </g>
  <g>
    <rect x="240" y="171" width="171" height="170.67" fill="#e2d3aa"/>
    <path d="M409,173v166.67h-167v-166.67h167M411,171h-171v170.67h171v-170.67h0Z" fill="#faf3dc"/>
  </g>
  <g>
    <rect x="411" y="171" width="171" height="170.67" fill="#e2d3aa"/>
    <path d="M580,173v166.67h-167v-166.67h167M582,171h-171v170.67h171v-170.67h0Z" fill="#faf3dc"/>
  </g>
  <g>
    <rect x="582" y="171" width="171" height="170.67" fill="#e2d3aa"/>
    <path d="M751,173v166.67h-167v-166.67h167M753,171h-171v170.67h171v-170.67h0Z" fill="#faf3dc"/>
  </g>
  <g>
    <rect x="753" y="171" width="171" height="170.67" fill="#e2d3aa"/>
    <path d="M922,173v166.67h-167v-166.67h167M924,171h-171v170.67h171v-170.67h0Z" fill="#faf3dc"/>
  </g>
  <g>
    <rect x="924" y="171" width="171" height="170.67" fill="#e2d3aa"/>
    <path d="M1093,173v166.67h-167v-166.67h167M1095,171h-171v170.67h171v-170.67h0Z" fill="#faf3dc"/>
  </g>
  <g>
    <rect x="1095" y="171" width="171" height="170.67" fill="#e2d3aa"/>
    <path d="M1264,173v166.67h-167v-166.67h167M1266,171h-171v170.67h171v-170.67h0Z" fill="#faf3dc"/>
  </g>
  <g>
    <rect x="240" y="342" width="171" height="170.67" fill="#e2d3aa"/>
    <path d="M409,344v166.67h-167v-166.67h167M411,342h-171v170.67h171v-170.67h0Z" fill="#faf3dc"/>
  </g>
  <g>
    <rect x="411" y="342" width="171" height="170.67" fill="#e2d3aa"/>
    <path d="M580,344v166.67h-167v-166.67h167M582,342h-171v170.67h171v-170.67h0Z" fill="#faf3dc"/>
  </g>
  <g>
    <rect x="582" y="342" width="171" height="170.67" fill="#e2d3aa"/>
    <path d="M751,344v166.67h-167v-166.67h167M753,342h-171v170.67h171v-170.67h0Z" fill="#faf3dc"/>
  </g>
  <g>
    <rect x="753" y="342" width="171" height="170.67" fill="#e2d3aa"/>
    <path d="M922,344v166.67h-167v-166.67h167M924,342h-171v170.67h171v-170.67h0Z" fill="#faf3dc"/>
  </g>
  <g>
    <rect x="924" y="342" width="171" height="170.67" fill="#e2d3aa"/>
    <path d="M1093,344v166.67h-167v-166.67h167M1095,342h-171v170.67h171v-170.67h0Z" fill="#faf3dc"/>
  </g>
  <g>
    <rect x="1095" y="342" width="171" height="170.67" fill="#e2d3aa"/>
    <path d="M1264,344v166.67h-167v-166.67h167M1266,342h-171v170.67h171v-170.67h0Z" fill="#faf3dc"/>
  </g>
  <g>
    <rect x="240" y="513" width="171" height="170.67" fill="#e2d3aa"/>
    <path d="M409,515v166.67h-167v-166.67h167M411,513h-171v170.67h171v-170.67h0Z" fill="#faf3dc"/>
  </g>
  <g>
    <rect x="411" y="513" width="171" height="170.67" fill="#e2d3aa"/>
    <path d="M580,515v166.67h-167v-166.67h167M582,513h-171v170.67h171v-170.67h0Z" fill="#faf3dc"/>
  </g>
  <g>
    <rect x="582" y="513" width="171" height="170.67" fill="#e2d3aa"/>
    <path d="M751,515v166.67h-167v-166.67h167M753,513h-171v170.67h171v-170.67h0Z" fill="#faf3dc"/>
  </g>
  <g>
    <rect x="753" y="513" width="171" height="170.67" fill="#e2d3aa"/>
    <path d="M922,515v166.67h-167v-166.67h167M924,513h-171v170.67h171v-170.67h0Z" fill="#faf3dc"/>
  </g>
  <g>
    <rect x="240" y="684" width="171" height="170.67" fill="#e2d3aa"/>
    <path d="M409,686v166.67h-167v-166.67h167M411,684h-171v170.67h171v-170.67h0Z" fill="#faf3dc"/>
  </g>
  <g>
    <rect y="171" width="240" height="170.67" fill="#e8a23d"/>
    <path d="M238,173v166.67H2v-166.67h236M240,171H0v170.67h240v-170.67h0Z" fill="#faf3dc"/>
  </g>
  <g>
    <rect y="342" width="240" height="170.67" fill="#f0c34e"/>
    <path d="M238,344v166.67H2v-166.67h236M240,342H0v170.67h240v-170.67h0Z" fill="#faf3dc"/>
  </g>
  <g>
    <rect y="513" width="240" height="170.67" fill="#c6c647"/>
    <path d="M238,515v166.67H2v-166.67h236M240,513H0v170.67h240v-170.67h0Z" fill="#faf3dc"/>
  </g>
  <g>
    <rect y="684" width="240" height="170.67" fill="#6dc449"/>
    <path d="M238,686v166.67H2v-166.67h236M240,684H0v170.67h240v-170.67h0Z" fill="#faf3dc"/>
  </g>
  <g>
    <path d="M36.69,92.98v-20.84h7.18c2.1,0,3.83.37,5.22,1.1.96.5,1.71,1.13,2.26,1.89.55.76.83,1.55.83,2.35,0,1.48-.85,2.7-2.56,3.66-.51.28-1.33.6-2.45.94,1.77.32,3.19.96,4.26,1.92,1.07.96,1.61,2.04,1.61,3.24,0,1.44-.65,2.69-1.96,3.77-1.31,1.08-2.91,1.72-4.81,1.93-.34.04-.87.06-1.58.06h-8ZM39.69,81.01h3.63c1.8,0,3.24-.35,4.33-1.05s1.63-1.51,1.63-2.43-.58-1.6-1.74-2.16c-1.16-.56-2.62-.84-4.39-.84h-3.44l-.03.96v5.51ZM39.69,90.58h3.63c.08,0,.19,0,.34.01s.26.01.35.01c2.08,0,3.61-.36,4.6-1.09s1.48-1.5,1.48-2.32c0-.9-.47-1.73-1.41-2.49s-2.21-1.22-3.81-1.38c-.34-.04-.84-.06-1.49-.07h-3.66l-.03,1.05v6.27Z" fill="#fff"/>
    <path d="M55.69,85.81c0-2.06.65-3.81,1.95-5.24s2.86-2.15,4.67-2.15c.5,0,.99.05,1.47.16s.99.32,1.52.64.98.73,1.36,1.23.7,1.18.96,2.04.39,1.85.39,2.97h-9.65v.29c0,1.48.43,2.72,1.3,3.71s1.91,1.49,3.13,1.49c1.66,0,3.27-.57,4.83-1.71l.21,2.43c-1.58,1.02-3.26,1.52-5.04,1.52-2.08,0-3.78-.73-5.11-2.2s-1.99-3.2-1.99-5.2ZM58.75,83.7h6.84c-.48-2.02-1.57-3.03-3.27-3.03-.74,0-1.45.27-2.12.81s-1.15,1.28-1.46,2.23Z" fill="#fff"/>
    <path d="M70.14,88.99c0-1.32.81-2.33,2.44-3.03,1.63-.7,3.71-1.09,6.26-1.17v-1.05c0-.82-.1-1.42-.31-1.8-.48-.92-1.22-1.38-2.24-1.38-1.02.02-1.85.15-2.49.39s-1.4.67-2.26,1.3l-.21-2.52c1.66-.86,3.33-1.29,5.01-1.29,1.5,0,2.74.44,3.72,1.32.98.88,1.52,1.94,1.62,3.18l.03,1v9.05h-2.8v-1.08l-.03-.83c-.56.7-1.3,1.24-2.23,1.6s-1.87.55-2.83.55c-1.18,0-2.09-.44-2.73-1.33s-.97-1.85-.97-2.89ZM71.83,75.78v-2.81h2.83v2.81h-2.83ZM72.9,88.93c0,.6.26,1.08.77,1.46s1.14.57,1.89.57c.68,0,1.31-.15,1.88-.45s.98-.7,1.23-1.2c.12-.26.18-.67.18-1.23v-1.89c-1.84.08-3.29.35-4.35.83s-1.6,1.11-1.6,1.91ZM77.94,75.78v-2.81h2.83v2.81h-2.83Z" fill="#fff"/>
    <path d="M85.61,92.98v-14.17h2.75v1.44l.04,1c1.06-1.79,2.57-2.68,4.53-2.68.8,0,1.48.12,2.05.36s.99.52,1.27.84.5.74.67,1.26.25.94.27,1.27.03.74.03,1.22v9.45h-2.89v-9.49c0-.34-.02-.63-.06-.86-.04-.23-.14-.51-.32-.83s-.47-.57-.9-.73-.98-.25-1.64-.25c-.62,0-1.14.15-1.57.46s-.74.71-.92,1.2-.3.92-.36,1.29c-.06.37-.09.74-.09,1.1v8.11h-2.89Z" fill="#fff"/>
    <path d="M100.25,85.86c0-2.03.57-3.75,1.72-5.16,1.15-1.41,2.51-2.12,4.07-2.12s2.79.69,3.86,2.08v-2.08h2.83v14.14c0,1.72-.55,3.11-1.65,4.18-1.1,1.07-2.48,1.6-4.14,1.6-1.84,0-3.68-.45-5.54-1.34v-2.46c.58.32,1.04.57,1.39.74s.91.35,1.68.54c.77.19,1.57.29,2.41.29.76,0,1.44-.27,2.05-.82.61-.54.91-1.45.91-2.73v-2.1l-.03-1.01c-.18.34-.4.67-.67,1-.27.33-.73.68-1.37,1.06-.64.38-1.34.56-2.1.56-1.44,0-2.7-.6-3.79-1.8-1.09-1.2-1.64-2.72-1.64-4.57ZM103.13,85.86c0,1.19.39,2.17,1.17,2.96s1.68,1.17,2.69,1.17c.68,0,1.25-.25,1.7-.74.45-.49.75-1.05.9-1.69.15-.63.24-1.32.26-2.07h.06v-2.17c0-.58-.24-1.14-.73-1.69s-1.09-.82-1.81-.82c-1.08,0-2.06.48-2.92,1.44s-1.3,2.16-1.3,3.6Z" fill="#fff"/>
    <path d="M115.55,91.81l.45-2.58c1.58,1.1,3.2,1.66,4.86,1.66.92,0,1.57-.19,1.96-.57s.59-.8.59-1.26-.17-.83-.51-1.13-.71-.49-1.11-.6-.91-.22-1.53-.34-1.07-.23-1.34-.33c-.84-.28-1.58-.77-2.22-1.46s-.96-1.54-.96-2.54c0-.46.07-.9.21-1.33s.38-.88.72-1.35.88-.84,1.6-1.12,1.61-.42,2.66-.42c1.52,0,3.07.34,4.64,1.01l-.44,2.46c-1.5-.82-3.02-1.23-4.54-1.23-.82,0-1.4.17-1.74.51s-.5.72-.5,1.14c0,.32.12.63.36.92s.56.5.96.64c.02,0,.56.12,1.62.35s1.85.49,2.37.76c1.58.88,2.37,2.15,2.37,3.81,0,1.14-.39,2.16-1.16,3.06s-2.09,1.35-3.97,1.35-3.65-.47-5.35-1.41Z" fill="#fff"/>
    <path d="M127.32,81.05v-2.24h2.46v-4.06h2.7v4.06h4.2v2.24h-4.2v6.88c0,1.97.52,2.95,1.57,2.95.78,0,1.64-.35,2.58-1.06l.6,2.15c-1.5.82-3.12,1.23-4.86,1.23s-2.64-1.65-2.64-4.96v-7.2h-2.4Z" fill="#fff"/>
    <path d="M140.06,74.97v-2.81h2.81v2.81h-2.81ZM140.06,92.98v-14.17h2.83v14.17h-2.83Z" fill="#fff"/>
    <path d="M145.91,85.86c0-2.03.57-3.75,1.72-5.16,1.15-1.41,2.51-2.12,4.07-2.12s2.79.69,3.86,2.08v-2.08h2.83v14.14c0,1.72-.55,3.11-1.65,4.18-1.1,1.07-2.48,1.6-4.14,1.6-1.84,0-3.68-.45-5.54-1.34v-2.46c.58.32,1.04.57,1.39.74s.91.35,1.68.54c.77.19,1.57.29,2.41.29.76,0,1.44-.27,2.05-.82.61-.54.91-1.45.91-2.73v-2.1l-.03-1.01c-.18.34-.4.67-.67,1-.27.33-.73.68-1.37,1.06-.64.38-1.34.56-2.1.56-1.44,0-2.7-.6-3.79-1.8-1.09-1.2-1.64-2.72-1.64-4.57ZM148.79,85.86c0,1.19.39,2.17,1.17,2.96s1.68,1.17,2.69,1.17c.68,0,1.25-.25,1.7-.74.45-.49.75-1.05.9-1.69.15-.63.24-1.32.26-2.07h.06v-2.17c0-.58-.24-1.14-.73-1.69s-1.09-.82-1.81-.82c-1.08,0-2.06.48-2.92,1.44s-1.3,2.16-1.3,3.6Z" fill="#fff"/>
    <path d="M161.21,85.81c0-2.06.65-3.81,1.95-5.24s2.86-2.15,4.67-2.15c.5,0,.99.05,1.47.16s.99.32,1.52.64.98.73,1.36,1.23.7,1.18.96,2.04.39,1.85.39,2.97h-9.65v.29c0,1.48.43,2.72,1.3,3.71s1.91,1.49,3.13,1.49c1.66,0,3.27-.57,4.83-1.71l.21,2.43c-1.58,1.02-3.26,1.52-5.04,1.52-2.08,0-3.78-.73-5.11-2.2s-1.99-3.2-1.99-5.2ZM164.27,83.7h6.84c-.48-2.02-1.57-3.03-3.27-3.03-.74,0-1.45.27-2.12.81s-1.15,1.28-1.46,2.23Z" fill="#fff"/>
    <path d="M176.39,92.98v-14.17h2.75v1.44l.04,1c1.06-1.79,2.57-2.68,4.53-2.68.8,0,1.48.12,2.05.36s.99.52,1.27.84.5.74.67,1.26.25.94.27,1.27.03.74.03,1.22v9.45h-2.89v-9.49c0-.34-.02-.63-.06-.86-.04-.23-.14-.51-.32-.83s-.47-.57-.9-.73-.98-.25-1.64-.25c-.62,0-1.14.15-1.57.46s-.74.71-.92,1.2-.3.92-.36,1.29c-.06.37-.09.74-.09,1.1v8.11h-2.89Z" fill="#fff"/>
    <path d="M191.02,85.87c0-1.98.5-3.69,1.5-5.13s2.26-2.16,3.79-2.16,3.04.58,4.37,1.73v-8.18h2.83v20.84h-2.89v-1.77c-1.3,1.34-2.74,2.01-4.34,2.01-1.51,0-2.76-.72-3.76-2.16s-1.5-3.17-1.5-5.19ZM193.91,86.28c.04,1.44.33,2.53.88,3.29.7.94,1.71,1.41,3.03,1.41.5,0,.96-.12,1.4-.36s.73-.44.87-.6c.14-.16.32-.38.53-.67v-7.39c-.71-.75-1.53-1.13-2.46-1.13h-.03c-1.28,0-2.3.4-3.08,1.19-.76.78-1.14,2-1.14,3.64v.63Z" fill="#fff"/>
  </g>
  <path d="M297.82,69.31v-5.98h6.45c1.29,0,2.06.03,2.32.08.99.21,1.8.83,2.45,1.87.64,1.04,1.09,2.36,1.33,3.95s.4,3.13.47,4.6c.08,1.47.11,3.11.11,4.92s.03,3.07.08,3.77c.65,8.31,4.05,13.48,10.19,15.51.1.05.18.08.24.08v-40.7h8.01v40.7c2.77-.91,4.97-2.26,6.61-4.04,1.63-1.78,2.71-3.85,3.21-6.19.51-2.34.82-4.62.92-6.84.1-2.21.2-4.63.29-7.25.09-2.62.34-4.66.76-6.14.36-1.27.84-2.24,1.43-2.91.59-.67,1.13-1.07,1.64-1.2.51-.13,1.14-.19,1.9-.19h7.42v5.98c-1.24.1-2.25.51-3.03,1.23-.78.72-1.32,1.7-1.62,2.95s-.5,2.49-.57,3.73c-.08,1.24-.16,2.71-.24,4.41-.08,1.71-.2,3.07-.35,4.08-.91,5.85-3.04,10.26-6.39,13.24s-7.32,4.76-11.89,5.36l-.08.08v8.59h-8.01v-8.67c-4.48-.65-8.36-2.46-11.63-5.44-3.27-2.98-5.36-7.37-6.26-13.16-.16-1.12-.28-2.83-.39-5.13-.1-2.3-.23-4.12-.39-5.44s-.64-2.6-1.45-3.83c-.81-1.22-1.98-1.89-3.52-1.99Z"/>
  <path d="M304.85,249.81c.05-3.15,1.12-5.64,3.2-7.48,2.08-1.84,4.38-2.75,6.88-2.75,2.13,0,3.98,1,5.53,3.01,1.55,2.01,3.21,5.4,4.98,10.2.86,2.34,1.39,3.92,1.6,4.73.16-.26.51-.92,1.07-1.99.56-1.07.97-1.84,1.23-2.32.26-.48.7-1.24,1.31-2.29.61-1.04,1.12-1.84,1.52-2.4.4-.56.96-1.29,1.68-2.21.72-.91,1.35-1.63,1.91-2.17.56-.53,1.26-1.12,2.09-1.76.83-.64,1.62-1.13,2.36-1.48s1.59-.66,2.56-.92c.96-.26,1.93-.39,2.89-.39v7.42c-2.45.1-4.54,1.02-6.27,2.75s-3.61,4.73-5.64,9c-1.07,2.24-1.97,4.47-2.7,6.68-.73,2.21-1.05,3.58-.98,4.1.75,5.34,1.15,10.14,1.17,14.41,0,1.22-.18,2.26-.55,3.11-.37.85-.86,1.47-1.48,1.88-.62.4-1.21.67-1.74.8-.53.13-1.09.2-1.66.2-.76,0-1.5-.12-2.25-.35s-1.46-.83-2.15-1.8c-.69-.96-1.04-2.21-1.04-3.75,0-2.34.18-4.75.55-7.21.36-2.46.74-4.48,1.11-6.05.38-1.58.57-2.42.57-2.52,0-1.43-.57-4.75-1.72-9.94-1.15-5.2-2.36-8.55-3.63-10.06-.6-.7-1.35-1.09-2.27-1.17-.26,0-.52.04-.78.13-.26.09-.58.35-.96.78-.38.43-.62,1.04-.72,1.82h-7.7Z"/>
  <path d="M301.14,437.75c0-7.56,3.2-14.74,9.61-21.55h9.26c-.1.1-.48.52-1.11,1.25-.64.73-1.09,1.23-1.35,1.52-.26.29-.73.83-1.41,1.64-.68.81-1.19,1.46-1.52,1.97-.34.51-.81,1.19-1.43,2.07-.61.87-1.08,1.65-1.41,2.34-.33.69-.72,1.51-1.17,2.48-.46.96-.79,1.87-1,2.73-.21.86-.39,1.77-.55,2.75-.16.97-.23,1.97-.23,2.98,0,2.99.6,5.48,1.8,7.48,1.2,2,2.79,3,4.77,3,1.82,0,3.44-.88,4.84-2.63,1.41-1.75,2.11-4.76,2.11-9.02v-6.78h6.95v6.78c0,4.26.69,7.27,2.07,9.02,1.38,1.75,2.98,2.63,4.8,2.63,1.54,0,2.83-.62,3.87-1.85,1.04-1.23,1.75-2.58,2.13-4.03.38-1.46.57-2.99.57-4.6,0-1.01-.08-2.02-.23-3.02s-.35-1.92-.57-2.75c-.22-.83-.56-1.74-1.02-2.73-.46-.99-.83-1.8-1.11-2.44-.29-.64-.75-1.42-1.39-2.34-.64-.92-1.11-1.61-1.41-2.07-.3-.45-.81-1.11-1.52-1.97-.72-.86-1.18-1.4-1.39-1.64-.21-.23-.66-.75-1.37-1.56l-1.13-1.21h9.22c6.41,6.86,9.61,14.04,9.61,21.55,0,4.81-1.39,8.82-4.18,12.03s-6.14,4.82-10.08,4.82-7.47-1.89-10.39-5.66c-2.6,3.77-6.07,5.66-10.39,5.66-3.96,0-7.32-1.61-10.1-4.82s-4.16-7.22-4.16-12.03Z"/>
  <path d="M474.95,453.98v-55.35h43.67v55.35h-8.4v-48.95h-26.88v48.95h-8.4Z"/>
  <path d="M649.15,453.98l13.63-36.35v-.08c-.16-.37-.55-1.24-1.17-2.61s-1.13-2.45-1.52-3.22c-.39-.77-.9-1.67-1.52-2.69s-1.2-1.79-1.72-2.3c-.52-.51-1.05-.77-1.6-.77-.42,0-.88.2-1.39.61-.51.41-1.65,1.42-3.42,3.04l-1.29-7.51c2.5-2.42,5.03-3.64,7.6-3.64s4.84,1.43,6.82,4.28c1.98,2.85,4.3,7.39,6.95,13.61l16.02,37.62h-8.4l-10.98-25.99h-.08l-9.69,25.99h-8.24Z"/>
  <path d="M815.7,435.11c0-5.39,1.52-9.99,4.57-13.81,3.05-3.81,6.74-5.72,11.09-5.72,5.86,0,10.66,4,14.41,11.99l3.91-11.99h7.7c-.91,2.71-1.73,5.19-2.48,7.42s-1.36,4.07-1.84,5.51c-.48,1.44-.93,2.71-1.35,3.79-.42,1.09-.74,1.92-.97,2.5-.23.58-.43,1.07-.61,1.47s-.31.68-.4.83c-.09.16-.15.3-.17.43-.03.13-.04.27-.04.43,0,.85.61,2.58,1.84,5.17,1.22,2.6,2.47,3.89,3.73,3.89,1.16,0,1.89-.75,2.2-2.27h7.77c-.05,2.89-1.08,5.25-3.09,7.09-2,1.84-4.33,2.75-6.97,2.75-1.48,0-2.83-.29-4.06-.85-1.23-.57-2.3-1.4-3.21-2.49-.91-1.09-1.54-1.93-1.9-2.52-.36-.6-.82-1.41-1.36-2.45-3.67,5.54-8.07,8.31-13.2,8.31-4.17,0-7.81-1.85-10.92-5.55-3.11-3.7-4.67-8.35-4.67-13.95ZM823.4,435.03c0,2.62.2,4.76.59,6.42.39,1.66,1.23,3.01,2.52,4.07,1.29,1.05,2.86,1.58,4.71,1.58,1.12,0,2.19-.26,3.2-.79,1.02-.53,1.97-1.29,2.85-2.29.88-1,1.61-1.92,2.17-2.76.56-.84,1.18-1.9,1.86-3.18-.7-2.21-1.2-3.78-1.48-4.72-.29-.94-.76-2.22-1.43-3.86s-1.29-2.81-1.88-3.53c-.59-.72-1.33-1.38-2.25-1.99-.91-.6-1.93-.91-3.05-.91-3.15,0-5.37,1.38-6.64,4.13-.78,1.75-1.17,4.36-1.17,7.83Z"/>
  <path d="M814.37,590.66c2.89-1.03,5.16-1.7,6.82-2,1.65-.3,3.99-.46,7.01-.46h31.6v7.5h-8.98v19.52c0,2.84.97,4.39,2.91,4.66,1.55-.05,2.43-1.44,2.64-4.14h5.35c-.05,3.26-1,5.88-2.84,7.87s-3.99,2.99-6.44,2.99c-.91,0-1.85-.17-2.82-.51-.96-.34-1.97-.91-3.01-1.71s-1.88-2.04-2.52-3.72c-.64-1.67-.96-3.68-.96-6.01v-18.95h-8.91v30.9h-7.7v-30.9c-2.66.05-5.69.77-9.1,2.15l-3.05-7.19Z"/>
  <path d="M301.37,753.66c2.89-1.03,5.16-1.7,6.82-2,1.65-.3,3.99-.46,7.01-.46h31.6v7.5h-8.98v19.52c0,2.84.97,4.39,2.91,4.66,1.55-.05,2.43-1.44,2.64-4.14h5.35c-.05,3.26-1,5.88-2.84,7.87s-3.99,2.99-6.44,2.99c-.91,0-1.85-.17-2.82-.51-.96-.34-1.97-.91-3.01-1.71s-1.88-2.04-2.52-3.72c-.64-1.67-.96-3.68-.96-6.01v-18.95h-8.91v30.9h-7.7v-30.9c-2.66.05-5.69.77-9.1,2.15l-3.05-7.19Z"/>
  <path d="M302.7,602.11c0-5.39,1.52-9.99,4.57-13.81s6.74-5.72,11.09-5.72c5.86,0,10.66,4,14.41,11.99l3.91-11.99h7.7c-.91,2.71-1.73,5.19-2.48,7.42-.75,2.23-1.36,4.07-1.84,5.51s-.93,2.71-1.35,3.79c-.42,1.09-.74,1.92-.97,2.5-.23.58-.43,1.07-.61,1.47s-.31.68-.4.83c-.09.16-.15.3-.17.43-.03.13-.04.27-.04.43,0,.85.61,2.58,1.84,5.17,1.22,2.6,2.47,3.89,3.73,3.89,1.16,0,1.89-.76,2.2-2.27h7.77c-.05,2.89-1.08,5.25-3.09,7.09-2,1.84-4.33,2.75-6.97,2.75-1.48,0-2.83-.29-4.06-.86s-2.3-1.4-3.21-2.48c-.91-1.09-1.54-1.93-1.9-2.53-.36-.6-.82-1.41-1.36-2.45-3.67,5.54-8.07,8.31-13.2,8.31-4.17,0-7.81-1.85-10.92-5.55-3.11-3.7-4.67-8.35-4.67-13.95ZM310.4,602.03c0,2.62.2,4.76.59,6.42.39,1.66,1.23,3.02,2.52,4.07,1.29,1.05,2.86,1.58,4.71,1.58,1.12,0,2.19-.26,3.2-.79s1.97-1.29,2.85-2.29c.88-1,1.61-1.92,2.17-2.76.56-.84,1.18-1.9,1.86-3.18-.7-2.21-1.2-3.79-1.48-4.72-.29-.94-.76-2.22-1.43-3.86s-1.29-2.81-1.88-3.53c-.59-.72-1.33-1.38-2.25-1.98-.91-.6-1.93-.91-3.05-.91-3.15,0-5.37,1.38-6.64,4.12-.78,1.75-1.17,4.36-1.17,7.83Z"/>
  <path d="M991.29,461.16v-43.86c0-2.14.06-3.97.2-5.5.13-1.53.49-3.25,1.08-5.17.59-1.92,1.42-3.47,2.49-4.64,1.07-1.17,2.6-2.18,4.58-3.02,1.98-.83,4.36-1.25,7.13-1.25,4.73,0,8.47,1.06,11.22,3.17,2.75,2.12,4.13,5.86,4.13,11.24,0,4.33-2.14,7.78-6.43,10.36,7.05,2.22,10.57,7.46,10.57,15.74,0,4.86-1.77,8.8-5.3,11.83-3.53,3.02-7.5,4.54-11.92,4.54-1.83,0-3.53-.37-5.08-1.12-1.56-.75-2.59-1.39-3.1-1.94-.51-.54-1.13-1.26-1.86-2.15v11.77h-7.7ZM998.98,434.68c0,2.59.24,4.69.71,6.3.6,2.07,1.66,3.92,3.18,5.54,1.52,1.62,3.52,2.43,6.01,2.43s4.79-.97,6.74-2.9,2.93-4.47,2.93-7.6c0-2.35-.38-4.36-1.15-6.02-.77-1.66-1.67-2.92-2.71-3.78-1.04-.86-2.44-1.53-4.2-2.02s-3.24-.78-4.43-.88c-1.2-.1-2.73-.16-4.61-.16v-4.73c.47,0,1.02-.01,1.65-.04.63-.03,1.68-.2,3.14-.53,1.47-.33,2.75-.77,3.85-1.33,1.1-.56,2.1-1.44,2.99-2.64.89-1.2,1.34-2.62,1.34-4.26,0-5.75-2.53-8.65-7.58-8.67-1.49,0-2.75.25-3.77.76-1.02.51-1.8,1.11-2.34,1.81-.54.7-.94,1.71-1.2,3.03-.26,1.32-.42,2.47-.47,3.46s-.08,2.34-.08,4.08v18.15Z"/>
  <path d="M479.29,629.17v-43.86c0-2.14.06-3.97.2-5.5.13-1.53.49-3.25,1.08-5.17.59-1.92,1.42-3.46,2.49-4.64,1.07-1.17,2.6-2.18,4.58-3.02,1.98-.83,4.36-1.25,7.13-1.25,4.73,0,8.47,1.06,11.22,3.17s4.13,5.86,4.13,11.24c0,4.33-2.14,7.78-6.43,10.36,7.05,2.22,10.57,7.46,10.57,15.74,0,4.86-1.77,8.8-5.3,11.83-3.53,3.03-7.5,4.54-11.92,4.54-1.83,0-3.53-.38-5.08-1.12-1.56-.75-2.59-1.39-3.1-1.94-.51-.54-1.13-1.26-1.86-2.15v11.77h-7.7ZM486.98,602.68c0,2.59.24,4.69.71,6.3.6,2.07,1.66,3.92,3.18,5.54,1.52,1.62,3.52,2.43,6.01,2.43s4.79-.97,6.74-2.9,2.93-4.47,2.93-7.6c0-2.35-.38-4.36-1.15-6.02-.77-1.66-1.67-2.92-2.71-3.78-1.04-.86-2.44-1.54-4.2-2.02-1.76-.48-3.24-.78-4.43-.88-1.2-.1-2.73-.16-4.61-.16v-4.73c.47,0,1.02-.01,1.65-.04s1.68-.2,3.14-.53c1.47-.33,2.75-.77,3.85-1.33s2.1-1.44,2.99-2.64c.89-1.2,1.34-2.62,1.34-4.26,0-5.76-2.53-8.65-7.58-8.67-1.49,0-2.75.25-3.77.76-1.02.51-1.8,1.11-2.34,1.81-.54.7-.94,1.71-1.2,3.03-.26,1.32-.42,2.47-.47,3.46s-.08,2.34-.08,4.08v18.15Z"/>
  <path d="M1159.85,425.81c.05-3.15,1.12-5.64,3.2-7.48,2.08-1.84,4.38-2.75,6.88-2.75,2.13,0,3.98,1,5.53,3.01,1.55,2.01,3.21,5.4,4.98,10.2.86,2.34,1.39,3.92,1.6,4.73.16-.26.51-.92,1.07-1.99.56-1.07.97-1.84,1.23-2.32.26-.48.7-1.24,1.31-2.29.61-1.04,1.12-1.84,1.52-2.4.4-.56.96-1.29,1.68-2.21.72-.91,1.35-1.63,1.91-2.17.56-.53,1.26-1.12,2.09-1.76.83-.64,1.62-1.13,2.36-1.48s1.59-.66,2.56-.92c.96-.26,1.93-.39,2.89-.39v7.42c-2.45.1-4.54,1.02-6.27,2.75s-3.61,4.73-5.64,9c-1.07,2.24-1.97,4.47-2.7,6.68-.73,2.21-1.05,3.58-.98,4.1.75,5.34,1.15,10.14,1.17,14.41,0,1.22-.18,2.26-.55,3.11-.37.85-.86,1.47-1.48,1.88-.62.4-1.21.67-1.74.8-.53.13-1.09.2-1.66.2-.76,0-1.5-.12-2.25-.35s-1.46-.83-2.15-1.8c-.69-.96-1.04-2.21-1.04-3.75,0-2.34.18-4.75.55-7.21.36-2.46.74-4.48,1.11-6.05.38-1.58.57-2.42.57-2.52,0-1.43-.57-4.75-1.72-9.94-1.15-5.2-2.36-8.55-3.63-10.06-.6-.7-1.35-1.09-2.27-1.17-.26,0-.52.04-.78.13-.26.09-.58.35-.96.78-.38.43-.62,1.04-.72,1.82h-7.7Z"/>
  <path d="M646.85,585.81c.05-3.15,1.12-5.64,3.2-7.48,2.08-1.84,4.38-2.75,6.88-2.75,2.13,0,3.98,1,5.53,3.01,1.55,2.01,3.21,5.4,4.98,10.2.86,2.34,1.39,3.92,1.6,4.73.16-.26.51-.92,1.07-1.99.56-1.07.97-1.84,1.23-2.32.26-.48.7-1.24,1.31-2.29.61-1.04,1.12-1.84,1.52-2.4.4-.56.96-1.29,1.68-2.21.72-.91,1.35-1.63,1.91-2.17.56-.53,1.26-1.12,2.09-1.76.83-.64,1.62-1.13,2.36-1.48s1.59-.66,2.56-.92c.96-.26,1.93-.39,2.89-.39v7.42c-2.45.1-4.54,1.02-6.27,2.75-1.73,1.73-3.61,4.73-5.64,9-1.07,2.24-1.97,4.47-2.7,6.68-.73,2.21-1.05,3.58-.98,4.1.75,5.34,1.15,10.14,1.17,14.41,0,1.22-.18,2.26-.55,3.11-.37.85-.86,1.47-1.48,1.88-.62.4-1.21.67-1.74.8-.53.13-1.09.2-1.66.2-.76,0-1.5-.12-2.25-.35s-1.46-.83-2.15-1.8c-.69-.96-1.04-2.21-1.04-3.75,0-2.34.18-4.75.55-7.21.36-2.46.74-4.48,1.11-6.05.38-1.58.57-2.42.57-2.52,0-1.43-.57-4.75-1.72-9.94-1.15-5.2-2.36-8.55-3.63-10.06-.6-.7-1.35-1.09-2.27-1.17-.26,0-.52.04-.78.13-.26.09-.58.35-.96.78-.38.43-.62,1.04-.72,1.82h-7.7Z"/>
  <path d="M474.48,112.98l17.79-56.25h8.6l17.83,56.25h-8.4l-9.68-31.12c-2.77-9.67-4.27-15.24-4.5-16.73-.31,2.76-1.91,8.82-4.78,18.16l-9.32,29.69h-7.54Z"/>
  <path d="M480.46,269.13c0-4.01,1.02-7.61,3.05-10.8,2.03-3.19,4.62-5.42,7.77-6.7-.16-.1-.66-.41-1.52-.92s-1.43-.86-1.7-1.05-.77-.56-1.48-1.09c-.72-.53-1.22-1-1.5-1.39-.29-.39-.63-.89-1.04-1.5-.4-.61-.68-1.27-.84-1.97s-.23-1.45-.23-2.23c0-2.57.9-4.92,2.71-7.05,1.81-2.12,4.07-3.19,6.78-3.19.36,0,.7.01,1,.04.3.03.59.07.86.12s.59.16.96.32c.36.16.72.3,1.07.44s.83.38,1.45.73c.61.36,1.17.68,1.68.97s1.26.73,2.25,1.32,1.89,1.15,2.71,1.66c.82.51,1.97,1.23,3.45,2.14,1.48.91,2.85,1.77,4.12,2.58l-3.09,5.2c-2.6-1.59-5.57-3.4-8.93-5.43-3.09-1.93-4.95-3.05-5.56-3.38-.61-.33-1.21-.49-1.81-.49-1.02,0-1.86.39-2.52,1.17s-1,1.64-1,2.58c0,.31.04.62.12.92.08.3.21.57.41.82.2.25.36.46.49.64.13.18.33.37.59.55.26.18.46.32.61.41.14.09.34.21.61.37l.39.23,12.89,7.77-.08.23c2.53,1.64,4.48,3.9,5.86,6.78,1.38,2.88,2.07,5.94,2.07,9.2,0,5.26-1.62,9.66-4.84,13.19-3.23,3.53-7.03,5.29-11.41,5.29s-8.19-1.76-11.45-5.29c-3.26-3.53-4.88-7.92-4.88-13.19ZM488.15,269.95c0,3.46.77,6.28,2.3,8.44,1.54,2.16,3.57,3.24,6.09,3.24,2.71,0,4.88-1.35,6.5-4.04,1.63-2.7,2.44-5.83,2.44-9.39,0-3.31-.78-6.07-2.32-8.28-1.55-2.21-3.57-3.32-6.07-3.32s-4.55,1.3-6.31,3.89c-1.76,2.59-2.64,5.75-2.64,9.47Z"/>
  <path d="M639.82,259.53c0-8.25,2.77-15.22,8.32-20.9,5.55-5.68,12.13-8.52,19.77-8.52s14.14,2.84,19.66,8.52c5.51,5.68,8.27,12.65,8.27,20.9s-2.76,14.87-8.29,20.45c-5.53,5.58-12.13,8.37-19.79,8.37s-14.13-2.79-19.65-8.37c-5.52-5.58-8.28-12.4-8.28-20.45ZM647.83,259.45c0,7.02,1.97,12.55,5.92,16.6s8.64,6.08,14.08,6.08c5.75,0,10.53-2.1,14.32-6.31,3.79-4.21,5.68-9.64,5.68-16.3s-1.91-12.56-5.72-16.92c-3.82-4.35-8.57-6.53-14.28-6.53s-10.53,2.18-14.32,6.53c-3.79,4.35-5.68,9.97-5.68,16.84ZM652.51,263.07v-7.5h30.59v7.5h-30.59Z"/>
  <path d="M822.46,291.34v-31.05c0-4.58.81-8.42,2.42-11.52,1.28-2.5,3.1-4.65,5.47-6.46,2.37-1.81,5.18-2.71,8.44-2.71,4.79,0,8.71,1.96,11.76,5.89,3.05,3.92,4.57,8.46,4.57,13.61s-1.52,9.69-4.57,13.63c-3.05,3.94-6.97,5.91-11.76,5.91-2.84,0-5.72-.94-8.63-2.81v15.54h-7.7ZM830.15,259.09c0,3.71.75,6.85,2.27,9.43,1.51,2.58,3.63,3.87,6.37,3.87,2.55,0,4.63-1.25,6.23-3.75,1.6-2.5,2.4-5.68,2.4-9.55,0-3.34-.72-6.4-2.17-9.16-1.45-2.76-3.6-4.14-6.46-4.14-2.55,0-4.63,1.24-6.23,3.73-1.6,2.49-2.4,5.68-2.4,9.57Z"/>
  <path d="M993.22,267.34c0-3.88,2.13-6.74,6.41-8.57v-.08c-3.46-1.82-5.2-4.48-5.2-7.99,0-3.01,1.29-5.44,3.87-7.31,2.58-1.87,5.72-2.8,9.41-2.8,5.13,0,9.63,2.07,13.52,6.21l-4.41,4.3c-3.15-2.89-6.19-4.32-9.1-4.3-2.03,0-3.74.45-5.14,1.35-1.39.9-2.09,2.08-2.09,3.54,0,1.12.35,2.04,1.05,2.75.7.72,1.74,1.22,3.12,1.5,1.38.29,2.53.46,3.44.53.91.07,2.13.12,3.67.18v4.73h-1.54c-.77,0-1.38.01-1.84.04-.46.03-1.07.06-1.86.1s-1.39.11-1.84.21c-.44.1-.99.22-1.64.35-.65.13-1.16.32-1.52.58-.37.26-.75.55-1.15.87-.4.32-.68.73-.84,1.2s-.23,1-.23,1.57c0,2.07.87,3.77,2.6,5.1,1.73,1.33,3.74,2,6.04,2,3.52,0,6.85-1.44,10-4.31h.08l4.22,4.31v.08c-4.17,4.11-8.96,6.16-14.38,6.13-4.17,0-7.65-1.2-10.45-3.61-2.8-2.4-4.2-5.29-4.2-8.66Z"/>
  <path d="M1160.16,243.82c3.31-1.75,7.15-2.62,11.52-2.62h24.84v7.5h-14.57v19.37c0,1.33.28,2.39.84,3.17s1.09,1.25,1.57,1.41.97.23,1.47.23c2.15,0,3.43-1.38,3.85-4.14h5.35c-.16,3.36-1.25,6.01-3.28,7.95-2.03,1.94-4.41,2.91-7.14,2.91s-5.02-.9-6.87-2.7c-1.85-1.8-2.96-3.92-3.32-6.36-.1-.65-.16-1.66-.16-3.04v-18.8h-2.81c-.47,0-.92.01-1.35.04-.43.03-.79.05-1.09.08-.3.03-.63.08-1,.16-.37.08-.62.14-.76.2-.14.05-.41.16-.8.31-.39.16-.64.26-.76.31-.12.05-.43.2-.94.45s-.81.4-.92.45l-3.67-6.88Z"/>
  <path d="M643.29,112.98v-6.72h48.95v6.72h-48.95ZM643.76,64.5v-6.72h48.01v6.72h-48.01ZM649.15,87.78v-6.72h37.27v6.72h-37.27Z"/>
  <path d="M822.46,93.05c0-2.95.44-5.8,1.33-8.53.88-2.73,2.14-5.25,3.77-7.55,1.63-2.3,2.92-4,3.87-5.1.95-1.1,2.21-2.39,3.77-3.88-1.12-.16-2.21-.41-3.25-.76-1.05-.35-2.25-.92-3.63-1.69-1.37-.77-2.48-1.92-3.33-3.45s-1.3-3.34-1.35-5.43h7.7c.16,3.16,2.03,4.75,5.62,4.75.75,0,1.54-.07,2.36-.2.82-.13,1.63-.32,2.42-.57.79-.25,1.52-.49,2.17-.72.65-.24,1.35-.54,2.09-.92s1.33-.67,1.75-.88c.43-.21.94-.49,1.55-.84.61-.35.96-.56,1.06-.61l4.02,6.59c-3.66,2.3-6.81,4.46-9.45,6.47-2.63,2.01-5.15,4.26-7.54,6.75-2.39,2.48-4.19,5.12-5.41,7.9-1.22,2.78-1.83,5.71-1.83,8.77,0,3.37.79,6.26,2.36,8.67,1.58,2.41,3.59,3.61,6.04,3.61h.94c1.22,0,2.61.18,4.18.55,1.57.37,3.25.93,5.05,1.68,1.8.75,3.3,1.92,4.51,3.51,1.21,1.59,1.81,3.46,1.81,5.63,0,2.04-.56,3.83-1.68,5.39-1.12,1.55-2.55,2.73-4.28,3.53-1.73.8-3.48,1.4-5.25,1.8-1.77.4-3.48.61-5.12.61v-7.5c5.75,0,8.63-1.28,8.63-3.83,0-1.06-.46-1.89-1.37-2.49-.91-.61-1.84-.96-2.79-1.06-.95-.1-2.17-.18-3.67-.23-1.5-.05-2.38-.1-2.64-.16-4.22-.52-7.68-2.66-10.37-6.42s-4.04-8.21-4.04-13.36Z"/>
  <path d="M993.58,112.98v-55.35h35.35v6.41h-26.95v48.95h-8.4Z"/>
  <path d="M1161.57,85.13c.05-3.46,1-6.17,2.85-8.11,1.84-1.94,3.94-2.91,6.28-2.91,3.45,0,6.02,2.03,7.73,6.1,2.24-4.09,5.28-6.12,9.11-6.1,3.21,0,5.89,1.48,8.06,4.45s3.25,7.19,3.25,12.66v35.12h-7.7v-34.88c0-2.08-.18-3.79-.55-5.12-.42-1.48-1.1-2.64-2.04-3.48-.94-.83-1.95-1.25-3.02-1.25-1.18,0-2.24.48-3.18,1.45-.94.96-1.59,2.36-1.96,4.18-.21,1.02-.31,2.55-.31,4.61v21.13h-7.7v-23.9c0-4.43-.46-6.96-1.38-7.62l-.4-.08c-1.13.11-1.7,1.36-1.7,3.74h-7.34Z"/>
  <g>
    <path d="M53.5,261.65v-13.52h3.15v13.58c0,.46,0,.85.03,1.17s.12.77.3,1.35.42,1.06.73,1.43.79.7,1.45.99,1.45.43,2.38.43c.88,0,1.64-.14,2.29-.42s1.14-.6,1.47-.97.59-.82.78-1.35.3-.97.34-1.32.07-.72.07-1.12v-13.77h2.89v13.55c0,2.42-.79,4.33-2.38,5.72s-3.42,2.09-5.52,2.09c-.9,0-1.8-.16-2.7-.47s-1.75-.76-2.56-1.35-1.46-1.41-1.96-2.46-.76-2.23-.76-3.55Z"/>
    <path d="M73.78,268.98v-14.17h2.75v1.44l.04,1c1.06-1.79,2.57-2.68,4.53-2.68.8,0,1.48.12,2.05.36s.99.52,1.27.84.5.74.67,1.26.25.94.27,1.27.03.74.03,1.22v9.45h-2.89v-9.49c0-.34-.02-.63-.06-.86-.04-.23-.14-.51-.32-.83s-.47-.57-.9-.73-.98-.25-1.64-.25c-.62,0-1.14.15-1.57.46s-.74.71-.92,1.2-.3.92-.36,1.29c-.06.37-.09.74-.09,1.1v8.11h-2.89Z"/>
    <path d="M89.3,250.97v-2.81h2.81v2.81h-2.81ZM89.3,268.98v-14.17h2.83v14.17h-2.83Z"/>
    <path d="M94.52,254.81h2.81c2.18,6.52,3.39,10.28,3.63,11.28l.45-1.61,3.18-9.67h2.78l-4.79,14.25h-3.28l-4.79-14.25Z"/>
    <path d="M108.68,261.81c0-2.06.65-3.81,1.95-5.24s2.86-2.15,4.67-2.15c.5,0,.99.05,1.47.16s.99.32,1.52.64.98.73,1.36,1.23.7,1.18.96,2.04.39,1.85.39,2.97h-9.65v.29c0,1.48.43,2.72,1.3,3.71s1.91,1.49,3.13,1.49c1.66,0,3.27-.57,4.83-1.71l.21,2.43c-1.58,1.02-3.26,1.52-5.04,1.52-2.08,0-3.78-.73-5.11-2.2s-1.99-3.2-1.99-5.2ZM111.75,259.7h6.84c-.48-2.02-1.57-3.03-3.27-3.03-.74,0-1.45.27-2.12.81s-1.15,1.28-1.46,2.23Z"/>
    <path d="M123.89,268.98v-14.17h2.7v3.03c1.18-2.14,2.93-3.23,5.26-3.27v2.52c-.54,0-1.07.08-1.6.23-.53.15-1.08.39-1.64.72s-1.02.82-1.36,1.47-.52,1.43-.52,2.34v7.12h-2.83Z"/>
    <path d="M133.18,267.81l.45-2.58c1.58,1.1,3.2,1.66,4.86,1.66.92,0,1.57-.19,1.96-.57s.59-.8.59-1.26-.17-.83-.51-1.13-.71-.49-1.11-.6-.91-.22-1.53-.34-1.07-.23-1.34-.33c-.84-.28-1.58-.77-2.22-1.46s-.96-1.54-.96-2.54c0-.46.07-.9.21-1.33s.38-.88.72-1.35.88-.84,1.6-1.12,1.61-.42,2.66-.42c1.52,0,3.07.34,4.64,1.01l-.44,2.46c-1.5-.82-3.02-1.23-4.54-1.23-.82,0-1.4.17-1.74.51s-.5.72-.5,1.14c0,.32.12.63.36.92s.56.5.96.64c.02,0,.56.12,1.62.35s1.85.49,2.37.76c1.58.88,2.37,2.15,2.37,3.81,0,1.14-.39,2.16-1.16,3.06s-2.09,1.35-3.97,1.35-3.65-.47-5.35-1.41Z"/>
    <path d="M146.32,250.97v-2.81h2.81v2.81h-2.81ZM146.32,268.98v-14.17h2.83v14.17h-2.83Z"/>
    <path d="M151.68,257.05v-2.24h2.46v-4.06h2.7v4.06h4.2v2.24h-4.2v6.88c0,1.97.52,2.95,1.57,2.95.78,0,1.64-.35,2.58-1.06l.6,2.15c-1.5.82-3.12,1.23-4.86,1.23s-2.64-1.65-2.64-4.96v-7.2h-2.4Z"/>
    <path d="M163.67,264.99c0-1.32.81-2.33,2.44-3.03,1.63-.7,3.71-1.09,6.26-1.17v-1.05c0-.82-.1-1.42-.31-1.8-.48-.92-1.22-1.38-2.24-1.38-1.02.02-1.85.15-2.49.39s-1.4.67-2.26,1.3l-.21-2.52c1.66-.86,3.33-1.29,5.01-1.29,1.5,0,2.74.44,3.72,1.32.98.88,1.52,1.94,1.62,3.18l.03,1v9.05h-2.8v-1.08l-.03-.83c-.56.7-1.3,1.24-2.23,1.6s-1.87.55-2.83.55c-1.18,0-2.09-.44-2.73-1.33s-.97-1.85-.97-2.89ZM165.36,251.78v-2.81h2.83v2.81h-2.83ZM166.43,264.93c0,.6.26,1.08.77,1.46s1.14.57,1.89.57c.68,0,1.31-.15,1.88-.45s.98-.7,1.23-1.2c.12-.26.18-.67.18-1.23v-1.89c-1.84.08-3.29.35-4.35.83s-1.6,1.11-1.6,1.91ZM171.47,251.78v-2.81h2.83v2.81h-2.83Z"/>
    <path d="M177.79,257.05v-2.24h2.46v-4.06h2.7v4.06h4.2v2.24h-4.2v6.88c0,1.97.52,2.95,1.57,2.95.78,0,1.64-.35,2.58-1.06l.6,2.15c-1.5.82-3.12,1.23-4.86,1.23s-2.64-1.65-2.64-4.96v-7.2h-2.4Z"/>
  </g>
  <g>
    <path d="M50.49,407.98v-20.84h7.18c2.1,0,3.84.37,5.22,1.1.96.5,1.71,1.13,2.26,1.89.55.76.83,1.55.83,2.35,0,1.48-.85,2.7-2.56,3.66-.51.28-1.33.6-2.45.94,1.77.32,3.19.96,4.26,1.92,1.07.96,1.61,2.04,1.61,3.24,0,1.44-.65,2.69-1.96,3.77-1.31,1.08-2.91,1.72-4.81,1.93-.34.04-.87.06-1.58.06h-8ZM53.5,396.01h3.63c1.8,0,3.24-.35,4.33-1.05s1.63-1.51,1.63-2.43-.58-1.6-1.74-2.16c-1.16-.56-2.62-.84-4.39-.84h-3.44l-.03.96v5.51ZM53.5,405.58h3.63c.08,0,.19,0,.34.01s.26.01.35.01c2.08,0,3.61-.36,4.6-1.09s1.48-1.5,1.48-2.32c0-.9-.47-1.73-1.41-2.49s-2.21-1.22-3.81-1.38c-.34-.04-.84-.06-1.49-.07h-3.66l-.03,1.05v6.27Z"/>
    <path d="M69.49,400.81c0-2.06.65-3.81,1.95-5.24s2.86-2.15,4.67-2.15c.5,0,.99.05,1.47.16s.99.32,1.52.64.98.73,1.36,1.23.7,1.18.96,2.04.39,1.85.39,2.97h-9.65v.29c0,1.48.43,2.72,1.3,3.71s1.91,1.49,3.13,1.49c1.66,0,3.27-.57,4.83-1.71l.21,2.43c-1.58,1.02-3.26,1.52-5.04,1.52-2.08,0-3.78-.73-5.11-2.2s-1.99-3.2-1.99-5.2ZM72.55,398.7h6.84c-.48-2.02-1.57-3.03-3.27-3.03-.74,0-1.45.27-2.12.81s-1.16,1.28-1.46,2.23Z"/>
    <path d="M84.7,389.97v-2.81h2.81v2.81h-2.81ZM84.7,407.98v-14.17h2.83v14.17h-2.83Z"/>
    <path d="M102.04,407.98v-20.84h4.15c4.2,10.86,6.37,16.68,6.5,17.46.14-.78,2.31-6.6,6.52-17.46h4.15v20.84h-2.83v-17.94c-.42,1.4-1.11,3.34-2.08,5.83l-4.44,11.6h-2.7l-4.35-11.4c-1.24-3.32-1.94-5.33-2.09-6.04v17.94h-2.83Z"/>
    <path d="M127.12,403.99c0-1.32.81-2.33,2.44-3.03s3.72-1.09,6.27-1.17v-1.05c0-.82-.1-1.42-.31-1.8-.48-.92-1.23-1.38-2.25-1.38-1.01.02-1.84.15-2.49.39s-1.39.67-2.25,1.3l-.2-2.52c1.66-.86,3.32-1.29,5-1.29,1.5,0,2.75.44,3.73,1.32.99.88,1.53,1.94,1.62,3.18l.03,1v9.05h-2.8v-1.08l-.03-.83c-.56.7-1.3,1.24-2.24,1.6s-1.88.55-2.84.55c-1.17,0-2.08-.44-2.73-1.33s-.97-1.85-.97-2.89ZM129.87,403.93c0,.6.26,1.08.77,1.46.51.38,1.14.57,1.89.57.69,0,1.32-.15,1.89-.45.58-.3.99-.7,1.23-1.2.12-.26.18-.67.18-1.23v-1.89c-1.84.08-3.29.35-4.36.83-1.07.47-1.6,1.11-1.6,1.91Z"/>
    <path d="M141.27,396.05v-2.24h2.46v-4.06h2.7v4.06h4.2v2.24h-4.2v6.88c0,1.97.52,2.95,1.57,2.95.78,0,1.64-.35,2.58-1.06l.6,2.15c-1.5.82-3.12,1.23-4.86,1.23s-2.64-1.65-2.64-4.96v-7.2h-2.4Z"/>
    <path d="M153.98,407.98v-20.84h2.83v7.78l.03,1.26c1.1-1.73,2.59-2.59,4.47-2.59.8,0,1.48.12,2.05.36s.99.52,1.27.84.51.74.67,1.26.25.94.27,1.27.03.74.03,1.22v9.45h-2.89v-9.49c0-.34-.02-.63-.06-.86-.04-.23-.14-.51-.31-.83s-.47-.57-.9-.73-.98-.25-1.64-.25c-.62,0-1.14.15-1.57.46s-.73.71-.92,1.2-.3.92-.36,1.29c-.06.37-.09.74-.09,1.1v8.11h-2.89Z"/>
    <path d="M168.43,400.81c0-2.06.65-3.81,1.95-5.24s2.86-2.15,4.67-2.15c.5,0,.99.05,1.47.16s.99.32,1.52.64.98.73,1.36,1.23.7,1.18.96,2.04.39,1.85.39,2.97h-9.65v.29c0,1.48.43,2.72,1.3,3.71s1.91,1.49,3.13,1.49c1.66,0,3.27-.57,4.83-1.71l.21,2.43c-1.58,1.02-3.26,1.52-5.04,1.52-2.08,0-3.78-.73-5.11-2.2s-1.99-3.2-1.99-5.2ZM171.49,398.7h6.84c-.48-2.02-1.57-3.03-3.27-3.03-.74,0-1.45.27-2.12.81s-1.16,1.28-1.46,2.23Z"/>
    <path d="M57.2,436.65v-13.52h3.15v13.58c0,.46,0,.85.03,1.17s.12.77.3,1.35.42,1.06.73,1.43.79.7,1.45.99,1.45.43,2.38.43c.88,0,1.64-.14,2.29-.42s1.14-.6,1.47-.97.59-.82.78-1.35.3-.97.34-1.32.07-.72.07-1.12v-13.77h2.89v13.55c0,2.42-.79,4.33-2.38,5.72s-3.42,2.09-5.52,2.09c-.9,0-1.8-.16-2.7-.47s-1.76-.76-2.56-1.35-1.46-1.41-1.96-2.46-.76-2.23-.76-3.55Z"/>
    <path d="M77.47,443.98v-14.17h2.75v1.44l.04,1c1.06-1.79,2.57-2.68,4.53-2.68.8,0,1.48.12,2.05.36s.99.52,1.27.84.51.74.67,1.26.25.94.27,1.27.03.74.03,1.22v9.45h-2.89v-9.49c0-.34-.02-.63-.06-.86-.04-.23-.14-.51-.31-.83s-.47-.57-.9-.73-.98-.25-1.64-.25c-.62,0-1.14.15-1.57.46s-.73.71-.92,1.2-.3.92-.36,1.29c-.06.37-.09.74-.09,1.1v8.11h-2.89Z"/>
    <path d="M91.62,432.05v-2.24h2.46v-4.06h2.7v4.06h4.2v2.24h-4.2v6.88c0,1.97.52,2.95,1.57,2.95.78,0,1.64-.35,2.58-1.06l.6,2.15c-1.5.82-3.12,1.23-4.86,1.23s-2.64-1.65-2.64-4.96v-7.2h-2.4Z"/>
    <path d="M103.29,436.81c0-2.06.65-3.81,1.95-5.24s2.86-2.15,4.67-2.15c.5,0,.99.05,1.47.16s.99.32,1.52.64.98.73,1.36,1.23.7,1.18.96,2.04.39,1.85.39,2.97h-9.65v.29c0,1.48.43,2.72,1.3,3.71s1.91,1.49,3.13,1.49c1.66,0,3.27-.57,4.83-1.71l.21,2.43c-1.58,1.02-3.26,1.52-5.04,1.52-2.08,0-3.78-.73-5.11-2.2s-1.99-3.2-1.99-5.2ZM106.35,434.7h6.84c-.48-2.02-1.57-3.03-3.27-3.03-.74,0-1.45.27-2.12.81s-1.16,1.28-1.46,2.23Z"/>
    <path d="M118.49,443.98v-14.17h2.7v3.03c1.18-2.14,2.93-3.23,5.26-3.27v2.52c-.54,0-1.07.08-1.6.23-.53.15-1.08.39-1.64.72s-1.02.82-1.36,1.47-.52,1.43-.52,2.34v7.12h-2.83Z"/>
    <path d="M128.86,443.98v-14.17h2.7v3.03c1.18-2.14,2.93-3.23,5.26-3.27v2.52c-.54,0-1.07.08-1.6.23-.53.15-1.08.39-1.64.72s-1.02.82-1.36,1.47-.52,1.43-.52,2.34v7.12h-2.83Z"/>
    <path d="M139.23,425.97v-2.81h2.81v2.81h-2.81ZM139.23,443.98v-14.17h2.83v14.17h-2.83Z"/>
    <path d="M145.08,436.87c0-2.02.66-3.77,1.97-5.24s2.99-2.2,5.03-2.2c1.04,0,1.87.09,2.5.27s1.43.52,2.39,1.02l-.42,2.46c-.84-.54-1.54-.91-2.12-1.11s-1.36-.31-2.35-.31c-.48,0-.93.07-1.35.21s-.85.38-1.3.73-.81.87-1.07,1.59-.4,1.59-.4,2.61c0,1.78.41,3.05,1.23,3.82s1.75,1.16,2.8,1.16c1.68,0,3.33-.55,4.95-1.66l.21,2.49c-1.66,1-3.37,1.49-5.13,1.49-2,0-3.66-.73-4.97-2.18s-1.97-3.17-1.97-5.16Z"/>
    <path d="M159.95,443.98v-20.84h2.83v7.78l.03,1.26c1.1-1.73,2.59-2.59,4.47-2.59.8,0,1.48.12,2.05.36s.99.52,1.27.84.51.74.67,1.26.25.94.27,1.27.03.74.03,1.22v9.45h-2.89v-9.49c0-.34-.02-.63-.06-.86-.04-.23-.14-.51-.31-.83s-.47-.57-.9-.73-.98-.25-1.64-.25c-.62,0-1.14.15-1.57.46s-.73.71-.92,1.2-.3.92-.36,1.29c-.06.37-.09.74-.09,1.1v8.11h-2.89Z"/>
    <path d="M174.1,432.05v-2.24h2.46v-4.06h2.7v4.06h4.2v2.24h-4.2v6.88c0,1.97.52,2.95,1.57,2.95.78,0,1.64-.35,2.58-1.06l.6,2.15c-1.5.82-3.12,1.23-4.86,1.23s-2.64-1.65-2.64-4.96v-7.2h-2.4Z"/>
    <path d="M53.41,475.99c0-1.32.81-2.33,2.44-3.03s3.72-1.09,6.27-1.17v-1.05c0-.82-.1-1.42-.31-1.8-.48-.92-1.23-1.38-2.25-1.38-1.01.02-1.84.15-2.49.39s-1.39.67-2.25,1.3l-.2-2.52c1.66-.86,3.32-1.29,5-1.29,1.5,0,2.75.44,3.73,1.32.99.88,1.53,1.94,1.62,3.18l.03,1v9.05h-2.8v-1.08l-.03-.83c-.56.7-1.3,1.24-2.24,1.6s-1.88.55-2.84.55c-1.17,0-2.08-.44-2.73-1.33s-.97-1.85-.97-2.89ZM56.16,475.93c0,.6.26,1.08.77,1.46.51.38,1.14.57,1.89.57.69,0,1.32-.15,1.89-.45.58-.3.99-.7,1.23-1.2.12-.26.18-.67.18-1.23v-1.89c-1.84.08-3.29.35-4.36.83-1.07.47-1.6,1.11-1.6,1.91Z"/>
    <path d="M68.91,476.05v-10.24h2.89v10.02c.02.98.09,1.57.21,1.77.22.32.91.48,2.07.48s2.05-.31,2.6-.93.87-1.24.94-1.85c.02-.2.03-.51.03-.94v-8.55h2.89v14.17h-2.83v-2.26c-1.42,1.66-3.29,2.49-5.61,2.49-.72,0-1.31-.12-1.77-.37s-.78-.61-.97-1.09-.31-.91-.36-1.29-.07-.85-.07-1.41Z"/>
    <path d="M83.33,468.05v-2.24h2.09v-1.58c0-.92.12-1.69.35-2.31.23-.62.71-1.22,1.44-1.81.98-.82,2.21-1.23,3.68-1.23.72,0,1.55.08,2.49.25v2.51c-.98-.35-1.83-.52-2.55-.52-.68,0-1.29.15-1.83.44-.54.29-.81.78-.81,1.47v2.78h3.28v2.24h-3.22v11.92h-2.83v-11.92h-2.09Z"/>
    <path d="M93.16,472.86c0-2.03.58-3.75,1.72-5.16,1.15-1.41,2.51-2.12,4.07-2.12s2.79.69,3.86,2.08v-2.08h2.83v14.14c0,1.72-.55,3.11-1.65,4.18s-2.48,1.6-4.14,1.6c-1.84,0-3.68-.45-5.54-1.34v-2.46c.58.32,1.04.57,1.39.74s.91.35,1.68.54c.77.19,1.57.29,2.41.29.76,0,1.44-.27,2.05-.82.61-.54.91-1.45.91-2.73v-2.1l-.03-1.01c-.17.34-.4.67-.67,1-.27.33-.73.68-1.37,1.06-.64.38-1.34.56-2.1.56-1.44,0-2.7-.6-3.79-1.8-1.09-1.2-1.64-2.72-1.64-4.57ZM96.05,472.86c0,1.19.39,2.17,1.17,2.96.78.78,1.68,1.17,2.69,1.17.68,0,1.25-.25,1.7-.74.45-.49.75-1.05.9-1.69.15-.63.24-1.32.26-2.07h.06v-2.17c0-.58-.24-1.14-.73-1.69s-1.09-.82-1.81-.82c-1.08,0-2.06.48-2.92,1.44s-1.3,2.16-1.3,3.6Z"/>
    <path d="M108.47,472.81c0-2.06.65-3.81,1.95-5.24s2.86-2.15,4.67-2.15c.5,0,.99.05,1.47.16s.99.32,1.52.64.98.73,1.36,1.23.7,1.18.96,2.04.39,1.85.39,2.97h-9.65v.29c0,1.48.43,2.72,1.3,3.71s1.91,1.49,3.13,1.49c1.66,0,3.27-.57,4.83-1.71l.21,2.43c-1.58,1.02-3.26,1.52-5.04,1.52-2.08,0-3.78-.73-5.11-2.2s-1.99-3.2-1.99-5.2ZM111.53,470.7h6.84c-.48-2.02-1.57-3.03-3.27-3.03-.74,0-1.45.27-2.12.81s-1.16,1.28-1.46,2.23Z"/>
    <path d="M123.68,484.99v-19.17h2.83v1.67c1.52-1.27,3.2-1.9,5.04-1.9,1.31,0,2.4.71,3.28,2.12.87,1.41,1.31,3.14,1.31,5.18s-.56,3.82-1.67,5.22-2.46,2.11-4.03,2.11c-1.42,0-2.71-.6-3.87-1.79v6.56h-2.89ZM126.56,476.57c.22.28.39.48.48.6.1.12.34.28.73.49s.81.31,1.25.31c1.08,0,2.06-.48,2.92-1.43s1.3-2.17,1.3-3.66-.39-2.62-1.18-3.56-1.7-1.41-2.75-1.41c-.98,0-1.89.41-2.75,1.23v7.43Z"/>
    <path d="M138.4,475.99c0-1.32.81-2.33,2.44-3.03s3.72-1.09,6.27-1.17v-1.05c0-.82-.1-1.42-.31-1.8-.48-.92-1.23-1.38-2.25-1.38-1.01.02-1.84.15-2.49.39s-1.39.67-2.25,1.3l-.2-2.52c1.66-.86,3.32-1.29,5-1.29,1.5,0,2.75.44,3.73,1.32.99.88,1.53,1.94,1.62,3.18l.03,1v9.05h-2.8v-1.08l-.03-.83c-.56.7-1.3,1.24-2.24,1.6s-1.88.55-2.84.55c-1.17,0-2.08-.44-2.73-1.33s-.97-1.85-.97-2.89ZM141.15,475.93c0,.6.26,1.08.77,1.46.51.38,1.14.57,1.89.57.69,0,1.32-.15,1.89-.45.58-.3.99-.7,1.23-1.2.12-.26.18-.67.18-1.23v-1.89c-1.84.08-3.29.35-4.36.83-1.07.47-1.6,1.11-1.6,1.91Z"/>
    <path d="M152.84,478.81l.45-2.58c1.58,1.1,3.2,1.66,4.86,1.66.92,0,1.57-.19,1.96-.57s.59-.8.59-1.26-.17-.83-.51-1.13-.71-.49-1.11-.6-.91-.22-1.53-.34-1.07-.23-1.34-.33c-.84-.28-1.58-.77-2.22-1.46s-.96-1.54-.96-2.54c0-.46.07-.9.21-1.33s.38-.88.72-1.35.88-.84,1.6-1.12,1.61-.42,2.66-.42c1.52,0,3.07.34,4.64,1.01l-.44,2.46c-1.5-.82-3.02-1.23-4.54-1.23-.82,0-1.4.17-1.74.51s-.51.72-.51,1.14c0,.32.12.63.36.92s.56.5.96.64c.02,0,.56.12,1.62.35s1.85.49,2.37.76c1.58.88,2.37,2.15,2.37,3.81,0,1.14-.39,2.16-1.16,3.06s-2.09,1.35-3.97,1.35-3.65-.47-5.35-1.41Z"/>
    <path d="M164.9,478.81l.45-2.58c1.58,1.1,3.2,1.66,4.86,1.66.92,0,1.57-.19,1.96-.57s.59-.8.59-1.26-.17-.83-.51-1.13-.71-.49-1.11-.6-.91-.22-1.53-.34-1.07-.23-1.34-.33c-.84-.28-1.58-.77-2.22-1.46s-.96-1.54-.96-2.54c0-.46.07-.9.21-1.33s.38-.88.72-1.35.88-.84,1.6-1.12,1.61-.42,2.66-.42c1.52,0,3.07.34,4.64,1.01l-.44,2.46c-1.5-.82-3.02-1.23-4.54-1.23-.82,0-1.4.17-1.74.51s-.51.72-.51,1.14c0,.32.12.63.36.92s.56.5.96.64c.02,0,.56.12,1.62.35s1.85.49,2.37.76c1.58.88,2.37,2.15,2.37,3.81,0,1.14-.39,2.16-1.16,3.06s-2.09,1.35-3.97,1.35-3.65-.47-5.35-1.41Z"/>
    <path d="M176.66,468.05v-2.24h2.46v-4.06h2.7v4.06h4.2v2.24h-4.2v6.88c0,1.97.52,2.95,1.57,2.95.78,0,1.64-.35,2.58-1.06l.6,2.15c-1.5.82-3.12,1.23-4.86,1.23s-2.64-1.65-2.64-4.96v-7.2h-2.4Z"/>
  </g>
  <g>
    <path d="M55.16,577.98v-20.85h4.15c4.2,10.86,6.37,16.68,6.5,17.46.14-.78,2.31-6.6,6.52-17.46h4.15v20.85h-2.83v-17.95c-.42,1.4-1.11,3.34-2.08,5.83l-4.44,11.6h-2.7l-4.35-11.4c-1.24-3.32-1.94-5.33-2.09-6.04v17.95h-2.83Z"/>
    <path d="M80.24,573.99c0-1.32.81-2.33,2.44-3.03,1.63-.7,3.72-1.09,6.27-1.17v-1.05c0-.82-.1-1.42-.31-1.8-.48-.92-1.23-1.38-2.25-1.38-1.01.02-1.84.15-2.49.39-.64.24-1.39.67-2.25,1.3l-.2-2.52c1.66-.86,3.33-1.29,5-1.29,1.5,0,2.75.44,3.73,1.32.98.88,1.53,1.94,1.62,3.18l.03,1v9.05h-2.8v-1.08l-.03-.84c-.56.7-1.3,1.24-2.24,1.6-.94.37-1.88.55-2.84.55-1.17,0-2.08-.45-2.73-1.33s-.97-1.85-.97-2.88ZM82.99,573.93c0,.6.26,1.08.77,1.46.51.38,1.14.57,1.89.57.68,0,1.32-.15,1.89-.45.58-.3.99-.7,1.23-1.2.12-.26.18-.67.18-1.23v-1.89c-1.84.08-3.29.35-4.36.83-1.07.47-1.6,1.11-1.6,1.91Z"/>
    <path d="M94.39,566.05v-2.24h2.46v-4.06h2.7v4.06h4.2v2.24h-4.2v6.88c0,1.97.52,2.95,1.57,2.95.78,0,1.64-.35,2.58-1.06l.6,2.16c-1.5.82-3.12,1.23-4.86,1.23s-2.64-1.65-2.64-4.96v-7.2h-2.4Z"/>
    <path d="M107.1,577.98v-20.85h2.83v7.78l.03,1.26c1.1-1.73,2.59-2.59,4.47-2.59.8,0,1.48.12,2.05.36s.99.52,1.27.84.5.74.67,1.26.25.94.27,1.28.03.74.03,1.21v9.45h-2.89v-9.49c0-.34-.02-.63-.06-.86-.04-.23-.14-.51-.32-.83s-.47-.57-.9-.73-.98-.25-1.64-.25c-.62,0-1.14.15-1.57.46-.43.31-.74.71-.92,1.2-.18.49-.3.92-.36,1.29s-.09.74-.09,1.1v8.11h-2.89Z"/>
    <path d="M121.54,570.81c0-2.06.65-3.81,1.95-5.24s2.86-2.15,4.67-2.15c.5,0,.99.05,1.47.16s.99.32,1.52.64.98.73,1.36,1.23.7,1.18.96,2.04.39,1.85.39,2.97h-9.65v.29c0,1.48.43,2.72,1.3,3.71s1.91,1.49,3.13,1.49c1.66,0,3.27-.57,4.83-1.71l.21,2.43c-1.58,1.02-3.26,1.52-5.04,1.52-2.08,0-3.78-.73-5.11-2.2s-1.99-3.2-1.99-5.2ZM124.61,568.7h6.84c-.48-2.02-1.57-3.03-3.27-3.03-.74,0-1.45.27-2.12.81s-1.15,1.28-1.46,2.23Z"/>
    <path d="M146.7,577.98v-14.17h2.75v1.44l.04,1c1.06-1.79,2.57-2.68,4.53-2.68.34,0,.66.02.95.06s.56.09.79.16c.23.07.44.16.64.27.2.11.37.22.51.31.14.1.27.22.39.37s.21.28.28.38c.07.1.15.23.23.38.08.16.13.27.15.34.02.07.05.17.1.3.05.13.07.2.07.22,1.03-1.87,2.56-2.8,4.61-2.8h.03c.78,0,1.46.12,2.02.36.57.24.99.52,1.28.83s.51.72.67,1.23.26.93.29,1.27.04.76.04,1.26v9.45h-2.89v-9.31c-.04-.92-.19-1.56-.46-1.92-.46-.62-1.3-.92-2.53-.92-.76,0-1.43.31-2.01.95-.58.63-.87,1.67-.87,3.1v8.11h-2.89v-9.31c-.02-.88-.14-1.49-.37-1.83-.43-.67-1.27-1.01-2.52-1.01h-.06c-.76,0-1.44.31-2.02.95s-.88,1.67-.88,3.1v8.11h-2.89Z"/>
    <path d="M170.95,559.97v-2.81h2.81v2.81h-2.81ZM170.95,577.98v-14.17h2.83v14.17h-2.83Z"/>
    <path d="M176.32,566.05v-2.24h2.46v-4.06h2.7v4.06h4.2v2.24h-4.2v6.88c0,1.97.52,2.95,1.57,2.95.78,0,1.64-.35,2.58-1.06l.6,2.16c-1.5.82-3.12,1.23-4.86,1.23s-2.64-1.65-2.64-4.96v-7.2h-2.4Z"/>
    <path d="M31.05,609.99c0-1.32.81-2.33,2.44-3.03s3.72-1.09,6.27-1.17v-1.05c0-.82-.1-1.42-.31-1.8-.48-.92-1.23-1.38-2.25-1.38-1.01.02-1.84.15-2.49.39s-1.39.67-2.25,1.3l-.2-2.52c1.66-.86,3.32-1.29,5-1.29,1.5,0,2.75.44,3.73,1.32.99.88,1.53,1.94,1.62,3.18l.03,1v9.05h-2.8v-1.08l-.03-.84c-.56.7-1.3,1.24-2.24,1.6s-1.88.55-2.84.55c-1.17,0-2.08-.45-2.73-1.33s-.97-1.85-.97-2.88ZM33.81,609.93c0,.6.26,1.08.77,1.46.51.38,1.14.57,1.89.57.69,0,1.32-.15,1.89-.45.58-.3.99-.7,1.23-1.2.12-.26.18-.67.18-1.23v-1.89c-1.84.08-3.29.35-4.36.83-1.07.47-1.6,1.11-1.6,1.91Z"/>
    <path d="M45.69,606.87c0-2.02.66-3.77,1.97-5.24s2.99-2.21,5.03-2.21c1.04,0,1.87.09,2.5.27s1.43.52,2.39,1.02l-.42,2.46c-.84-.54-1.54-.91-2.12-1.11s-1.36-.31-2.35-.31c-.48,0-.93.07-1.35.21s-.85.38-1.3.73-.81.87-1.07,1.59-.4,1.59-.4,2.61c0,1.78.41,3.05,1.23,3.82s1.75,1.16,2.8,1.16c1.68,0,3.33-.55,4.95-1.65l.21,2.49c-1.66,1-3.37,1.49-5.13,1.49-2,0-3.66-.73-4.97-2.18s-1.97-3.17-1.97-5.16Z"/>
    <path d="M60.56,613.98v-20.85h2.83v7.78l.03,1.26c1.1-1.73,2.59-2.59,4.47-2.59.8,0,1.48.12,2.05.36s.99.52,1.27.84.51.74.67,1.26.25.94.27,1.28.03.74.03,1.21v9.45h-2.89v-9.49c0-.34-.02-.63-.06-.86-.04-.23-.14-.51-.31-.83s-.47-.57-.9-.73-.98-.25-1.64-.25c-.62,0-1.14.15-1.57.46-.43.31-.73.71-.92,1.2-.18.49-.3.92-.36,1.29s-.09.74-.09,1.1v8.11h-2.89Z"/>
    <path d="M86.03,610.05v-10.24h2.89v10.02c.02.98.09,1.57.21,1.77.22.32.91.48,2.07.48s2.05-.31,2.6-.93.87-1.24.94-1.85c.02-.2.03-.51.03-.94v-8.55h2.89v14.17h-2.83v-2.26c-1.42,1.66-3.29,2.49-5.61,2.49-.72,0-1.31-.12-1.77-.37s-.78-.61-.97-1.09-.31-.91-.36-1.29-.07-.85-.07-1.41Z"/>
    <path d="M101.53,613.98v-14.17h2.75v1.44l.04,1c1.06-1.79,2.57-2.68,4.53-2.68.8,0,1.48.12,2.05.36s.99.52,1.27.84.51.74.67,1.26.25.94.27,1.28.03.74.03,1.21v9.45h-2.89v-9.49c0-.34-.02-.63-.06-.86-.04-.23-.14-.51-.31-.83s-.47-.57-.9-.73-.98-.25-1.64-.25c-.62,0-1.14.15-1.57.46-.43.31-.73.71-.92,1.2-.18.49-.3.92-.36,1.29s-.09.74-.09,1.1v8.11h-2.89Z"/>
    <path d="M116.16,606.87c0-1.98.5-3.69,1.5-5.13s2.26-2.16,3.79-2.16,3.04.58,4.37,1.73v-8.18h2.83v20.85h-2.89v-1.77c-1.3,1.34-2.74,2.01-4.34,2.01-1.51,0-2.76-.72-3.76-2.16-1-1.44-1.5-3.17-1.5-5.19ZM119.05,607.28c.04,1.44.33,2.53.88,3.29.7.94,1.71,1.41,3.03,1.41.5,0,.96-.12,1.4-.36.44-.24.73-.44.87-.6.14-.16.32-.38.53-.67v-7.39c-.71-.75-1.53-1.13-2.46-1.13h-.03c-1.28,0-2.3.4-3.08,1.19-.76.78-1.14,2-1.14,3.64v.63Z"/>
    <path d="M142.59,613.98v-20.85h2.67v12.32l5.26-5.64h3.41l-4.98,5.41,5.71,8.76h-3.06l-4.48-6.87-1.92,2.07v4.8h-2.61Z"/>
    <path d="M157.13,613.98v-14.17h2.7v3.04c1.18-2.14,2.93-3.23,5.26-3.27v2.52c-.54,0-1.07.08-1.6.23-.53.15-1.08.39-1.64.72s-1.02.82-1.36,1.47c-.35.65-.52,1.43-.52,2.34v7.12h-2.83Z"/>
    <path d="M166.73,609.99c0-1.32.81-2.33,2.44-3.03s3.72-1.09,6.27-1.17v-1.05c0-.82-.1-1.42-.31-1.8-.48-.92-1.23-1.38-2.25-1.38-1.01.02-1.84.15-2.49.39s-1.39.67-2.25,1.3l-.2-2.52c1.66-.86,3.32-1.29,5-1.29,1.5,0,2.75.44,3.73,1.32.99.88,1.53,1.94,1.62,3.18l.03,1v9.05h-2.8v-1.08l-.03-.84c-.56.7-1.3,1.24-2.24,1.6s-1.88.55-2.84.55c-1.17,0-2.08-.45-2.73-1.33s-.97-1.85-.97-2.88ZM169.48,609.93c0,.6.26,1.08.77,1.46.51.38,1.14.57,1.89.57.69,0,1.32-.15,1.89-.45.58-.3.99-.7,1.23-1.2.12-.26.18-.67.18-1.23v-1.89c-1.84.08-3.29.35-4.36.83-1.07.47-1.6,1.11-1.6,1.91Z"/>
    <path d="M181.36,606.87c0-2.02.66-3.77,1.97-5.24s2.99-2.21,5.03-2.21c1.04,0,1.87.09,2.5.27s1.43.52,2.39,1.02l-.42,2.46c-.84-.54-1.54-.91-2.12-1.11s-1.36-.31-2.35-.31c-.48,0-.93.07-1.35.21s-.85.38-1.3.73-.81.87-1.07,1.59-.4,1.59-.4,2.61c0,1.78.41,3.05,1.23,3.82s1.75,1.16,2.8,1.16c1.68,0,3.33-.55,4.95-1.65l.21,2.49c-1.66,1-3.37,1.49-5.13,1.49-2,0-3.66-.73-4.97-2.18s-1.97-3.17-1.97-5.16Z"/>
    <path d="M196.23,613.98v-20.85h2.83v7.78l.03,1.26c1.1-1.73,2.59-2.59,4.47-2.59.8,0,1.48.12,2.05.36s.99.52,1.27.84.51.74.67,1.26.25.94.27,1.28.03.74.03,1.21v9.45h-2.89v-9.49c0-.34-.02-.63-.06-.86-.04-.23-.14-.51-.31-.83s-.47-.57-.9-.73-.98-.25-1.64-.25c-.62,0-1.14.15-1.57.46-.43.31-.73.71-.92,1.2-.18.49-.3.92-.36,1.29s-.09.74-.09,1.1v8.11h-2.89Z"/>
    <path d="M62.63,642.86c0-2.03.57-3.75,1.72-5.16,1.15-1.42,2.51-2.12,4.07-2.12s2.79.69,3.86,2.08v-2.08h2.83v14.14c0,1.72-.55,3.11-1.65,4.18-1.1,1.07-2.48,1.6-4.14,1.6-1.84,0-3.68-.45-5.54-1.34v-2.46c.58.32,1.04.57,1.39.73.35.17.91.35,1.68.54.77.19,1.57.29,2.41.29.76,0,1.44-.27,2.05-.82.61-.54.91-1.45.91-2.73v-2.1l-.03-1.01c-.18.34-.4.67-.67,1-.27.33-.73.68-1.37,1.06-.64.38-1.34.56-2.1.56-1.44,0-2.7-.6-3.79-1.8-1.09-1.2-1.64-2.72-1.64-4.57ZM65.51,642.86c0,1.19.39,2.18,1.17,2.96s1.68,1.17,2.69,1.17c.68,0,1.25-.25,1.7-.74s.75-1.05.9-1.69c.15-.63.24-1.32.26-2.07h.06v-2.17c0-.58-.24-1.14-.73-1.69-.49-.55-1.09-.82-1.81-.82-1.08,0-2.06.48-2.92,1.44-.87.96-1.3,2.16-1.3,3.6Z"/>
    <path d="M77.94,642.81c0-2.06.65-3.81,1.95-5.24s2.86-2.15,4.67-2.15c.5,0,.99.05,1.47.16s.99.32,1.52.64.98.73,1.36,1.23.7,1.18.96,2.04.39,1.85.39,2.97h-9.65v.29c0,1.48.43,2.72,1.3,3.71s1.91,1.49,3.13,1.49c1.66,0,3.27-.57,4.83-1.71l.21,2.43c-1.58,1.02-3.26,1.52-5.04,1.52-2.08,0-3.78-.73-5.11-2.2s-1.99-3.2-1.99-5.2ZM81,640.7h6.84c-.48-2.02-1.57-3.03-3.27-3.03-.74,0-1.45.27-2.12.81s-1.15,1.28-1.46,2.23Z"/>
    <path d="M92.06,648.81l.45-2.58c1.58,1.1,3.2,1.65,4.86,1.65.92,0,1.57-.19,1.96-.57s.59-.8.59-1.26-.17-.84-.51-1.13-.71-.49-1.11-.6-.91-.22-1.53-.34-1.07-.23-1.34-.33c-.84-.28-1.58-.77-2.22-1.46s-.96-1.54-.96-2.54c0-.46.07-.9.21-1.33s.38-.88.72-1.35.88-.84,1.6-1.12,1.61-.42,2.66-.42c1.52,0,3.07.34,4.64,1.01l-.44,2.46c-1.5-.82-3.02-1.23-4.54-1.23-.82,0-1.4.17-1.74.51s-.5.72-.5,1.14c0,.32.12.63.36.92s.56.5.96.64c.02,0,.56.12,1.62.35s1.85.49,2.37.76c1.58.88,2.37,2.15,2.37,3.81,0,1.14-.39,2.16-1.16,3.06s-2.09,1.35-3.97,1.35-3.65-.47-5.35-1.41Z"/>
    <path d="M104.3,642.87c0-2.02.66-3.77,1.97-5.24s2.99-2.21,5.03-2.21c1.04,0,1.87.09,2.5.27s1.43.52,2.4,1.02l-.42,2.46c-.84-.54-1.55-.91-2.12-1.11s-1.35-.31-2.35-.31c-.48,0-.93.07-1.35.21s-.85.38-1.3.73-.81.87-1.07,1.59-.4,1.59-.4,2.61c0,1.78.41,3.05,1.23,3.82s1.75,1.16,2.8,1.16c1.68,0,3.33-.55,4.95-1.65l.21,2.49c-1.66,1-3.37,1.49-5.13,1.49-2,0-3.66-.73-4.97-2.18s-1.97-3.17-1.97-5.16Z"/>
    <path d="M119.17,649.98v-20.85h2.83v7.78l.03,1.26c1.1-1.73,2.59-2.59,4.47-2.59.8,0,1.48.12,2.05.36s.99.52,1.27.84.5.74.67,1.26.25.94.27,1.28.03.74.03,1.21v9.45h-2.89v-9.49c0-.34-.02-.63-.06-.86-.04-.23-.14-.51-.32-.83s-.47-.57-.9-.73-.98-.25-1.64-.25c-.62,0-1.14.15-1.57.46-.43.31-.74.71-.92,1.2-.18.49-.3.92-.36,1.29s-.09.74-.09,1.1v8.11h-2.89Z"/>
    <path d="M133.92,645.99c0-1.32.81-2.33,2.44-3.03,1.63-.7,3.72-1.09,6.27-1.17v-1.05c0-.82-.1-1.42-.31-1.8-.48-.92-1.23-1.38-2.25-1.38-1.01.02-1.84.15-2.49.39-.64.24-1.39.67-2.25,1.3l-.2-2.52c1.66-.86,3.33-1.29,5-1.29,1.5,0,2.75.44,3.73,1.32.98.88,1.53,1.94,1.62,3.18l.03,1v9.05h-2.8v-1.08l-.03-.84c-.56.7-1.3,1.24-2.24,1.6-.94.37-1.88.55-2.84.55-1.17,0-2.08-.45-2.73-1.33s-.97-1.85-.97-2.88ZM136.68,645.93c0,.6.26,1.08.77,1.46.51.38,1.14.57,1.89.57.68,0,1.32-.15,1.89-.45.58-.3.99-.7,1.23-1.2.12-.26.18-.67.18-1.23v-1.89c-1.84.08-3.29.35-4.36.83-1.07.47-1.6,1.11-1.6,1.91Z"/>
    <path d="M148.35,638.05v-2.24h2.09v-1.58c0-.92.12-1.69.35-2.31s.71-1.22,1.44-1.81c.98-.82,2.21-1.23,3.68-1.23.72,0,1.55.08,2.49.25v2.51c-.98-.34-1.83-.52-2.55-.52-.68,0-1.29.15-1.83.44-.54.29-.81.78-.81,1.47v2.78h3.28v2.24h-3.22v11.92h-2.83v-11.92h-2.09Z"/>
    <path d="M157.98,638.05v-2.24h2.09v-1.58c0-.92.12-1.69.35-2.31s.71-1.22,1.44-1.81c.98-.82,2.21-1.23,3.68-1.23.72,0,1.55.08,2.49.25v2.51c-.98-.34-1.83-.52-2.55-.52-.68,0-1.29.15-1.83.44-.54.29-.81.78-.81,1.47v2.78h3.28v2.24h-3.22v11.92h-2.83v-11.92h-2.09Z"/>
    <path d="M167.32,638.05v-2.24h2.46v-4.06h2.7v4.06h4.2v2.24h-4.2v6.88c0,1.97.52,2.95,1.57,2.95.78,0,1.64-.35,2.58-1.06l.6,2.16c-1.5.82-3.12,1.23-4.86,1.23s-2.64-1.65-2.64-4.96v-7.2h-2.4Z"/>
  </g>
  <g>
    <path d="M11.03,750.98v-20.76h14.55v2.4h-11.4v6.36h10.53v2.4h-10.53v7.08h11.85v2.52h-15Z"/>
    <path d="M29.32,750.98v-14.17h2.7v3.04c1.18-2.14,2.93-3.23,5.26-3.27v2.52c-.54,0-1.07.08-1.6.23-.53.15-1.08.39-1.64.72s-1.02.82-1.36,1.47c-.35.65-.52,1.43-.52,2.34v7.12h-2.83Z"/>
    <path d="M38.61,749.81l.45-2.58c1.58,1.1,3.2,1.65,4.86,1.65.92,0,1.57-.19,1.96-.57s.59-.8.59-1.26-.17-.84-.51-1.13-.71-.49-1.11-.6-.91-.22-1.53-.34-1.07-.23-1.34-.33c-.84-.28-1.58-.77-2.22-1.46s-.96-1.54-.96-2.54c0-.46.07-.9.21-1.33s.38-.88.72-1.35.88-.84,1.6-1.12,1.61-.42,2.66-.42c1.52,0,3.07.34,4.64,1.01l-.44,2.46c-1.5-.82-3.02-1.23-4.54-1.23-.82,0-1.4.17-1.74.51s-.51.72-.51,1.14c0,.32.12.63.36.92s.56.5.96.64c.02,0,.56.12,1.62.35s1.85.49,2.37.76c1.58.88,2.37,2.15,2.37,3.81,0,1.14-.39,2.16-1.16,3.06s-2.09,1.35-3.97,1.35-3.65-.47-5.35-1.41Z"/>
    <path d="M50.37,739.05v-2.24h2.46v-4.06h2.7v4.06h4.2v2.24h-4.2v6.88c0,1.97.52,2.95,1.57,2.95.78,0,1.64-.35,2.58-1.06l.6,2.16c-1.5.82-3.12,1.23-4.86,1.23s-2.64-1.65-2.64-4.96v-7.2h-2.4Z"/>
    <path d="M62.03,743.81c0-2.06.65-3.81,1.95-5.24s2.86-2.15,4.67-2.15c.5,0,.99.05,1.47.16s.99.32,1.52.64.98.73,1.36,1.23.7,1.18.96,2.04.39,1.85.39,2.97h-9.65v.29c0,1.48.43,2.72,1.3,3.71s1.91,1.49,3.13,1.49c1.66,0,3.27-.57,4.83-1.71l.21,2.43c-1.58,1.02-3.26,1.52-5.04,1.52-2.08,0-3.78-.73-5.11-2.2s-1.99-3.2-1.99-5.2ZM65.09,741.7h6.84c-.48-2.02-1.57-3.03-3.27-3.03-.74,0-1.45.27-2.12.81s-1.16,1.28-1.46,2.23Z"/>
    <path d="M87.73,750.98v-20.85h7.18c2.1,0,3.84.37,5.22,1.1.96.5,1.71,1.13,2.26,1.89s.83,1.55.83,2.35c0,1.48-.85,2.7-2.56,3.66-.51.28-1.33.6-2.45.94,1.77.32,3.19.96,4.26,1.92,1.07.96,1.61,2.04,1.61,3.24,0,1.44-.65,2.69-1.96,3.77-1.31,1.08-2.91,1.72-4.81,1.93-.34.04-.87.06-1.58.06h-8ZM90.73,739.01h3.63c1.8,0,3.24-.35,4.33-1.05s1.63-1.51,1.63-2.43-.58-1.59-1.74-2.16c-1.16-.56-2.62-.84-4.39-.84h-3.44l-.03.96v5.51ZM90.73,748.58h3.63c.08,0,.19,0,.34.01s.26.02.35.02c2.08,0,3.61-.36,4.6-1.09s1.48-1.5,1.48-2.32c0-.9-.47-1.73-1.41-2.49s-2.21-1.22-3.81-1.38c-.34-.04-.84-.06-1.49-.07h-3.66l-.03,1.05v6.27Z"/>
    <path d="M106.72,743.81c0-2.06.65-3.81,1.95-5.24s2.86-2.15,4.67-2.15c.5,0,.99.05,1.47.16s.99.32,1.52.64.98.73,1.36,1.23.7,1.18.96,2.04.39,1.85.39,2.97h-9.65v.29c0,1.48.43,2.72,1.3,3.71s1.91,1.49,3.13,1.49c1.66,0,3.27-.57,4.83-1.71l.21,2.43c-1.58,1.02-3.26,1.52-5.04,1.52-2.08,0-3.78-.73-5.11-2.2s-1.99-3.2-1.99-5.2ZM109.79,741.7h6.84c-.48-2.02-1.57-3.03-3.27-3.03-.74,0-1.45.27-2.12.81s-1.16,1.28-1.46,2.23Z"/>
    <path d="M121.04,743.86c0-2.03.58-3.75,1.72-5.16,1.15-1.42,2.51-2.12,4.07-2.12s2.79.69,3.86,2.08v-2.08h2.83v14.14c0,1.72-.55,3.11-1.65,4.18s-2.48,1.6-4.14,1.6c-1.84,0-3.68-.45-5.54-1.34v-2.46c.58.32,1.04.57,1.39.73.35.17.91.35,1.68.54s1.57.29,2.41.29c.76,0,1.44-.27,2.05-.82.61-.54.91-1.45.91-2.73v-2.1l-.03-1.01c-.17.34-.4.67-.67,1-.27.33-.73.68-1.37,1.06-.64.38-1.34.56-2.1.56-1.44,0-2.7-.6-3.79-1.8-1.09-1.2-1.64-2.72-1.64-4.57ZM123.92,743.86c0,1.19.39,2.18,1.17,2.96.78.78,1.68,1.17,2.69,1.17.68,0,1.25-.25,1.7-.74s.75-1.05.9-1.69c.15-.63.24-1.32.26-2.07h.06v-2.17c0-.58-.24-1.14-.73-1.69-.49-.55-1.09-.82-1.81-.82-1.08,0-2.06.48-2.92,1.44-.87.96-1.3,2.16-1.3,3.6Z"/>
    <path d="M136.34,743.81c0-2.06.65-3.81,1.95-5.24s2.86-2.15,4.67-2.15c.5,0,.99.05,1.47.16s.99.32,1.52.64.98.73,1.36,1.23.7,1.18.96,2.04.39,1.85.39,2.97h-9.65v.29c0,1.48.43,2.72,1.3,3.71s1.91,1.49,3.13,1.49c1.66,0,3.27-.57,4.83-1.71l.21,2.43c-1.58,1.02-3.26,1.52-5.04,1.52-2.08,0-3.78-.73-5.11-2.2s-1.99-3.2-1.99-5.2ZM139.41,741.7h6.84c-.48-2.02-1.57-3.03-3.27-3.03-.74,0-1.45.27-2.12.81s-1.16,1.28-1.46,2.23Z"/>
    <path d="M150.66,743.86c0-2.03.58-3.75,1.72-5.16,1.15-1.42,2.51-2.12,4.07-2.12s2.79.69,3.86,2.08v-2.08h2.83v14.14c0,1.72-.55,3.11-1.65,4.18s-2.48,1.6-4.14,1.6c-1.84,0-3.68-.45-5.54-1.34v-2.46c.58.32,1.04.57,1.39.73.35.17.91.35,1.68.54s1.57.29,2.41.29c.76,0,1.44-.27,2.05-.82.61-.54.91-1.45.91-2.73v-2.1l-.03-1.01c-.17.34-.4.67-.67,1-.27.33-.73.68-1.37,1.06-.64.38-1.34.56-2.1.56-1.44,0-2.7-.6-3.79-1.8-1.09-1.2-1.64-2.72-1.64-4.57ZM153.54,743.86c0,1.19.39,2.18,1.17,2.96.78.78,1.68,1.17,2.69,1.17.68,0,1.25-.25,1.7-.74s.75-1.05.9-1.69c.15-.63.24-1.32.26-2.07h.06v-2.17c0-.58-.24-1.14-.73-1.69-.49-.55-1.09-.82-1.81-.82-1.08,0-2.06.48-2.92,1.44-.87.96-1.3,2.16-1.3,3.6Z"/>
    <path d="M167.02,750.98v-14.17h2.75v1.44l.04,1c1.06-1.79,2.57-2.68,4.53-2.68.8,0,1.48.12,2.05.36s.99.52,1.27.84.51.74.67,1.26.25.94.27,1.28.03.74.03,1.21v9.45h-2.89v-9.49c0-.34-.02-.63-.06-.86-.04-.23-.14-.51-.31-.83s-.47-.57-.9-.73-.98-.25-1.64-.25c-.62,0-1.14.15-1.57.46-.43.31-.73.71-.92,1.2-.18.49-.3.92-.36,1.29s-.09.74-.09,1.1v8.11h-2.89Z"/>
    <path d="M182.52,747.05v-10.24h2.89v10.02c.02.98.09,1.57.21,1.77.22.32.91.48,2.07.48s2.05-.31,2.6-.93.87-1.24.94-1.85c.02-.2.03-.51.03-.94v-8.55h2.89v14.17h-2.83v-2.26c-1.42,1.66-3.29,2.49-5.61,2.49-.72,0-1.31-.12-1.77-.37s-.78-.61-.97-1.09-.31-.91-.36-1.29-.07-.85-.07-1.41Z"/>
    <path d="M198.01,750.98v-14.17h2.75v1.44l.04,1c1.06-1.79,2.57-2.68,4.53-2.68.8,0,1.48.12,2.05.36s.99.52,1.27.84.51.74.67,1.26.25.94.27,1.28.03.74.03,1.21v9.45h-2.89v-9.49c0-.34-.02-.63-.06-.86-.04-.23-.14-.51-.31-.83s-.47-.57-.9-.73-.98-.25-1.64-.25c-.62,0-1.14.15-1.57.46-.43.31-.73.71-.92,1.2-.18.49-.3.92-.36,1.29s-.09.74-.09,1.1v8.11h-2.89Z"/>
    <path d="M212.65,743.86c0-2.03.58-3.75,1.72-5.16,1.15-1.42,2.51-2.12,4.07-2.12s2.79.69,3.86,2.08v-2.08h2.83v14.14c0,1.72-.55,3.11-1.65,4.18s-2.48,1.6-4.14,1.6c-1.84,0-3.68-.45-5.54-1.34v-2.46c.58.32,1.04.57,1.39.73.35.17.91.35,1.68.54s1.57.29,2.41.29c.76,0,1.44-.27,2.05-.82.61-.54.91-1.45.91-2.73v-2.1l-.03-1.01c-.17.34-.4.67-.67,1-.27.33-.73.68-1.37,1.06-.64.38-1.34.56-2.1.56-1.44,0-2.7-.6-3.79-1.8-1.09-1.2-1.64-2.72-1.64-4.57ZM215.53,743.86c0,1.19.39,2.18,1.17,2.96.78.78,1.68,1.17,2.69,1.17.68,0,1.25-.25,1.7-.74s.75-1.05.9-1.69c.15-.63.24-1.32.26-2.07h.06v-2.17c0-.58-.24-1.14-.73-1.69-.49-.55-1.09-.82-1.81-.82-1.08,0-2.06.48-2.92,1.44-.87.96-1.3,2.16-1.3,3.6Z"/>
    <path d="M16.55,786.98v-14.17h2.75v1.44l.04,1c1.06-1.79,2.57-2.68,4.53-2.68.34,0,.66.02.95.06s.56.09.79.16.44.16.64.27c.2.11.37.22.51.31.14.1.27.22.38.37.12.15.21.28.28.38.07.1.15.23.23.38.08.16.13.27.15.34s.05.17.1.3c.05.13.07.2.07.22,1.03-1.87,2.56-2.8,4.61-2.8h.03c.78,0,1.46.12,2.02.36.57.24.99.52,1.28.83s.51.72.67,1.23c.16.51.26.93.29,1.27s.04.76.04,1.26v9.45h-2.89v-9.31c-.04-.92-.19-1.56-.46-1.92-.46-.62-1.3-.92-2.53-.92-.76,0-1.43.31-2.01.95-.58.63-.87,1.67-.87,3.1v8.11h-2.89v-9.31c-.02-.88-.14-1.49-.37-1.83-.43-.67-1.27-1.01-2.52-1.01h-.06c-.76,0-1.44.31-2.02.95s-.88,1.67-.88,3.1v8.11h-2.89Z"/>
    <path d="M40.81,768.97v-2.81h2.81v2.81h-2.81ZM40.81,786.98v-14.17h2.83v14.17h-2.83Z"/>
    <path d="M46.17,775.05v-2.24h2.46v-4.06h2.7v4.06h4.2v2.24h-4.2v6.88c0,1.97.52,2.95,1.57,2.95.78,0,1.64-.35,2.58-1.06l.6,2.16c-1.5.82-3.12,1.23-4.86,1.23s-2.64-1.65-2.64-4.96v-7.2h-2.4Z"/>
    <path d="M67.99,779.86c0-2.03.58-3.75,1.72-5.16,1.15-1.42,2.51-2.12,4.07-2.12s2.79.69,3.86,2.08v-2.08h2.83v14.14c0,1.72-.55,3.11-1.65,4.18s-2.48,1.6-4.14,1.6c-1.84,0-3.68-.45-5.54-1.34v-2.46c.58.32,1.04.57,1.39.73.35.17.91.35,1.68.54s1.57.29,2.41.29c.76,0,1.44-.27,2.05-.82.61-.54.91-1.45.91-2.73v-2.1l-.03-1.01c-.17.34-.4.67-.67,1-.27.33-.73.68-1.37,1.06-.64.38-1.34.56-2.1.56-1.44,0-2.7-.6-3.79-1.8-1.09-1.2-1.64-2.72-1.64-4.57ZM70.88,779.86c0,1.19.39,2.18,1.17,2.96.78.78,1.68,1.17,2.69,1.17.68,0,1.25-.25,1.7-.74s.75-1.05.9-1.69c.15-.63.24-1.32.26-2.07h.06v-2.17c0-.58-.24-1.14-.73-1.69-.49-.55-1.09-.82-1.81-.82-1.08,0-2.06.48-2.92,1.44-.87.96-1.3,2.16-1.3,3.6Z"/>
    <path d="M84.39,786.98v-14.17h2.7v3.04c1.18-2.14,2.93-3.23,5.26-3.27v2.52c-.54,0-1.07.08-1.6.23-.53.15-1.08.39-1.64.72s-1.02.82-1.36,1.47c-.35.65-.52,1.43-.52,2.34v7.12h-2.83Z"/>
    <path d="M94.76,768.97v-2.81h2.81v2.81h-2.81ZM94.76,786.98v-14.17h2.83v14.17h-2.83Z"/>
    <path d="M100.41,779.81c0-2.06.65-3.81,1.95-5.24s2.86-2.15,4.67-2.15c.5,0,.99.05,1.47.16s.99.32,1.52.64.98.73,1.36,1.23.7,1.18.96,2.04.39,1.85.39,2.97h-9.65v.29c0,1.48.43,2.72,1.3,3.71s1.91,1.49,3.13,1.49c1.66,0,3.27-.57,4.83-1.71l.21,2.43c-1.58,1.02-3.26,1.52-5.04,1.52-2.08,0-3.78-.73-5.11-2.2s-1.99-3.2-1.99-5.2ZM103.47,777.7h6.84c-.48-2.02-1.57-3.03-3.27-3.03-.74,0-1.45.27-2.12.81s-1.16,1.28-1.46,2.23Z"/>
    <path d="M114.72,779.87c0-2.02.66-3.77,1.97-5.24s2.99-2.21,5.03-2.21c1.04,0,1.87.09,2.5.27s1.43.52,2.39,1.02l-.42,2.46c-.84-.54-1.54-.91-2.12-1.11s-1.36-.31-2.35-.31c-.48,0-.93.07-1.35.21s-.85.38-1.3.73-.81.87-1.07,1.59-.4,1.59-.4,2.61c0,1.78.41,3.05,1.23,3.82s1.75,1.16,2.8,1.16c1.68,0,3.33-.55,4.95-1.65l.21,2.49c-1.66,1-3.37,1.49-5.13,1.49-2,0-3.66-.73-4.97-2.18s-1.97-3.17-1.97-5.16Z"/>
    <path d="M129.59,786.98v-20.85h2.83v7.78l.03,1.26c1.1-1.73,2.59-2.59,4.47-2.59.8,0,1.48.12,2.05.36s.99.52,1.27.84.51.74.67,1.26.25.94.27,1.28.03.74.03,1.21v9.45h-2.89v-9.49c0-.34-.02-.63-.06-.86-.04-.23-.14-.51-.31-.83s-.47-.57-.9-.73-.98-.25-1.64-.25c-.62,0-1.14.15-1.57.46-.43.31-.73.71-.92,1.2-.18.49-.3.92-.36,1.29s-.09.74-.09,1.1v8.11h-2.89Z"/>
    <path d="M145.12,768.97v-2.81h2.81v2.81h-2.81ZM145.12,786.98v-14.17h2.83v14.17h-2.83Z"/>
    <path d="M150.77,785.81l.45-2.58c1.58,1.1,3.2,1.65,4.86,1.65.92,0,1.57-.19,1.96-.57s.59-.8.59-1.26-.17-.84-.51-1.13-.71-.49-1.11-.6-.91-.22-1.53-.34-1.07-.23-1.34-.33c-.84-.28-1.58-.77-2.22-1.46s-.96-1.54-.96-2.54c0-.46.07-.9.21-1.33s.38-.88.72-1.35.88-.84,1.6-1.12,1.61-.42,2.66-.42c1.52,0,3.07.34,4.64,1.01l-.44,2.46c-1.5-.82-3.02-1.23-4.54-1.23-.82,0-1.4.17-1.74.51s-.51.72-.51,1.14c0,.32.12.63.36.92s.56.5.96.64c.02,0,.56.12,1.62.35s1.85.49,2.37.76c1.58.88,2.37,2.15,2.37,3.81,0,1.14-.39,2.16-1.16,3.06s-2.09,1.35-3.97,1.35-3.65-.47-5.35-1.41Z"/>
    <path d="M163.02,779.87c0-2.02.66-3.77,1.97-5.24s2.99-2.21,5.03-2.21c1.04,0,1.87.09,2.5.27s1.43.52,2.39,1.02l-.42,2.46c-.84-.54-1.54-.91-2.12-1.11s-1.36-.31-2.35-.31c-.48,0-.93.07-1.35.21s-.85.38-1.3.73-.81.87-1.07,1.59-.4,1.59-.4,2.61c0,1.78.41,3.05,1.23,3.82s1.75,1.16,2.8,1.16c1.68,0,3.33-.55,4.95-1.65l.21,2.49c-1.66,1-3.37,1.49-5.13,1.49-2,0-3.66-.73-4.97-2.18s-1.97-3.17-1.97-5.16Z"/>
    <path d="M177.89,786.98v-20.85h2.83v7.78l.03,1.26c1.1-1.73,2.59-2.59,4.47-2.59.8,0,1.48.12,2.05.36s.99.52,1.27.84.51.74.67,1.26.25.94.27,1.28.03.74.03,1.21v9.45h-2.89v-9.49c0-.34-.02-.63-.06-.86-.04-.23-.14-.51-.31-.83s-.47-.57-.9-.73-.98-.25-1.64-.25c-.62,0-1.14.15-1.57.46-.43.31-.73.71-.92,1.2-.18.49-.3.92-.36,1.29s-.09.74-.09,1.1v8.11h-2.89Z"/>
    <path d="M192.33,779.81c0-2.06.65-3.81,1.95-5.24s2.86-2.15,4.67-2.15c.5,0,.99.05,1.47.16s.99.32,1.52.64.98.73,1.36,1.23.7,1.18.96,2.04.39,1.85.39,2.97h-9.65v.29c0,1.48.43,2.72,1.3,3.71s1.91,1.49,3.13,1.49c1.66,0,3.27-.57,4.83-1.71l.21,2.43c-1.58,1.02-3.26,1.52-5.04,1.52-2.08,0-3.78-.73-5.11-2.2s-1.99-3.2-1.99-5.2ZM195.39,777.7h6.84c-.48-2.02-1.57-3.03-3.27-3.03-.74,0-1.45.27-2.12.81s-1.16,1.28-1.46,2.23Z"/>
    <path d="M207.51,786.98v-14.17h2.75v1.44l.04,1c1.06-1.79,2.57-2.68,4.53-2.68.8,0,1.48.12,2.05.36s.99.52,1.27.84.51.74.67,1.26.25.94.27,1.28.03.74.03,1.21v9.45h-2.89v-9.49c0-.34-.02-.63-.06-.86-.04-.23-.14-.51-.31-.83s-.47-.57-.9-.73-.98-.25-1.64-.25c-.62,0-1.14.15-1.57.46-.43.31-.73.71-.92,1.2-.18.49-.3.92-.36,1.29s-.09.74-.09,1.1v8.11h-2.89Z"/>
    <path d="M50.86,822.98v-20.85h7.18c2.1,0,3.83.37,5.22,1.1.96.5,1.71,1.13,2.26,1.89s.83,1.55.83,2.35c0,1.48-.85,2.7-2.56,3.66-.51.28-1.33.6-2.45.94,1.77.32,3.19.96,4.26,1.92,1.07.96,1.61,2.04,1.61,3.24,0,1.44-.65,2.69-1.96,3.77-1.31,1.08-2.91,1.72-4.81,1.93-.34.04-.87.06-1.58.06h-8ZM53.87,811.01h3.63c1.8,0,3.24-.35,4.33-1.05s1.63-1.51,1.63-2.43-.58-1.59-1.74-2.16c-1.16-.56-2.62-.84-4.39-.84h-3.44l-.03.96v5.51ZM53.87,820.58h3.63c.08,0,.19,0,.34.01s.26.02.35.02c2.08,0,3.61-.36,4.6-1.09s1.48-1.5,1.48-2.32c0-.9-.47-1.73-1.41-2.49s-2.21-1.22-3.81-1.38c-.34-.04-.84-.06-1.49-.07h-3.66l-.03,1.05v6.27Z"/>
    <path d="M70.92,819.05v-10.24h2.89v10.02c.02.98.09,1.57.21,1.77.22.32.91.48,2.07.48s2.05-.31,2.6-.93.87-1.24.95-1.85c.02-.2.03-.51.03-.94v-8.55h2.89v14.17h-2.83v-2.26c-1.42,1.66-3.29,2.49-5.61,2.49-.72,0-1.31-.12-1.77-.37s-.78-.61-.97-1.09-.31-.91-.36-1.29-.07-.85-.07-1.41Z"/>
    <path d="M85.55,815.87c0-2.02.66-3.77,1.97-5.24s2.99-2.21,5.03-2.21c1.04,0,1.87.09,2.5.27s1.43.52,2.4,1.02l-.42,2.46c-.84-.54-1.55-.91-2.12-1.11s-1.35-.31-2.35-.31c-.48,0-.93.07-1.35.21s-.85.38-1.3.73-.81.87-1.07,1.59-.4,1.59-.4,2.61c0,1.78.41,3.05,1.23,3.82s1.75,1.16,2.8,1.16c1.68,0,3.33-.55,4.95-1.65l.21,2.49c-1.66,1-3.37,1.49-5.13,1.49-2,0-3.66-.73-4.97-2.18s-1.97-3.17-1.97-5.16Z"/>
    <path d="M100.42,822.98v-20.85h2.83v7.78l.03,1.26c1.1-1.73,2.59-2.59,4.47-2.59.8,0,1.48.12,2.05.36s.99.52,1.27.84.5.74.67,1.26.25.94.27,1.28.03.74.03,1.21v9.45h-2.89v-9.49c0-.34-.02-.63-.06-.86-.04-.23-.14-.51-.32-.83s-.47-.57-.9-.73-.98-.25-1.64-.25c-.62,0-1.14.15-1.57.46-.43.31-.74.71-.92,1.2-.18.49-.3.92-.36,1.29s-.09.74-.09,1.1v8.11h-2.89Z"/>
    <path d="M114.86,821.81l.45-2.58c1.58,1.1,3.2,1.65,4.86,1.65.92,0,1.57-.19,1.96-.57s.59-.8.59-1.26-.17-.84-.51-1.13-.71-.49-1.11-.6-.91-.22-1.53-.34-1.07-.23-1.34-.33c-.84-.28-1.58-.77-2.22-1.46s-.96-1.54-.96-2.54c0-.46.07-.9.21-1.33s.38-.88.72-1.35.88-.84,1.6-1.12,1.61-.42,2.66-.42c1.52,0,3.07.34,4.64,1.01l-.44,2.46c-1.5-.82-3.02-1.23-4.54-1.23-.82,0-1.4.17-1.74.51s-.5.72-.5,1.14c0,.32.12.63.36.92s.56.5.96.64c.02,0,.56.12,1.62.35s1.85.49,2.37.76c1.58.88,2.37,2.15,2.37,3.81,0,1.14-.39,2.16-1.16,3.06s-2.09,1.35-3.97,1.35-3.65-.47-5.35-1.41Z"/>
    <path d="M126.62,811.05v-2.24h2.46v-4.06h2.7v4.06h4.2v2.24h-4.2v6.88c0,1.97.52,2.95,1.57,2.95.78,0,1.64-.35,2.58-1.06l.6,2.16c-1.5.82-3.12,1.23-4.86,1.23s-2.64-1.65-2.64-4.96v-7.2h-2.4Z"/>
    <path d="M138.59,818.99c0-1.32.81-2.33,2.44-3.03,1.63-.7,3.72-1.09,6.27-1.17v-1.05c0-.82-.1-1.42-.31-1.8-.48-.92-1.23-1.38-2.25-1.38-1.01.02-1.84.15-2.49.39-.64.24-1.39.67-2.25,1.3l-.2-2.52c1.66-.86,3.33-1.29,5-1.29,1.5,0,2.75.44,3.73,1.32.98.88,1.53,1.94,1.62,3.18l.03,1v9.05h-2.8v-1.08l-.03-.84c-.56.7-1.3,1.24-2.24,1.6-.94.37-1.88.55-2.84.55-1.17,0-2.08-.45-2.73-1.33s-.97-1.85-.97-2.88ZM141.35,818.93c0,.6.26,1.08.77,1.46.51.38,1.14.57,1.89.57.68,0,1.32-.15,1.89-.45.58-.3.99-.7,1.23-1.2.12-.26.18-.67.18-1.23v-1.89c-1.84.08-3.29.35-4.36.83-1.07.47-1.6,1.11-1.6,1.91Z"/>
    <path d="M154.12,822.98v-20.85h2.83v8.29c1.4-1.23,3.05-1.85,4.95-1.85,1.36,0,2.48.72,3.37,2.16.89,1.44,1.33,3.13,1.33,5.07,0,2.12-.56,3.89-1.68,5.29-1.12,1.41-2.47,2.11-4.05,2.11-1.38,0-2.67-.6-3.87-1.79v1.55h-2.89ZM157.01,819.08c0,.54.25.99.76,1.35s1.08.54,1.73.54c.4,0,.81-.05,1.22-.14.41-.09.87-.32,1.39-.67.52-.36.91-.84,1.17-1.45.29-.68.44-1.61.44-2.79v-.12c0-1.84-.37-3.14-1.1-3.92-.69-.71-1.61-1.07-2.75-1.07h-.04c-.24,0-.47.01-.67.04s-.39.08-.56.15-.32.13-.45.19-.27.14-.4.26-.24.19-.3.24c-.06.05-.15.12-.27.22l-.15.16v7Z"/>
    <path d="M168.53,815.81c0-2.06.65-3.81,1.95-5.24s2.86-2.15,4.67-2.15c.5,0,.99.05,1.47.16s.99.32,1.52.64.98.73,1.36,1.23.7,1.18.96,2.04.39,1.85.39,2.97h-9.65v.29c0,1.48.43,2.72,1.3,3.71s1.91,1.49,3.13,1.49c1.66,0,3.27-.57,4.83-1.71l.21,2.43c-1.58,1.02-3.26,1.52-5.04,1.52-2.08,0-3.78-.73-5.11-2.2s-1.99-3.2-1.99-5.2ZM171.6,813.7h6.84c-.48-2.02-1.57-3.03-3.27-3.03-.74,0-1.45.27-2.12.81s-1.15,1.28-1.46,2.23Z"/>
    <path d="M183.71,822.98v-14.17h2.75v1.44l.04,1c1.06-1.79,2.57-2.68,4.53-2.68.8,0,1.48.12,2.05.36s.99.52,1.27.84.5.74.67,1.26.25.94.27,1.28.03.74.03,1.21v9.45h-2.89v-9.49c0-.34-.02-.63-.06-.86-.04-.23-.14-.51-.32-.83s-.47-.57-.9-.73-.98-.25-1.64-.25c-.62,0-1.14.15-1.57.46-.43.31-.74.71-.92,1.2-.18.49-.3.92-.36,1.29s-.09.74-.09,1.1v8.11h-2.89Z"/>
  </g>
</svg>