<?xml version="1.0" encoding="UTF-8"?>
<svg id="Ebene_1" data-name="Ebene 1" xmlns="http://www.w3.org/2000/svg" viewBox="0 0 855 532">
  <rect width="855" height="532" fill="#f9f2db"/>
  <path d="M429,168l-1.4,292h-127.88v-176.32c10.6-15.81,23.13-34.43,41.28-59.68,1.9-2.64,12.84-17.66,31-33,18.49-15.62,30.98-20.19,41-22,6.56-1.18,12.15-1.2,16-1Z" fill="#30628b"/>
  <path d="M170.84,421.36v38.64H46.4c23.29-1.39,54.25-6.16,88-20,4.64-1.9,18.38-7.68,36.44-18.64Z" fill="#84b5d1"/>
  <path d="M170.84,460h129.16l-.28-176.32c-72.28,113.68-128.88,137.68-128.88,137.68v38.64Z" fill="#4e8caf"/>
  <path d="M426.2,168l1.4,292h127.88s0-176.32,0-176.32c-10.6-15.81-23.13-34.43-41.28-59.68-1.9-2.64-12.84-17.66-31-33-18.49-15.62-30.98-20.19-41-22-6.56-1.18-12.15-1.2-16-1Z" fill="#30628b"/>
  <path d="M684.36,421.36v38.64s124.44,0,124.44,0c-23.29-1.39-54.25-6.16-88-20-4.64-1.9-18.38-7.68-36.44-18.64Z" fill="#84b5d1"/>
  <path d="M684.36,460h-129.16s.28-176.32.28-176.32c72.28,113.68,128.88,137.68,128.88,137.68v38.64Z" fill="#4e8caf"/>
  <g>
    <rect x="473.5" y="117" width="75.92" height="1" fill="#c03b2d"/>
    <polygon points="546.1 121.59 545.42 120.86 549.03 117.5 545.42 114.14 546.1 113.41 550.5 117.5 546.1 121.59" fill="#c03b2d"/>
  </g>
  <g>
    <rect x="305.58" y="117" width="75.92" height="1" fill="#c03b2d"/>
    <polygon points="308.9 113.41 309.58 114.14 305.97 117.5 309.58 120.86 308.9 121.59 304.5 117.5 308.9 113.41" fill="#c03b2d"/>
  </g>
  <g>
    <rect x="474" y="83" width="202.42" height="1" fill="#c03b2d"/>
    <polygon points="673.1 87.59 672.42 86.86 676.03 83.5 672.42 80.14 673.1 79.41 677.5 83.5 673.1 87.59" fill="#c03b2d"/>
  </g>
  <g>
    <rect x="178.58" y="83" width="203.42" height="1" fill="#c03b2d"/>
    <polygon points="181.9 79.41 182.58 80.14 178.97 83.5 182.58 86.86 181.9 87.59 177.5 83.5 181.9 79.41" fill="#c03b2d"/>
  </g>
  <g>
    <rect x="474" y="48" width="328.42" height="1" fill="#c03b2d"/>
    <polygon points="799.1 52.59 798.42 51.86 802.03 48.5 798.42 45.14 799.1 44.41 803.5 48.5 799.1 52.59" fill="#c03b2d"/>
  </g>
  <g>
    <rect x="52.58" y="48" width="329.42" height="1" fill="#c03b2d"/>
    <polygon points="55.9 44.41 56.58 45.14 52.97 48.5 56.58 51.86 55.9 52.59 51.5 48.5 55.9 44.41" fill="#c03b2d"/>
  </g>
  <g>
    <rect x="170.25" y="83" width="3.5" height="1.5" transform="translate(87.8 255.53) rotate(-89.85)"/>
    <path d="M171.78,450.48h-1.5s.02-7.02.02-7.02h1.5s-.02,7.02-.02,7.02ZM171.81,436.45h-1.5s.02-7.02.02-7.02h1.5s-.02,7.02-.02,7.02ZM171.85,422.41h-1.5s.02-7.02.02-7.02h1.5s-.02,7.02-.02,7.02ZM171.89,408.37h-1.5s.02-7.02.02-7.02h1.5s-.02,7.02-.02,7.02ZM171.93,394.33h-1.5s.02-7.02.02-7.02h1.5s-.02,7.02-.02,7.02ZM171.96,380.29h-1.5s.02-7.02.02-7.02h1.5s-.02,7.02-.02,7.02ZM172,366.26h-1.5s.02-7.02.02-7.02h1.5s-.02,7.02-.02,7.02ZM172.04,352.22h-1.5s.02-7.02.02-7.02h1.5s-.02,7.02-.02,7.02ZM172.07,338.18h-1.5s.02-7.02.02-7.02h1.5s-.02,7.02-.02,7.02ZM172.11,324.14h-1.5s.02-7.02.02-7.02h1.5s-.02,7.02-.02,7.02ZM172.15,310.11h-1.5s.02-7.02.02-7.02h1.5s-.02,7.02-.02,7.02ZM172.19,296.07h-1.5s.02-7.02.02-7.02h1.5s-.02,7.02-.02,7.02ZM172.22,282.03h-1.5s.02-7.02.02-7.02h1.5s-.02,7.02-.02,7.02ZM172.26,267.99h-1.5s.02-7.02.02-7.02h1.5s-.02,7.02-.02,7.02ZM172.3,253.96h-1.5s.02-7.02.02-7.02h1.5s-.02,7.02-.02,7.02ZM172.33,239.92h-1.5s.02-7.02.02-7.02h1.5s-.02,7.02-.02,7.02ZM172.37,225.88h-1.5s.02-7.02.02-7.02h1.5s-.02,7.02-.02,7.02ZM172.41,211.84h-1.5s.02-7.02.02-7.02h1.5s-.02,7.02-.02,7.02ZM172.44,197.8h-1.5s.02-7.02.02-7.02h1.5s-.02,7.02-.02,7.02ZM172.48,183.77h-1.5s.02-7.02.02-7.02h1.5s-.02,7.02-.02,7.02ZM172.52,169.73h-1.5s.02-7.02.02-7.02h1.5s-.02,7.02-.02,7.02ZM172.56,155.69h-1.5s.02-7.02.02-7.02h1.5s-.02,7.02-.02,7.02ZM172.59,141.65h-1.5s.02-7.02.02-7.02h1.5s-.02,7.02-.02,7.02ZM172.63,127.62h-1.5s.02-7.02.02-7.02h1.5s-.02,7.02-.02,7.02ZM172.67,113.58h-1.5s.02-7.02.02-7.02h1.5s-.02,7.02-.02,7.02ZM172.7,99.54h-1.5s.02-7.02.02-7.02h1.5s-.02,7.02-.02,7.02Z"/>
    <rect x="169.25" y="458.5" width="3.5" height="1.5" transform="translate(-288.69 629.06) rotate(-89.85)"/>
  </g>
  <g>
    <rect x="44.75" y="45.5" width="1.5" height="3.5"/>
    <path d="M46.25,448.12h-1.5v-6.88h1.5v6.88ZM46.25,434.36h-1.5v-6.88h1.5v6.88ZM46.25,420.59h-1.5v-6.88h1.5v6.88ZM46.25,406.83h-1.5v-6.88h1.5v6.88ZM46.25,393.07h-1.5v-6.88h1.5v6.88ZM46.25,379.3h-1.5v-6.88h1.5v6.88ZM46.25,365.54h-1.5v-6.88h1.5v6.88ZM46.25,351.78h-1.5v-6.88h1.5v6.88ZM46.25,338.02h-1.5v-6.88h1.5v6.88ZM46.25,324.25h-1.5v-6.88h1.5v6.88ZM46.25,310.49h-1.5v-6.88h1.5v6.88ZM46.25,296.73h-1.5v-6.88h1.5v6.88ZM46.25,282.97h-1.5v-6.88h1.5v6.88ZM46.25,269.2h-1.5v-6.88h1.5v6.88ZM46.25,255.44h-1.5v-6.88h1.5v6.88ZM46.25,241.68h-1.5v-6.88h1.5v6.88ZM46.25,227.92h-1.5v-6.88h1.5v6.88ZM46.25,214.15h-1.5v-6.88h1.5v6.88ZM46.25,200.39h-1.5v-6.88h1.5v6.88ZM46.25,186.63h-1.5v-6.88h1.5v6.88ZM46.25,172.86h-1.5v-6.88h1.5v6.88ZM46.25,159.1h-1.5v-6.88h1.5v6.88ZM46.25,145.34h-1.5v-6.88h1.5v6.88ZM46.25,131.58h-1.5v-6.88h1.5v6.88ZM46.25,117.81h-1.5v-6.88h1.5v6.88ZM46.25,104.05h-1.5v-6.88h1.5v6.88ZM46.25,90.29h-1.5v-6.88h1.5v6.88ZM46.25,76.53h-1.5v-6.88h1.5v6.88ZM46.25,62.76h-1.5v-6.88h1.5v6.88Z"/>
    <rect x="44.75" y="455" width="1.5" height="3.5"/>
  </g>
  <g>
    <rect x="682.75" y="82" width="1.5" height="3.5"/>
    <path d="M684.25,446.56h-1.5v-6.94h1.5v6.94ZM684.25,432.67h-1.5v-6.94h1.5v6.94ZM684.25,418.78h-1.5v-6.94h1.5v6.94ZM684.25,404.9h-1.5v-6.94h1.5v6.94ZM684.25,391.01h-1.5v-6.94h1.5v6.94ZM684.25,377.12h-1.5v-6.94h1.5v6.94ZM684.25,363.24h-1.5v-6.94h1.5v6.94ZM684.25,349.35h-1.5v-6.94h1.5v6.94ZM684.25,335.46h-1.5v-6.94h1.5v6.94ZM684.25,321.58h-1.5v-6.94h1.5v6.94ZM684.25,307.69h-1.5v-6.94h1.5v6.94ZM684.25,293.8h-1.5v-6.94h1.5v6.94ZM684.25,279.92h-1.5v-6.94h1.5v6.94ZM684.25,266.03h-1.5v-6.94h1.5v6.94ZM684.25,252.14h-1.5v-6.94h1.5v6.94ZM684.25,238.25h-1.5v-6.94h1.5v6.94ZM684.25,224.37h-1.5v-6.94h1.5v6.94ZM684.25,210.48h-1.5v-6.94h1.5v6.94ZM684.25,196.59h-1.5v-6.94h1.5v6.94ZM684.25,182.71h-1.5v-6.94h1.5v6.94ZM684.25,168.82h-1.5v-6.94h1.5v6.94ZM684.25,154.93h-1.5v-6.94h1.5v6.94ZM684.25,141.05h-1.5v-6.94h1.5v6.94ZM684.25,127.16h-1.5v-6.94h1.5v6.94ZM684.25,113.27h-1.5v-6.94h1.5v6.94ZM684.25,99.39h-1.5v-6.94h1.5v6.94Z"/>
    <rect x="682.75" y="453.5" width="1.5" height="3.5"/>
  </g>
  <g>
    <rect x="808.75" y="44.5" width="1.5" height="3.5"/>
    <path d="M810.25,451.54h-1.5v-6.96h1.5v6.96ZM810.25,437.63h-1.5v-6.96h1.5v6.96ZM810.25,423.71h-1.5v-6.96h1.5v6.96ZM810.25,409.8h-1.5v-6.96h1.5v6.96ZM810.25,395.88h-1.5v-6.96h1.5v6.96ZM810.25,381.97h-1.5v-6.96h1.5v6.96ZM810.25,368.05h-1.5v-6.96h1.5v6.96ZM810.25,354.14h-1.5v-6.96h1.5v6.96ZM810.25,340.22h-1.5v-6.96h1.5v6.96ZM810.25,326.31h-1.5v-6.96h1.5v6.96ZM810.25,312.39h-1.5v-6.96h1.5v6.96ZM810.25,298.47h-1.5v-6.96h1.5v6.96ZM810.25,284.56h-1.5v-6.96h1.5v6.96ZM810.25,270.64h-1.5v-6.96h1.5v6.96ZM810.25,256.73h-1.5v-6.96h1.5v6.96ZM810.25,242.81h-1.5v-6.96h1.5v6.96ZM810.25,228.9h-1.5v-6.96h1.5v6.96ZM810.25,214.98h-1.5v-6.96h1.5v6.96ZM810.25,201.07h-1.5v-6.96h1.5v6.96ZM810.25,187.15h-1.5v-6.96h1.5v6.96ZM810.25,173.24h-1.5v-6.96h1.5v6.96ZM810.25,159.32h-1.5v-6.96h1.5v6.96ZM810.25,145.41h-1.5v-6.96h1.5v6.96ZM810.25,131.49h-1.5v-6.96h1.5v6.96ZM810.25,117.58h-1.5v-6.96h1.5v6.96ZM810.25,103.66h-1.5v-6.96h1.5v6.96ZM810.25,89.75h-1.5v-6.96h1.5v6.96ZM810.25,75.83h-1.5v-6.96h1.5v6.96ZM810.25,61.92h-1.5v-6.96h1.5v6.96Z"/>
    <rect x="808.75" y="458.5" width="1.5" height="3.5"/>
  </g>
  <g>
    <rect x="299.75" y="116.5" width="1.5" height="3.5"/>
    <path d="M301.25,445.42h-1.5v-7.07h1.5v7.07ZM301.25,431.28h-1.5v-7.07h1.5v7.07ZM301.25,417.13h-1.5v-7.07h1.5v7.07ZM301.25,402.98h-1.5v-7.07h1.5v7.07ZM301.25,388.83h-1.5v-7.07h1.5v7.07ZM301.25,374.68h-1.5v-7.07h1.5v7.07ZM301.25,360.53h-1.5v-7.07h1.5v7.07ZM301.25,346.38h-1.5v-7.07h1.5v7.07ZM301.25,332.23h-1.5v-7.07h1.5v7.07ZM301.25,318.08h-1.5v-7.07h1.5v7.07ZM301.25,303.94h-1.5v-7.07h1.5v7.07ZM301.25,289.79h-1.5v-7.07h1.5v7.07ZM301.25,275.64h-1.5v-7.07h1.5v7.07ZM301.25,261.49h-1.5v-7.07h1.5v7.07ZM301.25,247.34h-1.5v-7.07h1.5v7.07ZM301.25,233.19h-1.5v-7.07h1.5v7.07ZM301.25,219.04h-1.5v-7.07h1.5v7.07ZM301.25,204.89h-1.5v-7.07h1.5v7.07ZM301.25,190.74h-1.5v-7.07h1.5v7.07ZM301.25,176.6h-1.5v-7.07h1.5v7.07ZM301.25,162.45h-1.5v-7.07h1.5v7.07ZM301.25,148.3h-1.5v-7.07h1.5v7.07ZM301.25,134.15h-1.5v-7.07h1.5v7.07Z"/>
    <rect x="299.75" y="452.5" width="1.5" height="3.5"/>
  </g>
  <rect x="426.5" y="168" width="4" height="293.5" fill="#f0c34e"/>
  <rect x="44" y="458.5" width="766" height="5" fill="#f0c34e"/>
  <g>
    <path d="M396.76,51.26c0-.59.15-1.01.44-1.26.3-.25.62-.38.97-.38s.6.1.8.29c.19.19.29.45.29.77,0,.36-.11.67-.34.92-.22.26-.5.42-.84.49.36.29.87.44,1.52.44,1.02,0,1.88-.42,2.6-1.26.59-.71,1.05-2.08,1.4-4.1-.66.99-1.52,1.48-2.58,1.47-1.3,0-2.26-.35-2.89-1.04s-.94-1.47-.94-2.34c0-1.5.51-2.74,1.52-3.73,1.02-.99,2.35-1.48,4-1.48,1.31,0,2.29.39,2.94,1.16.66.77.98,1.85.98,3.25,0,2.48-.62,4.57-1.85,6.28-.56.77-1.3,1.41-2.21,1.91-.91.5-1.91.75-2.99.75-.81,0-1.49-.17-2.03-.51s-.81-.89-.81-1.64ZM399.7,46.47c0,.15,0,.28.03.39s.07.26.15.46c.08.2.23.35.46.45.23.1.52.16.86.16.67,0,1.24-.29,1.71-.86.48-.57.82-1.25,1.02-2.04.2-.78.3-1.61.3-2.49,0-.49-.13-.9-.4-1.21s-.64-.47-1.13-.47c-1.16,0-1.94.52-2.33,1.56-.13.4-.28,1.07-.44,2.03-.16.96-.24,1.63-.24,2.01Z"/>
    <path d="M408.25,51.26c0-.59.15-1.01.44-1.26.3-.25.62-.38.97-.38s.6.1.8.29c.19.19.29.45.29.77,0,.36-.11.67-.34.92-.22.26-.5.42-.84.49.36.29.87.44,1.52.44,1.02,0,1.88-.42,2.6-1.26.59-.71,1.05-2.08,1.4-4.1-.66.99-1.52,1.48-2.58,1.47-1.3,0-2.26-.35-2.89-1.04s-.94-1.47-.94-2.34c0-1.5.51-2.74,1.52-3.73,1.02-.99,2.35-1.48,4-1.48,1.31,0,2.29.39,2.94,1.16.66.77.98,1.85.98,3.25,0,2.48-.62,4.57-1.85,6.28-.56.77-1.3,1.41-2.21,1.91-.91.5-1.91.75-2.99.75-.81,0-1.49-.17-2.03-.51s-.81-.89-.81-1.64ZM411.19,46.47c0,.15,0,.28.03.39s.07.26.15.46c.08.2.23.35.46.45.23.1.52.16.86.16.67,0,1.24-.29,1.71-.86.48-.57.82-1.25,1.02-2.04.2-.78.3-1.61.3-2.49,0-.49-.13-.9-.4-1.21s-.64-.47-1.13-.47c-1.16,0-1.94.52-2.33,1.56-.13.4-.28,1.07-.44,2.03-.16.96-.24,1.63-.24,2.01Z"/>
    <path d="M419.48,56.66c0-.09.08-.2.24-.31,1.19-.9,1.95-2.08,2.28-3.53l-.06.04s-.08.06-.14.09c-.06.04-.12.07-.21.1s-.18.06-.28.09c-.11.03-.22.04-.33.04-.4,0-.72-.12-.95-.37s-.35-.57-.35-.97c0-.46.16-.87.47-1.23s.72-.55,1.2-.55.82.19,1.06.57.36.83.36,1.37c0,.61-.13,1.25-.4,1.9-.27.65-.57,1.2-.92,1.64-.34.44-.67.8-.98,1.09s-.53.43-.65.43c-.07,0-.15-.05-.23-.14s-.12-.18-.12-.26Z"/>
    <path d="M426.9,44.75l1.56-5.08h.95c0,.25.13.41.38.46.11.04.66.08,1.64.12.98.04,1.63.06,1.95.06h4.08c-.04.35-.08.56-.12.66s-.14.22-.28.39l-4,3.94c-.47.55-.87,1.25-1.2,2.11s-.56,1.57-.68,2.12-.27,1.34-.43,2.37c-.14,1.02-.6,1.52-1.38,1.52-.31,0-.57-.09-.79-.28-.22-.19-.33-.46-.33-.8,0-.66.33-1.74.98-3.24s1.64-2.91,2.96-4.24c.83-.85,1.51-1.53,2.06-2.04h-3.36c-1.36,0-2.09.05-2.2.14-.23.16-.51.77-.84,1.81h-.95Z"/>
    <path d="M446.39,43.12c0-1.29.4-2.44,1.21-3.44.8-1,1.85-1.5,3.14-1.5.59,0,1.11.2,1.58.6,1.27,1.02,2.7,1.52,4.27,1.52,1.78,0,3.25-.62,4.42-1.88.16-.16.32-.24.49-.24.18,0,.32.06.44.18s.18.27.18.43-.1.34-.28.53l-13.81,14.7c-.16.19-.34.28-.52.28-.15,0-.29-.05-.42-.16s-.19-.26-.19-.46c0-.18.08-.34.24-.5l11.76-12.5-.02-.02c-.75.24-1.52.36-2.31.36-1.17,0-2.32-.29-3.48-.86.05.23.08.55.08.98,0,.85-.14,1.66-.42,2.42s-.71,1.4-1.29,1.91c-.58.51-1.23.77-1.97.77-.87,0-1.6-.27-2.2-.8s-.9-1.31-.9-2.32ZM448.53,44.02c0,1,.34,1.5,1.03,1.5.77,0,1.41-.47,1.91-1.41.5-.94.75-1.95.75-3.03,0-.66-.13-1.19-.39-1.59s-.62-.59-1.09-.59c-.8,0-1.38.65-1.73,1.95-.08.29-.18.8-.3,1.53s-.18,1.27-.18,1.63ZM455.46,51.18c0-1.32.4-2.48,1.21-3.46.81-.99,1.85-1.48,3.12-1.48.68,0,1.26.25,1.74.74s.71,1.23.71,2.22c0,1.32-.34,2.5-1.01,3.54-.67,1.04-1.56,1.56-2.68,1.56-.87,0-1.6-.27-2.2-.8s-.89-1.31-.89-2.32ZM457.6,52.08c0,1,.35,1.5,1.04,1.5.76,0,1.39-.46,1.9-1.39.5-.93.75-1.94.75-3.05,0-.71-.14-1.25-.41-1.62-.27-.37-.63-.56-1.07-.56-.81,0-1.39.65-1.73,1.96-.08.28-.18.78-.3,1.5s-.18,1.27-.18,1.66Z"/>
  </g>
  <g>
    <path d="M405.69,86.26c0-.59.15-1.01.44-1.26.3-.25.62-.38.97-.38s.6.1.8.29c.19.19.29.45.29.77,0,.36-.11.67-.34.92-.22.26-.5.42-.84.49.36.29.87.44,1.52.44,1.02,0,1.88-.42,2.6-1.26.59-.71,1.05-2.08,1.4-4.1-.66.99-1.52,1.48-2.58,1.47-1.3,0-2.26-.35-2.89-1.04s-.94-1.47-.94-2.34c0-1.5.51-2.74,1.52-3.73,1.02-.99,2.35-1.48,4-1.48,1.31,0,2.29.39,2.94,1.16.66.77.98,1.85.98,3.25,0,2.48-.62,4.57-1.85,6.28-.56.77-1.3,1.41-2.21,1.91-.91.5-1.91.75-2.99.75-.81,0-1.49-.17-2.03-.51s-.81-.89-.81-1.64ZM408.63,81.47c0,.15,0,.28.03.39s.07.26.15.46c.08.2.23.35.46.45.23.1.52.16.86.16.67,0,1.24-.29,1.71-.86.48-.57.82-1.25,1.02-2.04.2-.78.3-1.61.3-2.49,0-.49-.13-.9-.4-1.21s-.64-.47-1.13-.47c-1.16,0-1.94.52-2.33,1.56-.13.4-.28,1.07-.44,2.03-.16.96-.24,1.63-.24,2.01Z"/>
    <path d="M416.92,85.42c0-.33.05-.62.15-.87.1-.25.22-.43.35-.54.13-.11.29-.2.46-.27.17-.07.3-.11.38-.12.08-.01.15-.02.23-.02.29,0,.57.09.81.28.25.19.37.47.37.86s-.13.72-.38,1.04-.66.49-1.21.52c.48.82,1.27,1.23,2.36,1.23,1.31,0,2.19-.61,2.66-1.83.13-.34.26-.93.38-1.75.13-.82.19-1.39.19-1.73,0-1-.46-1.5-1.37-1.5-1.16,0-2.12.37-2.88,1.12-.15.16-.3.24-.46.23-.29,0-.44-.13-.44-.4,0-.06.02-.21.05-.42l.94-5.69c.05-.32.17-.48.35-.48.04,0,.15.04.32.12.89.35,1.87.52,2.95.52s2.14-.18,3.18-.54c.15-.06.25-.1.3-.1.2,0,.3.1.3.29,0,.18-.14.4-.41.68s-.54.51-.79.7c-.25.19-.48.35-.7.48-1.08.64-2.2.96-3.34.96-.37,0-.87-.05-1.53-.16l-.42,2.62c.8-.44,1.68-.66,2.65-.66,1.32,0,2.32.32,3.01.96.69.64,1.04,1.47,1.04,2.49,0,1.36-.54,2.53-1.62,3.5s-2.53,1.46-4.35,1.46c-1.06,0-1.91-.28-2.56-.85-.65-.57-.98-1.28-.98-2.13Z"/>
    <path d="M437.45,78.12c0-1.29.4-2.44,1.21-3.44.8-1,1.85-1.5,3.14-1.5.59,0,1.11.2,1.58.6,1.27,1.02,2.7,1.52,4.27,1.52,1.78,0,3.25-.62,4.42-1.88.16-.16.33-.24.49-.24.18,0,.32.06.44.18s.18.27.18.43-.09.34-.28.53l-13.81,14.7c-.16.19-.34.28-.52.28-.15,0-.29-.05-.42-.16s-.19-.26-.19-.46c0-.18.08-.34.24-.5l11.76-12.5-.02-.02c-.75.24-1.52.36-2.31.36-1.17,0-2.32-.29-3.48-.86.05.23.08.55.08.98,0,.85-.14,1.66-.42,2.42s-.71,1.4-1.29,1.91c-.58.51-1.23.77-1.97.77-.87,0-1.6-.27-2.2-.8s-.9-1.31-.9-2.32ZM439.59,79.02c0,1,.34,1.5,1.03,1.5.77,0,1.41-.47,1.91-1.41.5-.94.75-1.95.75-3.03,0-.66-.13-1.19-.39-1.59s-.62-.59-1.09-.59c-.8,0-1.38.65-1.73,1.95-.08.29-.18.8-.3,1.53s-.18,1.27-.18,1.63ZM446.52,86.18c0-1.32.4-2.48,1.21-3.46.81-.99,1.85-1.48,3.12-1.48.68,0,1.26.25,1.74.74s.71,1.23.71,2.22c0,1.32-.34,2.5-1.01,3.54-.67,1.04-1.56,1.56-2.68,1.56-.87,0-1.6-.27-2.2-.8s-.89-1.31-.89-2.32ZM448.66,87.08c0,1,.35,1.5,1.04,1.5.76,0,1.39-.46,1.89-1.39s.75-1.94.75-3.05c0-.71-.14-1.25-.41-1.62s-.63-.56-1.07-.56c-.81,0-1.39.65-1.73,1.96-.08.28-.18.78-.3,1.5s-.18,1.27-.18,1.66Z"/>
  </g>
  <g>
    <path d="M405.61,118.94c0-2.73.7-4.89,2.09-6.49s3.13-2.39,5.21-2.39c.86,0,1.5.2,1.92.59s.63.9.63,1.51c0,.59-.15,1.01-.44,1.28s-.61.4-.96.4c-.38,0-.65-.11-.83-.32-.18-.21-.27-.46-.27-.74,0-.09.01-.19.04-.3.03-.11.08-.25.16-.43s.22-.32.41-.44.43-.2.7-.23c-.28-.34-.74-.52-1.39-.52-1.14,0-2.1.47-2.87,1.41-.61.76-1.07,2.1-1.39,4.01.69-.98,1.55-1.46,2.58-1.45,1.25,0,2.2.33,2.84.99s.97,1.46.97,2.38c0,1.51-.5,2.75-1.51,3.73s-2.31,1.48-3.91,1.48c-1.35,0-2.35-.39-3.01-1.18-.66-.79-.99-1.88-.99-3.29ZM408.03,120.79c0,.58.16,1.02.48,1.31.32.29.69.43,1.12.43,1.15,0,1.9-.57,2.28-1.7.1-.34.23-.98.39-1.92.16-.93.23-1.58.23-1.96,0-.94-.51-1.41-1.52-1.41-.89,0-1.61.5-2.16,1.51s-.82,2.25-.82,3.74Z"/>
    <path d="M416.72,120.5c0-.49.09-.96.28-1.39s.4-.78.64-1.05.53-.51.88-.74.61-.39.8-.47.38-.17.58-.25c-.98-.64-1.46-1.49-1.46-2.55,0-.46.09-.91.28-1.36s.46-.87.82-1.27.86-.73,1.49-.98,1.35-.38,2.17-.38c1.13,0,2.03.22,2.7.65s1,1.06,1,1.88c0,1.35-.84,2.42-2.52,3.21.33.21.59.4.77.54s.39.35.63.6c.24.25.42.54.53.87s.17.69.17,1.09c0,.48-.1.97-.3,1.47-.2.5-.51.98-.92,1.45-.41.47-.99.85-1.73,1.14-.74.3-1.58.44-2.52.44-1.3,0-2.33-.25-3.12-.74s-1.17-1.22-1.17-2.16ZM418.47,120.48c0,.74.25,1.26.74,1.58s1.1.47,1.83.47c1.11,0,1.94-.23,2.49-.69.55-.46.82-.99.82-1.6,0-.36-.1-.64-.3-.86-.2-.21-.62-.51-1.25-.9l-2.09-1.34c-.64.32-1.18.77-1.6,1.37-.43.59-.64,1.25-.64,1.97ZM420.17,112.65c0,.37.24.71.71,1.01l2.67,1.62c1.24-.73,1.86-1.63,1.86-2.69,0-.55-.2-.97-.61-1.27-.41-.3-.98-.45-1.7-.45-1.07,0-1.82.19-2.26.56s-.66.78-.66,1.22Z"/>
    <path d="M437.45,113.12c0-1.29.4-2.44,1.21-3.44.8-1,1.85-1.5,3.14-1.5.59,0,1.11.2,1.58.6,1.27,1.02,2.7,1.52,4.27,1.52,1.78,0,3.25-.62,4.42-1.88.16-.16.33-.24.49-.24.18,0,.32.06.44.18s.18.27.18.43-.09.34-.28.53l-13.81,14.7c-.16.19-.34.28-.52.28-.15,0-.29-.05-.42-.16s-.19-.26-.19-.46c0-.18.08-.34.24-.5l11.76-12.5-.02-.02c-.75.24-1.52.36-2.31.36-1.17,0-2.32-.29-3.48-.86.05.23.08.55.08.98,0,.85-.14,1.66-.42,2.42s-.71,1.4-1.29,1.91c-.58.51-1.23.77-1.97.77-.87,0-1.6-.27-2.2-.8s-.9-1.31-.9-2.32ZM439.59,114.02c0,1,.34,1.5,1.03,1.5.77,0,1.41-.47,1.91-1.41.5-.94.75-1.95.75-3.03,0-.66-.13-1.19-.39-1.59s-.62-.59-1.09-.59c-.8,0-1.38.65-1.73,1.95-.08.29-.18.8-.3,1.53s-.18,1.27-.18,1.63ZM446.52,121.18c0-1.32.4-2.48,1.21-3.46.81-.99,1.85-1.48,3.12-1.48.68,0,1.26.25,1.74.74s.71,1.23.71,2.22c0,1.32-.34,2.5-1.01,3.54-.67,1.04-1.56,1.56-2.68,1.56-.87,0-1.6-.27-2.2-.8s-.89-1.31-.89-2.32ZM448.66,122.08c0,1,.35,1.5,1.04,1.5.76,0,1.39-.46,1.89-1.39s.75-1.94.75-3.05c0-.71-.14-1.25-.41-1.62s-.63-.56-1.07-.56c-.81,0-1.39.65-1.73,1.96-.08.28-.18.78-.3,1.5s-.18,1.27-.18,1.66Z"/>
  </g>
  <g>
    <path d="M344.22,296.74c0-.61.18-1.08.53-1.41s.76-.49,1.22-.49.8.13,1.02.4.33.56.33.88c0,.38-.13.75-.39,1.1-.26.35-.62.56-1.07.64.6.45,1.39.68,2.38.67.98,0,1.7-.45,2.16-1.34.15-.28.27-.65.37-1.13s.16-.85.19-1.14c.03-.29.04-.48.04-.59,0-1.17-.6-1.75-1.79-1.75h-.86c-.36,0-.54-.09-.54-.28,0-.27.08-.41.24-.44.03,0,.06,0,.1,0s.14-.01.29-.02c.15,0,.34-.02.56-.03.5-.03.94-.2,1.32-.51.38-.31.66-.69.84-1.12s.31-.83.39-1.18.12-.66.12-.91c0-.81-.46-1.22-1.37-1.22s-1.65.25-2.36.74c.1.03.22.07.34.12.12.06.26.17.4.36s.21.41.21.67c0,.43-.15.8-.44,1.11s-.68.47-1.16.47c-.36,0-.65-.11-.88-.32s-.34-.5-.34-.86c0-.75.4-1.45,1.2-2.11s1.86-.99,3.17-.99,2.24.23,2.94.69,1.05,1.06,1.05,1.79-.3,1.43-.9,2.1c-.6.67-1.43,1.17-2.47,1.52.92.21,1.64.57,2.15,1.07s.77,1.13.77,1.88c0,.47-.11.94-.33,1.42-.22.48-.55.94-.98,1.38-.43.44-1.03.8-1.79,1.08-.76.27-1.62.41-2.57.41-1.16,0-2.13-.23-2.91-.7-.78-.47-1.16-1.12-1.16-1.96Z" fill="#fff"/>
    <path d="M355.5,296.07l.16-.97,8.3-8.78c.1-.12.18-.19.24-.21.06-.03.18-.04.37-.04.33,0,.5.09.5.27l-.02.26-1.42,8.52h1.94l-.17.94h-1.93l-.36,2.18h1.93l-.16.94c-.47-.04-1.5-.06-3.11-.06-1.72,0-2.83.02-3.34.06l.16-.94h2.25l.42-2.18h-5.76ZM356.5,295.13h4.94l1.19-6.21-6.13,6.21Z" fill="#fff"/>
    <path d="M376.45,289.12c0-1.29.4-2.44,1.21-3.44.8-1,1.85-1.5,3.14-1.5.59,0,1.11.2,1.58.6,1.27,1.02,2.7,1.52,4.27,1.52,1.78,0,3.25-.62,4.42-1.88.16-.16.33-.24.49-.24.18,0,.32.06.44.18s.18.27.18.43-.09.34-.28.53l-13.81,14.7c-.16.19-.34.28-.52.28-.15,0-.29-.05-.42-.16s-.19-.26-.19-.46c0-.18.08-.34.24-.5l11.76-12.5-.02-.02c-.75.24-1.52.36-2.31.36-1.17,0-2.32-.29-3.48-.86.05.23.08.55.08.98,0,.85-.14,1.66-.42,2.42s-.71,1.4-1.29,1.91c-.58.51-1.23.77-1.97.77-.87,0-1.6-.27-2.2-.8s-.9-1.31-.9-2.32ZM378.59,290.02c0,1,.34,1.5,1.03,1.5.77,0,1.41-.47,1.91-1.41.5-.94.75-1.95.75-3.03,0-.66-.13-1.19-.39-1.59s-.62-.59-1.09-.59c-.8,0-1.38.65-1.73,1.95-.08.29-.18.8-.3,1.53s-.18,1.27-.18,1.63ZM385.52,297.18c0-1.32.4-2.48,1.21-3.46.81-.99,1.85-1.48,3.12-1.48.68,0,1.26.25,1.74.74s.71,1.23.71,2.22c0,1.32-.34,2.5-1.01,3.54-.67,1.04-1.56,1.56-2.68,1.56-.87,0-1.6-.27-2.2-.8s-.89-1.31-.89-2.32ZM387.66,298.08c0,1,.35,1.5,1.04,1.5.76,0,1.39-.46,1.89-1.39s.75-1.94.75-3.05c0-.71-.14-1.25-.41-1.62s-.63-.56-1.07-.56c-.81,0-1.39.65-1.73,1.96-.08.28-.18.78-.3,1.5s-.18,1.27-.18,1.66Z" fill="#fff"/>
  </g>
  <g>
    <path d="M205.78,299.18l.16-.94h2.78l1.7-10.32c-.85.25-1.74.38-2.67.38h-.38l.15-.94h.4c1.82,0,3.29-.43,4.41-1.28.18,0,.3,0,.38,0,.08,0,.16.04.23.1s.11.15.11.26c0,.01,0,.03,0,.06,0,.03-.01.06-.02.1,0,.04,0,.08,0,.12l-1.92,11.51h2.8l-.16.94c-.59-.04-1.91-.06-3.98-.06s-3.39.02-3.98.06Z"/>
    <path d="M216.77,296.74c0-.61.18-1.08.53-1.41s.76-.49,1.22-.49.8.13,1.02.4.33.56.33.88c0,.38-.13.75-.39,1.1-.26.35-.62.56-1.07.64.6.45,1.39.68,2.38.67.98,0,1.7-.45,2.16-1.34.15-.28.27-.65.37-1.13s.16-.85.19-1.14c.03-.29.04-.48.04-.59,0-1.17-.6-1.75-1.79-1.75h-.86c-.36,0-.54-.09-.54-.28,0-.27.08-.41.24-.44.03,0,.06,0,.1,0s.14-.01.29-.02c.15,0,.34-.02.56-.03.5-.03.94-.2,1.32-.51.38-.31.66-.69.84-1.12s.31-.83.39-1.18.12-.66.12-.91c0-.81-.46-1.22-1.37-1.22s-1.65.25-2.36.74c.1.03.22.07.34.12.12.06.26.17.4.36s.21.41.21.67c0,.43-.15.8-.44,1.11s-.68.47-1.16.47c-.36,0-.65-.11-.88-.32s-.34-.5-.34-.86c0-.75.4-1.45,1.2-2.11s1.86-.99,3.17-.99,2.24.23,2.94.69,1.05,1.06,1.05,1.79-.3,1.43-.9,2.1c-.6.67-1.43,1.17-2.47,1.52.92.21,1.64.57,2.15,1.07s.77,1.13.77,1.88c0,.47-.11.94-.33,1.42-.22.48-.55.94-.98,1.38-.43.44-1.03.8-1.79,1.08-.76.27-1.62.41-2.57.41-1.16,0-2.13-.23-2.91-.7-.78-.47-1.16-1.12-1.16-1.96Z"/>
    <path d="M228.73,297.83c0-.44.17-.85.52-1.21.35-.36.76-.55,1.23-.55.37,0,.68.13.94.38s.4.58.4.98c0,.46-.17.86-.52,1.22s-.75.54-1.21.54c-.39,0-.72-.13-.97-.39s-.39-.58-.39-.97Z"/>
    <path d="M234.86,296.42c0-.33.05-.62.15-.87.1-.25.22-.43.35-.54.13-.11.29-.2.46-.27.17-.07.3-.11.38-.12.08-.01.15-.02.23-.02.29,0,.57.09.81.28.25.19.37.47.37.86s-.13.72-.38,1.04-.66.49-1.21.52c.48.82,1.27,1.23,2.36,1.23,1.31,0,2.19-.61,2.66-1.83.13-.34.26-.93.38-1.75.13-.82.19-1.39.19-1.73,0-1-.46-1.5-1.37-1.5-1.16,0-2.12.37-2.88,1.12-.15.16-.3.24-.46.23-.29,0-.44-.13-.44-.4,0-.06.02-.21.05-.42l.94-5.69c.05-.32.17-.48.35-.48.04,0,.15.04.32.12.89.35,1.87.52,2.95.52s2.14-.18,3.18-.54c.15-.06.25-.1.3-.1.2,0,.3.1.3.29,0,.18-.14.4-.41.68s-.54.51-.79.7c-.25.19-.48.35-.7.48-1.08.64-2.2.96-3.34.96-.37,0-.87-.05-1.53-.16l-.42,2.62c.8-.44,1.68-.66,2.65-.66,1.32,0,2.32.32,3.01.96.69.64,1.04,1.47,1.04,2.49,0,1.36-.54,2.53-1.62,3.5s-2.53,1.46-4.35,1.46c-1.06,0-1.91-.28-2.56-.85-.65-.57-.98-1.28-.98-2.13Z"/>
    <path d="M255.39,289.12c0-1.29.4-2.44,1.21-3.44.8-1,1.85-1.5,3.14-1.5.59,0,1.11.2,1.58.6,1.27,1.02,2.7,1.52,4.27,1.52,1.78,0,3.25-.62,4.42-1.88.16-.16.33-.24.49-.24.18,0,.32.06.44.18s.18.27.18.43-.09.34-.28.53l-13.81,14.7c-.16.19-.34.28-.52.28-.15,0-.29-.05-.42-.16s-.19-.26-.19-.46c0-.18.08-.34.24-.5l11.76-12.5-.02-.02c-.75.24-1.52.36-2.31.36-1.17,0-2.32-.29-3.48-.86.05.23.08.55.08.98,0,.85-.14,1.66-.42,2.42s-.71,1.4-1.29,1.91c-.58.51-1.23.77-1.97.77-.87,0-1.6-.27-2.2-.8s-.9-1.31-.9-2.32ZM257.53,290.02c0,1,.34,1.5,1.03,1.5.77,0,1.41-.47,1.91-1.41.5-.94.75-1.95.75-3.03,0-.66-.13-1.19-.39-1.59s-.62-.59-1.09-.59c-.8,0-1.38.65-1.73,1.95-.08.29-.18.8-.3,1.53s-.18,1.27-.18,1.63ZM264.46,297.18c0-1.32.4-2.48,1.21-3.46.81-.99,1.85-1.48,3.12-1.48.68,0,1.26.25,1.74.74s.71,1.23.71,2.22c0,1.32-.34,2.5-1.01,3.54-.67,1.04-1.56,1.56-2.68,1.56-.87,0-1.6-.27-2.2-.8s-.89-1.31-.89-2.32ZM266.6,298.08c0,1,.35,1.5,1.04,1.5.76,0,1.39-.46,1.89-1.39s.75-1.94.75-3.05c0-.71-.14-1.25-.41-1.62s-.63-.56-1.07-.56c-.81,0-1.39.65-1.73,1.96-.08.28-.18.78-.3,1.5s-.18,1.27-.18,1.66Z"/>
  </g>
  <g>
    <path d="M81,299.18l.1-.58c.03-.13.11-.27.26-.42l4.89-4.29c1.86-1.63,2.78-3.17,2.78-4.64,0-.66-.19-1.2-.56-1.62s-.91-.62-1.62-.62c-.36,0-.71.06-1.06.17s-.61.22-.77.31-.29.17-.37.24c.61.18.92.57.92,1.17,0,.47-.17.87-.5,1.19s-.72.49-1.16.49c-.29,0-.58-.1-.85-.29s-.41-.5-.41-.93c0-.87.45-1.63,1.36-2.29s2.04-1,3.42-1c1.29,0,2.34.29,3.15.87.81.58,1.21,1.37,1.21,2.38,0,.52-.1,1.01-.29,1.46-.2.46-.5.88-.91,1.28-.41.4-.77.71-1.08.94s-.74.52-1.3.88c-1.24.81-2.57,1.74-4,2.78h2.9c1.25,0,1.95-.04,2.08-.12.25-.16.52-.77.8-1.83h.95l-1.36,4.44h-8.57Z"/>
    <path d="M93.23,297.83c0-.44.17-.85.52-1.21.35-.36.76-.55,1.23-.55.37,0,.68.13.94.38s.4.58.4.98c0,.46-.17.86-.52,1.22s-.75.54-1.21.54c-.39,0-.72-.13-.97-.39s-.39-.58-.39-.97Z"/>
    <path d="M99.15,296.74c0-.61.18-1.08.53-1.41s.76-.49,1.22-.49.8.13,1.02.4.33.56.33.88c0,.38-.13.75-.39,1.1-.26.35-.62.56-1.07.64.6.45,1.39.68,2.38.67.98,0,1.7-.45,2.16-1.34.15-.28.27-.65.37-1.13s.16-.85.19-1.14c.03-.29.04-.48.04-.59,0-1.17-.6-1.75-1.79-1.75h-.86c-.36,0-.54-.09-.54-.28,0-.27.08-.41.24-.44.03,0,.06,0,.1,0s.14-.01.29-.02c.15,0,.34-.02.56-.03.5-.03.94-.2,1.32-.51.38-.31.66-.69.84-1.12s.31-.83.39-1.18.12-.66.12-.91c0-.81-.46-1.22-1.37-1.22s-1.65.25-2.36.74c.1.03.22.07.34.12.12.06.26.17.4.36s.21.41.21.67c0,.43-.15.8-.44,1.11s-.68.47-1.16.47c-.36,0-.65-.11-.88-.32s-.34-.5-.34-.86c0-.75.4-1.45,1.2-2.11s1.86-.99,3.17-.99,2.24.23,2.94.69,1.05,1.06,1.05,1.79-.3,1.43-.9,2.1c-.6.67-1.43,1.17-2.47,1.52.92.21,1.64.57,2.15,1.07s.77,1.13.77,1.88c0,.47-.11.94-.33,1.42-.22.48-.55.94-.98,1.38-.43.44-1.03.8-1.79,1.08-.76.27-1.62.41-2.57.41-1.16,0-2.13-.23-2.91-.7-.78-.47-1.16-1.12-1.16-1.96Z"/>
    <path d="M110.86,296.42c0-.33.05-.62.15-.87.1-.25.22-.43.35-.54.13-.11.29-.2.46-.27.17-.07.3-.11.38-.12.08-.01.15-.02.23-.02.29,0,.57.09.81.28.25.19.37.47.37.86s-.13.72-.38,1.04-.66.49-1.21.52c.48.82,1.27,1.23,2.36,1.23,1.31,0,2.19-.61,2.66-1.83.13-.34.26-.93.38-1.75.13-.82.19-1.39.19-1.73,0-1-.46-1.5-1.37-1.5-1.16,0-2.12.37-2.88,1.12-.15.16-.3.24-.46.23-.29,0-.44-.13-.44-.4,0-.06.02-.21.05-.42l.94-5.69c.05-.32.17-.48.35-.48.04,0,.15.04.32.12.89.35,1.87.52,2.95.52s2.14-.18,3.18-.54c.15-.06.25-.1.3-.1.2,0,.3.1.3.29,0,.18-.14.4-.41.68s-.54.51-.79.7c-.25.19-.48.35-.7.48-1.08.64-2.2.96-3.34.96-.37,0-.87-.05-1.53-.16l-.42,2.62c.8-.44,1.68-.66,2.65-.66,1.32,0,2.32.32,3.01.96.69.64,1.04,1.47,1.04,2.49,0,1.36-.54,2.53-1.62,3.5s-2.53,1.46-4.35,1.46c-1.06,0-1.91-.28-2.56-.85-.65-.57-.98-1.28-.98-2.13Z"/>
    <path d="M131.39,289.12c0-1.29.4-2.44,1.21-3.44.8-1,1.85-1.5,3.14-1.5.59,0,1.11.2,1.58.6,1.27,1.02,2.7,1.52,4.27,1.52,1.78,0,3.25-.62,4.42-1.88.16-.16.33-.24.49-.24.18,0,.32.06.44.18s.18.27.18.43-.09.34-.28.53l-13.81,14.7c-.16.19-.34.28-.52.28-.15,0-.29-.05-.42-.16s-.19-.26-.19-.46c0-.18.08-.34.24-.5l11.76-12.5-.02-.02c-.75.24-1.52.36-2.31.36-1.17,0-2.32-.29-3.48-.86.05.23.08.55.08.98,0,.85-.14,1.66-.42,2.42s-.71,1.4-1.29,1.91c-.58.51-1.23.77-1.97.77-.87,0-1.6-.27-2.2-.8s-.9-1.31-.9-2.32ZM133.53,290.02c0,1,.34,1.5,1.03,1.5.77,0,1.41-.47,1.91-1.41.5-.94.75-1.95.75-3.03,0-.66-.13-1.19-.39-1.59s-.62-.59-1.09-.59c-.8,0-1.38.65-1.73,1.95-.08.29-.18.8-.3,1.53s-.18,1.27-.18,1.63ZM140.46,297.18c0-1.32.4-2.48,1.21-3.46.81-.99,1.85-1.48,3.12-1.48.68,0,1.26.25,1.74.74s.71,1.23.71,2.22c0,1.32-.34,2.5-1.01,3.54-.67,1.04-1.56,1.56-2.68,1.56-.87,0-1.6-.27-2.2-.8s-.89-1.31-.89-2.32ZM142.6,298.08c0,1,.35,1.5,1.04,1.5.76,0,1.39-.46,1.89-1.39s.75-1.94.75-3.05c0-.71-.14-1.25-.41-1.62s-.63-.56-1.07-.56c-.81,0-1.39.65-1.73,1.96-.08.28-.18.78-.3,1.5s-.18,1.27-.18,1.66Z"/>
  </g>
  <g>
    <path d="M716,299.18l.1-.58c.03-.13.11-.27.26-.42l4.89-4.29c1.86-1.63,2.78-3.17,2.78-4.64,0-.66-.19-1.2-.56-1.62-.38-.41-.91-.62-1.62-.62-.36,0-.71.06-1.06.17-.35.11-.61.22-.77.31s-.29.17-.37.24c.61.18.92.57.92,1.17,0,.47-.17.87-.5,1.19-.34.33-.72.49-1.16.49-.29,0-.58-.1-.85-.29s-.41-.5-.41-.93c0-.87.45-1.63,1.36-2.29.91-.66,2.04-1,3.42-1,1.29,0,2.34.29,3.15.87.8.58,1.21,1.37,1.21,2.38,0,.52-.1,1.01-.29,1.46-.2.46-.5.88-.91,1.28-.41.4-.77.71-1.08.94s-.74.52-1.3.88c-1.24.81-2.57,1.74-4,2.78h2.9c1.25,0,1.95-.04,2.08-.12.25-.16.52-.77.8-1.83h.95l-1.36,4.44h-8.57Z"/>
    <path d="M728.23,297.83c0-.44.17-.85.52-1.21s.76-.55,1.23-.55c.37,0,.68.13.95.38s.39.58.39.98c0,.46-.17.86-.52,1.22s-.75.54-1.21.54c-.39,0-.72-.13-.97-.39-.26-.26-.39-.58-.39-.97Z"/>
    <path d="M734.15,296.74c0-.61.18-1.08.53-1.41s.76-.49,1.22-.49.8.13,1.02.4c.22.27.33.56.33.88,0,.38-.13.75-.39,1.1-.26.35-.62.56-1.07.64.6.45,1.39.68,2.38.67.98,0,1.7-.45,2.16-1.34.15-.28.27-.65.37-1.13s.16-.85.19-1.14c.03-.29.04-.48.04-.59,0-1.17-.6-1.75-1.79-1.75h-.86c-.36,0-.54-.09-.54-.28,0-.27.08-.41.24-.44.03,0,.06,0,.1,0,.04,0,.14-.01.29-.02.15,0,.34-.02.56-.03.5-.03.94-.2,1.32-.51s.66-.69.84-1.12.31-.83.39-1.18c.08-.35.12-.66.12-.91,0-.81-.46-1.22-1.37-1.22-.87,0-1.65.25-2.36.74.1.03.22.07.34.12.12.06.26.17.4.36.14.18.21.41.21.67,0,.43-.15.8-.44,1.11s-.68.47-1.16.47c-.36,0-.65-.11-.88-.32-.23-.21-.34-.5-.34-.86,0-.75.4-1.45,1.2-2.11s1.86-.99,3.17-.99,2.24.23,2.94.69,1.04,1.06,1.04,1.79-.3,1.43-.9,2.1-1.43,1.17-2.47,1.52c.92.21,1.64.57,2.15,1.07.51.5.77,1.13.77,1.88,0,.47-.11.94-.33,1.42-.22.48-.55.94-.99,1.38-.43.44-1.03.8-1.79,1.08-.76.27-1.62.41-2.57.41-1.16,0-2.13-.23-2.91-.7s-1.16-1.12-1.16-1.96Z"/>
    <path d="M745.86,296.42c0-.33.05-.62.15-.87s.22-.43.35-.54.29-.2.46-.27.3-.11.38-.12c.08-.01.15-.02.22-.02.29,0,.57.09.81.28.25.19.37.47.37.86s-.13.72-.38,1.04-.66.49-1.21.52c.48.82,1.27,1.23,2.36,1.23,1.31,0,2.19-.61,2.66-1.83.13-.34.26-.93.38-1.75.13-.82.19-1.39.19-1.73,0-1-.46-1.5-1.37-1.5-1.16,0-2.12.37-2.88,1.12-.15.16-.3.24-.46.23-.29,0-.44-.13-.44-.4,0-.06.02-.21.05-.42l.94-5.69c.05-.32.17-.48.35-.48.04,0,.15.04.32.12.89.35,1.87.52,2.95.52s2.14-.18,3.19-.54c.15-.06.25-.1.3-.1.2,0,.3.1.3.29,0,.18-.14.4-.41.68s-.54.51-.79.7c-.25.19-.49.35-.7.48-1.08.64-2.2.96-3.34.96-.37,0-.88-.05-1.53-.16l-.42,2.62c.8-.44,1.68-.66,2.65-.66,1.32,0,2.32.32,3.01.96s1.04,1.47,1.04,2.49c0,1.36-.54,2.53-1.62,3.5-1.08.97-2.53,1.46-4.35,1.46-1.06,0-1.91-.28-2.56-.85-.65-.57-.98-1.28-.98-2.13Z"/>
    <path d="M766.39,289.12c0-1.29.4-2.44,1.21-3.44s1.85-1.5,3.14-1.5c.59,0,1.11.2,1.58.6,1.27,1.02,2.7,1.52,4.26,1.52,1.78,0,3.25-.62,4.42-1.88.16-.16.32-.24.49-.24.18,0,.32.06.44.18s.18.27.18.43-.1.34-.28.53l-13.81,14.7c-.16.19-.33.28-.52.28-.15,0-.29-.05-.42-.16s-.19-.26-.19-.46c0-.18.08-.34.24-.5l11.76-12.5-.02-.02c-.75.24-1.52.36-2.31.36-1.17,0-2.32-.29-3.48-.86.05.23.08.55.08.98,0,.85-.14,1.66-.42,2.42s-.71,1.4-1.29,1.91-1.23.77-1.97.77c-.87,0-1.6-.27-2.2-.8-.6-.53-.9-1.31-.9-2.32ZM768.53,290.02c0,1,.34,1.5,1.03,1.5.77,0,1.41-.47,1.91-1.41.5-.94.75-1.95.75-3.03,0-.66-.13-1.19-.39-1.59s-.62-.59-1.09-.59c-.8,0-1.38.65-1.73,1.95-.08.29-.18.8-.3,1.53s-.18,1.27-.18,1.63ZM775.46,297.18c0-1.32.4-2.48,1.21-3.46.81-.99,1.85-1.48,3.12-1.48.68,0,1.26.25,1.74.74s.71,1.23.71,2.22c0,1.32-.34,2.5-1.01,3.54-.67,1.04-1.56,1.56-2.68,1.56-.87,0-1.6-.27-2.2-.8s-.89-1.31-.89-2.32ZM777.6,298.08c0,1,.35,1.5,1.04,1.5.76,0,1.39-.46,1.89-1.39.5-.93.75-1.94.75-3.05,0-.71-.14-1.25-.41-1.62-.27-.37-.63-.56-1.07-.56-.81,0-1.39.65-1.73,1.96-.08.28-.18.78-.3,1.5s-.18,1.27-.18,1.66Z"/>
  </g>
  <g>
    <path d="M591.61,299.18l.16-.94h2.78l1.7-10.32c-.85.25-1.74.38-2.67.38h-.38l.15-.94h.4c1.82,0,3.29-.43,4.41-1.28.18,0,.3,0,.38,0,.08,0,.16.04.23.1.07.06.11.15.11.26,0,.01,0,.03,0,.06,0,.03-.01.06-.02.1,0,.04,0,.08,0,.12l-1.92,11.51h2.8l-.16.94c-.59-.04-1.91-.06-3.97-.06s-3.39.02-3.98.06Z"/>
    <path d="M602.6,296.74c0-.61.18-1.08.53-1.41s.76-.49,1.22-.49.8.13,1.02.4c.22.27.33.56.33.88,0,.38-.13.75-.39,1.1-.26.35-.62.56-1.07.64.6.45,1.39.68,2.38.67.98,0,1.7-.45,2.16-1.34.15-.28.27-.65.37-1.13s.16-.85.19-1.14c.03-.29.04-.48.04-.59,0-1.17-.6-1.75-1.79-1.75h-.86c-.36,0-.54-.09-.54-.28,0-.27.08-.41.24-.44.03,0,.06,0,.1,0,.04,0,.14-.01.29-.02.15,0,.34-.02.56-.03.5-.03.94-.2,1.32-.51s.66-.69.84-1.12.31-.83.39-1.18c.08-.35.12-.66.12-.91,0-.81-.46-1.22-1.37-1.22-.87,0-1.65.25-2.36.74.1.03.22.07.34.12.12.06.26.17.4.36.14.18.21.41.21.67,0,.43-.15.8-.44,1.11s-.68.47-1.16.47c-.36,0-.65-.11-.88-.32-.23-.21-.34-.5-.34-.86,0-.75.4-1.45,1.2-2.11s1.86-.99,3.17-.99,2.24.23,2.94.69,1.04,1.06,1.04,1.79-.3,1.43-.9,2.1-1.43,1.17-2.47,1.52c.92.21,1.64.57,2.15,1.07.51.5.77,1.13.77,1.88,0,.47-.11.94-.33,1.42-.22.48-.55.94-.99,1.38-.43.44-1.03.8-1.79,1.08-.76.27-1.62.41-2.57.41-1.16,0-2.13-.23-2.91-.7s-1.16-1.12-1.16-1.96Z"/>
    <path d="M614.55,297.83c0-.44.17-.85.52-1.21s.76-.55,1.23-.55c.37,0,.68.13.95.38s.39.58.39.98c0,.46-.17.86-.52,1.22s-.75.54-1.21.54c-.39,0-.72-.13-.97-.39-.26-.26-.39-.58-.39-.97Z"/>
    <path d="M620.69,296.42c0-.33.05-.62.15-.87s.22-.43.35-.54.29-.2.46-.27.3-.11.38-.12c.08-.01.15-.02.22-.02.29,0,.57.09.81.28.25.19.37.47.37.86s-.13.72-.38,1.04-.66.49-1.21.52c.48.82,1.27,1.23,2.36,1.23,1.31,0,2.19-.61,2.66-1.83.13-.34.26-.93.38-1.75.13-.82.19-1.39.19-1.73,0-1-.46-1.5-1.37-1.5-1.16,0-2.12.37-2.88,1.12-.15.16-.3.24-.46.23-.29,0-.44-.13-.44-.4,0-.06.02-.21.05-.42l.94-5.69c.05-.32.17-.48.35-.48.04,0,.15.04.32.12.89.35,1.87.52,2.95.52s2.14-.18,3.19-.54c.15-.06.25-.1.3-.1.2,0,.3.1.3.29,0,.18-.14.4-.41.68s-.54.51-.79.7c-.25.19-.49.35-.7.48-1.08.64-2.2.96-3.34.96-.37,0-.88-.05-1.53-.16l-.42,2.62c.8-.44,1.68-.66,2.65-.66,1.32,0,2.32.32,3.01.96s1.04,1.47,1.04,2.49c0,1.36-.54,2.53-1.62,3.5-1.08.97-2.53,1.46-4.35,1.46-1.06,0-1.91-.28-2.56-.85-.65-.57-.98-1.28-.98-2.13Z"/>
    <path d="M633.56,289.12c0-1.29.4-2.44,1.21-3.44s1.85-1.5,3.14-1.5c.59,0,1.11.2,1.58.6,1.27,1.02,2.7,1.52,4.26,1.52,1.78,0,3.25-.62,4.42-1.88.16-.16.32-.24.49-.24.18,0,.32.06.44.18s.18.27.18.43-.1.34-.28.53l-13.81,14.7c-.16.19-.33.28-.52.28-.15,0-.29-.05-.42-.16s-.19-.26-.19-.46c0-.18.08-.34.24-.5l11.76-12.5-.02-.02c-.75.24-1.52.36-2.31.36-1.17,0-2.32-.29-3.48-.86.05.23.08.55.08.98,0,.85-.14,1.66-.42,2.42s-.71,1.4-1.29,1.91-1.23.77-1.97.77c-.87,0-1.6-.27-2.2-.8-.6-.53-.9-1.31-.9-2.32ZM635.7,290.02c0,1,.34,1.5,1.03,1.5.77,0,1.41-.47,1.91-1.41.5-.94.75-1.95.75-3.03,0-.66-.13-1.19-.39-1.59s-.62-.59-1.09-.59c-.8,0-1.38.65-1.73,1.95-.08.29-.18.8-.3,1.53s-.18,1.27-.18,1.63ZM642.63,297.18c0-1.32.4-2.48,1.21-3.46.81-.99,1.85-1.48,3.12-1.48.68,0,1.26.25,1.74.74s.71,1.23.71,2.22c0,1.32-.34,2.5-1.01,3.54-.67,1.04-1.56,1.56-2.68,1.56-.87,0-1.6-.27-2.2-.8s-.89-1.31-.89-2.32ZM644.77,298.08c0,1,.35,1.5,1.04,1.5.76,0,1.39-.46,1.89-1.39.5-.93.75-1.94.75-3.05,0-.71-.14-1.25-.41-1.62-.27-.37-.63-.56-1.07-.56-.81,0-1.39.65-1.73,1.96-.08.28-.18.78-.3,1.5s-.18,1.27-.18,1.66Z"/>
  </g>
  <g>
    <path d="M468.21,296.74c0-.61.18-1.08.53-1.41s.76-.49,1.22-.49.8.13,1.02.4c.22.27.33.56.33.88,0,.38-.13.75-.39,1.1-.26.35-.62.56-1.07.64.6.45,1.39.68,2.38.67.98,0,1.7-.45,2.16-1.34.15-.28.27-.65.37-1.13s.16-.85.19-1.14c.03-.29.04-.48.04-.59,0-1.17-.6-1.75-1.79-1.75h-.86c-.36,0-.54-.09-.54-.28,0-.27.08-.41.24-.44.03,0,.06,0,.1,0,.04,0,.14-.01.29-.02.15,0,.34-.02.56-.03.5-.03.94-.2,1.32-.51s.66-.69.84-1.12.31-.83.39-1.18c.08-.35.12-.66.12-.91,0-.81-.46-1.22-1.37-1.22-.87,0-1.65.25-2.36.74.1.03.22.07.34.12.12.06.26.17.4.36.14.18.21.41.21.67,0,.43-.15.8-.44,1.11s-.68.47-1.16.47c-.36,0-.65-.11-.88-.32-.23-.21-.34-.5-.34-.86,0-.75.4-1.45,1.2-2.11s1.86-.99,3.17-.99,2.24.23,2.94.69,1.04,1.06,1.04,1.79-.3,1.43-.9,2.1-1.43,1.17-2.47,1.52c.92.21,1.64.57,2.15,1.07.51.5.77,1.13.77,1.88,0,.47-.11.94-.33,1.42-.22.48-.55.94-.99,1.38-.43.44-1.03.8-1.79,1.08-.76.27-1.62.41-2.57.41-1.16,0-2.13-.23-2.91-.7s-1.16-1.12-1.16-1.96Z" fill="#fff"/>
    <path d="M479.5,296.07l.16-.97,8.3-8.78c.1-.12.18-.19.24-.21s.18-.04.37-.04c.33,0,.5.09.5.27l-.02.26-1.42,8.52h1.94l-.17.94h-1.93l-.36,2.18h1.93l-.16.94c-.47-.04-1.5-.06-3.11-.06-1.72,0-2.83.02-3.34.06l.16-.94h2.25l.42-2.18h-5.76ZM480.5,295.13h4.94l1.19-6.21-6.13,6.21Z" fill="#fff"/>
    <path d="M500.45,289.12c0-1.29.4-2.44,1.21-3.44s1.85-1.5,3.14-1.5c.59,0,1.11.2,1.58.6,1.27,1.02,2.7,1.52,4.26,1.52,1.78,0,3.25-.62,4.42-1.88.16-.16.32-.24.49-.24.18,0,.32.06.44.18s.18.27.18.43-.1.34-.28.53l-13.81,14.7c-.16.19-.33.28-.52.28-.15,0-.29-.05-.42-.16s-.19-.26-.19-.46c0-.18.08-.34.24-.5l11.76-12.5-.02-.02c-.75.24-1.52.36-2.31.36-1.17,0-2.32-.29-3.48-.86.05.23.08.55.08.98,0,.85-.14,1.66-.42,2.42s-.71,1.4-1.29,1.91-1.23.77-1.97.77c-.87,0-1.6-.27-2.2-.8-.6-.53-.9-1.31-.9-2.32ZM502.59,290.02c0,1,.34,1.5,1.03,1.5.77,0,1.41-.47,1.91-1.41.5-.94.75-1.95.75-3.03,0-.66-.13-1.19-.39-1.59s-.62-.59-1.09-.59c-.8,0-1.38.65-1.73,1.95-.08.29-.18.8-.3,1.53s-.18,1.27-.18,1.63ZM509.52,297.18c0-1.32.4-2.48,1.21-3.46.81-.99,1.85-1.48,3.12-1.48.68,0,1.26.25,1.74.74s.71,1.23.71,2.22c0,1.32-.34,2.5-1.01,3.54-.67,1.04-1.56,1.56-2.68,1.56-.87,0-1.6-.27-2.2-.8s-.89-1.31-.89-2.32ZM511.66,298.08c0,1,.35,1.5,1.04,1.5.76,0,1.39-.46,1.89-1.39.5-.93.75-1.94.75-3.05,0-.71-.14-1.25-.41-1.62-.27-.37-.63-.56-1.07-.56-.81,0-1.39.65-1.73,1.96-.08.28-.18.78-.3,1.5s-.18,1.27-.18,1.66Z" fill="#fff"/>
  </g>
  <path d="M421.3,496.36l2.57-12.14.02-.02h1.81c-.18.86-.37,1.77-.58,2.74-.2.97-.35,1.67-.44,2.1s-.13.72-.13.88c0,.47.13.85.4,1.16.26.3.61.45,1.03.45.5,0,.95-.18,1.36-.55.41-.37.7-.8.86-1.29.02-.08.05-.21.08-.39.04-.17.06-.28.07-.33l1.02-4.76h1.09l.74.02-1.29,6.12c-.08.3-.12.53-.12.69,0,.46.18.68.55.68.17,0,.36-.07.56-.22.21-.15.33-.39.38-.75h1.27c-.06.58-.32,1.14-.78,1.68-.46.54-1.15.85-2.07.94-.27-.03-.48-.06-.65-.11-.17-.05-.35-.18-.56-.38-.21-.2-.38-.49-.51-.85-.64.84-1.44,1.28-2.4,1.35-.23-.01-.41-.03-.54-.06-.13-.03-.3-.12-.51-.26-.21-.14-.4-.34-.57-.61l-.83,3.94h-1.83Z"/>
  <g>
    <path d="M527.21,496.36l2.57-12.14.02-.02h1.81c-.18.86-.37,1.77-.58,2.74-.2.97-.35,1.67-.44,2.1s-.13.72-.13.88c0,.47.13.85.4,1.16.26.3.61.45,1.03.45.5,0,.95-.18,1.36-.55.41-.37.7-.8.86-1.29.02-.08.04-.21.08-.39.04-.17.06-.28.07-.33l1.02-4.76h1.09l.74.02-1.29,6.12c-.08.3-.12.53-.12.69,0,.46.18.68.55.68.17,0,.36-.07.56-.22.21-.15.33-.39.38-.75h1.27c-.06.58-.32,1.14-.78,1.68-.46.54-1.15.85-2.08.94-.27-.03-.48-.06-.65-.11-.17-.05-.36-.18-.56-.38-.21-.2-.38-.49-.51-.85-.64.84-1.44,1.28-2.4,1.35-.23-.01-.41-.03-.54-.06-.13-.03-.3-.12-.51-.26-.21-.14-.4-.34-.58-.61l-.83,3.94h-1.83Z"/>
    <path d="M546.64,488.17c0-.48.3-.71.89-.71h3.52c.53-2.52.81-3.81.83-3.88.12-.27.34-.4.64-.4.18,0,.34.06.49.19.15.13.22.31.22.54,0,.07-.24,1.26-.72,3.55h3.21c.34,0,.57.08.7.23.12.16.19.31.19.47,0,.08-.02.18-.05.27-.03.09-.12.19-.27.29-.15.1-.34.15-.58.15h-3.51c-.53,2.5-.82,3.8-.86,3.88-.15.27-.36.4-.62.4-.18,0-.34-.07-.49-.2s-.22-.31-.22-.53c0-.07.24-1.26.72-3.55h-3.25c-.23,0-.41-.05-.54-.15-.13-.1-.21-.2-.25-.29-.03-.09-.05-.19-.05-.27Z"/>
    <path d="M564.61,489.75c0-1.32.49-2.52,1.48-3.61s2.11-1.72,3.39-1.9c.21-.02.52-.04.94-.04h5.24l-.38,1.78h-1.99c.28.64.42,1.24.42,1.79,0,1.41-.56,2.69-1.69,3.83-1.13,1.14-2.41,1.72-3.84,1.72-1.05,0-1.91-.34-2.57-1.02s-.99-1.53-.99-2.56ZM566.49,489.37c0,.63.19,1.15.57,1.56.38.42.88.62,1.5.62.85,0,1.6-.35,2.26-1.04.66-.69.99-1.47.99-2.34,0-.63-.19-1.15-.58-1.56-.39-.41-.89-.62-1.51-.62-.82,0-1.57.34-2.23,1.02-.66.68-1,1.46-1,2.35Z"/>
  </g>
  <g>
    <path d="M658.22,496.36l2.57-12.14.02-.02h1.81c-.18.86-.37,1.77-.58,2.74-.21.97-.35,1.67-.44,2.1-.09.43-.13.72-.13.88,0,.47.13.85.4,1.16.26.3.61.45,1.03.45.5,0,.95-.18,1.36-.55.41-.37.7-.8.86-1.29.02-.08.05-.21.08-.39.04-.17.06-.28.07-.33l1.02-4.76h1.09l.74.02-1.29,6.12c-.08.3-.12.53-.12.69,0,.46.18.68.55.68.17,0,.36-.07.56-.22.21-.15.33-.39.38-.75h1.27c-.06.58-.32,1.14-.78,1.68-.46.54-1.15.85-2.08.94-.27-.03-.48-.06-.65-.11-.17-.05-.36-.18-.56-.38-.21-.2-.38-.49-.51-.85-.64.84-1.44,1.28-2.4,1.35-.23-.01-.41-.03-.54-.06-.13-.03-.3-.12-.51-.26-.21-.14-.4-.34-.58-.61l-.83,3.94h-1.83Z"/>
    <path d="M677.65,488.17c0-.48.3-.71.89-.71h3.52c.53-2.52.81-3.81.83-3.88.12-.27.34-.4.64-.4.18,0,.34.06.49.19.15.13.22.31.22.54,0,.07-.24,1.26-.72,3.55h3.21c.34,0,.57.08.7.23.12.16.19.31.19.47,0,.08-.02.18-.05.27-.03.09-.12.19-.27.29-.14.1-.34.15-.58.15h-3.51c-.53,2.5-.82,3.8-.86,3.88-.15.27-.36.4-.62.4-.18,0-.34-.07-.49-.2-.14-.13-.22-.31-.22-.53,0-.07.24-1.26.72-3.55h-3.25c-.23,0-.41-.05-.54-.15-.13-.1-.21-.2-.25-.29-.03-.09-.05-.19-.05-.27Z"/>
    <path d="M694.95,493.18l.32-1.52,3.04-2.36c.14-.1.42-.3.83-.59s.7-.51.85-.63c.16-.12.4-.32.74-.59.33-.27.58-.49.73-.65.15-.16.35-.37.57-.64.23-.27.39-.51.49-.72.1-.21.2-.46.28-.73.08-.27.13-.55.13-.83,0-.62-.2-1.11-.61-1.47-.41-.36-.91-.54-1.53-.54-.43,0-.83.08-1.2.25-.37.17-.67.41-.93.72-.25.31-.45.57-.58.79-.13.22-.27.48-.41.78l-.78-1.29c.21-.34.41-.63.6-.88.2-.24.48-.53.83-.86s.79-.59,1.31-.77c.51-.18,1.09-.27,1.73-.27,1.08,0,1.93.29,2.56.88.63.58.94,1.36.94,2.33,0,.43-.07.84-.2,1.22-.13.38-.28.7-.45.96s-.44.57-.81.91c-.37.34-.68.61-.93.79-.25.18-.64.47-1.17.85-.54.39-.95.68-1.23.89l-3.15,2.36h6.35l-.34,1.6h-7.99Z"/>
    <path d="M705.59,489.75c0-1.32.49-2.52,1.48-3.61s2.11-1.72,3.39-1.9c.21-.02.52-.04.94-.04h5.24l-.38,1.78h-1.99c.28.64.42,1.24.42,1.79,0,1.41-.56,2.69-1.69,3.83-1.13,1.14-2.41,1.72-3.84,1.72-1.05,0-1.91-.34-2.57-1.02s-.99-1.53-.99-2.56ZM707.48,489.37c0,.63.19,1.15.57,1.56.38.42.88.62,1.5.62.85,0,1.6-.35,2.26-1.04.66-.69.99-1.47.99-2.34,0-.63-.19-1.15-.58-1.56-.39-.41-.89-.62-1.51-.62-.82,0-1.57.34-2.23,1.02-.66.68-1,1.46-1,2.35Z"/>
  </g>
  <g>
    <path d="M783.22,496.36l2.57-12.14.02-.02h1.81c-.18.86-.37,1.77-.58,2.74-.21.97-.35,1.67-.44,2.1-.09.43-.13.72-.13.88,0,.47.13.85.4,1.16.26.3.61.45,1.03.45.5,0,.95-.18,1.36-.55.41-.37.7-.8.86-1.29.02-.08.05-.21.08-.39.04-.17.06-.28.07-.33l1.02-4.76h1.09l.74.02-1.29,6.12c-.08.3-.12.53-.12.69,0,.46.18.68.55.68.17,0,.36-.07.56-.22.21-.15.33-.39.38-.75h1.27c-.06.58-.32,1.14-.78,1.68-.46.54-1.15.85-2.08.94-.27-.03-.48-.06-.65-.11-.17-.05-.36-.18-.56-.38-.21-.2-.38-.49-.51-.85-.64.84-1.44,1.28-2.4,1.35-.23-.01-.41-.03-.54-.06-.13-.03-.3-.12-.51-.26-.21-.14-.4-.34-.58-.61l-.83,3.94h-1.83Z"/>
    <path d="M802.65,488.17c0-.48.3-.71.89-.71h3.52c.53-2.52.81-3.81.83-3.88.12-.27.34-.4.64-.4.18,0,.34.06.49.19.15.13.22.31.22.54,0,.07-.24,1.26-.72,3.55h3.21c.34,0,.57.08.7.23.12.16.19.31.19.47,0,.08-.02.18-.05.27-.03.09-.12.19-.27.29-.14.1-.34.15-.58.15h-3.51c-.53,2.5-.82,3.8-.86,3.88-.15.27-.36.4-.62.4-.18,0-.34-.07-.49-.2-.14-.13-.22-.31-.22-.53,0-.07.24-1.26.72-3.55h-3.25c-.23,0-.41-.05-.54-.15-.13-.1-.21-.2-.25-.29-.03-.09-.05-.19-.05-.27Z"/>
    <path d="M820.07,491.83l.57-1.44.07.09c.05.06.1.12.15.18s.13.14.22.23.2.18.31.25c.11.07.23.16.37.25.14.1.29.18.46.25.16.07.34.13.52.2.18.07.39.11.62.14s.46.05.71.05c.52,0,.98-.11,1.38-.33.4-.22.7-.5.91-.84.21-.34.36-.67.46-1s.14-.65.14-.95c0-.38-.07-.69-.21-.94-.14-.25-.33-.43-.56-.53-.23-.1-.44-.17-.63-.21s-.37-.05-.56-.05c-.04,0-.08,0-.12,0-.04,0-.07,0-.08,0h-1.22l.3-1.42c.95-.08,1.48-.12,1.58-.15.72-.17,1.29-.52,1.71-1.05.42-.53.63-1.05.63-1.56,0-.3-.11-.58-.32-.81-.21-.24-.61-.36-1.18-.36-.91,0-1.76.32-2.54.96-.25.23-.5.47-.72.73l-.62-1.27c1.27-1.23,2.65-1.85,4.16-1.84.9,0,1.64.23,2.23.68.59.46.89,1.05.89,1.77,0,.42-.1.84-.29,1.25-.19.41-.41.75-.64,1.01-.23.26-.51.51-.83.74-.32.23-.54.39-.66.46-.13.08-.23.13-.3.17.62.24,1.1.58,1.44,1.04.33.45.5.94.5,1.47,0,1.08-.51,2.1-1.53,3.05s-2.22,1.44-3.6,1.44c-.23,0-.45-.01-.66-.04-.21-.03-.41-.06-.59-.11-.18-.05-.35-.1-.52-.16s-.32-.13-.45-.19-.26-.14-.39-.23c-.13-.09-.24-.16-.33-.23-.08-.07-.17-.14-.27-.23-.1-.09-.17-.15-.21-.2-.04-.05-.09-.1-.15-.17-.06-.07-.1-.11-.11-.12Z"/>
    <path d="M830.59,489.75c0-1.32.49-2.52,1.48-3.61s2.11-1.72,3.39-1.9c.21-.02.52-.04.94-.04h5.24l-.38,1.78h-1.99c.28.64.42,1.24.42,1.79,0,1.41-.56,2.69-1.69,3.83-1.13,1.14-2.41,1.72-3.84,1.72-1.05,0-1.91-.34-2.57-1.02s-.99-1.53-.99-2.56ZM832.48,489.37c0,.63.19,1.15.57,1.56.38.42.88.62,1.5.62.85,0,1.6-.35,2.26-1.04.66-.69.99-1.47.99-2.34,0-.63-.19-1.15-.58-1.56-.39-.41-.89-.62-1.51-.62-.82,0-1.57.34-2.23,1.02-.66.68-1,1.46-1,2.35Z"/>
  </g>
  <g>
    <path d="M20,496.36l2.57-12.14.02-.02h1.81c-.18.86-.37,1.77-.58,2.74-.2.97-.35,1.67-.44,2.1s-.13.72-.13.88c0,.47.13.85.4,1.16.26.3.61.45,1.03.45.5,0,.95-.18,1.36-.55.41-.37.7-.8.86-1.29.02-.08.05-.21.08-.39.04-.17.06-.28.07-.33l1.02-4.76h1.09l.74.02-1.29,6.12c-.08.3-.12.53-.12.69,0,.46.18.68.55.68.17,0,.36-.07.56-.22.21-.15.33-.39.38-.75h1.27c-.06.58-.32,1.14-.78,1.68-.46.54-1.15.85-2.07.94-.27-.03-.48-.06-.65-.11-.17-.05-.35-.18-.56-.38-.21-.2-.38-.49-.51-.85-.64.84-1.44,1.28-2.4,1.35-.23-.01-.41-.03-.54-.06-.13-.03-.3-.12-.51-.26-.21-.14-.4-.34-.57-.61l-.83,3.94h-1.83Z"/>
    <path d="M38.27,489.4l.3-1.42h5.31l-.29,1.42h-5.32Z"/>
    <path d="M51.3,491.83l.57-1.44.07.09c.05.06.1.12.15.18.05.06.13.14.22.23.1.1.2.18.31.25.11.07.23.16.37.25.14.1.29.18.46.25.16.07.34.13.52.2.18.07.39.11.62.14.23.03.46.05.71.05.52,0,.98-.11,1.38-.33.4-.22.7-.5.91-.84.21-.34.36-.67.46-1,.1-.33.14-.65.14-.95,0-.38-.07-.69-.21-.94-.14-.25-.33-.43-.56-.53-.24-.1-.44-.17-.63-.21-.18-.04-.37-.05-.56-.05-.04,0-.08,0-.12,0-.04,0-.07,0-.08,0h-1.22l.3-1.42c.95-.08,1.48-.12,1.58-.15.72-.17,1.29-.52,1.71-1.05.42-.53.63-1.05.63-1.56,0-.3-.11-.58-.32-.81-.21-.24-.61-.36-1.18-.36-.91,0-1.76.32-2.54.96-.25.23-.5.47-.72.73l-.62-1.27c1.27-1.23,2.65-1.85,4.16-1.84.9,0,1.64.23,2.23.68.59.46.89,1.05.89,1.77,0,.42-.1.84-.29,1.25-.19.41-.41.75-.64,1.01-.23.26-.51.51-.82.74-.32.23-.54.39-.66.46s-.23.13-.3.17c.62.24,1.1.58,1.44,1.04.33.45.5.94.5,1.47,0,1.08-.51,2.1-1.53,3.05s-2.22,1.44-3.6,1.44c-.23,0-.45-.01-.66-.04-.21-.03-.41-.06-.59-.11-.18-.05-.35-.1-.52-.16-.17-.06-.32-.13-.45-.19-.13-.07-.26-.14-.39-.23-.13-.09-.24-.16-.33-.23-.08-.07-.17-.14-.27-.23-.1-.09-.17-.15-.21-.2-.04-.05-.09-.1-.15-.17-.06-.07-.1-.11-.11-.12Z"/>
    <path d="M61.82,489.75c0-1.32.49-2.52,1.48-3.61s2.11-1.72,3.39-1.9c.2-.02.52-.04.94-.04h5.24l-.38,1.78h-1.99c.28.64.42,1.24.42,1.79,0,1.41-.56,2.69-1.69,3.83-1.13,1.14-2.41,1.72-3.84,1.72-1.05,0-1.91-.34-2.56-1.02-.66-.68-.99-1.53-.99-2.56ZM63.7,489.37c0,.63.19,1.15.57,1.56.38.42.88.62,1.5.62.85,0,1.6-.35,2.26-1.04.66-.69.99-1.47.99-2.34,0-.63-.19-1.15-.58-1.56-.39-.41-.89-.62-1.51-.62-.82,0-1.57.34-2.23,1.02-.67.68-1,1.46-1,2.35Z"/>
  </g>
  <g>
    <path d="M151,496.36l2.57-12.14.02-.02h1.81c-.18.86-.37,1.77-.58,2.74-.2.97-.35,1.67-.44,2.1s-.13.72-.13.88c0,.47.13.85.4,1.16.26.3.61.45,1.03.45.5,0,.95-.18,1.36-.55.41-.37.7-.8.86-1.29.02-.08.05-.21.08-.39.04-.17.06-.28.07-.33l1.02-4.76h1.09l.74.02-1.29,6.12c-.08.3-.12.53-.12.69,0,.46.18.68.55.68.17,0,.36-.07.56-.22.21-.15.33-.39.38-.75h1.27c-.06.58-.32,1.14-.78,1.68-.46.54-1.15.85-2.07.94-.27-.03-.48-.06-.65-.11-.17-.05-.35-.18-.56-.38-.21-.2-.38-.49-.51-.85-.64.84-1.44,1.28-2.4,1.35-.23-.01-.41-.03-.54-.06-.13-.03-.3-.12-.51-.26-.21-.14-.4-.34-.57-.61l-.83,3.94h-1.83Z"/>
    <path d="M169.27,489.4l.3-1.42h5.31l-.29,1.42h-5.32Z"/>
    <path d="M182.18,493.18l.32-1.52,3.04-2.36c.14-.1.42-.3.83-.59.41-.3.7-.51.85-.63.16-.12.4-.32.74-.59.33-.27.58-.49.73-.65.15-.16.34-.37.57-.64.23-.27.39-.51.49-.72.1-.21.2-.46.28-.73.08-.27.13-.55.13-.83,0-.62-.2-1.11-.61-1.47-.4-.36-.91-.54-1.53-.54-.43,0-.83.08-1.2.25-.37.17-.67.41-.93.72-.25.31-.45.57-.58.79-.13.22-.27.48-.41.78l-.78-1.29c.2-.34.4-.63.6-.88.2-.24.48-.53.83-.86.36-.33.79-.59,1.31-.77.51-.18,1.09-.27,1.73-.27,1.08,0,1.93.29,2.56.88.63.58.94,1.36.94,2.33,0,.43-.07.84-.2,1.22-.13.38-.28.7-.45.96s-.44.57-.81.91c-.37.34-.68.61-.93.79-.24.18-.64.47-1.17.85-.54.39-.95.68-1.23.89l-3.15,2.36h6.35l-.34,1.6h-7.99Z"/>
    <path d="M192.82,489.75c0-1.32.49-2.52,1.48-3.61s2.11-1.72,3.39-1.9c.2-.02.52-.04.94-.04h5.24l-.38,1.78h-1.99c.28.64.42,1.24.42,1.79,0,1.41-.56,2.69-1.69,3.83-1.13,1.14-2.41,1.72-3.84,1.72-1.05,0-1.91-.34-2.56-1.02-.66-.68-.99-1.53-.99-2.56ZM194.7,489.37c0,.63.19,1.15.57,1.56.38.42.88.62,1.5.62.85,0,1.6-.35,2.26-1.04.66-.69.99-1.47.99-2.34,0-.63-.19-1.15-.58-1.56-.39-.41-.89-.62-1.51-.62-.82,0-1.57.34-2.23,1.02-.67.68-1,1.46-1,2.35Z"/>
  </g>
  <g>
    <path d="M280.98,496.36l2.57-12.14.02-.02h1.81c-.18.86-.37,1.77-.58,2.74-.2.97-.35,1.67-.44,2.1s-.13.72-.13.88c0,.47.13.85.4,1.16.26.3.61.45,1.03.45.5,0,.95-.18,1.36-.55.41-.37.7-.8.86-1.29.02-.08.05-.21.08-.39.04-.17.06-.28.07-.33l1.02-4.76h1.09l.74.02-1.29,6.12c-.08.3-.12.53-.12.69,0,.46.18.68.55.68.17,0,.36-.07.56-.22.21-.15.33-.39.38-.75h1.27c-.06.58-.32,1.14-.78,1.68-.46.54-1.15.85-2.07.94-.27-.03-.48-.06-.65-.11-.17-.05-.35-.18-.56-.38-.21-.2-.38-.49-.51-.85-.64.84-1.44,1.28-2.4,1.35-.23-.01-.41-.03-.54-.06-.13-.03-.3-.12-.51-.26-.21-.14-.4-.34-.57-.61l-.83,3.94h-1.83Z"/>
    <path d="M299.25,489.4l.3-1.42h5.31l-.29,1.42h-5.32Z"/>
    <path d="M312.83,489.75c0-1.32.49-2.52,1.48-3.61s2.11-1.72,3.39-1.9c.2-.02.52-.04.94-.04h5.24l-.38,1.78h-1.99c.28.64.42,1.24.42,1.79,0,1.41-.56,2.69-1.69,3.83-1.13,1.14-2.41,1.72-3.84,1.72-1.05,0-1.91-.34-2.56-1.02-.66-.68-.99-1.53-.99-2.56ZM314.72,489.37c0,.63.19,1.15.57,1.56.38.42.88.62,1.5.62.85,0,1.6-.35,2.26-1.04.66-.69.99-1.47.99-2.34,0-.63-.19-1.15-.58-1.56-.39-.41-.89-.62-1.51-.62-.82,0-1.57.34-2.23,1.02-.67.68-1,1.46-1,2.35Z"/>
  </g>
  <g>
    <rect x="553.75" y="117" width="1.5" height="3.5"/>
    <path d="M555.25,446.42h-1.5v-7.08h1.5v7.08ZM555.25,432.25h-1.5v-7.09h1.5v7.09ZM555.25,418.07h-1.5v-7.08h1.5v7.08ZM555.25,403.9h-1.5v-7.08h1.5v7.08ZM555.25,389.73h-1.5v-7.09h1.5v7.09ZM555.25,375.56h-1.5v-7.08h1.5v7.08ZM555.25,361.39h-1.5v-7.08h1.5v7.08ZM555.25,347.22h-1.5v-7.08h1.5v7.08ZM555.25,333.05h-1.5v-7.09h1.5v7.09ZM555.25,318.88h-1.5v-7.08h1.5v7.08ZM555.25,304.71h-1.5v-7.09h1.5v7.09ZM555.25,290.54h-1.5v-7.08h1.5v7.08ZM555.25,276.37h-1.5v-7.08h1.5v7.08ZM555.25,262.2h-1.5v-7.09h1.5v7.09ZM555.25,248.03h-1.5v-7.08h1.5v7.08ZM555.25,233.86h-1.5v-7.08h1.5v7.08ZM555.25,219.69h-1.5v-7.08h1.5v7.08ZM555.25,205.52h-1.5v-7.08h1.5v7.08ZM555.25,191.35h-1.5v-7.09h1.5v7.09ZM555.25,177.18h-1.5v-7.08h1.5v7.08ZM555.25,163.01h-1.5v-7.08h1.5v7.08ZM555.25,148.84h-1.5v-7.08h1.5v7.08ZM555.25,134.67h-1.5v-7.08h1.5v7.08Z"/>
    <rect x="553.75" y="453.5" width="1.5" height="3.5"/>
  </g>
</svg>