<?xml version="1.0" encoding="UTF-8" standalone="no"?>
<!DOCTYPE svg PUBLIC "-//W3C//DTD SVG 1.1//EN" "http://www.w3.org/Graphics/SVG/1.1/DTD/svg11.dtd">
<svg width="100%" height="100%" viewBox="0 0 1024 768" version="1.1" xmlns="http://www.w3.org/2000/svg" xmlns:xlink="http://www.w3.org/1999/xlink" xml:space="preserve" xmlns:serif="http://www.serif.com/" style="fill-rule:evenodd;clip-rule:evenodd;stroke-linecap:round;stroke-linejoin:round;stroke-miterlimit:1.5;">
    <g transform="matrix(0.999213,0,0,1.00781,0.278596,-3.00118)">
        <rect x="1.04" y="2.692" width="1023.38" height="763.187" style="fill:rgb(252,243,217);"/>
    </g>
    <g transform="matrix(0.77588,0,0,0.77588,-115.236,139.941)">
        <g transform="matrix(39,0,0,39,697.04,416.801)">
        </g>
        <text x="664.534px" y="416.801px" style="font-family:'CMUSansSerif', 'CMU Sans Serif';font-weight:500;font-size:39px;fill:rgb(212,42,32);">...</text>
    </g>
    <g transform="matrix(0.6902,0,0,0.6902,-89.2731,161.047)">
        <path d="M568.813,301.371C623.253,301.371 667.453,345.57 667.453,400.011C667.453,454.452 623.253,498.651 568.813,498.651C514.372,498.651 470.172,454.452 470.172,400.011C470.172,345.57 514.372,301.371 568.813,301.371ZM568.813,305.868C516.853,305.868 474.669,348.052 474.669,400.011C474.669,451.97 516.853,494.155 568.813,494.155C620.772,494.155 662.956,451.97 662.956,400.011C662.956,348.052 620.772,305.868 568.813,305.868Z" style="fill:rgb(14,99,142);"/>
    </g>
    <g transform="matrix(1.45792,0,0,1.45792,-491.996,-191.285)">
        <path d="M568.813,302.555C622.6,302.555 666.269,346.224 666.269,400.011C666.269,453.799 622.6,497.467 568.813,497.467C515.025,497.467 471.356,453.799 471.356,400.011C471.356,346.224 515.025,302.555 568.813,302.555ZM568.813,304.684C516.2,304.684 473.485,347.398 473.485,400.011C473.485,452.624 516.2,495.339 568.813,495.339C621.425,495.339 664.14,452.624 664.14,400.011C664.14,347.398 621.425,304.684 568.813,304.684Z" style="fill:rgb(212,42,32);"/>
    </g>
    <g transform="matrix(2.26155,0,0,2.26155,-917.43,-565.22)">
        <path d="M568.813,302.933C622.391,302.933 665.891,346.432 665.891,400.011C665.891,453.59 622.391,497.089 568.813,497.089C515.234,497.089 471.734,453.59 471.734,400.011C471.734,346.432 515.234,302.933 568.813,302.933ZM568.813,304.305C515.991,304.305 473.107,347.19 473.107,400.011C473.107,452.833 515.991,495.717 568.813,495.717C621.634,495.717 664.518,452.833 664.518,400.011C664.518,347.19 621.634,304.305 568.813,304.305Z" style="fill:rgb(250,194,43);"/>
    </g>
    <g transform="matrix(3.34411,0,0,2.7633,-1440.62,-766.523)">
        <path d="M568.813,303.058C622.291,303.058 665.668,346.533 665.668,400.011C665.668,453.489 622.291,496.965 568.813,496.965C515.334,496.965 471.957,453.489 471.957,400.011C471.957,346.533 515.334,303.058 568.813,303.058ZM568.813,304.181C515.89,304.181 472.885,347.089 472.885,400.011C472.885,452.933 515.89,495.841 568.813,495.841C621.735,495.841 664.74,452.933 664.74,400.011C664.74,347.089 621.735,304.181 568.813,304.181Z" style="fill:rgb(2,8,11);"/>
    </g>
    <g transform="matrix(3.9936,0,0,3.00421,-1766.83,-862.89)">
        <path d="M568.813,303.103C622.253,303.103 665.593,346.571 665.593,400.011C665.593,453.451 622.253,496.92 568.813,496.92C515.372,496.92 472.032,453.451 472.032,400.011C472.032,346.571 515.372,303.103 568.813,303.103ZM568.813,304.136C515.852,304.136 472.809,347.051 472.809,400.011C472.809,452.971 515.852,495.886 568.813,495.886C621.773,495.886 664.816,452.971 664.816,400.011C664.816,347.051 621.773,304.136 568.813,304.136Z" style="fill:rgb(203,39,170);"/>
    </g>
    <g transform="matrix(0.77588,0,0,0.77588,-115.236,139.941)">
        <g transform="matrix(39,0,0,39,528.294,346.219)">
        </g>
        <text x="508.794px" y="346.219px" style="font-family:'CMUSansSerif-Oblique', 'CMU Sans Serif';font-weight:500;font-style:italic;font-size:39px;fill:rgb(14,99,142);">0</text>
    </g>
    <g transform="matrix(0.77588,0,0,0.77588,-132.393,96.8012)">
        <g transform="matrix(39,0,0,39,536.387,346.219)">
        </g>
        <text x="508.794px" y="346.219px" style="font-family:'CMUSansSerif', 'CMU Sans Serif';font-weight:500;font-size:39px;fill:rgb(14,99,142);">N</text>
    </g>
    <g transform="matrix(0.77588,0,0,0.77588,-79.5799,-33.5087)">
        <g transform="matrix(39,0,0,39,532.616,346.219)">
        </g>
        <text x="508.794px" y="346.219px" style="font-family:'CMUSansSerif', 'CMU Sans Serif';font-weight:500;font-size:39px;fill:rgb(212,42,32);">Z</text>
    </g>
    <g transform="matrix(0.77588,0,0,0.77588,54.5769,-140.664)">
        <g transform="matrix(39,0,0,39,537.491,346.219)">
        </g>
        <text x="508.794px" y="346.219px" style="font-family:'CMUSansSerif', 'CMU Sans Serif';font-weight:500;font-size:39px;fill:rgb(250,194,43);">Q</text>
    </g>
    <g transform="matrix(0.77588,0,0,0.77588,242.56,-162.527)">
        <g transform="matrix(39,0,0,39,533.987,346.219)">
        </g>
        <text x="508.794px" y="346.219px" style="font-family:'CMUSansSerif', 'CMU Sans Serif';font-weight:500;font-size:39px;fill:rgb(2,8,11);">R</text>
    </g>
    <g transform="matrix(0.77588,0,0,0.77588,361.375,-168.809)">
        <g transform="matrix(39,0,0,39,533.702,346.219)">
        </g>
        <text x="508.794px" y="346.219px" style="font-family:'CMUSansSerif', 'CMU Sans Serif';font-weight:500;font-size:39px;fill:rgb(203,39,170);">C</text>
    </g>
    <g transform="matrix(0.77588,0,0,0.77588,365.062,-83.9513)">
        <g transform="matrix(39,0,0,39,520.715,346.219)">
        </g>
        <text x="508.794px" y="346.219px" style="font-family:'CMUSerif-Italic', 'CMU Serif';font-weight:500;font-style:italic;font-size:39px;fill:rgb(203,39,170);">i</text>
    </g>
    <g transform="matrix(0.77588,0,0,0.77588,397.067,51.5589)">
        <g transform="matrix(39,0,0,39,613.378,346.219)">
        </g>
        <text x="508.794px" y="346.219px" style="font-family:'CMUSansSerif-Oblique', 'CMU Sans Serif';font-weight:500;font-style:italic;font-size:39px;fill:rgb(203,39,170);">3 + 2i</text>
    </g>
    <g transform="matrix(0.77588,0,0,0.77588,398.037,-15.8773)">
        <g transform="matrix(39,0,0,39,537.606,346.219)">
        </g>
        <text x="508.794px" y="346.219px" style="font-family:'CMUSansSerif-Oblique', 'CMU Sans Serif';font-weight:500;font-style:italic;font-size:39px;fill:rgb(203,39,170);">4i</text>
    </g>
    <g transform="matrix(0.77588,0,0,0.77588,418.115,124.019)">
        <g transform="matrix(39,0,0,39,541.3,346.219)">
        </g>
        <text x="508.794px" y="346.219px" style="font-family:'CMUSansSerif-Oblique', 'CMU Sans Serif';font-weight:500;font-style:italic;font-size:39px;fill:rgb(203,39,170);">...</text>
    </g>
    <g transform="matrix(0.77588,0,0,0.77588,227.766,69.4641)">
        <g transform="matrix(39,0,0,39,656.072,346.219)">
        </g>
        <text x="508.794px" y="346.219px" style="font-family:'CMUSansSerif-Oblique', 'CMU Sans Serif';font-weight:500;font-style:italic;font-size:39px;fill:rgb(231,118,37);">Irrational</text>
    </g>
    <g transform="matrix(0.77588,0,0,0.77588,231.529,141.671)">
        <g transform="matrix(39,0,0,39,546.689,346.219)">
        </g>
        <text x="508.794px" y="346.219px" style="font-family:'CMUSansSerif-Oblique', 'CMU Sans Serif';font-weight:500;font-style:italic;font-size:39px;fill:rgb(231,118,37);">√2</text>
    </g>
    <g transform="matrix(0.77588,0,0,0.77588,262.305,183.056)">
        <g transform="matrix(39,0,0,39,526.104,346.219)">
        </g>
        <text x="508.794px" y="346.219px" style="font-family:'CMUSansSerif-Oblique', 'CMU Sans Serif';font-weight:500;font-style:italic;font-size:39px;fill:rgb(231,118,37);">e</text>
    </g>
    <g transform="matrix(0.77588,0,0,0.77588,212.071,225.424)">
        <g transform="matrix(39,0,0,39,546.689,346.219)">
        </g>
        <text x="508.794px" y="346.219px" style="font-family:'CMUSansSerif-Oblique', 'CMU Sans Serif';font-weight:500;font-style:italic;font-size:39px;fill:rgb(231,118,37);">√7</text>
    </g>
    <g transform="matrix(0.77588,0,0,0.77588,169.927,261.966)">
        <g transform="matrix(39,0,0,39,541.3,346.219)">
        </g>
        <text x="508.794px" y="346.219px" style="font-family:'CMUSansSerif-Oblique', 'CMU Sans Serif';font-weight:500;font-style:italic;font-size:39px;fill:rgb(231,118,37);">...</text>
    </g>
    <g transform="matrix(0.77588,0,0,0.77588,-107.886,39.3589)">
        <g transform="matrix(39,0,0,39,541.262,346.219)">
        </g>
        <text x="508.794px" y="346.219px" style="font-family:'CMUSansSerif-Oblique', 'CMU Sans Serif';font-weight:500;font-style:italic;font-size:39px;fill:rgb(212,42,32);">-1</text>
    </g>
    <g transform="matrix(0.77588,0,0,0.77588,73.5542,56.4844)">
        <g transform="matrix(1,0,0,1,-54.8731,-189.656)">
            <g transform="matrix(39,0,0,39,528.294,346.219)">
            </g>
            <text x="508.794px" y="346.219px" style="font-family:'CMUSansSerif-Oblique', 'CMU Sans Serif';font-weight:500;font-style:italic;font-size:39px;fill:rgb(250,194,43);">1</text>
        </g>
        <g transform="matrix(1,0,0,1,-90.4653,-172.934)">
            <g transform="matrix(39,0,0,39,521.762,346.219)">
            </g>
            <text x="508.794px" y="346.219px" style="font-family:'CMUSansSerif-Oblique', 'CMU Sans Serif';font-weight:500;font-style:italic;font-size:39px;fill:rgb(250,194,43);">-</text>
        </g>
        <g transform="matrix(1,0,0,1,-54.9372,-147.061)">
            <g transform="matrix(39,0,0,39,528.294,346.219)">
            </g>
            <text x="508.794px" y="346.219px" style="font-family:'CMUSansSerif-Oblique', 'CMU Sans Serif';font-weight:500;font-style:italic;font-size:39px;fill:rgb(250,194,43);">2</text>
        </g>
        <g transform="matrix(1,0,0,1,-4,0)">
            <path d="M443.08,163.571L495.667,163.571" style="fill:none;stroke:rgb(250,194,43);stroke-width:2.58px;"/>
        </g>
    </g>
    <g transform="matrix(0.77588,0,0,0.77588,-78.9987,57.8309)">
        <g transform="matrix(1,0,0,1,-54.8731,-189.656)">
            <g transform="matrix(39,0,0,39,528.294,346.219)">
            </g>
            <text x="508.794px" y="346.219px" style="font-family:'CMUSansSerif-Oblique', 'CMU Sans Serif';font-weight:500;font-style:italic;font-size:39px;fill:rgb(250,194,43);">1</text>
        </g>
        <g transform="matrix(1,0,0,1,-90.4653,-172.934)">
            <g transform="matrix(39,0,0,39,521.762,346.219)">
            </g>
            <text x="508.794px" y="346.219px" style="font-family:'CMUSansSerif-Oblique', 'CMU Sans Serif';font-weight:500;font-style:italic;font-size:39px;fill:rgb(250,194,43);">-</text>
        </g>
        <g transform="matrix(1,0,0,1,-54.9372,-147.061)">
            <g transform="matrix(39,0,0,39,528.294,346.219)">
            </g>
            <text x="508.794px" y="346.219px" style="font-family:'CMUSansSerif-Oblique', 'CMU Sans Serif';font-weight:500;font-style:italic;font-size:39px;fill:rgb(250,194,43);">8</text>
        </g>
        <g transform="matrix(1,0,0,1,-4,0)">
            <path d="M443.08,163.571L495.667,163.571" style="fill:none;stroke:rgb(250,194,43);stroke-width:2.58px;"/>
        </g>
    </g>
    <g transform="matrix(0.77588,0,0,0.77588,149.891,157.753)">
        <g transform="matrix(1,0,0,1,-55.5284,-189.656)">
            <g transform="matrix(39,0,0,39,528.294,346.219)">
            </g>
            <text x="508.794px" y="346.219px" style="font-family:'CMUSansSerif-Oblique', 'CMU Sans Serif';font-weight:500;font-style:italic;font-size:39px;fill:rgb(250,194,43);">7</text>
        </g>
        <g transform="matrix(1,0,0,1,-54.9372,-147.061)">
            <g transform="matrix(39,0,0,39,528.294,346.219)">
            </g>
            <text x="508.794px" y="346.219px" style="font-family:'CMUSansSerif-Oblique', 'CMU Sans Serif';font-weight:500;font-style:italic;font-size:39px;fill:rgb(250,194,43);">3</text>
        </g>
        <g transform="matrix(1,0,0,1,-4,0)">
            <path d="M443.08,163.571L495.667,163.571" style="fill:none;stroke:rgb(250,194,43);stroke-width:2.58px;"/>
        </g>
    </g>
    <g transform="matrix(0.77588,0,0,0.77588,167.471,253.875)">
        <g transform="matrix(1,0,0,1,-55.5284,-189.656)">
            <g transform="matrix(39,0,0,39,528.294,346.219)">
            </g>
            <text x="508.794px" y="346.219px" style="font-family:'CMUSansSerif-Oblique', 'CMU Sans Serif';font-weight:500;font-style:italic;font-size:39px;fill:rgb(250,194,43);">3</text>
        </g>
        <g transform="matrix(1,0,0,1,-54.9372,-147.061)">
            <g transform="matrix(39,0,0,39,528.294,346.219)">
            </g>
            <text x="508.794px" y="346.219px" style="font-family:'CMUSansSerif-Oblique', 'CMU Sans Serif';font-weight:500;font-style:italic;font-size:39px;fill:rgb(250,194,43);">4</text>
        </g>
        <g transform="matrix(1,0,0,1,-4,0)">
            <path d="M443.08,163.571L495.667,163.571" style="fill:none;stroke:rgb(250,194,43);stroke-width:2.58px;"/>
        </g>
    </g>
    <g transform="matrix(0.77588,0,0,0.77588,-142.51,191.259)">
        <g transform="matrix(39,0,0,39,528.294,346.219)">
        </g>
        <text x="508.794px" y="346.219px" style="font-family:'CMUSansSerif-Oblique', 'CMU Sans Serif';font-weight:500;font-style:italic;font-size:39px;fill:rgb(14,99,142);">2</text>
    </g>
    <g transform="matrix(0.77588,0,0,0.77588,-94.455,209.187)">
        <g transform="matrix(39,0,0,39,528.294,346.219)">
        </g>
        <text x="508.794px" y="346.219px" style="font-family:'CMUSansSerif-Oblique', 'CMU Sans Serif';font-weight:500;font-style:italic;font-size:39px;fill:rgb(14,99,142);">3</text>
    </g>
    <g transform="matrix(0.77588,0,0,0.77588,6.57,154.654)">
        <g transform="matrix(39,0,0,39,541.262,346.219)">
        </g>
        <text x="508.794px" y="346.219px" style="font-family:'CMUSansSerif-Oblique', 'CMU Sans Serif';font-weight:500;font-style:italic;font-size:39px;fill:rgb(212,42,32);">-3</text>
    </g>
    <g transform="matrix(0.77588,0,0,0.77588,-64.1457,173.939)">
        <g transform="matrix(39,0,0,39,528.294,346.219)">
        </g>
        <text x="508.794px" y="346.219px" style="font-family:'CMUSansSerif-Oblique', 'CMU Sans Serif';font-weight:500;font-style:italic;font-size:39px;fill:rgb(14,99,142);">1</text>
    </g>
    <g transform="matrix(0.77588,0,0,0.77588,-18.0172,81.9428)">
        <g transform="matrix(39,0,0,39,541.262,346.219)">
        </g>
        <text x="508.794px" y="346.219px" style="font-family:'CMUSansSerif-Oblique', 'CMU Sans Serif';font-weight:500;font-style:italic;font-size:39px;fill:rgb(212,42,32);">-2</text>
    </g>
    <g transform="matrix(0.77588,0,0,0.77588,113.131,42.1854)">
        <path d="M522.728,633.428C523.168,627.647 525.74,621.574 529.909,615.099C535.901,605.792 545.227,595.568 555.878,583.963C582.081,555.41 616.434,518.35 627.622,465.312C638.164,415.34 682.982,392.954 722.7,395.185C749.365,396.683 773.669,409.291 783.977,431.882C795.801,457.793 794.426,506.373 784.449,537.089C774.494,567.736 750.168,595.347 724.37,616.034C695.998,638.784 647.437,670.503 614.066,673.717C594.464,675.604 564.902,673.036 544.924,663.633C530.967,657.064 521.682,647.146 522.728,633.428ZM526.716,633.732C525.796,645.799 534.35,654.235 546.627,660.014C566,669.131 594.674,671.566 613.682,669.735C646.443,666.58 694.015,635.248 721.867,612.913C747.071,592.703 770.919,565.794 780.644,535.854C790.347,505.983 791.836,458.74 780.338,433.542C770.626,412.257 747.599,400.59 722.475,399.179C684.51,397.046 641.613,418.37 631.536,466.138C620.177,519.982 585.427,557.681 558.825,586.667C548.353,598.077 539.164,608.113 533.272,617.264C529.518,623.095 527.113,628.527 526.716,633.732Z" style="fill:rgb(231,118,37);"/>
    </g>
    <g transform="matrix(1,0,0,1,-100.646,47.3606)">
        <text x="311.789px" y="670.285px" style="font-family:'CMUSansSerif', 'CMU Sans Serif';font-weight:500;font-size:64px;fill:rgb(2,8,11);">N</text>
        <text x="378.352px" y="670.285px" style="font-family:'AppleSDGothicNeo-Medium', 'Apple SD Gothic Neo';font-weight:500;font-size:64px;fill:rgb(2,8,11);">⊆</text>
        <text x="454.993px" y="670.285px" style="font-family:'CMUSansSerif', 'CMU Sans Serif';font-weight:500;font-size:64px;fill:rgb(2,8,11);">Z</text>
        <text x="515.368px" y="670.285px" style="font-family:'AppleSDGothicNeo-Medium', 'Apple SD Gothic Neo';font-weight:500;font-size:64px;fill:rgb(2,8,11);">⊆</text>
        <text x="592.009px" y="670.285px" style="font-family:'CMUSansSerif', 'CMU Sans Serif';font-weight:500;font-size:64px;fill:rgb(2,8,11);">Q</text>
        <text x="660.384px" y="670.285px" style="font-family:'AppleSDGothicNeo-Medium', 'Apple SD Gothic Neo';font-weight:500;font-size:64px;fill:rgb(2,8,11);">⊆</text>
        <text x="737.025px" y="670.285px" style="font-family:'CMUSansSerif', 'CMU Sans Serif';font-weight:500;font-size:64px;fill:rgb(2,8,11);">R</text>
        <text x="799.65px" y="670.285px" style="font-family:'AppleSDGothicNeo-Medium', 'Apple SD Gothic Neo';font-weight:500;font-size:64px;fill:rgb(2,8,11);">⊆</text>
        <g transform="matrix(64,0,0,64,917.167,670.285)">
        </g>
        <text x="876.292px" y="670.285px" style="font-family:'CMUSansSerif', 'CMU Sans Serif';font-weight:500;font-size:64px;fill:rgb(2,8,11);">C</text>
    </g>
</svg>
