<?xml version="1.0" encoding="UTF-8"?>
<svg id="Ebene_1" data-name="Ebene 1" xmlns="http://www.w3.org/2000/svg" viewBox="0 0 794 442">
  <rect width="794" height="442" fill="#f9f2db"/>
  <g>
    <path d="M422.33,235.03v-4.67h4.37v-3.3c0-1.91.24-3.52.72-4.81s1.48-2.55,2.99-3.77c2.04-1.71,4.6-2.56,7.67-2.56,1.51,0,3.24.17,5.19.51v5.24c-2.04-.72-3.81-1.08-5.31-1.08-1.43,0-2.7.3-3.82.91-1.12.61-1.68,1.63-1.68,3.07v5.79h6.84v4.67h-6.71v24.85h-5.89v-24.85h-4.37Z"/>
    <path d="M445.5,243.38c0-13.34,4.07-23.47,12.21-30.39h4.76c-.96.96-1.75,1.79-2.38,2.5-.63.71-1.55,2-2.76,3.88-1.21,1.87-2.18,3.81-2.9,5.81s-1.39,4.61-2,7.81c-.61,3.2-.92,6.66-.92,10.38s.31,7.17.92,10.38c.61,3.21,1.28,5.81,2,7.81.72,2,1.69,3.94,2.9,5.81,1.21,1.87,2.13,3.16,2.76,3.88.63.71,1.42,1.55,2.38,2.5h-4.76c-8.14-6.92-12.21-17.05-12.21-30.39Z"/>
    <path d="M466.1,259.88l11.57-15.26v-.06l-11.2-14.19h6.44l7.33,9.77,6.99-9.77h6.38l-10.8,14.19v.06l11.93,15.26h-6.44l-8.06-11.69h-.06l-7.69,11.69h-6.38Z"/>
    <path d="M498.33,273.76c1-1,1.79-1.83,2.37-2.5s1.49-1.96,2.72-3.88c1.23-1.91,2.21-3.85,2.95-5.81.73-1.96,1.4-4.56,2-7.78.6-3.23.9-6.7.9-10.42s-.28-7.02-.84-10.18-1.21-5.74-1.94-7.72-1.66-3.88-2.78-5.69-2.01-3.1-2.69-3.88c-.67-.77-1.42-1.6-2.26-2.47-.2-.2-.35-.35-.43-.43h4.67c8.16,6.96,12.24,17.09,12.25,30.39,0,13.3-4.08,23.43-12.25,30.39h-4.67Z"/>
    <path d="M544.61,237.32c0-1.59,1.04-2.38,3.11-2.38h26.71c1.99,0,2.99.79,2.99,2.38,0,.33-.05.64-.15.93s-.38.6-.84.9c-.46.31-1.08.46-1.88.46h-27.13c-.75,0-1.36-.16-1.82-.49-.46-.33-.74-.64-.84-.93-.1-.29-.15-.58-.15-.87ZM544.61,249.48c0-.5.18-.97.53-1.42.36-.45.84-.73,1.45-.85.33-.04.82-.06,1.5-.06h26.46c1.87,0,2.81.78,2.81,2.33s-.98,2.33-2.93,2.33h-26.95c-1.12-.04-1.88-.3-2.27-.79-.4-.49-.6-1-.6-1.54Z"/>
    <path d="M602.75,230.36h5.98c4.17,10.93,6.57,17.58,7.2,19.96.28,1.24.51,2.42.67,3.54.16-2.38,2.21-9.27,6.13-20.66.47-1.24.8-2.19,1.01-2.84h5.8l-10.87,30.77c-1.04,2.91-2.31,5.25-3.82,7.02-1.51,1.77-3.61,2.66-6.32,2.66-.96,0-2.51-.14-4.67-.43l-.52-5.19c2.12.63,3.87.95,5.25.95.37,0,.71-.03,1.02-.09.31-.06.6-.14.85-.23.25-.09.5-.24.75-.44.24-.2.44-.37.59-.49s.33-.35.53-.69c.2-.34.35-.58.43-.72.08-.14.21-.42.38-.84s.29-.7.35-.85c.06-.15.17-.48.34-.98.16-.5.26-.81.3-.93l-11.42-29.52Z"/>
  </g>
  <g>
    <path d="M448.31,133.93c21.27,37.87,33.99,64.14,30.01,66.89-2.57,1.77-11.66-6.56-11.88-6.25-.2.28,7.13,7.99,11.88,6.25,3.93-1.44,4.89-8.91,5-15.63" fill="#f9f2db"/>
    <path d="M476.8,203.26c-5.3,0-10.89-5.72-11.91-7.04-1.07-1.4-.52-2.5-.23-2.91l.54-.77.94-.15c1.04-.16,1.53.22,3.37,1.64,4.4,3.39,6.44,4.47,7.38,4.75.03-1.42-.71-5.92-7.04-19.39-5.07-10.8-12.95-25.74-23.43-44.39-.59-1.05-.22-2.39.84-2.98,1.05-.59,2.39-.22,2.98.84,19.73,35.12,27.64,52.19,30.09,60.8.43-1.98.76-4.72.82-8.51.02-1.2,1-2.15,2.19-2.15.01,0,.02,0,.04,0,1.21.02,2.17,1.02,2.15,2.22-.17,10.3-2.15,15.9-6.21,17.56-.64.37-1.35.51-2.12.47-.13,0-.25,0-.38,0Z"/>
  </g>
  <g>
    <path d="M371.62,70.64c0,2.16-.26,4.45-.78,6.88-.62,3-1.48,5.07-2.58,6.21-1.35,1.43-3.02,2.15-5,2.15-1.77,0-3.32-.53-4.65-1.6-1.46-1.2-2.46-2.83-3.01-4.88-.39-1.46-.59-3.41-.59-5.86,0-1.2.08-3,.23-5.41.16-2.41.23-4.21.23-5.41,0-.21-.08-.51-.23-.92-.16-.4-.23-.71-.23-.92,0-.65.52-1.19,1.56-1.6.81-.34,1.6-.51,2.38-.51.89,0,1.33.27,1.33.82,0,.29-.13.7-.39,1.25-.26.55-.39.98-.39,1.29,0,1.04-.13,2.62-.39,4.73-.26,2.11-.39,3.7-.39,4.77v4.84c0,1.48.29,2.8.86,3.95.7,1.46,1.73,2.19,3.09,2.19,2.6,0,4.34-2.4,5.2-7.19.39-2.24.59-5.72.59-10.43,0-1.72-.26-3.11-.78-4.18-.16-.31-.23-.56-.23-.74,0-.47.18-.92.53-1.37.35-.44.76-.66,1.23-.66.49,0,1.02.18,1.58.55.56.37.84.78.84,1.25v10.82Z"/>
    <path d="M390.14,84.7c-.39.6-.87.9-1.45.9-.44,0-1.17-.26-2.19-.78v-.47c0-.57.01-1.42.04-2.54.03-1.12.04-1.94.04-2.46,0-5.57-.83-8.36-2.49-8.36-.47,0-1,.36-1.59,1.09-1.84,2.24-2.76,4.94-2.76,8.09,0,.44.08,1.1.25,1.97.17.87.25,1.53.25,1.97,0,.36-.17.66-.51.9-.34.23-.7.35-1.09.35-1.56,0-2.34-.99-2.34-2.97v-8.17c0-.21.03-.51.08-.92s.08-.71.08-.92c0-.31-.05-.77-.14-1.37s-.14-1.04-.14-1.33c0-.42.24-.81.72-1.19.48-.38.92-.57,1.31-.57.57,0,1.16.33,1.76.98l-.12,1.56c.96-1.54,2.15-2.31,3.56-2.31.91,0,1.88.31,2.89.94,1.02.62,1.76,1.33,2.23,2.11,1.07,1.98,1.6,4.58,1.6,7.81v5.67Z"/>
    <path d="M408.42,78.33c0,3.36-.11,5.73-.31,7.11-.13.81-.68,1.21-1.64,1.21-1.46,0-2.11-.73-1.95-2.19-1.3.62-2.66.94-4.06.94s-2.64-.34-3.87-1.02c-1.46-.81-2.19-1.84-2.19-3.09s.83-2.37,2.5-3.44c1.51-.96,2.93-1.45,4.26-1.45h3.32v-.93c.03-2.71-.78-4.07-2.42-4.07-2.06,0-3.09.95-3.09,2.86,0,.64-.37.97-1.09.97-.44,0-.91-.2-1.39-.61-.48-.4-.72-.83-.72-1.27,0-1.46.52-2.66,1.56-3.59,1.04-.94,2.29-1.41,3.75-1.41,4.9,0,7.35,3.32,7.35,9.96ZM404.48,79.74c0-.52-.39-.78-1.17-.78-3.26,0-4.88.77-4.88,2.31,0,.83.72,1.25,2.15,1.25.88,0,1.72-.25,2.5-.74.94-.55,1.41-1.22,1.41-2.03Z"/>
    <path d="M425.85,76.11c0,2.34-.4,4.34-1.21,5.98-1.04,2.11-2.62,3.16-4.73,3.16-.68,0-1.75-.25-3.2-.74.03.18.04.35.04.51,0,.86-.48,1.29-1.45,1.29-.7,0-1.28-.26-1.72-.78-.21-.23-.38-1.04-.51-2.42-.13-1.15-.2-2.04-.2-2.7v-.16l.59-22.07c.42-.65.91-.92,1.48-.82.13-.05.26-.08.39-.08.47,0,.9.28,1.31.84.4.56.61,1.09.61,1.58,0,1.12-.1,2.62-.31,4.49-.26,2.16-.4,3.65-.43,4.45.76-.91,1.73-1.37,2.93-1.37,1.43,0,2.72.51,3.87,1.54,1.15,1.03,1.89,2.27,2.23,3.73.21.89.31,2.07.31,3.56ZM422.21,75.83c0-3.54-.74-5.31-2.21-5.31-1.24,0-2.19.9-2.83,2.7-.49,1.35-.74,2.8-.74,4.34,0,3.28.98,4.92,2.95,4.92s2.83-2.21,2.83-6.64Z"/>
    <path d="M443.27,85.6c-.5.49-1.15.74-1.96.74-.55,0-1.11-.34-1.68-1.02v-5.31c0-5.78-.83-8.67-2.5-8.67s-2.58,2.33-2.58,6.99v2.27c0,.39.06.98.2,1.78.13.79.2,1.39.2,1.78,0,.34-.2.64-.61.92-.4.27-.78.41-1.11.41-.65,0-1.21-.27-1.66-.8-.46-.53-.68-1.13-.68-1.78l.16-22.61v-.59c0-.94.52-1.41,1.56-1.41.5,0,1.07.23,1.72.69.65.46.98.92.98,1.39,0,.58-.12,1.43-.37,2.55-.25,1.12-.37,1.97-.37,2.55,0,.73.03,1.9.08,3.49.57-.34,1.05-.51,1.45-.51,1.02,0,2.12.25,3.32.74,1.54.65,2.6,1.71,3.2,3.16.44,1.09.67,2.6.67,4.53v8.71Z"/>
    <path d="M461.05,78.33c0,3.36-.1,5.73-.31,7.11-.13.81-.68,1.21-1.64,1.21-1.46,0-2.11-.73-1.95-2.19-1.3.62-2.66.94-4.06.94s-2.64-.34-3.87-1.02c-1.46-.81-2.19-1.84-2.19-3.09s.83-2.37,2.5-3.44c1.51-.96,2.93-1.45,4.26-1.45h3.32v-.93c.03-2.71-.78-4.07-2.42-4.07-2.06,0-3.09.95-3.09,2.86,0,.64-.37.97-1.09.97-.44,0-.91-.2-1.39-.61-.48-.4-.72-.83-.72-1.27,0-1.46.52-2.66,1.56-3.59,1.04-.94,2.29-1.41,3.75-1.41,4.9,0,7.35,3.32,7.35,9.96ZM453.2,65.91c0,.42-.18.76-.55,1.04s-.78.41-1.22.41-.86-.14-1.22-.41-.55-.62-.55-1.04c0-.44.18-.8.55-1.07s.78-.41,1.22-.41.86.14,1.22.41.55.63.55,1.07ZM457.1,79.74c0-.52-.39-.78-1.17-.78-3.26,0-4.88.77-4.88,2.31,0,.83.72,1.25,2.15,1.25.89,0,1.72-.25,2.5-.74.94-.55,1.41-1.22,1.41-2.03ZM458.43,65.91c0,.42-.18.76-.55,1.04s-.78.41-1.22.41-.86-.14-1.22-.41-.55-.62-.55-1.04c0-.44.18-.8.55-1.07s.78-.41,1.22-.41.86.14,1.22.41.55.63.55,1.07Z"/>
    <path d="M479.26,84.7c-.39.6-.87.9-1.45.9-.44,0-1.17-.26-2.19-.78v-.47c0-.57.01-1.42.04-2.54.03-1.12.04-1.94.04-2.46,0-5.57-.83-8.36-2.49-8.36-.47,0-1,.36-1.59,1.09-1.84,2.24-2.76,4.94-2.76,8.09,0,.44.08,1.1.25,1.97.17.87.25,1.53.25,1.97,0,.36-.17.66-.51.9-.34.23-.7.35-1.09.35-1.56,0-2.34-.99-2.34-2.97v-8.17c0-.21.03-.51.08-.92.05-.4.08-.71.08-.92,0-.31-.05-.77-.14-1.37-.09-.6-.14-1.04-.14-1.33,0-.42.24-.81.72-1.19.48-.38.92-.57,1.31-.57.57,0,1.16.33,1.76.98l-.12,1.56c.96-1.54,2.15-2.31,3.56-2.31.91,0,1.88.31,2.89.94s1.76,1.33,2.23,2.11c1.07,1.98,1.6,4.58,1.6,7.81v5.67Z"/>
    <path d="M496.99,73.37c-.05.65-.22,1.8-.51,3.44-.26,1.43-.39,2.58-.39,3.44,0,.78.04,1.95.12,3.52.08,1.56.12,2.73.12,3.52,0,1.61-.16,2.81-.47,3.59-.37.99-1.06,1.79-2.07,2.4-1.02.61-2.07.92-3.16.92s-2.57-.31-4.26-.94c-2.03-.73-3.05-1.54-3.05-2.42,0-1.15.53-1.72,1.6-1.72.5,0,.83.14,1.02.43.34.52.57.83.68.94.12.1.54.23,1.27.37.73.14,1.24.21,1.52.21,2.34,0,3.52-1.47,3.52-4.41,0-.86-.04-1.59-.12-2.19-1.12.96-2.46,1.45-4.02,1.45-.65,0-1.38-.18-2.19-.55-.81-.36-1.42-.79-1.84-1.29-.81-.94-1.21-2.33-1.21-4.18,0-2.21.51-4.65,1.52-7.31,1.25-3.26,2.77-4.88,4.57-4.88,1.09,0,2.14.51,3.13,1.52.73.96,1.46,1.91,2.19,2.85.21.26.53.5.98.7.55.26.9.46,1.05.59ZM493.05,75.72c0-.39-.18-.72-.55-.98-.16-2.4-.99-3.59-2.5-3.59-.86,0-1.58,1.21-2.15,3.63-.42,1.85-.62,3.45-.62,4.81,0,2.55.66,3.83,1.99,3.83,1.25,0,2.24-1.02,2.97-3.05.57-1.56.86-3.11.86-4.65Z"/>
    <path d="M506.1,69.93c0,.47-.1,1.13-.31,1.99-.21.86-.31,1.52-.31,1.99v8.05c0,.5.16,1.28.47,2.34-.39.6-.83.9-1.3.9-1.66,0-2.57-.82-2.72-2.46-.26-3.05-.39-5.34-.39-6.88,0-2.58.1-4.74.31-6.49v-.39c0-.47.36-.7,1.08-.7.65,0,1.29.13,1.94.39.83.29,1.24.7,1.24,1.25ZM506.45,64.46c0,.57-.2,1.04-.59,1.41s-.87.55-1.45.55c-.68,0-1.31-.23-1.9-.7s-.88-1.04-.88-1.72c0-.57.2-1.04.61-1.41.4-.36.91-.55,1.5-.55.7,0,1.33.23,1.88.68.55.46.82,1.04.82,1.74Z"/>
    <path d="M522.7,73.37c-.05.65-.22,1.8-.51,3.44-.26,1.43-.39,2.58-.39,3.44,0,.78.04,1.95.12,3.52.08,1.56.12,2.73.12,3.52,0,1.61-.16,2.81-.47,3.59-.37.99-1.06,1.79-2.07,2.4-1.02.61-2.07.92-3.16.92s-2.57-.31-4.26-.94c-2.03-.73-3.05-1.54-3.05-2.42,0-1.15.53-1.72,1.6-1.72.5,0,.83.14,1.02.43.34.52.57.83.68.94.12.1.54.23,1.27.37.73.14,1.24.21,1.52.21,2.34,0,3.52-1.47,3.52-4.41,0-.86-.04-1.59-.12-2.19-1.12.96-2.46,1.45-4.02,1.45-.65,0-1.38-.18-2.19-.55-.81-.36-1.42-.79-1.84-1.29-.81-.94-1.21-2.33-1.21-4.18,0-2.21.51-4.65,1.52-7.31,1.25-3.26,2.77-4.88,4.57-4.88,1.09,0,2.14.51,3.13,1.52.73.96,1.46,1.91,2.19,2.85.21.26.53.5.98.7.55.26.9.46,1.05.59ZM518.75,75.72c0-.39-.18-.72-.55-.98-.16-2.4-.99-3.59-2.5-3.59-.86,0-1.58,1.21-2.15,3.63-.42,1.85-.62,3.45-.62,4.81,0,2.55.66,3.83,1.99,3.83,1.25,0,2.24-1.02,2.97-3.05.57-1.56.86-3.11.86-4.65Z"/>
    <path d="M539.3,81.54c0,1.3-.89,2.32-2.66,3.05-1.38.57-2.83.86-4.34.86-4.01,0-6.02-2.28-6.02-6.84,0-1.88.46-3.96,1.37-6.25,1.12-2.81,2.47-4.22,4.06-4.22,1.43,0,2.98.64,4.63,1.91,1.65,1.28,2.48,2.6,2.48,3.99,0,1.72-.77,3.09-2.3,4.1-1.35.91-2.97,1.37-4.84,1.37-.37,0-.95-.22-1.76-.66.1,2.47.83,3.71,2.19,3.71,1.15,0,2.27-.33,3.38-.98,1.11-.65,1.82-.98,2.13-.98,1.12,0,1.68.31,1.68.94ZM535.05,74.15c0-.65-.19-1.27-.57-1.86-.38-.59-.88-.88-1.5-.88-.86,0-1.52.38-1.99,1.13-.39.65-.59,1.42-.59,2.31,0,.5.17.9.51,1.21.34.31.77.47,1.29.47,1.9,0,2.85-.79,2.85-2.38Z"/>
    <path d="M373.53,97.87c0,2.14-.34,5-1.02,8.6-.5,2.53-1.42,5.63-2.77,9.3-1.8,4.79-3.35,7.19-4.65,7.19s-2.32-.2-3.05-.59c-1.59-.86-2.97-4.22-4.14-10.08-.65-3.96-1.32-7.92-1.99-11.88-.05-.29-.17-.69-.35-1.21-.13-.13-.25-.27-.37-.43s-.18-.35-.18-.59c0-.52.33-.99.98-1.41.57-.39,1.15-.59,1.72-.59.65,0,1.24.24,1.76.72.52.48.78,1.05.78,1.7,0,.47-.03,1.19-.1,2.15-.06.96-.1,1.68-.1,2.15,0,2.14.33,4.7.98,7.7,1.2,5.57,2.17,8.36,2.93,8.36.49,0,.98-.4,1.45-1.21,1.22-2.06,2.33-5.18,3.32-9.38.96-4.01,1.45-7.32,1.45-9.92,0-.6-.19-1.05-.57-1.35-.38-.3-.57-.47-.57-.53,0-.29.33-.66.98-1.13.65-.47,1.13-.7,1.45-.7.55,0,1.03.37,1.45,1.11.42.74.62,1.41.62,2.01Z"/>
    <path d="M390.92,115.84c0,3.36-.1,5.73-.31,7.11-.13.81-.68,1.21-1.64,1.21-1.46,0-2.11-.73-1.95-2.19-1.3.62-2.66.94-4.06.94s-2.64-.34-3.87-1.02c-1.46-.81-2.19-1.84-2.19-3.09s.83-2.37,2.5-3.44c1.51-.96,2.93-1.45,4.26-1.45h3.32v-.93c.03-2.71-.78-4.07-2.42-4.07-2.06,0-3.09.95-3.09,2.86,0,.64-.37.97-1.09.97-.44,0-.91-.2-1.39-.61-.48-.4-.72-.83-.72-1.27,0-1.46.52-2.66,1.56-3.59,1.04-.94,2.29-1.41,3.75-1.41,4.9,0,7.35,3.32,7.35,9.96ZM386.98,117.25c0-.52-.39-.78-1.17-.78-3.26,0-4.88.77-4.88,2.31,0,.83.72,1.25,2.15,1.25.89,0,1.72-.25,2.5-.74.94-.55,1.41-1.22,1.41-2.03Z"/>
    <path d="M405.81,109.04c0,.18-.03.47-.08.86-.55.78-1.12,1.17-1.72,1.17-.5,0-.94-.29-1.33-.86-.05-1.17-.47-1.76-1.25-1.76-.47,0-1.04,1.24-1.72,3.71-.31,1.09-.47,2.62-.47,4.57,0,1.85.08,2.97.25,3.36.19.5.29.83.29,1.02,0,.44-.2.8-.6,1.07s-.84.41-1.33.41c-1.39,0-2.09-.65-2.09-1.95,0-.13.03-.31.1-.55s.1-.4.1-.51c0-1.33-.06-3.3-.2-5.92s-.2-4.58-.2-5.88c0-1.17.7-1.76,2.11-1.76.83,0,1.41.25,1.72.74.73-.81,1.55-1.21,2.46-1.21.62,0,1.22.17,1.8.51.39.21.85.66,1.37,1.35.52.69.78,1.23.78,1.62Z"/>
    <path d="M414.01,107.44c0,.47-.1,1.13-.31,1.99s-.31,1.52-.31,1.99v8.05c0,.5.16,1.28.47,2.34-.39.6-.83.9-1.3.9-1.66,0-2.56-.82-2.72-2.46-.26-3.05-.39-5.34-.39-6.88,0-2.58.1-4.74.31-6.49v-.39c0-.47.36-.7,1.08-.7.64,0,1.29.13,1.94.39.83.29,1.24.7,1.24,1.25ZM414.36,101.97c0,.57-.2,1.04-.59,1.41s-.87.55-1.45.55c-.68,0-1.31-.23-1.89-.7s-.88-1.04-.88-1.72c0-.57.2-1.04.61-1.41.4-.36.9-.55,1.5-.55.7,0,1.33.23,1.88.68.55.46.82,1.04.82,1.74Z"/>
    <path d="M430.89,115.84c0,3.36-.11,5.73-.31,7.11-.13.81-.68,1.21-1.64,1.21-1.46,0-2.11-.73-1.95-2.19-1.3.62-2.66.94-4.06.94s-2.64-.34-3.87-1.02c-1.46-.81-2.19-1.84-2.19-3.09s.83-2.37,2.5-3.44c1.51-.96,2.93-1.45,4.26-1.45h3.32v-.93c.03-2.71-.78-4.07-2.42-4.07-2.06,0-3.09.95-3.09,2.86,0,.64-.37.97-1.09.97-.44,0-.91-.2-1.39-.61-.48-.4-.72-.83-.72-1.27,0-1.46.52-2.66,1.56-3.59,1.04-.94,2.29-1.41,3.75-1.41,4.9,0,7.35,3.32,7.35,9.96ZM426.94,117.25c0-.52-.39-.78-1.17-.78-3.26,0-4.88.77-4.88,2.31,0,.83.71,1.25,2.15,1.25.88,0,1.72-.25,2.5-.74.94-.55,1.41-1.22,1.41-2.03Z"/>
    <path d="M448.31,113.61c0,2.34-.4,4.34-1.21,5.98-1.04,2.11-2.62,3.16-4.73,3.16-.68,0-1.75-.25-3.21-.74.03.18.04.35.04.51,0,.86-.48,1.29-1.45,1.29-.7,0-1.28-.26-1.72-.78-.21-.23-.38-1.04-.51-2.42-.13-1.15-.2-2.04-.2-2.7v-.16l.59-22.07c.42-.65.91-.92,1.48-.82.13-.05.26-.08.39-.08.47,0,.9.28,1.31.84.4.56.61,1.09.61,1.58,0,1.12-.1,2.62-.31,4.49-.26,2.16-.4,3.65-.43,4.45.76-.91,1.73-1.37,2.93-1.37,1.43,0,2.72.51,3.87,1.54,1.15,1.03,1.89,2.27,2.23,3.73.21.89.31,2.07.31,3.56ZM444.68,113.34c0-3.54-.74-5.31-2.21-5.31-1.24,0-2.19.9-2.83,2.7-.49,1.35-.74,2.8-.74,4.34,0,3.28.98,4.92,2.95,4.92s2.83-2.21,2.83-6.64Z"/>
    <path d="M457.61,121.43c0,.47-.19.87-.57,1.19-.38.33-.81.49-1.31.49-1.64,0-2.46-2.15-2.46-6.45,0-1.95.02-4.88.06-8.79.04-3.91.06-6.84.06-8.79,0-.31-.04-.77-.12-1.37s-.12-1.04-.12-1.33c.86-.57,1.54-.86,2.03-.86.57,0,1.12.19,1.64.57.52.38.78.85.78,1.43,0,.29-.07.62-.2,1.02-.18.62-.29.96-.31,1.02-.34,1.62-.51,3.91-.51,6.88v7.27c.08,3.28.35,5.57.82,6.88.13.37.2.65.2.86Z"/>
    <path d="M473.83,119.04c0,1.3-.89,2.32-2.66,3.05-1.38.57-2.83.86-4.34.86-4.01,0-6.02-2.28-6.02-6.84,0-1.88.46-3.96,1.37-6.25,1.12-2.81,2.47-4.22,4.06-4.22,1.43,0,2.98.64,4.63,1.91,1.65,1.28,2.48,2.6,2.48,3.99,0,1.72-.77,3.09-2.3,4.1-1.35.91-2.97,1.37-4.84,1.37-.37,0-.95-.22-1.76-.66.1,2.47.83,3.71,2.19,3.71,1.15,0,2.27-.33,3.38-.98,1.11-.65,1.82-.98,2.13-.98,1.12,0,1.68.31,1.68.94ZM469.57,111.66c0-.65-.19-1.27-.57-1.86-.38-.59-.88-.88-1.5-.88-.86,0-1.52.38-1.99,1.13-.39.65-.59,1.42-.59,2.31,0,.5.17.9.51,1.21.34.31.77.47,1.29.47,1.9,0,2.85-.79,2.85-2.38Z"/>
  </g>
  <path d="M43.88,313.84c0,.39-.29.75-.86,1.07-.57.33-1.08.49-1.52.49-1.17,0-2.38-.72-3.63-2.15-.89-1.2-1.77-2.41-2.66-3.63-1.17,1.33-2.77,3.97-4.81,7.93-1.85-.39-2.77-1.19-2.77-2.38,0-.86,1.94-3.62,5.82-8.28-.08-.36-.73-1.41-1.95-3.13-1.09-1.56-1.89-2.62-2.38-3.16.47-1.22,1.3-1.84,2.5-1.84.89,0,1.71.68,2.46,2.03.52,1.04,1.04,2.08,1.56,3.12,3.18-3.75,5.12-5.63,5.82-5.63.49,0,.92.18,1.29.55.36.37.55.78.55,1.25,0,.44-.99,1.6-2.97,3.46-1.98,1.86-2.97,2.94-2.97,3.22,0,.31.78,1.38,2.34,3.2,1.56,1.82,2.46,2.74,2.7,2.74.26,0,.75-.09,1.48-.27v1.41Z"/>
  <path d="M310.73,299.97c-.23,1.3-.46,2.59-.66,3.87-.26,1.51-.39,2.8-.39,3.87v10.63c0,1.93-.55,3.4-1.66,4.42-1.11,1.02-2.62,1.52-4.55,1.52-1.25,0-2.63-.33-4.14-.98-1.8-.76-2.7-1.67-2.7-2.74,0-.37.15-.67.45-.92.3-.25.63-.37,1-.37.23,0,.79.35,1.68,1.05.89.7,1.9,1.05,3.05,1.05,1.46,0,2.44-.53,2.93-1.6.36-.73.55-1.9.55-3.52,0-.6-.01-1.09-.04-1.48-.86.57-1.82.86-2.89.86-1.95,0-3.46-.7-4.53-2.11-.96-1.28-1.45-2.9-1.45-4.88,0-.21.13-3.49.39-9.85.78-.34,1.41-.51,1.88-.51.52,0,1.29.31,2.31.94-.62,1.56-.94,4.69-.94,9.38,0,3,.75,4.49,2.27,4.49,1.12,0,1.98-.94,2.58-2.81.44-1.35.66-2.76.66-4.22v-4.77s-.04-.4-.12-1.29c1.07-.52,1.86-.78,2.38-.78s1.2.25,1.95.74Z"/>
  <path d="M169.79,37.49c0,.57-.1,1.04-.31,1.41-.13.24-.4.56-.82.98-1.54,1.54-3.06,3.08-4.57,4.62-2.11,2.25-3.35,3.88-3.71,4.9.23.03.46.04.66.04.6,0,1.5-.11,2.7-.33,1.2-.22,2.1-.33,2.7-.33,1.67,0,2.79.68,3.36,2.03l-.66.82h-1.05c-.94-.03-2.29.11-4.06.41-1.77.3-3.09.45-3.95.45s-1.62-.21-2.27-.62c-.78-.47-1.17-1.11-1.17-1.91,0-.96.6-2.24,1.8-3.83.73-.94,1.97-2.33,3.71-4.18,1.67-1.72,2.71-2.88,3.13-3.48l-.2-.04c-1.3,0-2.6.4-3.89,1.19-1.29.79-1.97,1.19-2.05,1.19-.5,0-.91-.19-1.25-.57-.34-.38-.51-.81-.51-1.31,0-.89,1.34-1.73,4.02-2.54,2.27-.65,4.02-.98,5.27-.98,2.08,0,3.13.69,3.13,2.08Z"/>
  <g>
    <path d="M635.07,361.86c0,1.25-.56,1.89-1.68,1.91.13.6.42,1.41.86,2.42-.03.57-.26,1.04-.7,1.41-.44.37-.96.55-1.56.55-.47,0-1.02-.14-1.64-.43-.34-.68-.51-1.48-.51-2.42,0-.23.01-.57.04-1.02.03-.44.04-.77.04-.98,0,.18-.43.27-1.29.27-1.46,0-3.19.07-5.2.2-2.87.16-4.42.38-4.67.66-.25.29-.41,1.68-.49,4.18-.34.49-.77.74-1.29.74-.55,0-1.11-.23-1.68-.68s-.86-.94-.86-1.46c0-.18.23-.91.7-2.19.52-1.85,1.37-4.62,2.54-8.32,3.49-9.56,6.39-14.34,8.71-14.34s4.01,2.53,5.24,7.58c.55,2.27,1.06,5.74,1.52,10.43.68.16,1.11.29,1.29.39.42.24.62.6.62,1.09ZM629.6,360.38c-1.15-9.09-2.17-13.63-3.09-13.63-.73,0-2.01,2.14-3.83,6.41-1.3,3.07-2.33,5.74-3.09,8.01.83-.18,2.07-.4,3.71-.67,1.48-.18,3.58-.22,6.29-.12Z"/>
    <path d="M652.77,359.91c0,2.34-.4,4.34-1.21,5.98-1.04,2.11-2.62,3.17-4.73,3.17-.68,0-1.75-.25-3.2-.74.03.18.04.35.04.51,0,.86-.48,1.29-1.45,1.29-.7,0-1.28-.26-1.72-.78-.21-.23-.38-1.04-.51-2.42-.13-1.15-.2-2.04-.2-2.7v-.16l.59-22.07c.42-.65.91-.92,1.49-.82.13-.05.26-.08.39-.08.47,0,.9.28,1.31.84.4.56.61,1.09.61,1.58,0,1.12-.1,2.62-.31,4.49-.26,2.16-.4,3.65-.43,4.45.75-.91,1.73-1.37,2.93-1.37,1.43,0,2.72.51,3.87,1.54,1.15,1.03,1.89,2.27,2.23,3.73.21.89.31,2.07.31,3.55ZM649.13,359.64c0-3.54-.74-5.31-2.21-5.31-1.24,0-2.19.9-2.83,2.7-.49,1.35-.74,2.8-.74,4.34,0,3.28.98,4.92,2.95,4.92s2.83-2.21,2.83-6.64Z"/>
    <path d="M670.19,369.4c-.5.49-1.15.74-1.95.74-.55,0-1.11-.34-1.68-1.02v-5.31c0-5.78-.83-8.67-2.5-8.67s-2.58,2.33-2.58,6.99v2.27c0,.39.06.98.2,1.78.13.79.2,1.39.2,1.78,0,.34-.2.64-.61.92-.4.27-.78.41-1.11.41-.65,0-1.21-.27-1.66-.8-.46-.54-.68-1.13-.68-1.78l.16-22.62v-.59c0-.94.52-1.41,1.56-1.41.49,0,1.07.23,1.72.69.65.46.98.92.98,1.39,0,.58-.12,1.42-.37,2.55-.25,1.12-.37,1.97-.37,2.55,0,.73.03,1.9.08,3.49.57-.34,1.05-.51,1.45-.51,1.02,0,2.12.25,3.32.74,1.54.65,2.6,1.71,3.2,3.17.44,1.09.67,2.6.67,4.53v8.71Z"/>
    <path d="M687.97,362.14c0,3.36-.1,5.73-.31,7.11-.13.81-.68,1.21-1.64,1.21-1.46,0-2.11-.73-1.95-2.19-1.3.62-2.66.94-4.06.94s-2.64-.34-3.87-1.02c-1.46-.81-2.19-1.84-2.19-3.09s.83-2.37,2.5-3.44c1.51-.96,2.93-1.45,4.26-1.45h3.32v-.93c.03-2.71-.78-4.07-2.42-4.07-2.06,0-3.09.95-3.09,2.86,0,.64-.37.97-1.09.97-.44,0-.91-.2-1.39-.61-.48-.4-.72-.83-.72-1.27,0-1.46.52-2.66,1.56-3.59,1.04-.94,2.29-1.41,3.75-1.41,4.9,0,7.35,3.32,7.35,9.96ZM680.11,349.71c0,.42-.18.76-.55,1.04s-.78.41-1.22.41-.86-.14-1.22-.41-.55-.62-.55-1.04c0-.44.18-.8.55-1.07s.78-.41,1.22-.41.86.14,1.22.41.55.63.55,1.07ZM684.02,363.54c0-.52-.39-.78-1.17-.78-3.26,0-4.88.77-4.88,2.3,0,.83.72,1.25,2.15,1.25.89,0,1.72-.25,2.5-.74.94-.55,1.41-1.22,1.41-2.03ZM685.35,349.71c0,.42-.18.76-.55,1.04s-.78.41-1.22.41-.86-.14-1.22-.41-.55-.62-.55-1.04c0-.44.18-.8.55-1.07s.78-.41,1.22-.41.86.14,1.22.41.55.63.55,1.07Z"/>
    <path d="M706.17,368.5c-.39.6-.87.9-1.45.9-.44,0-1.17-.26-2.19-.78v-.47c0-.57.01-1.42.04-2.54.03-1.12.04-1.94.04-2.46,0-5.57-.83-8.36-2.49-8.36-.47,0-1,.37-1.59,1.09-1.84,2.24-2.76,4.94-2.76,8.09,0,.44.08,1.1.25,1.97.17.87.25,1.53.25,1.97,0,.37-.17.66-.51.9-.34.23-.7.35-1.09.35-1.56,0-2.34-.99-2.34-2.97v-8.17c0-.21.03-.51.08-.92.05-.4.08-.71.08-.92,0-.31-.05-.77-.14-1.37-.09-.6-.14-1.04-.14-1.33,0-.42.24-.81.72-1.19.48-.38.92-.57,1.31-.57.57,0,1.16.33,1.76.98l-.12,1.56c.96-1.54,2.15-2.3,3.56-2.3.91,0,1.88.31,2.89.94s1.76,1.33,2.23,2.11c1.07,1.98,1.6,4.58,1.6,7.81v5.67Z"/>
    <path d="M723.91,357.17c-.05.65-.22,1.8-.51,3.44-.26,1.43-.39,2.58-.39,3.44,0,.78.04,1.95.12,3.52.08,1.56.12,2.73.12,3.52,0,1.62-.16,2.81-.47,3.59-.37.99-1.06,1.79-2.07,2.4-1.02.61-2.07.92-3.16.92s-2.57-.31-4.26-.94c-2.03-.73-3.05-1.54-3.05-2.42,0-1.15.53-1.72,1.6-1.72.5,0,.83.14,1.02.43.34.52.57.83.68.94.12.1.54.23,1.27.37.73.14,1.24.21,1.52.21,2.34,0,3.52-1.47,3.52-4.42,0-.86-.04-1.59-.12-2.19-1.12.96-2.46,1.45-4.02,1.45-.65,0-1.38-.18-2.19-.55-.81-.37-1.42-.79-1.84-1.29-.81-.94-1.21-2.33-1.21-4.18,0-2.21.51-4.65,1.52-7.31,1.25-3.26,2.77-4.88,4.57-4.88,1.09,0,2.14.51,3.13,1.52.73.96,1.46,1.91,2.19,2.85.21.26.53.5.98.7.55.26.9.46,1.05.59ZM719.96,359.52c0-.39-.18-.72-.55-.98-.16-2.4-.99-3.59-2.5-3.59-.86,0-1.58,1.21-2.15,3.63-.42,1.85-.62,3.45-.62,4.81,0,2.55.66,3.83,1.99,3.83,1.25,0,2.24-1.02,2.97-3.05.57-1.56.86-3.11.86-4.65Z"/>
    <path d="M733.01,353.74c0,.47-.1,1.13-.31,1.99-.21.86-.31,1.52-.31,1.99v8.05c0,.5.16,1.28.47,2.34-.39.6-.83.9-1.3.9-1.66,0-2.57-.82-2.72-2.46-.26-3.05-.39-5.34-.39-6.88,0-2.58.1-4.74.31-6.49v-.39c0-.47.36-.7,1.08-.7.65,0,1.29.13,1.94.39.83.29,1.24.7,1.24,1.25ZM733.37,348.27c0,.57-.2,1.04-.59,1.41-.39.37-.87.55-1.45.55-.68,0-1.31-.23-1.9-.7s-.88-1.04-.88-1.72c0-.57.2-1.04.61-1.41.4-.36.91-.55,1.5-.55.7,0,1.33.23,1.88.68s.82,1.04.82,1.74Z"/>
    <path d="M749.62,357.17c-.05.65-.22,1.8-.51,3.44-.26,1.43-.39,2.58-.39,3.44,0,.78.04,1.95.12,3.52.08,1.56.12,2.73.12,3.52,0,1.62-.16,2.81-.47,3.59-.37.99-1.06,1.79-2.07,2.4-1.02.61-2.07.92-3.16.92s-2.57-.31-4.26-.94c-2.03-.73-3.05-1.54-3.05-2.42,0-1.15.53-1.72,1.6-1.72.5,0,.83.14,1.02.43.34.52.57.83.68.94.12.1.54.23,1.27.37.73.14,1.24.21,1.52.21,2.34,0,3.52-1.47,3.52-4.42,0-.86-.04-1.59-.12-2.19-1.12.96-2.46,1.45-4.02,1.45-.65,0-1.38-.18-2.19-.55-.81-.37-1.42-.79-1.84-1.29-.81-.94-1.21-2.33-1.21-4.18,0-2.21.51-4.65,1.52-7.31,1.25-3.26,2.77-4.88,4.57-4.88,1.09,0,2.14.51,3.13,1.52.73.96,1.46,1.91,2.19,2.85.21.26.53.5.98.7.55.26.9.46,1.05.59ZM745.67,359.52c0-.39-.18-.72-.55-.98-.16-2.4-.99-3.59-2.5-3.59-.86,0-1.58,1.21-2.15,3.63-.42,1.85-.62,3.45-.62,4.81,0,2.55.66,3.83,1.99,3.83,1.25,0,2.24-1.02,2.97-3.05.57-1.56.86-3.11.86-4.65Z"/>
    <path d="M766.22,365.34c0,1.3-.89,2.32-2.66,3.05-1.38.57-2.83.86-4.34.86-4.01,0-6.02-2.28-6.02-6.84,0-1.88.46-3.96,1.37-6.25,1.12-2.81,2.47-4.22,4.06-4.22,1.43,0,2.98.64,4.63,1.91,1.65,1.28,2.48,2.61,2.48,3.99,0,1.72-.77,3.09-2.3,4.1-1.35.91-2.97,1.37-4.84,1.37-.37,0-.95-.22-1.76-.66.1,2.47.83,3.71,2.19,3.71,1.15,0,2.27-.33,3.38-.98,1.11-.65,1.82-.98,2.13-.98,1.12,0,1.68.31,1.68.94ZM761.96,357.96c0-.65-.19-1.27-.57-1.86-.38-.59-.88-.88-1.5-.88-.86,0-1.52.38-1.99,1.13-.39.65-.59,1.42-.59,2.3,0,.5.17.9.51,1.21.34.31.77.47,1.29.47,1.9,0,2.85-.79,2.85-2.38Z"/>
    <path d="M632.96,381.67c0,2.14-.34,5-1.02,8.6-.5,2.53-1.42,5.63-2.77,9.3-1.8,4.79-3.35,7.19-4.65,7.19s-2.32-.2-3.05-.59c-1.59-.86-2.97-4.22-4.14-10.08-.65-3.96-1.32-7.92-1.99-11.88-.05-.29-.17-.69-.35-1.21-.13-.13-.25-.27-.37-.43-.12-.16-.18-.35-.18-.59,0-.52.33-.99.98-1.41.57-.39,1.15-.59,1.72-.59.65,0,1.24.24,1.76.72.52.48.78,1.05.78,1.7,0,.47-.03,1.19-.1,2.15-.07.96-.1,1.68-.1,2.15,0,2.14.33,4.7.98,7.7,1.2,5.57,2.17,8.36,2.93,8.36.49,0,.98-.4,1.45-1.21,1.22-2.06,2.33-5.18,3.32-9.38.96-4.01,1.45-7.32,1.45-9.92,0-.6-.19-1.05-.57-1.35-.38-.3-.57-.47-.57-.53,0-.29.33-.66.98-1.13.65-.47,1.13-.7,1.45-.7.55,0,1.03.37,1.45,1.11.42.74.62,1.41.62,2.01Z"/>
    <path d="M650.34,399.64c0,3.36-.1,5.73-.31,7.11-.13.81-.68,1.21-1.64,1.21-1.46,0-2.11-.73-1.95-2.19-1.3.62-2.66.94-4.06.94s-2.64-.34-3.87-1.02c-1.46-.81-2.19-1.84-2.19-3.09s.83-2.37,2.5-3.44c1.51-.96,2.93-1.45,4.26-1.45h3.32v-.93c.03-2.71-.78-4.07-2.42-4.07-2.06,0-3.09.95-3.09,2.86,0,.64-.37.97-1.09.97-.44,0-.91-.2-1.39-.61-.48-.4-.72-.83-.72-1.27,0-1.46.52-2.66,1.56-3.59,1.04-.94,2.29-1.41,3.75-1.41,4.9,0,7.35,3.32,7.35,9.96ZM646.4,401.05c0-.52-.39-.78-1.17-.78-3.26,0-4.88.77-4.88,2.3,0,.83.72,1.25,2.15,1.25.89,0,1.72-.25,2.5-.74.94-.55,1.41-1.22,1.41-2.03Z"/>
    <path d="M665.23,392.84c0,.18-.03.47-.08.86-.55.78-1.12,1.17-1.72,1.17-.5,0-.94-.29-1.33-.86-.05-1.17-.47-1.76-1.25-1.76-.47,0-1.04,1.24-1.72,3.71-.31,1.09-.47,2.62-.47,4.57,0,1.85.08,2.97.25,3.36.19.5.29.83.29,1.02,0,.44-.2.8-.6,1.07-.4.27-.84.41-1.33.41-1.39,0-2.09-.65-2.09-1.95,0-.13.03-.31.1-.55.06-.23.1-.4.1-.51,0-1.33-.07-3.3-.2-5.92-.13-2.62-.2-4.58-.2-5.88,0-1.17.7-1.76,2.11-1.76.83,0,1.41.25,1.72.74.73-.81,1.55-1.21,2.46-1.21.62,0,1.22.17,1.8.51.39.21.85.66,1.37,1.35.52.69.78,1.23.78,1.62Z"/>
    <path d="M673.43,391.24c0,.47-.1,1.13-.31,1.99-.21.86-.31,1.52-.31,1.99v8.05c0,.5.16,1.28.47,2.34-.39.6-.83.9-1.3.9-1.66,0-2.57-.82-2.72-2.46-.26-3.05-.39-5.34-.39-6.88,0-2.58.1-4.74.31-6.49v-.39c0-.47.36-.7,1.08-.7.65,0,1.29.13,1.94.39.83.29,1.24.7,1.24,1.25ZM673.79,385.77c0,.57-.2,1.04-.59,1.41-.39.37-.87.55-1.45.55-.68,0-1.31-.23-1.9-.7s-.88-1.04-.88-1.72c0-.57.2-1.04.61-1.41.4-.36.91-.55,1.5-.55.7,0,1.33.23,1.88.68s.82,1.04.82,1.74Z"/>
    <path d="M690.31,399.64c0,3.36-.1,5.73-.31,7.11-.13.81-.68,1.21-1.64,1.21-1.46,0-2.11-.73-1.95-2.19-1.3.62-2.66.94-4.06.94s-2.64-.34-3.87-1.02c-1.46-.81-2.19-1.84-2.19-3.09s.83-2.37,2.5-3.44c1.51-.96,2.93-1.45,4.26-1.45h3.32v-.93c.03-2.71-.78-4.07-2.42-4.07-2.06,0-3.09.95-3.09,2.86,0,.64-.37.97-1.09.97-.44,0-.91-.2-1.39-.61-.48-.4-.72-.83-.72-1.27,0-1.46.52-2.66,1.56-3.59,1.04-.94,2.29-1.41,3.75-1.41,4.9,0,7.35,3.32,7.35,9.96ZM686.37,401.05c0-.52-.39-.78-1.17-.78-3.26,0-4.88.77-4.88,2.3,0,.83.72,1.25,2.15,1.25.89,0,1.72-.25,2.5-.74.94-.55,1.41-1.22,1.41-2.03Z"/>
    <path d="M707.74,397.42c0,2.34-.4,4.34-1.21,5.98-1.04,2.11-2.62,3.17-4.73,3.17-.68,0-1.75-.25-3.2-.74.03.18.04.35.04.51,0,.86-.48,1.29-1.45,1.29-.7,0-1.28-.26-1.72-.78-.21-.23-.38-1.04-.51-2.42-.13-1.15-.2-2.04-.2-2.7v-.16l.59-22.07c.42-.65.91-.92,1.49-.82.13-.05.26-.08.39-.08.47,0,.9.28,1.31.84.4.56.61,1.09.61,1.58,0,1.12-.1,2.62-.31,4.49-.26,2.16-.4,3.65-.43,4.45.75-.91,1.73-1.37,2.93-1.37,1.43,0,2.72.51,3.87,1.54,1.15,1.03,1.89,2.27,2.23,3.73.21.89.31,2.07.31,3.55ZM704.1,397.14c0-3.54-.74-5.31-2.21-5.31-1.24,0-2.19.9-2.83,2.7-.49,1.35-.74,2.8-.74,4.34,0,3.28.98,4.92,2.95,4.92s2.83-2.21,2.83-6.64Z"/>
    <path d="M717.03,405.23c0,.47-.19.87-.57,1.19-.38.33-.81.49-1.31.49-1.64,0-2.46-2.15-2.46-6.45,0-1.95.02-4.88.06-8.79s.06-6.84.06-8.79c0-.31-.04-.77-.12-1.37-.08-.6-.12-1.04-.12-1.33.86-.57,1.54-.86,2.03-.86.57,0,1.12.19,1.64.57.52.38.78.85.78,1.43,0,.29-.07.62-.2,1.02-.18.63-.29.96-.31,1.02-.34,1.62-.51,3.91-.51,6.88v7.27c.08,3.28.35,5.57.82,6.88.13.36.2.65.2.86Z"/>
    <path d="M733.25,402.85c0,1.3-.89,2.32-2.66,3.05-1.38.57-2.83.86-4.34.86-4.01,0-6.02-2.28-6.02-6.84,0-1.88.46-3.96,1.37-6.25,1.12-2.81,2.47-4.22,4.06-4.22,1.43,0,2.98.64,4.63,1.91,1.65,1.28,2.48,2.61,2.48,3.99,0,1.72-.77,3.09-2.3,4.1-1.35.91-2.97,1.37-4.84,1.37-.37,0-.95-.22-1.76-.66.1,2.47.83,3.71,2.19,3.71,1.15,0,2.27-.33,3.38-.98,1.11-.65,1.82-.98,2.13-.98,1.12,0,1.68.31,1.68.94ZM728.99,395.46c0-.65-.19-1.27-.57-1.86-.38-.59-.88-.88-1.5-.88-.86,0-1.52.38-1.99,1.13-.39.65-.59,1.42-.59,2.3,0,.5.17.9.51,1.21.34.31.77.47,1.29.47,1.9,0,2.85-.79,2.85-2.38Z"/>
  </g>
  <g>
    <path d="M638.97,326.46c-7.34-34.09-11.71-44.67-14.38-44.38-2.42.26-3.5,9.44-3.75,9.38-.22-.06,0-7.51,3.75-9.38,3.39-1.68,8.54,1.71,12.5,5" fill="#f9f2db"/>
    <path d="M638.97,328.65c-1.01,0-1.92-.7-2.14-1.73-6.78-31.48-10.44-39.86-11.97-42.07-.38.87-.89,2.53-1.53,5.64-.33,1.61-.47,2.28-1.32,2.82l-.79.5-.92-.23c-.35-.09-1.52-.5-1.68-2.05-.1-.96.12-6.96,3.25-10.13.56-.72,1.23-1.21,2.04-1.41,3.56-1.55,8.33.23,14.58,5.42.93.77,1.06,2.15.29,3.08-.77.93-2.15,1.06-3.08.29-2.52-2.1-4.47-3.34-5.96-4.06.76,1.56,1.53,3.53,2.36,5.96,2.52,7.39,5.55,19.28,9.01,35.33.25,1.18-.5,2.35-1.68,2.6-.16.03-.31.05-.46.05Z"/>
  </g>
  <path d="M166.5,79.5v125.04c43.17,25.15,86.33,50.31,129.5,75.46" fill="none" stroke="#000" stroke-linecap="round" stroke-miterlimit="10" stroke-width="7"/>
  <path d="M47,279c39.83-24.83,79.67-49.67,119.5-74.5" fill="none" stroke="#000" stroke-linecap="round" stroke-miterlimit="10" stroke-width="7"/>
</svg>