<?xml version="1.0" encoding="UTF-8"?>
<svg id="Ebene_1" data-name="Ebene 1" xmlns="http://www.w3.org/2000/svg" viewBox="0 0 753 854.67">
  <g>
    <rect x=".47" y="0" width="240" height="170.67" fill="#30628b"/>
    <path d="M238.47,2v166.67H2.47V2h236M240.47,0H.47v170.67h240V0h0Z" fill="#faf3dc"/>
  </g>
  <g>
    <rect x="240" y="0" width="171" height="170.67" fill="#e2d3aa"/>
    <path d="M409,2v166.67h-167V2h167M411,0h-171v170.67h171V0h0Z" fill="#faf3dc"/>
  </g>
  <g>
    <rect x="411" y="0" width="171" height="170.67" fill="#e2d3aa"/>
    <path d="M580,2v166.67h-167V2h167M582,0h-171v170.67h171V0h0Z" fill="#faf3dc"/>
  </g>
  <g>
    <rect x="582" y="0" width="171" height="170.67" fill="#e2d3aa"/>
    <path d="M751,2v166.67h-167V2h167M753,0h-171v170.67h171V0h0Z" fill="#faf3dc"/>
  </g>
  <g>
    <rect x="240" y="171" width="171" height="170.67" fill="#e2d3aa"/>
    <path d="M409,173v166.67h-167v-166.67h167M411,171h-171v170.67h171v-170.67h0Z" fill="#faf3dc"/>
  </g>
  <g>
    <rect x="240" y="342" width="171" height="170.67" fill="#e2d3aa"/>
    <path d="M409,344v166.67h-167v-166.67h167M411,342h-171v170.67h171v-170.67h0Z" fill="#faf3dc"/>
  </g>
  <g>
    <rect x="240" y="513" width="171" height="170.67" fill="#e2d3aa"/>
    <path d="M409,515v166.67h-167v-166.67h167M411,513h-171v170.67h171v-170.67h0Z" fill="#faf3dc"/>
  </g>
  <g>
    <rect x="240" y="684" width="171" height="170.67" fill="#e2d3aa"/>
    <path d="M409,686v166.67h-167v-166.67h167M411,684h-171v170.67h171v-170.67h0Z" fill="#faf3dc"/>
  </g>
  <g>
    <rect y="171" width="240" height="170.67" fill="#c03b2d"/>
    <path d="M238,173v166.67H2v-166.67h236M240,171H0v170.67h240v-170.67h0Z" fill="#faf3dc"/>
  </g>
  <g>
    <rect y="342" width="240" height="170.67" fill="#f0c34e"/>
    <path d="M238,344v166.67H2v-166.67h236M240,342H0v170.67h240v-170.67h0Z" fill="#faf3dc"/>
  </g>
  <g>
    <rect y="513" width="240" height="170.67" fill="#c6c647"/>
    <path d="M238,515v166.67H2v-166.67h236M240,513H0v170.67h240v-170.67h0Z" fill="#faf3dc"/>
  </g>
  <g>
    <rect y="684" width="240" height="170.67" fill="#6dc449"/>
    <path d="M238,686v166.67H2v-166.67h236M240,684H0v170.67h240v-170.67h0Z" fill="#faf3dc"/>
  </g>
  <g>
    <path d="M63.1,74.13h3.3l3.84,10.25c1.6,4.34,2.51,6.9,2.72,7.71l.31-1.1,1.89-5.29,4.35-11.57h2.94l-7.95,20.99h-3.46l-7.94-20.99Z" fill="#fff"/>
    <path d="M82.92,87.81c0-2.06.65-3.81,1.95-5.24s2.86-2.15,4.67-2.15c.5,0,.99.05,1.47.16s.99.32,1.52.64.98.73,1.36,1.23.7,1.18.96,2.04.39,1.85.39,2.97h-9.65v.29c0,1.48.43,2.72,1.3,3.71s1.91,1.49,3.13,1.49c1.66,0,3.27-.57,4.83-1.71l.21,2.43c-1.58,1.02-3.26,1.52-5.04,1.52-2.08,0-3.78-.73-5.11-2.2s-1.99-3.2-1.99-5.2ZM85.98,85.7h6.84c-.48-2.02-1.57-3.03-3.27-3.03-.74,0-1.45.27-2.12.81s-1.15,1.28-1.46,2.23Z" fill="#fff"/>
    <path d="M98.18,94.98v-20.84h2.67v12.32l5.26-5.64h3.41l-4.98,5.41,5.71,8.76h-3.06l-4.48-6.87-1.92,2.07v4.8h-2.61Z" fill="#fff"/>
    <path d="M111.35,83.05v-2.24h2.46v-4.06h2.7v4.06h4.2v2.24h-4.2v6.88c0,1.97.52,2.95,1.57,2.95.78,0,1.64-.35,2.58-1.06l.6,2.15c-1.5.82-3.12,1.23-4.86,1.23s-2.64-1.65-2.64-4.96v-7.2h-2.4Z" fill="#fff"/>
    <path d="M125.1,93.15c-1.39-1.38-2.09-3.12-2.09-5.21s.69-3.87,2.07-5.31,3.03-2.16,4.93-2.16,3.64.75,4.98,2.25,2.01,3.25,2.01,5.25-.69,3.78-2.07,5.17-3.02,2.08-4.91,2.08-3.52-.69-4.92-2.07ZM125.9,87.51c0,1.86.37,3.23,1.11,4.12.72.84,1.72,1.26,3,1.26,1.2,0,2.16-.37,2.87-1.11.82-.84,1.23-2.28,1.23-4.32,0-1.7-.39-2.92-1.16-3.65s-1.75-1.1-2.94-1.1c-2.74,0-4.12,1.6-4.12,4.8Z" fill="#fff"/>
    <path d="M138.98,94.98v-14.17h2.7v3.03c1.18-2.14,2.93-3.23,5.26-3.27v2.52c-.54,0-1.07.08-1.6.23-.53.15-1.08.39-1.64.72s-1.02.82-1.36,1.47-.52,1.43-.52,2.34v7.12h-2.83Z" fill="#fff"/>
    <path d="M148.26,87.81c0-2.06.65-3.81,1.95-5.24s2.86-2.15,4.67-2.15c.5,0,.99.05,1.47.16s.99.32,1.52.64.98.73,1.36,1.23.7,1.18.96,2.04.39,1.85.39,2.97h-9.65v.29c0,1.48.43,2.72,1.3,3.71s1.91,1.49,3.13,1.49c1.66,0,3.27-.57,4.83-1.71l.21,2.43c-1.58,1.02-3.26,1.52-5.04,1.52-2.08,0-3.78-.73-5.11-2.2s-1.99-3.2-1.99-5.2ZM151.33,85.7h6.84c-.48-2.02-1.57-3.03-3.27-3.03-.74,0-1.45.27-2.12.81s-1.15,1.28-1.46,2.23Z" fill="#fff"/>
    <path d="M163.44,94.98v-14.17h2.75v1.44l.04,1c1.06-1.79,2.57-2.68,4.53-2.68.8,0,1.48.12,2.05.36s.99.52,1.27.84.5.74.67,1.26.25.94.27,1.27.03.74.03,1.22v9.45h-2.89v-9.49c0-.34-.02-.63-.06-.86-.04-.23-.14-.51-.32-.83s-.47-.57-.9-.73-.98-.25-1.64-.25c-.62,0-1.14.15-1.57.46s-.74.71-.92,1.2-.3.92-.36,1.29c-.06.37-.09.74-.09,1.1v8.11h-2.89Z" fill="#fff"/>
  </g>
  <path d="M310.3,102.51v-27.3h7.7v26.72c.05,2.6.23,4.18.55,4.73.6.86,2.43,1.29,5.51,1.29s5.46-.83,6.93-2.48c1.47-1.65,2.31-3.3,2.52-4.94.05-.52.08-1.35.08-2.5v-22.81h7.7v37.77h-7.54v-6.02c-3.78,4.43-8.76,6.64-14.96,6.64-1.93,0-3.5-.33-4.73-1-1.22-.66-2.09-1.63-2.6-2.91-.51-1.28-.83-2.42-.96-3.44-.13-1.02-.2-2.27-.2-3.75Z"/>
  <path d="M307.54,277.98l14.8-19.53v-.08l-14.34-18.16h8.24l9.38,12.5,8.95-12.5h8.16l-13.83,18.16v.08l15.27,19.53h-8.24l-10.31-14.96h-.08l-9.84,14.96h-8.16Z"/>
  <path d="M308.68,416.2h7.66c5.34,13.98,8.41,22.5,9.22,25.55.36,1.59.65,3.1.86,4.53.21-3.05,2.83-11.86,7.85-26.45.6-1.59,1.03-2.8,1.29-3.63h7.42l-13.91,39.38c-1.33,3.72-2.96,6.72-4.88,8.98-1.93,2.27-4.62,3.4-8.09,3.4-1.22,0-3.22-.18-5.98-.55l-.66-6.64c2.71.81,4.95,1.21,6.72,1.21.47,0,.9-.04,1.31-.12.4-.08.77-.18,1.09-.29.33-.12.64-.31.96-.57.31-.26.57-.47.76-.62s.42-.45.68-.88c.26-.43.44-.74.55-.92.1-.18.27-.54.49-1.07.22-.53.37-.9.45-1.09s.22-.61.43-1.25c.21-.64.34-1.04.39-1.19l-14.61-37.77Z"/>
  <g>
    <rect x="411" y="342" width="171" height="170.67" fill="#e2d3aa"/>
    <path d="M580,344v166.67h-167v-166.67h167M582,342h-171v170.67h171v-170.67h0Z" fill="#faf3dc"/>
  </g>
  <g>
    <path d="M435.36,422.18v-5.98h5.59v-4.22c0-2.45.31-4.5.92-6.15.62-1.65,1.89-3.26,3.83-4.82,2.61-2.19,5.89-3.28,9.82-3.28,1.93,0,4.14.22,6.64.65v6.7c-2.6-.92-4.87-1.38-6.8-1.38-1.82,0-3.45.39-4.88,1.16-1.43.78-2.15,2.08-2.15,3.92v7.41h8.75v5.98h-8.59v31.8h-7.54v-31.8h-5.59Z"/>
    <path d="M465.01,432.86c0-17.07,5.21-30.03,15.62-38.89h6.09c-1.22,1.22-2.24,2.29-3.05,3.2-.81.91-1.99,2.57-3.54,4.96-1.55,2.4-2.79,4.88-3.71,7.44-.92,2.57-1.78,5.9-2.56,10s-1.17,8.53-1.17,13.28.39,9.18,1.17,13.28,1.63,7.44,2.56,10c.92,2.56,2.16,5.04,3.71,7.44,1.55,2.4,2.73,4.05,3.54,4.96.81.91,1.82,1.98,3.05,3.2h-6.09c-10.42-8.85-15.62-21.82-15.62-38.89Z"/>
    <path d="M491.38,453.98l14.8-19.53v-.08l-14.34-18.16h8.24l9.38,12.5,8.95-12.5h8.16l-13.83,18.16v.08l15.27,19.53h-8.24l-10.31-14.96h-.08l-9.84,14.96h-8.16Z"/>
    <path d="M532.63,471.75c1.28-1.28,2.29-2.34,3.03-3.2s1.9-2.51,3.48-4.96c1.58-2.45,2.83-4.93,3.77-7.44s1.79-5.83,2.56-9.96c.77-4.13,1.15-8.57,1.15-13.34s-.36-8.98-1.07-13.03c-.72-4.05-1.54-7.34-2.48-9.88s-2.12-4.97-3.55-7.29c-1.43-2.32-2.58-3.97-3.44-4.96-.86-.99-1.82-2.04-2.89-3.16-.26-.26-.44-.44-.55-.55h5.98c10.44,8.91,15.67,21.87,15.68,38.89.01,17.02-5.21,29.98-15.68,38.89h-5.98Z"/>
  </g>
  <path d="M322.06,740.97v-7.5h7.5v7.5h-7.5ZM322.06,788.98v-37.77h7.54v37.77h-7.54Z"/>
  <g>
    <rect x="411" y="684" width="171" height="170.67" fill="#e2d3aa"/>
    <path d="M580,686v166.67h-167v-166.67h167M582,684h-171v170.67h171v-170.67h0Z" fill="#faf3dc"/>
  </g>
  <path d="M480.67,800.61l1.6-6.05c2.19,1.38,4.27,2.09,6.25,2.11,2.99,0,4.86-.73,5.59-2.19.16-.31.25-.85.27-1.61v-41.75h7.54v41.45c-.05,2.08-.49,3.87-1.32,5.37-.82,1.5-1.86,2.56-3.1,3.2-1.24.64-2.37,1.09-3.37,1.35-1,.26-2.01.39-3.03.39-3.44,0-6.91-.76-10.43-2.28ZM494.31,740.89v-7.5h7.54v7.5h-7.54Z"/>
  <g>
    <rect x="582" y="684" width="171" height="170.67" fill="#e2d3aa"/>
    <path d="M751,686v166.67h-167v-166.67h167M753,684h-171v170.67h171v-170.67h0Z" fill="#faf3dc"/>
  </g>
  <path d="M653.72,788.98v-55.59h7.11v32.85l14.02-15.04h9.1l-13.28,14.41,15.23,23.36h-8.16l-11.95-18.32-5.12,5.51v12.81h-6.95Z"/>
  <path d="M307.54,622.98l14.8-19.53v-.08l-14.34-18.16h8.24l9.38,12.5,8.95-12.5h8.16l-13.83,18.16v.08l15.27,19.53h-8.24l-10.31-14.96h-.08l-9.84,14.96h-8.16Z"/>
  <path d="M479.68,75.2h7.5c5.81,17.4,9.04,27.42,9.69,30.08l1.21-4.3,8.48-25.78h7.42l-12.77,38.01h-8.75l-12.77-38.01Z"/>
  <path d="M641.3,75.2h7.34l6.05,22.7,1.42,5.33.31,2.05c.16-2.6,2.71-12.63,7.66-30.08h6.91l5.51,19.77c1.38,5.34,2.2,8.78,2.46,10.31.21-2.24,2.85-12.27,7.93-30.08h7.27l-10.78,38.01h-8.55l-4.96-17.93-1.37-5.59-1.05-4.96-.23-1.84c-.21,3-2.71,13.1-7.5,30.31h-7.65l-10.76-38.01Z"/>
  <g>
    <rect x="411" y="171" width="171" height="170.67" fill="#e2d3aa"/>
    <path d="M580,173v166.67h-167v-166.67h167M582,171h-171v170.67h171v-170.67h0Z" fill="#faf3dc"/>
  </g>
  <g>
    <rect x="582" y="171" width="171" height="170.67" fill="#e2d3aa"/>
    <path d="M751,173v166.67h-167v-166.67h167M753,171h-171v170.67h171v-170.67h0Z" fill="#faf3dc"/>
  </g>
  <path d="M652.16,283.98v-3.45c0-.13.01-.25.04-.35.03-.1.07-.21.14-.33.06-.12.11-.21.14-.29.03-.08.12-.21.27-.39.16-.18.27-.34.35-.47s.23-.36.47-.68c.23-.33.44-.59.62-.8l18.95-25.04h-19.77v-5.98h30v4.02l-20.86,27.77h21.17v5.98h-31.52Z"/>
  <g>
    <path d="M61.78,227.13h3.3l3.84,10.25c1.6,4.34,2.51,6.9,2.72,7.71l.31-1.1,1.89-5.29,4.35-11.57h2.94l-7.95,20.99h-3.46l-7.94-20.99Z" fill="#fff"/>
    <path d="M81.91,243.99c0-1.32.81-2.33,2.44-3.03,1.63-.7,3.72-1.09,6.27-1.17v-1.05c0-.82-.1-1.42-.31-1.8-.48-.92-1.23-1.38-2.25-1.38-1.01.02-1.84.15-2.49.39-.64.24-1.39.67-2.25,1.3l-.2-2.52c1.66-.86,3.33-1.29,5-1.29,1.5,0,2.75.44,3.73,1.32.98.88,1.53,1.94,1.62,3.18l.03,1v9.05h-2.8v-1.08l-.03-.83c-.56.7-1.3,1.24-2.24,1.6-.94.37-1.88.55-2.84.55-1.17,0-2.08-.44-2.73-1.33s-.97-1.85-.97-2.89ZM84.66,243.93c0,.6.26,1.08.77,1.46.51.38,1.14.57,1.89.57.68,0,1.32-.15,1.89-.45.58-.3.99-.7,1.23-1.2.12-.26.18-.67.18-1.23v-1.89c-1.84.08-3.29.35-4.36.83-1.07.47-1.6,1.11-1.6,1.91Z" fill="#fff"/>
    <path d="M96.57,247.98v-14.17h2.7v3.03c1.18-2.14,2.93-3.23,5.26-3.27v2.52c-.54,0-1.07.08-1.6.23-.53.15-1.08.39-1.64.72s-1.02.82-1.36,1.47-.52,1.43-.52,2.34v7.12h-2.83Z" fill="#fff"/>
    <path d="M106.94,229.97v-2.81h2.81v2.81h-2.81ZM106.94,247.98v-14.17h2.83v14.17h-2.83Z" fill="#fff"/>
    <path d="M112.9,243.99c0-1.32.81-2.33,2.44-3.03,1.63-.7,3.72-1.09,6.27-1.17v-1.05c0-.82-.1-1.42-.31-1.8-.48-.92-1.23-1.38-2.25-1.38-1.01.02-1.84.15-2.49.39-.64.24-1.39.67-2.25,1.3l-.2-2.52c1.66-.86,3.33-1.29,5-1.29,1.5,0,2.75.44,3.73,1.32.98.88,1.53,1.94,1.62,3.18l.03,1v9.05h-2.8v-1.08l-.03-.83c-.56.7-1.3,1.24-2.24,1.6-.94.37-1.88.55-2.84.55-1.17,0-2.08-.44-2.73-1.33s-.97-1.85-.97-2.89ZM115.66,243.93c0,.6.26,1.08.77,1.46.51.38,1.14.57,1.89.57.68,0,1.32-.15,1.89-.45.58-.3.99-.7,1.23-1.2.12-.26.18-.67.18-1.23v-1.89c-1.84.08-3.29.35-4.36.83-1.07.47-1.6,1.11-1.6,1.91Z" fill="#fff"/>
    <path d="M128.43,247.98v-20.84h2.83v8.29c1.4-1.23,3.05-1.85,4.95-1.85,1.36,0,2.48.72,3.37,2.16.89,1.44,1.33,3.13,1.33,5.07,0,2.12-.56,3.89-1.68,5.29s-2.47,2.11-4.05,2.11c-1.38,0-2.67-.6-3.87-1.79v1.55h-2.89ZM131.32,244.08c0,.54.25.99.76,1.35s1.08.54,1.73.54c.4,0,.81-.05,1.22-.14.41-.09.87-.32,1.39-.67.52-.36.91-.84,1.17-1.45.29-.68.44-1.61.44-2.79v-.12c0-1.84-.37-3.14-1.1-3.92-.69-.71-1.61-1.07-2.75-1.07h-.04c-.24,0-.47.01-.67.04s-.39.08-.56.15-.32.13-.45.19-.27.14-.4.26c-.14.11-.24.19-.3.24-.06.05-.15.12-.27.22l-.15.16v7Z" fill="#fff"/>
    <path d="M143.93,247.98v-20.84h2.83v20.84h-2.83Z" fill="#fff"/>
    <path d="M149.58,240.81c0-2.06.65-3.81,1.95-5.24s2.86-2.15,4.67-2.15c.5,0,.99.05,1.47.16s.99.32,1.52.64.98.73,1.36,1.23.7,1.18.96,2.04.39,1.85.39,2.97h-9.65v.29c0,1.48.43,2.72,1.3,3.71s1.91,1.49,3.13,1.49c1.66,0,3.27-.57,4.83-1.71l.21,2.43c-1.58,1.02-3.26,1.52-5.04,1.52-2.08,0-3.78-.73-5.11-2.2s-1.99-3.2-1.99-5.2ZM152.64,238.7h6.84c-.48-2.02-1.57-3.03-3.27-3.03-.74,0-1.45.27-2.12.81s-1.15,1.28-1.46,2.23Z" fill="#fff"/>
    <path d="M164.76,247.98v-14.17h2.75v1.44l.04,1c1.06-1.79,2.57-2.68,4.53-2.68.8,0,1.48.12,2.05.36s.99.52,1.27.84.5.74.67,1.26.25.94.27,1.27.03.74.03,1.22v9.45h-2.89v-9.49c0-.34-.02-.63-.06-.86-.04-.23-.14-.51-.32-.83s-.47-.57-.9-.73-.98-.25-1.64-.25c-.62,0-1.14.15-1.57.46s-.74.71-.92,1.2-.3.92-.36,1.29c-.06.37-.09.74-.09,1.1v8.11h-2.89Z" fill="#fff"/>
    <path d="M48.25,280.05v-10.24h2.89v10.02c.02.98.09,1.57.21,1.77.22.32.91.48,2.07.48s2.05-.31,2.6-.93.87-1.24.94-1.85c.02-.2.03-.51.03-.94v-8.55h2.89v14.17h-2.83v-2.26c-1.42,1.66-3.29,2.49-5.61,2.49-.72,0-1.31-.12-1.77-.37s-.78-.61-.97-1.09-.31-.91-.36-1.29-.07-.85-.07-1.41Z" fill="#fff"/>
    <path d="M63.75,283.98v-14.17h2.75v1.44l.04,1c1.06-1.79,2.57-2.68,4.53-2.68.8,0,1.48.12,2.05.36s.99.52,1.27.84.51.74.67,1.26.25.94.27,1.27.03.74.03,1.22v9.45h-2.89v-9.49c0-.34-.02-.63-.06-.86-.04-.23-.14-.51-.31-.83s-.47-.57-.9-.73-.98-.25-1.64-.25c-.62,0-1.14.15-1.57.46s-.73.71-.92,1.2-.3.92-.36,1.29c-.06.37-.09.74-.09,1.1v8.11h-2.89Z" fill="#fff"/>
    <path d="M78.38,276.87c0-1.98.5-3.69,1.5-5.13s2.26-2.16,3.79-2.16,3.04.58,4.37,1.73v-8.18h2.83v20.84h-2.89v-1.77c-1.3,1.34-2.74,2.01-4.34,2.01-1.51,0-2.76-.72-3.76-2.16s-1.5-3.17-1.5-5.19ZM81.27,277.28c.04,1.44.33,2.53.88,3.29.7.94,1.71,1.41,3.03,1.41.5,0,.96-.12,1.4-.36s.73-.44.87-.6c.14-.16.32-.38.53-.67v-7.39c-.71-.75-1.53-1.13-2.46-1.13h-.03c-1.28,0-2.3.4-3.08,1.19-.76.78-1.14,2-1.14,3.64v.63Z" fill="#fff"/>
    <path d="M103.67,283.98l7.56-21.09h3.4l7.53,21.09h-3.27l-1.8-5.07h-8.73l-1.8,5.07h-2.89ZM109.22,276.51h7.03c-2.2-6.22-3.37-9.71-3.52-10.47-.16.64-.45,1.62-.89,2.93s-.97,2.85-1.6,4.64-.97,2.75-1.03,2.91Z" fill="#fff"/>
    <path d="M123.24,276.87c0-2.02.66-3.77,1.97-5.24s2.99-2.2,5.03-2.2c1.04,0,1.87.09,2.5.27s1.43.52,2.39,1.02l-.42,2.46c-.84-.54-1.54-.91-2.12-1.11s-1.36-.31-2.35-.31c-.48,0-.93.07-1.35.21s-.85.38-1.3.73-.81.87-1.07,1.59-.4,1.59-.4,2.61c0,1.78.41,3.05,1.23,3.82s1.75,1.16,2.8,1.16c1.68,0,3.33-.55,4.95-1.66l.21,2.49c-1.66,1-3.37,1.49-5.13,1.49-2,0-3.66-.73-4.97-2.18s-1.97-3.17-1.97-5.16Z" fill="#fff"/>
    <path d="M138.1,283.98v-20.84h2.83v7.78l.03,1.26c1.1-1.73,2.59-2.59,4.47-2.59.8,0,1.48.12,2.05.36s.99.52,1.27.84.51.74.67,1.26.25.94.27,1.27.03.74.03,1.22v9.45h-2.89v-9.49c0-.34-.02-.63-.06-.86-.04-.23-.14-.51-.31-.83s-.47-.57-.9-.73-.98-.25-1.64-.25c-.62,0-1.14.15-1.57.46s-.73.71-.92,1.2-.3.92-.36,1.29c-.06.37-.09.74-.09,1.1v8.11h-2.89Z" fill="#fff"/>
    <path d="M152.55,282.81l.45-2.58c1.58,1.1,3.2,1.66,4.86,1.66.92,0,1.57-.19,1.96-.57s.59-.8.59-1.26-.17-.83-.51-1.13-.71-.49-1.11-.6-.91-.22-1.53-.34-1.07-.23-1.34-.33c-.84-.28-1.58-.77-2.22-1.46s-.96-1.54-.96-2.54c0-.46.07-.9.21-1.33s.38-.88.72-1.35.88-.84,1.6-1.12,1.61-.42,2.66-.42c1.52,0,3.07.34,4.64,1.01l-.44,2.46c-1.5-.82-3.02-1.23-4.54-1.23-.82,0-1.4.17-1.74.51s-.51.72-.51,1.14c0,.32.12.63.36.92s.56.5.96.64c.02,0,.56.12,1.62.35s1.85.49,2.37.76c1.58.88,2.37,2.15,2.37,3.81,0,1.14-.39,2.16-1.16,3.06s-2.09,1.35-3.97,1.35-3.65-.47-5.35-1.41Z" fill="#fff"/>
    <path d="M164.6,276.81c0-2.06.65-3.81,1.95-5.24s2.86-2.15,4.67-2.15c.5,0,.99.05,1.47.16s.99.32,1.52.64.98.73,1.36,1.23.7,1.18.96,2.04.39,1.85.39,2.97h-9.65v.29c0,1.48.43,2.72,1.3,3.71s1.91,1.49,3.13,1.49c1.66,0,3.27-.57,4.83-1.71l.21,2.43c-1.58,1.02-3.26,1.52-5.04,1.52-2.08,0-3.78-.73-5.11-2.2s-1.99-3.2-1.99-5.2ZM167.67,274.7h6.84c-.48-2.02-1.57-3.03-3.27-3.03-.74,0-1.45.27-2.12.81s-1.16,1.28-1.46,2.23Z" fill="#fff"/>
    <path d="M179.78,283.98v-14.17h2.75v1.44l.04,1c1.06-1.79,2.57-2.68,4.53-2.68.8,0,1.48.12,2.05.36s.99.52,1.27.84.51.74.67,1.26.25.94.27,1.27.03.74.03,1.22v9.45h-2.89v-9.49c0-.34-.02-.63-.06-.86-.04-.23-.14-.51-.31-.83s-.47-.57-.9-.73-.98-.25-1.64-.25c-.62,0-1.14.15-1.57.46s-.73.71-.92,1.2-.3.92-.36,1.29c-.06.37-.09.74-.09,1.1v8.11h-2.89Z" fill="#fff"/>
  </g>
  <g>
    <path d="M55.04,416.98l7.56-21.09h3.4l7.53,21.09h-3.27l-1.8-5.07h-8.73l-1.8,5.07h-2.89ZM60.59,409.51h7.03c-2.2-6.22-3.37-9.71-3.52-10.47-.16.64-.45,1.62-.89,2.93s-.97,2.85-1.6,4.64-.97,2.75-1.03,2.91Z"/>
    <path d="M76.37,416.98v-20.84h2.83v8.29c1.4-1.23,3.05-1.85,4.95-1.85,1.36,0,2.48.72,3.37,2.16.89,1.44,1.33,3.13,1.33,5.07,0,2.12-.56,3.89-1.68,5.29s-2.47,2.11-4.05,2.11c-1.38,0-2.67-.6-3.87-1.79v1.55h-2.89ZM79.25,413.08c0,.54.25.99.76,1.35s1.08.54,1.73.54c.4,0,.81-.05,1.22-.14.41-.09.87-.32,1.39-.67.52-.36.91-.84,1.17-1.45.29-.68.44-1.61.44-2.79v-.12c0-1.84-.37-3.14-1.1-3.92-.69-.71-1.61-1.07-2.75-1.07h-.04c-.24,0-.47.01-.67.04s-.39.08-.56.15-.32.13-.45.19-.27.14-.4.26c-.14.11-.24.19-.3.24-.06.05-.15.12-.27.22l-.15.16v7Z"/>
    <path d="M91.83,416.98v-20.84h2.83v7.78l.03,1.26c1.1-1.73,2.59-2.59,4.47-2.59.8,0,1.48.12,2.05.36s.99.52,1.27.84.51.74.67,1.26.25.94.27,1.27.03.74.03,1.22v9.45h-2.89v-9.49c0-.34-.02-.63-.06-.86-.04-.23-.14-.51-.31-.83s-.47-.57-.9-.73-.98-.25-1.64-.25c-.62,0-1.14.15-1.57.46s-.73.71-.92,1.2-.3.92-.36,1.29c-.06.37-.09.74-.09,1.1v8.11h-2.89Z"/>
    <path d="M106.61,412.99c0-1.32.81-2.33,2.44-3.03,1.62-.7,3.71-1.09,6.26-1.17v-1.05c0-.82-.1-1.42-.31-1.8-.48-.92-1.22-1.38-2.23-1.38-1.02.02-1.85.15-2.49.39s-1.4.67-2.26,1.3l-.21-2.52c1.66-.86,3.33-1.29,5.01-1.29,1.5,0,2.74.44,3.72,1.32s1.52,1.94,1.62,3.18l.03,1v9.05h-2.8v-1.08l-.03-.83c-.56.7-1.3,1.24-2.23,1.6s-1.87.55-2.83.55c-1.18,0-2.09-.44-2.73-1.33-.65-.89-.97-1.85-.97-2.89ZM108.3,399.78v-2.81h2.83v2.81h-2.83ZM109.37,412.93c0,.6.26,1.08.77,1.46s1.14.57,1.89.57c.68,0,1.31-.15,1.88-.45s.98-.7,1.23-1.2c.12-.26.17-.67.17-1.23v-1.89c-1.84.08-3.29.35-4.35.83s-1.6,1.11-1.6,1.91ZM114.41,399.78v-2.81h2.83v2.81h-2.83Z"/>
    <path d="M122.08,416.98v-14.17h2.75v1.44l.04,1c1.06-1.79,2.57-2.68,4.53-2.68.8,0,1.48.12,2.05.36s.99.52,1.27.84.51.74.67,1.26.25.94.27,1.27.03.74.03,1.22v9.45h-2.89v-9.49c0-.34-.02-.63-.06-.86-.04-.23-.14-.51-.31-.83s-.47-.57-.9-.73-.98-.25-1.64-.25c-.62,0-1.14.15-1.57.46s-.73.71-.92,1.2-.3.92-.36,1.29c-.06.37-.09.74-.09,1.1v8.11h-2.89Z"/>
    <path d="M136.72,409.86c0-2.03.58-3.75,1.72-5.16,1.15-1.41,2.51-2.12,4.07-2.12s2.79.69,3.86,2.08v-2.08h2.83v14.14c0,1.72-.55,3.11-1.65,4.18s-2.48,1.6-4.14,1.6c-1.84,0-3.68-.45-5.54-1.34v-2.46c.58.32,1.04.57,1.39.74s.91.35,1.68.54c.77.19,1.57.29,2.41.29.76,0,1.44-.27,2.05-.82.61-.54.91-1.45.91-2.73v-2.1l-.03-1.01c-.17.34-.4.67-.67,1-.27.33-.73.68-1.37,1.06-.64.38-1.34.56-2.1.56-1.44,0-2.7-.6-3.79-1.8-1.09-1.2-1.64-2.72-1.64-4.57ZM139.6,409.86c0,1.19.39,2.17,1.17,2.96.78.78,1.68,1.17,2.69,1.17.68,0,1.25-.25,1.7-.74.45-.49.75-1.05.9-1.69.15-.63.24-1.32.26-2.07h.06v-2.17c0-.58-.24-1.14-.73-1.69s-1.09-.82-1.81-.82c-1.08,0-2.06.48-2.92,1.44s-1.3,2.16-1.3,3.6Z"/>
    <path d="M153.11,398.97v-2.81h2.81v2.81h-2.81ZM153.11,416.98v-14.17h2.83v14.17h-2.83Z"/>
    <path d="M158.95,409.86c0-2.03.58-3.75,1.72-5.16,1.15-1.41,2.51-2.12,4.07-2.12s2.79.69,3.86,2.08v-2.08h2.83v14.14c0,1.72-.55,3.11-1.65,4.18s-2.48,1.6-4.14,1.6c-1.84,0-3.68-.45-5.54-1.34v-2.46c.58.32,1.04.57,1.39.74s.91.35,1.68.54c.77.19,1.57.29,2.41.29.76,0,1.44-.27,2.05-.82.61-.54.91-1.45.91-2.73v-2.1l-.03-1.01c-.17.34-.4.67-.67,1-.27.33-.73.68-1.37,1.06-.64.38-1.34.56-2.1.56-1.44,0-2.7-.6-3.79-1.8-1.09-1.2-1.64-2.72-1.64-4.57ZM161.84,409.86c0,1.19.39,2.17,1.17,2.96.78.78,1.68,1.17,2.69,1.17.68,0,1.25-.25,1.7-.74.45-.49.75-1.05.9-1.69.15-.63.24-1.32.26-2.07h.06v-2.17c0-.58-.24-1.14-.73-1.69s-1.09-.82-1.81-.82c-1.08,0-2.06.48-2.92,1.44s-1.3,2.16-1.3,3.6Z"/>
    <path d="M174.26,409.81c0-2.06.65-3.81,1.95-5.24s2.86-2.15,4.67-2.15c.5,0,.99.05,1.47.16s.99.32,1.52.64.98.73,1.36,1.23.7,1.18.96,2.04.39,1.85.39,2.97h-9.65v.29c0,1.48.43,2.72,1.3,3.71s1.91,1.49,3.13,1.49c1.66,0,3.27-.57,4.83-1.71l.21,2.43c-1.58,1.02-3.26,1.52-5.04,1.52-2.08,0-3.78-.73-5.11-2.2s-1.99-3.2-1.99-5.2ZM177.32,407.7h6.84c-.48-2.02-1.57-3.03-3.27-3.03-.74,0-1.45.27-2.12.81s-1.16,1.28-1.46,2.23Z"/>
    <path d="M70.53,432.13h3.3l3.84,10.25c1.6,4.34,2.51,6.9,2.72,7.71l.31-1.1,1.89-5.29,4.35-11.57h2.94l-7.95,20.99h-3.46l-7.94-20.99Z"/>
    <path d="M90.66,448.99c0-1.32.81-2.33,2.44-3.03,1.63-.7,3.72-1.09,6.27-1.17v-1.05c0-.82-.1-1.42-.31-1.8-.48-.92-1.23-1.38-2.25-1.38-1.01.02-1.84.15-2.49.39-.64.24-1.39.67-2.25,1.3l-.2-2.52c1.66-.86,3.33-1.29,5-1.29,1.5,0,2.75.44,3.73,1.32.98.88,1.53,1.94,1.62,3.18l.03,1v9.05h-2.8v-1.08l-.03-.83c-.56.7-1.3,1.24-2.24,1.6-.94.37-1.88.55-2.84.55-1.17,0-2.08-.44-2.73-1.33s-.97-1.85-.97-2.89ZM93.41,448.93c0,.6.26,1.08.77,1.46.51.38,1.14.57,1.89.57.68,0,1.32-.15,1.89-.45.58-.3.99-.7,1.23-1.2.12-.26.18-.67.18-1.23v-1.89c-1.84.08-3.29.35-4.36.83-1.07.47-1.6,1.11-1.6,1.91Z"/>
    <path d="M105.32,452.98v-14.17h2.7v3.03c1.18-2.14,2.93-3.23,5.26-3.27v2.52c-.54,0-1.07.08-1.6.23-.53.15-1.08.39-1.64.72s-1.02.82-1.36,1.47-.52,1.43-.52,2.34v7.12h-2.83Z"/>
    <path d="M115.69,434.97v-2.81h2.81v2.81h-2.81ZM115.69,452.98v-14.17h2.83v14.17h-2.83Z"/>
    <path d="M121.65,448.99c0-1.32.81-2.33,2.44-3.03,1.63-.7,3.72-1.09,6.27-1.17v-1.05c0-.82-.1-1.42-.31-1.8-.48-.92-1.23-1.38-2.25-1.38-1.01.02-1.84.15-2.49.39-.64.24-1.39.67-2.25,1.3l-.2-2.52c1.66-.86,3.33-1.29,5-1.29,1.5,0,2.75.44,3.73,1.32.98.88,1.53,1.94,1.62,3.18l.03,1v9.05h-2.8v-1.08l-.03-.83c-.56.7-1.3,1.24-2.24,1.6-.94.37-1.88.55-2.84.55-1.17,0-2.08-.44-2.73-1.33s-.97-1.85-.97-2.89ZM124.41,448.93c0,.6.26,1.08.77,1.46.51.38,1.14.57,1.89.57.68,0,1.32-.15,1.89-.45.58-.3.99-.7,1.23-1.2.12-.26.18-.67.18-1.23v-1.89c-1.84.08-3.29.35-4.36.83-1.07.47-1.6,1.11-1.6,1.91Z"/>
    <path d="M137.18,452.98v-20.84h2.83v8.29c1.4-1.23,3.05-1.85,4.95-1.85,1.36,0,2.48.72,3.37,2.16.89,1.44,1.33,3.13,1.33,5.07,0,2.12-.56,3.89-1.68,5.29s-2.47,2.11-4.05,2.11c-1.38,0-2.67-.6-3.87-1.79v1.55h-2.89ZM140.06,449.08c0,.54.25.99.76,1.35s1.08.54,1.73.54c.4,0,.81-.05,1.22-.14.41-.09.87-.32,1.39-.67.52-.36.91-.84,1.17-1.45.29-.68.44-1.61.44-2.79v-.12c0-1.84-.37-3.14-1.1-3.92-.69-.71-1.61-1.07-2.75-1.07h-.04c-.24,0-.47.01-.67.04s-.39.08-.56.15-.32.13-.45.19-.27.14-.4.26c-.14.11-.24.19-.3.24-.06.05-.15.12-.27.22l-.15.16v7Z"/>
    <path d="M152.68,452.98v-20.84h2.83v20.84h-2.83Z"/>
    <path d="M158.33,445.81c0-2.06.65-3.81,1.95-5.24s2.86-2.15,4.67-2.15c.5,0,.99.05,1.47.16s.99.32,1.52.64.98.73,1.36,1.23.7,1.18.96,2.04.39,1.85.39,2.97h-9.65v.29c0,1.48.43,2.72,1.3,3.71s1.91,1.49,3.13,1.49c1.66,0,3.27-.57,4.83-1.71l.21,2.43c-1.58,1.02-3.26,1.52-5.04,1.52-2.08,0-3.78-.73-5.11-2.2s-1.99-3.2-1.99-5.2ZM161.39,443.7h6.84c-.48-2.02-1.57-3.03-3.27-3.03-.74,0-1.45.27-2.12.81s-1.15,1.28-1.46,2.23Z"/>
  </g>
  <g>
    <path d="M40.19,590.65v-13.52h3.15v13.58c0,.46,0,.85.03,1.17s.12.77.3,1.35.42,1.06.73,1.43.79.7,1.45.99,1.45.43,2.38.43c.88,0,1.64-.14,2.29-.42s1.14-.6,1.47-.97.59-.82.78-1.36.3-.97.34-1.32.07-.72.07-1.12v-13.77h2.89v13.55c0,2.42-.79,4.33-2.38,5.72s-3.42,2.09-5.52,2.09c-.9,0-1.8-.16-2.7-.47s-1.76-.76-2.56-1.35-1.46-1.41-1.96-2.46-.76-2.23-.76-3.55Z"/>
    <path d="M60.47,597.98v-14.17h2.75v1.44l.04,1c1.06-1.79,2.57-2.68,4.53-2.68.8,0,1.48.12,2.05.36s.99.52,1.27.84.51.74.67,1.26.25.94.27,1.28.03.74.03,1.21v9.45h-2.89v-9.49c0-.34-.02-.63-.06-.86-.04-.23-.14-.51-.31-.83s-.47-.57-.9-.73-.98-.25-1.64-.25c-.62,0-1.14.15-1.57.46-.43.31-.73.71-.92,1.2-.18.49-.3.92-.36,1.29s-.09.74-.09,1.1v8.11h-2.89Z"/>
    <path d="M75.22,593.99c0-1.32.81-2.33,2.44-3.03s3.72-1.09,6.27-1.17v-1.05c0-.82-.1-1.42-.31-1.8-.48-.92-1.23-1.38-2.25-1.38-1.01.02-1.84.15-2.49.39s-1.39.67-2.25,1.3l-.2-2.52c1.66-.86,3.32-1.29,5-1.29,1.5,0,2.75.44,3.73,1.32.99.88,1.53,1.94,1.62,3.18l.03,1v9.05h-2.8v-1.08l-.03-.84c-.56.7-1.3,1.24-2.24,1.6s-1.88.55-2.84.55c-1.17,0-2.08-.45-2.73-1.33s-.97-1.85-.97-2.88ZM77.97,593.93c0,.6.26,1.08.77,1.46.51.38,1.14.57,1.89.57.69,0,1.32-.15,1.89-.45.58-.3.99-.7,1.23-1.2.12-.26.18-.67.18-1.23v-1.89c-1.84.08-3.29.35-4.36.83-1.07.47-1.6,1.11-1.6,1.91Z"/>
    <path d="M90.75,597.98v-20.85h2.83v8.29c1.4-1.23,3.05-1.85,4.95-1.85,1.36,0,2.48.72,3.37,2.16.89,1.44,1.33,3.13,1.33,5.07,0,2.12-.56,3.89-1.68,5.29-1.12,1.41-2.47,2.11-4.05,2.11-1.38,0-2.67-.6-3.87-1.79v1.55h-2.89ZM93.63,594.08c0,.54.25.99.76,1.35s1.08.54,1.73.54c.4,0,.81-.05,1.22-.14.41-.09.87-.32,1.39-.67.52-.36.91-.84,1.17-1.45.29-.68.44-1.61.44-2.79v-.12c0-1.84-.37-3.14-1.1-3.92-.69-.71-1.61-1.07-2.75-1.07h-.04c-.24,0-.47.01-.67.04s-.39.08-.56.15-.32.13-.45.19-.27.14-.4.26-.24.19-.3.24c-.06.05-.15.12-.27.22l-.15.16v7Z"/>
    <path d="M106.21,597.98v-20.85h2.83v7.78l.03,1.26c1.1-1.73,2.59-2.59,4.47-2.59.8,0,1.48.12,2.05.36s.99.52,1.27.84.51.74.67,1.26.25.94.27,1.28.03.74.03,1.21v9.45h-2.89v-9.49c0-.34-.02-.63-.06-.86-.04-.23-.14-.51-.31-.83s-.47-.57-.9-.73-.98-.25-1.64-.25c-.62,0-1.14.15-1.57.46-.43.31-.73.71-.92,1.2-.18.49-.3.92-.36,1.29s-.09.74-.09,1.1v8.11h-2.89Z"/>
    <path d="M121,593.99c0-1.32.81-2.33,2.44-3.03,1.62-.7,3.71-1.09,6.26-1.17v-1.05c0-.82-.1-1.42-.31-1.8-.48-.92-1.22-1.38-2.23-1.38-1.02.02-1.85.15-2.49.39s-1.4.67-2.26,1.3l-.21-2.52c1.66-.86,3.33-1.29,5.01-1.29,1.5,0,2.74.44,3.72,1.32s1.52,1.94,1.62,3.18l.03,1v9.05h-2.8v-1.08l-.03-.84c-.56.7-1.3,1.24-2.23,1.6s-1.87.55-2.83.55c-1.18,0-2.09-.45-2.73-1.33-.65-.89-.97-1.85-.97-2.88ZM122.68,580.78v-2.81h2.83v2.81h-2.83ZM123.75,593.93c0,.6.26,1.08.77,1.46s1.14.57,1.89.57c.68,0,1.31-.15,1.88-.45s.98-.7,1.23-1.2c.12-.26.17-.67.17-1.23v-1.89c-1.84.08-3.29.35-4.35.83s-1.6,1.11-1.6,1.91ZM128.79,580.78v-2.81h2.83v2.81h-2.83Z"/>
    <path d="M136.46,597.98v-14.17h2.75v1.44l.04,1c1.06-1.79,2.57-2.68,4.53-2.68.8,0,1.48.12,2.05.36s.99.52,1.27.84.51.74.67,1.26.25.94.27,1.28.03.74.03,1.21v9.45h-2.89v-9.49c0-.34-.02-.63-.06-.86-.04-.23-.14-.51-.31-.83s-.47-.57-.9-.73-.98-.25-1.64-.25c-.62,0-1.14.15-1.57.46-.43.31-.73.71-.92,1.2-.18.49-.3.92-.36,1.29s-.09.74-.09,1.1v8.11h-2.89Z"/>
    <path d="M151.1,590.86c0-2.03.58-3.75,1.72-5.16,1.15-1.42,2.51-2.12,4.07-2.12s2.79.69,3.86,2.08v-2.08h2.83v14.14c0,1.72-.55,3.11-1.65,4.18s-2.48,1.6-4.14,1.6c-1.84,0-3.68-.45-5.54-1.34v-2.46c.58.32,1.04.57,1.39.73.35.17.91.35,1.68.54s1.57.29,2.41.29c.76,0,1.44-.27,2.05-.82.61-.54.91-1.45.91-2.73v-2.1l-.03-1.01c-.17.34-.4.67-.67,1-.27.33-.73.68-1.37,1.06-.64.38-1.34.56-2.1.56-1.44,0-2.7-.6-3.79-1.8-1.09-1.2-1.64-2.72-1.64-4.57ZM153.98,590.86c0,1.19.39,2.18,1.17,2.96.78.78,1.68,1.17,2.69,1.17.68,0,1.25-.25,1.7-.74s.75-1.05.9-1.69c.15-.63.24-1.32.26-2.07h.06v-2.17c0-.58-.24-1.14-.73-1.69-.49-.55-1.09-.82-1.81-.82-1.08,0-2.06.48-2.92,1.44-.87.96-1.3,2.16-1.3,3.6Z"/>
    <path d="M167.49,579.97v-2.81h2.81v2.81h-2.81ZM167.49,597.98v-14.17h2.83v14.17h-2.83Z"/>
    <path d="M173.33,590.86c0-2.03.58-3.75,1.72-5.16,1.15-1.42,2.51-2.12,4.07-2.12s2.79.69,3.86,2.08v-2.08h2.83v14.14c0,1.72-.55,3.11-1.65,4.18s-2.48,1.6-4.14,1.6c-1.84,0-3.68-.45-5.54-1.34v-2.46c.58.32,1.04.57,1.39.73.35.17.91.35,1.68.54s1.57.29,2.41.29c.76,0,1.44-.27,2.05-.82.61-.54.91-1.45.91-2.73v-2.1l-.03-1.01c-.17.34-.4.67-.67,1-.27.33-.73.68-1.37,1.06-.64.38-1.34.56-2.1.56-1.44,0-2.7-.6-3.79-1.8-1.09-1.2-1.64-2.72-1.64-4.57ZM176.22,590.86c0,1.19.39,2.18,1.17,2.96.78.78,1.68,1.17,2.69,1.17.68,0,1.25-.25,1.7-.74s.75-1.05.9-1.69c.15-.63.24-1.32.26-2.07h.06v-2.17c0-.58-.24-1.14-.73-1.69-.49-.55-1.09-.82-1.81-.82-1.08,0-2.06.48-2.92,1.44-.87.96-1.3,2.16-1.3,3.6Z"/>
    <path d="M188.64,590.81c0-2.06.65-3.81,1.95-5.24s2.86-2.15,4.67-2.15c.5,0,.99.05,1.47.16s.99.32,1.52.64.98.73,1.36,1.23.7,1.18.96,2.04.39,1.85.39,2.97h-9.65v.29c0,1.48.43,2.72,1.3,3.71s1.91,1.49,3.13,1.49c1.66,0,3.27-.57,4.83-1.71l.21,2.43c-1.58,1.02-3.26,1.52-5.04,1.52-2.08,0-3.78-.73-5.11-2.2s-1.99-3.2-1.99-5.2ZM191.7,588.7h6.84c-.48-2.02-1.57-3.03-3.27-3.03-.74,0-1.45.27-2.12.81s-1.16,1.28-1.46,2.23Z"/>
    <path d="M69.53,613.13h3.3l3.84,10.25c1.6,4.34,2.51,6.9,2.72,7.71l.31-1.1,1.89-5.29,4.35-11.57h2.94l-7.95,20.99h-3.46l-7.94-20.99Z"/>
    <path d="M89.66,629.99c0-1.32.81-2.33,2.44-3.03,1.63-.7,3.72-1.09,6.27-1.17v-1.05c0-.82-.1-1.42-.31-1.8-.48-.92-1.23-1.38-2.25-1.38-1.01.02-1.84.15-2.49.39-.64.24-1.39.67-2.25,1.3l-.2-2.52c1.66-.86,3.33-1.29,5-1.29,1.5,0,2.75.44,3.73,1.32.98.88,1.53,1.94,1.62,3.18l.03,1v9.05h-2.8v-1.08l-.03-.84c-.56.7-1.3,1.24-2.24,1.6-.94.37-1.88.55-2.84.55-1.17,0-2.08-.45-2.73-1.33s-.97-1.85-.97-2.88ZM92.41,629.93c0,.6.26,1.08.77,1.46.51.38,1.14.57,1.89.57.68,0,1.32-.15,1.89-.45.58-.3.99-.7,1.23-1.2.12-.26.18-.67.18-1.23v-1.89c-1.84.08-3.29.35-4.36.83-1.07.47-1.6,1.11-1.6,1.91Z"/>
    <path d="M104.32,633.98v-14.17h2.7v3.04c1.18-2.14,2.93-3.23,5.26-3.27v2.52c-.54,0-1.07.08-1.6.23-.53.15-1.08.39-1.64.72s-1.02.82-1.36,1.47c-.35.65-.52,1.43-.52,2.34v7.12h-2.83Z"/>
    <path d="M114.69,615.97v-2.81h2.81v2.81h-2.81ZM114.69,633.98v-14.17h2.83v14.17h-2.83Z"/>
    <path d="M120.65,629.99c0-1.32.81-2.33,2.44-3.03,1.63-.7,3.72-1.09,6.27-1.17v-1.05c0-.82-.1-1.42-.31-1.8-.48-.92-1.23-1.38-2.25-1.38-1.01.02-1.84.15-2.49.39-.64.24-1.39.67-2.25,1.3l-.2-2.52c1.66-.86,3.33-1.29,5-1.29,1.5,0,2.75.44,3.73,1.32.98.88,1.53,1.94,1.62,3.18l.03,1v9.05h-2.8v-1.08l-.03-.84c-.56.7-1.3,1.24-2.24,1.6-.94.37-1.88.55-2.84.55-1.17,0-2.08-.45-2.73-1.33s-.97-1.85-.97-2.88ZM123.41,629.93c0,.6.26,1.08.77,1.46.51.38,1.14.57,1.89.57.68,0,1.32-.15,1.89-.45.58-.3.99-.7,1.23-1.2.12-.26.18-.67.18-1.23v-1.89c-1.84.08-3.29.35-4.36.83-1.07.47-1.6,1.11-1.6,1.91Z"/>
    <path d="M136.18,633.98v-20.85h2.83v8.29c1.4-1.23,3.05-1.85,4.95-1.85,1.36,0,2.48.72,3.37,2.16.89,1.44,1.33,3.13,1.33,5.07,0,2.12-.56,3.89-1.68,5.29-1.12,1.41-2.47,2.11-4.05,2.11-1.38,0-2.67-.6-3.87-1.79v1.55h-2.89ZM139.06,630.08c0,.54.25.99.76,1.35s1.08.54,1.73.54c.4,0,.81-.05,1.22-.14.41-.09.87-.32,1.39-.67.52-.36.91-.84,1.17-1.45.29-.68.44-1.61.44-2.79v-.12c0-1.84-.37-3.14-1.1-3.92-.69-.71-1.61-1.07-2.75-1.07h-.04c-.24,0-.47.01-.67.04s-.39.08-.56.15-.32.13-.45.19-.27.14-.4.26-.24.19-.3.24c-.06.05-.15.12-.27.22l-.15.16v7Z"/>
    <path d="M151.68,633.98v-20.85h2.83v20.85h-2.83Z"/>
    <path d="M157.33,626.81c0-2.06.65-3.81,1.95-5.24s2.86-2.15,4.67-2.15c.5,0,.99.05,1.47.16s.99.32,1.52.64.98.73,1.36,1.23.7,1.18.96,2.04.39,1.85.39,2.97h-9.65v.29c0,1.48.43,2.72,1.3,3.71s1.91,1.49,3.13,1.49c1.66,0,3.27-.57,4.83-1.71l.21,2.43c-1.58,1.02-3.26,1.52-5.04,1.52-2.08,0-3.78-.73-5.11-2.2s-1.99-3.2-1.99-5.2ZM160.39,624.7h6.84c-.48-2.02-1.57-3.03-3.27-3.03-.74,0-1.45.27-2.12.81s-1.15,1.28-1.46,2.23Z"/>
  </g>
  <g>
    <path d="M94.83,781.98v-20.85h3.15v20.85h-3.15Z"/>
    <path d="M102.34,781.98v-14.17h2.75v1.44l.04,1c1.06-1.79,2.57-2.68,4.53-2.68.8,0,1.48.12,2.05.36s.99.52,1.27.84.51.74.67,1.26.25.94.27,1.28.03.74.03,1.21v9.45h-2.89v-9.49c0-.34-.02-.63-.06-.86-.04-.23-.14-.51-.31-.83s-.47-.57-.9-.73-.98-.25-1.64-.25c-.62,0-1.14.15-1.57.46-.43.31-.73.71-.92,1.2-.18.49-.3.92-.36,1.29s-.09.74-.09,1.1v8.11h-2.89Z"/>
    <path d="M116.98,774.87c0-1.98.5-3.69,1.5-5.13s2.26-2.16,3.79-2.16,3.04.58,4.37,1.73v-8.18h2.83v20.85h-2.89v-1.77c-1.3,1.34-2.74,2.01-4.34,2.01-1.51,0-2.76-.72-3.76-2.16-1-1.44-1.5-3.17-1.5-5.19ZM119.86,775.28c.04,1.44.33,2.53.88,3.29.7.94,1.71,1.41,3.03,1.41.5,0,.96-.12,1.4-.36.44-.24.73-.44.87-.6.14-.16.32-.38.53-.67v-7.39c-.71-.75-1.53-1.13-2.46-1.13h-.03c-1.28,0-2.3.4-3.08,1.19-.76.78-1.14,2-1.14,3.64v.63Z"/>
    <path d="M132.28,774.81c0-2.06.65-3.81,1.95-5.24s2.86-2.15,4.67-2.15c.5,0,.99.05,1.47.16s.99.32,1.52.64.98.73,1.36,1.23.7,1.18.96,2.04.39,1.85.39,2.97h-9.65v.29c0,1.48.43,2.72,1.3,3.71s1.91,1.49,3.13,1.49c1.66,0,3.27-.57,4.83-1.71l.21,2.43c-1.58,1.02-3.26,1.52-5.04,1.52-2.08,0-3.78-.73-5.11-2.2s-1.99-3.2-1.99-5.2ZM135.34,772.7h6.84c-.48-2.02-1.57-3.03-3.27-3.03-.74,0-1.45.27-2.12.81s-1.16,1.28-1.46,2.23Z"/>
    <path d="M145.54,781.98l5.55-7.32v-.03l-5.38-6.81h3.09l3.52,4.69,3.35-4.69h3.06l-5.19,6.81v.03l5.73,7.32h-3.09l-3.87-5.61h-.03l-3.69,5.61h-3.06Z"/>
  </g>
  <path d="M479.68,241.2h7.66c5.34,13.98,8.41,22.5,9.22,25.55.36,1.59.65,3.1.86,4.53.21-3.05,2.83-11.86,7.85-26.45.6-1.59,1.03-2.8,1.29-3.63h7.42l-13.91,39.38c-1.33,3.72-2.96,6.72-4.88,8.98-1.93,2.27-4.62,3.4-8.09,3.4-1.22,0-3.22-.18-5.98-.55l-.66-6.64c2.71.81,4.95,1.21,6.72,1.21.47,0,.9-.04,1.31-.12.4-.08.77-.18,1.09-.29.33-.12.64-.31.96-.57.31-.26.57-.47.76-.62s.42-.45.68-.88c.26-.43.44-.74.55-.92.1-.18.27-.54.49-1.07.22-.53.37-.9.45-1.09s.22-.61.43-1.25c.21-.64.34-1.04.39-1.19l-14.61-37.77Z"/>
</svg>