<?xml version="1.0" encoding="UTF-8"?>
<svg id="Ebene_1" data-name="Ebene 1" xmlns="http://www.w3.org/2000/svg" viewBox="0 0 753 854.67">
  <g>
    <rect x=".47" y="0" width="240" height="170.67" fill="#f28c8c"/>
    <path d="M238.47,2v166.67H2.47V2h236M240.47,0H.47v170.67h240V0h0Z" fill="#faf3dc"/>
  </g>
  <g>
    <rect x="240" y="0" width="171" height="170.67" fill="#e2d3aa"/>
    <path d="M409,2v166.67h-167V2h167M411,0h-171v170.67h171V0h0Z" fill="#faf3dc"/>
  </g>
  <g>
    <rect x="411" y="0" width="171" height="170.67" fill="#e2d3aa"/>
    <path d="M580,2v166.67h-167V2h167M582,0h-171v170.67h171V0h0Z" fill="#faf3dc"/>
  </g>
  <g>
    <rect x="582" y="0" width="171" height="170.67" fill="#e2d3aa"/>
    <path d="M751,2v166.67h-167V2h167M753,0h-171v170.67h171V0h0Z" fill="#faf3dc"/>
  </g>
  <g>
    <rect x="240" y="171" width="171" height="170.67" fill="#e2d3aa"/>
    <path d="M409,173v166.67h-167v-166.67h167M411,171h-171v170.67h171v-170.67h0Z" fill="#faf3dc"/>
  </g>
  <g>
    <rect x="240" y="342" width="344" height="170.67" fill="#e2d3aa"/>
    <path d="M579.98,344v166.67H244.02v-166.67h335.95M584,342H240v170.67h344v-170.67h0Z" fill="#faf3dc"/>
  </g>
  <g>
    <rect x="240" y="513" width="171" height="170.67" fill="#e2d3aa"/>
    <path d="M409,515v166.67h-167v-166.67h167M411,513h-171v170.67h171v-170.67h0Z" fill="#faf3dc"/>
  </g>
  <g>
    <rect x="411" y="513" width="171" height="170.67" fill="#e2d3aa"/>
    <path d="M580,515v166.67h-167v-166.67h167M582,513h-171v170.67h171v-170.67h0Z" fill="#faf3dc"/>
  </g>
  <g>
    <rect x="582" y="513" width="171" height="170.67" fill="#e2d3aa"/>
    <path d="M751,515v166.67h-167v-166.67h167M753,513h-171v170.67h171v-170.67h0Z" fill="#faf3dc"/>
  </g>
  <g>
    <rect x="240" y="684" width="171" height="170.67" fill="#e2d3aa"/>
    <path d="M409,686v166.67h-167v-166.67h167M411,684h-171v170.67h171v-170.67h0Z" fill="#faf3dc"/>
  </g>
  <g>
    <rect y="171" width="240" height="170.67" fill="#82a8f4"/>
    <path d="M238,173v166.67H2v-166.67h236M240,171H0v170.67h240v-170.67h0Z" fill="#faf3dc"/>
  </g>
  <g>
    <rect y="342" width="240" height="170.67" fill="#4ecece"/>
    <path d="M238,344v166.67H2v-166.67h236M240,342H0v170.67h240v-170.67h0Z" fill="#faf3dc"/>
  </g>
  <g>
    <rect y="513" width="240" height="170.67" fill="#c6c647"/>
    <path d="M238,515v166.67H2v-166.67h236M240,513H0v170.67h240v-170.67h0Z" fill="#faf3dc"/>
  </g>
  <g>
    <rect y="684" width="240" height="170.67" fill="#ffc72c"/>
    <path d="M238,686v166.67H2v-166.67h236M240,684H0v170.67h240v-170.67h0Z" fill="#faf3dc"/>
  </g>
  <g>
    <path d="M55.74,57.41l.54-3.08c2.08,1.76,4.31,2.64,6.69,2.64,1.28,0,2.31-.36,3.1-1.09.78-.73,1.17-1.55,1.17-2.47,0-.78-.25-1.45-.75-2-.5-.55-1.06-.95-1.68-1.19-.31-.07-1.08-.24-2.31-.52-1.23-.28-2.3-.65-3.21-1.12s-1.69-1.16-2.31-2.08c-.6-.9-.89-1.87-.89-2.91,0-1.54.65-2.92,1.96-4.13s3.02-1.81,5.14-1.81,3.99.48,5.84,1.44l-.52,3.12c-1-.8-1.82-1.33-2.46-1.58-.84-.34-1.79-.51-2.86-.51-1.24,0-2.26.32-3.07.95-.8.63-1.2,1.39-1.2,2.26,0,.7.24,1.29.72,1.78.48.49,1.01.84,1.6,1.06.29.08,1.03.27,2.2.58,1.17.31,1.96.52,2.36.62,1.15.43,2.15,1.15,3,2.17.85,1.01,1.28,2.21,1.28,3.59,0,1.65-.65,3.13-1.96,4.42-1.31,1.29-3.03,1.94-5.17,1.94-2.5,0-4.9-.7-7.2-2.08Z"/>
    <path d="M72.7,51.81c0-2.06.65-3.81,1.95-5.24s2.86-2.15,4.67-2.15c.5,0,.99.05,1.47.16s.99.32,1.52.64.98.73,1.36,1.23.7,1.18.96,2.04.39,1.85.39,2.97h-9.65v.29c0,1.48.43,2.72,1.3,3.71s1.91,1.49,3.13,1.49c1.66,0,3.27-.57,4.83-1.71l.21,2.43c-1.58,1.02-3.26,1.52-5.04,1.52-2.08,0-3.78-.73-5.11-2.2s-1.99-3.2-1.99-5.2ZM75.76,49.7h6.84c-.48-2.02-1.57-3.03-3.27-3.03-.74,0-1.45.27-2.12.81s-1.16,1.28-1.46,2.23Z"/>
    <path d="M87.9,40.97v-2.81h2.81v2.81h-2.81ZM87.9,58.98v-14.17h2.83v14.17h-2.83Z"/>
    <path d="M93.27,47.05v-2.24h2.46v-4.06h2.7v4.06h4.2v2.24h-4.2v6.88c0,1.97.52,2.95,1.57,2.95.78,0,1.64-.35,2.58-1.06l.6,2.15c-1.5.82-3.12,1.23-4.86,1.23s-2.64-1.65-2.64-4.96v-7.2h-2.4Z"/>
    <path d="M104.93,51.81c0-2.06.65-3.81,1.95-5.24s2.86-2.15,4.67-2.15c.5,0,.99.05,1.47.16s.99.32,1.52.64.98.73,1.36,1.23.7,1.18.96,2.04.39,1.85.39,2.97h-9.65v.29c0,1.48.43,2.72,1.3,3.71s1.91,1.49,3.13,1.49c1.66,0,3.27-.57,4.83-1.71l.21,2.43c-1.58,1.02-3.26,1.52-5.04,1.52-2.08,0-3.78-.73-5.11-2.2s-1.99-3.2-1.99-5.2ZM107.99,49.7h6.84c-.48-2.02-1.57-3.03-3.27-3.03-.74,0-1.45.27-2.12.81s-1.16,1.28-1.46,2.23Z"/>
    <path d="M120.1,58.98v-14.17h2.75v1.44l.04,1c1.06-1.79,2.57-2.68,4.53-2.68.8,0,1.48.12,2.05.36s.99.52,1.27.84.51.74.67,1.26.25.94.27,1.27.03.74.03,1.22v9.45h-2.89v-9.49c0-.34-.02-.63-.06-.86-.04-.23-.14-.51-.31-.83s-.47-.57-.9-.73-.98-.25-1.64-.25c-.62,0-1.14.15-1.57.46s-.73.71-.92,1.2-.3.92-.36,1.29c-.06.37-.09.74-.09,1.1v8.11h-2.89Z"/>
    <path d="M144.71,51.87c0-1.98.5-3.69,1.5-5.13s2.26-2.16,3.79-2.16,3.04.58,4.37,1.73v-8.18h2.83v20.84h-2.89v-1.77c-1.3,1.34-2.74,2.01-4.34,2.01-1.51,0-2.76-.72-3.76-2.16s-1.5-3.17-1.5-5.19ZM147.6,52.28c.04,1.44.33,2.53.88,3.29.7.94,1.71,1.41,3.03,1.41.5,0,.96-.12,1.4-.36s.73-.44.87-.6c.14-.16.32-.38.53-.67v-7.39c-.71-.75-1.53-1.13-2.46-1.13h-.03c-1.28,0-2.3.4-3.08,1.19-.76.78-1.14,2-1.14,3.64v.63Z"/>
    <path d="M160.02,51.81c0-2.06.65-3.81,1.95-5.24s2.86-2.15,4.67-2.15c.5,0,.99.05,1.47.16s.99.32,1.52.64.98.73,1.36,1.23.7,1.18.96,2.04.39,1.85.39,2.97h-9.65v.29c0,1.48.43,2.72,1.3,3.71s1.91,1.49,3.13,1.49c1.66,0,3.27-.57,4.83-1.71l.21,2.43c-1.58,1.02-3.26,1.52-5.04,1.52-2.08,0-3.78-.73-5.11-2.2s-1.99-3.2-1.99-5.2ZM163.08,49.7h6.84c-.48-2.02-1.57-3.03-3.27-3.03-.74,0-1.45.27-2.12.81s-1.16,1.28-1.46,2.23Z"/>
    <path d="M174.14,57.81l.45-2.58c1.58,1.1,3.2,1.66,4.86,1.66.92,0,1.57-.19,1.96-.57s.59-.8.59-1.26-.17-.83-.51-1.13-.71-.49-1.11-.6-.91-.22-1.53-.34-1.07-.23-1.34-.33c-.84-.28-1.58-.77-2.22-1.46s-.96-1.54-.96-2.54c0-.46.07-.9.21-1.33s.38-.88.72-1.35.88-.84,1.6-1.12,1.61-.42,2.66-.42c1.52,0,3.07.34,4.64,1.01l-.44,2.46c-1.5-.82-3.02-1.23-4.54-1.23-.82,0-1.4.17-1.74.51s-.51.72-.51,1.14c0,.32.12.63.36.92s.56.5.96.64c.02,0,.56.12,1.62.35s1.85.49,2.37.76c1.58.88,2.37,2.15,2.37,3.81,0,1.14-.39,2.16-1.16,3.06s-2.09,1.35-3.97,1.35-3.65-.47-5.35-1.41Z"/>
    <path d="M51.36,94.98v-20.84h8.22c1.56,0,2.98.31,4.26.93,1.28.62,2.32,1.44,3.13,2.46.81,1.02,1.44,2.15,1.88,3.39.44,1.24.66,2.51.66,3.82,0,2.76-.85,5.08-2.55,6.97-1.7,1.88-3.7,2.96-6.01,3.22-.36.04-.9.06-1.61.06h-7.98ZM54.42,92.58h3.47c.1,0,.24,0,.44.01s.34.01.44.01c1.46,0,2.72-.23,3.76-.69,1.04-.46,1.84-1.09,2.38-1.89.54-.8.93-1.63,1.17-2.5.24-.87.36-1.8.36-2.79s-.12-2-.36-2.91-.63-1.77-1.17-2.6c-.54-.83-1.34-1.49-2.39-1.97s-2.31-.72-3.79-.72h-4.29l-.03.85v15.19Z"/>
    <path d="M73.24,94.98v-14.17h2.7v3.03c1.18-2.14,2.93-3.23,5.26-3.27v2.52c-.54,0-1.07.08-1.6.23-.53.15-1.08.39-1.64.72s-1.02.82-1.36,1.47-.52,1.43-.52,2.34v7.12h-2.83Z"/>
    <path d="M82.53,87.81c0-2.06.65-3.81,1.95-5.24s2.86-2.15,4.67-2.15c.5,0,.99.05,1.47.16s.99.32,1.52.64.98.73,1.36,1.23.7,1.18.96,2.04.39,1.85.39,2.97h-9.65v.29c0,1.48.43,2.72,1.3,3.71s1.91,1.49,3.13,1.49c1.66,0,3.27-.57,4.83-1.71l.21,2.43c-1.58,1.02-3.26,1.52-5.04,1.52-2.08,0-3.78-.73-5.11-2.2s-1.99-3.2-1.99-5.2ZM85.59,85.7h6.84c-.48-2.02-1.57-3.03-3.27-3.03-.74,0-1.45.27-2.12.81s-1.16,1.28-1.46,2.23Z"/>
    <path d="M97.73,76.97v-2.81h2.81v2.81h-2.81ZM97.73,94.98v-14.17h2.83v14.17h-2.83Z"/>
    <path d="M103.39,87.81c0-2.06.65-3.81,1.95-5.24s2.86-2.15,4.67-2.15c.5,0,.99.05,1.47.16s.99.32,1.52.64.98.73,1.36,1.23.7,1.18.96,2.04.39,1.85.39,2.97h-9.65v.29c0,1.48.43,2.72,1.3,3.71s1.91,1.49,3.13,1.49c1.66,0,3.27-.57,4.83-1.71l.21,2.43c-1.58,1.02-3.26,1.52-5.04,1.52-2.08,0-3.78-.73-5.11-2.2s-1.99-3.2-1.99-5.2ZM106.45,85.7h6.84c-.48-2.02-1.57-3.03-3.27-3.03-.74,0-1.45.27-2.12.81s-1.16,1.28-1.46,2.23Z"/>
    <path d="M117.7,87.87c0-2.02.66-3.77,1.97-5.24s2.99-2.2,5.03-2.2c1.04,0,1.87.09,2.5.27s1.43.52,2.39,1.02l-.42,2.46c-.84-.54-1.54-.91-2.12-1.11s-1.36-.31-2.35-.31c-.48,0-.93.07-1.35.21s-.85.38-1.3.73-.81.87-1.07,1.59-.4,1.59-.4,2.61c0,1.78.41,3.05,1.23,3.82s1.75,1.16,2.8,1.16c1.68,0,3.33-.55,4.95-1.66l.21,2.49c-1.66,1-3.37,1.49-5.13,1.49-2,0-3.66-.73-4.97-2.18s-1.97-3.17-1.97-5.16Z"/>
    <path d="M132.66,94.98v-20.84h2.67v12.32l5.26-5.64h3.41l-4.98,5.41,5.71,8.76h-3.06l-4.48-6.87-1.92,2.07v4.8h-2.61Z"/>
    <path d="M146.12,93.81l.45-2.58c1.58,1.1,3.2,1.66,4.86,1.66.92,0,1.57-.19,1.96-.57s.59-.8.59-1.26-.17-.83-.51-1.13-.71-.49-1.11-.6-.91-.22-1.53-.34-1.07-.23-1.34-.33c-.84-.28-1.58-.77-2.22-1.46s-.96-1.54-.96-2.54c0-.46.07-.9.21-1.33s.38-.88.72-1.35.88-.84,1.6-1.12,1.61-.42,2.66-.42c1.52,0,3.07.34,4.64,1.01l-.44,2.46c-1.5-.82-3.02-1.23-4.54-1.23-.82,0-1.4.17-1.74.51s-.51.72-.51,1.14c0,.32.12.63.36.92s.56.5.96.64c.02,0,.56.12,1.62.35s1.85.49,2.37.76c1.58.88,2.37,2.15,2.37,3.81,0,1.14-.39,2.16-1.16,3.06s-2.09,1.35-3.97,1.35-3.65-.47-5.35-1.41Z"/>
    <path d="M168.57,90.33c0-1.42.56-2.63,1.68-3.63.1-.1,1.06-.82,2.89-2.17-.63-1.66-.95-3.17-.95-4.53,0-1.8.45-3.31,1.34-4.53s2.05-1.83,3.47-1.83c1.32,0,2.38.51,3.2,1.52s1.23,2.14,1.23,3.38c0,1.9-1.66,4.03-4.97,6.39.82,1.58,2.29,3.49,4.4,5.73.3-.24.62-.53.95-.87s.77-.85,1.33-1.55c.55-.7,1.09-1.61,1.61-2.73.52-1.12.96-2.34,1.32-3.66l2.61.63c-1.04,3.8-3.01,7.04-5.94,9.73,1.12.6,2.17.89,3.14.89.84,0,1.94-.22,3.31-.66v2.52c-1.18.36-2.29.54-3.34.54-1.9,0-3.63-.57-5.2-1.71-2.16,1.14-4.19,1.71-6.1,1.71-1.76,0-3.19-.51-4.31-1.53-1.12-1.02-1.67-2.23-1.67-3.63ZM171.46,90.11c0,.78.27,1.47.82,2.07s1.32.9,2.31.9c1.24,0,2.59-.31,4.03-.94-2.02-2.06-3.48-3.9-4.39-5.51h-.03c-.06.04-.26.16-.58.37-.32.21-.53.35-.61.42s-.25.2-.49.39c-.24.19-.4.35-.47.47-.08.12-.17.29-.29.5-.12.21-.2.42-.24.62-.04.21-.06.44-.06.7ZM174.8,78.72c0,.36.01.71.04,1.05s.08.67.15.99c.07.32.13.58.17.78s.12.44.21.73c.09.29.15.48.17.56,2.19-1.66,3.28-3.1,3.28-4.32,0-.6-.15-1.18-.46-1.76-.31-.58-.77-.86-1.39-.86-.57,0-1.08.26-1.52.78-.44.52-.66,1.2-.66,2.04Z"/>
    <path d="M40.77,130.98v-14.17h2.7v3.03c1.18-2.14,2.93-3.23,5.26-3.27v2.52c-.54,0-1.07.08-1.6.23-.53.15-1.08.39-1.64.72s-1.02.82-1.36,1.47-.52,1.43-.52,2.34v7.12h-2.83Z"/>
    <path d="M50.06,123.81c0-2.06.65-3.81,1.95-5.24s2.86-2.15,4.67-2.15c.5,0,.99.05,1.47.16s.99.32,1.52.64.98.73,1.36,1.23.7,1.18.96,2.04.39,1.85.39,2.97h-9.65v.29c0,1.48.43,2.72,1.3,3.71s1.91,1.49,3.13,1.49c1.66,0,3.27-.57,4.83-1.71l.21,2.43c-1.58,1.02-3.26,1.52-5.04,1.52-2.08,0-3.78-.73-5.11-2.2s-1.99-3.2-1.99-5.2ZM53.12,121.7h6.84c-.48-2.02-1.57-3.03-3.27-3.03-.74,0-1.45.27-2.12.81s-1.15,1.28-1.46,2.23Z"/>
    <path d="M64.18,123.81c0-2.06.65-3.81,1.95-5.24s2.86-2.15,4.67-2.15c.5,0,.99.05,1.47.16s.99.32,1.52.64.98.73,1.36,1.23.7,1.18.96,2.04.39,1.85.39,2.97h-9.65v.29c0,1.48.43,2.72,1.3,3.71s1.91,1.49,3.13,1.49c1.66,0,3.27-.57,4.83-1.71l.21,2.43c-1.58,1.02-3.26,1.52-5.04,1.52-2.08,0-3.78-.73-5.11-2.2s-1.99-3.2-1.99-5.2ZM67.24,121.7h6.84c-.48-2.02-1.57-3.03-3.27-3.03-.74,0-1.45.27-2.12.81s-1.15,1.28-1.46,2.23Z"/>
    <path d="M79.39,130.98v-20.84h2.83v20.84h-2.83Z"/>
    <path d="M86.12,130.98v-20.84h2.83v20.84h-2.83Z"/>
    <path d="M91.78,123.81c0-2.06.65-3.81,1.95-5.24s2.86-2.15,4.67-2.15c.5,0,.99.05,1.47.16s.99.32,1.52.64.98.73,1.36,1.23.7,1.18.96,2.04.39,1.85.39,2.97h-9.65v.29c0,1.48.43,2.72,1.3,3.71s1.91,1.49,3.13,1.49c1.66,0,3.27-.57,4.83-1.71l.21,2.43c-1.58,1.02-3.26,1.52-5.04,1.52-2.08,0-3.78-.73-5.11-2.2s-1.99-3.2-1.99-5.2ZM94.84,121.7h6.84c-.48-2.02-1.57-3.03-3.27-3.03-.74,0-1.45.27-2.12.81s-1.15,1.28-1.46,2.23Z"/>
    <path d="M116.75,130.98v-1.2c0-.28.13-.62.38-1l11.22-16.32h-11.15v-2.33h15.29v1.28c0,.08-.01.17-.04.26s-.05.14-.06.16-.05.08-.12.18-.13.18-.17.24l-11.22,16.32h11.79v2.4h-15.92Z"/>
    <path d="M135.43,126.99c0-1.32.81-2.33,2.44-3.03,1.63-.7,3.72-1.09,6.27-1.17v-1.05c0-.82-.1-1.42-.31-1.8-.48-.92-1.23-1.38-2.25-1.38-1.01.02-1.84.15-2.49.39-.64.24-1.39.67-2.25,1.3l-.2-2.52c1.66-.86,3.33-1.29,5-1.29,1.5,0,2.75.44,3.73,1.32.98.88,1.53,1.94,1.62,3.18l.03,1v9.05h-2.8v-1.08l-.03-.83c-.56.7-1.3,1.24-2.24,1.6-.94.37-1.88.55-2.84.55-1.17,0-2.08-.44-2.73-1.33s-.97-1.85-.97-2.89ZM138.19,126.93c0,.6.26,1.08.77,1.46.51.38,1.14.57,1.89.57.68,0,1.32-.15,1.89-.45.58-.3.99-.7,1.23-1.2.12-.26.18-.67.18-1.23v-1.89c-1.84.08-3.29.35-4.36.83-1.07.47-1.6,1.11-1.6,1.91Z"/>
    <path d="M150.93,130.98v-20.84h2.83v7.78l.03,1.26c1.1-1.73,2.59-2.59,4.47-2.59.8,0,1.48.12,2.05.36s.99.52,1.27.84.5.74.67,1.26.25.94.27,1.27.03.74.03,1.22v9.45h-2.89v-9.49c0-.34-.02-.63-.06-.86-.04-.23-.14-.51-.32-.83s-.47-.57-.9-.73-.98-.25-1.64-.25c-.62,0-1.14.15-1.57.46s-.74.71-.92,1.2-.3.92-.36,1.29c-.06.37-.09.74-.09,1.1v8.11h-2.89Z"/>
    <path d="M166.46,130.98v-20.84h2.83v20.84h-2.83Z"/>
    <path d="M172.11,123.81c0-2.06.65-3.81,1.95-5.24s2.86-2.15,4.67-2.15c.5,0,.99.05,1.47.16s.99.32,1.52.64.98.73,1.36,1.23.7,1.18.96,2.04.39,1.85.39,2.97h-9.65v.29c0,1.48.43,2.72,1.3,3.71s1.91,1.49,3.13,1.49c1.66,0,3.27-.57,4.83-1.71l.21,2.43c-1.58,1.02-3.26,1.52-5.04,1.52-2.08,0-3.78-.73-5.11-2.2s-1.99-3.2-1.99-5.2ZM175.17,121.7h6.84c-.48-2.02-1.57-3.03-3.27-3.03-.74,0-1.45.27-2.12.81s-1.15,1.28-1.46,2.23Z"/>
    <path d="M187.29,130.98v-14.17h2.75v1.44l.04,1c1.06-1.79,2.57-2.68,4.53-2.68.8,0,1.48.12,2.05.36s.99.52,1.27.84.5.74.67,1.26.25.94.27,1.27.03.74.03,1.22v9.45h-2.89v-9.49c0-.34-.02-.63-.06-.86-.04-.23-.14-.51-.32-.83s-.47-.57-.9-.73-.98-.25-1.64-.25c-.62,0-1.14.15-1.57.46s-.74.71-.92,1.2-.3.92-.36,1.29c-.06.37-.09.74-.09,1.1v8.11h-2.89Z"/>
  </g>
  <path d="M309.3,102.35c0-3.52,2.17-6.21,6.51-8.09,4.34-1.88,9.92-2.92,16.73-3.12v-2.81c0-2.19-.27-3.79-.82-4.8-1.28-2.45-3.28-3.67-5.99-3.67-2.71.05-4.92.4-6.63,1.04-1.72.64-3.72,1.79-6.01,3.46l-.54-6.72c4.42-2.29,8.87-3.44,13.34-3.44,4,0,7.32,1.17,9.95,3.52s4.07,5.17,4.33,8.48l.08,2.66v24.14h-7.46v-2.89l-.08-2.23c-1.49,1.88-3.48,3.3-5.97,4.28-2.49.98-5.02,1.46-7.58,1.46-3.13,0-5.55-1.18-7.27-3.55-1.72-2.37-2.58-4.93-2.58-7.7ZM316.65,102.2c0,1.59.68,2.89,2.06,3.91s3.05,1.52,5.03,1.52c1.83,0,3.51-.4,5.05-1.21,1.54-.81,2.64-1.88,3.29-3.2.31-.7.47-1.8.47-3.28v-5.04c-4.91.21-8.79.94-11.63,2.21-2.84,1.26-4.27,2.96-4.27,5.1Z"/>
  <path d="M307.99,259.01c0-5.28,1.33-9.84,3.99-13.68s6.03-5.76,10.1-5.76,8.09,1.54,11.66,4.62v-21.81h7.54v55.59h-7.7v-4.73c-3.46,3.57-7.32,5.35-11.58,5.35-4.02,0-7.36-1.92-10.02-5.75-2.66-3.83-3.99-8.45-3.99-13.84ZM315.69,260.11c.1,3.83.88,6.75,2.34,8.76,1.87,2.5,4.56,3.76,8.07,3.76,1.33,0,2.57-.32,3.74-.96,1.17-.64,1.94-1.17,2.32-1.6.38-.43.85-1.02,1.42-1.78v-19.72c-1.9-2.01-4.08-3.01-6.55-3.01h-.08c-3.4,0-6.15,1.06-8.22,3.17-2.03,2.09-3.04,5.32-3.04,9.7v1.68Z"/>
  <g>
    <path d="M280.86,434.88c0-5.49,1.73-10.15,5.2-13.96,3.46-3.81,7.62-5.72,12.46-5.72,1.33,0,2.64.14,3.93.43,1.29.29,2.64.86,4.04,1.72s2.62,1.95,3.63,3.28,1.87,3.14,2.56,5.43c.69,2.29,1.04,4.94,1.04,7.93h-25.74v.78c0,3.96,1.16,7.26,3.48,9.9,2.32,2.64,5.1,3.96,8.36,3.96,4.43,0,8.72-1.52,12.89-4.57l.55,6.48c-4.22,2.71-8.7,4.06-13.44,4.06-5.55,0-10.09-1.95-13.63-5.86-3.54-3.91-5.31-8.53-5.31-13.87ZM289.03,429.25h18.24c-1.28-5.39-4.18-8.09-8.71-8.09-1.98,0-3.86.72-5.64,2.15-1.78,1.43-3.08,3.41-3.89,5.94Z"/>
    <path d="M388.42,423.98c-2.56,3.2-7.2,6.24-12.16,6.24-4.64,0-7.68-1.84-10.24-2.96-2.4-.96-5.12-2.72-9.12-2.72-3.68,0-7.28,2.48-9.44,4.72l-2.8-3.36c2.56-3.04,7.2-6.16,12.24-6.16,4.72,0,7.6,1.84,10.24,2.88,2.4,1.04,5.04,2.72,9.04,2.72,3.68,0,7.28-2.56,9.28-4.64l2.96,3.28ZM388.74,439.74c-2.56,3.28-7.28,6.32-12.24,6.32-4.56,0-7.52-1.84-10.16-2.88-2.4-.96-5.12-2.72-9.2-2.72-3.52,0-7.2,2.4-9.36,4.72l-2.72-3.44c2.48-3.04,7.2-6.08,12.16-6.08s7.6,1.76,10.24,2.88c2.4.96,5.12,2.72,9.04,2.72s7.36-2.4,9.36-4.72l2.88,3.2Z"/>
    <path d="M411.06,453.98v-4.32l5.52-5.36c13.28-12.64,19.28-19.36,19.36-27.2,0-5.28-2.56-10.16-10.32-10.16-4.72,0-8.64,2.4-11.04,4.4l-2.24-4.96c3.6-3.04,8.72-5.28,14.72-5.28,11.2,0,15.92,7.68,15.92,15.12,0,9.6-6.96,17.36-17.92,27.92l-4.16,3.84v.16h23.36v5.84h-33.2Z"/>
    <path d="M452.66,449.82c0-2.96,2-5.04,4.8-5.04s4.72,2.08,4.72,5.04-1.84,5.04-4.8,5.04c-2.8,0-4.72-2.16-4.72-5.04Z"/>
    <path d="M502.42,401.98v4.64l-22.64,47.36h-7.28l22.56-46v-.16h-25.44v-5.84h32.8Z"/>
    <path d="M524.97,408.54h-.16l-9.04,4.88-1.36-5.36,11.36-6.08h6v52h-6.8v-45.44Z"/>
  </g>
  <path d="M322.06,740.97v-7.5h7.5v7.5h-7.5ZM322.06,788.98v-37.77h7.54v37.77h-7.54Z"/>
  <path d="M315.28,591.18v-5.98h5.59v-4.22c0-2.45.31-4.5.92-6.15s1.89-3.26,3.83-4.82c2.61-2.19,5.89-3.28,9.82-3.28,1.93,0,4.14.22,6.64.65v6.7c-2.6-.92-4.87-1.38-6.8-1.38-1.82,0-3.45.39-4.88,1.16-1.43.78-2.15,2.08-2.15,3.92v7.41h8.75v5.98h-8.59v31.8h-7.54v-31.8h-5.59Z"/>
  <path d="M477.99,602c0-5.4,1.53-9.99,4.6-13.76,3.06-3.77,6.68-5.66,10.86-5.66s7.43,1.85,10.29,5.55v-5.55h7.54v37.7c0,4.58-1.47,8.3-4.41,11.15s-6.62,4.28-11.04,4.28c-4.9,0-9.82-1.19-14.77-3.57v-6.56c1.54.86,2.77,1.52,3.71,1.96.94.44,2.43.92,4.47,1.43,2.04.51,4.19.76,6.43.76,2.03,0,3.85-.73,5.48-2.18,1.62-1.45,2.44-3.88,2.44-7.28v-5.6l-.08-2.69c-.47.9-1.07,1.79-1.79,2.67s-1.94,1.83-3.64,2.83-3.57,1.5-5.59,1.5c-3.83,0-7.21-1.6-10.12-4.79-2.91-3.2-4.36-7.26-4.36-12.19ZM485.69,602c0,3.17,1.04,5.8,3.12,7.88s4.47,3.12,7.17,3.12c1.82,0,3.33-.66,4.52-1.97,1.19-1.31,1.99-2.81,2.4-4.5.4-1.69.63-3.53.68-5.53h.16v-5.78c0-1.55-.65-3.05-1.95-4.5s-2.91-2.18-4.83-2.18c-2.88,0-5.48,1.28-7.8,3.83-2.31,2.56-3.47,5.76-3.47,9.61Z"/>
  <path d="M652.3,621.98v-55.59h7.54v20.75l.08,3.35c2.94-4.61,6.91-6.91,11.91-6.91,2.13,0,3.96.32,5.47.96,1.51.64,2.64,1.39,3.4,2.25.75.86,1.35,1.98,1.78,3.36s.67,2.51.72,3.4c.05.88.08,1.97.08,3.24v25.2h-7.7v-25.3c0-.91-.05-1.67-.16-2.29-.1-.61-.38-1.35-.84-2.21-.46-.86-1.26-1.51-2.4-1.96-1.15-.44-2.6-.66-4.38-.66-1.64,0-3.03.41-4.18,1.23-1.15.82-1.96,1.88-2.44,3.19-.48,1.3-.8,2.45-.96,3.44-.16.99-.23,1.97-.23,2.93v21.63h-7.7Z"/>
  <path d="M481.38,112.98v-55.59h7.54v22.12c3.72-3.29,8.12-4.93,13.2-4.93,3.62,0,6.61,1.92,8.98,5.76,2.37,3.84,3.55,8.34,3.55,13.52,0,5.66-1.49,10.36-4.47,14.12-2.98,3.75-6.58,5.63-10.8,5.63-3.67,0-7.11-1.59-10.31-4.77v4.14h-7.7ZM489.07,102.58c0,1.43.68,2.63,2.03,3.6,1.35.96,2.89,1.45,4.61,1.45,1.07,0,2.15-.12,3.24-.37,1.09-.25,2.33-.85,3.71-1.8,1.38-.95,2.42-2.24,3.12-3.85.78-1.83,1.17-4.3,1.17-7.43v-.31c0-4.9-.98-8.38-2.93-10.44-1.85-1.9-4.3-2.86-7.34-2.86h-.12c-.65,0-1.25.04-1.8.12s-1.05.21-1.5.39c-.46.18-.86.35-1.21.51s-.71.38-1.07.68c-.37.3-.63.52-.8.65-.17.13-.41.33-.72.59l-.39.43v18.66Z"/>
  <path d="M651.99,94.03c0-5.39,1.75-10.04,5.25-13.96,3.5-3.92,7.97-5.88,13.42-5.88,2.76,0,4.98.24,6.66.72,1.68.48,3.81,1.39,6.39,2.71l-1.13,6.56c-2.24-1.43-4.12-2.42-5.64-2.97s-3.61-.82-6.27-.82c-1.28,0-2.47.19-3.59.57-1.12.38-2.28,1.02-3.48,1.93-1.2.91-2.15,2.32-2.85,4.24s-1.05,4.24-1.05,6.97c0,4.74,1.09,8.14,3.28,10.2,2.19,2.06,4.67,3.09,7.46,3.09,4.48,0,8.88-1.47,13.2-4.41l.55,6.64c-4.43,2.66-8.98,3.98-13.67,3.98-5.34,0-9.76-1.94-13.26-5.82-3.5-3.88-5.25-8.46-5.25-13.75Z"/>
  <g>
    <path d="M68.25,268.98l7.56-21.09h3.4l7.53,21.09h-3.27l-1.8-5.07h-8.73l-1.8,5.07h-2.89ZM73.81,261.51h7.03c-2.2-6.22-3.37-9.71-3.52-10.47-.16.64-.45,1.62-.89,2.93s-.97,2.85-1.6,4.64-.97,2.75-1.03,2.91Z"/>
    <path d="M89.58,268.98v-20.84h2.83v8.29c1.4-1.23,3.05-1.85,4.95-1.85,1.36,0,2.48.72,3.37,2.16.89,1.44,1.33,3.13,1.33,5.07,0,2.12-.56,3.89-1.68,5.29s-2.47,2.11-4.05,2.11c-1.38,0-2.67-.6-3.87-1.79v1.55h-2.89ZM92.47,265.08c0,.54.25.99.76,1.35s1.08.54,1.73.54c.4,0,.81-.05,1.22-.14.41-.09.87-.32,1.39-.67.52-.36.91-.84,1.17-1.45.29-.68.44-1.61.44-2.79v-.12c0-1.84-.37-3.14-1.1-3.92-.69-.71-1.61-1.07-2.75-1.07h-.04c-.24,0-.47.01-.67.04s-.39.08-.56.15-.32.13-.45.19-.27.14-.4.26c-.14.11-.24.19-.3.24-.06.05-.15.12-.27.22l-.15.16v7Z"/>
    <path d="M104,267.81l.45-2.58c1.58,1.1,3.2,1.66,4.86,1.66.92,0,1.57-.19,1.96-.57s.59-.8.59-1.26-.17-.83-.51-1.13-.71-.49-1.11-.6-.91-.22-1.53-.34-1.07-.23-1.34-.33c-.84-.28-1.58-.77-2.22-1.46s-.96-1.54-.96-2.54c0-.46.07-.9.21-1.33s.38-.88.72-1.35.88-.84,1.6-1.12,1.61-.42,2.66-.42c1.52,0,3.07.34,4.64,1.01l-.44,2.46c-1.5-.82-3.02-1.23-4.54-1.23-.82,0-1.4.17-1.74.51s-.5.72-.5,1.14c0,.32.12.63.36.92s.56.5.96.64c.02,0,.56.12,1.62.35s1.85.49,2.37.76c1.58.88,2.37,2.15,2.37,3.81,0,1.14-.39,2.16-1.16,3.06s-2.09,1.35-3.97,1.35-3.65-.47-5.35-1.41Z"/>
    <path d="M115.76,257.05v-2.24h2.46v-4.06h2.7v4.06h4.2v2.24h-4.2v6.88c0,1.97.52,2.95,1.57,2.95.78,0,1.64-.35,2.58-1.06l.6,2.15c-1.5.82-3.12,1.23-4.86,1.23s-2.64-1.65-2.64-4.96v-7.2h-2.4Z"/>
    <path d="M127.73,264.99c0-1.32.81-2.33,2.44-3.03,1.63-.7,3.72-1.09,6.27-1.17v-1.05c0-.82-.1-1.42-.31-1.8-.48-.92-1.23-1.38-2.25-1.38-1.01.02-1.84.15-2.49.39-.64.24-1.39.67-2.25,1.3l-.2-2.52c1.66-.86,3.33-1.29,5-1.29,1.5,0,2.75.44,3.73,1.32.98.88,1.53,1.94,1.62,3.18l.03,1v9.05h-2.8v-1.08l-.03-.83c-.56.7-1.3,1.24-2.24,1.6-.94.37-1.88.55-2.84.55-1.17,0-2.08-.44-2.73-1.33s-.97-1.85-.97-2.89ZM130.48,264.93c0,.6.26,1.08.77,1.46.51.38,1.14.57,1.89.57.68,0,1.32-.15,1.89-.45.58-.3.99-.7,1.23-1.2.12-.26.18-.67.18-1.23v-1.89c-1.84.08-3.29.35-4.36.83-1.07.47-1.6,1.11-1.6,1.91Z"/>
    <path d="M143.22,268.98v-14.17h2.75v1.44l.04,1c1.06-1.79,2.57-2.68,4.53-2.68.8,0,1.48.12,2.05.36s.99.52,1.27.84.5.74.67,1.26.25.94.27,1.27.03.74.03,1.22v9.45h-2.89v-9.49c0-.34-.02-.63-.06-.86-.04-.23-.14-.51-.32-.83s-.47-.57-.9-.73-.98-.25-1.64-.25c-.62,0-1.14.15-1.57.46s-.74.71-.92,1.2-.3.92-.36,1.29c-.06.37-.09.74-.09,1.1v8.11h-2.89Z"/>
    <path d="M157.86,261.87c0-1.98.5-3.69,1.5-5.13s2.26-2.16,3.79-2.16,3.04.58,4.37,1.73v-8.18h2.83v20.84h-2.89v-1.77c-1.3,1.34-2.74,2.01-4.34,2.01-1.51,0-2.76-.72-3.76-2.16s-1.5-3.17-1.5-5.19ZM160.74,262.28c.04,1.44.33,2.53.88,3.29.7.94,1.71,1.41,3.03,1.41.5,0,.96-.12,1.4-.36s.73-.44.87-.6c.14-.16.32-.38.53-.67v-7.39c-.71-.75-1.53-1.13-2.46-1.13h-.03c-1.28,0-2.3.4-3.08,1.19-.76.78-1.14,2-1.14,3.64v.63Z"/>
  </g>
  <g>
    <path d="M35.11,401.98v-20.84h8.22c1.56,0,2.98.31,4.26.93,1.28.62,2.32,1.44,3.13,2.46.81,1.02,1.44,2.15,1.88,3.39.44,1.24.66,2.51.66,3.82,0,2.76-.85,5.08-2.55,6.97-1.7,1.88-3.7,2.96-6.01,3.22-.36.04-.9.06-1.61.06h-7.98ZM38.17,399.58h3.47c.1,0,.24,0,.44.01s.34.01.44.01c1.46,0,2.72-.23,3.76-.69,1.04-.46,1.84-1.09,2.38-1.89.54-.8.93-1.63,1.17-2.5.24-.87.36-1.8.36-2.79s-.12-2-.36-2.91-.63-1.77-1.17-2.6c-.54-.83-1.34-1.49-2.39-1.97s-2.31-.72-3.79-.72h-4.29l-.03.85v15.19Z"/>
    <path d="M56.99,383.97v-2.81h2.81v2.81h-2.81ZM56.99,401.98v-14.17h2.83v14.17h-2.83Z"/>
    <path d="M62.65,394.81c0-2.06.65-3.81,1.95-5.24s2.86-2.15,4.67-2.15c.5,0,.99.05,1.47.16s.99.32,1.52.64.98.73,1.36,1.23.7,1.18.96,2.04.39,1.85.39,2.97h-9.65v.29c0,1.48.43,2.72,1.3,3.71s1.91,1.49,3.13,1.49c1.66,0,3.27-.57,4.83-1.71l.21,2.43c-1.58,1.02-3.26,1.52-5.04,1.52-2.08,0-3.78-.73-5.11-2.2s-1.99-3.2-1.99-5.2ZM65.71,392.7h6.84c-.48-2.02-1.57-3.03-3.27-3.03-.74,0-1.45.27-2.12.81s-1.15,1.28-1.46,2.23Z"/>
    <path d="M88.28,401.98v-20.76h14.55v2.4h-11.4v6.36h10.53v2.4h-10.53v7.08h11.85v2.52h-15Z"/>
    <path d="M106.55,398.05v-10.24h2.89v10.02c.02.98.09,1.57.21,1.77.22.32.91.48,2.07.48s2.05-.31,2.6-.93.87-1.24.95-1.85c.02-.2.03-.51.03-.94v-8.55h2.89v14.17h-2.83v-2.26c-1.42,1.66-3.29,2.49-5.61,2.49-.72,0-1.31-.12-1.77-.37s-.78-.61-.97-1.09-.31-.91-.36-1.29-.07-.85-.07-1.41Z"/>
    <path d="M122.08,401.98v-20.84h2.83v20.84h-2.83Z"/>
    <path d="M127.73,394.81c0-2.06.65-3.81,1.95-5.24s2.86-2.15,4.67-2.15c.5,0,.99.05,1.47.16s.99.32,1.52.64.98.73,1.36,1.23.7,1.18.96,2.04.39,1.85.39,2.97h-9.65v.29c0,1.48.43,2.72,1.3,3.71s1.91,1.49,3.13,1.49c1.66,0,3.27-.57,4.83-1.71l.21,2.43c-1.58,1.02-3.26,1.52-5.04,1.52-2.08,0-3.78-.73-5.11-2.2s-1.99-3.2-1.99-5.2ZM130.79,392.7h6.84c-.48-2.02-1.57-3.03-3.27-3.03-.74,0-1.45.27-2.12.81s-1.15,1.28-1.46,2.23Z"/>
    <path d="M142.94,401.98v-14.17h2.7v3.03c1.18-2.14,2.93-3.23,5.26-3.27v2.52c-.54,0-1.07.08-1.6.23-.53.15-1.08.39-1.64.72s-1.02.82-1.36,1.47-.52,1.43-.52,2.34v7.12h-2.83Z"/>
    <path d="M152.22,400.81l.45-2.58c1.58,1.1,3.2,1.66,4.86,1.66.92,0,1.57-.19,1.96-.57s.59-.8.59-1.26-.17-.83-.51-1.13-.71-.49-1.11-.6-.91-.22-1.53-.34-1.07-.23-1.34-.33c-.84-.28-1.58-.77-2.22-1.46s-.96-1.54-.96-2.54c0-.46.07-.9.21-1.33s.38-.88.72-1.35.88-.84,1.6-1.12,1.61-.42,2.66-.42c1.52,0,3.07.34,4.64,1.01l-.44,2.46c-1.5-.82-3.02-1.23-4.54-1.23-.82,0-1.4.17-1.74.51s-.5.72-.5,1.14c0,.32.12.63.36.92s.56.5.96.64c.02,0,.56.12,1.62.35s1.85.49,2.37.76c1.58.88,2.37,2.15,2.37,3.81,0,1.14-.39,2.16-1.16,3.06s-2.09,1.35-3.97,1.35-3.65-.47-5.35-1.41Z"/>
    <path d="M164.47,394.87c0-2.02.66-3.77,1.97-5.24s2.99-2.2,5.03-2.2c1.04,0,1.87.09,2.5.27s1.43.52,2.4,1.02l-.42,2.46c-.84-.54-1.55-.91-2.12-1.11s-1.35-.31-2.35-.31c-.48,0-.93.07-1.35.21s-.85.38-1.3.73-.81.87-1.07,1.59-.4,1.59-.4,2.61c0,1.78.41,3.05,1.23,3.82s1.75,1.16,2.8,1.16c1.68,0,3.33-.55,4.95-1.66l.21,2.49c-1.66,1-3.37,1.49-5.13,1.49-2,0-3.66-.73-4.97-2.18s-1.97-3.17-1.97-5.16Z"/>
    <path d="M179.34,401.98v-20.84h2.83v7.78l.03,1.26c1.1-1.73,2.59-2.59,4.47-2.59.8,0,1.48.12,2.05.36s.99.52,1.27.84.5.74.67,1.26.25.94.27,1.27.03.74.03,1.22v9.45h-2.89v-9.49c0-.34-.02-.63-.06-.86-.04-.23-.14-.51-.32-.83s-.47-.57-.9-.73-.98-.25-1.64-.25c-.62,0-1.14.15-1.57.46s-.74.71-.92,1.2-.3.92-.36,1.29c-.06.37-.09.74-.09,1.1v8.11h-2.89Z"/>
    <path d="M193.78,394.81c0-2.06.65-3.81,1.95-5.24s2.86-2.15,4.67-2.15c.5,0,.99.05,1.47.16s.99.32,1.52.64.98.73,1.36,1.23.7,1.18.96,2.04.39,1.85.39,2.97h-9.65v.29c0,1.48.43,2.72,1.3,3.71s1.91,1.49,3.13,1.49c1.66,0,3.27-.57,4.83-1.71l.21,2.43c-1.58,1.02-3.26,1.52-5.04,1.52-2.08,0-3.78-.73-5.11-2.2s-1.99-3.2-1.99-5.2ZM196.84,392.7h6.84c-.48-2.02-1.57-3.03-3.27-3.03-.74,0-1.45.27-2.12.81s-1.15,1.28-1.46,2.23Z"/>
    <path d="M12.16,437.98v-1.2c0-.28.13-.62.38-1l11.22-16.32h-11.15v-2.33h15.29v1.28c0,.08-.01.17-.04.26s-.05.14-.06.16-.05.08-.12.18-.13.18-.17.24l-11.22,16.32h11.79v2.4h-15.92Z"/>
    <path d="M30.84,433.99c0-1.32.81-2.33,2.44-3.03s3.72-1.09,6.27-1.17v-1.05c0-.82-.1-1.42-.31-1.8-.48-.92-1.23-1.38-2.25-1.38-1.01.02-1.84.15-2.49.39s-1.39.67-2.25,1.3l-.2-2.52c1.66-.86,3.32-1.29,5-1.29,1.5,0,2.75.44,3.73,1.32.99.88,1.53,1.94,1.62,3.18l.03,1v9.05h-2.8v-1.08l-.03-.83c-.56.7-1.3,1.24-2.24,1.6s-1.88.55-2.84.55c-1.17,0-2.08-.44-2.73-1.33s-.97-1.85-.97-2.89ZM33.59,433.93c0,.6.26,1.08.77,1.46.51.38,1.14.57,1.89.57.69,0,1.32-.15,1.89-.45.58-.3.99-.7,1.23-1.2.12-.26.18-.67.18-1.23v-1.89c-1.84.08-3.29.35-4.36.83-1.07.47-1.6,1.11-1.6,1.91Z"/>
    <path d="M46.34,437.98v-20.84h2.83v7.78l.03,1.26c1.1-1.73,2.59-2.59,4.47-2.59.8,0,1.48.12,2.05.36s.99.52,1.27.84.51.74.67,1.26.25.94.27,1.27.03.74.03,1.22v9.45h-2.89v-9.49c0-.34-.02-.63-.06-.86-.04-.23-.14-.51-.31-.83s-.47-.57-.9-.73-.98-.25-1.64-.25c-.62,0-1.14.15-1.57.46s-.73.71-.92,1.2-.3.92-.36,1.29c-.06.37-.09.74-.09,1.1v8.11h-2.89Z"/>
    <path d="M61.86,437.98v-20.84h2.83v20.84h-2.83Z"/>
    <path d="M78.58,419.97v-2.81h2.81v2.81h-2.81ZM78.58,437.98v-14.17h2.83v14.17h-2.83Z"/>
    <path d="M84.23,436.81l.45-2.58c1.58,1.1,3.2,1.66,4.86,1.66.92,0,1.57-.19,1.96-.57s.59-.8.59-1.26-.17-.83-.51-1.13-.71-.49-1.11-.6-.91-.22-1.53-.34-1.07-.23-1.34-.33c-.84-.28-1.58-.77-2.22-1.46s-.96-1.54-.96-2.54c0-.46.07-.9.21-1.33s.38-.88.72-1.35.88-.84,1.6-1.12,1.61-.42,2.66-.42c1.52,0,3.07.34,4.64,1.01l-.44,2.46c-1.5-.82-3.02-1.23-4.54-1.23-.82,0-1.4.17-1.74.51s-.51.72-.51,1.14c0,.32.12.63.36.92s.56.5.96.64c.02,0,.56.12,1.62.35s1.85.49,2.37.76c1.58.88,2.37,2.15,2.37,3.81,0,1.14-.39,2.16-1.16,3.06s-2.09,1.35-3.97,1.35-3.65-.47-5.35-1.41Z"/>
    <path d="M96,426.05v-2.24h2.46v-4.06h2.7v4.06h4.2v2.24h-4.2v6.88c0,1.97.52,2.95,1.57,2.95.78,0,1.64-.35,2.58-1.06l.6,2.15c-1.5.82-3.12,1.23-4.86,1.23s-2.64-1.65-2.64-4.96v-7.2h-2.4Z"/>
    <path d="M117.82,430.87c0-1.98.5-3.69,1.5-5.13s2.26-2.16,3.79-2.16,3.04.58,4.37,1.73v-8.18h2.83v20.84h-2.89v-1.77c-1.3,1.34-2.74,2.01-4.34,2.01-1.51,0-2.76-.72-3.76-2.16s-1.5-3.17-1.5-5.19ZM120.71,431.28c.04,1.44.33,2.53.88,3.29.7.94,1.71,1.41,3.03,1.41.5,0,.96-.12,1.4-.36s.73-.44.87-.6c.14-.16.32-.38.53-.67v-7.39c-.71-.75-1.53-1.13-2.46-1.13h-.03c-1.28,0-2.3.4-3.08,1.19-.76.78-1.14,2-1.14,3.64v.63Z"/>
    <path d="M134.21,419.97v-2.81h2.81v2.81h-2.81ZM134.21,437.98v-14.17h2.83v14.17h-2.83Z"/>
    <path d="M139.87,430.81c0-2.06.65-3.81,1.95-5.24s2.86-2.15,4.67-2.15c.5,0,.99.05,1.47.16s.99.32,1.52.64.98.73,1.36,1.23.7,1.18.96,2.04.39,1.85.39,2.97h-9.65v.29c0,1.48.43,2.72,1.3,3.71s1.91,1.49,3.13,1.49c1.66,0,3.27-.57,4.83-1.71l.21,2.43c-1.58,1.02-3.26,1.52-5.04,1.52-2.08,0-3.78-.73-5.11-2.2s-1.99-3.2-1.99-5.2ZM142.93,428.7h6.84c-.48-2.02-1.57-3.03-3.27-3.03-.74,0-1.45.27-2.12.81s-1.16,1.28-1.46,2.23Z"/>
    <path d="M165.56,437.98v-20.84h7.18c2.1,0,3.84.37,5.22,1.1.96.5,1.71,1.13,2.26,1.89.55.76.83,1.55.83,2.35,0,1.48-.85,2.7-2.56,3.66-.51.28-1.33.6-2.45.94,1.77.32,3.19.96,4.26,1.92,1.07.96,1.61,2.04,1.61,3.24,0,1.44-.65,2.69-1.96,3.77-1.31,1.08-2.91,1.72-4.81,1.93-.34.04-.87.06-1.58.06h-8ZM168.56,426.01h3.63c1.8,0,3.24-.35,4.33-1.05s1.63-1.51,1.63-2.43-.58-1.6-1.74-2.16c-1.16-.56-2.62-.84-4.39-.84h-3.44l-.03.96v5.51ZM168.56,435.58h3.63c.08,0,.19,0,.34.01s.26.01.35.01c2.08,0,3.61-.36,4.6-1.09s1.48-1.5,1.48-2.32c0-.9-.47-1.73-1.41-2.49s-2.21-1.22-3.81-1.38c-.34-.04-.84-.06-1.49-.07h-3.66l-.03,1.05v6.27Z"/>
    <path d="M184.87,433.99c0-1.32.81-2.33,2.44-3.03s3.72-1.09,6.27-1.17v-1.05c0-.82-.1-1.42-.31-1.8-.48-.92-1.23-1.38-2.25-1.38-1.01.02-1.84.15-2.49.39s-1.39.67-2.25,1.3l-.2-2.52c1.66-.86,3.32-1.29,5-1.29,1.5,0,2.75.44,3.73,1.32.99.88,1.53,1.94,1.62,3.18l.03,1v9.05h-2.8v-1.08l-.03-.83c-.56.7-1.3,1.24-2.24,1.6s-1.88.55-2.84.55c-1.17,0-2.08-.44-2.73-1.33s-.97-1.85-.97-2.89ZM187.62,433.93c0,.6.26,1.08.77,1.46.51.38,1.14.57,1.89.57.69,0,1.32-.15,1.89-.45.58-.3.99-.7,1.23-1.2.12-.26.18-.67.18-1.23v-1.89c-1.84.08-3.29.35-4.36.83-1.07.47-1.6,1.11-1.6,1.91Z"/>
    <path d="M199.31,436.81l.45-2.58c1.58,1.1,3.2,1.66,4.86,1.66.92,0,1.57-.19,1.96-.57s.59-.8.59-1.26-.17-.83-.51-1.13-.71-.49-1.11-.6-.91-.22-1.53-.34-1.07-.23-1.34-.33c-.84-.28-1.58-.77-2.22-1.46s-.96-1.54-.96-2.54c0-.46.07-.9.21-1.33s.38-.88.72-1.35.88-.84,1.6-1.12,1.61-.42,2.66-.42c1.52,0,3.07.34,4.64,1.01l-.44,2.46c-1.5-.82-3.02-1.23-4.54-1.23-.82,0-1.4.17-1.74.51s-.51.72-.51,1.14c0,.32.12.63.36.92s.56.5.96.64c.02,0,.56.12,1.62.35s1.85.49,2.37.76c1.58.88,2.37,2.15,2.37,3.81,0,1.14-.39,2.16-1.16,3.06s-2.09,1.35-3.97,1.35-3.65-.47-5.35-1.41Z"/>
    <path d="M212.45,419.97v-2.81h2.81v2.81h-2.81ZM212.45,437.98v-14.17h2.83v14.17h-2.83Z"/>
    <path d="M218.1,436.81l.45-2.58c1.58,1.1,3.2,1.66,4.86,1.66.92,0,1.57-.19,1.96-.57s.59-.8.59-1.26-.17-.83-.51-1.13-.71-.49-1.11-.6-.91-.22-1.53-.34-1.07-.23-1.34-.33c-.84-.28-1.58-.77-2.22-1.46s-.96-1.54-.96-2.54c0-.46.07-.9.21-1.33s.38-.88.72-1.35.88-.84,1.6-1.12,1.61-.42,2.66-.42c1.52,0,3.07.34,4.64,1.01l-.44,2.46c-1.5-.82-3.02-1.23-4.54-1.23-.82,0-1.4.17-1.74.51s-.51.72-.51,1.14c0,.32.12.63.36.92s.56.5.96.64c.02,0,.56.12,1.62.35s1.85.49,2.37.76c1.58.88,2.37,2.15,2.37,3.81,0,1.14-.39,2.16-1.16,3.06s-2.09,1.35-3.97,1.35-3.65-.47-5.35-1.41Z"/>
    <path d="M69.67,466.87c0-1.98.5-3.69,1.5-5.13s2.26-2.16,3.79-2.16,3.04.58,4.37,1.73v-8.18h2.83v20.84h-2.89v-1.77c-1.3,1.34-2.74,2.01-4.34,2.01-1.51,0-2.76-.72-3.76-2.16s-1.5-3.17-1.5-5.19ZM72.55,467.28c.04,1.44.33,2.53.88,3.29.7.94,1.71,1.41,3.03,1.41.5,0,.96-.12,1.4-.36s.73-.44.87-.6c.14-.16.32-.38.53-.67v-7.39c-.71-.75-1.53-1.13-2.46-1.13h-.03c-1.28,0-2.3.4-3.08,1.19-.76.78-1.14,2-1.14,3.64v.63Z"/>
    <path d="M84.97,466.81c0-2.06.65-3.81,1.95-5.24s2.86-2.15,4.67-2.15c.5,0,.99.05,1.47.16s.99.32,1.52.64.98.73,1.36,1.23.7,1.18.96,2.04.39,1.85.39,2.97h-9.65v.29c0,1.48.43,2.72,1.3,3.71s1.91,1.49,3.13,1.49c1.66,0,3.27-.57,4.83-1.71l.21,2.43c-1.58,1.02-3.26,1.52-5.04,1.52-2.08,0-3.78-.73-5.11-2.2s-1.99-3.2-1.99-5.2ZM88.03,464.7h6.84c-.48-2.02-1.57-3.03-3.27-3.03-.74,0-1.45.27-2.12.81s-1.15,1.28-1.46,2.23Z"/>
    <path d="M99.09,472.81l.45-2.58c1.58,1.1,3.2,1.66,4.86,1.66.92,0,1.57-.19,1.96-.57s.59-.8.59-1.26-.17-.83-.51-1.13-.71-.49-1.11-.6-.91-.22-1.53-.34-1.07-.23-1.34-.33c-.84-.28-1.58-.77-2.22-1.46s-.96-1.54-.96-2.54c0-.46.07-.9.21-1.33s.38-.88.72-1.35.88-.84,1.6-1.12,1.61-.42,2.66-.42c1.52,0,3.07.34,4.64,1.01l-.44,2.46c-1.5-.82-3.02-1.23-4.54-1.23-.82,0-1.4.17-1.74.51s-.5.72-.5,1.14c0,.32.12.63.36.92s.56.5.96.64c.02,0,.56.12,1.62.35s1.85.49,2.37.76c1.58.88,2.37,2.15,2.37,3.81,0,1.14-.39,2.16-1.16,3.06s-2.09,1.35-3.97,1.35-3.65-.47-5.35-1.41Z"/>
    <path d="M122.21,473.98v-20.84h2.83v20.84h-2.83Z"/>
    <path d="M128.92,473.98v-14.17h2.75v1.44l.04,1c1.06-1.79,2.57-2.68,4.53-2.68.8,0,1.48.12,2.05.36s.99.52,1.27.84.5.74.67,1.26.25.94.27,1.27.03.74.03,1.22v9.45h-2.89v-9.49c0-.34-.02-.63-.06-.86-.04-.23-.14-.51-.32-.83s-.47-.57-.9-.73-.98-.25-1.64-.25c-.62,0-1.14.15-1.57.46s-.74.71-.92,1.2-.3.92-.36,1.29c-.06.37-.09.74-.09,1.1v8.11h-2.89Z"/>
    <path d="M144.84,466.06c0-6.4,1.95-11.26,5.86-14.58h2.29c-.46.46-.84.86-1.14,1.2s-.75.96-1.33,1.86-1.04,1.83-1.39,2.79-.67,2.21-.96,3.75-.44,3.2-.44,4.98.15,3.44.44,4.98.61,2.79.96,3.75.81,1.89,1.39,2.79,1.02,1.52,1.33,1.86.68.74,1.14,1.2h-2.29c-3.91-3.32-5.86-8.18-5.86-14.58Z"/>
    <path d="M155.59,466.81c0-2.06.65-3.81,1.95-5.24s2.86-2.15,4.67-2.15c.5,0,.99.05,1.47.16s.99.32,1.52.64.98.73,1.36,1.23.7,1.18.96,2.04.39,1.85.39,2.97h-9.65v.29c0,1.48.43,2.72,1.3,3.71s1.91,1.49,3.13,1.49c1.66,0,3.27-.57,4.83-1.71l.21,2.43c-1.58,1.02-3.26,1.52-5.04,1.52-2.08,0-3.78-.73-5.11-2.2s-1.99-3.2-1.99-5.2ZM158.65,464.7h6.84c-.48-2.02-1.57-3.03-3.27-3.03-.74,0-1.45.27-2.12.81s-1.15,1.28-1.46,2.23Z"/>
    <path d="M170.59,480.64c.48-.48.86-.88,1.13-1.2s.71-.94,1.3-1.86,1.06-1.85,1.41-2.79.67-2.19.96-3.74.43-3.22.43-5-.13-3.37-.4-4.89-.58-2.75-.93-3.71-.8-1.86-1.33-2.73-.97-1.49-1.29-1.86-.68-.77-1.08-1.19l-.21-.21h2.24c3.92,3.34,5.88,8.2,5.88,14.58s-1.96,11.24-5.88,14.58h-2.24Z"/>
  </g>
  <g>
    <path d="M51.46,607.98v-20.76h14.12v2.4h-10.97v6.77h9.65v2.4h-9.65v9.19h-3.15Z"/>
    <path d="M67.98,604.05v-10.24h2.89v10.02c.02.98.09,1.57.21,1.77.22.32.91.48,2.07.48s2.05-.31,2.6-.93.87-1.24.94-1.85c.02-.2.03-.51.03-.94v-8.55h2.89v14.17h-2.83v-2.26c-1.42,1.66-3.29,2.49-5.61,2.49-.72,0-1.31-.12-1.77-.37s-.78-.61-.97-1.09-.31-.91-.36-1.29-.07-.85-.07-1.41Z"/>
    <path d="M83.48,607.98v-14.17h2.75v1.44l.04,1c1.06-1.79,2.57-2.68,4.53-2.68.8,0,1.48.12,2.05.36s.99.52,1.27.84.51.74.67,1.26.25.94.27,1.28.03.74.03,1.21v9.45h-2.89v-9.49c0-.34-.02-.63-.06-.86-.04-.23-.14-.51-.31-.83s-.47-.57-.9-.73-.98-.25-1.64-.25c-.62,0-1.14.15-1.57.46-.43.31-.73.71-.92,1.2-.18.49-.3.92-.36,1.29s-.09.74-.09,1.1v8.11h-2.89Z"/>
    <path d="M99.07,607.98v-20.85h2.67v12.32l5.26-5.64h3.41l-4.98,5.41,5.71,8.76h-3.06l-4.48-6.87-1.92,2.07v4.8h-2.61Z"/>
    <path d="M112.24,596.05v-2.24h2.46v-4.06h2.7v4.06h4.2v2.24h-4.2v6.88c0,1.97.52,2.95,1.57,2.95.78,0,1.64-.35,2.58-1.06l.6,2.16c-1.5.82-3.12,1.23-4.86,1.23s-2.64-1.65-2.64-4.96v-7.2h-2.4Z"/>
    <path d="M124.98,589.97v-2.81h2.81v2.81h-2.81ZM124.98,607.98v-14.17h2.83v14.17h-2.83Z"/>
    <path d="M132.72,606.15c-1.39-1.38-2.09-3.12-2.09-5.21s.69-3.87,2.07-5.31,3.02-2.16,4.93-2.16,3.64.75,4.98,2.25,2.01,3.25,2.01,5.25-.69,3.79-2.07,5.17-3.02,2.08-4.92,2.08-3.52-.69-4.91-2.07ZM133.52,600.51c0,1.86.37,3.23,1.11,4.12.72.84,1.72,1.26,3,1.26,1.2,0,2.16-.37,2.87-1.11.82-.84,1.23-2.28,1.23-4.32,0-1.7-.39-2.92-1.16-3.65s-1.75-1.1-2.94-1.1c-2.74,0-4.12,1.6-4.12,4.8Z"/>
    <path d="M147.44,607.98v-14.17h2.75v1.44l.04,1c1.06-1.79,2.57-2.68,4.53-2.68.8,0,1.48.12,2.05.36s.99.52,1.27.84.51.74.67,1.26.25.94.27,1.28.03.74.03,1.21v9.45h-2.89v-9.49c0-.34-.02-.63-.06-.86-.04-.23-.14-.51-.31-.83s-.47-.57-.9-.73-.98-.25-1.64-.25c-.62,0-1.14.15-1.57.46-.43.31-.73.71-.92,1.2-.18.49-.3.92-.36,1.29s-.09.74-.09,1.1v8.11h-2.89Z"/>
    <path d="M161.88,600.81c0-2.06.65-3.81,1.95-5.24s2.86-2.15,4.67-2.15c.5,0,.99.05,1.47.16s.99.32,1.52.64.98.73,1.36,1.23.7,1.18.96,2.04.39,1.85.39,2.97h-9.65v.29c0,1.48.43,2.72,1.3,3.71s1.91,1.49,3.13,1.49c1.66,0,3.27-.57,4.83-1.71l.21,2.43c-1.58,1.02-3.26,1.52-5.04,1.52-2.08,0-3.78-.73-5.11-2.2s-1.99-3.2-1.99-5.2ZM164.94,598.7h6.84c-.48-2.02-1.57-3.03-3.27-3.03-.74,0-1.45.27-2.12.81s-1.16,1.28-1.46,2.23Z"/>
    <path d="M177.05,607.98v-14.17h2.75v1.44l.04,1c1.06-1.79,2.57-2.68,4.53-2.68.8,0,1.48.12,2.05.36s.99.52,1.27.84.51.74.67,1.26.25.94.27,1.28.03.74.03,1.21v9.45h-2.89v-9.49c0-.34-.02-.63-.06-.86-.04-.23-.14-.51-.31-.83s-.47-.57-.9-.73-.98-.25-1.64-.25c-.62,0-1.14.15-1.57.46-.43.31-.73.71-.92,1.2-.18.49-.3.92-.36,1.29s-.09.74-.09,1.1v8.11h-2.89Z"/>
  </g>
  <g>
    <path d="M33.6,781.98v-20.85h3.15v20.85h-3.15Z"/>
    <path d="M41.11,781.98v-14.17h2.75v1.44l.04,1c1.06-1.79,2.57-2.68,4.53-2.68.34,0,.66.02.95.06s.56.09.79.16.44.16.64.27c.2.11.37.22.51.31.14.1.27.22.38.37.12.15.21.28.28.38.07.1.15.23.23.38.08.16.13.27.15.34s.05.17.1.3c.05.13.07.2.07.22,1.03-1.87,2.56-2.8,4.61-2.8h.03c.78,0,1.46.12,2.02.36.57.24.99.52,1.28.83s.51.72.67,1.23c.16.51.26.93.29,1.27s.04.76.04,1.26v9.45h-2.89v-9.31c-.04-.92-.19-1.56-.46-1.92-.46-.62-1.3-.92-2.53-.92-.76,0-1.43.31-2.01.95-.58.63-.87,1.67-.87,3.1v8.11h-2.89v-9.31c-.02-.88-.14-1.49-.37-1.83-.43-.67-1.27-1.01-2.52-1.01h-.06c-.76,0-1.44.31-2.02.95s-.88,1.67-.88,3.1v8.11h-2.89Z"/>
    <path d="M64.59,777.99c0-1.32.81-2.33,2.44-3.03s3.72-1.09,6.27-1.17v-1.05c0-.82-.1-1.42-.31-1.8-.48-.92-1.23-1.38-2.25-1.38-1.01.02-1.84.15-2.49.39s-1.39.67-2.25,1.3l-.2-2.52c1.66-.86,3.32-1.29,5-1.29,1.5,0,2.75.44,3.73,1.32.99.88,1.53,1.94,1.62,3.18l.03,1v9.05h-2.8v-1.08l-.03-.84c-.56.7-1.3,1.24-2.24,1.6s-1.88.55-2.84.55c-1.17,0-2.08-.45-2.73-1.33s-.97-1.85-.97-2.88ZM67.35,777.93c0,.6.26,1.08.77,1.46.51.38,1.14.57,1.89.57.69,0,1.32-.15,1.89-.45.58-.3.99-.7,1.23-1.2.12-.26.18-.67.18-1.23v-1.89c-1.84.08-3.29.35-4.36.83-1.07.47-1.6,1.11-1.6,1.91Z"/>
    <path d="M79.23,774.86c0-2.03.58-3.75,1.72-5.16,1.15-1.42,2.51-2.12,4.07-2.12s2.79.69,3.86,2.08v-2.08h2.83v14.14c0,1.72-.55,3.11-1.65,4.18s-2.48,1.6-4.14,1.6c-1.84,0-3.68-.45-5.54-1.34v-2.46c.58.32,1.04.57,1.39.73.35.17.91.35,1.68.54s1.57.29,2.41.29c.76,0,1.44-.27,2.05-.82.61-.54.91-1.45.91-2.73v-2.1l-.03-1.01c-.17.34-.4.67-.67,1-.27.33-.73.68-1.37,1.06-.64.38-1.34.56-2.1.56-1.44,0-2.7-.6-3.79-1.8-1.09-1.2-1.64-2.72-1.64-4.57ZM82.11,774.86c0,1.19.39,2.18,1.17,2.96.78.78,1.68,1.17,2.69,1.17.68,0,1.25-.25,1.7-.74s.75-1.05.9-1.69c.15-.63.24-1.32.26-2.07h.06v-2.17c0-.58-.24-1.14-.73-1.69-.49-.55-1.09-.82-1.81-.82-1.08,0-2.06.48-2.92,1.44-.87.96-1.3,2.16-1.3,3.6Z"/>
    <path d="M95.62,763.97v-2.81h2.81v2.81h-2.81ZM95.62,781.98v-14.17h2.83v14.17h-2.83Z"/>
    <path d="M102.33,781.98v-14.17h2.75v1.44l.04,1c1.06-1.79,2.57-2.68,4.53-2.68.8,0,1.48.12,2.05.36s.99.52,1.27.84.51.74.67,1.26.25.94.27,1.28.03.74.03,1.21v9.45h-2.89v-9.49c0-.34-.02-.63-.06-.86-.04-.23-.14-.51-.31-.83s-.47-.57-.9-.73-.98-.25-1.64-.25c-.62,0-1.14.15-1.57.46-.43.31-.73.71-.92,1.2-.18.49-.3.92-.36,1.29s-.09.74-.09,1.1v8.11h-2.89Z"/>
    <path d="M117.11,777.99c0-1.32.81-2.33,2.44-3.03,1.62-.7,3.71-1.09,6.26-1.17v-1.05c0-.82-.1-1.42-.31-1.8-.48-.92-1.22-1.38-2.23-1.38-1.02.02-1.85.15-2.49.39s-1.4.67-2.26,1.3l-.21-2.52c1.66-.86,3.33-1.29,5.01-1.29,1.5,0,2.74.44,3.72,1.32s1.52,1.94,1.62,3.18l.03,1v9.05h-2.8v-1.08l-.03-.84c-.56.7-1.3,1.24-2.23,1.6s-1.87.55-2.83.55c-1.18,0-2.09-.45-2.73-1.33-.65-.89-.97-1.85-.97-2.88ZM118.79,764.78v-2.81h2.83v2.81h-2.83ZM119.86,777.93c0,.6.26,1.08.77,1.46s1.14.57,1.89.57c.68,0,1.31-.15,1.88-.45s.98-.7,1.23-1.2c.12-.26.17-.67.17-1.23v-1.89c-1.84.08-3.29.35-4.35.83s-1.6,1.11-1.6,1.91ZM124.9,764.78v-2.81h2.83v2.81h-2.83Z"/>
    <path d="M131.74,781.98v-14.17h2.7v3.04c1.18-2.14,2.93-3.23,5.26-3.27v2.52c-.54,0-1.07.08-1.6.23-.53.15-1.08.39-1.64.72s-1.02.82-1.36,1.47c-.35.65-.52,1.43-.52,2.34v7.12h-2.83Z"/>
    <path d="M141.03,774.81c0-2.06.65-3.81,1.95-5.24s2.86-2.15,4.67-2.15c.5,0,.99.05,1.47.16s.99.32,1.52.64.98.73,1.36,1.23.7,1.18.96,2.04.39,1.85.39,2.97h-9.65v.29c0,1.48.43,2.72,1.3,3.71s1.91,1.49,3.13,1.49c1.66,0,3.27-.57,4.83-1.71l.21,2.43c-1.58,1.02-3.26,1.52-5.04,1.52-2.08,0-3.78-.73-5.11-2.2s-1.99-3.2-1.99-5.2ZM144.09,772.7h6.84c-.48-2.02-1.57-3.03-3.27-3.03-.74,0-1.45.27-2.12.81s-1.16,1.28-1.46,2.23Z"/>
    <path d="M166,781.98v-1.2c0-.28.13-.62.38-1l11.22-16.32h-11.15v-2.33h15.29v1.28c0,.08-.01.17-.04.26s-.05.14-.06.16-.05.08-.12.18-.13.18-.17.24l-11.22,16.32h11.79v2.4h-15.92Z"/>
    <path d="M184.68,777.99c0-1.32.81-2.33,2.44-3.03s3.72-1.09,6.27-1.17v-1.05c0-.82-.1-1.42-.31-1.8-.48-.92-1.23-1.38-2.25-1.38-1.01.02-1.84.15-2.49.39s-1.39.67-2.25,1.3l-.2-2.52c1.66-.86,3.32-1.29,5-1.29,1.5,0,2.75.44,3.73,1.32.99.88,1.53,1.94,1.62,3.18l.03,1v9.05h-2.8v-1.08l-.03-.84c-.56.7-1.3,1.24-2.24,1.6s-1.88.55-2.84.55c-1.17,0-2.08-.45-2.73-1.33s-.97-1.85-.97-2.88ZM187.43,777.93c0,.6.26,1.08.77,1.46.51.38,1.14.57,1.89.57.69,0,1.32-.15,1.89-.45.58-.3.99-.7,1.23-1.2.12-.26.18-.67.18-1.23v-1.89c-1.84.08-3.29.35-4.36.83-1.07.47-1.6,1.11-1.6,1.91Z"/>
    <path d="M200.18,781.98v-20.85h2.83v7.78l.03,1.26c1.1-1.73,2.59-2.59,4.47-2.59.8,0,1.48.12,2.05.36s.99.52,1.27.84.51.74.67,1.26.25.94.27,1.28.03.74.03,1.21v9.45h-2.89v-9.49c0-.34-.02-.63-.06-.86-.04-.23-.14-.51-.31-.83s-.47-.57-.9-.73-.98-.25-1.64-.25c-.62,0-1.14.15-1.57.46-.43.31-.73.71-.92,1.2-.18.49-.3.92-.36,1.29s-.09.74-.09,1.1v8.11h-2.89Z"/>
    <path d="M215.71,781.98v-20.85h2.83v20.85h-2.83Z"/>
  </g>
</svg>