<?xml version="1.0" encoding="UTF-8"?>
<svg id="Ebene_1" data-name="Ebene 1" xmlns="http://www.w3.org/2000/svg" viewBox="0 0 987 698">
  <rect width="987" height="698" fill="#f9f2db"/>
  <path d="M308.6,591.56h-165.98l136.49-94.34c18.59,26.76,29.49,59.28,29.49,94.34Z" fill="#30628b"/>
  <path d="M844.49,464.54v127.02h-132.01c14.3-64.68,66.45-115.15,132.01-127.02Z" fill="#f0c34e"/>
  <path d="M844.49,106.45v165.61c-56.48,0-106.36-28.28-136.25-71.45l136.25-94.16Z" fill="#c03b2d"/>
  <path d="M848.4,595.47H130.11L848.4,99v496.47ZM155.15,587.65h685.44V113.9l-130.12,89.93-429.13,296.61-126.19,87.22Z"/>
  <path d="M246.56,563.85c-2.11-2.59-3.16-5.73-3.16-9.42s1.04-6.84,3.12-9.46c2.08-2.61,4.59-3.92,7.53-3.92,1.17,0,2.27.26,3.3.79,1.02.53,1.88,1.16,2.56,1.89.69.73,1.34,1.67,1.96,2.83s1.1,2.17,1.43,3.05c.33.88.67,1.89,1.03,3.01l1.6-4.18,2.46-7.4h3.55c-2.15,6.79-4.1,12.04-5.85,15.76-.21.48-.23.96-.05,1.46,1.35,3.97,2.76,5.96,4.22,5.96.28,0,.52-.08.69-.23.18-.15.29-.29.33-.43.04-.14.07-.25.07-.33h3.55c-.07,1.42-.57,2.53-1.51,3.31-.93.78-1.98,1.17-3.14,1.17-.77,0-1.5-.17-2.22-.52s-1.27-.69-1.67-1.01c-.4-.32-.85-.88-1.35-1.67-.5-.79-.8-1.3-.91-1.55s-.34-.74-.69-1.5c-2.71,4.17-5.81,6.25-9.32,6.25-2.92,0-5.43-1.29-7.54-3.88ZM246.95,554.75c.04,1.84.28,3.43.73,4.77.45,1.34,1.06,2.34,1.83,2.99s1.51,1.11,2.24,1.38c.73.26,1.48.4,2.24.4,2.26,0,4.49-1.52,6.68-4.56.84-1.34,1.25-2.12,1.25-2.33,0-.25-.16-.97-.48-2.17-.36-1.27-.61-2.16-.76-2.66-.15-.5-.42-1.28-.8-2.34-.38-1.06-.74-1.84-1.07-2.36-.33-.51-.73-1.07-1.2-1.68-.47-.61-1.01-1.04-1.62-1.3s-1.27-.38-2-.38c-.8,0-1.57.15-2.3.44s-1.46.74-2.19,1.35c-.73.61-1.32,1.53-1.78,2.77-.45,1.24-.72,2.7-.79,4.4v1.3Z" fill="#fff"/>
  <path d="M103.62,658.3l14.77-38.45h4.17l14.77,38.45h-4.01l-4.41-11.48h-17.36l-4.35,11.48h-3.58ZM112.7,643.91h15.11l-6.68-17.6-.88-2.46-7.56,20.05Z"/>
  <path d="M870.47,653.3v-38h12.23c2.67,0,5.02.32,7.06.95s3.61,1.45,4.7,2.46c1.09,1,1.92,2.04,2.46,3.1.55,1.06.83,2.08.83,3.06,0,.59-.11,1.19-.33,1.81-.22.62-.63,1.37-1.22,2.27-.59.9-1.61,1.75-3.04,2.55-1.43.8-3.21,1.46-5.31,1.98,3.15.44,5.86,1.54,8.11,3.28,2.25,1.74,3.38,3.83,3.38,6.27,0,2.62-1.2,4.88-3.6,6.79-2.4,1.91-5.29,3.04-8.69,3.38-.66.07-1.62.11-2.88.11h-13.7ZM874.12,632.21h7.05c2.47-.11,4.34-.29,5.61-.54,1.26-.25,2.66-.86,4.19-1.82,2.22-1.39,3.34-3.02,3.34-4.88,0-1.64-1.09-3.18-3.26-4.61-2.17-1.43-5.43-2.14-9.77-2.14h-7.1l-.05,1.98v12.01ZM874.12,650.39h8.76c4.34,0,7.58-.77,9.71-2.32s3.19-3.25,3.19-5.1c0-.8-.24-1.63-.71-2.48s-1.2-1.71-2.19-2.58c-.99-.86-2.41-1.58-4.27-2.14-1.86-.56-3.99-.84-6.39-.84h-8.04l-.05,2.14v13.32Z"/>
  <path d="M864.7,71.04c-1.48-3.01-2.22-6.24-2.22-9.7s.74-6.7,2.22-9.71c1.48-3.01,3.63-5.47,6.45-7.37,2.82-1.9,5.99-2.85,9.49-2.85s6.99.63,10.55,1.89l-.72,3.77c-1.12-.62-2-1.08-2.64-1.37-.64-.29-1.63-.6-2.98-.91-1.34-.31-2.76-.47-4.26-.47-4.08,0-7.48,1.67-10.2,5s-4.08,7.33-4.08,11.99,1.35,8.57,4.04,11.94c2.7,3.37,6.13,5.06,10.29,5.06,1.85,0,3.5-.19,4.94-.57,1.44-.38,2.43-.71,2.95-.97.52-.27,1.52-.86,2.98-1.79l.29,3.17c-1.32.73-2.34,1.27-3.07,1.62-.73.35-1.81.68-3.23.99s-3.04.47-4.86.47c-3.51,0-6.67-.95-9.49-2.84s-4.97-4.34-6.45-7.35Z"/>
  <path d="M782.41,566.01v-31.63c0-1.49.04-2.74.11-3.75s.31-2.17.71-3.49c.4-1.33.96-2.39,1.67-3.19.71-.8,1.75-1.48,3.1-2.05,1.35-.57,3-.85,4.92-.85,3.24,0,5.8.68,7.71,2.05,1.9,1.37,2.85,3.81,2.85,7.34,0,2-.51,3.56-1.53,4.68-1.02,1.12-2.33,2.06-3.92,2.82,5.48,1.27,8.23,4.83,8.23,10.68,0,3.36-1.19,6.08-3.58,8.17-2.39,2.09-5.12,3.13-8.2,3.13-3.48,0-6.31-1.83-8.51-5.5v11.58h-3.55ZM785.96,546.35c0,1.84.19,3.33.56,4.46.55,1.7,1.49,3.19,2.82,4.46,1.33,1.28,3.02,1.91,5.07,1.91,2.22,0,4.17-.79,5.86-2.37,1.69-1.58,2.53-3.65,2.53-6.21,0-1.28-.17-2.41-.52-3.39-.35-.98-.74-1.77-1.17-2.39-.44-.61-1.07-1.15-1.91-1.61-.84-.46-1.55-.8-2.14-1.01-.59-.21-1.43-.39-2.52-.52-1.09-.13-1.86-.21-2.3-.23s-1.18-.04-2.23-.08v-2.19c1.25-.07,2.29-.17,3.11-.29.82-.12,1.87-.48,3.15-1.07,1.28-.59,2.23-1.37,2.85-2.35.55-.83.82-1.81.8-2.93,0-2.58-.62-4.38-1.86-5.41s-2.96-1.55-5.15-1.55c-.95,0-1.8.13-2.57.39s-1.39.56-1.86.9-.88.85-1.23,1.5c-.35.66-.61,1.23-.78,1.71-.17.49-.29,1.17-.36,2.06-.07.89-.12,1.58-.13,2.07-.02.5-.03,1.21-.03,2.15v11.96Z"/>
  <path d="M781.64,194.95c.07-1.53.58-2.69,1.54-3.47.95-.78,2.02-1.17,3.19-1.17.73,0,1.45.2,2.15.6.7.4,1.28.84,1.72,1.31.44.47.9,1.13,1.38,1.96.47.84.79,1.44.95,1.8.16.37.39.89.69,1.59,1.5,3.61,2.51,6.51,3.04,8.7,2.4-5.84,4.55-9.94,6.45-12.31,1.9-2.37,4.16-3.59,6.8-3.66v3.39c-1.85.07-3.36.77-4.51,2.09-1.16,1.32-2.35,3.37-3.58,6.14-.84,1.86-1.55,3.7-2.14,5.53-.59,1.83-.97,3.2-1.15,4.1s-.27,1.5-.27,1.78c.41,3.7.6,6.52.59,8.47,0,.77-.17,1.37-.49,1.81-.33.44-.66.71-.99.82-.33.11-.67.16-1.03.16-.32,0-.64-.05-.97-.16-.33-.11-.66-.38-.99-.82-.33-.44-.49-1.04-.49-1.81,0-2.09.28-4.98.83-8.68,0-.32-.17-1.42-.52-3.28-.35-1.87-.83-4.05-1.46-6.54s-1.46-4.71-2.52-6.64c-1.06-1.94-2.19-2.91-3.38-2.91-.21,0-.4.04-.55.12-.15.08-.27.17-.36.28-.09.11-.15.22-.19.34-.04.12-.07.21-.11.29l-.05.18h-3.58Z" fill="#fff"/>
</svg>